<?xml version="1.0" encoding="utf-8"?>
<!-- Generator: Adobe Illustrator 16.0.0, SVG Export Plug-In . SVG Version: 6.00 Build 0)  -->
<!DOCTYPE svg PUBLIC "-//W3C//DTD SVG 1.1//EN" "http://www.w3.org/Graphics/SVG/1.1/DTD/svg11.dtd">
<svg version="1.1" id="bord-gauche" xmlns="http://www.w3.org/2000/svg" xmlns:xlink="http://www.w3.org/1999/xlink" x="0px"
	 y="0px" width="335.154px" height="315.905px" viewBox="3.726 81.902 335.154 315.905"
	 enable-background="new 3.726 81.902 335.154 315.905" xml:space="preserve">
<g>
	<rect x="3.726" y="113.164" fill="none" width="225.051" height="284.643"/>
	<g>
		<path fill="#0E6177" d="M179.872,218.614l23.951,24.112c142.436-46.739,89.522-160.824,89.522-160.824L176.131,189.439
			L179.872,218.614z"/>
		<path fill="#2EA1BC" d="M176.131,189.439l3.742,29.175l13.992,14.092c109.369-29.345,99.48-150.804,99.48-150.804L176.131,189.439
			z"/>
		<path fill="#45B6C9" d="M293.345,81.902L176.131,189.439l2.459,19.178l0,0C286.467,184.302,293.345,81.902,293.345,81.902z"/>
		<polygon fill="#E8A621" points="106.467,156.752 101.834,162.984 6.129,153.211 104.808,139.154 		"/>
		<polygon fill="#D38E16" points="106.467,156.752 106.152,153.406 6.129,153.211 101.834,162.984 		"/>
		<path fill="#E8A621" d="M6.129,153.211"/>
		<path fill="#E8A621" d="M104.808,139.154"/>
		<path fill="#176D8C" d="M107.644,178.697l54.883,122.127c24.165,3.313,30.956-9.407,30.956-9.407
			c4.444-68.291-2.874-119.645-6.362-139.157c-0.264-2.857-0.819-5.73-1.687-8.582c-6.904-22.725-30.921-35.551-53.646-28.647
			c-22.725,6.906-35.552,30.925-28.647,53.65C104.237,172.282,105.766,175.63,107.644,178.697z"/>
		<path fill="#97E214" d="M107.644,178.697l3.339,7.434c12.103,10.22,28.969,14.299,45.245,9.354
			c16.432-4.991,28.239-17.951,32.515-33.356c-0.585-3.861-1.14-7.178-1.622-9.868c-0.264-2.857-0.819-5.73-1.687-8.582
			c-6.904-22.725-30.921-35.551-53.646-28.647c-22.725,6.906-35.552,30.925-28.647,53.65
			C104.237,172.282,105.766,175.63,107.644,178.697z"/>
		<path fill="#FFF3BF" d="M101.834,162.984c0.168-0.049,11.205-3.348,30.326,6.911l0.002-0.001
			c4.972,2.688,10.973,3.471,16.812,1.697c11.594-3.523,18.133-15.775,14.611-27.369c-3.522-11.594-15.775-18.135-27.367-14.613
			c-1.461,0.445-2.845,1.031-4.136,1.732c-7.234,2.953-21.926,8.57-27.273,7.813C101.644,146.481,100.5,154.715,101.834,162.984z"/>
		<path fill="#FFF508" d="M136.255,129.63c11.576-3.517,23.813,3.018,27.329,14.592c3.518,11.578-3.016,23.814-14.592,27.33
			c-11.575,3.519-23.815-3.015-27.334-14.593C118.141,145.385,124.678,133.147,136.255,129.63z"/>
		<path fill="#FFF508" d="M163.305,237.923c-7.479-24.619-27.488-40.629-45.911-37.528l38.86,86.469
			C165.811,275.691,169.059,256.862,163.305,237.923z"/>
		<path fill="#28285B" d="M140.324,143.023c4.181-1.271,8.598,1.089,9.865,5.269c1.271,4.183-1.086,8.601-5.266,9.871
			c-4.183,1.27-8.601-1.089-9.87-5.271C133.783,148.712,136.143,144.295,140.324,143.023z"/>
		<path fill="#176D8C" d="M269.8,247.475c94.808-45.755,64.456-132.178,64.456-132.178l-155.734,78.086
			C192.452,279.737,269.8,247.475,269.8,247.475z"/>
		<path fill="#3CAFCE" d="M178.521,193.382c0,0,23.345,57.836,85.997,30.101c0,0,56.94-23.116,48.215-97.394L178.521,193.382z"/>
		<path fill="#5ACBE5" d="M288.202,138.387l-109.681,54.996C178.521,193.382,261.951,256.398,288.202,138.387z"/>
		<path fill="#075668" d="M190.804,294.612c45.992,52.588,53.534,42.941,53.534,42.941c10.158-11.806-50.855-46.137-50.855-46.137
			C189.099,288.877,190.804,294.612,190.804,294.612z"/>
		<path fill="#0E6177" d="M185.413,298.247c54.96,102.635,65.837,82.17,65.837,82.17c10.973-18.594-60.445-85.805-60.445-85.805
			C183.016,290.636,185.413,298.247,185.413,298.247z"/>
		<path fill="#075668" d="M179.675,299.992c31.835,105.021,46.232,96.569,46.232,96.569c16.055-8.147-40.494-98.314-40.494-98.314
			C180.431,293.504,179.675,299.992,179.675,299.992z"/>
		<path fill="#0E6177" d="M174.242,301.194c10.797,106.143,23.363,96.378,23.363,96.378c12.793-10.209-17.931-97.58-17.931-97.58
			C174.713,294.43,174.242,301.194,174.242,301.194z"/>
		<path fill="#075668" d="M167.673,300.855c-5.073,97.219,5.618,89.339,5.618,89.339c14.186,0.055,0.951-89,0.951-89
			C170.47,296.195,167.672,300.855,167.673,300.855z"/>
		<path fill="#0E6177" d="M162.527,300.824c-16.026,59.158-6.216,61.47-6.216,61.47c11.36,1.842,11.36-61.438,11.36-61.438
			C163.769,297.22,162.527,300.824,162.527,300.824z"/>
	</g>
</g>
</svg>
