<?xml version="1.0" encoding="utf-8"?>
<!-- Generator: Adobe Illustrator 16.0.0, SVG Export Plug-In . SVG Version: 6.00 Build 0)  -->
<!DOCTYPE svg PUBLIC "-//W3C//DTD SVG 1.1//EN" "http://www.w3.org/Graphics/SVG/1.1/DTD/svg11.dtd">
<svg version="1.1" id="bord-gauche" xmlns="http://www.w3.org/2000/svg" xmlns:xlink="http://www.w3.org/1999/xlink" x="0px"
	 y="0px" width="335.154px" height="315.905px" viewBox="3.726 81.902 335.154 315.905"
	 enable-background="new 3.726 81.902 335.154 315.905" xml:space="preserve">
<rect x="113.829" y="113.164" fill="none" width="225.051" height="284.643"/>
<g>
	<path fill="#0E6177" d="M166.476,189.439L49.261,81.902c0,0-52.913,114.085,89.522,160.824l23.951-24.112L166.476,189.439z"/>
	<path fill="#2EA1BC" d="M49.261,81.902c0,0-9.889,121.459,99.48,150.804l13.993-14.092l3.742-29.175L49.261,81.902z"/>
	<path fill="#45B6C9" d="M164.017,208.617L164.017,208.617l2.459-19.178L49.261,81.902C49.261,81.902,56.14,184.302,164.017,208.617
		z"/>
	<polygon fill="#E8A621" points="237.799,139.154 336.478,153.211 240.773,162.984 236.14,156.752 	"/>
	<polygon fill="#D38E16" points="240.773,162.984 336.478,153.211 236.455,153.406 236.14,156.752 	"/>
	<path fill="#E8A621" d="M336.478,153.211"/>
	<path fill="#E8A621" d="M237.799,139.154"/>
	<path fill="#176D8C" d="M239.466,168.682c6.904-22.725-5.923-46.744-28.647-53.65c-22.725-6.904-46.742,5.922-53.646,28.647
		c-0.867,2.851-1.422,5.724-1.687,8.582c-3.488,19.512-10.806,70.866-6.362,139.157c0,0,6.791,12.72,30.957,9.407l54.883-122.127
		C236.841,175.63,238.37,172.282,239.466,168.682z"/>
	<path fill="#97E214" d="M239.466,168.682c6.904-22.725-5.923-46.744-28.647-53.65c-22.725-6.904-46.742,5.922-53.646,28.647
		c-0.867,2.851-1.422,5.724-1.687,8.582c-0.482,2.69-1.037,6.007-1.622,9.868c4.275,15.405,16.083,28.365,32.515,33.356
		c16.276,4.945,33.143,0.866,45.245-9.354l3.339-7.434C236.841,175.63,238.37,172.282,239.466,168.682z"/>
	<path fill="#FFF3BF" d="M237.799,139.154c-5.348,0.757-20.039-4.86-27.273-7.813c-1.291-0.701-2.675-1.287-4.136-1.732
		c-11.592-3.521-23.845,3.02-27.367,14.613c-3.521,11.594,3.018,23.846,14.611,27.369c5.839,1.774,11.84,0.99,16.812-1.697
		l0.002,0.001c19.121-10.258,30.158-6.96,30.326-6.911C242.107,154.715,240.963,146.481,237.799,139.154z"/>
	<path fill="#FFF508" d="M220.949,156.959c-3.519,11.578-15.759,18.111-27.334,14.593c-11.576-3.516-18.109-15.752-14.592-27.33
		c3.517-11.575,15.753-18.109,27.329-14.592C217.928,133.147,224.466,145.385,220.949,156.959z"/>
	<path fill="#FFF508" d="M186.352,286.863l38.86-86.469c-18.423-3.101-38.432,12.91-45.911,37.528
		C173.548,256.862,176.796,275.691,186.352,286.863z"/>
	<path fill="#28285B" d="M207.553,152.892c-1.27,4.182-5.688,6.542-9.87,5.271c-4.18-1.27-6.537-5.688-5.266-9.871
		c1.268-4.179,5.685-6.539,9.865-5.269C206.464,144.295,208.824,148.712,207.553,152.892z"/>
	<path fill="#176D8C" d="M164.086,193.382L8.351,115.296c0,0-30.351,86.423,64.456,132.178
		C72.807,247.475,150.155,279.737,164.086,193.382z"/>
	<path fill="#3CAFCE" d="M29.873,126.089c-8.725,74.278,48.215,97.394,48.215,97.394c62.653,27.735,85.998-30.101,85.998-30.101
		L29.873,126.089z"/>
	<path fill="#5ACBE5" d="M164.086,193.382L54.405,138.387C80.656,256.398,164.086,193.382,164.086,193.382z"/>
	<path fill="#075668" d="M149.123,291.417c0,0-61.013,34.331-50.855,46.137c0,0,7.542,9.646,53.535-42.941
		C151.802,294.612,153.508,288.877,149.123,291.417z"/>
	<path fill="#0E6177" d="M151.802,294.612c0,0-71.418,67.211-60.446,85.805c0,0,10.877,20.465,65.837-82.17
		C157.194,298.247,159.59,290.636,151.802,294.612z"/>
	<path fill="#075668" d="M157.194,298.247c0,0-56.549,90.167-40.495,98.314c0,0,14.398,8.452,46.233-96.569
		C162.932,299.992,162.176,293.504,157.194,298.247z"/>
	<path fill="#0E6177" d="M162.932,299.992c0,0-30.724,87.371-17.931,97.58c0,0,12.566,9.765,23.363-96.378
		C168.365,301.194,167.894,294.43,162.932,299.992z"/>
	<path fill="#075668" d="M168.365,301.194c0,0-13.235,89.055,0.951,89c0,0,10.691,7.88,5.618-89.339
		C174.935,300.855,172.136,296.195,168.365,301.194z"/>
	<path fill="#0E6177" d="M174.935,300.855c0,0,0,63.28,11.36,61.438c0,0,9.811-2.312-6.216-61.47
		C180.08,300.824,178.838,297.22,174.935,300.855z"/>
</g>
</svg>
