<?xml version="1.0" encoding="utf-8"?>
<!-- Generator: Adobe Illustrator 16.0.0, SVG Export Plug-In . SVG Version: 6.00 Build 0)  -->
<!DOCTYPE svg PUBLIC "-//W3C//DTD SVG 1.1//EN" "http://www.w3.org/Graphics/SVG/1.1/DTD/svg11.dtd">
<svg version="1.1" id="Calque_1" xmlns="http://www.w3.org/2000/svg" xmlns:xlink="http://www.w3.org/1999/xlink" x="0px" y="0px"
	 width="48.056px" height="47.709px" viewBox="0 0 48.056 47.709" enable-background="new 0 0 48.056 47.709" xml:space="preserve">
<g id="orange">
	<path id="XMLID_156_" fill="#EF7D2A" d="M9.784,43.341l-0.119-0.086C5.666,40.378,2.687,36.3,1.16,31.616L1.142,31.56
		c-1.525-4.68-1.521-9.725,0.01-14.402l0,0c1.532-4.682,4.516-8.754,8.517-11.626l0.123-0.088c3.942-2.831,8.674-4.353,13.526-4.353
		h0.316c4.862,0,9.602,1.528,13.549,4.368l0.118,0.085c4,2.878,6.979,6.956,8.506,11.64l0.018,0.056
		c1.525,4.681,1.521,9.725-0.01,14.402l0,0c-1.532,4.682-4.515,8.754-8.517,11.627l-0.122,0.088
		c-3.943,2.83-8.674,4.353-13.527,4.353h-0.316C18.47,47.709,13.73,46.181,9.784,43.341z"/>
	<g id="XMLID_121_">
		<path fill="#FFF7EF" d="M24.423,45.619c-4.682,0-9.165-1.445-12.965-4.18l-0.118-0.085c-3.853-2.773-6.667-6.625-8.139-11.139
			c-1.487-4.565-1.484-9.331-0.009-13.837c1.476-4.511,4.294-8.358,8.15-11.126l0.124-0.089C15.26,2.44,19.735,1,24.408,1h0.315
			c4.683,0,9.165,1.445,12.965,4.18l0.12,0.086c3.852,2.771,6.665,6.623,8.137,11.137c1.487,4.565,1.484,9.331,0.01,13.837
			c-1.477,4.511-4.295,8.358-8.15,11.126l-0.123,0.089c-3.795,2.724-8.271,4.164-12.943,4.164H24.423z"/>
		<path fill="#F4952F" d="M24.724,2c4.472,0,8.753,1.38,12.383,3.993l0.117,0.084c3.679,2.647,6.366,6.325,7.766,10.619l0.023,0.073
			c1.403,4.306,1.4,8.856-0.008,13.16c-1.41,4.307-4.102,7.98-7.786,10.626L37.1,40.642c-3.625,2.603-7.899,3.978-12.361,3.978
			h-0.315c-4.471,0-8.752-1.38-12.379-3.99l-0.121-0.087c-3.679-2.647-6.366-6.326-7.766-10.619L4.134,29.85
			c-1.403-4.306-1.4-8.856,0.008-13.16c1.409-4.307,4.101-7.981,7.785-10.626l0.12-0.086C15.672,3.375,19.946,2,24.408,2H24.724
			 M24.724,0h-0.315c-4.854,0-9.585,1.522-13.527,4.353L10.759,4.44c-4.002,2.873-6.985,6.945-8.518,11.627
			C0.71,20.745,0.707,25.79,2.232,30.47l0.018,0.056c1.527,4.685,4.506,8.762,8.505,11.64l0.119,0.086
			c3.946,2.84,8.687,4.368,13.549,4.368h0.315c4.854,0,9.585-1.522,13.527-4.353l0.122-0.088c4.002-2.873,6.985-6.945,8.518-11.627
			c1.531-4.678,1.534-9.723,0.009-14.402l-0.018-0.056c-1.527-4.685-4.506-8.762-8.505-11.64l-0.119-0.085
			C34.326,1.528,29.586,0,24.724,0L24.724,0z"/>
	</g>
	<circle id="XMLID_134_" fill="#FED27A" cx="24.651" cy="23.431" r="5.535"/>
	<g id="XMLID_165_">
		<path id="XMLID_141_" fill="#FFD523" d="M19.289,7.015l4.087,12.414c0.4,1.217,2.121,1.219,2.524,0.002l4.111-12.41
			c0.73-2.206-0.912-4.479-3.235-4.479h-4.25C20.205,2.542,18.563,4.81,19.289,7.015z"/>
		<path id="XMLID_135_" fill="#FFD523" d="M19.414,6.974l3.991,12.445c0.392,1.221-1,2.232-2.041,1.486l-10.62-7.625
			c-1.888-1.354-1.896-4.159-0.017-5.525l3.439-2.499C16.044,3.894,18.706,4.764,19.414,6.974z"/>
		<path id="XMLID_136_" fill="#FFD523" d="M10.843,13.151l10.544,7.723c1.034,0.756,0.504,2.395-0.777,2.401L7.536,23.351
			c-2.323,0.013-3.979-2.252-3.261-4.461l1.313-4.043C6.306,12.64,8.971,11.78,10.843,13.151z"/>
		<path id="XMLID_137_" fill="#FFD523" d="M7.54,23.187l13.069,0.051c1.281,0.004,1.814,1.641,0.782,2.399l-10.533,7.745
			c-1.871,1.377-4.541,0.518-5.259-1.692l-1.313-4.042C3.568,25.44,5.219,23.177,7.54,23.187z"/>
		<path id="XMLID_138_" fill="#FFD523" d="M10.766,33.247l10.604-7.641c1.039-0.75,2.433,0.26,2.043,1.48l-3.969,12.457
			c-0.705,2.214-3.37,3.088-5.249,1.723l-3.439-2.498C8.878,37.404,8.883,34.604,10.766,33.247z"/>
		<path id="XMLID_139_" fill="#FFD523" d="M19.289,39.489l4.087-12.414c0.4-1.217,2.121-1.218,2.524-0.002l4.111,12.41
			c0.73,2.205-0.912,4.479-3.235,4.479h-4.25C20.205,43.963,18.563,41.694,19.289,39.489z"/>
		<path id="XMLID_140_" fill="#FFD523" d="M29.854,39.53l-3.991-12.445c-0.391-1.22,1.001-2.232,2.041-1.485l10.621,7.624
			c1.887,1.354,1.896,4.159,0.016,5.525l-3.438,2.498C33.225,42.61,30.563,41.74,29.854,39.53z"/>
		<path id="XMLID_143_" fill="#FFD523" d="M38.426,33.354l-10.544-7.723c-1.033-0.757-0.503-2.395,0.778-2.401l13.073-0.075
			c2.323-0.013,3.979,2.251,3.26,4.46l-1.313,4.043C42.963,33.864,40.298,34.725,38.426,33.354z"/>
		<path id="XMLID_144_" fill="#FFD523" d="M41.729,23.317l-13.069-0.05c-1.281-0.005-1.814-1.642-0.782-2.399l10.532-7.746
			c1.872-1.376,4.542-0.517,5.26,1.692l1.313,4.042C45.7,21.064,44.05,23.327,41.729,23.317z"/>
		<path id="XMLID_145_" fill="#FFD523" d="M38.503,13.618L27.9,21.259c-1.04,0.75-2.433-0.262-2.044-1.482L29.825,7.32
			c0.705-2.213,3.37-3.088,5.25-1.722l3.438,2.499C40.392,9.46,40.386,12.261,38.503,13.618z"/>
	</g>
	<path id="XMLID_142_" fill="#F2BA1C" d="M25.894,19.429c-0.401,1.217-2.122,1.219-2.524,0.002l-4.111-12.41
		c-0.73-2.206,0.911-4.479,3.234-4.479h4.251c-2.17,0.246-2.857,0.235-4.22,2.738c-0.679,1.248-0.396,4.122,0.583,7.262
		C24.262,16.25,24.793,20.042,25.894,19.429z"/>
	<path id="XMLID_147_" fill="#F2BA1C" d="M23.336,19.44c0.391,1.221-1,2.233-2.041,1.486l-10.621-7.624
		c-1.887-1.355-1.896-4.16-0.016-5.525l3.438-2.499c-1.61,1.474-2.748,2.493-2.379,5.319c0.184,1.408,2.435,2.75,5.072,4.714
		C19.905,17.634,22.807,20.584,23.336,19.44z"/>
	<path id="XMLID_148_" fill="#F2BA1C" d="M21.274,20.954c1.033,0.757,0.503,2.395-0.778,2.401L7.423,23.431
		C5.1,23.444,3.444,21.179,4.162,18.97l1.313-4.042c-0.437,2.14-0.79,3.347,1.169,5.416c0.978,1.03,3.873,1.134,7.162,1.173
		C17.69,21.562,21.518,22.189,21.274,20.954z"/>
	<path id="XMLID_149_" fill="#F2BA1C" d="M20.495,23.39c1.281,0.006,1.814,1.642,0.782,2.4l-10.532,7.745
		c-1.872,1.376-4.542,0.517-5.26-1.692L4.172,27.8c0.904,1.988,1.701,3.224,4.502,3.745c1.396,0.261,3.643-1.321,6.326-3.222
		C18.17,26.077,21.419,24.246,20.495,23.39z"/>
	<path id="XMLID_150_" fill="#F2BA1C" d="M21.297,25.818c1.04-0.749,2.433,0.261,2.044,1.481l-3.969,12.457
		c-0.705,2.214-3.37,3.088-5.249,1.723l-3.439-2.498c1.9,1.076,3.072,1.726,5.645,0.501c1.282-0.61,2.393-3.39,3.446-6.505
		C21.019,29.298,22.548,25.968,21.297,25.818z"/>
	<path id="XMLID_151_" fill="#F2BA1C" d="M23.373,27.312c0.401-1.217,2.122-1.219,2.525-0.002l4.11,12.41
		c0.73,2.205-0.911,4.479-3.234,4.479h-4.251c2.17-0.246,3.56-0.722,4.921-3.226c0.679-1.246-0.111-3.787-1.09-6.928
		C25.198,30.337,24.474,26.698,23.373,27.312z"/>
	<path id="XMLID_152_" fill="#F2BA1C" d="M25.931,27.3c-0.391-1.221,1-2.233,2.041-1.486l10.621,7.624
		c1.887,1.354,1.895,4.159,0.016,5.524l-3.438,2.499c1.61-1.474,2.698-2.733,2.329-5.56c-0.185-1.408-2.315-2.869-4.953-4.834
		C29.431,28.747,26.46,26.156,25.931,27.3z"/>
	<path id="XMLID_153_" fill="#F2BA1C" d="M27.993,25.786c-1.034-0.757-0.504-2.395,0.777-2.401l13.073-0.075
		c2.323-0.014,3.979,2.252,3.261,4.461l-1.313,4.043c0.437-2.141,0.716-3.347-1.244-5.416c-0.977-1.03-4.146-1.318-7.436-1.357
		C31.228,24.993,27.749,24.551,27.993,25.786z"/>
	<path id="XMLID_154_" fill="#F2BA1C" d="M28.771,23.351c-1.281-0.006-1.814-1.642-0.782-2.4l10.532-7.745
		c1.872-1.376,4.542-0.517,5.26,1.692l1.313,4.043c-0.904-1.988-1.453-3.226-4.254-3.747c-1.396-0.26-4,1.202-6.684,3.103
		C30.987,20.542,27.848,22.494,28.771,23.351z"/>
	<path id="XMLID_155_" fill="#F2BA1C" d="M27.97,20.922c-1.04,0.749-2.433-0.261-2.044-1.481l3.969-12.457
		c0.705-2.214,3.37-3.088,5.25-1.723l3.438,2.499c-1.9-1.076-3.156-1.549-5.729-0.324c-1.282,0.61-1.989,3.319-3.043,6.435
		C28.567,17.55,26.719,20.772,27.97,20.922z"/>
	<path id="XMLID_212_" fill="#FDF7C7" d="M44.793,24.339c-0.346-0.472-0.782-0.844-1.276-1.105c0.491-0.263,0.925-0.633,1.268-1.104
		c0.721-0.987,0.917-2.221,0.539-3.383l-1.313-4.043c-0.379-1.164-1.264-2.046-2.429-2.421c-0.557-0.179-1.129-0.223-1.683-0.145
		c0.242-0.5,0.376-1.056,0.377-1.638c0.003-1.222-0.563-2.335-1.552-3.053l-3.439-2.499c-0.989-0.719-2.225-0.913-3.387-0.532
		c-0.544,0.178-1.022,0.471-1.419,0.847c-0.1-0.538-0.314-0.967-0.649-1.431c-0.717-0.992-1.829-1.473-3.054-1.473h-4.25
		c-1.223,0-2.335,0.479-3.051,1.47c-0.35,0.482-0.571,0.979-0.666,1.54c-0.406-0.399-0.903-0.728-1.469-0.913
		c-1.162-0.38-2.396-0.197-3.385,0.521l-3.438,2.493c-0.99,0.719-1.556,1.831-1.553,3.055c0.002,0.585,0.137,1.142,0.383,1.645
		c-0.552-0.076-1.121-0.032-1.675,0.146c-1.163,0.375-2.047,1.257-2.425,2.419l-1.313,4.042c-0.378,1.163-0.181,2.397,0.541,3.386
		c0.348,0.475,0.788,0.85,1.286,1.111c-0.494,0.261-0.934,0.627-1.277,1.098c-0.721,0.988-0.917,2.221-0.539,3.383L5.259,31.8
		c0.378,1.164,1.263,2.047,2.428,2.421c0.385,0.124,0.777,0.186,1.166,0.186c0.174,0,0.347-0.017,0.518-0.042
		c-0.243,0.502-0.377,1.057-0.378,1.641c-0.002,1.222,0.563,2.334,1.553,3.053l3.438,2.499c0.657,0.477,1.422,0.724,2.201,0.724
		c0.396,0,0.795-0.064,1.187-0.192c0.556-0.183,1.045-0.483,1.446-0.872c0.099,0.547,0.316,0.595,0.658,1.066
		c0.716,0.99,1.828,1.078,3.051,1.078h4.25c1.225,0,2.337-0.089,3.053-1.081c0.343-0.475,0.562-0.765,0.658-1.315
		c0.401,0.385,0.889,0.804,1.441,0.984c0.39,0.129,0.788,0.252,1.183,0.252c0.779-0.001,1.545-0.217,2.201-0.694l3.438-2.482
		c0.99-0.721,1.557-1.826,1.553-3.05c-0.002-0.586-0.137-1.141-0.383-1.644c0.167,0.023,0.336,0.042,0.506,0.042
		c0.39,0,0.783-0.061,1.169-0.186c1.163-0.375,2.048-1.256,2.425-2.419l1.313-4.042C45.712,26.562,45.515,25.327,44.793,24.339z
		 M40.419,12.815c0.314,0,0.633,0.049,0.944,0.149c0.943,0.304,1.659,1.018,1.966,1.96l1.313,4.042
		c0.306,0.941,0.146,1.94-0.437,2.74c-0.432,0.592-1.039,0.893-1.727,1.062c-0.236-0.046-13.804,0.063-13.804,0.063
		c-0.051,0-0.117-0.005-0.166,0c-0.419-0.065-0.675-0.332-0.769-0.619c-0.096-0.295-0.059-0.683,0.265-0.984
		c0.034-0.021,0.071-0.023,0.104-0.047l10.604-7.638c0.202-0.146,0.383-0.312,0.549-0.488
		C39.631,12.902,40.021,12.815,40.419,12.815z M27.062,24.038c-0.104,0.322-0.106,0.65-0.025,0.955
		c-0.314,0.019-0.626,0.123-0.9,0.322c-0.273,0.199-0.469,0.291-0.582,0.584c-0.265-0.17-0.581-0.338-0.919-0.338c-0.001,0,0,0,0,0
		c-0.34,0-0.649,0.169-0.914,0.34c-0.114-0.293-0.31-0.471-0.585-0.67c-0.274-0.199-0.585-0.26-0.899-0.276
		c0.08-0.305,0.077-0.612-0.028-0.935c-0.104-0.321-0.296-0.578-0.54-0.776c0.244-0.2,0.435-0.462,0.539-0.784
		s0.106-0.647,0.025-0.952c0.314-0.019,0.626-0.12,0.899-0.319c0.275-0.201,0.472-0.636,0.585-0.932
		c0.266,0.173,0.58,0.104,0.92,0.104h0.002c0.337,0,0.647,0.071,0.911-0.097c0.114,0.292,0.31,0.64,0.582,0.837
		c0.274,0.199,0.586,0.346,0.9,0.363c-0.08,0.305-0.076,0.654,0.028,0.977c0.105,0.322,0.296,0.6,0.54,0.799
		C27.357,23.438,27.166,23.716,27.062,24.038z M32.121,5.097c0.317-0.104,0.641-0.155,0.961-0.155c0.631,0,1.251,0.199,1.782,0.585
		l3.438,2.499c0.801,0.582,1.26,1.483,1.258,2.473c-0.002,0.733-0.256,1.416-0.714,1.956c-0.225,0.105-11.182,8.125-11.182,8.125
		c-0.041,0.029-0.076,0.064-0.114,0.098c-0.375,0.193-0.754,0.107-0.998-0.07c-0.239-0.174-0.434-0.496-0.381-0.9
		c0.024-0.053,0.05-0.105,0.068-0.162l4.111-12.411c0.087-0.263,0.141-0.53,0.169-0.797C30.893,5.759,31.444,5.319,32.121,5.097z
		 M20.056,4.392c0.58-0.802,1.48-1.031,2.471-1.031h4.25c0.991,0,1.893,0.23,2.473,1.033c0.415,0.575,0.607,1.135,0.572,1.818
		c-0.137,0.236-4.307,13.131-4.307,13.131c-0.018,0.058-0.028-0.184-0.04-0.127c-0.195,0.357-0.541,0.203-0.836,0.203l-0.001,0.001
		c-0.31,0-0.677,0.124-0.863-0.274c-0.01-0.039-0.016,0.063-0.028,0.023l-3.99-12.375c-0.069-0.215-0.161-0.266-0.263-0.46
		C19.416,5.597,19.607,5.011,20.056,4.392z M9.682,10.521c-0.003-0.991,0.455-1.893,1.257-2.476l3.438-2.499
		c0.532-0.386,1.151-0.585,1.782-0.585c0.32,0,0.643,0.051,0.959,0.154c0.729,0.239,1.316,0.729,1.687,1.375
		c0.031,0.213,0.075,0.425,0.145,0.636l4.086,12.414c0.014,0.04,0.032,0.076,0.047,0.113c0.082,0.432-0.121,0.775-0.371,0.957
		c-0.245,0.178-0.623,0.264-1,0.07c-0.037-0.031-0.071-0.066-0.112-0.096l-10.544-7.723c-0.208-0.152-0.428-0.276-0.654-0.381
		C9.939,11.94,9.684,11.256,9.682,10.521z M5.054,21.742c-0.584-0.8-0.744-1.8-0.438-2.742l1.313-4.042
		c0.306-0.941,1.021-1.655,1.963-1.96c0.313-0.101,0.631-0.15,0.947-0.15c0.395,0,0.781,0.087,1.147,0.239
		c0.166,0.175,11.168,8.11,11.168,8.11c0.033,0.022,0.07,0.031,0.104,0.052c0.324,0.302,0.362,0.702,0.267,0.997
		c-0.093,0.287-0.349,0.58-0.767,0.646c-0.05-0.005-0.255,0.02-0.306,0.02c0,0-13.406-0.048-13.647,0
		C6.108,22.746,5.491,22.341,5.054,21.742z M7.906,33.54c-0.943-0.304-1.66-1.019-1.966-1.961l-1.314-4.043
		c-0.306-0.941-0.146-1.939,0.437-2.74c0.433-0.592,1.039-0.836,1.728-1.004C7.026,23.838,20.476,23.7,20.476,23.7
		c0.05,0,0.234,0.005,0.283,0c0.419,0.064,0.675,0.316,0.769,0.604c0.094,0.287,0.059,0.653-0.241,0.953
		c-0.042,0.025-0.086,0.038-0.127,0.067c0,0-10.996,7.955-11.166,8.138C9.337,33.733,8.606,33.765,7.906,33.54z M17.147,41.407
		c-0.941,0.309-1.941,0.152-2.743-0.43l-3.438-2.499c-0.801-0.582-1.259-1.483-1.258-2.474c0.002-0.734,0.258-1.418,0.718-1.96
		c0.223-0.104,11.178-8.12,11.178-8.12c0.044-0.031,0.081-0.068,0.121-0.104c0.141-0.07,0.281-0.114,0.415-0.114
		c0.222,0,0.425,0.081,0.576,0.19c0.245,0.178,0.444,0.511,0.377,0.93c-0.02,0.045-0.041,0.089-0.058,0.137
		c0,0-4.215,12.904-4.245,13.15C18.418,40.721,17.847,41.178,17.147,41.407z M29.249,42.218c-0.58,0.804-1.481,1.143-2.473,1.143
		h-4.25c-0.99,0-1.891-0.339-2.471-1.14c-0.43-0.594-0.625-1.235-0.572-1.942c0.119-0.217,4-12.717,4-12.717
		c0.015-0.049-0.044-0.469-0.033-0.518c0.19-0.378,0.512-0.527,0.512-0.527v0.002c1,0,0.997,0.153,1.188,0.53
		c0.011,0.048,0.306,0.464,0.321,0.513c0,0,4.158,12.49,4.279,12.709C29.806,40.978,29.68,41.622,29.249,42.218z M39.588,35.982
		c0.002,0.991-0.456,1.894-1.258,2.477l-3.438,2.498c-0.801,0.582-1.799,0.739-2.74,0.432c-0.697-0.228-1.268-0.683-1.641-1.286
		c-0.03-0.245-4.271-13.142-4.271-13.142c-0.016-0.048-0.038-0.093-0.058-0.138c-0.067-0.418,0.131-0.751,0.375-0.929
		c0.152-0.11,0.355-0.192,0.578-0.192c0.133,0,0.273,0.043,0.413,0.113c0.04,0.035,0.078,0.072,0.122,0.104l10.543,7.724
		c0.206,0.151,0.426,0.271,0.65,0.376C39.327,34.56,39.586,35.245,39.588,35.982z M44.653,27.505l-1.313,4.043
		c-0.307,0.939-1.021,1.654-1.964,1.959c-0.697,0.226-1.425,0.193-2.08-0.074c-0.17-0.182-0.354-0.352-0.562-0.5l-10.621-7.624
		c-0.041-0.029-0.084-0.052-0.127-0.077c-0.301-0.299-0.336-0.685-0.243-0.973c0.094-0.287,0.349-0.58,0.768-0.645
		c0.049,0.004,0.161-0.001,0.212,0c0,0,13.519,0.207,13.759,0.16c0.69,0.166,1.3,0.482,1.733,1.075
		C44.8,25.649,44.959,26.562,44.653,27.505z"/>
</g>
</svg>
