<?xml version="1.0" encoding="utf-8"?>
<!-- Generator: Adobe Illustrator 16.0.0, SVG Export Plug-In . SVG Version: 6.00 Build 0)  -->
<!DOCTYPE svg PUBLIC "-//W3C//DTD SVG 1.1//EN" "http://www.w3.org/Graphics/SVG/1.1/DTD/svg11.dtd">
<svg version="1.1" id="Calque_1" xmlns="http://www.w3.org/2000/svg" xmlns:xlink="http://www.w3.org/1999/xlink" x="0px" y="0px"
	 width="75.907px" height="201.833px" viewBox="0 0 75.907 201.833" enable-background="new 0 0 75.907 201.833"
	 xml:space="preserve">
<g id="cocktail4">
	<path id="XMLID_763_" fill="#1A5953" d="M44.196,20.957L57.331,2.694c0.797-1.107,2.537-0.304,2.21,1.021l-2.307,9.347L68.708,6.3
		c1.266-0.746,2.548,0.94,1.49,1.96l-10.316,9.951h13.337c1.419,0,1.725,1.998,0.37,2.422l-13.708,4.296l7.386,4.38
		c1.125,0.667,0.584,2.396-0.721,2.303l-26.43-1.875L44.196,20.957z"/>
	<path id="XMLID_768_" fill="#00A67B" d="M45.645,18.784L58.779,0.522c0.797-1.107,2.537-0.304,2.21,1.021l-2.307,9.347
		l11.474-6.762c1.266-0.746,2.548,0.94,1.489,1.96l-10.316,9.95h13.338c1.419,0,1.725,1.999,0.37,2.423l-13.708,4.296l7.386,4.38
		c1.124,0.667,0.584,2.396-0.721,2.303l-26.43-1.875L45.645,18.784z"/>
	<path id="XMLID_754_" fill="#EBECED" d="M36.315,201.833c20.309,0,22.241-1.887,22.241-1.887l-15.606-7.295
		c-2.476-1.158-4.058-3.645-4.058-6.377v-41.25c0-15.791,0.336-23.656,3.164-28.135c2.829-4.479,10.135-9.578,10.135-9.578H20.608
		c0,0,6.97,5.1,9.799,9.578c2.828,4.479,2.828,12.344,2.828,28.135v41.283c0,2.717-1.563,5.189-4.015,6.355l-15.313,7.283
		C13.907,199.946,16.008,201.833,36.315,201.833"/>
	<g id="XMLID_753_">
		<path id="XMLID_756_" fill="#E62249" d="M59.882,37.953c-11.047-1.102-36.189-1.102-47.236,0
			C8.78,49.177,2.421,71.34,6.764,85.389c6.011,19.448,18.739,27.225,29.346,27.225c10.607,0,23.645-7.777,29.655-27.225
			C70.106,71.34,63.747,49.177,59.882,37.953z"/>
		<path id="XMLID_769_" fill="#EBECED" d="M59.881,37.954c-11.046-1.104-36.191-1.104-47.237,0c1.485-4.313,2.603-7.015,2.603-7.015
			l0.028-0.185c1.386-3.592,42.004-3.521,42.004,0.185C57.278,30.939,58.396,33.641,59.881,37.954z"/>
	</g>
	<path id="XMLID_316_" fill="#CB1736" d="M12.646,37.953c0,0,0.482,2.532,23.618,2.532s23.618-2.532,23.618-2.532
		s-9.052-0.826-23.464-0.826S12.646,37.953,12.646,37.953z"/>
	<path id="XMLID_761_" fill="#CB1736" d="M6.764,85.389c6.011,19.448,18.739,27.225,29.346,27.225
		c10.607,0,23.645-7.777,29.655-27.225c0.334-1.081,0.585-2.224,0.798-3.392c-2.039,7.527-9.646,26.23-33.798,18.242
		c-29.936-9.9-20.119-62.286-20.119-62.286C8.78,49.177,2.421,71.34,6.764,85.389z"/>
	<path id="XMLID_757_" fill="#EC5E76" d="M58.557,42.076c0,0,10.743,35.357-0.748,51.799c0,0,8.754-25.803-9.369-40.131
		c-11.657-9.215-25.634-11.668-25.634-11.668S38.621,44.552,58.557,42.076z"/>
	<path id="XMLID_764_" fill="#C4C8D2" d="M40.384,116.762c2.271-1.93,3.981-4.502,3.981-4.502s-4.294,1.18-8.433,1.18
		c-4.138,0-7.503-1.18-7.503-1.18s1.324,1.367,2.39,2.77c2.949,3.881,3.831,8.516,3.831,13.389v61.771
		c0,1.207-0.697,2.307-1.788,2.82l-13.593,6.406c0,0,12.641,1.061,21.392,0.441c0,0-9.281-0.707-9.281-2.209
		c0-0.939,1.833-2.848,3.207-4.145c0.948-0.895,1.483-2.139,1.483-3.443l-0.006-63.898C36.064,122.549,37.63,119.102,40.384,116.762
		z"/>
	<path id="XMLID_767_" fill="#C4C8D2" d="M57.278,30.939c0,0-8.882,1.172-21.016,1.172c-12.135,0-21.017-1.172-21.017-1.172
		l0.028-0.185C16.66,27.163,57.278,27.233,57.278,30.939z"/>
	<g id="XMLID_759_">
		<path id="XMLID_758_" fill="#FED94F" d="M26.694,34.475c4.738,2.369,23.839-10.355,26.164-11.845
			c4.42-2.828,0-10.783-7.955-16.971c-7.955-6.188-19.977-2.298-20.33,1.944C24.22,11.847,22.452,32.354,26.694,34.475z"/>
		<path id="XMLID_760_" fill="#FFE495" d="M29.965,31.734c0.757,2.212,19.535-11.049,20.242-12.993
			c0.707-1.945-3.125-9.293-5.069-8.586S29.258,29.669,29.965,31.734z"/>
		<path id="XMLID_762_" fill="#FFE495" d="M27.667,29.701c2.096,1.036,10.68-21.634,9.812-23.512s-8.399-1.077-9.281,0.795
			S25.709,28.734,27.667,29.701z"/>
	</g>
	<path id="XMLID_777_" fill="#CB1736" d="M29.347,25.819c0,3.833-2.928,6.986-6.661,7.368c-0.028,0.015-0.071,0.015-0.113,0
		c-0.213,0.028-0.438,0.043-0.651,0.043c-4.101,0-7.425-3.324-7.425-7.411c0-4.102,3.324-7.439,7.425-7.439
		c0.213,0,0.438,0.015,0.651,0.043c0.042-0.015,0.085-0.015,0.113,0C26.419,18.805,29.347,21.973,29.347,25.819z"/>
	<path id="XMLID_775_" fill="#E22128" d="M29.347,25.819c0,3.833-2.928,6.986-6.661,7.368c-0.028,0.015-0.071,0.015-0.113,0
		c-3.734-0.382-6.661-3.535-6.661-7.368c0-3.847,2.927-7.015,6.661-7.396c0.042-0.015,0.085-0.015,0.113,0
		C26.419,18.805,29.347,21.973,29.347,25.819z"/>
	<polygon id="XMLID_766_" fill="#FFE495" points="19.446,25.813 0,32.111 20.153,28.109 	"/>
	<circle id="XMLID_752_" fill="#F4A882" cx="23.907" cy="22.1" r="1.986"/>
</g>
</svg>
