<?xml version="1.0" encoding="utf-8"?>
<!-- Generator: Adobe Illustrator 16.0.0, SVG Export Plug-In . SVG Version: 6.00 Build 0)  -->
<!DOCTYPE svg PUBLIC "-//W3C//DTD SVG 1.1//EN" "http://www.w3.org/Graphics/SVG/1.1/DTD/svg11.dtd">
<svg version="1.1" id="bord-gauche" xmlns="http://www.w3.org/2000/svg" xmlns:xlink="http://www.w3.org/1999/xlink" x="0px"
	 y="0px" width="205.586px" height="200.076px" viewBox="0 0 205.586 200.076" enable-background="new 0 0 205.586 200.076"
	 xml:space="preserve">
<g>
	<g>
		<defs>
			<path id="SVGID_1_" d="M113.945,112.228c-2.28,3.152,0.44,11.994,5.758,9.816c5.333-2.18,8.684-9.078,14.755-11.021
				c6.089-1.943,42.349-30.723,45.653-49.421c3.319-18.696,6.134-9.557,6.025-19.639c-0.126-10.086,0.583-9.998-2.25-11.373
				c-2.848-1.376-3.13-8.025-5.176-10.021c-2.044-1.999-3.806-6.111-7.645-7.472c-3.854-1.37-6.607-4.47-9.958-5.324
				c-3.335-0.875-5.396-4.888-10.241-4.218c-4.831,0.659-9.974-5.993-13.654-1.683c-3.65,4.303-5.664,5.339-10.792,6.103
				c-5.144,0.778-10.068,2.14-13.907,9.55c-3.854,7.41-6.968,8.157-7.173,16.328c-0.205,8.175,0.189,16.142,3.729,25.375
				c3.54,9.234,7.833,13.829,8.684,25.012C118.587,95.426,118.476,102.889,113.945,112.228z"/>
		</defs>
		<clipPath id="SVGID_2_">
			<use xlink:href="#SVGID_1_"  overflow="visible"/>
		</clipPath>
		<path clip-path="url(#SVGID_2_)" fill="#FF3030" d="M113.945,112.228c-2.28,3.152,0.44,11.994,5.758,9.816
			c5.333-2.18,8.684-9.078,14.755-11.021c6.089-1.943,42.349-30.723,45.653-49.421c3.319-18.696,6.134-9.557,6.025-19.639
			c-0.126-10.086,0.583-9.998-2.25-11.373c-2.848-1.376-3.13-8.025-5.176-10.021c-2.044-1.999-3.806-6.111-7.645-7.472
			c-3.854-1.37-6.607-4.47-9.958-5.324c-3.335-0.875-5.396-4.888-10.241-4.218c-4.831,0.659-9.974-5.993-13.654-1.683
			c-3.65,4.303-5.664,5.339-10.792,6.103c-5.144,0.778-10.068,2.14-13.907,9.55c-3.854,7.41-6.968,8.157-7.173,16.328
			c-0.205,8.175,0.189,16.142,3.729,25.375c3.54,9.234,7.833,13.829,8.684,25.012C118.587,95.426,118.476,102.889,113.945,112.228z"
			/>
		
			<linearGradient id="SVGID_3_" gradientUnits="userSpaceOnUse" x1="235.1641" y1="98.4736" x2="307.6738" y2="162.0059" gradientTransform="matrix(0.9448 -0.3276 0.3276 0.9448 -161.3335 29.7847)">
			<stop  offset="0" style="stop-color:#4A4A4A"/>
			<stop  offset="0.1194" style="stop-color:#373737"/>
			<stop  offset="0.3119" style="stop-color:#1F1F1F"/>
			<stop  offset="0.5154" style="stop-color:#0E0E0E"/>
			<stop  offset="0.735" style="stop-color:#030303"/>
			<stop  offset="1" style="stop-color:#000000"/>
		</linearGradient>
		<path clip-path="url(#SVGID_2_)" fill="url(#SVGID_3_)" d="M113.945,112.228c-2.28,3.152,0.44,11.994,5.758,9.816
			c5.333-2.18,8.684-9.078,14.755-11.021c6.089-1.943,42.349-30.723,45.653-49.421c3.319-18.696,6.134-9.557,6.025-19.639
			c-0.126-10.086,0.583-9.998-2.25-11.373c-2.848-1.376-3.13-8.025-5.176-10.021c-2.044-1.999-3.806-6.111-7.645-7.472
			c-3.854-1.37-6.607-4.47-9.958-5.324c-3.335-0.875-5.396-4.888-10.241-4.218c-4.831,0.659-9.974-5.993-13.654-1.683
			c-3.65,4.303-5.664,5.339-10.792,6.103c-5.144,0.778-10.068,2.14-13.907,9.55c-3.854,7.41-6.968,8.157-7.173,16.328
			c-0.205,8.175,0.189,16.142,3.729,25.375c3.54,9.234,7.833,13.829,8.684,25.012C118.587,95.426,118.476,102.889,113.945,112.228z"
			/>
		
			<radialGradient id="SVGID_4_" cx="269.2852" cy="133.1367" r="78.9004" gradientTransform="matrix(0.9448 -0.3276 0.3276 0.9448 -161.3335 29.7847)" gradientUnits="userSpaceOnUse">
			<stop  offset="0.3656" style="stop-color:#FF3030"/>
			<stop  offset="0.3792" style="stop-color:#FC3136"/>
			<stop  offset="0.5915" style="stop-color:#D33E8B"/>
			<stop  offset="0.765" style="stop-color:#B547CA"/>
			<stop  offset="0.8912" style="stop-color:#A24DF0"/>
			<stop  offset="0.957" style="stop-color:#9B4FFF"/>
		</radialGradient>
		<path opacity="0.5" clip-path="url(#SVGID_2_)" fill="url(#SVGID_4_)" d="M211.243,41.506
			C196.975,0.33,152.031-21.475,110.862-7.197C69.694,7.07,47.874,52.014,62.158,93.192c14.27,41.174,59.212,62.978,100.397,48.71
			C203.724,127.629,225.527,82.674,211.243,41.506z"/>
		
			<radialGradient id="SVGID_5_" cx="578.2871" cy="763.9023" r="25.2295" gradientTransform="matrix(-1.6616 3.6624 -1.607 -0.7291 2307.605 -1447.8447)" gradientUnits="userSpaceOnUse">
			<stop  offset="0" style="stop-color:#BA004E"/>
			<stop  offset="0.1702" style="stop-color:#C83673"/>
			<stop  offset="0.459" style="stop-color:#E08BAE"/>
			<stop  offset="0.6954" style="stop-color:#F1CADA"/>
			<stop  offset="0.8673" style="stop-color:#FBF0F5"/>
			<stop  offset="0.957" style="stop-color:#FFFFFF"/>
		</radialGradient>
		<path clip-path="url(#SVGID_2_)" fill="url(#SVGID_5_)" d="M77.213,205.521c22.385,10.162,59.322-22.983,82.464-74.017
			c23.156-51.031,23.77-100.648,1.384-110.801c-22.401-10.162-59.323,22.975-82.464,74.006
			C55.441,145.751,54.812,195.359,77.213,205.521z"/>
		<g opacity="0.7" clip-path="url(#SVGID_2_)">
			
				<radialGradient id="SVGID_6_" cx="1182.208" cy="2293.542" r="31.7524" gradientTransform="matrix(0.6301 -1.1554 0.4029 0.2197 -1496.5736 867.0765)" gradientUnits="userSpaceOnUse">
				<stop  offset="0" style="stop-color:#FFB169"/>
				<stop  offset="0.1009" style="stop-color:#CE8F55"/>
				<stop  offset="0.226" style="stop-color:#98693F"/>
				<stop  offset="0.3527" style="stop-color:#69492B"/>
				<stop  offset="0.4781" style="stop-color:#432F1C"/>
				<stop  offset="0.6021" style="stop-color:#261A10"/>
				<stop  offset="0.7242" style="stop-color:#110C07"/>
				<stop  offset="0.8435" style="stop-color:#040302"/>
				<stop  offset="0.957" style="stop-color:#000000"/>
			</radialGradient>
			<path fill="url(#SVGID_6_)" d="M192.413-31.645c-7.063-3.846-21.756,9.453-32.799,29.709
				c-11.044,20.268-14.284,39.815-7.222,43.67c7.064,3.854,21.757-9.447,32.8-29.709C196.251-8.236,199.476-27.781,192.413-31.645z"
				/>
			
				<radialGradient id="SVGID_7_" cx="1114.2197" cy="3120.2744" r="31.749" gradientTransform="matrix(0.3601 -1.2658 0.2438 0.0694 -1006.6982 1189.699)" gradientUnits="userSpaceOnUse">
				<stop  offset="0" style="stop-color:#FFB169"/>
				<stop  offset="0.1009" style="stop-color:#CE8F55"/>
				<stop  offset="0.226" style="stop-color:#98693F"/>
				<stop  offset="0.3527" style="stop-color:#69492B"/>
				<stop  offset="0.4781" style="stop-color:#432F1C"/>
				<stop  offset="0.6021" style="stop-color:#261A10"/>
				<stop  offset="0.7242" style="stop-color:#110C07"/>
				<stop  offset="0.8435" style="stop-color:#040302"/>
				<stop  offset="0.957" style="stop-color:#000000"/>
			</radialGradient>
			<path fill="url(#SVGID_7_)" d="M166.692-44.329c-4.279-1.221-12.868,15.793-19.176,37.995
				c-6.325,22.199-7.975,41.179-3.696,42.396c4.279,1.212,12.867-15.793,19.176-37.998
				C169.304-24.132,170.971-43.111,166.692-44.329z"/>
			
				<radialGradient id="SVGID_8_" cx="1422.1338" cy="1998.4355" r="31.7471" gradientTransform="matrix(0.9513 -0.3334 0.0838 0.2392 -1328.324 25.408)" gradientUnits="userSpaceOnUse">
				<stop  offset="0" style="stop-color:#FFB169"/>
				<stop  offset="0.1702" style="stop-color:#C98C53"/>
				<stop  offset="0.459" style="stop-color:#745130"/>
				<stop  offset="0.6954" style="stop-color:#352516"/>
				<stop  offset="0.8673" style="stop-color:#0F0A06"/>
				<stop  offset="0.957" style="stop-color:#000000"/>
			</radialGradient>
			<path fill="url(#SVGID_8_)" d="M222.224,18.704c-1.463-4.194-16.188-2.854-32.863,2.997
				c-16.691,5.845-29.024,13.983-27.545,18.184c1.462,4.194,16.186,2.848,32.861-2.997
				C211.369,31.046,223.702,22.904,222.224,18.704z"/>
			
				<radialGradient id="SVGID_9_" cx="1600.458" cy="1300.8164" r="31.7534" gradientTransform="matrix(0.6903 3.000000e-004 -1.000000e-004 0.2535 -913.7949 -277.4078)" gradientUnits="userSpaceOnUse">
				<stop  offset="0" style="stop-color:#FFB169"/>
				<stop  offset="0.1702" style="stop-color:#C98C53"/>
				<stop  offset="0.459" style="stop-color:#745130"/>
				<stop  offset="0.6954" style="stop-color:#352516"/>
				<stop  offset="0.8673" style="stop-color:#0F0A06"/>
				<stop  offset="0.957" style="stop-color:#000000"/>
			</radialGradient>
			<path fill="url(#SVGID_9_)" d="M212.786,52.833c0-4.438-9.802-8.049-21.898-8.055c-12.114,0-21.93,3.594-21.93,8.037
				c-0.016,4.445,9.8,8.054,21.914,8.065C202.969,60.887,212.786,57.284,212.786,52.833z"/>
			
				<radialGradient id="SVGID_10_" cx="1004.1631" cy="2733.7197" r="31.7544" gradientTransform="matrix(-0.0386 -1.3155 0.3453 -0.0101 -770.0259 1343.8579)" gradientUnits="userSpaceOnUse">
				<stop  offset="0" style="stop-color:#FFB169"/>
				<stop  offset="0.1009" style="stop-color:#CE8F55"/>
				<stop  offset="0.226" style="stop-color:#98693F"/>
				<stop  offset="0.3527" style="stop-color:#69492B"/>
				<stop  offset="0.4781" style="stop-color:#432F1C"/>
				<stop  offset="0.6021" style="stop-color:#261A10"/>
				<stop  offset="0.7242" style="stop-color:#110C07"/>
				<stop  offset="0.8435" style="stop-color:#040302"/>
				<stop  offset="0.957" style="stop-color:#000000"/>
			</radialGradient>
			<path fill="url(#SVGID_10_)" d="M133.94-46.501c-6.057,0.17-10.415,19.018-9.739,42.096c0.678,23.071,6.136,41.627,12.193,41.445
				c6.056-0.182,10.414-19.021,9.737-42.099C145.456-28.121,139.996-46.683,133.94-46.501z"/>
			
				<radialGradient id="SVGID_11_" cx="957.6494" cy="2111.2637" r="61.3618" gradientTransform="matrix(0.0447 -1.3153 0.5426 0.0184 -1082.7788 1242.7312)" gradientUnits="userSpaceOnUse">
				<stop  offset="0" style="stop-color:#FFB169"/>
				<stop  offset="0.0125" style="stop-color:#F5AA65"/>
				<stop  offset="0.0854" style="stop-color:#C38750"/>
				<stop  offset="0.1634" style="stop-color:#94673D"/>
				<stop  offset="0.2448" style="stop-color:#6C4B2D"/>
				<stop  offset="0.3306" style="stop-color:#4B341F"/>
				<stop  offset="0.4216" style="stop-color:#2F2114"/>
				<stop  offset="0.5201" style="stop-color:#1A120B"/>
				<stop  offset="0.6295" style="stop-color:#0B0805"/>
				<stop  offset="0.7587" style="stop-color:#030201"/>
				<stop  offset="0.957" style="stop-color:#000000"/>
			</radialGradient>
			<path fill="url(#SVGID_11_)" d="M108.345-58.726c-18.374-0.621-34.53,35.001-36.04,79.569
				c-1.51,44.574,12.177,81.22,30.551,81.849c18.389,0.621,34.53-35.01,36.04-79.584C140.422-21.46,126.735-58.103,108.345-58.726z"
				/>
		</g>
		
			<radialGradient id="SVGID_12_" cx="854.6104" cy="561.9443" r="9.3696" gradientTransform="matrix(1.1475 -2.4242 1.2605 0.5967 -1568.8617 1849.1963)" gradientUnits="userSpaceOnUse">
			<stop  offset="0.3656" style="stop-color:#BA004E"/>
			<stop  offset="0.4708" style="stop-color:#C83673"/>
			<stop  offset="0.6492" style="stop-color:#E08BAE"/>
			<stop  offset="0.7953" style="stop-color:#F1CADA"/>
			<stop  offset="0.9016" style="stop-color:#FBF0F5"/>
			<stop  offset="0.957" style="stop-color:#FFFFFF"/>
		</radialGradient>
		<path clip-path="url(#SVGID_2_)" fill="url(#SVGID_12_)" d="M130.888,90.043c-6.512-3.09-16.628,4.578-22.558,17.125
			c-5.947,12.553-5.46,25.22,1.054,28.315c6.528,3.085,16.628-4.592,22.558-17.13C137.889,105.807,137.416,93.128,130.888,90.043z"
			/>
		
			<radialGradient id="SVGID_13_" cx="886.2979" cy="587.4727" r="25.9985" gradientTransform="matrix(2.162 -1.5872 0.8253 1.1242 -2245.8198 849.8784)" gradientUnits="userSpaceOnUse">
			<stop  offset="0" style="stop-color:#BA004E"/>
			<stop  offset="0.1702" style="stop-color:#C83673"/>
			<stop  offset="0.459" style="stop-color:#E08BAE"/>
			<stop  offset="0.6954" style="stop-color:#F1CADA"/>
			<stop  offset="0.8673" style="stop-color:#FBF0F5"/>
			<stop  offset="0.957" style="stop-color:#FFFFFF"/>
		</radialGradient>
		<path clip-path="url(#SVGID_2_)" fill="url(#SVGID_13_)" d="M211.416,62.318c-11.845-16.141-46.627-10.75-77.664,12.035
			c-31.054,22.802-46.613,54.357-34.767,70.499c11.846,16.141,46.627,10.744,77.666-12.044
			C207.719,110.024,223.278,78.459,211.416,62.318z"/>
		
			<radialGradient id="SVGID_14_" cx="744.8037" cy="562.082" r="9.3682" gradientTransform="matrix(3.2953 -6.9617 1.2605 0.5967 -3042.7234 4962.4653)" gradientUnits="userSpaceOnUse">
			<stop  offset="0.3656" style="stop-color:#D100AB"/>
			<stop  offset="0.4708" style="stop-color:#DB36BD"/>
			<stop  offset="0.6492" style="stop-color:#EA8BD9"/>
			<stop  offset="0.7953" style="stop-color:#F5CAED"/>
			<stop  offset="0.9016" style="stop-color:#FCF0FA"/>
			<stop  offset="0.957" style="stop-color:#FFFFFF"/>
		</radialGradient>
		<path clip-path="url(#SVGID_2_)" fill="url(#SVGID_14_)" d="M151.024,47.523c-6.528-3.091-25.641,23.619-42.694,59.645
			s-25.596,67.745-19.066,70.83c6.512,3.09,25.625-23.619,42.678-59.653C149.01,82.322,157.552,50.608,151.024,47.523z"/>
		
			<radialGradient id="SVGID_15_" cx="444.5986" cy="-134.2813" r="43.7644" gradientTransform="matrix(1.8671 -0.9324 0.7336 1.4691 -582.1608 610.9994)" gradientUnits="userSpaceOnUse">
			<stop  offset="0" style="stop-color:#FF1A1A"/>
			<stop  offset="0.1702" style="stop-color:#C91515"/>
			<stop  offset="0.459" style="stop-color:#740C0C"/>
			<stop  offset="0.6954" style="stop-color:#350505"/>
			<stop  offset="0.8673" style="stop-color:#0F0202"/>
			<stop  offset="0.957" style="stop-color:#000000"/>
		</radialGradient>
		<path clip-path="url(#SVGID_2_)" fill="url(#SVGID_15_)" d="M231.16-41.619c-17.745-35.513-68.7-46.029-113.817-23.493
			C72.211-42.579,49.999,4.475,67.728,39.996c17.729,35.495,68.682,46.014,113.815,23.479
			C226.676,40.938,248.888-6.112,231.16-41.619z"/>
	</g>
	<g>
		<defs>
			<path id="SVGID_16_" d="M115.455,123.528c1.668,1.771-2.249,3.132-2.563,9.997c-0.315,6.857,5.726,20.631,14.677,24.951
				c8.966,4.316,17.352,5.127,22.936,7.58c5.57,2.455,18.327-1.633,21.269-0.966c2.943,0.685,14.333-7.331,16.346-7.354
				c2.028-0.023,8.966-10.194,11.86-12.548c2.895-2.358,2.549-14.054,5.16-15.295c2.612-1.235-7.205-11.06-4.547-13.135
				c2.643-2.072-4.608-9.349-3.995-13.949c0.597-4.601-7.63-9.84-8.59-13.568c-0.944-3.711-8.667-6.685-12.301-9.225
				c-3.666-2.541-16.188-3.846-19.854,2.153c-3.664,5.994-16.627,26.031-21.395,28.853c-4.75,2.833-13.009,8.73-14.881,6.679
				C117.721,115.646,110.721,118.761,115.455,123.528z"/>
		</defs>
		<clipPath id="SVGID_17_">
			<use xlink:href="#SVGID_16_"  overflow="visible"/>
		</clipPath>
		<path clip-path="url(#SVGID_17_)" fill="#FF3030" d="M115.455,123.528c1.668,1.771-2.249,3.132-2.563,9.997
			c-0.315,6.857,5.726,20.631,14.677,24.951c8.966,4.316,17.352,5.127,22.936,7.58c5.57,2.455,18.327-1.633,21.269-0.966
			c2.943,0.685,14.333-7.331,16.346-7.354c2.028-0.023,8.966-10.194,11.86-12.548c2.895-2.358,2.549-14.054,5.16-15.295
			c2.612-1.235-7.205-11.06-4.547-13.135c2.643-2.072-4.608-9.349-3.995-13.949c0.597-4.601-7.63-9.84-8.59-13.568
			c-0.944-3.711-8.667-6.685-12.301-9.225c-3.666-2.541-16.188-3.846-19.854,2.153c-3.664,5.994-16.627,26.031-21.395,28.853
			c-4.75,2.833-13.009,8.73-14.881,6.679C117.721,115.646,110.721,118.761,115.455,123.528z"/>
		
			<linearGradient id="SVGID_18_" gradientUnits="userSpaceOnUse" x1="314.2803" y1="163.5098" x2="243.3823" y2="220.2616" gradientTransform="matrix(0.9448 -0.3276 0.3276 0.9448 -161.3335 29.7847)">
			<stop  offset="0" style="stop-color:#4A4A4A"/>
			<stop  offset="0.1194" style="stop-color:#373737"/>
			<stop  offset="0.3119" style="stop-color:#1F1F1F"/>
			<stop  offset="0.5154" style="stop-color:#0E0E0E"/>
			<stop  offset="0.735" style="stop-color:#030303"/>
			<stop  offset="1" style="stop-color:#000000"/>
		</linearGradient>
		<path clip-path="url(#SVGID_17_)" fill="url(#SVGID_18_)" d="M115.455,123.528c1.668,1.771-2.249,3.132-2.563,9.997
			c-0.315,6.857,5.726,20.631,14.677,24.951c8.966,4.316,17.352,5.127,22.936,7.58c5.57,2.455,18.327-1.633,21.269-0.966
			c2.943,0.685,14.333-7.331,16.346-7.354c2.028-0.023,8.966-10.194,11.86-12.548c2.895-2.358,2.549-14.054,5.16-15.295
			c2.612-1.235-7.205-11.06-4.547-13.135c2.643-2.072-4.608-9.349-3.995-13.949c0.597-4.601-7.63-9.84-8.59-13.568
			c-0.944-3.711-8.667-6.685-12.301-9.225c-3.666-2.541-16.188-3.846-19.854,2.153c-3.664,5.994-16.627,26.031-21.395,28.853
			c-4.75,2.833-13.009,8.73-14.881,6.679C117.721,115.646,110.721,118.761,115.455,123.528z"/>
		
			<radialGradient id="SVGID_19_" cx="259.5674" cy="190.4219" r="78.9058" gradientTransform="matrix(0.9448 -0.3276 0.3276 0.9448 -161.3335 29.7847)" gradientUnits="userSpaceOnUse">
			<stop  offset="0.3656" style="stop-color:#FF3030"/>
			<stop  offset="0.3792" style="stop-color:#FC3136"/>
			<stop  offset="0.5915" style="stop-color:#D33E8B"/>
			<stop  offset="0.765" style="stop-color:#B547CA"/>
			<stop  offset="0.8912" style="stop-color:#A24DF0"/>
			<stop  offset="0.957" style="stop-color:#9B4FFF"/>
		</radialGradient>
		<path opacity="0.5" clip-path="url(#SVGID_17_)" fill="url(#SVGID_19_)" d="M220.84,98.814
			c-14.284-41.167-59.229-62.972-100.397-48.704c-41.184,14.277-62.988,59.229-48.704,100.405
			c14.268,41.168,59.212,62.98,100.397,48.695C213.304,184.943,235.108,139.991,220.84,98.814z"/>
		
			<radialGradient id="SVGID_20_" cx="771.417" cy="962.832" r="25.2305" gradientTransform="matrix(-2.3688 -1.2578 0.654 -1.2317 1315.8761 2277.824)" gradientUnits="userSpaceOnUse">
			<stop  offset="0" style="stop-color:#BA004E"/>
			<stop  offset="0.1702" style="stop-color:#C83673"/>
			<stop  offset="0.459" style="stop-color:#E08BAE"/>
			<stop  offset="0.6954" style="stop-color:#F1CADA"/>
			<stop  offset="0.8673" style="stop-color:#FBF0F5"/>
			<stop  offset="0.957" style="stop-color:#FFFFFF"/>
		</radialGradient>
		<path clip-path="url(#SVGID_17_)" fill="url(#SVGID_20_)" d="M58.478,89.873c-9.124,17.163,10.241,45.298,43.26,62.82
			c33.005,17.525,67.157,17.817,76.265,0.655c9.11-17.156-10.256-45.282-43.26-62.808C101.738,73.001,67.585,72.699,58.478,89.873z"
			/>
		
			<radialGradient id="SVGID_21_" cx="763.6826" cy="1011.6318" r="25.2295" gradientTransform="matrix(-0.9946 -2.4909 1.2952 -0.5172 -429.7279 2566.478)" gradientUnits="userSpaceOnUse">
			<stop  offset="0" style="stop-color:#BA004E"/>
			<stop  offset="0.1702" style="stop-color:#C83673"/>
			<stop  offset="0.459" style="stop-color:#E08BAE"/>
			<stop  offset="0.6954" style="stop-color:#F1CADA"/>
			<stop  offset="0.8673" style="stop-color:#FBF0F5"/>
			<stop  offset="0.957" style="stop-color:#FFFFFF"/>
		</radialGradient>
		<path clip-path="url(#SVGID_17_)" fill="url(#SVGID_21_)" d="M95.886,78.152c-18.043,7.214-21.441,41.193-7.582,75.896
			c13.86,34.712,39.722,57.011,57.781,49.805c18.043-7.206,21.425-41.186,7.566-75.896C139.792,93.245,113.931,70.938,95.886,78.152
			z"/>
		
			<radialGradient id="SVGID_22_" cx="771.417" cy="962.832" r="9.3701" gradientTransform="matrix(-2.3688 -1.2578 0.654 -1.2317 1315.8761 2277.824)" gradientUnits="userSpaceOnUse">
			<stop  offset="0.3656" style="stop-color:#BA004E"/>
			<stop  offset="0.4708" style="stop-color:#C83673"/>
			<stop  offset="0.6492" style="stop-color:#E08BAE"/>
			<stop  offset="0.7953" style="stop-color:#F1CADA"/>
			<stop  offset="0.9016" style="stop-color:#FBF0F5"/>
			<stop  offset="0.957" style="stop-color:#FFFFFF"/>
		</radialGradient>
		<path clip-path="url(#SVGID_17_)" fill="url(#SVGID_22_)" d="M96.043,109.828c-3.398,6.368,3.807,16.817,16.062,23.329
			c12.271,6.512,24.949,6.623,28.331,0.243c3.383-6.372-3.806-16.817-16.077-23.329C112.105,103.559,99.425,103.447,96.043,109.828z
			"/>
		
			<radialGradient id="SVGID_23_" cx="704.9941" cy="992.6084" r="9.3721" gradientTransform="matrix(-6.1222 -1.1913 0.2664 -1.3689 4169.9316 2320.2532)" gradientUnits="userSpaceOnUse">
			<stop  offset="0.3656" style="stop-color:#D100AB"/>
			<stop  offset="0.4708" style="stop-color:#DB36BD"/>
			<stop  offset="0.6492" style="stop-color:#EA8BD9"/>
			<stop  offset="0.7953" style="stop-color:#F5CAED"/>
			<stop  offset="0.9016" style="stop-color:#FCF0FA"/>
			<stop  offset="0.957" style="stop-color:#FFFFFF"/>
		</radialGradient>
		<path clip-path="url(#SVGID_17_)" fill="url(#SVGID_23_)" d="M60.869,110.448c-1.384,7.089,23.187,17.83,54.871,23.991
			c31.682,6.166,58.488,5.426,59.872-1.66c1.37-7.088-23.203-17.823-54.87-23.999C89.043,102.622,62.237,103.36,60.869,110.448z"/>
		<g opacity="0.7" clip-path="url(#SVGID_17_)">
			
				<radialGradient id="SVGID_24_" cx="991.0225" cy="404.5273" r="38.1699" gradientTransform="matrix(1.316 -0.0043 0.0015 0.4589 -1092.9741 -51.606)" gradientUnits="userSpaceOnUse">
				<stop  offset="0" style="stop-color:#FFB169"/>
				<stop  offset="0.1702" style="stop-color:#C98C53"/>
				<stop  offset="0.459" style="stop-color:#745130"/>
				<stop  offset="0.6954" style="stop-color:#352516"/>
				<stop  offset="0.8673" style="stop-color:#0F0A06"/>
				<stop  offset="0.957" style="stop-color:#000000"/>
			</radialGradient>
			<path fill="url(#SVGID_24_)" d="M262.056,129.602c-0.032-9.668-22.559-17.438-50.293-17.345
				c-27.75,0.094-50.214,8.008-50.184,17.684c0.048,9.664,22.543,17.438,50.293,17.344
				C239.606,147.188,262.086,139.277,262.056,129.602z"/>
			
				<radialGradient id="SVGID_25_" cx="1072.4961" cy="-447.2261" r="38.1736" gradientTransform="matrix(1.2827 -0.2942 0.0567 0.2471 -1138.7815 532.4303)" gradientUnits="userSpaceOnUse">
				<stop  offset="0" style="stop-color:#FFB169"/>
				<stop  offset="0.1702" style="stop-color:#C98C53"/>
				<stop  offset="0.459" style="stop-color:#745130"/>
				<stop  offset="0.6954" style="stop-color:#352516"/>
				<stop  offset="0.8673" style="stop-color:#0F0A06"/>
				<stop  offset="0.957" style="stop-color:#000000"/>
			</radialGradient>
			<path fill="url(#SVGID_25_)" d="M260.513,95.159c-1.195-5.21-24.068-4.413-51.125,1.8c-27.027,6.196-47.981,15.447-46.802,20.654
				c1.196,5.209,24.086,4.404,51.144-1.791C240.755,109.614,261.709,100.372,260.513,95.159z"/>
			
				<radialGradient id="SVGID_26_" cx="662.0771" cy="148.7432" r="38.1631" gradientTransform="matrix(0.7504 0.6731 -0.1693 0.1887 -274.0123 -309.2388)" gradientUnits="userSpaceOnUse">
				<stop  offset="0" style="stop-color:#FFB169"/>
				<stop  offset="0.1702" style="stop-color:#C98C53"/>
				<stop  offset="0.459" style="stop-color:#745130"/>
				<stop  offset="0.6954" style="stop-color:#352516"/>
				<stop  offset="0.8673" style="stop-color:#0F0A06"/>
				<stop  offset="0.957" style="stop-color:#000000"/>
			</radialGradient>
			<path fill="url(#SVGID_26_)" d="M226.266,190.167c3.572-3.98-6.355-18.714-22.18-32.896
				c-15.811-14.194-31.542-22.472-35.096-18.491c-3.572,3.98,6.355,18.705,22.18,32.896
				C206.997,185.856,222.711,194.13,226.266,190.167z"/>
			
				<radialGradient id="SVGID_27_" cx="241.7021" cy="1347.2539" r="38.1633" gradientTransform="matrix(0.1297 0.678 -0.249 0.0476 462.2513 -55.0292)" gradientUnits="userSpaceOnUse">
				<stop  offset="0" style="stop-color:#FFB169"/>
				<stop  offset="0.1702" style="stop-color:#C98C53"/>
				<stop  offset="0.459" style="stop-color:#745130"/>
				<stop  offset="0.6954" style="stop-color:#352516"/>
				<stop  offset="0.8673" style="stop-color:#0F0A06"/>
				<stop  offset="0.957" style="stop-color:#000000"/>
			</radialGradient>
			<path fill="url(#SVGID_27_)" d="M163.089,198.851c5.255-1.007,7.285-13.404,4.547-27.687c-2.722-14.301-9.187-25.068-14.44-24.07
				c-5.255,1.007-7.285,13.402-4.563,27.702C151.371,189.09,157.852,199.857,163.089,198.851z"/>
			
				<radialGradient id="SVGID_28_" cx="1172.2773" cy="179.498" r="38.1646" gradientTransform="matrix(1.1342 -0.6675 0.1752 0.2977 -1160.4873 813.9418)" gradientUnits="userSpaceOnUse">
				<stop  offset="0" style="stop-color:#FFB169"/>
				<stop  offset="0.1702" style="stop-color:#C98C53"/>
				<stop  offset="0.459" style="stop-color:#745130"/>
				<stop  offset="0.6954" style="stop-color:#352516"/>
				<stop  offset="0.8673" style="stop-color:#0F0A06"/>
				<stop  offset="0.957" style="stop-color:#000000"/>
			</radialGradient>
			<path fill="url(#SVGID_28_)" d="M243.838,59.4c-3.681-6.275-26.067,0.047-49.962,14.118
				c-23.912,14.072-40.303,30.567-36.606,36.836c3.681,6.284,26.067-0.041,49.979-14.112C231.16,82.17,247.551,65.675,243.838,59.4z
				"/>
			
				<radialGradient id="SVGID_29_" cx="1274.9717" cy="814.2988" r="49.5151" gradientTransform="matrix(0.7145 -1.1052 0.456 0.2948 -1119.0094 1234.4396)" gradientUnits="userSpaceOnUse">
				<stop  offset="0" style="stop-color:#FFB169"/>
				<stop  offset="0.1702" style="stop-color:#C98C53"/>
				<stop  offset="0.459" style="stop-color:#745130"/>
				<stop  offset="0.6954" style="stop-color:#352516"/>
				<stop  offset="0.8673" style="stop-color:#0F0A06"/>
				<stop  offset="0.957" style="stop-color:#000000"/>
			</radialGradient>
			<path fill="url(#SVGID_29_)" d="M198.658,10.664c-12.459-8.061-38.415,9.904-57.954,40.132
				c-19.553,30.228-25.28,61.274-12.804,69.334c12.459,8.063,38.415-9.909,57.954-40.137
				C205.407,49.771,211.149,18.736,198.658,10.664z"/>
		</g>
		
			<radialGradient id="SVGID_30_" cx="440.5244" cy="-58.3154" r="43.7646" gradientTransform="matrix(1.8671 -0.9324 0.7336 1.4691 -582.1608 610.9994)" gradientUnits="userSpaceOnUse">
			<stop  offset="0" style="stop-color:#FF1A1A"/>
			<stop  offset="0.1702" style="stop-color:#C91515"/>
			<stop  offset="0.459" style="stop-color:#740C0C"/>
			<stop  offset="0.6954" style="stop-color:#350505"/>
			<stop  offset="0.8673" style="stop-color:#0F0202"/>
			<stop  offset="0.957" style="stop-color:#000000"/>
		</radialGradient>
		<path clip-path="url(#SVGID_17_)" fill="url(#SVGID_30_)" d="M279.281,73.788c-17.729-35.521-68.698-46.038-113.815-23.505
			c-45.133,22.536-67.346,69.596-49.617,105.108c17.729,35.507,68.683,46.022,113.815,23.487
			C274.797,156.346,297.01,109.283,279.281,73.788z"/>
	</g>
	<g>
		<defs>
			<path id="SVGID_31_" d="M114.511,120.798c-1.729,3.644-2.736,4.665,0.331,6.649c3.036,1.981,8.275,1.516,10.667,7.439
				c2.391,5.915,1.038,10.776,1.683,13.592c0.646,2.824-3.633,9.021-4.279,13.97c-0.646,4.955-6.56,7.346-7.001,12.897
				c-0.44,5.556-7.77,7.756-9.847,11.518c-2.077,3.761-7.425,3.915-10.399,7.992c-2.974,4.074-11.154,2.862-13.561,4.703
				c-2.391,1.842-6.37-1.841-10.712-1.683c-4.327,0.141-6.513-4.171-10.855-5.02c-4.342-0.866-7.22-5.262-11.075-7.63
				c-3.869-2.382-2.202-6.339-5.773-9.816c-3.57-3.491-0.172-6.356-3.666-10.554c-3.477-4.194-3.13-12.947-1.07-15.764
				c2.061-2.81,6.561-13.828,17.572-17.297c11.012-3.485,25.154-19.185,32.705-18.766c7.583,0.406,9.565,6.134,12.303,7.211
				c2.736,1.077,6.748,1.3,8.243-1.375C111.271,116.19,116.147,116.876,114.511,120.798z"/>
		</defs>
		<clipPath id="SVGID_32_">
			<use xlink:href="#SVGID_31_"  overflow="visible"/>
		</clipPath>
		<path clip-path="url(#SVGID_32_)" fill="#FF3030" d="M114.511,120.798c-1.729,3.644-2.736,4.665,0.331,6.649
			c3.036,1.981,8.275,1.516,10.667,7.439c2.391,5.915,1.038,10.776,1.683,13.592c0.646,2.824-3.633,9.021-4.279,13.97
			c-0.646,4.955-6.56,7.346-7.001,12.897c-0.44,5.556-7.77,7.756-9.847,11.518c-2.077,3.761-7.425,3.915-10.399,7.992
			c-2.974,4.074-11.154,2.862-13.561,4.703c-2.391,1.842-6.37-1.841-10.712-1.683c-4.327,0.141-6.513-4.171-10.855-5.02
			c-4.342-0.866-7.22-5.262-11.075-7.63c-3.869-2.382-2.202-6.339-5.773-9.816c-3.57-3.491-0.172-6.356-3.666-10.554
			c-3.477-4.194-3.13-12.947-1.07-15.764c2.061-2.81,6.561-13.828,17.572-17.297c11.012-3.485,25.154-19.185,32.705-18.766
			c7.583,0.406,9.565,6.134,12.303,7.211c2.736,1.077,6.748,1.3,8.243-1.375C111.271,116.19,116.147,116.876,114.511,120.798z"/>
		
			<linearGradient id="SVGID_33_" gradientUnits="userSpaceOnUse" x1="216.8779" y1="242.9111" x2="172.1901" y2="163.2963" gradientTransform="matrix(0.9448 -0.3276 0.3276 0.9448 -161.3335 29.7847)">
			<stop  offset="0" style="stop-color:#4A4A4A"/>
			<stop  offset="0.1194" style="stop-color:#373737"/>
			<stop  offset="0.3119" style="stop-color:#1F1F1F"/>
			<stop  offset="0.5154" style="stop-color:#0E0E0E"/>
			<stop  offset="0.735" style="stop-color:#030303"/>
			<stop  offset="1" style="stop-color:#000000"/>
		</linearGradient>
		<path clip-path="url(#SVGID_32_)" fill="url(#SVGID_33_)" d="M114.511,120.798c-1.729,3.644-2.736,4.665,0.331,6.649
			c3.036,1.981,8.275,1.516,10.667,7.439c2.391,5.915,1.038,10.776,1.683,13.592c0.646,2.824-3.633,9.021-4.279,13.97
			c-0.646,4.955-6.56,7.346-7.001,12.897c-0.44,5.556-7.77,7.756-9.847,11.518c-2.077,3.761-7.425,3.915-10.399,7.992
			c-2.974,4.074-11.154,2.862-13.561,4.703c-2.391,1.842-6.37-1.841-10.712-1.683c-4.327,0.141-6.513-4.171-10.855-5.02
			c-4.342-0.866-7.22-5.262-11.075-7.63c-3.869-2.382-2.202-6.339-5.773-9.816c-3.57-3.491-0.172-6.356-3.666-10.554
			c-3.477-4.194-3.13-12.947-1.07-15.764c2.061-2.81,6.561-13.828,17.572-17.297c11.012-3.485,25.154-19.185,32.705-18.766
			c7.583,0.406,9.565,6.134,12.303,7.211c2.736,1.077,6.748,1.3,8.243-1.375C111.271,116.19,116.147,116.876,114.511,120.798z"/>
		
			<radialGradient id="SVGID_34_" cx="200.1104" cy="187.5391" r="78.9053" gradientTransform="matrix(0.9448 -0.3276 0.3276 0.9448 -161.3335 29.7847)" gradientUnits="userSpaceOnUse">
			<stop  offset="0.3656" style="stop-color:#FF3030"/>
			<stop  offset="0.3792" style="stop-color:#FC3136"/>
			<stop  offset="0.5915" style="stop-color:#D33E8B"/>
			<stop  offset="0.765" style="stop-color:#B547CA"/>
			<stop  offset="0.8912" style="stop-color:#A24DF0"/>
			<stop  offset="0.957" style="stop-color:#9B4FFF"/>
		</radialGradient>
		<path opacity="0.5" clip-path="url(#SVGID_32_)" fill="url(#SVGID_34_)" d="M163.719,115.57
			c-14.284-41.171-59.227-62.983-100.396-48.707c-41.169,14.277-62.972,59.22-48.704,100.399
			c14.268,41.167,59.229,62.986,100.396,48.704C156.184,201.698,177.988,156.744,163.719,115.57z"/>
		
			<radialGradient id="SVGID_35_" cx="540.8818" cy="771.6973" r="25.2319" gradientTransform="matrix(-1.2226 2.6948 -1.607 -0.7291 2002.7209 -775.6396)" gradientUnits="userSpaceOnUse">
			<stop  offset="0" style="stop-color:#BA004E"/>
			<stop  offset="0.1702" style="stop-color:#C83673"/>
			<stop  offset="0.459" style="stop-color:#E08BAE"/>
			<stop  offset="0.6954" style="stop-color:#F1CADA"/>
			<stop  offset="0.8673" style="stop-color:#FBF0F5"/>
			<stop  offset="0.957" style="stop-color:#FFFFFF"/>
		</radialGradient>
		<path clip-path="url(#SVGID_32_)" fill="url(#SVGID_35_)" d="M70.464,187.278c22.401,10.156,54.367-12.04,71.405-49.6
			c17.037-37.55,12.679-76.224-9.707-86.389c-22.385-10.161-54.351,12.05-71.389,49.6C43.737,138.442,48.079,177.117,70.464,187.278
			z"/>
		
			<radialGradient id="SVGID_36_" cx="521.4287" cy="770.6055" r="25.23" gradientTransform="matrix(-2.6418 1.3334 -0.7951 -1.5754 2072.1531 640.7682)" gradientUnits="userSpaceOnUse">
			<stop  offset="0" style="stop-color:#BA004E"/>
			<stop  offset="0.1702" style="stop-color:#C83673"/>
			<stop  offset="0.459" style="stop-color:#E08BAE"/>
			<stop  offset="0.6954" style="stop-color:#F1CADA"/>
			<stop  offset="0.8673" style="stop-color:#FBF0F5"/>
			<stop  offset="0.957" style="stop-color:#FFFFFF"/>
		</radialGradient>
		<path clip-path="url(#SVGID_32_)" fill="url(#SVGID_36_)" d="M15.279,155.667c11.075,21.944,49.916,24.689,86.71,6.11
			c36.811-18.584,57.671-51.446,46.597-73.399c-11.075-21.947-49.899-24.676-86.71-6.097
			C25.048,100.86,4.189,133.716,15.279,155.667z"/>
		<g opacity="0.7" clip-path="url(#SVGID_32_)">
			
				<radialGradient id="SVGID_37_" cx="645.2725" cy="1794.332" r="38.1646" gradientTransform="matrix(-0.1418 1.3084 -0.4562 -0.0494 984.1014 -546.009)" gradientUnits="userSpaceOnUse">
				<stop  offset="0" style="stop-color:#FFB169"/>
				<stop  offset="0.1009" style="stop-color:#CE8F55"/>
				<stop  offset="0.226" style="stop-color:#98693F"/>
				<stop  offset="0.3527" style="stop-color:#69492B"/>
				<stop  offset="0.4781" style="stop-color:#432F1C"/>
				<stop  offset="0.6021" style="stop-color:#261A10"/>
				<stop  offset="0.7242" style="stop-color:#110C07"/>
				<stop  offset="0.8435" style="stop-color:#040302"/>
				<stop  offset="0.957" style="stop-color:#000000"/>
			</radialGradient>
			<path fill="url(#SVGID_37_)" d="M68.625,259.572c9.611,1.039,19.836-20.481,22.81-48.058
				c3.004-27.585-2.375-50.791-11.986-51.835c-9.628-1.039-19.837,20.475-22.827,48.06
				C53.616,235.315,58.997,258.519,68.625,259.572z"/>
			
				<radialGradient id="SVGID_38_" cx="628.9209" cy="1609.3008" r="38.187" gradientTransform="matrix(0.1499 1.3075 -0.2518 0.0289 408.2406 -656.862)" gradientUnits="userSpaceOnUse">
				<stop  offset="0" style="stop-color:#FFB169"/>
				<stop  offset="0.1009" style="stop-color:#CE8F55"/>
				<stop  offset="0.226" style="stop-color:#98693F"/>
				<stop  offset="0.3527" style="stop-color:#69492B"/>
				<stop  offset="0.4781" style="stop-color:#432F1C"/>
				<stop  offset="0.6021" style="stop-color:#261A10"/>
				<stop  offset="0.7242" style="stop-color:#110C07"/>
				<stop  offset="0.8435" style="stop-color:#040302"/>
				<stop  offset="0.957" style="stop-color:#000000"/>
			</radialGradient>
			<path fill="url(#SVGID_38_)" d="M103.012,261.869c5.318-0.614,7.064-23.44,3.901-51.016
				c-3.162-27.562-10.036-49.412-15.337-48.801c-5.302,0.614-7.048,23.449-3.901,51.02
				C90.852,240.633,97.71,262.484,103.012,261.869z"/>
			
				<radialGradient id="SVGID_39_" cx="751.7373" cy="3218.3682" r="38.1685" gradientTransform="matrix(-0.7522 0.6711 -0.1687 -0.1892 1149.5111 296.092)" gradientUnits="userSpaceOnUse">
				<stop  offset="0" style="stop-color:#FFB169"/>
				<stop  offset="0.1702" style="stop-color:#C98C53"/>
				<stop  offset="0.459" style="stop-color:#745130"/>
				<stop  offset="0.6954" style="stop-color:#352516"/>
				<stop  offset="0.8673" style="stop-color:#0F0A06"/>
				<stop  offset="0.957" style="stop-color:#000000"/>
			</radialGradient>
			<path fill="url(#SVGID_39_)" d="M12.4,217.286c3.556,3.98,19.302-4.247,35.159-18.403c15.857-14.136,25.832-28.846,22.275-32.826
				c-3.554-3.986-19.302,4.25-35.159,18.392C18.819,198.599,8.846,213.291,12.4,217.286z"/>
			
				<radialGradient id="SVGID_40_" cx="824.8945" cy="3351.5898" r="38.1709" gradientTransform="matrix(-0.6382 0.263 -0.0966 -0.2344 881.8106 733.66)" gradientUnits="userSpaceOnUse">
				<stop  offset="0" style="stop-color:#FFB169"/>
				<stop  offset="0.1702" style="stop-color:#C98C53"/>
				<stop  offset="0.459" style="stop-color:#745130"/>
				<stop  offset="0.6954" style="stop-color:#352516"/>
				<stop  offset="0.8673" style="stop-color:#0F0A06"/>
				<stop  offset="0.957" style="stop-color:#000000"/>
			</radialGradient>
			<path fill="url(#SVGID_40_)" d="M7.241,175.033c2.045,4.94,14.598,4.451,28.048-1.092c13.451-5.546,22.716-14.043,20.671-18.983
				c-2.03-4.937-14.583-4.448-28.048,1.089C14.461,161.591,5.211,170.093,7.241,175.033z"/>
			
				<radialGradient id="SVGID_41_" cx="630.0225" cy="1107.6953" r="38.1709" gradientTransform="matrix(0.5374 1.2013 -0.3153 0.1411 130.5735 -709.7246)" gradientUnits="userSpaceOnUse">
				<stop  offset="0" style="stop-color:#FFB169"/>
				<stop  offset="0.1009" style="stop-color:#CE8F55"/>
				<stop  offset="0.226" style="stop-color:#98693F"/>
				<stop  offset="0.3527" style="stop-color:#69492B"/>
				<stop  offset="0.4781" style="stop-color:#432F1C"/>
				<stop  offset="0.6021" style="stop-color:#261A10"/>
				<stop  offset="0.7242" style="stop-color:#110C07"/>
				<stop  offset="0.8435" style="stop-color:#040302"/>
				<stop  offset="0.957" style="stop-color:#000000"/>
			</radialGradient>
			<path fill="url(#SVGID_41_)" d="M140.406,249.27c6.654-2.974,2.862-25.91-8.479-51.238
				c-11.326-25.325-25.91-43.441-32.548-40.468c-6.654,2.974-2.848,25.91,8.479,51.244
				C119.184,234.121,133.752,252.243,140.406,249.27z"/>
			
				<radialGradient id="SVGID_42_" cx="554.0947" cy="1123.3682" r="73.75" gradientTransform="matrix(0.4603 1.2329 -0.5087 0.1899 456.8992 -736.2937)" gradientUnits="userSpaceOnUse">
				<stop  offset="0" style="stop-color:#FFB169"/>
				<stop  offset="0.0125" style="stop-color:#F5AA65"/>
				<stop  offset="0.0854" style="stop-color:#C38750"/>
				<stop  offset="0.1634" style="stop-color:#94673D"/>
				<stop  offset="0.2448" style="stop-color:#6C4B2D"/>
				<stop  offset="0.3306" style="stop-color:#4B341F"/>
				<stop  offset="0.4216" style="stop-color:#2F2114"/>
				<stop  offset="0.5201" style="stop-color:#1A120B"/>
				<stop  offset="0.6295" style="stop-color:#0B0805"/>
				<stop  offset="0.7587" style="stop-color:#030201"/>
				<stop  offset="0.957" style="stop-color:#000000"/>
			</radialGradient>
			<path fill="url(#SVGID_42_)" d="M174.464,251.107c20.702-7.724,22.306-54.712,3.538-104.936
				c-18.735-50.22-50.748-84.664-71.466-76.932c-20.703,7.732-22.306,54.721-3.555,104.944
				C121.733,224.413,153.729,258.849,174.464,251.107z"/>
		</g>
		
			<radialGradient id="SVGID_43_" cx="849.8262" cy="618.1348" r="9.3721" gradientTransform="matrix(0.7143 -2.5852 1.3442 0.3714 -1328.3239 2085.7664)" gradientUnits="userSpaceOnUse">
			<stop  offset="0.3656" style="stop-color:#BA004E"/>
			<stop  offset="0.4708" style="stop-color:#C83673"/>
			<stop  offset="0.6492" style="stop-color:#E08BAE"/>
			<stop  offset="0.7953" style="stop-color:#F1CADA"/>
			<stop  offset="0.9016" style="stop-color:#FBF0F5"/>
			<stop  offset="0.957" style="stop-color:#FFFFFF"/>
		</radialGradient>
		<path clip-path="url(#SVGID_32_)" fill="url(#SVGID_43_)" d="M116.29,94.144c-6.953-1.929-15.589,7.36-19.286,20.742
			c-3.698,13.378-1.055,25.784,5.899,27.71c6.969,1.92,15.589-7.369,19.302-20.75C125.901,108.458,123.258,96.061,116.29,94.144z"/>
		
			<radialGradient id="SVGID_44_" cx="750.7549" cy="523.4316" r="9.3721" gradientTransform="matrix(2.8684 -4.5879 1.1825 0.7393 -2662.8267 3175.781)" gradientUnits="userSpaceOnUse">
			<stop  offset="0.3656" style="stop-color:#D100AB"/>
			<stop  offset="0.4708" style="stop-color:#DB36BD"/>
			<stop  offset="0.6492" style="stop-color:#EA8BD9"/>
			<stop  offset="0.7953" style="stop-color:#F5CAED"/>
			<stop  offset="0.9016" style="stop-color:#FCF0FA"/>
			<stop  offset="0.957" style="stop-color:#FFFFFF"/>
		</radialGradient>
		<path clip-path="url(#SVGID_32_)" fill="url(#SVGID_44_)" d="M136.488,75.374c-6.134-3.828-23.124,12.319-37.975,36.063
			c-14.85,23.748-21.914,46.097-15.794,49.925c6.118,3.822,23.124-12.325,37.958-36.063
			C135.528,101.545,142.608,79.197,136.488,75.374z"/>
		
			<radialGradient id="SVGID_45_" cx="371.8193" cy="-46.791" r="43.7646" gradientTransform="matrix(1.8671 -0.9324 0.7336 1.4691 -582.1608 610.9994)" gradientUnits="userSpaceOnUse">
			<stop  offset="0" style="stop-color:#FF1A1A"/>
			<stop  offset="0.1702" style="stop-color:#C91515"/>
			<stop  offset="0.459" style="stop-color:#740C0C"/>
			<stop  offset="0.6954" style="stop-color:#350505"/>
			<stop  offset="0.8673" style="stop-color:#0F0202"/>
			<stop  offset="0.957" style="stop-color:#000000"/>
		</radialGradient>
		<path clip-path="url(#SVGID_32_)" fill="url(#SVGID_45_)" d="M159.456,154.777c-17.729-35.514-68.698-46.035-113.832-23.493
			C0.507,153.82-21.705,200.879-3.976,236.386c17.714,35.505,68.683,46.029,113.816,23.484
			C154.972,237.328,177.17,190.284,159.456,154.777z"/>
	</g>
	<g>
		<defs>
			<path id="SVGID_46_" d="M105.954,118.368c-6.292-2.546-12.962-3.272-17.934,1.832c-4.986,5.099-19.129,11.358-29.086,18.526
				c-9.958,7.156-18.171,11.695-24.352,8.438c-6.199-3.248-14.001,2.494-15.575-3.034c-1.573-5.532-10.886-7.042-12.773-13.467
				c-1.888-6.436-7.409-12.623-6.009-21.216c1.415-8.587,3.335-7.911,2.564-14.045c-0.788-6.144,5.253-10.943,5.333-15.693
				c0.063-4.75,5.239-3.5,8.511-7.677s6.246-7.905,16.502-7.747c10.225,0.167,20.796-2.479,30.33,2.648
				c9.548,5.131,20.954,11.046,28.048,19.627c7.094,8.59,11.72,16.211,14.314,21.725
				C108.424,113.809,111.036,122.349,105.954,118.368z"/>
		</defs>
		<clipPath id="SVGID_47_">
			<use xlink:href="#SVGID_46_"  overflow="visible"/>
		</clipPath>
		<path clip-path="url(#SVGID_47_)" fill="#FF3030" d="M105.954,118.368c-6.292-2.546-12.962-3.272-17.934,1.832
			c-4.986,5.099-19.129,11.358-29.086,18.526c-9.958,7.156-18.171,11.695-24.352,8.438c-6.199-3.248-14.001,2.494-15.575-3.034
			c-1.573-5.532-10.886-7.042-12.773-13.467c-1.888-6.436-7.409-12.623-6.009-21.216c1.415-8.587,3.335-7.911,2.564-14.045
			c-0.788-6.144,5.253-10.943,5.333-15.693c0.063-4.75,5.239-3.5,8.511-7.677s6.246-7.905,16.502-7.747
			c10.225,0.167,20.796-2.479,30.33,2.648c9.548,5.131,20.954,11.046,28.048,19.627c7.094,8.59,11.72,16.211,14.314,21.725
			C108.424,113.809,111.036,122.349,105.954,118.368z"/>
		
			<linearGradient id="SVGID_48_" gradientUnits="userSpaceOnUse" x1="163.0391" y1="191.9355" x2="193.9982" y2="94.1581" gradientTransform="matrix(0.9448 -0.3276 0.3276 0.9448 -161.3335 29.7847)">
			<stop  offset="0" style="stop-color:#4A4A4A"/>
			<stop  offset="0.1194" style="stop-color:#373737"/>
			<stop  offset="0.3119" style="stop-color:#1F1F1F"/>
			<stop  offset="0.5154" style="stop-color:#0E0E0E"/>
			<stop  offset="0.735" style="stop-color:#030303"/>
			<stop  offset="1" style="stop-color:#000000"/>
		</linearGradient>
		<path clip-path="url(#SVGID_47_)" fill="url(#SVGID_48_)" d="M105.954,118.368c-6.292-2.546-12.962-3.272-17.934,1.832
			c-4.986,5.099-19.129,11.358-29.086,18.526c-9.958,7.156-18.171,11.695-24.352,8.438c-6.199-3.248-14.001,2.494-15.575-3.034
			c-1.573-5.532-10.886-7.042-12.773-13.467c-1.888-6.436-7.409-12.623-6.009-21.216c1.415-8.587,3.335-7.911,2.564-14.045
			c-0.788-6.144,5.253-10.943,5.333-15.693c0.063-4.75,5.239-3.5,8.511-7.677s6.246-7.905,16.502-7.747
			c10.225,0.167,20.796-2.479,30.33,2.648c9.548,5.131,20.954,11.046,28.048,19.627c7.094,8.59,11.72,16.211,14.314,21.725
			C108.424,113.809,111.036,122.349,105.954,118.368z"/>
		
			<radialGradient id="SVGID_49_" cx="179.4883" cy="136.4766" r="78.9072" gradientTransform="matrix(0.9448 -0.3276 0.3276 0.9448 -161.3335 29.7847)" gradientUnits="userSpaceOnUse">
			<stop  offset="0.3656" style="stop-color:#FF3030"/>
			<stop  offset="0.3792" style="stop-color:#FC3136"/>
			<stop  offset="0.5915" style="stop-color:#D33E8B"/>
			<stop  offset="0.765" style="stop-color:#B547CA"/>
			<stop  offset="0.8912" style="stop-color:#A24DF0"/>
			<stop  offset="0.957" style="stop-color:#9B4FFF"/>
		</radialGradient>
		<path opacity="0.5" clip-path="url(#SVGID_47_)" fill="url(#SVGID_49_)" d="M127.506,74.078
			c-14.268-41.171-59.212-62.98-100.397-48.704C-14.059,39.65-35.863,84.603-21.595,125.77
			c14.27,41.177,59.229,62.981,100.397,48.713C119.971,160.206,141.79,115.254,127.506,74.078z"/>
		
			<radialGradient id="SVGID_50_" cx="720.5107" cy="933.9219" r="25.2305" gradientTransform="matrix(-3.7859 -1.357 0.5954 -1.6611 2274.4067 2636.9036)" gradientUnits="userSpaceOnUse">
			<stop  offset="0" style="stop-color:#BA004E"/>
			<stop  offset="0.1702" style="stop-color:#C83673"/>
			<stop  offset="0.459" style="stop-color:#E08BAE"/>
			<stop  offset="0.6954" style="stop-color:#F1CADA"/>
			<stop  offset="0.8673" style="stop-color:#FBF0F5"/>
			<stop  offset="0.957" style="stop-color:#FFFFFF"/>
		</radialGradient>
		<path clip-path="url(#SVGID_47_)" fill="url(#SVGID_50_)" d="M7.162,73.589c-8.306,23.142,27.735,57.247,80.497,76.154
			c52.763,18.912,102.253,15.474,110.543-7.683c8.306-23.142-27.75-57.229-80.496-76.14C64.943,47.003,15.453,50.441,7.162,73.589z"
			/>
		
			<radialGradient id="SVGID_51_" cx="728.7197" cy="950.4023" r="25.231" gradientTransform="matrix(-3.7859 -1.357 0.5954 -1.6611 2274.4067 2636.9036)" gradientUnits="userSpaceOnUse">
			<stop  offset="0" style="stop-color:#BA004E"/>
			<stop  offset="0.1702" style="stop-color:#C83673"/>
			<stop  offset="0.459" style="stop-color:#E08BAE"/>
			<stop  offset="0.6954" style="stop-color:#F1CADA"/>
			<stop  offset="0.8673" style="stop-color:#FBF0F5"/>
			<stop  offset="0.957" style="stop-color:#FFFFFF"/>
		</radialGradient>
		<path clip-path="url(#SVGID_47_)" fill="url(#SVGID_51_)" d="M-14.107,35.064c-8.29,23.147,27.735,57.253,80.497,76.162
			c52.747,18.91,102.237,15.471,110.543-7.677c8.292-23.147-27.75-57.238-80.496-76.145C43.674,8.486-5.816,11.917-14.107,35.064z"
			/>
		<g opacity="0.7" clip-path="url(#SVGID_47_)">
			
				<radialGradient id="SVGID_52_" cx="828.2598" cy="3190.2754" r="31.7554" gradientTransform="matrix(-1.2874 0.2729 -0.0952 -0.4489 1365.5688 1314.9159)" gradientUnits="userSpaceOnUse">
				<stop  offset="0" style="stop-color:#FFB169"/>
				<stop  offset="0.1009" style="stop-color:#CE8F55"/>
				<stop  offset="0.226" style="stop-color:#98693F"/>
				<stop  offset="0.3527" style="stop-color:#69492B"/>
				<stop  offset="0.4781" style="stop-color:#432F1C"/>
				<stop  offset="0.6021" style="stop-color:#261A10"/>
				<stop  offset="0.7242" style="stop-color:#110C07"/>
				<stop  offset="0.8435" style="stop-color:#040302"/>
				<stop  offset="0.957" style="stop-color:#000000"/>
			</radialGradient>
			<path fill="url(#SVGID_52_)" d="M-45.333,117.502c1.667,7.867,21.315,10.378,43.905,5.587
				c22.574-4.782,39.517-15.046,37.865-22.919c-1.683-7.876-21.332-10.369-43.921-5.587
				C-30.058,99.365-47.001,109.623-45.333,117.502z"/>
			
				<radialGradient id="SVGID_53_" cx="699.5586" cy="4297.8164" r="31.7471" gradientTransform="matrix(-1.1957 0.5498 -0.1059 -0.2303 1291.3301 733.0033)" gradientUnits="userSpaceOnUse">
				<stop  offset="0" style="stop-color:#FFB169"/>
				<stop  offset="0.1009" style="stop-color:#CE8F55"/>
				<stop  offset="0.226" style="stop-color:#98693F"/>
				<stop  offset="0.3527" style="stop-color:#69492B"/>
				<stop  offset="0.4781" style="stop-color:#432F1C"/>
				<stop  offset="0.6021" style="stop-color:#261A10"/>
				<stop  offset="0.7242" style="stop-color:#110C07"/>
				<stop  offset="0.8435" style="stop-color:#040302"/>
				<stop  offset="0.957" style="stop-color:#000000"/>
			</radialGradient>
			<path fill="url(#SVGID_53_)" d="M-38.238,145.294c1.855,4.033,20.355-0.497,41.326-10.149
				c20.97-9.641,36.466-20.739,34.609-24.775c-1.855-4.035-20.355,0.513-41.326,10.153C-24.6,130.16-40.095,141.25-38.238,145.294z"
				/>
			
				<radialGradient id="SVGID_54_" cx="1352.4346" cy="4431.918" r="31.7476" gradientTransform="matrix(-0.872 -0.5057 0.1272 -0.2193 616.7908 1734.0142)" gradientUnits="userSpaceOnUse">
				<stop  offset="0" style="stop-color:#FFB169"/>
				<stop  offset="0.1702" style="stop-color:#C98C53"/>
				<stop  offset="0.459" style="stop-color:#745130"/>
				<stop  offset="0.6954" style="stop-color:#352516"/>
				<stop  offset="0.8673" style="stop-color:#0F0A06"/>
				<stop  offset="0.957" style="stop-color:#000000"/>
			</radialGradient>
			<path fill="url(#SVGID_54_)" d="M-26.487,62.113c-2.218,3.84,8.369,14.15,23.66,23.016C12.463,94,26.668,98.074,28.903,94.223
				c2.233-3.846-8.369-14.15-23.66-23.016C-10.048,62.333-24.253,58.259-26.487,62.113z"/>
			
				<radialGradient id="SVGID_55_" cx="1801.5029" cy="3690.1543" r="31.7515" gradientTransform="matrix(-0.4487 -0.5245 0.1926 -0.1648 117.4412 1616.7522)" gradientUnits="userSpaceOnUse">
				<stop  offset="0" style="stop-color:#FFB169"/>
				<stop  offset="0.1702" style="stop-color:#C98C53"/>
				<stop  offset="0.459" style="stop-color:#745130"/>
				<stop  offset="0.6954" style="stop-color:#352516"/>
				<stop  offset="0.8673" style="stop-color:#0F0A06"/>
				<stop  offset="0.957" style="stop-color:#000000"/>
			</radialGradient>
			<path fill="url(#SVGID_55_)" d="M5.574,47.076c-3.367,2.895,0.266,12.688,8.148,21.889c7.866,9.196,16.974,14.306,20.357,11.42
				c3.382-2.886-0.268-12.685-8.133-21.889C18.08,49.303,8.956,44.182,5.574,47.076z"/>
			
				<radialGradient id="SVGID_56_" cx="540.4834" cy="3081.6709" r="31.7573" gradientTransform="matrix(-0.9741 0.885 -0.2323 -0.2557 1254.6963 453.1329)" gradientUnits="userSpaceOnUse">
				<stop  offset="0" style="stop-color:#FFB169"/>
				<stop  offset="0.1009" style="stop-color:#CE8F55"/>
				<stop  offset="0.226" style="stop-color:#98693F"/>
				<stop  offset="0.3527" style="stop-color:#69492B"/>
				<stop  offset="0.4781" style="stop-color:#432F1C"/>
				<stop  offset="0.6021" style="stop-color:#261A10"/>
				<stop  offset="0.7242" style="stop-color:#110C07"/>
				<stop  offset="0.8435" style="stop-color:#040302"/>
				<stop  offset="0.957" style="stop-color:#000000"/>
			</radialGradient>
			<path fill="url(#SVGID_56_)" d="M-18.589,171.579c4.074,4.484,21.22-4.457,38.305-19.978
				c17.083-15.521,27.624-31.737,23.55-36.23c-4.059-4.475-21.222,4.47-38.307,19.987
				C-12.108,150.879-22.665,167.099-18.589,171.579z"/>
			
				<radialGradient id="SVGID_57_" cx="502.2432" cy="2401.918" r="61.3623" gradientTransform="matrix(-1.0281 0.8215 -0.3389 -0.4242 1382.2264 754.8571)" gradientUnits="userSpaceOnUse">
				<stop  offset="0" style="stop-color:#FFB169"/>
				<stop  offset="0.0125" style="stop-color:#F5AA65"/>
				<stop  offset="0.0854" style="stop-color:#C38750"/>
				<stop  offset="0.1634" style="stop-color:#94673D"/>
				<stop  offset="0.2448" style="stop-color:#6C4B2D"/>
				<stop  offset="0.3306" style="stop-color:#4B341F"/>
				<stop  offset="0.4216" style="stop-color:#2F2114"/>
				<stop  offset="0.5201" style="stop-color:#1A120B"/>
				<stop  offset="0.6295" style="stop-color:#0B0805"/>
				<stop  offset="0.7587" style="stop-color:#030201"/>
				<stop  offset="0.957" style="stop-color:#000000"/>
			</radialGradient>
			<path fill="url(#SVGID_57_)" d="M-11.227,198.977c11.483,14.361,49.049,3.459,83.879-24.392
				c34.844-27.827,53.785-62.067,42.3-76.44c-11.483-14.37-49.049-3.451-83.894,24.392
				C-3.771,150.375-22.712,184.598-11.227,198.977z"/>
		</g>
		
			<radialGradient id="SVGID_58_" cx="775.7529" cy="964.8115" r="9.3716" gradientTransform="matrix(-2.2927 -1.3918 0.7237 -1.1921 1184.8083 2342.8425)" gradientUnits="userSpaceOnUse">
			<stop  offset="0.3656" style="stop-color:#BA004E"/>
			<stop  offset="0.4708" style="stop-color:#C83673"/>
			<stop  offset="0.6492" style="stop-color:#E08BAE"/>
			<stop  offset="0.7953" style="stop-color:#F1CADA"/>
			<stop  offset="0.9016" style="stop-color:#FBF0F5"/>
			<stop  offset="0.957" style="stop-color:#FFFFFF"/>
		</radialGradient>
		<path clip-path="url(#SVGID_47_)" fill="url(#SVGID_58_)" d="M82.986,99.956c-3.743,6.173,2.848,17.014,14.71,24.219
			c11.861,7.206,24.524,8.037,28.268,1.861c3.745-6.157-2.846-17.004-14.708-24.21C99.395,94.621,86.731,93.789,82.986,99.956z"/>
		
			<radialGradient id="SVGID_59_" cx="706.8486" cy="997.7383" r="9.3706" gradientTransform="matrix(-5.922 -1.6847 0.3816 -1.3414 3909.6997 2642.1992)" gradientUnits="userSpaceOnUse">
			<stop  offset="0.3656" style="stop-color:#D100AB"/>
			<stop  offset="0.4708" style="stop-color:#DB36BD"/>
			<stop  offset="0.6492" style="stop-color:#EA8BD9"/>
			<stop  offset="0.7953" style="stop-color:#F5CAED"/>
			<stop  offset="0.9016" style="stop-color:#FCF0FA"/>
			<stop  offset="0.957" style="stop-color:#FFFFFF"/>
		</radialGradient>
		<path clip-path="url(#SVGID_47_)" fill="url(#SVGID_59_)" d="M48.976,97.22c-1.982,6.937,21.269,19.633,51.929,28.354
			c30.645,8.716,57.088,10.155,59.071,3.207c1.967-6.936-21.285-19.632-51.929-28.345C77.402,91.712,50.942,90.271,48.976,97.22z"/>
		
			<radialGradient id="SVGID_60_" cx="352.9229" cy="-115.4395" r="43.7651" gradientTransform="matrix(1.8671 -0.9324 0.7336 1.4691 -582.1608 610.9994)" gradientUnits="userSpaceOnUse">
			<stop  offset="0" style="stop-color:#FF1A1A"/>
			<stop  offset="0.1702" style="stop-color:#C91515"/>
			<stop  offset="0.459" style="stop-color:#740C0C"/>
			<stop  offset="0.6954" style="stop-color:#350505"/>
			<stop  offset="0.8673" style="stop-color:#0F0202"/>
			<stop  offset="0.957" style="stop-color:#000000"/>
		</radialGradient>
		<path clip-path="url(#SVGID_47_)" fill="url(#SVGID_60_)" d="M73.815,71.546C56.07,36.024,5.117,25.515-40.016,48.051
			c-45.117,22.526-67.33,69.586-49.601,105.099c17.73,35.508,68.684,46.015,113.817,23.487
			C69.331,154.104,91.544,107.042,73.815,71.546z"/>
	</g>
	<g>
		<defs>
			<path id="SVGID_61_" d="M113.945,112.228c4.53-9.339,4.642-16.802,3.808-27.988c-0.851-11.183-5.144-15.777-8.684-25.012
				c-3.54-9.233-3.934-17.2-3.729-25.375c0.205-8.171,3.319-8.918,7.173-16.328c0.536-1.039,1.102-1.949,1.683-2.769
				c-0.534-0.393-1.07-0.726-1.62-0.969c-9.532-4.121-8.369-6.553-11.83-8.73c-3.445-2.178-9.518-4.121-13.875-4.979
				c-4.342-0.857-10.524,5.669-14.756,5.119c-4.247-0.551-9.565,3.564-15.291,4.589c-5.726,1.013-8.651,9.114-13.78,10.894
				c-5.128,1.768-7.992,7.155-10.965,11.229c-2.972,4.065,0.804,7.15-2.391,10.609C26.496,45.99,29.17,57.56,34.55,61.432
				c5.396,3.86,9.581,12.883,18.358,15.918c6.404,2.219,11.909,9.047,15.843,8.684c3.916-0.362,10.099,0.891,20.136,5.515
				c10.036,4.618,12.821,2.446,16.864,10.688c1.588,3.459,4.468,10.029,7.393,12.947
				C113.143,114.028,113.411,112.972,113.945,112.228z"/>
		</defs>
		<clipPath id="SVGID_62_">
			<use xlink:href="#SVGID_61_"  overflow="visible"/>
		</clipPath>
		<path clip-path="url(#SVGID_62_)" fill="#FF3030" d="M105.75,102.236c2.8,6.119,9.658,21.977,13.639,10.123
			c3.995-11.844,11.357-37.354,9.155-52.462c-2.186-15.102-6.449-41.986-15.967-46.11c-9.532-4.121-8.369-6.553-11.83-8.73
			c-3.445-2.178-9.518-4.121-13.875-4.979c-4.342-0.857-10.524,5.669-14.756,5.119c-4.247-0.551-9.565,3.564-15.291,4.589
			c-5.726,1.013-8.651,9.114-13.78,10.894c-5.128,1.768-7.992,7.155-10.965,11.229c-2.972,4.065,0.804,7.15-2.391,10.609
			C26.496,45.99,29.17,57.56,34.55,61.432c5.396,3.86,9.581,12.883,18.358,15.918c6.404,2.219,11.909,9.047,15.843,8.684
			c3.916-0.362,10.099,0.891,20.136,5.515C98.922,96.166,101.707,93.994,105.75,102.236z"/>
		
			<linearGradient id="SVGID_63_" gradientUnits="userSpaceOnUse" x1="170.688" y1="98.9141" x2="264.4463" y2="118.2274" gradientTransform="matrix(0.9448 -0.3276 0.3276 0.9448 -161.3335 29.7847)">
			<stop  offset="0" style="stop-color:#4A4A4A"/>
			<stop  offset="0.1194" style="stop-color:#373737"/>
			<stop  offset="0.3119" style="stop-color:#1F1F1F"/>
			<stop  offset="0.5154" style="stop-color:#0E0E0E"/>
			<stop  offset="0.735" style="stop-color:#030303"/>
			<stop  offset="1" style="stop-color:#000000"/>
		</linearGradient>
		<path clip-path="url(#SVGID_62_)" fill="url(#SVGID_63_)" d="M105.75,102.236c2.8,6.119,9.658,21.977,13.639,10.123
			c3.995-11.844,11.357-37.354,9.155-52.462c-2.186-15.102-6.449-41.986-15.967-46.11c-9.532-4.121-8.369-6.553-11.83-8.73
			c-3.445-2.178-9.518-4.121-13.875-4.979c-4.342-0.857-10.524,5.669-14.756,5.119c-4.247-0.551-9.565,3.564-15.291,4.589
			c-5.726,1.013-8.651,9.114-13.78,10.894c-5.128,1.768-7.992,7.155-10.965,11.229c-2.972,4.065,0.804,7.15-2.391,10.609
			C26.496,45.99,29.17,57.56,34.55,61.432c5.396,3.86,9.581,12.883,18.358,15.918c6.404,2.219,11.909,9.047,15.843,8.684
			c3.916-0.362,10.099,0.891,20.136,5.515C98.922,96.166,101.707,93.994,105.75,102.236z"/>
		
			<radialGradient id="SVGID_64_" cx="247.7549" cy="101.9482" r="94.4355" gradientTransform="matrix(0.9448 -0.3276 0.3276 0.9448 -161.3335 29.7847)" gradientUnits="userSpaceOnUse">
			<stop  offset="0.3656" style="stop-color:#FF3030"/>
			<stop  offset="0.3792" style="stop-color:#FC3136"/>
			<stop  offset="0.5915" style="stop-color:#D33E8B"/>
			<stop  offset="0.765" style="stop-color:#B547CA"/>
			<stop  offset="0.8912" style="stop-color:#A24DF0"/>
			<stop  offset="0.957" style="stop-color:#9B4FFF"/>
		</radialGradient>
		<path opacity="0.5" clip-path="url(#SVGID_62_)" fill="url(#SVGID_64_)" d="M195.37,14.007
			c-17.083-49.275-70.884-75.376-120.155-58.289c-49.286,17.08-75.384,70.883-58.3,120.154C34,125.158,87.8,151.247,137.071,134.164
			C186.357,117.086,212.455,63.287,195.37,14.007z"/>
		
			<radialGradient id="SVGID_65_" cx="585.8066" cy="506.0938" r="23.4819" gradientTransform="matrix(2.0606 3.4537 -1.5154 0.9041 -319.1828 -2392.9785)" gradientUnits="userSpaceOnUse">
			<stop  offset="0" style="stop-color:#BA004E"/>
			<stop  offset="0.1702" style="stop-color:#C83673"/>
			<stop  offset="0.459" style="stop-color:#E08BAE"/>
			<stop  offset="0.6954" style="stop-color:#F1CADA"/>
			<stop  offset="0.8673" style="stop-color:#FBF0F5"/>
			<stop  offset="0.957" style="stop-color:#FFFFFF"/>
		</radialGradient>
		<path clip-path="url(#SVGID_62_)" fill="url(#SVGID_65_)" d="M169.382,168.884c19.633-11.722,13.923-57.546-12.804-102.333
			C129.851,21.763,92.252-5.026,72.604,6.684c-19.647,11.73-13.907,57.54,12.806,102.325
			C112.136,153.806,149.735,180.608,169.382,168.884z"/>
		
			<radialGradient id="SVGID_66_" cx="573.3242" cy="478.7393" r="23.481" gradientTransform="matrix(0.4141 4.0004 -1.7553 0.1817 728.16 -2322.6514)" gradientUnits="userSpaceOnUse">
			<stop  offset="0" style="stop-color:#BA004E"/>
			<stop  offset="0.1702" style="stop-color:#C83673"/>
			<stop  offset="0.459" style="stop-color:#E08BAE"/>
			<stop  offset="0.6954" style="stop-color:#F1CADA"/>
			<stop  offset="0.8673" style="stop-color:#FBF0F5"/>
			<stop  offset="0.957" style="stop-color:#FFFFFF"/>
		</radialGradient>
		<path clip-path="url(#SVGID_62_)" fill="url(#SVGID_66_)" d="M134.962,151.798c22.764-2.359,36.859-46.328,31.495-98.21
			c-5.365-51.874-28.174-92.02-50.938-89.661C92.755-33.72,78.66,10.24,84.025,62.122C89.39,114.002,112.199,154.15,134.962,151.798
			z"/>
		<g opacity="0.7" clip-path="url(#SVGID_62_)">
			
				<radialGradient id="SVGID_67_" cx="1185.9736" cy="2967.1387" r="31.7515" gradientTransform="matrix(-0.6903 -1.1205 0.3907 -0.2407 -282.6803 2044.7888)" gradientUnits="userSpaceOnUse">
				<stop  offset="0" style="stop-color:#FFB169"/>
				<stop  offset="0.1009" style="stop-color:#CE8F55"/>
				<stop  offset="0.226" style="stop-color:#98693F"/>
				<stop  offset="0.3527" style="stop-color:#69492B"/>
				<stop  offset="0.4781" style="stop-color:#432F1C"/>
				<stop  offset="0.6021" style="stop-color:#261A10"/>
				<stop  offset="0.7242" style="stop-color:#110C07"/>
				<stop  offset="0.8435" style="stop-color:#040302"/>
				<stop  offset="0.957" style="stop-color:#000000"/>
			</radialGradient>
			<path fill="url(#SVGID_67_)" d="M35.981-33.869c-6.843,4.232-2.594,23.581,9.518,43.223
				c12.098,19.655,27.482,32.158,34.326,27.944c6.859-4.224,2.595-23.572-9.518-43.223C58.209-25.58,42.84-38.087,35.981-33.869z"/>
			
				<radialGradient id="SVGID_68_" cx="1065.5381" cy="4316.6309" r="31.7456" gradientTransform="matrix(-0.9202 -0.9409 0.1812 -0.1772 239.7508 1779.5215)" gradientUnits="userSpaceOnUse">
				<stop  offset="0" style="stop-color:#FFB169"/>
				<stop  offset="0.1009" style="stop-color:#CE8F55"/>
				<stop  offset="0.226" style="stop-color:#98693F"/>
				<stop  offset="0.3527" style="stop-color:#69492B"/>
				<stop  offset="0.4781" style="stop-color:#432F1C"/>
				<stop  offset="0.6021" style="stop-color:#261A10"/>
				<stop  offset="0.7242" style="stop-color:#110C07"/>
				<stop  offset="0.8435" style="stop-color:#040302"/>
				<stop  offset="0.957" style="stop-color:#000000"/>
			</radialGradient>
			<path fill="url(#SVGID_68_)" d="M12.195-17.83c-3.177,3.113,7.332,19,23.471,35.504C51.808,34.175,67.459,45.03,70.638,41.922
				c3.177-3.105-7.332-19-23.471-35.496C31.042-10.086,15.39-20.938,12.195-17.83z"/>
			
				<radialGradient id="SVGID_69_" cx="1630.6221" cy="2889.5273" r="31.7632" gradientTransform="matrix(0.1827 -0.9913 0.2493 0.0459 -929.5836 1480.5242)" gradientUnits="userSpaceOnUse">
				<stop  offset="0" style="stop-color:#FFB169"/>
				<stop  offset="0.1702" style="stop-color:#C98C53"/>
				<stop  offset="0.459" style="stop-color:#745130"/>
				<stop  offset="0.6954" style="stop-color:#352516"/>
				<stop  offset="0.8673" style="stop-color:#0F0A06"/>
				<stop  offset="0.957" style="stop-color:#000000"/>
			</radialGradient>
			<path fill="url(#SVGID_69_)" d="M94.501-34.759c-4.389-0.802-10.523,12.641-13.732,30.022c-3.195,17.385-2.25,32.13,2.124,32.935
				c4.373,0.811,10.508-12.635,13.717-30.017C99.803-19.2,98.859-33.948,94.501-34.759z"/>
			
				<radialGradient id="SVGID_70_" cx="1997.0459" cy="1866.6074" r="31.7461" gradientTransform="matrix(0.3429 -0.5991 0.22 0.1259 -986.8875 970.8241)" gradientUnits="userSpaceOnUse">
				<stop  offset="0" style="stop-color:#FFB169"/>
				<stop  offset="0.1702" style="stop-color:#C98C53"/>
				<stop  offset="0.459" style="stop-color:#745130"/>
				<stop  offset="0.6954" style="stop-color:#352516"/>
				<stop  offset="0.8673" style="stop-color:#0F0A06"/>
				<stop  offset="0.957" style="stop-color:#000000"/>
			</radialGradient>
			<path fill="url(#SVGID_70_)" d="M119.436-9.621c-3.854-2.21-11.86,4.516-17.871,15.032c-6.009,10.501-7.756,20.806-3.901,23.007
				c3.854,2.21,11.862-4.508,17.871-15.015C121.544,2.894,123.29-7.417,119.436-9.621z"/>
			
				<radialGradient id="SVGID_71_" cx="888.8018" cy="3513.8203" r="31.752" gradientTransform="matrix(-1.1612 -0.6194 0.1626 -0.3048 491.6611 1650.7295)" gradientUnits="userSpaceOnUse">
				<stop  offset="0" style="stop-color:#FFB169"/>
				<stop  offset="0.1009" style="stop-color:#CE8F55"/>
				<stop  offset="0.226" style="stop-color:#98693F"/>
				<stop  offset="0.3527" style="stop-color:#69492B"/>
				<stop  offset="0.4781" style="stop-color:#432F1C"/>
				<stop  offset="0.6021" style="stop-color:#261A10"/>
				<stop  offset="0.7242" style="stop-color:#110C07"/>
				<stop  offset="0.8435" style="stop-color:#040302"/>
				<stop  offset="0.957" style="stop-color:#000000"/>
			</radialGradient>
			<path fill="url(#SVGID_71_)" d="M-5.941,9.522c-2.848,5.345,11.341,18.485,31.714,29.35c20.355,10.861,39.187,15.33,42.034,9.989
				c2.846-5.348-11.343-18.494-31.714-29.347C15.735,8.65-3.095,4.176-5.941,9.522z"/>
			
				<radialGradient id="SVGID_72_" cx="869.1807" cy="2432.5283" r="61.3564" gradientTransform="matrix(-1.1836 -0.9813 0.42 -0.5066 33.1414 2145.3276)" gradientUnits="userSpaceOnUse">
				<stop  offset="0" style="stop-color:#FFB169"/>
				<stop  offset="0.0125" style="stop-color:#F5AA65"/>
				<stop  offset="0.0854" style="stop-color:#C38750"/>
				<stop  offset="0.1634" style="stop-color:#94673D"/>
				<stop  offset="0.2448" style="stop-color:#6C4B2D"/>
				<stop  offset="0.3306" style="stop-color:#4B341F"/>
				<stop  offset="0.4216" style="stop-color:#2F2114"/>
				<stop  offset="0.5201" style="stop-color:#1A120B"/>
				<stop  offset="0.6295" style="stop-color:#0B0805"/>
				<stop  offset="0.7587" style="stop-color:#030201"/>
				<stop  offset="0.957" style="stop-color:#000000"/>
			</radialGradient>
			<path fill="url(#SVGID_72_)" d="M-46.591-0.127c-14.237,17.163,6.748,58.04,46.863,91.288
				c40.099,33.257,84.161,46.289,98.398,29.133C112.892,103.132,91.921,62.257,51.808,29C11.692-4.248-32.355-17.298-46.591-0.127z"
				/>
		</g>
		
			<radialGradient id="SVGID_73_" cx="851.7061" cy="828.1113" r="9.3701" gradientTransform="matrix(-1.1222 -2.436 1.2667 -0.5835 21.9495 2662.8376)" gradientUnits="userSpaceOnUse">
			<stop  offset="0.3656" style="stop-color:#BA004E"/>
			<stop  offset="0.4708" style="stop-color:#C83673"/>
			<stop  offset="0.6492" style="stop-color:#E08BAE"/>
			<stop  offset="0.7953" style="stop-color:#F1CADA"/>
			<stop  offset="0.9016" style="stop-color:#FBF0F5"/>
			<stop  offset="0.957" style="stop-color:#FFFFFF"/>
		</radialGradient>
		<path clip-path="url(#SVGID_62_)" fill="url(#SVGID_73_)" d="M104.618,82.054c-6.544,3.014-7.159,15.684-1.354,28.292
			s15.841,20.379,22.401,17.359c6.544-3.021,7.143-15.69,1.338-28.29C121.198,86.807,111.176,79.033,104.618,82.054z"/>
		
			<radialGradient id="SVGID_74_" cx="754.4287" cy="827.5684" r="9.3706" gradientTransform="matrix(-2.8171 -6.1155 1.2667 -0.5835 1192.1521 5201.4736)" gradientUnits="userSpaceOnUse">
			<stop  offset="0.3656" style="stop-color:#D100AB"/>
			<stop  offset="0.4708" style="stop-color:#DB36BD"/>
			<stop  offset="0.6492" style="stop-color:#EA8BD9"/>
			<stop  offset="0.7953" style="stop-color:#F5CAED"/>
			<stop  offset="0.9016" style="stop-color:#FCF0FA"/>
			<stop  offset="0.957" style="stop-color:#FFFFFF"/>
		</radialGradient>
		<path clip-path="url(#SVGID_62_)" fill="url(#SVGID_74_)" d="M88.729,47.57c-6.544,3.021-0.031,31.123,14.536,62.775
			c14.582,31.659,31.714,54.862,38.274,51.842c6.56-3.021,0.047-31.123-14.536-62.772C112.435,67.762,95.289,44.55,88.729,47.57z"/>
		
			<radialGradient id="SVGID_75_" cx="398.6182" cy="-148.6885" r="43.7656" gradientTransform="matrix(1.8671 -0.9324 0.7336 1.4691 -582.1608 610.9994)" gradientUnits="userSpaceOnUse">
			<stop  offset="0" style="stop-color:#FF1A1A"/>
			<stop  offset="0.1702" style="stop-color:#C91515"/>
			<stop  offset="0.459" style="stop-color:#740C0C"/>
			<stop  offset="0.6954" style="stop-color:#350505"/>
			<stop  offset="0.8673" style="stop-color:#0F0202"/>
			<stop  offset="0.957" style="stop-color:#000000"/>
		</radialGradient>
		<path clip-path="url(#SVGID_62_)" fill="url(#SVGID_75_)" d="M134.743-19.908C117.014-55.422,66.044-65.938,20.911-43.404
			c-45.117,22.536-67.33,69.589-49.601,105.111c17.729,35.495,68.683,46.014,113.815,23.478
			C130.259,62.649,152.471,15.599,134.743-19.908z"/>
	</g>
	<g>
		<path fill="#CF1919" d="M119.971,117.599c-0.189-0.073-0.944-0.504-0.251-0.079c-0.221-0.141-0.457-0.275-0.692-0.41l0,0
			c0.078,0.032,0.063,0.032,0-0.006c0.22-0.298,0.377-0.623,0.471-0.978c0.284-0.433,0.536-0.872,0.708-1.357
			c1.007-0.843,1.967-2.307,1.053-3.486c-1.573-2.063-4.184-1.533-6.465-1.202c0.205-0.992,0.235-2.037-0.221-2.886
			c-0.015-0.035-0.047-0.059-0.047-0.082c0.189-0.434,0.095-1.013-0.314-1.329c-0.252-0.205-0.534-0.41-0.849-0.55
			c0.44,0.236,0.392,0.134-0.158-0.305c-0.408-0.293-0.818-0.41-1.305-0.48c-1.259-0.204-2.878,0.557-3.619,1.572
			c-0.786,1.086-1.21,2.297-1.399,3.556c-1.244-0.433-2.47-1.007-3.808-0.86c-0.646,0.082-1.196,0.349-1.652,0.726
			c-1.792-0.245-3.335,0.951-3.649,2.713c-0.299,1.637,0.834,2.761,1.967,3.721c1.291,1.095,2.895,1.328,4.374,2.037
			c0.329,0.157,0.707,0.236,1.07,0.245c-0.095,0.117-0.205,0.229-0.284,0.337c-0.55,0.723-1.195,1.606-1.447,2.479
			c-0.377,1.399-0.205,2.816,1.039,3.753c1.258,0.937,2.658,0.708,3.901-0.047c0.944-0.583,1.699-1.364,2.469-2.157
			c0.347-0.378,0.755-0.857,1.086-1.353c0.44,1.496,1.872,2.532,3.272,3.129c2.375,1.019,4.563-0.141,6.024-2.061
			C122.44,120.698,121.78,118.315,119.971,117.599z M112.105,116.349c-0.079,0.1-0.142,0.211-0.205,0.322
			c-0.142-0.158-0.284-0.308-0.473-0.442c-0.408-0.307-0.865-0.488-1.322-0.582c0.536,0.041,1.07-0.07,1.559-0.328
			c0.078,0.1,0.157,0.205,0.236,0.299c0.142,0.164,0.298,0.313,0.44,0.462C112.262,116.167,112.183,116.243,112.105,116.349z"/>
		<path fill="#FFECBF" d="M78.015,41.585c-0.141-0.079-0.204,0.108-0.141,0.214c8.651,12.969,15.573,19.466,22.716,33.561
			c3.587,7.08,6.796,18.029,7.943,26.139c0.598,4.209-1.714,10.94,1.244,14.692c0.015-0.023,0.015-0.032,0.031-0.047
			c1.589,1.973,4.766,1.73,5.144-1.448C118.161,87.38,101.045,55.766,78.015,41.585z"/>
		
			<linearGradient id="SVGID_76_" gradientUnits="userSpaceOnUse" x1="230.8101" y1="89.5186" x2="230.8101" y2="172.5781" gradientTransform="matrix(0.9448 -0.3276 0.3276 0.9448 -161.3335 29.7847)">
			<stop  offset="0.3925" style="stop-color:#FFFFFF"/>
			<stop  offset="0.4064" style="stop-color:#FFFDF9"/>
			<stop  offset="0.6246" style="stop-color:#FFE5A4"/>
			<stop  offset="0.8028" style="stop-color:#FFD465"/>
			<stop  offset="0.9324" style="stop-color:#FFC93F"/>
			<stop  offset="1" style="stop-color:#FFC530"/>
		</linearGradient>
		<path fill="url(#SVGID_76_)" d="M78.015,41.585c-0.141-0.079-0.204,0.108-0.141,0.214c8.651,12.969,15.573,19.466,22.716,33.561
			c3.587,7.08,6.796,18.029,7.943,26.139c0.598,4.209-1.714,10.94,1.244,14.692c0.015-0.023,0.015-0.032,0.031-0.047
			c1.589,1.973,4.766,1.73,5.144-1.448C118.161,87.38,101.045,55.766,78.015,41.585z"/>
		<g>
			<path fill="#E27C0A" d="M89.027,37.087c-0.692-0.34-1.573-0.041-1.902,0.667c-0.3,0.606-0.174,1.101,0.126,1.674
				c0.676,1.282,2.988,0.48,2.72-0.937C89.861,37.848,89.642,37.386,89.027,37.087z"/>
			<path fill="#E27C0A" d="M67.492,45.683c-0.016,0.009-0.032,0.023-0.032,0.023c-0.708,0.457-0.849,1.691-0.125,2.21
				c0.016,0.009,0.032,0.018,0.047,0.023c0.85,0.597,2.092,0.315,2.313-0.802C69.946,45.879,68.529,45.024,67.492,45.683z"/>
			<path fill="#E27C0A" d="M86.84,46.201c-0.755-0.393-1.809-0.029-2.139,0.74c-0.345,0.778-0.173,1.454,0.377,2.075
				c0.41,0.45,1.117,0.6,1.668,0.395c0.566-0.196,1.021-0.74,1.069-1.337C87.863,47.23,87.58,46.596,86.84,46.201z"/>
			<path fill="#E27C0A" d="M80.233,53.02c-0.692,0.48-1.226,1.197-1.321,2.072c-0.079,0.803,0.205,1.563,0.976,1.94
				c0.692,0.331,1.65,0.19,2.123-0.447c0.283-0.363,0.55-0.778,0.646-1.235l0.063-0.284c0-0.094,0-0.187,0.015-0.274
				c0,0,0-0.032,0.016-0.117C82.955,53.289,81.461,52.18,80.233,53.02z"/>
			<path fill="#E27C0A" d="M86.432,57.656c-0.377-0.498-0.708-1.048-1.291-1.306c-0.723-0.316-1.51-0.05-1.872,0.644
				c-0.771,1.487,0.55,4.215,2.454,3.483C86.84,60.053,87.125,58.59,86.432,57.656z"/>
			<path fill="#E27C0A" d="M86.463,51.196c-0.676-0.992-1.918-0.881-2.722-0.144c-0.031,0.023-0.047,0.05-0.078,0.082
				c-0.503,0.457-0.566,1.54-0.111,2.052c0.095,0.108,0.189,0.214,0.284,0.322c0.597,0.103,1.179,0.196,1.778,0.29
				C86.715,53.518,87.062,52.06,86.463,51.196z"/>
			<path fill="#E27C0A" d="M88.886,51.905c-0.818,0.274-1.258,1.185-0.976,1.999c0.284,0.808,1.196,1.24,1.998,0.966
				c0.818-0.275,1.258-1.188,0.976-1.996C90.6,52.071,89.688,51.621,88.886,51.905z"/>
			<path fill="#E27C0A" d="M93.527,46.824c-0.536,0.032-0.897,0.29-1.275,0.629c0.41-0.354,0.394-0.354-0.016,0.015
				c-0.172,0.214-0.298,0.457-0.345,0.731c0.031-0.116,0.079-0.242,0.11-0.354c-0.142,0.283-0.189,0.582-0.173,0.913
				c0.031,0.644,0.424,1.235,1.023,1.516c1.054,0.513,2.343-0.141,2.564-1.281C95.65,47.831,94.69,46.745,93.527,46.824z"/>
			<path fill="#E27C0A" d="M97.081,51.92c-0.188-0.141-0.377-0.275-0.597-0.369c-0.725-0.322-1.542-0.173-2.077,0.434
				c-0.063,0.053-0.095,0.099-0.142,0.163c-0.361,0.545-0.487,1.314-0.047,1.841c0.016,0.038,0.047,0.085,0.063,0.135
				c0.142,0.155,0.22,0.243,0.282,0.29c0.583,0.69,1.605,0.866,2.377,0.34C97.853,54.123,98.01,52.628,97.081,51.92z"/>
			<path fill="#E27C0A" d="M89.94,56.781c-0.629-0.313-1.605-0.079-1.888,0.638c-0.221,0.605-0.158,1.25,0.361,1.7
				c0.676,0.589,1.778,0.36,2.172-0.456C90.931,57.969,90.632,57.111,89.94,56.781z"/>
			<path fill="#E27C0A" d="M94.219,55.955c-0.095-0.023-0.188-0.037-0.298-0.061c-1.542-0.316-2.738,1.838-1.384,2.854
				c0.329,0.236,0.644,0.418,1.038,0.471c0.897,0.111,1.762-0.378,1.951-1.312C95.713,56.977,95.083,56.192,94.219,55.955z"/>
			<path fill="#E27C0A" d="M89.374,62.356c-0.473-0.234-1.132-0.123-1.463,0.31c-0.282,0.36-0.487,0.674-0.487,1.162
				c0.016,0.48,0.189,0.928,0.566,1.221c0.597,0.463,1.636,0.393,1.935-0.404c0.173-0.421,0.189-0.816,0.095-1.234
				C90.003,62.971,89.814,62.579,89.374,62.356z"/>
			<path fill="#E27C0A" d="M101.157,55.625c-0.284-0.234-0.536-0.243-0.834-0.354c-0.425-0.155-0.802-0.038-1.07,0.29
				c-0.331,0.287-0.52,0.6-0.646,1.054c-0.251,1.001,0.692,1.943,1.668,1.882c0.912-0.056,1.855-1.156,1.384-2.093
				C101.518,56.11,101.408,55.848,101.157,55.625z"/>
			<path fill="#E27C0A" d="M93.102,61.876c-1.274,0.451-1.022,2.157,0.173,2.488c0.016,0.006,0.031,0.006,0.047,0.015
				c0.394,0.103,0.913-0.079,1.133-0.393c0.032-0.015,0.032-0.032,0.047-0.047C95.242,62.941,94.375,61.438,93.102,61.876z"/>
			<path fill="#E27C0A" d="M99.048,59.833c-0.047-0.022-0.094-0.046-0.156-0.063c-0.708-0.252-1.307-0.047-1.699,0.591
				c-0.032,0.056-0.063,0.103-0.095,0.149c-0.251,0.4-0.188,1.109,0.11,1.472c0.016,0.023,0.048,0.047,0.063,0.07
				c0.929,1.118,2.565,0.551,2.596-0.907c0.016-0.029,0.016-0.062,0.016-0.094C99.898,60.589,99.488,59.991,99.048,59.833z"/>
			<path fill="#E27C0A" d="M72.667,45.659c-1.021,0.354-1.588,1.511-1.227,2.531c0.361,1.03,1.51,1.59,2.533,1.244
				c1.038-0.359,1.588-1.519,1.226-2.549C74.854,45.864,73.689,45.299,72.667,45.659z"/>
			<path fill="#E27C0A" d="M84.591,34.789c-0.613-0.298-1.305-0.149-1.778,0.337c-0.487,0.503-0.534,1.329-0.142,1.905
				c0.552,0.816,1.778,0.887,2.423,0.132S85.488,35.22,84.591,34.789z"/>
			<path fill="#E27C0A" d="M72.163,41.231c-0.015-0.023-0.047-0.047-0.063-0.079c-0.455-0.653-1.557-0.992-2.217-0.407
				c-0.016,0.012-0.032,0.029-0.063,0.038c-0.724,0.635-0.96,1.762-0.125,2.453c0.392,0.324,0.786,0.441,1.289,0.418
				C72.163,43.59,72.84,42.191,72.163,41.231z"/>
			<path fill="#E27C0A" d="M78.393,33.47c-0.707,0.239-1.084,1.036-0.849,1.744c0.251,0.714,1.053,1.101,1.746,0.849
				c0.708-0.243,1.102-1.036,0.865-1.744C79.903,33.609,79.101,33.218,78.393,33.47z"/>
			<path fill="#E27C0A" d="M73.281,36.118c-0.692,0.237-1.069,1.016-0.834,1.706c0.236,0.693,1.023,1.077,1.715,0.834
				c0.692-0.242,1.069-1.021,0.833-1.715C74.759,36.253,73.973,35.875,73.281,36.118z"/>
			<path fill="#E27C0A" d="M73.61,51.794c-0.55,0.097-1.021,0.377-1.133,0.975c-0.157,0.764,0.489,1.486,1.258,1.439
				c0.662-0.047,1.181-0.62,1.133-1.281C74.822,52.347,74.255,51.677,73.61,51.794z"/>
			<path fill="#E27C0A" d="M77.024,44.006c-0.079-0.141-0.173-0.252-0.299-0.352c0.016,0-0.347-0.167-0.503-0.252
				c0.063,0.07,0,0.023-0.235-0.141c-0.142-0.081-0.599-0.339-0.205-0.049c-0.52-0.378-1.305-0.196-1.431,0.494
				c-0.095,0.545-0.095,0.907,0.204,1.411c0.3,0.518,0.913,0.942,1.526,0.816C77.008,45.753,77.574,44.872,77.024,44.006z"/>
			<path fill="#E27C0A" d="M76.175,38.737l-0.095,0.047c-0.597,0.316-0.723,1.124-0.55,1.697c0.094,0.372,0.345,0.624,0.676,0.806
				c0.41,0.236,0.851,0.219,1.291,0.07c0.786-0.252,1.179-1.133,0.928-1.889C78.078,38.485,77.024,38.29,76.175,38.737z"/>
			<path fill="#E27C0A" d="M81.665,37.566c-0.676-0.307-1.242-0.088-1.746,0.384c-0.597,0.535-0.157,1.724,0.613,1.794
				c0.331,0.032,0.725,0.056,1.039-0.088c0.471-0.205,0.723-0.564,0.723-1.077c0-0.023,0-0.029,0-0.062
				C82.31,38.132,81.995,37.73,81.665,37.566z"/>
			<path fill="#E27C0A" d="M78.975,48.121c-0.378-0.141-0.708-0.188-1.086-0.111c-0.534,0.035-0.975,0.269-1.415,0.685
				c-0.613,0.582-0.725,1.457-0.503,2.242c0.172,0.559,0.708,0.992,1.274,1.101c0.786,0.157,1.462-0.258,1.855-0.92
				c0.221-0.392,0.252-0.784,0.268-1.234c0-0.047,0.016-0.196,0.016-0.229c0.031-0.047,0.063-0.094,0.078-0.141
				C79.667,49.025,79.541,48.319,78.975,48.121z"/>
			<path fill="#E27C0A" d="M82.846,46.839c-0.095-0.164-0.237-0.293-0.378-0.425c-0.708-0.764-2.265-0.219-2.36,0.816
				c0,0.182-0.047,0.381-0.016,0.563c0.142,0.957,1.023,1.674,1.999,1.334C83.081,48.782,83.333,47.682,82.846,46.839z"/>
			<path fill="#E27C0A" d="M79.998,42.229c-0.629-0.188-1.306,0.05-1.809,0.424c-1.132,0.866-0.536,2.622,0.896,2.597
				c0.629-0.01,1.322-0.252,1.685-0.788C81.382,43.561,81.035,42.56,79.998,42.229z"/>
			<path fill="#E27C0A" d="M86.369,39.932c-0.032-0.029-0.048-0.062-0.079-0.085v-0.009c-0.032-0.029-0.079-0.062-0.095-0.094
				c0,0,0,0.018,0.016,0.023c-0.424-0.433-0.975-0.652-1.652-0.597c-1.604,0.117-2.139,2.052-1.021,3.097
				c0.173,0.175,0.377,0.301,0.581,0.403c0.566,0.258,1.337,0.267,1.841-0.141c-0.063,0.029-0.126,0.062-0.205,0.1
				C86.919,42.191,87.171,40.807,86.369,39.932z"/>
			<path fill="#E27C0A" d="M89.672,42.197c-0.487-0.164-1.259,0.111-1.541,0.535c-0.377,0.576-0.583,1.203-0.52,1.905
				c0.063,0.551,0.298,1.101,0.723,1.464c0.457,0.392,1.259,0.667,1.841,0.374c0.487-0.251,0.881-0.471,1.132-0.998
				c0.236-0.494,0.252-1.086,0.095-1.604C91.166,43.022,90.474,42.466,89.672,42.197z"/>
		</g>
		<g>
			<path fill="#FFC530" d="M87.816,36.496c-0.692-0.34-1.573-0.041-1.904,0.661c-0.298,0.614-0.188,1.109,0.126,1.683
				c0.676,1.282,2.988,0.48,2.722-0.945C88.635,37.26,88.43,36.794,87.816,36.496z"/>
			<path fill="#FFC530" d="M66.28,45.095c-0.016,0.015-0.032,0.015-0.047,0.029c-0.692,0.45-0.85,1.686-0.111,2.203
				c0.016,0.009,0.016,0.015,0.032,0.023c0.849,0.598,2.093,0.322,2.312-0.811C68.718,45.287,67.303,44.424,66.28,45.095z"/>
			<path fill="#FFC530" d="M85.614,45.612c-0.741-0.401-1.794-0.038-2.125,0.74c-0.345,0.771-0.172,1.452,0.378,2.075
				c0.41,0.442,1.102,0.589,1.668,0.396c0.566-0.19,1.007-0.74,1.054-1.347C86.652,46.651,86.353,46.014,85.614,45.612z"/>
			<path fill="#FFC530" d="M79.022,52.432c-0.707,0.48-1.227,1.188-1.322,2.069c-0.078,0.802,0.205,1.571,0.976,1.943
				c0.676,0.328,1.652,0.188,2.124-0.451c0.268-0.359,0.55-0.778,0.629-1.226l0.063-0.29c0-0.094,0.016-0.19,0.016-0.275
				c0.016,0.015,0.016-0.032,0.031-0.117C81.744,52.698,80.233,51.592,79.022,52.432z"/>
			<path fill="#FFC530" d="M85.205,57.064c-0.361-0.497-0.692-1.054-1.275-1.305c-0.723-0.322-1.51-0.047-1.888,0.644
				c-0.77,1.486,0.552,4.215,2.454,3.477C85.629,59.456,85.896,58.001,85.205,57.064z"/>
			<path fill="#FFC530" d="M85.251,50.608c-0.676-0.992-1.918-0.89-2.721-0.144c-0.032,0.023-0.063,0.056-0.095,0.07
				c-0.487,0.472-0.566,1.56-0.093,2.063c0.093,0.108,0.188,0.211,0.282,0.322c0.583,0.099,1.18,0.195,1.778,0.289
				C85.488,52.927,85.833,51.472,85.251,50.608z"/>
			<path fill="#FFC530" d="M87.659,51.316c-0.802,0.281-1.243,1.186-0.96,1.996c0.284,0.802,1.181,1.25,1.999,0.966
				c0.802-0.275,1.242-1.188,0.975-1.996C89.39,51.48,88.477,51.039,87.659,51.316z"/>
			<path fill="#FFC530" d="M92.299,46.232c-0.534,0.038-0.881,0.284-1.258,0.63c0.394-0.363,0.394-0.354-0.015,0.009
				c-0.174,0.22-0.3,0.465-0.347,0.74c0.032-0.129,0.063-0.246,0.11-0.363c-0.14,0.293-0.203,0.598-0.188,0.914
				c0.048,0.649,0.44,1.234,1.023,1.516c1.053,0.512,2.344-0.135,2.58-1.282C94.438,47.239,93.48,46.154,92.299,46.232z"/>
			<path fill="#FFC530" d="M95.871,51.328c-0.189-0.132-0.377-0.275-0.599-0.374c-0.739-0.316-1.557-0.167-2.093,0.447
				c-0.047,0.038-0.093,0.103-0.125,0.149c-0.362,0.55-0.503,1.329-0.063,1.85c0.032,0.038,0.048,0.085,0.079,0.123
				c0.142,0.158,0.221,0.252,0.268,0.299c0.583,0.693,1.604,0.866,2.375,0.339C96.626,53.532,96.783,52.037,95.871,51.328z"/>
			<path fill="#FFC530" d="M88.712,56.192c-0.629-0.308-1.604-0.082-1.872,0.636c-0.219,0.6-0.172,1.249,0.347,1.7
				c0.692,0.591,1.792,0.362,2.186-0.457C89.704,57.381,89.404,56.521,88.712,56.192z"/>
			<path fill="#FFC530" d="M93.007,55.367c-0.094-0.023-0.205-0.05-0.299-0.064c-1.557-0.316-2.722,1.841-1.384,2.848
				c0.314,0.237,0.646,0.425,1.038,0.472c0.897,0.117,1.762-0.369,1.951-1.306S93.872,55.602,93.007,55.367z"/>
			<path fill="#FFC530" d="M88.146,61.768c-0.471-0.236-1.117-0.125-1.447,0.308c-0.283,0.354-0.487,0.676-0.487,1.156
				c0,0.488,0.188,0.928,0.566,1.235c0.598,0.447,1.62,0.377,1.935-0.41c0.174-0.424,0.188-0.816,0.095-1.235
				C88.791,62.374,88.603,61.981,88.146,61.768z"/>
			<path fill="#FFC530" d="M99.929,55.033c-0.268-0.233-0.503-0.233-0.818-0.351c-0.44-0.158-0.802-0.047-1.07,0.289
				c-0.345,0.284-0.52,0.598-0.645,1.054c-0.267,0.998,0.677,1.952,1.652,1.888c0.928-0.063,1.872-1.164,1.4-2.101
				C100.291,55.514,100.197,55.256,99.929,55.033z"/>
			<path fill="#FFC530" d="M91.875,61.288c-1.258,0.442-1.007,2.163,0.189,2.484c0.016,0.009,0.032,0.009,0.047,0.023
				c0.394,0.094,0.897-0.076,1.132-0.397c0.016-0.018,0.032-0.035,0.048-0.05C94.014,62.351,93.149,60.846,91.875,61.288z"/>
			<path fill="#FFC530" d="M97.836,59.242c-0.047-0.023-0.11-0.038-0.157-0.053c-0.708-0.27-1.305-0.059-1.715,0.588
				c-0.031,0.038-0.063,0.097-0.079,0.144c-0.252,0.398-0.189,1.106,0.111,1.47c0.014,0.023,0.03,0.047,0.063,0.07
				c0.928,1.109,2.564,0.55,2.595-0.904c0-0.032,0-0.062,0.016-0.094C98.67,59.991,98.277,59.409,97.836,59.242z"/>
			<path fill="#FFC530" d="M71.456,45.071c-1.039,0.351-1.589,1.501-1.228,2.54c0.347,1.021,1.51,1.58,2.533,1.227
				c1.023-0.354,1.589-1.511,1.227-2.544C73.626,45.275,72.478,44.714,71.456,45.071z"/>
			<path fill="#FFC530" d="M83.38,34.201c-0.613-0.302-1.322-0.152-1.793,0.336c-0.473,0.504-0.536,1.329-0.126,1.903
				c0.55,0.819,1.777,0.881,2.422,0.125C84.512,35.819,84.261,34.631,83.38,34.201z"/>
			<path fill="#FFC530" d="M70.937,40.64c-0.016-0.023-0.032-0.047-0.047-0.076c-0.473-0.655-1.559-0.983-2.234-0.409
				c-0.016,0.015-0.031,0.029-0.047,0.047c-0.739,0.638-0.96,1.753-0.142,2.446c0.394,0.322,0.802,0.439,1.306,0.416
				C70.937,43.011,71.613,41.6,70.937,40.64z"/>
			<path fill="#FFC530" d="M77.182,32.884c-0.724,0.237-1.102,1.03-0.85,1.738c0.236,0.709,1.039,1.095,1.746,0.85
				c0.708-0.24,1.086-1.036,0.851-1.745C78.676,33.013,77.889,32.633,77.182,32.884z"/>
			<path fill="#FFC530" d="M72.053,35.529c-0.692,0.234-1.07,1.013-0.818,1.704c0.235,0.693,1.007,1.071,1.699,0.843
				c0.708-0.252,1.086-1.03,0.834-1.729C73.533,35.661,72.745,35.284,72.053,35.529z"/>
			<path fill="#FFC530" d="M72.4,51.196c-0.566,0.103-1.023,0.384-1.148,0.983c-0.142,0.765,0.487,1.496,1.274,1.44
				c0.66-0.038,1.164-0.63,1.133-1.285C73.61,51.756,73.029,51.088,72.4,51.196z"/>
			<path fill="#FFC530" d="M75.813,43.417c-0.078-0.132-0.173-0.251-0.298-0.354c0,0-0.346-0.173-0.503-0.243
				c0.063,0.062-0.016,0.015-0.252-0.149c-0.125-0.079-0.582-0.331-0.188-0.047c-0.52-0.38-1.306-0.199-1.431,0.486
				c-0.11,0.544-0.095,0.913,0.188,1.416c0.315,0.521,0.928,0.937,1.541,0.819C75.782,45.165,76.348,44.281,75.813,43.417z"/>
			<path fill="#FFC530" d="M74.964,38.141l-0.095,0.053c-0.597,0.324-0.723,1.118-0.566,1.7c0.111,0.36,0.347,0.623,0.678,0.802
				c0.424,0.243,0.865,0.214,1.305,0.073c0.771-0.252,1.18-1.136,0.912-1.882C76.868,37.895,75.798,37.698,74.964,38.141z"/>
			<path fill="#FFC530" d="M80.438,36.976c-0.676-0.299-1.228-0.088-1.746,0.387c-0.583,0.526-0.158,1.721,0.629,1.791
				c0.329,0.032,0.723,0.056,1.038-0.085c0.473-0.205,0.724-0.577,0.724-1.086c0-0.018,0-0.032,0-0.047
				C81.083,37.543,80.784,37.134,80.438,36.976z"/>
			<path fill="#FFC530" d="M77.763,47.523c-0.392-0.135-0.707-0.182-1.084-0.103c-0.536,0.032-0.976,0.275-1.417,0.686
				c-0.629,0.588-0.739,1.448-0.503,2.241c0.158,0.56,0.708,0.992,1.275,1.101c0.786,0.158,1.463-0.252,1.841-0.922
				c0.235-0.393,0.266-0.784,0.282-1.235c0-0.053,0.016-0.201,0.016-0.233c0.016-0.041,0.047-0.088,0.079-0.141
				C78.441,48.437,78.33,47.729,77.763,47.523z"/>
			<path fill="#FFC530" d="M81.618,46.247c-0.079-0.163-0.219-0.289-0.361-0.43c-0.708-0.755-2.265-0.22-2.36,0.816
				c-0.015,0.19-0.047,0.378-0.031,0.573c0.142,0.961,1.023,1.669,2.014,1.329C81.87,48.19,82.121,47.091,81.618,46.247z"/>
			<path fill="#FFC530" d="M78.786,41.646c-0.629-0.205-1.321,0.041-1.825,0.428c-1.133,0.854-0.52,2.61,0.913,2.587
				c0.613-0.009,1.305-0.252,1.683-0.796C80.17,42.976,79.809,41.969,78.786,41.646z"/>
			<path fill="#FFC530" d="M85.142,39.344c-0.016-0.032-0.031-0.062-0.063-0.097c0,0.012,0,0,0,0c-0.047-0.038-0.079-0.07-0.11-0.1
				c0.016,0.015,0.016,0.023,0.016,0.029c-0.41-0.422-0.96-0.65-1.636-0.598c-1.605,0.117-2.156,2.046-1.039,3.108
				c0.172,0.164,0.377,0.281,0.598,0.387c0.55,0.266,1.336,0.266,1.856-0.135c-0.079,0.029-0.142,0.064-0.22,0.103
				C85.708,41.6,85.959,40.216,85.142,39.344z"/>
			<path fill="#FFC530" d="M88.46,41.608c-0.487-0.167-1.273,0.108-1.541,0.536c-0.394,0.573-0.583,1.202-0.52,1.902
				c0.063,0.55,0.284,1.095,0.708,1.463c0.457,0.401,1.258,0.668,1.841,0.369c0.503-0.234,0.896-0.472,1.147-0.989
				c0.237-0.498,0.251-1.086,0.095-1.616C89.94,42.434,89.264,41.875,88.46,41.608z"/>
		</g>
	</g>
</g>
</svg>
