<?xml version="1.0" encoding="utf-8"?>
<!-- Generator: Adobe Illustrator 16.0.0, SVG Export Plug-In . SVG Version: 6.00 Build 0)  -->
<!DOCTYPE svg PUBLIC "-//W3C//DTD SVG 1.1//EN" "http://www.w3.org/Graphics/SVG/1.1/DTD/svg11.dtd">
<svg version="1.1" id="Capa_1" xmlns="http://www.w3.org/2000/svg" xmlns:xlink="http://www.w3.org/1999/xlink" x="0px" y="0px"
	 width="541.187px" height="600.006px" viewBox="229.405 -0.006 541.187 600.006"
	 enable-background="new 229.405 -0.006 541.187 600.006" xml:space="preserve">
<g>
	<g>
		<ellipse fill="#DAE7EF" cx="529.069" cy="565.256" rx="127.393" ry="28.953"/>
		<path fill="#BBD7EA" d="M529.069,600c-46.07,0-133.185-7.262-133.185-34.744c0-27.481,87.114-34.743,133.185-34.743
			c46.069,0,133.184,7.262,133.184,34.743C662.253,592.738,575.139,600,529.069,600z M529.069,542.094
			c-78.684,0-121.604,15.299-121.604,23.162c0,7.864,42.92,23.163,121.604,23.163c78.683,0,121.603-15.299,121.603-23.163
			C650.672,557.393,607.752,542.094,529.069,542.094z"/>
	</g>
	<g>
		<line fill="none" x1="529.069" y1="387.38" x2="529.069" y2="561.099"/>
		<path fill="#BBD7EA" d="M529.069,572.68c-6.394,0-11.582-5.177-11.582-11.581V387.38c0-6.404,5.188-11.581,11.582-11.581
			c6.393,0,11.581,5.177,11.581,11.581v173.719C540.65,567.491,535.474,572.68,529.069,572.68z"/>
	</g>
	<path fill="#A4E869" d="M309.025,107.798c0,16.839,32.972,29.787,83.895,37.674c5.547-11.384,8.755-24.124,8.755-37.639
		c0-47.576-38.565-86.142-86.141-86.142s-86.129,38.565-86.129,86.142c0,47.575,38.565,86.141,86.129,86.141
		c12.844,0,24.981-2.884,35.925-7.922C326.456,150.348,309.025,120.815,309.025,107.798z"/>
	<g>
		<path fill="#DAE7EF" d="M523.278,49.892c-50.703,0-97.213,5.374-133.902,13.747c7.76,12.937,12.299,28.015,12.299,44.183
			c0,13.515-3.196,26.254-8.755,37.639c-47.483-7.354-79.331-19.109-83.419-34.315c0.093,0.579,0.093,1.065,0.243,1.679
			c0.104,0.475,0.231,0.961,0.371,1.459c0.486,1.795,1.1,3.717,1.911,5.825c0.069,0.174,0.104,0.324,0.185,0.498
			c0.926,2.351,2.084,4.91,3.382,7.609c0.266,0.544,0.544,1.112,0.822,1.667c1.274,2.571,2.664,5.247,4.239,8.084
			c0.116,0.22,0.22,0.417,0.347,0.625c1.772,3.197,3.741,6.555,5.849,10.053c0.22,0.371,0.452,0.741,0.683,1.112
			c2.085,3.428,4.285,6.96,6.648,10.62c0.069,0.104,0.127,0.197,0.197,0.301c5.13,7.968,10.886,16.469,17.117,25.352l0,0
			c43.383,61.901,109.64,142.391,147.776,187.767c15.449,18.379,43.788,18.055,58.786-0.695
			c57.27-71.606,179.509-228.729,179.509-265.303C737.531,79.019,641.615,49.892,523.278,49.892z"/>
		<path fill="#BBD7EA" d="M528.351,393.171c-12.971,0-25.166-5.675-33.539-15.635c-36.435-43.337-104.115-125.413-148.089-188.171
			c-6.277-8.953-12.068-17.511-17.233-25.537c-2.583-4.019-4.83-7.586-6.926-11.06c0-0.012-0.683-1.124-0.695-1.124
			c-2.143-3.567-4.134-6.983-5.953-10.215c-1.958-3.578-3.382-6.323-4.702-8.94l-0.857-1.76c-1.355-2.814-2.571-5.513-3.555-7.968
			c-1.077-2.873-1.749-4.98-2.282-6.949l-0.429-1.702c-0.046-0.22-0.231-1.448-0.254-1.679c-0.324-3.011,1.679-6.08,4.655-6.636
			c2.954-0.567,5.814,0.938,6.602,3.856c1.158,4.285,9.96,18.866,74.386,29.405c4.25-9.971,6.404-20.464,6.404-31.234
			c0-14.442-3.972-28.698-11.477-41.206c-0.961-1.587-1.088-3.544-0.359-5.246c0.729-1.703,2.224-2.965,4.042-3.37
			c39.237-8.964,87.253-13.897,135.188-13.897c106.27,0,220.043,25.594,220.043,63.696c0,37.338-113.264,184.524-180.771,268.928
			c-8.223,10.284-20.486,16.271-33.643,16.445C528.722,393.171,528.536,393.171,528.351,393.171z M332.455,146.746
			c2.062,3.382,4.239,6.891,6.566,10.493c5.292,8.211,11.002,16.654,17.187,25.467c43.719,62.399,111.157,144.163,147.463,187.373
			c6.254,7.424,15.265,11.269,25.085,11.5c9.671-0.127,18.692-4.54,24.738-12.103C665.102,229.945,731.74,132.119,731.74,107.787
			c0-20.742-83.142-52.116-208.462-52.116c-44.09,0-88.168,4.227-125.135,11.975c6.115,12.519,9.323,26.266,9.323,40.164
			c0,13.956-3.138,27.482-9.346,40.187c-1.112,2.281-3.521,3.579-6.092,3.185c-30.169-4.667-52.752-10.805-67.577-18.31
			c0.406,0.753,0.822,1.518,1.251,2.293c2.073,3.741,4.007,7.042,6.08,10.469l-4.285,4.1L332.455,146.746z"/>
	</g>
	<path fill="#F9EA80" d="M664.477,233.987c0,13.458-66.639,24.367-135.396,24.367c-68.757,0-142.437-10.91-142.437-24.367
		c0-13.457,73.68-21.958,142.437-21.958C597.838,212.029,664.477,220.53,664.477,233.987z"/>
	<g>
		<path fill="#F2E69C" d="M528.397,258.354c-59.25,0-122.043-8.107-138.303-18.958c37.94,49.603,80.664,101.336,108.469,134.412
			c15.45,18.379,43.789,18.055,58.787-0.695c26.428-33.053,66.685-84.312,102.39-133.532
			C644.522,250.34,587.311,258.354,528.397,258.354z"/>
	</g>
	<path fill="#FBD490" d="M655.582,145.17c11.755-1.864,22.584-3.984,32.161-6.381l34.304-51.212
		c-5.605-3.683-12.508-7.238-20.776-10.608L655.582,145.17z"/>
	<g>
		<path fill="#B0D9EA" d="M655.582,145.17L522.074,344.495c-3.556,5.315-2.132,12.508,3.173,16.075
			c1.98,1.319,4.216,1.957,6.439,1.957c3.729,0,7.4-1.795,9.636-5.131L687.743,138.79
			C678.165,141.187,667.337,143.306,655.582,145.17z"/>
	</g>
	<g>
		<g>
			<path fill="#DAE7EF" d="M523.278,49.892c-50.703,0-97.213,5.374-133.902,13.747c7.76,12.937,12.299,28.015,12.299,44.183
				c0,13.515-3.196,26.254-8.755,37.639c36.134,5.594,81.242,8.651,130.358,8.651c118.325,0,214.253-17.545,214.253-46.325
				C737.531,79.007,641.615,49.892,523.278,49.892z"/>
			<path fill="#BBD7EA" d="M523.278,159.914c-48.966,0-94.341-3.023-131.238-8.721c-1.818-0.278-3.394-1.413-4.25-3.046
				s-0.88-3.567-0.069-5.211c5.42-11.118,8.165-22.931,8.165-35.114c0-14.442-3.972-28.698-11.477-41.206
				c-0.961-1.587-1.088-3.544-0.359-5.246c0.729-1.703,2.224-2.965,4.042-3.37c39.237-8.964,87.253-13.897,135.188-13.897
				c106.27,0,220.043,25.594,220.043,63.696C743.321,146.259,624.788,159.914,523.278,159.914z M401.27,140.839
				c34.917,4.91,76.899,7.481,122.02,7.481c130.485,0,208.462-20.603,208.462-40.534c0-20.742-83.142-52.116-208.462-52.116
				c-44.09,0-88.168,4.227-125.135,11.975c6.115,12.519,9.323,26.266,9.323,40.164C407.466,119.183,405.393,130.254,401.27,140.839z
				"/>
		</g>
	</g>
	<path fill="#FBD490" d="M765.453,1.957c-5.304-3.555-12.52-2.154-16.074,3.173l-49.325,73.645
		c7.795,1.506,15.172,4.968,21.078,10.157l47.494-70.912C772.193,12.716,770.769,5.524,765.453,1.957z"/>
	<g>
		<path fill="#F9D70B" d="M633.462,219.835L633.462,219.835L633.462,219.835z"/>
		<path fill="#F9D70B" d="M592.232,239.384l-70.147,105.111c-3.555,5.315-2.131,12.508,3.174,16.075
			c1.98,1.319,4.216,1.957,6.439,1.957c3.729,0,7.4-1.795,9.635-5.131l80.988-121.29
			C613.033,237.415,602.899,238.527,592.232,239.384z"/>
		<path fill="#F9D70B" d="M608.088,216.094L608.088,216.094L608.088,216.094z"/>
	</g>
	<path fill="#FBD490" d="M692.584,131.563l33.991-50.969c-5.396-3.509-12.322-7.03-20.893-10.435L659.96,138.65
		C672.398,136.531,683.25,134.146,692.584,131.563z"/>
</g>
</svg>
