<?xml version="1.0" encoding="utf-8"?>
<!-- Generator: Adobe Illustrator 16.0.0, SVG Export Plug-In . SVG Version: 6.00 Build 0)  -->
<!DOCTYPE svg PUBLIC "-//W3C//DTD SVG 1.1//EN" "http://www.w3.org/Graphics/SVG/1.1/DTD/svg11.dtd">
<svg version="1.1" id="Calque_1" xmlns="http://www.w3.org/2000/svg" xmlns:xlink="http://www.w3.org/1999/xlink" x="0px" y="0px"
	 width="145.776px" height="334.074px" viewBox="0 0 145.776 334.074" enable-background="new 0 0 145.776 334.074"
	 xml:space="preserve">
<g id="popsicle3">
	<g id="XMLID_2_">
		<path id="XMLID_10_" fill="#EB9F03" d="M75.397,334.074c-8.732,0-14.5-7.08-14.5-15.815V199.653c0-8.735,5.768-15.813,14.5-15.813
			s14.5,7.078,14.5,15.813v118.605C89.897,326.994,84.129,334.074,75.397,334.074z"/>
	</g>
	<g id="XMLID_8_">
		<path id="XMLID_9_" fill="#FCDC74" d="M72.397,334.074c-8.732,0-15.5-7.08-15.5-15.815V199.653c0-8.735,6.768-15.813,15.5-15.813
			s15.5,7.078,15.5,15.813v118.605C87.897,326.994,81.129,334.074,72.397,334.074z"/>
	</g>
	<g id="XMLID_6_">
		<path id="XMLID_20_" fill="#A9D5B6" d="M137.966,249.073H7.81c-4.411,0-7.945-3.651-7.806-8.061l6.801-214.24
			C7.279,11.851,19.513,0,34.441,0h76.894c14.93,0,27.163,11.851,27.638,26.772l6.799,214.24
			C145.912,245.421,142.378,249.073,137.966,249.073z"/>
		<path id="XMLID_15_" fill="#F6F3BC" d="M137.966,249.073c7.811,1.649,1.104-62.252-0.658-124.679
			c-2.803-99.19-0.825-116.982-25.804-118.464C88.455,4.562,34.441,0,34.441,0h76.894c14.93,0,27.163,11.851,27.638,26.772
			l6.799,214.24C145.912,245.421,142.378,249.073,137.966,249.073z"/>
		<g id="XMLID_17_">
			<path id="XMLID_28_" fill="#5AB888" d="M54.897,41.116v0.159L52.665,213.49c-0.039,2.729-1.075,5.182-2.854,6.959
				c-1.896,1.939-4.531,3.123-7.457,3.002l-7.01-0.274c-5.654-0.199-10.028-4.983-9.711-10.636l9.535-171.979
				c0.276-4.546,3.482-8.183,7.674-9.211c0.869-0.237,1.6-0.355,2.548-0.317C50.846,31.232,54.897,35.7,54.897,41.116z"/>
			<path id="XMLID_29_" fill="#5AB888" d="M120.134,212.542c0.161,2.967-0.988,5.733-2.924,7.671
				c-1.738,1.74-4.111,2.884-6.802,2.964l-7.075,0.274c-5.652,0.198-10.357-4.307-10.437-9.962L90.444,41.275
				c-0.078-4.784,3.164-9.798,7.629-10.904c0.674-0.197,1.385-1.297,2.097-1.297h0.357c5.338,0,9.764,5.132,10.081,10.509
				L120.134,212.542z"/>
		</g>
		<g id="XMLID_14_">
			<path id="XMLID_27_" fill="#F6F3BC" d="M60.897,38.389v0.157l-2.839,172.255c-0.078,4.745-3.555,8.619-7.943,9.647
				c1.778-1.777,2.609-4.231,2.649-6.959l2.133-172.215v-0.159c0-5.417-4.049-9.884-9.505-10.082
				c-0.948-0.039-1.788,0.08-2.658,0.317c1.897-1.937,5.028-3.122,7.994-3.004C56.183,28.505,60.897,32.972,60.897,38.389z"/>
			<path id="XMLID_26_" fill="#A9D5B6" d="M54.897,41.116v0.159L52.665,213.49c-0.039,2.729-1.075,5.182-2.854,6.959
				c-0.868,0.199-1.723,0.317-2.633,0.277l-7.048-0.239c-5.654-0.196-10.029-4.979-9.712-10.633l9.535-172.019
				c0.158-2.53,1.23-4.784,2.891-6.484c0.869-0.237,1.6-0.355,2.548-0.317C50.846,31.232,54.897,35.7,54.897,41.116z"/>
			<path id="XMLID_25_" fill="#F6F3BC" d="M124.919,209.854c0.279,4.981-3.083,9.25-7.709,10.359
				c1.936-1.938,3.085-4.705,2.924-7.671l-9.526-172.959c-0.317-5.377-4.742-10.509-10.081-10.509h-0.357
				c-0.712,0-1.423,1.463-2.097,1.661c1.74-1.779,4.154-1.661,6.882-1.661h0.354c5.338,0,9.766,3.788,10.083,9.125L124.919,209.854z
				"/>
			<path id="XMLID_24_" fill="#A9D5B6" d="M120.134,212.542c0.161,2.967-0.988,5.733-2.924,7.671
				c-0.631,0.155-1.305,0.236-1.977,0.274l-7.075,0.239c-5.655,0.196-10.359-4.27-10.44-9.924L95.227,38.546
				c-0.038-2.807,1.068-6.317,2.846-8.176c0.492-0.5,1.385-1.297,2.097-1.297h0.357c5.338,0,9.764,5.132,10.081,10.509
				L120.134,212.542z"/>
		</g>
	</g>
	<path id="XMLID_12_" opacity="0.4" fill="#5AB888" d="M5.029,81.618L0.004,239.965c-0.14,4.406,3.395,8.109,7.806,8.109h86.526
		C12.81,221.074,5.545,110.185,5.029,81.618z"/>
</g>
</svg>
