<?xml version="1.0" encoding="utf-8"?>
<!-- Generator: Adobe Illustrator 16.0.0, SVG Export Plug-In . SVG Version: 6.00 Build 0)  -->
<!DOCTYPE svg PUBLIC "-//W3C//DTD SVG 1.1//EN" "http://www.w3.org/Graphics/SVG/1.1/DTD/svg11.dtd">
<svg version="1.1" id="DESIGNED_BY_FREEPIK" xmlns="http://www.w3.org/2000/svg" xmlns:xlink="http://www.w3.org/1999/xlink"
	 x="0px" y="0px" width="209.027px" height="179.714px" viewBox="25.798 10.586 209.027 179.714"
	 enable-background="new 25.798 10.586 209.027 179.714" xml:space="preserve">
<path display="none" fill="#FFFFFF" d="M299.185,33.949c2.559,0.006,4.433,1.678,4.438,3.957c0.007,2.392-2.188,4.368-4.819,4.339
	c-2.471-0.027-4.468-1.819-4.481-4.021C294.31,35.861,296.488,33.942,299.185,33.949z M297.449,38.704
	c2.372-0.521,2.48-0.443,3.082,1.529c0.079,0.258,0.542,0.418,0.913,0.684c0.28-1.54-0.701-2.727,0.054-4.087
	c0.43-0.771-0.429-1.454-1.415-1.515c-1.111-0.069-2.231-0.017-3.58-0.017c0,1.725-0.02,3.31,0.021,4.894
	c0.006,0.216,0.301,0.425,0.461,0.638c0.155-0.22,0.408-0.428,0.442-0.664C297.5,39.708,297.449,39.234,297.449,38.704z"/>
<path display="none" fill="#FFFFFF" d="M156.15,1.602c0.816-1.867,3.201-3.788-0.54-5.439c4.204-0.595,6.475,1.002,7.912,5.274
	c1.348-3.229,3.018-5.984,8.023-5.417c-3.363,1.793-1.756,3.64-0.415,5.483c-0.127,0.122-0.259,0.245-0.39,0.367
	c-0.807-0.386-1.622-0.763-2.421-1.16c-2.001-0.986-3.346-0.391-2.723,1.494c0.771,2.339,2.28,4.521,3.756,6.604
	c0.565,0.8,1.603,0.488,1.756-0.688c0.059-0.448,0.091-0.896,0.145-1.456c2.316,0.412,3.136,2.011,3.313,3.617
	c0.188,1.696,1.235,2.091,2.647,2.398c1.136,0.246,2.287,0.452,3.411,0.739c0.482,0.123,1.193,0.315,1.32,0.634
	c0.718,1.808,2.401,2.127,4.274,2.236c-0.025,0.171-0.051,0.342-0.075,0.514c-1.725,0.301-3.446,0.602-5.612,0.979
	c1.395,0.372,2.399,0.639,3.403,0.907c-0.021,0.163-0.044,0.325-0.064,0.487c-3.248-0.281-6.495-0.592-9.746-0.829
	c-1.027-0.075-2.164-0.187-3.1,0.114c-2.205,0.708-4.276,0.564-6.367-0.109c-0.078-0.204-0.16-0.407-0.244-0.611
	c1.761-0.732,3.518-1.464,5.267-2.193c-2.792,0.068-5.651-0.181-6.094-3.913c-0.557,3.431-2.917,4.242-6.011,3.979
	c1.704,0.67,3.411,1.342,5.115,2.014c-0.044,0.213-0.088,0.426-0.13,0.64c-1.962,0.831-3.979,0.804-6.142,0.309
	c-1.183-0.271-2.486-0.221-3.726-0.145c-3.124,0.193-6.243,0.485-9.481,0.339c0.988-0.315,1.977-0.629,3.247-1.032
	c-2.059-0.339-3.757-0.618-5.458-0.898c-0.003-0.154-0.005-0.312-0.01-0.468c0.495-0.117,0.986-0.315,1.483-0.332
	c1.062-0.034,1.782-0.164,2.183-1.338c0.214-0.623,1.408-1.065,2.252-1.388c0.864-0.33,1.832-0.473,2.772-0.589
	c1.708-0.216,2.703-0.872,2.982-2.597c0.341-2.12,1.193-2.831,3.101-3.368c0.109,0.081,0.278,0.146,0.313,0.248
	c0.228,0.704,0.423,1.416,0.63,2.125c0.724-0.47,1.699-0.8,2.122-1.436c1.082-1.631,2.043-3.355,2.782-5.136
	c0.241-0.583-0.112-1.806-0.628-2.098s-1.612,0.129-2.384,0.399c-0.71,0.247-1.332,0.707-1.993,1.072
	C156.457,1.824,156.307,1.713,156.15,1.602z"/>
<path display="none" fill="#FFFFFF" d="M163.595-3.164c-0.761-1.089-1.37-2.166-2.188-3.096c-1.844-2.105-4.261-2.938-7.211-2.434
	c-2.988,0.508-5.128,1.907-5.954,4.67c-1.421,4.762-2.875,9.515-4.172,14.305c-0.549,2.024-1.816,3.26-4.342,4.176
	c2.066-6.904,3.797-13.573,6.113-20.071c1.317-3.694,5.064-5.034,9.119-5.204c3.583-0.151,6.087,1.578,7.821,4.332
	c0.217,0.347,0.42,0.701,0.705,1.181c0.293-0.383,0.551-0.667,0.749-0.981c1.859-2.94,4.47-4.794,8.365-4.512
	c4.468,0.327,7.92,2.155,9.212,6.263c1.935,6.142,3.639,12.341,5.479,18.66c-2.491-0.645-3.359-1.292-3.94-3.202
	c-1.388-4.563-2.653-9.153-4.022-13.72c-1.195-3.996-3.162-5.678-7.138-6.009c-3.812-0.316-6.152,1.648-7.856,4.475
	C164.093-3.936,163.838-3.549,163.595-3.164z"/>
<path display="none" fill="#FFFFFF" d="M171.728,34.159c3.205,2.746,3.674,6.373,1.183,8.682c-2.426,2.25-7.652,2.148-9.987-0.196
	c-2.228-2.235-1.785-5.115,0.724-7.158c-0.565-2.017-1.384-3.782-1.435-5.564c-0.025-0.979,1.023-2.231,1.968-2.939
	c2.271-1.706,6.709-1.282,8.476,0.588C174.566,29.594,174.273,31.947,171.728,34.159z M166.25,36.269
	c-1.819,1.589-2.201,3.707-0.698,5.141c0.688,0.654,1.987,1.066,2.993,1.044c0.688-0.016,1.846-0.933,1.907-1.523
	c0.094-0.913-0.301-2.109-0.97-2.789C168.651,37.299,167.329,36.861,166.25,36.269z M169.585,33.064
	c1.273-1.695,1.197-3.159,0.306-4.548c-0.741-1.15-1.943-1.719-3.308-0.906c-1.353,0.807-1.371,2.119-0.416,3.104
	C167.071,31.65,168.381,32.263,169.585,33.064z"/>
<path display="none" fill="#FFFFFF" d="M155.897,28.908c-2.511,0.133-4.704,0.25-7.104,0.376c0.27-0.797,0.602-1.769,0.941-2.773
	c3.464,0,6.816,0,10.292,0c-1.394,5.803-4.434,11.124-5.232,17.096c-1.234,0-2.677,0-4.359,0
	C152.229,38.774,153.977,34.079,155.897,28.908z"/>
<path display="none" fill="#FFFFFF" d="M138.224,21.67c1.151-0.302,2.299-0.847,3.458-0.867c5.273-0.095,10.552,0.013,15.827-0.071
	c1.806-0.029,3.604-0.401,5.4-0.622c0.283-0.034,0.588-0.19,0.835-0.132c7.159,1.657,14.442,0.352,21.647,0.813
	c1.192,0.075,2.354,0.535,3.528,0.816c-0.048,0.215-0.094,0.431-0.138,0.646c-16.775,0-33.552,0-50.328,0
	C138.38,22.058,138.302,21.864,138.224,21.67z"/>
<path display="none" fill="#FFFFFF" d="M150.189-11.711c0.936-2.935,1.809-5.89,2.825-8.8c0.752-2.149,2.426-3.425,4.929-3.747
	c2.335-0.301,4.323,0.143,5.63,2.243c1.459-2.285,3.653-2.642,6.138-2.164c2.459,0.472,3.918,1.927,4.602,4.093
	c0.878,2.797,1.772,5.591,2.655,8.387c-0.199,0.126-0.403,0.252-0.608,0.38c-0.85-0.965-1.928-1.83-2.495-2.916
	c-0.777-1.49-1.164-3.147-1.716-4.733c-1.501-4.315-4.939-5.137-8.583-2.051c-3.596-3.072-7.096-2.24-8.565,2.042
	c-0.479,1.397-0.766,2.88-1.459,4.182c-0.688,1.291-1.771,2.404-2.681,3.595C150.637-11.371,150.413-11.541,150.189-11.711z"/>
<path display="none" fill="#FFFFFF" d="M176.667,37.273c1.211,0.111,2.431,0.346,3.635,0.302c1.441-0.053,2.846-0.461,2.958-2.089
	c0.113-1.632-1.146-2.156-2.647-2.365c-0.72-0.1-1.446-0.158-2.929-0.316c0.762-0.721,1.144-1.405,1.647-1.494
	c1.411-0.25,3.102-0.289,2.759-2.066c-0.327-1.694-2.068-1.334-3.434-1.264c-0.496,0.025-0.983,0.201-2.029,0.429
	c0.48-0.847,0.641-1.63,1.132-1.907c1.729-0.963,5.782-0.41,7.291,0.846c1.558,1.296,1.326,2.758-0.677,4.36
	c2.521,1.586,3.217,3.146,2.243,5.023c-1.157,2.234-5.098,3.424-8.756,2.482c-0.658-0.17-1.109-1.013-1.657-1.544
	C176.358,37.537,176.512,37.405,176.667,37.273z"/>
<path display="none" fill="#FFFFFF" d="M168.125-5.807c2.796-1.944,6.578-1,7.995,1.819c0.304,0.604,0.517,1.251,0.707,1.892
	c1.384,4.605,2.756,9.217,4.208,14.083c-2.084-0.643-3.199-1.64-3.705-3.335c-1.054-3.538-2.195-7.053-3.349-10.566
	C172.943-5.08,171.95-5.741,168.125-5.807z"/>
<path display="none" fill="#FFFFFF" d="M158.9-5.889c-4.009,0.296-4.727,0.834-5.93,4.559c-1.075,3.322-2.104,6.654-3.178,9.979
	c-0.617,1.913-1.201,2.433-3.713,3.302c1.692-5.456,3.134-10.812,5.058-16.02C152.207-6.973,156.38-7.736,158.9-5.889z"/>
<path display="none" fill="#FFFFFF" d="M145.837,39.149c-1.025,0-2.405,0-3.787,0c0.45-3.35,1.176-6.709-0.381-10.229
	c0.938-0.548,2.359-1.379,4.168-2.438C145.837,30.829,145.837,34.959,145.837,39.149z"/>
<path display="none" fill="#FFFFFF" d="M164.784-19.692c1.454-1.5,3.481-1.502,4.346,0.252c1.118,2.26,1.817,4.692,2.692,7.051
	c-0.28,0.145-0.559,0.29-0.84,0.436c-0.873-1.097-1.854-2.138-2.58-3.31c-0.45-0.728-0.489-1.659-0.765-2.485
	C167.099-19.368,166.727-19.609,164.784-19.692z"/>
<path display="none" fill="#FFFFFF" d="M162.533-19.551c-2.481-0.518-2.781,1.017-3.182,2.433c-0.585,2.063-0.895,4.285-4.068,4.97
	c0.879-2.441,1.56-4.802,2.581-7.031C158.739-21.086,160.757-21.249,162.533-19.551z"/>
<path display="none" fill="#FFFFFF" d="M163.61-10.58c-1.011-0.618-2.019-1.232-3.091-1.89c1.016-1.45,2.016-2.874,3.056-4.36
	c1.033,1.45,2.046,2.874,3.098,4.351C165.624-11.83,164.622-11.208,163.61-10.58z"/>
<path display="none" fill="#FFFFFF" d="M164.627-29.711c2.135-0.468,2.586,0.028,3.398,4.671
	C166.904-26.584,165.779-28.127,164.627-29.711z"/>
<path display="none" fill="#FFFFFF" d="M159.136-24.982c0.702-4.624,1.332-5.327,3.317-4.705
	C161.356-28.133,160.246-26.557,159.136-24.982z"/>
<path display="none" fill="#FFFFFF" d="M164.891-25.268c-0.924-0.043-1.852-0.087-3.352-0.156c1.003-1.026,1.467-1.501,2.022-2.07
	c0.511,0.517,0.976,0.985,1.438,1.455C164.966-25.782,164.928-25.525,164.891-25.268z"/>
<path display="none" fill="#FFFFFF" d="M297.578,36.043c0.791,0,1.454-0.071,2.082,0.03c0.33,0.053,0.849,0.422,0.838,0.631
	c-0.016,0.337-0.328,0.863-0.637,0.947c-0.691,0.188-1.454,0.156-2.283,0.221C297.578,37.218,297.578,36.724,297.578,36.043z"/>
<line fill="none" stroke="#000000" stroke-width="3.3417" stroke-linecap="round" stroke-linejoin="round" stroke-miterlimit="10" x1="32.301" y1="57.151" x2="225.321" y2="57.151"/>
<g>
	<g>
		
			<line fill="none" stroke="#000000" stroke-width="3.3417" stroke-linecap="round" stroke-linejoin="round" stroke-miterlimit="10" x1="34" y1="146.108" x2="101.853" y2="146.108"/>
		
			<line fill="none" stroke="#000000" stroke-width="3.3417" stroke-linecap="round" stroke-linejoin="round" stroke-miterlimit="10" x1="159.166" y1="146.108" x2="227.623" y2="146.108"/>
	</g>
	<g>
		
			<line fill="none" stroke="#000000" stroke-width="3.3417" stroke-linecap="round" stroke-linejoin="round" stroke-miterlimit="10" x1="53.899" y1="155.12" x2="101.853" y2="155.12"/>
		
			<line fill="none" stroke="#000000" stroke-width="3.3417" stroke-linecap="round" stroke-linejoin="round" stroke-miterlimit="10" x1="159.166" y1="155.12" x2="208.791" y2="155.12"/>
	</g>
	<g>
		
			<line fill="none" stroke="#000000" stroke-width="3.3417" stroke-linecap="round" stroke-linejoin="round" stroke-miterlimit="10" x1="73.306" y1="164.253" x2="101.853" y2="164.253"/>
		
			<line fill="none" stroke="#000000" stroke-width="3.3417" stroke-linecap="round" stroke-linejoin="round" stroke-miterlimit="10" x1="159.166" y1="164.253" x2="187.713" y2="164.253"/>
	</g>
</g>
<g>
	
		<path fill="none" stroke="#000000" stroke-width="3.3417" stroke-linecap="round" stroke-linejoin="round" stroke-miterlimit="10" d="
		M141.657,171.073v14.314c0,1.79-1.451,3.241-3.24,3.241h-15.211c-1.79,0-3.241-1.451-3.241-3.241v-14.314
		c0-5.023,2.157-9.809,5.925-13.132l0,0l-0.19-1.146c-0.686-4.109-0.369-8.323,0.921-12.281l0,0h8.381l0,0
		c1.291,3.958,1.607,8.172,0.922,12.281l-0.19,1.146l0,0C139.5,161.264,141.657,166.05,141.657,171.073z"/>
	<g>
		
			<rect x="119.965" y="170.01" fill="none" stroke="#000000" stroke-width="3.3417" stroke-linecap="round" stroke-linejoin="round" stroke-miterlimit="10" width="21.692" height="9.663"/>
		
			<path fill="none" stroke="#000000" stroke-width="3.3417" stroke-linecap="round" stroke-linejoin="round" stroke-miterlimit="10" d="
			M136.068,170.01c0-2.904-2.353-5.258-5.257-5.258l0,0c-2.904,0-5.258,2.354-5.258,5.258"/>
		
			<path fill="none" stroke="#000000" stroke-width="3.3417" stroke-linecap="round" stroke-linejoin="round" stroke-miterlimit="10" d="
			M125.553,179.755c0,2.905,2.354,5.26,5.258,5.26l0,0c2.904,0,5.257-2.354,5.257-5.26"/>
	</g>
	
		<line fill="none" stroke="#000000" stroke-width="3.3417" stroke-linecap="round" stroke-linejoin="round" stroke-miterlimit="10" x1="125.305" y1="144.513" x2="136.316" y2="144.513"/>
	
		<rect x="126.62" y="140.57" fill="none" stroke="#000000" stroke-width="3.3417" stroke-linecap="round" stroke-linejoin="round" stroke-miterlimit="10" width="8.381" height="3.943"/>
</g>
<g>
	<path d="M58.652,94.079c0.2,0,0.36,0.021,0.48,0.06c0.08-0.36,0.169-0.709,0.27-1.05c0.099-0.339,0.21-0.69,0.33-1.05
		c0.92-3,1.82-5.919,2.7-8.76c0.879-2.84,1.729-5.469,2.55-7.89c0.82-2.419,1.59-4.56,2.31-6.42c0.72-1.86,1.4-3.29,2.04-4.29
		c0.48-0.8,1.08-1.38,1.8-1.74c0.72-0.36,1.399-0.54,2.04-0.54c0.639,0,1.1,0.19,1.38,0.57c0.279,0.381,0.2,0.91-0.24,1.59
		c-0.44,0.641-0.92,1.59-1.44,2.85c-0.52,1.26-1.07,2.751-1.65,4.47c-0.581,1.72-1.18,3.621-1.8,5.7
		c-0.621,2.081-1.251,4.26-1.89,6.54c-0.96,3.521-1.93,7.131-2.91,10.83c-0.98,3.7-1.911,7.271-2.79,10.71
		c-0.72,2.761-1.39,5.331-2.01,7.71c-0.621,2.381-1.17,4.431-1.65,6.15c-0.4,1.399-0.73,2.529-0.99,3.39
		c-0.261,0.86-0.471,1.39-0.63,1.591c-0.48,0.68-1.2,1.189-2.16,1.529s-1.9,0.51-2.82,0.51c-1.041,0-1.881-0.23-2.52-0.689
		c-0.641-0.461-0.76-1.11-0.36-1.95c0.72-1.48,1.479-3.24,2.28-5.28c0.8-2.04,1.61-4.26,2.43-6.66c0.819-2.4,1.65-4.92,2.49-7.56
		c0.84-2.64,1.68-5.3,2.52-7.98h-0.24c-0.6,0-1.36,0.081-2.28,0.24c-0.92,0.161-1.95,0.371-3.09,0.63
		c-1.14,0.261-2.37,0.581-3.69,0.96c-1.32,0.38-2.661,0.771-4.02,1.17c-0.88,3.12-1.75,6.13-2.61,9.03
		c-0.86,2.9-1.65,5.49-2.37,7.77c-0.72,2.281-1.331,4.161-1.83,5.641c-0.5,1.479-0.851,2.359-1.05,2.641
		c-0.561,0.759-1.33,1.339-2.31,1.739c-0.981,0.399-1.871,0.601-2.67,0.601c-0.8,0-1.4-0.191-1.8-0.57c-0.4-0.381-0.4-0.971,0-1.77
		c0.639-1.241,1.299-2.701,1.98-4.381c0.68-1.68,1.359-3.51,2.04-5.49c0.68-1.979,1.359-4.08,2.04-6.3
		c0.68-2.22,1.359-4.489,2.04-6.81c-2.361,0.8-4.45,1.56-6.27,2.28c-1.821,0.72-3.07,1.24-3.75,1.56c-1.08,0.561-1.84,0.76-2.28,0.6
		c-0.44-0.16-0.561-0.549-0.36-1.17c0.2-0.62,0.72-1.419,1.56-2.4c0.84-0.979,2-2.03,3.48-3.15c0.879-0.439,2.12-0.89,3.72-1.35
		c1.599-0.459,3.36-0.909,5.28-1.35l0.12-0.36c0.68-2.479,1.35-4.939,2.01-7.38c0.66-2.439,1.29-4.8,1.89-7.08
		c0.52-1.839,1.01-3.66,1.47-5.46c0.459-1.8,0.89-3.399,1.29-4.8c0.44-1.479,0.83-2.79,1.17-3.93c0.339-1.14,0.649-2.049,0.93-2.73
		c0.279-0.759,0.669-1.33,1.17-1.71c0.5-0.38,1.03-0.57,1.59-0.57c0.639,0,1.16,0.27,1.56,0.81c0.399,0.54,0.56,1.391,0.48,2.55
		c-0.081,0.8-0.33,2.16-0.75,4.08c-0.42,1.92-0.96,4.2-1.62,6.84s-1.41,5.541-2.25,8.7c-0.84,3.16-1.72,6.36-2.64,9.6l-0.12,0.3
		c2.52-0.399,4.89-0.72,7.11-0.96C55.562,94.199,57.332,94.079,58.652,94.079z"/>
	<path d="M92.132,90.899c0.199-1.04,0.729-1.75,1.59-2.13c0.859-0.38,1.77-0.57,2.73-0.57c0.68,0,1.299,0.081,1.86,0.24
		c0.56,0.16,0.939,0.36,1.14,0.6l0.06-0.06c0.24,0.32,0.12,1.38-0.36,3.18c-0.28,1-0.67,2.211-1.17,3.63
		c-0.5,1.42-1.07,2.97-1.71,4.65c-0.64,1.68-1.36,3.46-2.16,5.34c-0.801,1.881-1.641,3.801-2.52,5.76
		c3.039-2.64,5.88-5.25,8.52-7.83c2.64-2.58,4.759-4.97,6.36-7.17c0.12-0.199,0.39-0.319,0.81-0.36c0.42-0.039,0.83,0,1.23,0.12
		c0.399,0.12,0.71,0.31,0.93,0.57c0.22,0.261,0.21,0.591-0.03,0.99c-1.079,1.641-2.42,3.351-4.02,5.13
		c-1.6,1.78-3.34,3.57-5.22,5.37c-1.88,1.8-3.85,3.59-5.91,5.37c-2.061,1.78-4.071,3.47-6.03,5.069c-1,2.041-2.01,4.021-3.03,5.94
		s-2.031,3.72-3.03,5.399c-1,1.681-1.98,3.181-2.94,4.5c-0.96,1.32-1.86,2.4-2.7,3.24c-1.48,1.479-2.91,2.551-4.29,3.21
		c-1.38,0.66-2.61,0.99-3.69,0.99c-1.359,0-2.36-0.46-3-1.38c-0.64-0.921-0.74-2.141-0.3-3.66c0.161-0.561,0.371-1.131,0.63-1.71
		c0.26-0.58,0.61-1.19,1.05-1.829v0.059c0.48-0.68,1.2-1.51,2.16-2.489c0.96-0.98,2.079-2.05,3.36-3.21
		c1.28-1.16,2.689-2.391,4.23-3.689c1.54-1.301,3.129-2.631,4.77-3.99l0.66-0.541c1.04-2.52,2.029-5.059,2.97-7.619
		c0.939-2.56,1.81-5.02,2.61-7.38c-1.08,1.48-2.271,3.01-3.57,4.59c-1.3,1.581-2.62,3.04-3.96,4.38c-1.341,1.34-2.64,2.46-3.9,3.359
		c-1.26,0.9-2.391,1.391-3.39,1.471c-2.16-0.039-3.48-0.75-3.96-2.131c-0.48-1.379-0.42-3.109,0.18-5.189
		c0.319-1.119,0.699-2.27,1.14-3.45c0.44-1.18,0.9-2.35,1.38-3.51c0.48-1.16,0.939-2.31,1.38-3.45c0.439-1.14,0.8-2.19,1.08-3.15
		c0.2-0.799,0.339-1.52,0.42-2.16c0.08-0.64,0.08-1.2,0-1.68c-0.12-0.399-0.07-0.75,0.15-1.05c0.219-0.3,0.54-0.549,0.96-0.75
		c0.42-0.2,0.89-0.36,1.41-0.48c0.519-0.12,1.059-0.18,1.62-0.18c0.919,0,1.74,0.17,2.46,0.51c0.72,0.34,0.999,0.85,0.84,1.53
		c0,1.041-0.18,2.121-0.54,3.24c-0.44,1.641-1.061,3.36-1.86,5.16c-0.801,1.8-1.601,3.561-2.4,5.28c-0.681,1.4-1.29,2.69-1.83,3.87
		s-0.911,2.17-1.11,2.97c-0.16,0.521-0.22,0.94-0.18,1.26c0.039,0.321,0.159,0.479,0.36,0.479c0.24-0.079,0.74-0.51,1.5-1.289
		c0.759-0.78,1.67-1.779,2.73-3c1.06-1.22,2.199-2.6,3.42-4.14c1.22-1.54,2.41-3.09,3.57-4.65c1.16-1.56,2.229-3.08,3.21-4.56
		c0.979-1.479,1.77-2.76,2.37-3.84c0.32-0.919,0.55-1.659,0.69-2.22C92.001,91.3,92.091,90.98,92.132,90.899z M70.831,139.319
		c1.32-0.96,2.69-2.601,4.11-4.92c1.419-2.32,2.85-5.021,4.29-8.101c-2.84,2.4-5.24,4.65-7.2,6.75c-1.96,2.101-3.12,3.95-3.48,5.551
		c-0.041,0.319-0.081,0.68-0.12,1.08c-0.041,0.399,0.099,0.6,0.42,0.6c0.2,0,0.45-0.07,0.75-0.21
		C69.901,139.928,70.311,139.679,70.831,139.319z"/>
	<path d="M125.551,89.519c1.64,0.12,2.979,0.49,4.021,1.11c1.039,0.621,1.819,1.431,2.34,2.43c0.52,1,0.789,2.141,0.81,3.42
		c0.021,1.28-0.17,2.64-0.569,4.08l-0.84,2.34c1.199-0.52,2.319-1.16,3.359-1.92c1.04-0.76,1.92-1.7,2.641-2.82
		c0.279-0.439,0.68-0.759,1.199-0.96c0.52-0.2,1-0.3,1.44-0.3c0.52,0,0.909,0.12,1.17,0.36c0.26,0.24,0.229,0.64-0.09,1.2
		c-1.4,2.16-3.12,3.86-5.16,5.1c-2.04,1.241-4.2,2.261-6.479,3.06c-0.841,1.32-1.821,2.601-2.94,3.84
		c-1.12,1.24-2.331,2.34-3.63,3.301c-1.301,0.959-2.67,1.77-4.11,2.43c-1.439,0.66-2.92,1.09-4.439,1.29
		c-0.801,0.12-1.5,0.18-2.101,0.18c-1.28,0-2.279-0.18-3-0.54c-0.6,3.521-0.97,6.949-1.109,10.29
		c-0.141,3.339,0.129,6.29,0.81,8.851c0.2,0.799,0.09,1.43-0.33,1.89s-1.011,0.689-1.77,0.689c-0.48,0-1.03-0.149-1.65-0.45
		c-0.621-0.299-1.15-0.67-1.59-1.109c-0.879-1.041-1.39-2.711-1.53-5.01c-0.14-2.301-0.039-4.91,0.3-7.83
		c0.34-2.92,0.859-6.01,1.56-9.27c0.699-3.26,1.449-6.391,2.25-9.391c0.56-2,1.13-3.89,1.71-5.67c0.579-1.779,1.119-3.37,1.62-4.77
		c0.499-1.4,0.93-2.56,1.29-3.48c0.359-0.92,0.639-1.5,0.84-1.74c0.479-0.639,1.039-1.119,1.68-1.44c0.64-0.32,1.22-0.48,1.74-0.48
		c0.68,0,1.189,0.27,1.53,0.81c0.339,0.54,0.289,1.35-0.15,2.43l-0.9,2.34c1.08-1.16,2.46-2.199,4.141-3.12
		C121.291,89.74,123.271,89.36,125.551,89.519z M111.93,104.939c-0.2,0.6-0.37,1.221-0.51,1.86c-0.141,0.64-0.311,1.281-0.51,1.919
		c1.32-0.879,2.899-1.539,4.74-1.979c1.839-0.439,3.779-0.86,5.819-1.26c0.601-0.08,1.2-0.17,1.801-0.27
		c0.6-0.1,1.199-0.23,1.8-0.39l0.24-0.48c0.199-0.48,0.379-0.95,0.54-1.41c0.159-0.459,0.3-0.909,0.42-1.35
		c0.759-2.64,0.81-4.74,0.149-6.3s-2.069-2.24-4.229-2.04c-0.921,0.081-1.811,0.411-2.67,0.99c-0.861,0.58-1.661,1.26-2.4,2.04
		c-0.74,0.78-1.42,1.59-2.04,2.43s-1.131,1.581-1.53,2.22l-0.84,1.2L111.93,104.939z M115.411,114.359
		c1.279-0.32,2.569-1.07,3.87-2.25c1.299-1.18,2.47-2.43,3.51-3.75l-1.68,0.359c-1.2,0.24-2.331,0.48-3.391,0.721
		s-2,0.52-2.819,0.84c-0.82,0.32-1.5,0.681-2.04,1.08c-0.54,0.4-0.87,0.86-0.99,1.38c-0.12,0.44-0.04,0.86,0.24,1.261
		c0.279,0.399,0.84,0.6,1.68,0.6c0.2,0,0.439-0.02,0.72-0.061C114.79,114.5,115.091,114.439,115.411,114.359z"/>
	<path d="M152.551,81.359c1.16-0.32,1.88-0.27,2.16,0.15c0.279,0.42,0.319,0.951,0.12,1.59c-0.28,0.921-0.72,1.661-1.32,2.22
		c-0.24,0.201-0.57,0.51-0.99,0.93c-0.42,0.42-0.87,0.98-1.35,1.68c-0.48,0.7-0.96,1.53-1.44,2.49c-0.479,0.96-0.899,2.061-1.26,3.3
		c-0.2,0.76-0.381,1.57-0.54,2.43c-0.16,0.86-0.261,1.791-0.3,2.79l0.66,9.6c1.8-1.359,3.699-2.899,5.7-4.62
		c1.999-1.72,3.779-3.48,5.34-5.28c0.399-0.48,0.789-0.819,1.17-1.02c0.38-0.2,0.68-0.249,0.899-0.15
		c0.22,0.101,0.33,0.34,0.33,0.72c0,0.38-0.16,0.891-0.479,1.53c-0.681,1.041-1.47,2.05-2.37,3.03c-0.9,0.98-1.86,1.94-2.88,2.88
		c-1.021,0.94-2.07,1.851-3.15,2.73c-1.08,0.881-2.12,1.701-3.12,2.46l-1.199,0.899c0.079,1.48,0.149,2.801,0.21,3.961
		c0.06,1.16,0.069,1.96,0.029,2.399c-0.04,0.479-0.11,0.95-0.21,1.41s-0.19,0.891-0.27,1.29c-0.32,1.119-0.73,2.049-1.23,2.79
		c-0.5,0.739-1.07,1.34-1.71,1.8c-0.64,0.459-1.319,0.78-2.04,0.96c-0.72,0.181-1.439,0.271-2.16,0.271
		c-2.36,0.08-3.93-0.352-4.71-1.291c-0.779-0.939-0.949-2.229-0.51-3.869c0.2-0.68,0.48-1.381,0.84-2.1
		c0.68-1.24,1.561-2.42,2.641-3.541c1.08-1.119,2.319-2.22,3.72-3.299c-0.081-1.24-0.18-2.461-0.3-3.66
		c-0.12-1.201-0.251-2.34-0.391-3.42c-0.141-1.08-0.27-2.049-0.39-2.91c-0.12-0.86-0.24-1.55-0.36-2.07
		c-0.04-0.32-0.08-0.6-0.119-0.84c-0.041-0.24-0.041-0.319,0-0.24c0.039-1.959,0.319-3.819,0.84-5.58c0.6-2.12,1.419-3.95,2.46-5.49
		c1.039-1.539,2.09-2.799,3.149-3.78c1.06-0.979,2.011-1.729,2.851-2.25c0.84-0.52,1.359-0.819,1.56-0.9H152.551z M142.591,121.619
		c0.2-0.72,0.35-1.539,0.45-2.46c0.1-0.919,0.17-1.899,0.21-2.94c-0.561,0.561-1.061,1.131-1.5,1.711
		c-0.44,0.58-0.801,1.17-1.08,1.77c-0.28,0.521-0.521,1-0.72,1.439c-0.201,0.44-0.341,0.82-0.42,1.141
		c-0.161,0.56-0.221,1-0.181,1.32c0.04,0.319,0.13,0.56,0.271,0.72c0.14,0.159,0.3,0.249,0.479,0.271
		c0.181,0.02,0.37-0.011,0.57-0.09c0.479-0.161,0.87-0.48,1.17-0.961S142.39,122.419,142.591,121.619z"/>
	<path d="M158.49,75.059c0.64,0.201,1.46,0.33,2.46,0.39c0.999,0.06,2.14,0.09,3.42,0.09c2.12,0,4.5-0.06,7.14-0.18l2.82-7.02
		c0.08-0.24,0.159-0.45,0.24-0.63c0.08-0.18,0.12-0.25,0.12-0.21c0.039-0.2,0.18-0.42,0.42-0.66c0.24-0.24,0.529-0.459,0.87-0.66
		c0.339-0.2,0.689-0.369,1.05-0.51c0.36-0.14,0.72-0.21,1.08-0.21c0.479,0,0.87,0.141,1.17,0.42c0.3,0.28,0.409,0.8,0.33,1.56
		c-0.12,0.84-0.4,2.061-0.84,3.66c-0.201,0.561-0.391,1.17-0.57,1.83c-0.18,0.66-0.39,1.35-0.63,2.07
		c0.999-0.08,1.979-0.15,2.939-0.21c0.961-0.06,1.921-0.129,2.881-0.21c1.399-0.12,2.46-0.2,3.18-0.24
		c0.72-0.04,1.31-0.06,1.77-0.06s0.9,0.01,1.32,0.03c0.42,0.021,1.05,0.03,1.89,0.03c1.479,0,2.56,0.12,3.24,0.36
		c0.36,0.16,0.57,0.411,0.63,0.75c0.061,0.34,0,0.67-0.18,0.99c-0.18,0.32-0.46,0.58-0.84,0.78c-0.381,0.201-0.851,0.24-1.41,0.12
		c-0.48-0.08-1.05-0.15-1.71-0.21s-1.35-0.09-2.07-0.09c-1.04,0-1.851,0-2.43,0c-0.58,0-1.17,0.021-1.771,0.06
		c-0.6,0.041-1.319,0.101-2.159,0.18c-0.841,0.081-2.021,0.18-3.54,0.3c-0.441,0.081-0.881,0.13-1.32,0.15
		c-0.44,0.021-0.88,0.05-1.32,0.09c-0.44,1.36-0.891,2.79-1.35,4.29c-0.46,1.5-0.951,3.01-1.47,4.53
		c-1.161,3.4-2.291,6.81-3.391,10.23c-1.101,3.42-2.05,6.55-2.85,9.39c-0.4,1.48-0.75,2.82-1.05,4.02
		c-0.301,1.2-0.531,2.24-0.69,3.12c-0.16,0.88-0.23,1.55-0.21,2.01c0.02,0.46,0.15,0.671,0.39,0.63c0.32-0.039,0.74-0.35,1.261-0.93
		c0.52-0.58,1.1-1.31,1.739-2.189s1.3-1.87,1.98-2.971c0.68-1.1,1.34-2.199,1.979-3.3c0.64-1.1,1.25-2.15,1.83-3.15
		c0.58-1,1.07-1.86,1.471-2.58l0.96-1.68c0.159-0.279,0.45-0.459,0.87-0.54c0.42-0.08,0.81-0.08,1.17,0
		c0.359,0.081,0.649,0.22,0.87,0.42c0.219,0.201,0.249,0.42,0.09,0.66c-0.041,0.081-0.12,0.22-0.24,0.42
		c-0.12,0.201-0.24,0.46-0.36,0.78c-0.359,0.76-0.83,1.71-1.41,2.85c-0.58,1.14-1.25,2.37-2.01,3.69s-1.6,2.631-2.52,3.93
		c-0.921,1.301-1.9,2.471-2.94,3.51c-1.04,1.041-2.13,1.881-3.27,2.521c-1.141,0.64-2.291,0.94-3.45,0.899
		c-1.161-0.039-1.98-0.59-2.46-1.649c-0.48-1.06-0.711-2.479-0.69-4.261c0.02-1.779,0.271-3.84,0.75-6.18
		c0.48-2.34,1.08-4.809,1.801-7.41c0.96-3.48,2.06-7.01,3.3-10.59c1.239-3.579,2.439-6.89,3.6-9.93c-3.08,0.24-5.82,0.36-8.22,0.36
		c-1.12,0-2.101-0.02-2.94-0.06c-0.84-0.039-1.56-0.159-2.16-0.36h0.061c-0.84-0.2-1.43-0.52-1.771-0.96
		c-0.339-0.44-0.449-0.86-0.33-1.26c0.12-0.439,0.471-0.78,1.051-1.02C156.64,74.819,157.45,74.819,158.49,75.059z"/>
	<path d="M195.329,88.679c2.12,0,3.68,0.351,4.68,1.05c1,0.7,1.65,1.521,1.95,2.46c0.3,0.94,0.36,1.88,0.18,2.82
		c-0.18,0.94-0.37,1.65-0.569,2.13c-0.96,2.241-2.081,4.08-3.36,5.52c-1.28,1.44-2.59,2.561-3.93,3.36
		c-1.341,0.8-2.67,1.35-3.99,1.65c-1.32,0.3-2.52,0.45-3.6,0.45c-0.96,0-1.761-0.06-2.4-0.18l-0.06,0.359
		c-0.36,1.281-0.621,2.49-0.78,3.631c-0.16,1.14-0.19,2.129-0.09,2.97c0.099,0.84,0.319,1.521,0.66,2.04
		c0.339,0.52,0.849,0.779,1.529,0.779c1.44-0.079,2.859-0.439,4.26-1.08c1.4-0.639,2.74-1.459,4.021-2.459
		c1.279-1,2.51-2.109,3.69-3.33c1.179-1.221,2.25-2.439,3.21-3.66c0.96-1.22,1.819-2.379,2.579-3.48c0.76-1.1,1.381-2.01,1.86-2.73
		l0.78-1.2c0.24-0.24,0.57-0.45,0.99-0.63c0.42-0.18,0.81-0.26,1.17-0.24c0.359,0.021,0.63,0.15,0.81,0.39
		c0.18,0.24,0.17,0.621-0.03,1.14c-0.239,0.6-0.75,1.54-1.529,2.82c-0.78,1.281-1.761,2.7-2.94,4.26c-1.181,1.56-2.53,3.16-4.05,4.8
		c-1.521,1.641-3.131,3.13-4.83,4.47c-1.7,1.341-3.471,2.43-5.31,3.27c-1.841,0.841-3.681,1.24-5.521,1.201
		c-1.68-0.041-3.04-0.321-4.08-0.84c-1.04-0.52-1.859-1.18-2.46-1.98c-0.6-0.8-1.02-1.689-1.26-2.67s-0.37-1.92-0.39-2.82
		c-0.021-0.9,0.029-1.699,0.149-2.4c0.12-0.699,0.22-1.209,0.3-1.529l0.12-0.48c0.159-0.56,0.43-1.44,0.811-2.64
		c0.379-1.2,0.899-2.54,1.56-4.02c0.66-1.479,1.47-3,2.43-4.56s2.09-2.979,3.391-4.26c1.299-1.279,2.779-2.33,4.439-3.15
		C191.379,89.09,193.249,88.679,195.329,88.679z M195.689,91.739c-1.001,0.16-2.011,0.69-3.03,1.59c-1.021,0.9-2.01,2.01-2.97,3.33
		c-0.96,1.32-1.851,2.8-2.67,4.44c-0.82,1.641-1.53,3.3-2.131,4.98c0.2,0,0.391,0.011,0.57,0.03c0.18,0.021,0.41,0.03,0.69,0.03
		c0.72,0,1.55-0.12,2.489-0.36s1.891-0.69,2.851-1.35c0.96-0.66,1.88-1.56,2.76-2.7c0.88-1.14,1.62-2.589,2.22-4.35
		c0.16-0.6,0.29-1.22,0.391-1.86c0.099-0.64,0.129-1.24,0.09-1.8c-0.04-0.56-0.16-1.029-0.36-1.41
		C196.388,91.929,196.089,91.739,195.689,91.739z"/>
	<path d="M230.848,90.659c0.64-0.279,1.229-0.379,1.77-0.3c0.54,0.081,0.98,0.25,1.32,0.51c0.34,0.261,0.59,0.57,0.75,0.93
		c0.159,0.36,0.18,0.681,0.061,0.96c-0.041,0.201-0.15,0.45-0.33,0.75c-0.181,0.3-0.371,0.67-0.57,1.11
		c-0.36,0.681-0.79,1.491-1.29,2.43c-0.501,0.94-0.98,1.9-1.44,2.88c-0.46,0.981-0.86,1.911-1.199,2.79
		c-0.341,0.88-0.531,1.62-0.57,2.22c-0.04,0.32-0.051,0.61-0.03,0.87c0.02,0.261,0.03,0.531,0.03,0.81
		c-0.04,0.321-0.061,0.641-0.061,0.96c0,0.321-0.04,0.581-0.119,0.78c-0.161,0.6-0.49,0.96-0.99,1.08
		c-0.501,0.119-1.29-0.039-2.37-0.48c-0.88-0.359-1.371-1.25-1.47-2.67c-0.101-1.419,0.09-3.009,0.569-4.77
		c0.16-0.52,0.32-1.02,0.48-1.5c0.159-0.48,0.339-0.96,0.54-1.44c-1.24,1.08-2.421,2.301-3.54,3.66c-1.12,1.36-2.171,2.75-3.15,4.17
		c-0.98,1.42-1.88,2.831-2.7,4.229c-0.82,1.401-1.529,2.661-2.13,3.781c0,0.039-0.01,0.08-0.029,0.119
		c-0.021,0.041-0.03,0.081-0.03,0.12c-0.561,2.12-1.061,3.46-1.5,4.021c-0.48,0.68-1.021,1.19-1.62,1.529
		c-0.6,0.341-1.2,0.51-1.8,0.51c-0.641,0-1.17-0.199-1.59-0.6c-0.42-0.399-0.651-0.999-0.69-1.8c0-0.399,0.069-1.08,0.21-2.04
		c0.14-0.96,0.35-2.07,0.63-3.33c0.279-1.26,0.601-2.629,0.96-4.109c0.36-1.48,0.76-2.98,1.2-4.5c0.399-1.4,0.8-2.77,1.2-4.11
		c0.399-1.34,0.789-2.56,1.17-3.66c0.38-1.1,0.739-2.03,1.08-2.79c0.339-0.759,0.63-1.299,0.87-1.62
		c0.479-0.68,1.039-1.17,1.68-1.47c0.64-0.3,1.22-0.45,1.74-0.45c0.64,0,1.14,0.27,1.5,0.81s0.319,1.33-0.12,2.37
		c-0.2,0.64-0.45,1.66-0.75,3.06c-0.3,1.4-0.61,2.82-0.93,4.26c-0.201,0.921-0.4,1.86-0.601,2.82c-0.2,0.96-0.42,1.941-0.66,2.94
		c0.88-1.56,1.851-3.15,2.91-4.77c1.06-1.62,2.199-3.15,3.42-4.59c1.22-1.44,2.521-2.73,3.9-3.87
		C227.938,92.129,229.368,91.259,230.848,90.659z"/>
</g>
<g>
	<g>
		<path d="M50.066,44.501c0.18,0.385,0.186,0.753,0.018,1.109c-0.167,0.356-0.467,0.622-0.902,0.799
			c-2.338,0.951-3.501,1.444-5.814,2.468c-0.432,0.191-0.847,0.23-1.246,0.114c-0.398-0.116-0.698-0.361-0.898-0.737
			c-3.288-6.186-4.933-9.279-8.22-15.465c-0.2-0.376-0.211-0.752-0.036-1.125c0.175-0.374,0.503-0.667,0.982-0.879
			c2.564-1.134,3.854-1.682,6.446-2.736c0.482-0.196,0.938-0.235,1.363-0.116c0.426,0.119,0.727,0.371,0.906,0.755
			C45.625,35.012,47.105,38.176,50.066,44.501z M48.127,45.115c-2.976-6.185-4.463-9.277-7.439-15.462
			c-2.249,0.919-3.366,1.393-5.593,2.373c3.162,6.105,4.742,9.159,7.904,15.264C45.041,46.392,46.066,45.958,48.127,45.115z"/>
		<path d="M65.865,40.429c-0.8,0.25-1.199,0.376-1.997,0.634c-3.131-3.544-4.741-5.293-8.047-8.743
			c0.055-0.172,0.083-0.259,0.138-0.431c1.43-0.491,2.146-0.729,3.583-1.196c-1.063-2.787-1.596-4.181-2.659-6.968
			c-2.146,0.696-3.215,1.059-5.346,1.808c2.857,6.912,4.285,10.367,7.143,17.278c-0.754,0.265-1.13,0.399-1.882,0.672
			c-3.184-7.472-4.773-11.209-7.957-18.681c3.143-1.138,4.723-1.677,7.9-2.701c0.494-0.159,0.947-0.164,1.353-0.012
			c0.405,0.151,0.681,0.426,0.827,0.822c1.065,2.884,1.599,4.327,2.664,7.211c0.338,0.915-0.225,1.598-1.681,2.071
			c-0.144,0.047-0.356,0.109-0.639,0.188c-0.282,0.079-0.607,0.176-0.608,0.181C58.523,33.099,63.524,37.766,65.865,40.429z"/>
		<path d="M73.574,38.185c-0.77,0.208-1.154,0.314-1.921,0.53c-2.538-7.68-3.805-11.521-6.343-19.2
			c0.851-0.239,1.277-0.356,2.13-0.587C69.895,26.631,71.12,30.483,73.574,38.185z"/>
		<path d="M88.585,33.241c0.093,0.41,0.023,0.772-0.208,1.088c-0.23,0.316-0.574,0.519-1.032,0.611
			c-2.307,0.463-3.458,0.712-5.752,1.239c-0.456,0.105-0.862,0.063-1.222-0.125c-0.359-0.189-0.599-0.486-0.712-0.892
			c-1.865-6.671-2.795-10.006-4.66-16.677c-0.113-0.405-0.046-0.775,0.201-1.107c0.248-0.332,0.626-0.557,1.132-0.673
			c2.543-0.584,3.82-0.858,6.377-1.372c0.508-0.102,0.953-0.055,1.333,0.142c0.381,0.197,0.616,0.501,0.709,0.911
			c0.416,1.828,0.624,2.742,1.04,4.569c-0.846,0.164-1.269,0.248-2.113,0.419c-0.421-1.763-0.631-2.646-1.052-4.41
			c-2.186,0.443-3.277,0.678-5.453,1.173c1.76,6.569,2.64,9.853,4.4,16.42c1.994-0.454,2.995-0.668,4.999-1.075
			c-0.647-2.71-0.972-4.066-1.62-6.776c-0.98,0.199-1.469,0.301-2.447,0.511c-0.151-0.6-0.227-0.898-0.378-1.498
			c1.812-0.389,2.72-0.574,4.539-0.926C87.432,28.173,87.816,29.863,88.585,33.241z"/>
		<path d="M97.356,33.174c-0.786,0.12-1.178,0.182-1.963,0.309c-1.506-7.908-2.257-11.86-3.763-19.768
			c0.87-0.141,1.307-0.208,2.178-0.341C95.228,21.295,95.936,25.253,97.356,33.174z"/>
		<path d="M113.126,31.363c-0.547,0.042-0.819,0.064-1.366,0.11c-2.965-5.679-4.542-8.494-7.88-14.067
			c0.774,5.86,1.16,8.791,1.935,14.652c-0.745,0.083-1.116,0.126-1.86,0.216c-1.134-7.96-1.698-11.939-2.832-19.899
			c0.655-0.079,0.981-0.117,1.636-0.191c3.354,5.464,4.941,8.224,7.936,13.792c-0.589-5.776-0.882-8.664-1.472-14.44
			c0.827-0.072,1.239-0.106,2.066-0.17C112.023,19.364,112.391,23.363,113.126,31.363z"/>
		<path d="M128.618,30.71c-0.788,0.005-1.183,0.009-1.971,0.021c-0.347-1.78-0.522-2.669-0.885-4.448
			c-1.82,0.035-2.73,0.062-4.549,0.133c-0.238,1.796-0.354,2.694-0.577,4.49c-0.765,0.033-1.147,0.051-1.912,0.091
			c-0.001-0.021-0.001-0.029-0.002-0.049c1.101-8.098,1.737-12.146,3.187-20.228c0.868-0.029,1.303-0.041,2.171-0.063
			C126.068,18.661,126.974,22.673,128.618,30.71z M125.46,24.711c-0.912-4.332-1.39-6.495-2.394-10.817
			c-0.711,4.373-1.043,6.56-1.661,10.937C123.027,24.768,123.838,24.743,125.46,24.711z"/>
		<path d="M141.367,31.002c-2.854-0.149-4.28-0.2-7.137-0.256c0.183-8.026,0.272-12.038,0.456-20.064
			c0.88,0.017,1.321,0.028,2.201,0.053c-0.249,7.393-0.371,11.088-0.619,18.481c2.079,0.06,3.12,0.102,5.197,0.211
			C141.427,30.057,141.406,30.372,141.367,31.002z"/>
		<path d="M165.423,29.927c-0.199,1.044-0.751,1.836-1.646,2.386c-0.896,0.549-1.922,0.737-3.093,0.57
			c-2.026-0.29-3.043-0.424-5.075-0.665c1.112-7.961,1.667-11.943,2.781-19.904c2.254,0.268,3.378,0.416,5.625,0.736
			c1.308,0.187,2.33,0.686,3.048,1.488c0.717,0.802,0.967,1.729,0.768,2.772C166.865,22.357,166.385,24.881,165.423,29.927z
			 M163.452,29.435c0.886-4.924,1.33-7.386,2.217-12.309c0.117-0.649-0.04-1.214-0.471-1.689s-1.049-0.771-1.849-0.884
			c-1.202-0.169-1.804-0.251-3.008-0.406c-1.012,6.701-1.515,10.053-2.524,16.754c1.059,0.136,1.588,0.206,2.645,0.354
			c0.771,0.108,1.428,0.003,1.979-0.317C162.99,30.617,163.329,30.118,163.452,29.435z"/>
		<path d="M180.38,36.638c-0.813-0.195-1.222-0.291-2.037-0.478c-0.499-4.544-0.798-6.819-1.493-11.372
			c0.147-0.117,0.221-0.175,0.368-0.292c1.474,0.31,2.21,0.47,3.679,0.804c0.768-2.868,1.15-4.301,1.919-7.169
			c-2.193-0.5-3.294-0.736-5.498-1.183c-1.725,7.224-2.585,10.836-4.308,18.06c-0.78-0.158-1.168-0.235-1.949-0.386
			c1.784-7.857,2.675-11.787,4.461-19.644c3.266,0.63,4.894,0.974,8.138,1.719c0.505,0.116,0.883,0.341,1.131,0.673
			c0.247,0.332,0.314,0.701,0.201,1.106c-0.824,2.951-1.238,4.426-2.063,7.377c-0.262,0.936-1.133,1.223-2.621,0.886
			c-0.147-0.033-0.362-0.088-0.644-0.164c-0.28-0.076-0.605-0.163-0.612-0.157C178.61,26.832,180.011,33.229,180.38,36.638z"/>
		<path d="M188.144,38.653c-0.768-0.215-1.153-0.321-1.923-0.528c2.444-7.705,3.667-11.558,6.112-19.263
			c0.854,0.23,1.278,0.348,2.13,0.586C191.935,27.13,190.673,30.971,188.144,38.653z"/>
		<path d="M203.33,43.523c-0.519-0.188-0.779-0.282-1.299-0.467c0.038-6.314-0.038-9.488-0.384-15.857
			c-2.121,5.57-3.183,8.356-5.305,13.926c-0.716-0.232-1.073-0.345-1.791-0.571c2.807-7.599,4.209-11.4,7.016-18.999
			c0.632,0.198,0.948,0.3,1.579,0.503c0.412,6.277,0.524,9.407,0.567,15.633c2.248-5.418,3.372-8.129,5.621-13.548
			c0.787,0.278,1.178,0.417,1.963,0.702C208.109,32.316,206.518,36.053,203.33,43.523z"/>
		<path d="M218.115,49.532c-0.806-0.364-1.211-0.544-2.02-0.899c-0.109-4.32-0.216-6.491-0.545-10.846
			c-1.698,3.525-2.549,5.288-4.248,8.813c-0.741-0.304-1.111-0.454-1.855-0.75c3.456-7.369,5.178-11.054,8.633-18.423
			c0.825,0.329,1.24,0.493,2.063,0.83c-1.588,3.295-2.385,4.945-3.973,8.24c3.442-2.536,5.204-3.777,8.802-6.197
			c0.886,0.386,1.328,0.582,2.21,0.978c-0.022,0.042-0.036,0.063-0.058,0.104c-3.881,2.508-5.777,3.799-9.482,6.442
			C217.959,42.529,218.053,44.871,218.115,49.532z"/>
	</g>
</g>
</svg>
