<?xml version="1.0" encoding="utf-8"?>
<!-- Generator: Adobe Illustrator 16.0.0, SVG Export Plug-In . SVG Version: 6.00 Build 0)  -->
<!DOCTYPE svg PUBLIC "-//W3C//DTD SVG 1.1//EN" "http://www.w3.org/Graphics/SVG/1.1/DTD/svg11.dtd">
<svg version="1.1" id="Calque_1" xmlns="http://www.w3.org/2000/svg" xmlns:xlink="http://www.w3.org/1999/xlink" x="0px" y="0px"
	 width="275.287px" height="275.426px" viewBox="0 0 275.287 275.426" enable-background="new 0 0 275.287 275.426"
	 xml:space="preserve">
		<path fill="#3D5B2A" d="M102.272,180.121c0,0-10.641-34.532,23.726-95.622c38.841-69.042,72.047-69.294,72.047-69.294
			s20.466,33.608-18.587,98.697C158.647,148.591,132.78,177.878,102.272,180.121z"/>
		<g id="logo">
			<path fill="#528C32" d="M178.598,27.069c0.19,0.764,0.417,1.515,0.64,2.261c0.455,1.492,0.949,2.939,1.354,4.313
				c0.214,0.685,0.382,1.353,0.557,1.985c0.178,0.63,0.299,1.236,0.437,1.792c0.122,0.558,0.209,1.072,0.297,1.53
				c0.095,0.454,0.134,0.867,0.188,1.2c0.1,0.665,0.153,1.048,0.153,1.048l0.195-0.014c0,0-0.004-0.387-0.004-1.062
				c-0.008-0.336,0.01-0.743-0.033-1.216c-0.033-0.47-0.055-1.01-0.109-1.59c-0.071-0.578-0.119-1.212-0.223-1.872
				c-0.094-0.662-0.216-1.357-0.361-2.069c-0.275-1.43-0.636-2.938-0.937-4.424c-0.137-0.748-0.286-1.491-0.359-2.22
				c-0.096-0.73-0.138-1.44-0.206-2.125c-0.061-0.684-0.119-1.343-0.156-1.973c-0.026-0.272-0.037-0.536-0.044-0.796
				c-0.607,0.358-1.229,0.735-1.864,1.135c-0.034,0.587-0.009,1.199,0.042,1.827C178.255,25.545,178.387,26.32,178.598,27.069z"/>
			<path fill="#528C32" d="M201.194,32.103c-0.484,0.286-0.967,0.64-1.524,0.943c-0.544,0.322-1.12,0.643-1.722,0.978
				c-0.604,0.328-1.213,0.694-1.874,1.022c-0.645,0.348-1.343,0.64-2.037,0.948c-1.401,0.583-2.852,1.131-4.187,1.707
				c-0.672,0.279-1.316,0.566-1.917,0.864c-0.604,0.282-1.157,0.598-1.674,0.863c-0.51,0.281-0.969,0.563-1.378,0.803
				c-0.416,0.229-0.743,0.47-1.024,0.654c-0.562,0.379-0.882,0.592-0.882,0.592l0.097,0.171c0,0,0.347-0.168,0.956-0.463
				c0.305-0.139,0.667-0.34,1.096-0.516c0.431-0.183,0.902-0.4,1.434-0.613c0.538-0.199,1.106-0.44,1.728-0.643
				c0.624-0.211,1.271-0.448,1.955-0.654c1.364-0.437,2.838-0.838,4.329-1.3c0.748-0.232,1.494-0.469,2.232-0.738
				c0.74-0.248,1.454-0.573,2.123-0.915c0.658-0.372,1.277-0.761,1.811-1.207c0.565-0.405,1.021-0.879,1.451-1.294
				c0.278-0.268,0.511-0.546,0.725-0.813c-0.057-0.481-0.115-0.956-0.179-1.417c-0.082,0.058-0.168,0.112-0.261,0.168
				C202.081,31.494,201.668,31.805,201.194,32.103z"/>
			<path fill="#528C32" d="M164.821,41.006c0.995,2.088,1.985,4.176,2.915,6.132c0.893,1.963,1.74,3.792,2.351,5.402
				c0.323,0.802,0.593,1.542,0.799,2.206c0.225,0.663,0.421,1.241,0.537,1.738c0.258,0.978,0.406,1.536,0.406,1.536l0.19-0.041
				c0,0-0.102-0.57-0.275-1.566c-0.072-0.499-0.22-1.1-0.391-1.79c-0.152-0.697-0.363-1.47-0.622-2.303
				c-0.232-0.841-0.54-1.734-0.86-2.682c-0.315-0.951-0.712-1.924-1.093-2.945c-0.807-2.013-1.664-4.156-2.522-6.304
				c-0.402-1.075-0.837-2.143-1.18-3.212c-0.368-1.066-0.717-2.11-1.038-3.123c-0.016-0.046-0.029-0.092-0.043-0.138
				c-0.533,0.489-1.071,0.992-1.611,1.506c0.301,0.807,0.616,1.621,0.99,2.419C163.833,38.903,164.335,39.949,164.821,41.006z"/>
			<path fill="#528C32" d="M153.944,53.655c2.132,4.545,4.524,8.929,6.401,12.166c1.859,3.243,3.101,5.405,3.101,5.405l0.172-0.089
				c0,0-1.066-2.252-2.666-5.632c-1.581-3.386-3.753-7.868-5.575-12.467c-0.432-1.159-0.896-2.305-1.262-3.462
				c-0.392-1.149-0.758-2.279-1.105-3.378c-0.074-0.227-0.147-0.452-0.221-0.676c-0.508,0.585-1.02,1.182-1.53,1.791
				c0.349,0.963,0.713,1.949,1.151,2.917C152.887,51.376,153.423,52.513,153.944,53.655z"/>
			<path fill="#528C32" d="M148.717,69.945c1.451,2.469,2.82,4.768,3.893,6.79c0.564,1,1.013,1.943,1.436,2.772
				c0.428,0.824,0.769,1.563,1.034,2.178c0.551,1.221,0.864,1.922,0.864,1.922l0.182-0.075c0,0-0.271-0.717-0.74-1.972
				c-0.229-0.63-0.521-1.387-0.898-2.248c-0.37-0.861-0.765-1.848-1.266-2.883c-0.95-2.102-2.164-4.502-3.519-7.041
				c-1.35-2.538-2.814-5.224-4.172-7.945c-0.647-1.376-1.327-2.735-1.875-4.117c-0.034-0.079-0.064-0.159-0.098-0.24
				c-0.408,0.551-0.814,1.112-1.223,1.675c0.575,1.145,1.198,2.273,1.813,3.407C145.659,64.861,147.25,67.48,148.717,69.945z"/>
			<path fill="#528C32" d="M135.121,79.214c1.104,1.357,2.191,2.695,3.243,3.988c1.051,1.292,2.044,2.558,2.976,3.761
				c0.959,1.189,1.787,2.364,2.58,3.434c0.807,1.061,1.438,2.096,2.06,2.983c0.619,0.884,1.1,1.702,1.504,2.366
				c0.809,1.33,1.271,2.091,1.271,2.091l0.168-0.097c0,0-0.421-0.783-1.154-2.156c-0.368-0.688-0.8-1.525-1.375-2.453
				c-0.571-0.92-1.161-2.01-1.911-3.116c-0.734-1.119-1.508-2.35-2.402-3.596c-0.866-1.265-1.827-2.564-2.82-3.905
				c-1-1.338-2.032-2.72-3.08-4.122c-1.051-1.399-2.087-2.832-3.104-4.277c-0.169-0.249-0.337-0.498-0.506-0.746
				c-0.301,0.484-0.6,0.973-0.902,1.467c0.049,0.068,0.099,0.132,0.147,0.197C132.902,76.453,134.01,77.857,135.121,79.214z"/>
			<path fill="#528C32" d="M143.634,106.543l0.141-0.137c0,0.002-2.29-2.518-5.808-6.215c-3.491-3.721-8.24-8.588-12.606-13.764
				c-0.088-0.104-0.174-0.206-0.26-0.314c-0.27,0.488-0.539,0.977-0.804,1.459c4.609,4.98,9.491,9.645,13.187,13.102
				C141.206,104.162,143.634,106.543,143.634,106.543z"/>
			<path fill="#528C32" d="M123.379,104.548c0.664,0.516,1.317,1.027,1.96,1.529c1.295,0.997,2.514,1.995,3.726,2.875
				c1.228,0.859,2.388,1.67,3.46,2.417c1.07,0.748,2.047,1.442,2.959,1.975c0.898,0.557,1.683,1.042,2.331,1.441
				c1.288,0.798,2.028,1.252,2.028,1.252l0.104-0.162c0,0-0.711-0.497-1.956-1.367c-0.622-0.435-1.378-0.962-2.242-1.57
				c-0.885-0.583-1.815-1.327-2.834-2.132c-1.019-0.799-2.124-1.666-3.293-2.583c-1.13-0.958-2.327-1.973-3.565-3.021
				c-0.619-0.524-1.245-1.059-1.88-1.599c-0.632-0.544-1.234-1.135-1.864-1.708c-1.209-1.119-2.432-2.255-3.655-3.39
				c-0.237,0.482-0.465,0.963-0.694,1.444c1.16,0.993,2.32,1.982,3.467,2.956C122.088,103.457,122.72,104.027,123.379,104.548z"/>
			<path fill="#528C32" d="M115.091,114.068c1.286,0.835,2.558,1.642,3.816,2.377c2.496,1.497,4.889,2.768,6.937,3.854
				c4.104,2.156,6.817,3.634,6.817,3.634l0.098-0.168c0,0-2.616-1.646-6.574-4.06c-0.985-0.61-2.05-1.271-3.178-1.968
				c-1.108-0.724-2.31-1.439-3.5-2.25c-1.21-0.787-2.428-1.64-3.651-2.523c-0.625-0.425-1.206-0.915-1.814-1.372
				c-0.317-0.242-0.633-0.484-0.943-0.732c-0.199,0.479-0.392,0.957-0.583,1.434c0.219,0.156,0.441,0.311,0.664,0.465
				C113.821,113.197,114.438,113.665,115.091,114.068z"/>
			<path fill="#528C32" d="M118.62,129.357c1.151,0.721,2.236,1.407,3.254,2.016c2.022,1.239,3.729,2.232,4.92,2.928
				c1.197,0.691,1.88,1.085,1.88,1.085l0.104-0.165c0,0-0.656-0.438-1.81-1.2c-1.149-0.769-2.787-1.86-4.721-3.219
				c-1.945-1.346-4.174-2.969-6.55-4.712c-2.116-1.579-4.315-3.305-6.48-5.092c-0.176,0.506-0.349,1.007-0.52,1.503
				c2.133,1.589,4.281,3.113,6.346,4.509C116.28,127.83,117.466,128.636,118.62,129.357z"/>
			<path fill="#528C32" d="M114.913,139.923c4.247,2.176,7.037,3.709,7.034,3.709l0.098-0.169c0,0-2.689-1.704-6.798-4.134
				c-2.801-1.688-6.28-3.692-9.891-5.908c-0.115,0.428-0.227,0.854-0.336,1.279c0.901,0.495,1.793,0.98,2.663,1.451
				C110.314,137.568,112.792,138.834,114.913,139.923z"/>
			<path fill="#528C32" d="M117.191,150.872l0.089-0.172c-0.002-0.003-2.602-1.426-6.546-3.479c-2.215-1.175-4.861-2.537-7.67-4.026
				c-0.079,0.403-0.155,0.804-0.23,1.2c2.774,1.295,5.385,2.471,7.602,3.438C114.503,149.624,117.191,150.872,117.191,150.872z"/>
			<path fill="#528C32" d="M114.791,155.663l0.04-0.193c0,0-2.687-0.62-6.717-1.553c-1.924-0.457-4.152-0.99-6.539-1.56
				c-0.047,0.372-0.092,0.743-0.134,1.108c2.381,0.447,4.613,0.822,6.542,1.117C112.068,155.231,114.791,155.663,114.791,155.663z"
				/>
			<path fill="#528C32" d="M109,166.14l-0.002-0.196c0,0-1.937-0.077-4.841-0.198c-1.038-0.046-2.198-0.098-3.437-0.151
				c0.001,0.346,0.002,0.687,0.006,1.02c1.241-0.048,2.401-0.115,3.435-0.172C107.065,166.257,109,166.14,109,166.14z"/>
			<path fill="#528C32" d="M113.844,169.02c-0.79-0.743-1.239-1.165-1.239-1.165l-0.138,0.14c0,0,0.414,0.457,1.141,1.257
				c0.732,0.795,1.787,1.935,3.089,3.258c0.964,0.985,2.069,2.073,3.283,3.207c0.354-0.152,0.708-0.309,1.061-0.464
				c-1.422-1.152-2.741-2.247-3.876-3.242C115.769,170.801,114.636,169.756,113.844,169.02z"/>
			<path fill="#528C32" d="M126.008,164.686c-1.009-0.863-1.96-1.676-2.839-2.429c-0.84-0.794-1.613-1.518-2.298-2.162
				c-0.69-0.639-1.23-1.264-1.708-1.746c-0.94-0.979-1.476-1.537-1.476-1.537l-0.144,0.13c0,0,0.501,0.594,1.373,1.629
				c0.45,0.511,0.945,1.165,1.6,1.848c0.649,0.695,1.379,1.479,2.18,2.334c0.838,0.81,1.747,1.692,2.705,2.626
				c1.004,0.889,2.07,1.819,3.195,2.746c0.747,0.572,1.495,1.179,2.268,1.766c0.381-0.244,0.763-0.496,1.141-0.749
				c-0.934-0.625-1.823-1.289-2.714-1.909C128.135,166.375,127.054,165.493,126.008,164.686z"/>
			<path fill="#528C32" d="M135.966,156.374c-2.355-1.657-4.547-3.229-6.382-4.636c-1.848-1.394-3.364-2.584-4.422-3.429
				c-1.059-0.838-1.665-1.317-1.665-1.317l-0.124,0.149c0,0,0.573,0.517,1.575,1.422c1.003,0.905,2.446,2.194,4.206,3.708
				c0.875,0.759,1.837,1.572,2.865,2.417c1.013,0.86,2.141,1.701,3.282,2.604c1.174,0.86,2.362,1.784,3.633,2.639
				c0.876,0.625,1.783,1.222,2.7,1.815c0.396-0.343,0.791-0.691,1.185-1.041c-1.063-0.616-2.125-1.235-3.146-1.893
				C138.386,158.028,137.167,157.17,135.966,156.374z"/>
			<path fill="#528C32" d="M147.135,149.782c-0.747-0.327-1.476-0.676-2.18-1.054c-0.709-0.374-1.422-0.714-2.097-1.099
				c-1.342-0.781-2.653-1.521-3.837-2.317c-1.217-0.746-2.313-1.537-3.322-2.271c-1.032-0.708-1.898-1.451-2.695-2.076
				c-0.804-0.619-1.474-1.204-2.02-1.695c-1.096-0.969-1.723-1.521-1.723-1.521l-0.136,0.14c0,0,0.596,0.591,1.637,1.622
				c0.513,0.521,1.146,1.144,1.917,1.816c0.769,0.673,1.607,1.479,2.601,2.255c0.975,0.8,2.036,1.66,3.226,2.492
				c1.148,0.88,2.457,1.674,3.784,2.53c0.668,0.423,1.38,0.801,2.082,1.21c0.701,0.419,1.429,0.807,2.177,1.172
				c1.353,0.721,2.774,1.355,4.199,1.994c0.38-0.403,0.76-0.81,1.142-1.22c-0.07-0.022-0.137-0.047-0.205-0.07
				C150.152,151.081,148.607,150.484,147.135,149.782z"/>
			<path fill="#528C32" d="M156.11,139.527c-1.596-0.949-3.131-1.949-4.633-2.89c-2.985-1.914-5.775-3.705-8.196-5.201
				c-2.415-1.502-4.443-2.74-5.885-3.559c-1.433-0.829-2.255-1.302-2.255-1.302l-0.103,0.166c0,0,0.796,0.517,2.188,1.416
				c1.396,0.892,3.347,2.226,5.68,3.845c2.323,1.633,5.036,3.537,7.945,5.576c1.469,1.003,2.971,2.063,4.54,3.083
				c1.27,0.854,2.585,1.683,3.905,2.512c0.322-0.4,0.645-0.801,0.961-1.201C158.859,141.171,157.465,140.368,156.11,139.527z"/>
			<path fill="#528C32" d="M166.396,129.059c-0.864-0.251-1.714-0.543-2.551-0.857c-0.841-0.311-1.69-0.59-2.511-0.92
				c-1.628-0.686-3.257-1.318-4.76-2.083c-0.757-0.374-1.52-0.704-2.229-1.097c-0.713-0.39-1.41-0.771-2.09-1.145
				c-0.341-0.184-0.678-0.367-1.007-0.546c-0.321-0.198-0.636-0.394-0.943-0.586c-0.619-0.385-1.219-0.757-1.792-1.116
				c-1.157-0.705-2.123-1.481-3.03-2.103c-0.912-0.614-1.646-1.249-2.261-1.746c-1.23-1.005-1.935-1.58-1.935-1.58l-0.126,0.148
				c0,0,0.673,0.609,1.846,1.679c0.589,0.53,1.281,1.2,2.167,1.872c0.882,0.675,1.825,1.518,2.953,2.289
				c0.559,0.394,1.143,0.804,1.749,1.226c0.301,0.211,0.608,0.427,0.921,0.645c0.326,0.202,0.653,0.403,0.988,0.608
				c0.67,0.408,1.357,0.827,2.065,1.255c0.704,0.427,1.465,0.792,2.217,1.205c1.499,0.834,3.119,1.546,4.753,2.311
				c0.819,0.372,1.671,0.689,2.513,1.042c0.841,0.353,1.692,0.683,2.558,0.975c0.767,0.267,1.524,0.549,2.289,0.81
				c0.337-0.483,0.674-0.965,1.011-1.451c-0.073-0.02-0.146-0.038-0.22-0.057C168.11,129.599,167.256,129.316,166.396,129.059z"/>
			<path fill="#528C32" d="M171.718,116.532c-1.553-0.741-3.099-1.483-4.63-2.212c-1.533-0.708-2.991-1.516-4.406-2.284
				c-1.417-0.758-2.839-1.399-4.13-2.115c-1.29-0.72-2.516-1.387-3.661-1.991c-0.576-0.3-1.125-0.589-1.65-0.862
				c-0.509-0.3-0.99-0.584-1.443-0.851c-0.913-0.529-1.714-0.982-2.388-1.346c-1.329-0.741-2.117-1.14-2.117-1.14l-0.121,0.159
				c0,0.001,0.646,0.583,1.829,1.554c0.585,0.494,1.309,1.082,2.146,1.743c0.422,0.33,0.87,0.68,1.345,1.049
				c0.497,0.335,1.019,0.689,1.563,1.058c1.092,0.733,2.289,1.513,3.566,2.326c1.271,0.827,2.708,1.518,4.158,2.297
				c1.471,0.735,2.978,1.529,4.591,2.138c1.59,0.659,3.206,1.327,4.82,1.999c1.575,0.552,3.15,1.107,4.702,1.651
				c0.251-0.398,0.501-0.794,0.75-1.194c-0.058-0.025-0.117-0.045-0.174-0.072C174.901,117.81,173.309,117.171,171.718,116.532z"/>
			<path fill="#528C32" d="M178.842,104.335c-1.66-0.515-3.33-0.973-4.927-1.581c-1.613-0.553-3.173-1.173-4.687-1.754
				c-3.021-1.18-5.822-2.339-8.188-3.426c-0.594-0.265-1.165-0.521-1.708-0.763c-0.533-0.262-1.042-0.508-1.517-0.74
				c-0.961-0.457-1.803-0.848-2.481-1.204c-1.362-0.697-2.165-1.07-2.165-1.07l-0.107,0.165c0.001-0.001,0.682,0.56,1.914,1.489
				c0.603,0.489,1.376,1.017,2.274,1.608c0.891,0.606,1.918,1.257,3.079,1.902c0.579,0.323,1.165,0.69,1.803,1.015
				c0.642,0.321,1.303,0.654,1.981,0.994c0.673,0.361,1.395,0.664,2.13,0.973c0.737,0.308,1.479,0.649,2.252,0.949
				c1.567,0.546,3.175,1.153,4.861,1.603c1.663,0.514,3.387,0.916,5.097,1.352c1.698,0.353,3.384,0.754,5.072,1.008
				c0.228-0.413,0.453-0.824,0.676-1.232c-0.107-0.025-0.218-0.044-0.326-0.069C182.196,105.235,180.523,104.756,178.842,104.335z"
				/>
			<path fill="#528C32" d="M183.231,86.88c-1.515-0.248-3.035-0.472-4.509-0.789c-0.738-0.149-1.471-0.3-2.194-0.448
				c-0.718-0.165-1.425-0.327-2.122-0.489c-1.405-0.274-2.729-0.657-4.011-0.927c-0.63-0.173-1.241-0.343-1.833-0.506
				c-0.6-0.146-1.174-0.308-1.709-0.494c-1.084-0.355-2.1-0.635-2.956-0.998c-0.866-0.335-1.653-0.573-2.253-0.866
				c-1.225-0.551-1.955-0.841-1.955-0.841l-0.106,0.165c0,0,0.61,0.481,1.73,1.28c0.543,0.435,1.28,0.815,2.108,1.3
				c0.826,0.502,1.81,0.941,2.89,1.422c1.067,0.516,2.289,0.883,3.562,1.35c1.289,0.382,2.655,0.81,4.093,1.098
				c0.722,0.14,1.455,0.283,2.194,0.427c0.746,0.108,1.502,0.22,2.262,0.329c1.521,0.214,3.069,0.374,4.615,0.537
				c3.096,0.307,6.195,0.502,9.097,0.646c0.054,0.003,0.108,0.004,0.162,0.007c0.155-0.365,0.312-0.725,0.464-1.087
				c-0.182-0.016-0.362-0.031-0.547-0.047C189.335,87.669,186.271,87.329,183.231,86.88z"/>
			<path fill="#528C32" d="M191.385,73.987c-1.521-0.199-3.046-0.357-4.52-0.671c-1.488-0.254-2.92-0.628-4.32-0.929
				c-1.378-0.386-2.737-0.654-3.994-1.042c-0.63-0.179-1.247-0.353-1.842-0.524c-0.588-0.19-1.159-0.375-1.705-0.552
				c-1.104-0.333-2.096-0.699-2.98-1.021c-0.891-0.305-1.662-0.59-2.29-0.846c-1.262-0.5-2.008-0.757-2.008-0.759l-0.095,0.173
				c0.002-0.002,0.637,0.454,1.791,1.2c0.289,0.187,0.61,0.394,0.959,0.621c0.361,0.2,0.754,0.417,1.174,0.646
				c0.841,0.462,1.793,0.983,2.884,1.44c0.539,0.24,1.105,0.489,1.688,0.748c0.601,0.217,1.222,0.441,1.86,0.675
				c1.265,0.502,2.665,0.819,4.094,1.217c1.458,0.262,2.95,0.615,4.502,0.754c1.54,0.218,3.114,0.311,4.684,0.426
				c1.574,0.041,3.146,0.124,4.693,0.052c0.498-0.001,0.987-0.021,1.477-0.046c0.14-0.425,0.276-0.851,0.412-1.274
				c-0.626,0.009-1.255,0.008-1.889-0.021C194.447,74.252,192.915,74.099,191.385,73.987z"/>
			<path fill="#528C32" d="M198.119,55.29c-0.993,0.027-2.021,0.054-3.063,0.082c-1.045,0.015-2.1,0.087-3.158,0.056
				c-2.122-0.104-4.237-0.273-6.219-0.332c-0.495,0-0.983-0.017-1.46-0.004c-0.477-0.016-0.946-0.037-1.4-0.054
				c-0.912-0.037-1.775-0.057-2.573-0.057c-3.195-0.024-5.367,0.225-5.367,0.225l-0.023,0.193c0.001,0,2.078,0.615,5.269,1.136
				c0.797,0.136,1.662,0.267,2.58,0.385c0.914,0.158,1.89,0.202,2.9,0.205c2.021,0.003,4.178-0.101,6.324-0.14
				c1.075-0.042,2.15-0.186,3.207-0.274c1.054-0.1,2.093-0.202,3.096-0.297c0.997-0.117,1.978-0.138,2.878-0.327
				c0.385-0.068,0.761-0.131,1.126-0.196c0.045-0.276,0.084-0.551,0.128-0.826c-0.442,0.036-0.899,0.073-1.368,0.112
				C200.079,55.273,199.116,55.248,198.119,55.29z"/>
		</g>
		<path fill="#528C32" d="M121.158,151.529c3.016-5.37,6.08-10.713,9.189-16.044c6.22-10.667,12.398-21.374,18.198-32.369
			c1.442-2.751,2.808-5.488,4.229-8.268c1.396-2.736,2.758-5.49,4.225-8.195c2.868-5.442,5.921-10.789,8.991-16.129
			c6.166-10.678,12.668-21.181,19.019-31.783c3.168-5.306,6.263-10.655,9.301-16.04c1.334-2.375,2.639-4.766,3.921-7.169
			c-0.117-0.218-0.185-0.327-0.185-0.327s-0.056,0-0.163,0.004c-1.396,2.377-2.809,4.744-4.243,7.1
			c-3.231,5.259-6.529,10.475-9.88,15.661c-6.646,10.4-13.449,20.714-19.947,31.249c-3.261,5.261-6.409,10.597-9.413,16.023
			c-1.531,2.694-2.959,5.45-4.422,8.187c-1.446,2.689-2.891,5.453-4.37,8.145c-2.975,5.364-6.036,10.705-9.191,16.004l-9.491,15.892
			c-3.166,5.306-6.298,10.646-9.386,16.016c-3.006,5.486-5.923,10.855-8.939,16.246c-2.255,4.033-4.541,8.043-6.867,12.028
			c0.295,1.562,0.541,2.362,0.541,2.362c1.152-0.086,2.296-0.214,3.431-0.371c2.27-3.957,4.49-7.936,6.673-11.927
			C115.343,162.41,118.278,156.901,121.158,151.529z"/>
		<g>
			<g>
				<path fill="#3D5B2A" d="M135.146,125.934c0,0-0.338,0.501-0.914,1.391c-0.281,0.444-0.624,0.987-1.019,1.609
					c-0.396,0.619-0.825,1.331-1.295,2.105c-0.474,0.775-0.984,1.609-1.501,2.512c-0.528,0.893-1.049,1.857-1.604,2.845
					c-0.544,0.991-1.134,2.004-1.736,3.026c-0.61,1.019-1.243,2.051-1.89,3.073c-1.27,2.054-2.484,4.14-3.632,6.096
					c-0.573,0.972-1.105,1.931-1.623,2.829c-0.518,0.902-0.991,1.76-1.427,2.556c-0.881,1.582-1.59,2.915-2.087,3.852
					c-0.489,0.938-0.769,1.477-0.769,1.477l0.041,0.02c0,0,0.321-0.512,0.886-1.404c0.555-0.901,1.35-2.181,2.275-3.739
					c0.466-0.778,0.969-1.62,1.486-2.521c0.518-0.898,1.076-1.838,1.629-2.826c0.555-0.987,1.126-2.01,1.708-3.044
					c0.578-1.042,1.158-2.103,1.73-3.166c0.591-1.054,1.19-2.103,1.795-3.125c0.612-1.021,1.217-2.022,1.828-2.978
					c0.6-0.959,1.2-1.873,1.729-2.766c0.545-0.886,1.035-1.733,1.487-2.521c0.454-0.784,0.874-1.499,1.229-2.143
					c0.358-0.645,0.671-1.203,0.927-1.667c0.504-0.927,0.787-1.464,0.787-1.464L135.146,125.934z"/>
				<path fill="#3D5B2A" d="M163.837,71.114c0,0-0.279,0.295-0.657,0.77c-0.096,0.118-0.198,0.246-0.302,0.388
					c-0.104,0.135-0.199,0.295-0.305,0.454c-0.208,0.321-0.444,0.646-0.698,0.96c-0.238,0.329-0.475,0.658-0.689,0.973
					c-0.217,0.313-0.393,0.619-0.537,0.89c-0.298,0.53-0.472,0.897-0.472,0.897l0.012,0.006c0,0,0.24-0.33,0.563-0.843
					c0.082-0.127,0.171-0.263,0.258-0.414c0.085-0.151,0.196-0.296,0.298-0.459c0.206-0.314,0.419-0.658,0.628-1.005
					c0.433-0.688,0.981-1.284,1.335-1.778c0.364-0.484,0.58-0.829,0.58-0.829L163.837,71.114z"/>
				<path fill="#3D5B2A" d="M159.907,76.969c0,0-0.397,0.585-0.911,1.505c-0.268,0.456-0.543,1.007-0.852,1.588
					c-0.302,0.584-0.656,1.192-1.041,1.779c-0.382,0.591-0.742,1.197-1.08,1.762c-0.168,0.284-0.329,0.561-0.466,0.831
					c-0.142,0.267-0.265,0.527-0.378,0.762c-0.464,0.953-0.733,1.602-0.733,1.602l0.021,0.011c0,0,0.379-0.597,0.887-1.519
					c0.132-0.227,0.27-0.477,0.406-0.743c0.137-0.269,0.315-0.537,0.47-0.824c0.318-0.576,0.664-1.188,0.981-1.818
					c0.324-0.625,0.679-1.231,1.042-1.784c0.175-0.28,0.365-0.54,0.505-0.807c0.151-0.262,0.282-0.516,0.403-0.751
					c0.489-0.934,0.768-1.583,0.768-1.583L159.907,76.969z"/>
				<path fill="#3D5B2A" d="M152.119,91.416c0,0-0.581,0.824-1.144,1.659c-0.136,0.214-0.265,0.432-0.385,0.637
					c-0.113,0.208-0.206,0.41-0.285,0.583c-0.155,0.345-0.231,0.586-0.231,0.586l0.02,0.012c0,0,0.164-0.198,0.37-0.513
					c0.102-0.159,0.223-0.341,0.334-0.548c0.105-0.211,0.219-0.435,0.334-0.659c0.51-0.867,1.004-1.745,1.004-1.745L152.119,91.416z
					"/>
				<path fill="#3D5B2A" d="M149.748,95.405c0,0-0.132,0.258-0.362,0.712c-0.239,0.448-0.541,1.113-0.979,1.867
					c-0.426,0.759-0.918,1.645-1.478,2.581c-0.545,0.94-1.161,1.927-1.762,2.923c-0.604,0.992-1.225,1.977-1.773,2.921
					c-0.268,0.475-0.541,0.926-0.77,1.374c-0.229,0.445-0.446,0.867-0.647,1.254c-0.205,0.385-0.372,0.75-0.515,1.076
					c-0.146,0.323-0.272,0.608-0.371,0.843c-0.2,0.467-0.308,0.738-0.308,0.738l0.04,0.019c0,0,0.15-0.249,0.414-0.686
					c0.129-0.217,0.285-0.484,0.456-0.792c0.169-0.31,0.382-0.649,0.605-1.024c0.439-0.751,0.954-1.627,1.507-2.564
					c0.537-0.95,1.108-1.96,1.682-2.972c0.571-1.014,1.151-2.021,1.674-2.979c0.258-0.481,0.522-0.938,0.748-1.383
					c0.229-0.448,0.439-0.868,0.64-1.259c0.411-0.771,0.684-1.445,0.905-1.903c0.214-0.462,0.333-0.728,0.333-0.728L149.748,95.405z
					"/>
				<path fill="#3D5B2A" d="M167.718,64.089c0,0-0.833,1.648-1.667,3.294c-0.209,0.411-0.42,0.822-0.598,1.216
					c-0.095,0.197-0.185,0.382-0.268,0.563c-0.082,0.181-0.166,0.346-0.253,0.495c-0.079,0.153-0.156,0.291-0.222,0.413
					c-0.083,0.113-0.152,0.214-0.208,0.298c-0.112,0.168-0.177,0.264-0.177,0.264l0.013,0.01c0,0,0.073-0.089,0.2-0.243
					c0.068-0.082,0.146-0.175,0.231-0.286c0.076-0.121,0.158-0.259,0.25-0.403c0.379-0.592,0.727-1.448,1.129-2.278
					c0.789-1.668,1.576-3.335,1.576-3.335L167.718,64.089z"/>
			</g>
		</g>
	</g>
	<g>
		<path fill="#3D5B2A" d="M90.343,179.85c0,0-34.28-13.109-61.619-78.841C-2.174,26.715,18.412,0,18.412,0s39.695,4.675,67.3,76.661
			C100.422,115.027,107.65,154.049,90.343,179.85z"/>
		<g>
			<path fill="#6D892C" d="M15.729,22.983c0.729,0.325,1.468,0.618,2.208,0.903c1.478,0.57,2.944,1.083,4.297,1.619
				c0.679,0.257,1.319,0.541,1.934,0.795c0.615,0.252,1.175,0.535,1.707,0.775c0.524,0.249,0.99,0.506,1.41,0.719
				c0.422,0.21,0.777,0.438,1.078,0.601c0.593,0.339,0.934,0.533,0.934,0.533l0.11-0.164c0,0-0.311-0.24-0.851-0.659
				c-0.275-0.208-0.589-0.478-0.995-0.737c-0.396-0.271-0.841-0.589-1.341-0.911c-0.504-0.303-1.04-0.663-1.635-0.992
				c-0.588-0.34-1.219-0.676-1.882-1.006c-1.315-0.676-2.745-1.333-4.125-2.022c-0.683-0.359-1.369-0.704-1.998-1.101
				c-0.645-0.379-1.239-0.794-1.829-1.167c-0.585-0.379-1.147-0.745-1.675-1.112c-0.235-0.149-0.453-0.306-0.666-0.463
				c-0.095,0.711-0.182,1.448-0.261,2.203c0.45,0.394,0.955,0.759,1.489,1.11C14.295,22.3,14.995,22.681,15.729,22.983z"/>
			<path fill="#6D892C" d="M33.9,8.063c-0.076,0.566-0.093,1.174-0.199,1.81c-0.083,0.635-0.188,1.3-0.296,1.988
				c-0.118,0.688-0.208,1.405-0.357,2.138c-0.125,0.735-0.328,1.477-0.515,2.223c-0.41,1.486-0.881,2.991-1.258,4.418
				c-0.196,0.712-0.368,1.408-0.509,2.073c-0.152,0.662-0.245,1.3-0.357,1.881c-0.096,0.584-0.154,1.129-0.222,1.604
				c-0.076,0.476-0.086,0.89-0.116,1.233c-0.05,0.683-0.078,1.073-0.078,1.073l0.196,0.027c0,0,0.083-0.382,0.229-1.051
				c0.079-0.332,0.146-0.747,0.274-1.202c0.12-0.457,0.243-0.975,0.406-1.53c0.179-0.554,0.343-1.159,0.568-1.786
				c0.22-0.629,0.439-1.292,0.699-1.972c0.508-1.362,1.109-2.793,1.672-4.275c0.282-0.745,0.561-1.489,0.806-2.247
				c0.267-0.748,0.454-1.521,0.6-2.272c0.115-0.76,0.192-1.499,0.17-2.203c0.029-0.705-0.067-1.365-0.128-1.972
				c-0.04-0.389-0.118-0.75-0.195-1.087c-0.42-0.257-0.836-0.506-1.244-0.745c-0.008,0.102-0.017,0.205-0.029,0.315
				C33.969,6.973,33.961,7.497,33.9,8.063z"/>
			<path fill="#6D892C" d="M18.248,42.725c2.292,0.515,4.582,1.026,6.729,1.508c2.129,0.516,4.123,0.986,5.793,1.505
				c0.841,0.24,1.604,0.489,2.267,0.741c0.667,0.235,1.255,0.438,1.72,0.658c0.946,0.406,1.484,0.639,1.484,0.639l0.087-0.181
				c0,0-0.519-0.274-1.425-0.76c-0.445-0.255-1.018-0.511-1.675-0.81c-0.654-0.309-1.405-0.63-2.232-0.942
				c-0.82-0.342-1.725-0.655-2.684-0.991c-0.958-0.345-1.984-0.635-3.039-0.968c-2.114-0.616-4.366-1.273-6.622-1.93
				c-1.112-0.356-2.238-0.673-3.308-1.069c-1.083-0.371-2.135-0.748-3.146-1.124c-0.047-0.019-0.091-0.035-0.137-0.051
				c0.057,0.732,0.125,1.477,0.195,2.232c0.833,0.264,1.684,0.52,2.557,0.721C15.947,42.199,17.098,42.453,18.248,42.725z"/>
			<path fill="#6D892C" d="M21.553,59.347c4.968,1.139,9.975,1.971,13.738,2.496c3.757,0.544,6.264,0.906,6.264,0.906l0.036-0.194
				c0,0-2.469-0.558-6.173-1.394c-3.699-0.856-8.641-1.925-13.462-3.346c-1.195-0.381-2.404-0.729-3.558-1.161
				c-1.165-0.406-2.298-0.821-3.394-1.23c-0.229-0.084-0.456-0.167-0.679-0.249c0.149,0.776,0.308,1.557,0.471,2.35
				c0.991,0.32,2.007,0.647,3.057,0.903C19.068,58.765,20.313,59.047,21.553,59.347z"/>
			<path fill="#6D892C" d="M31.309,73.724c2.885,0.384,5.579,0.731,7.868,1.138c1.152,0.175,2.188,0.408,3.115,0.587
				c0.927,0.177,1.732,0.367,2.391,0.539c1.321,0.326,2.077,0.51,2.077,0.51l0.054-0.189c0,0-0.742-0.235-2.038-0.643
				c-0.648-0.213-1.438-0.454-2.362-0.689c-0.918-0.245-1.956-0.545-3.099-0.794c-2.274-0.556-4.954-1.086-7.833-1.592
				c-2.875-0.508-5.94-1.022-8.969-1.64c-1.504-0.343-3.015-0.649-4.464-1.078c-0.084-0.022-0.167-0.046-0.252-0.07
				c0.186,0.668,0.378,1.345,0.575,2.025c1.274,0.256,2.567,0.464,3.86,0.683C25.327,72.987,28.42,73.354,31.309,73.724z"/>
			<path fill="#6D892C" d="M30.208,90.403c1.777-0.034,3.528-0.065,5.22-0.097c1.692-0.03,3.325-0.033,4.871-0.024
				c1.55-0.021,3.009,0.051,4.361,0.085c1.353,0.02,2.578,0.161,3.674,0.221c1.096,0.059,2.05,0.184,2.833,0.277
				c1.572,0.186,2.469,0.292,2.469,0.292l0.028-0.195c0,0-0.89-0.154-2.449-0.427c-0.777-0.137-1.719-0.314-2.819-0.435
				c-1.097-0.119-2.334-0.331-3.69-0.425c-1.354-0.111-2.823-0.26-4.378-0.329c-1.558-0.1-3.197-0.143-4.894-0.188
				c-1.693-0.039-3.446-0.078-5.221-0.118c-1.777-0.035-3.574-0.103-5.367-0.194c-0.303-0.022-0.608-0.044-0.912-0.065
				c0.2,0.545,0.403,1.091,0.608,1.643c0.083,0,0.167,0.001,0.248,0.005C26.612,90.447,28.429,90.442,30.208,90.403z"/>
			<path fill="#6D892C" d="M57.396,100.706l-0.021-0.198c0,0-3.449,0.254-8.609,0.754c-5.161,0.463-12.029,1.211-18.898,1.463
				c-0.137,0.005-0.275,0.006-0.413,0.009c0.22,0.521,0.439,1.044,0.662,1.558c6.868-0.568,13.654-1.551,18.735-2.345
				C53.97,101.154,57.396,100.706,57.396,100.706z"/>
			<path fill="#6D892C" d="M43.117,115.652c0.828-0.205,1.646-0.408,2.451-0.606c1.606-0.411,3.168-0.763,4.631-1.179
				c1.457-0.446,2.832-0.867,4.101-1.258c1.269-0.385,2.433-0.732,3.432-1.126c1.008-0.372,1.887-0.694,2.61-0.961
				c1.448-0.532,2.274-0.838,2.274-0.838l-0.063-0.188c0,0-0.844,0.259-2.317,0.708c-0.737,0.225-1.633,0.5-2.66,0.814
				c-1.021,0.34-2.199,0.618-3.48,0.93c-1.279,0.314-2.663,0.656-4.126,1.014c-1.479,0.307-3.037,0.629-4.649,0.962
				c-0.808,0.165-1.628,0.33-2.457,0.5c-0.831,0.165-1.682,0.281-2.534,0.422c-1.652,0.264-3.327,0.53-5.001,0.8
				c0.239,0.492,0.481,0.975,0.723,1.459c1.52-0.307,3.039-0.616,4.534-0.921C41.436,116.006,42.287,115.855,43.117,115.652z"/>
			<path fill="#6D892C" d="M45.542,128.243c1.474-0.505,2.916-1.016,4.288-1.563c2.761-1.057,5.277-2.177,7.427-3.135
				c4.294-1.934,7.175-3.178,7.175-3.178l-0.072-0.184c0,0-2.955,1.064-7.364,2.72c-1.104,0.405-2.299,0.845-3.563,1.308
				c-1.274,0.432-2.598,0.945-3.992,1.39c-1.385,0.476-2.831,0.917-4.303,1.34c-0.731,0.235-1.484,0.394-2.234,0.594
				c-0.389,0.102-0.781,0.203-1.173,0.295c0.258,0.46,0.519,0.912,0.78,1.366c0.263-0.08,0.525-0.159,0.786-0.242
				C44.051,128.712,44.811,128.516,45.542,128.243z"/>
			<path fill="#6D892C" d="M59.978,134.993c1.297-0.47,2.526-0.904,3.651-1.337c2.255-0.844,4.12-1.587,5.422-2.105
				c1.301-0.523,2.044-0.822,2.044-0.822l-0.067-0.188c0,0-0.761,0.254-2.092,0.696c-1.335,0.438-3.234,1.063-5.531,1.762
				c-2.293,0.711-4.987,1.479-7.871,2.286c-2.585,0.705-5.343,1.385-8.125,1.997c0.291,0.457,0.583,0.908,0.875,1.355
				c2.606-0.707,5.169-1.476,7.578-2.25C57.293,135.911,58.679,135.465,59.978,134.993z"/>
			<path fill="#6D892C" d="M66.111,144.576c4.396-2.032,7.368-3.303,7.367-3.306l-0.073-0.184c0,0-3.043,1.085-7.564,2.851
				c-3.103,1.185-6.883,2.708-10.916,4.21c0.272,0.358,0.541,0.715,0.811,1.07c0.961-0.41,1.907-0.819,2.829-1.223
				C61.344,146.779,63.909,145.588,66.111,144.576z"/>
			<path fill="#6D892C" d="M76.292,149.611l-0.085-0.181c0,0-2.766,1.188-6.879,3.057c-2.327,1.036-5.074,2.3-8.02,3.61
				c0.272,0.318,0.543,0.629,0.813,0.938c2.775-1.407,5.348-2.763,7.513-3.925C73.612,150.976,76.292,149.611,76.292,149.611z"/>
			<path fill="#6D892C" d="M78.62,154.526l-0.129-0.149c0,0-2.179,1.759-5.448,4.397c-1.571,1.251-3.392,2.702-5.342,4.255
				c0.271,0.27,0.538,0.539,0.805,0.803c1.85-1.625,3.545-3.175,4.989-4.533C76.57,156.434,78.62,154.526,78.62,154.526z"/>
			<path fill="#6D892C" d="M83.373,165.718l-0.158-0.121c0,0-1.274,1.502-3.189,3.75c-0.688,0.8-1.455,1.695-2.275,2.651
				c0.278,0.219,0.552,0.429,0.821,0.632c0.74-1.019,1.413-1.987,2.011-2.852C82.255,167.34,83.373,165.718,83.373,165.718z"/>
			<path fill="#6D892C" d="M88.71,163.651c-1.088,0.166-1.708,0.26-1.708,0.26l0.024,0.198c0,0,0.625-0.046,1.72-0.127
				c1.095-0.09,2.666-0.217,4.541-0.433c1.393-0.152,2.957-0.353,4.62-0.618c0.101-0.376,0.198-0.753,0.294-1.134
				c-1.813,0.412-3.513,0.781-5.017,1.066C91.337,163.222,89.794,163.476,88.71,163.651z"/>
			<path fill="#6D892C" d="M92.858,151.205c-1.319,0.267-2.566,0.521-3.718,0.753c-1.161,0.174-2.224,0.336-3.167,0.479
				c-0.944,0.155-1.784,0.193-2.468,0.276c-1.37,0.14-2.152,0.216-2.152,0.216l0.014,0.196c0,0,0.786-0.028,2.163-0.079
				c0.687-0.038,1.522-0.025,2.481-0.12c0.96-0.086,2.044-0.182,3.226-0.286c1.177-0.159,2.45-0.334,3.798-0.518
				c1.337-0.245,2.75-0.519,4.198-0.835c0.922-0.238,1.876-0.457,2.831-0.708c0.043-0.458,0.079-0.918,0.115-1.382
				c-1.087,0.356-2.175,0.651-3.226,0.979C95.543,150.564,94.16,150.875,92.858,151.205z"/>
			<path fill="#6D892C" d="M92.449,138.038c-2.802,0.848-5.43,1.616-7.704,2.203c-2.273,0.604-4.173,1.07-5.509,1.389
				c-1.335,0.32-2.099,0.504-2.099,0.504l0.04,0.193c0,0,0.772-0.133,2.126-0.367c1.351-0.236,3.285-0.585,5.596-1.046
				c1.158-0.222,2.408-0.482,3.728-0.773c1.324-0.273,2.701-0.648,4.137-0.997c1.422-0.397,2.905-0.772,4.384-1.252
				c1.049-0.308,2.095-0.663,3.145-1.025c-0.028-0.533-0.058-1.063-0.094-1.597c-1.158,0.463-2.315,0.927-3.48,1.33
				C95.283,137.139,93.836,137.578,92.449,138.038z"/>
			<path fill="#6D892C" d="M94.167,124.978c-0.728,0.391-1.464,0.756-2.208,1.083c-0.739,0.331-1.46,0.689-2.189,0.988
				c-1.466,0.584-2.878,1.171-4.255,1.619c-1.361,0.505-2.677,0.889-3.897,1.235c-1.213,0.381-2.348,0.606-3.35,0.857
				c-0.999,0.254-1.885,0.422-2.619,0.549c-1.459,0.273-2.295,0.429-2.295,0.429l0.031,0.194c0,0,0.841-0.105,2.318-0.292
				c0.738-0.082,1.633-0.2,2.653-0.397c1.022-0.19,2.191-0.355,3.431-0.667c1.251-0.279,2.604-0.59,4.012-1.019
				c1.425-0.369,2.877-0.918,4.395-1.442c0.756-0.27,1.504-0.603,2.272-0.911c0.773-0.295,1.538-0.635,2.299-1.003
				c1.426-0.631,2.821-1.371,4.223-2.11c-0.084-0.557-0.171-1.115-0.26-1.673c-0.063,0.038-0.123,0.077-0.184,0.115
				C97.096,123.381,95.649,124.243,94.167,124.978z"/>
			<path fill="#6D892C" d="M91.585,111.38c-1.758,0.68-3.52,1.281-5.211,1.896c-3.402,1.188-6.581,2.297-9.292,3.296
				c-2.714,0.994-4.974,1.84-6.529,2.479c-1.561,0.628-2.452,0.988-2.452,0.988l0.068,0.186c0,0,0.91-0.314,2.5-0.862
				c1.591-0.559,3.876-1.282,6.633-2.133c2.76-0.836,5.981-1.814,9.433-2.864c1.722-0.549,3.508-1.084,5.307-1.704
				c1.48-0.478,2.966-1.008,4.454-1.551c-0.116-0.507-0.236-1.014-0.357-1.521C94.623,110.21,93.105,110.821,91.585,111.38z"/>
			<path fill="#6D892C" d="M89.655,96.6c-0.743,0.532-1.508,1.029-2.283,1.502c-0.775,0.476-1.528,0.981-2.309,1.43
				c-1.568,0.872-3.093,1.779-4.646,2.503c-0.772,0.371-1.515,0.775-2.274,1.097c-0.758,0.326-1.5,0.645-2.222,0.954
				c-0.36,0.158-0.716,0.313-1.067,0.464c-0.359,0.13-0.713,0.26-1.061,0.387c-0.696,0.254-1.367,0.499-2.013,0.737
				c-1.289,0.482-2.513,0.769-3.581,1.106c-1.06,0.343-2.026,0.532-2.812,0.713c-1.573,0.354-2.471,0.557-2.471,0.557l0.04,0.195
				c0,0,0.904-0.155,2.497-0.426c0.794-0.138,1.762-0.271,2.854-0.562c1.092-0.283,2.357-0.51,3.68-0.926
				c0.665-0.203,1.358-0.413,2.076-0.631c0.356-0.108,0.721-0.221,1.092-0.337c0.364-0.134,0.73-0.27,1.104-0.405
				c0.745-0.282,1.514-0.573,2.298-0.866c0.782-0.298,1.552-0.677,2.349-1.02c1.609-0.673,3.191-1.529,4.826-2.355
				c0.812-0.421,1.598-0.904,2.405-1.359c0.81-0.452,1.608-0.922,2.385-1.436c0.692-0.441,1.391-0.872,2.078-1.321
				c-0.175-0.571-0.351-1.145-0.529-1.716c-0.062,0.044-0.12,0.09-0.182,0.136C91.158,95.565,90.401,96.072,89.655,96.6z"/>
			<path fill="#6D892C" d="M82.97,84.5c-1.566,0.775-3.131,1.551-4.67,2.314c-1.524,0.785-3.083,1.445-4.583,2.096
				c-1.496,0.659-2.898,1.394-4.278,1.978c-1.383,0.581-2.687,1.145-3.886,1.683c-0.6,0.273-1.176,0.53-1.724,0.779
				c-0.557,0.221-1.085,0.429-1.583,0.623c-0.993,0.398-1.86,0.757-2.571,1.065c-1.425,0.598-2.237,0.981-2.237,0.981l0.05,0.196
				c0.001,0,0.87-0.154,2.389-0.489c0.759-0.159,1.683-0.37,2.738-0.625c0.527-0.132,1.089-0.271,1.682-0.421
				c0.577-0.184,1.187-0.382,1.823-0.588c1.271-0.415,2.644-0.883,4.093-1.397c1.456-0.495,2.91-1.211,4.441-1.886
				c1.511-0.716,3.088-1.423,4.587-2.332c1.521-0.859,3.067-1.73,4.613-2.605c1.429-0.914,2.858-1.826,4.266-2.726
				c-0.161-0.45-0.322-0.896-0.487-1.347c-0.054,0.032-0.11,0.063-0.167,0.094C85.983,82.754,84.477,83.627,82.97,84.5z"/>
			<path fill="#6D892C" d="M77.673,71.165c-1.448,1.003-2.862,2.054-4.347,2.953c-1.453,0.944-2.927,1.8-4.339,2.648
				c-2.835,1.675-5.516,3.191-7.868,4.402c-0.585,0.31-1.145,0.606-1.68,0.887c-0.543,0.265-1.058,0.516-1.542,0.749
				c-0.965,0.484-1.805,0.912-2.514,1.234c-1.41,0.651-2.211,1.061-2.211,1.059l0.064,0.188c0,0,0.873-0.191,2.389-0.595
				c0.769-0.176,1.677-0.466,2.712-0.814c1.042-0.332,2.207-0.748,3.45-1.271c0.618-0.26,1.281-0.5,1.94-0.808
				c0.657-0.31,1.337-0.632,2.034-0.96c0.709-0.315,1.403-0.699,2.112-1.093c0.708-0.396,1.443-0.779,2.169-1.208
				c1.421-0.911,2.909-1.819,4.324-2.884c1.453-1.01,2.853-2.137,4.275-3.232c1.345-1.137,2.721-2.234,3.981-3.425
				c-0.187-0.441-0.375-0.878-0.561-1.311c-0.088,0.071-0.171,0.144-0.259,0.217C80.494,69.047,79.063,70.083,77.673,71.165z"/>
			<path fill="#6D892C" d="M66.463,56.726c-1.147,1.056-2.279,2.13-3.454,3.112c-0.583,0.497-1.16,0.989-1.733,1.473
				c-0.58,0.471-1.154,0.937-1.719,1.393c-1.101,0.952-2.234,1.77-3.253,2.625c-0.532,0.396-1.051,0.778-1.553,1.149
				c-0.491,0.391-0.979,0.745-1.465,1.058c-0.963,0.644-1.822,1.283-2.644,1.741c-0.812,0.484-1.496,0.964-2.107,1.262
				c-1.206,0.632-1.898,1.036-1.898,1.036l0.065,0.184c0,0,0.768-0.184,2.109-0.581c0.687-0.16,1.453-0.511,2.36-0.87
				c0.917-0.348,1.885-0.858,2.946-1.422c1.081-0.532,2.139-1.28,3.309-2.004c1.113-0.791,2.31-1.614,3.442-2.584
				c0.563-0.49,1.134-0.984,1.716-1.489c0.551-0.528,1.111-1.062,1.677-1.603c1.126-1.081,2.221-2.223,3.32-3.356
				c2.186-2.281,4.28-4.637,6.21-6.868c0.037-0.041,0.073-0.082,0.11-0.125c-0.194-0.354-0.387-0.703-0.579-1.051
				c-0.128,0.134-0.254,0.27-0.38,0.407C70.915,52.338,68.725,54.577,66.463,56.726z"/>
			<path fill="#6D892C" d="M61.259,42.132c-1.113,1.091-2.196,2.211-3.372,3.192c-1.131,1.032-2.329,1.945-3.445,2.875
				c-1.169,0.861-2.24,1.78-3.334,2.542c-0.538,0.396-1.063,0.777-1.571,1.146c-0.523,0.352-1.028,0.692-1.51,1.021
				c-0.959,0.673-1.872,1.236-2.684,1.74c-0.802,0.522-1.514,0.96-2.11,1.305c-1.189,0.695-1.861,1.129-1.863,1.127l0.078,0.184
				c0,0,0.762-0.222,2.083-0.683c0.33-0.113,0.698-0.237,1.095-0.375c0.388-0.166,0.806-0.343,1.255-0.533
				c0.894-0.384,1.909-0.819,2.956-1.405c0.531-0.284,1.083-0.582,1.656-0.885c0.548-0.344,1.116-0.698,1.702-1.064
				c1.194-0.697,2.324-1.618,3.537-2.512c1.124-1,2.341-1.975,3.424-3.127c1.137-1.097,2.199-2.297,3.272-3.48
				c1.018-1.233,2.067-2.438,2.981-3.719c0.309-0.398,0.6-0.803,0.888-1.209c-0.254-0.378-0.507-0.755-0.762-1.127
				c-0.385,0.503-0.781,1.006-1.199,1.497C63.386,39.849,62.304,40.978,61.259,42.132z"/>
			<path fill="#6D892C" d="M50.519,25.039c-0.601,0.812-1.223,1.651-1.853,2.504c-0.644,0.844-1.245,1.731-1.932,2.559
				c-1.412,1.632-2.873,3.216-4.158,4.767c-0.313,0.394-0.63,0.775-0.92,1.164c-0.313,0.372-0.619,0.733-0.918,1.089
				c-0.602,0.703-1.157,1.383-1.659,2.019c-2.018,2.54-3.181,4.436-3.181,4.436l0.142,0.139c0,0,1.791-1.278,4.208-3.502
				c0.606-0.553,1.254-1.164,1.922-1.823c0.7-0.633,1.345-1.384,1.982-2.191c1.267-1.616,2.533-3.403,3.849-5.145
				c0.637-0.886,1.194-1.838,1.787-2.736c0.578-0.907,1.149-1.799,1.7-2.663c0.529-0.873,1.127-1.67,1.539-2.508
				c0.188-0.35,0.37-0.689,0.549-1.022c-0.195-0.208-0.388-0.414-0.583-0.618c-0.247,0.375-0.502,0.764-0.764,1.164
				C51.732,23.462,51.108,24.215,50.519,25.039z"/>
		</g>
		<path fill="#658A2F" d="M79.301,146.845c-2.404-5.772-4.761-11.567-7.08-17.393c-4.638-11.653-9.329-23.298-14.493-34.822
			c-1.297-2.875-2.631-5.679-3.963-8.557c-1.314-2.832-2.665-5.644-3.911-8.509c-2.555-5.702-4.92-11.49-7.27-17.293
			c-4.679-11.614-9.008-23.39-13.51-35.108c-2.26-5.855-4.602-11.683-7.007-17.479c-1.064-2.556-2.159-5.096-3.277-7.626
			C18.543,0.016,18.412,0,18.412,0s-0.032,0.044-0.095,0.132c1.025,2.607,2.035,5.22,3.02,7.841
			c2.184,5.876,4.289,11.779,6.338,17.704c4.158,11.831,8.146,23.728,12.504,35.521c2.166,5.9,4.46,11.761,6.92,17.56
			c1.198,2.911,2.507,5.779,3.779,8.663c1.245,2.84,2.55,5.725,3.778,8.594c2.428,5.739,4.783,11.532,7.044,17.369l6.768,17.545
			c2.261,5.855,4.568,11.701,6.931,17.533c2.506,5.839,4.972,11.532,7.397,17.323c1.812,4.327,3.588,8.668,5.319,13.021
			c1.434,0.739,2.228,1.044,2.228,1.044c0.653-0.971,1.267-1.965,1.849-2.975c-1.739-4.29-3.533-8.558-5.359-12.803
			C84.36,158.311,81.794,152.513,79.301,146.845z"/>
		<g>
			<g>
				<path fill="#809D2C" d="M67.589,119.636c0,0,0.188,0.584,0.541,1.599c0.181,0.506,0.397,1.121,0.649,1.824
					c0.248,0.705,0.55,1.496,0.873,2.355c0.323,0.863,0.674,1.794,1.07,2.772c0.38,0.981,0.829,2.003,1.269,3.064
					c0.453,1.057,0.893,2.162,1.334,3.286c0.434,1.127,0.862,2.276,1.275,3.432c0.847,2.303,1.756,4.579,2.599,6.722
					c0.421,1.07,0.854,2.093,1.25,3.07c0.395,0.979,0.788,1.896,1.149,2.741c0.713,1.698,1.337,3.102,1.774,4.079
					c0.443,0.981,0.697,1.54,0.697,1.54l0.043-0.02c0,0-0.207-0.574-0.568-1.587c-0.372-1.007-0.901-2.445-1.568-4.162
					c-0.33-0.857-0.687-1.788-1.084-2.766c-0.396-0.975-0.799-2.01-1.242-3.07c-0.442-1.063-0.901-2.159-1.364-3.274
					c-0.471-1.114-0.956-2.241-1.447-3.365c-0.475-1.131-0.938-2.267-1.376-3.391c-0.434-1.13-0.855-2.242-1.235-3.328
					c-0.393-1.079-0.75-2.134-1.131-3.115c-0.367-0.991-0.739-1.915-1.084-2.766c-0.342-0.854-0.652-1.641-0.945-2.328
					c-0.292-0.688-0.543-1.289-0.751-1.785c-0.427-0.986-0.68-1.546-0.68-1.546L67.589,119.636z"/>
				<path fill="#809D2C" d="M41.711,62.364c0,0,0.062,0.409,0.206,1.008c0.032,0.149,0.071,0.313,0.12,0.484
					c0.04,0.169,0.113,0.344,0.171,0.528c0.125,0.365,0.239,0.76,0.333,1.161c0.111,0.397,0.228,0.791,0.345,1.16
					c0.113,0.367,0.251,0.702,0.375,0.985c0.237,0.571,0.421,0.939,0.421,0.939l0.014-0.006c0,0-0.114-0.399-0.322-0.975
					c-0.05-0.146-0.105-0.303-0.17-0.467c-0.068-0.162-0.111-0.345-0.18-0.524c-0.122-0.364-0.264-0.75-0.41-1.134
					c-0.279-0.775-0.414-1.587-0.587-2.181c-0.16-0.594-0.301-0.983-0.301-0.983L41.711,62.364z"/>
				<path fill="#809D2C" d="M43.932,69.176c0,0,0.221,0.681,0.631,1.67c0.199,0.5,0.465,1.065,0.738,1.673
					c0.279,0.608,0.543,1.271,0.773,1.948c0.231,0.678,0.492,1.341,0.732,1.967c0.124,0.313,0.241,0.616,0.372,0.892
					c0.126,0.279,0.254,0.541,0.374,0.781c0.471,0.965,0.821,1.589,0.821,1.591l0.021-0.012c0,0.001-0.239-0.677-0.657-1.663
					c-0.103-0.246-0.213-0.511-0.34-0.791c-0.129-0.276-0.233-0.584-0.367-0.891c-0.262-0.614-0.535-1.274-0.838-1.922
					c-0.299-0.649-0.561-1.312-0.775-1.95c-0.115-0.316-0.204-0.628-0.33-0.91c-0.115-0.286-0.235-0.547-0.348-0.791
					c-0.44-0.976-0.786-1.604-0.786-1.604L43.932,69.176z"/>
				<path fill="#809D2C" d="M50.609,84.449c0,0,0.295,0.98,0.611,1.953c0.087,0.241,0.177,0.479,0.269,0.705
					c0.093,0.222,0.197,0.419,0.285,0.592c0.18,0.343,0.325,0.556,0.325,0.556l0.023-0.008c0,0-0.057-0.257-0.179-0.621
					c-0.063-0.179-0.134-0.392-0.229-0.609c-0.102-0.218-0.211-0.447-0.319-0.678c-0.372-0.953-0.765-1.897-0.765-1.897
					L50.609,84.449z"/>
				<path fill="#809D2C" d="M52.315,88.844c0,0,0.126,0.265,0.343,0.736c0.208,0.47,0.552,1.127,0.88,1.948
					c0.344,0.816,0.741,1.767,1.139,2.799c0.411,1.027,0.817,2.137,1.239,3.237c0.412,1.106,0.811,2.219,1.223,3.25
					c0.213,0.511,0.401,1.013,0.617,1.475c0.212,0.462,0.412,0.898,0.598,1.304c0.18,0.404,0.368,0.765,0.538,1.084
					c0.167,0.322,0.316,0.597,0.443,0.826c0.247,0.454,0.396,0.708,0.396,0.708l0.042-0.019c0,0-0.105-0.276-0.291-0.76
					c-0.092-0.244-0.208-0.532-0.348-0.864c-0.143-0.329-0.279-0.709-0.44-1.123c-0.323-0.824-0.702-1.783-1.105-2.811
					c-0.425-1.024-0.875-2.113-1.326-3.204c-0.452-1.092-0.894-2.186-1.337-3.204c-0.221-0.509-0.419-1.005-0.635-1.467
					c-0.216-0.462-0.419-0.895-0.606-1.298c-0.36-0.813-0.729-1.451-0.955-1.916c-0.237-0.459-0.373-0.721-0.373-0.721
					L52.315,88.844z"/>
				<path fill="#809D2C" d="M38.521,54.865c0,0,0.797,1.696,1.593,3.394c0.197,0.424,0.394,0.85,0.599,1.24
					c0.097,0.194,0.19,0.386,0.279,0.565c0.096,0.177,0.175,0.348,0.241,0.511c0.07,0.16,0.132,0.308,0.19,0.438
					c0.038,0.137,0.076,0.252,0.109,0.351c0.063,0.193,0.1,0.307,0.1,0.307l0.014-0.003c0,0-0.023-0.114-0.068-0.316
					c-0.021-0.101-0.048-0.225-0.083-0.364c-0.051-0.136-0.107-0.285-0.167-0.452c-0.234-0.671-0.703-1.486-1.114-2.327
					c-0.839-1.675-1.681-3.352-1.681-3.352L38.521,54.865z"/>
			</g>
		</g>
	</g>
	<g>
		<path fill="#3D5B2A" d="M115.42,156.376c0,0,14.965-27.41,73.515-42.969c66.17-17.582,86.352,2.826,86.352,2.826
			s-8.472,32.938-72.321,48.005C168.937,172.272,135.205,173.917,115.42,156.376z"/>
		<g>
			<path fill="#6D892C" d="M256.211,111.349c-0.357,0.575-0.687,1.168-1.013,1.759c-0.65,1.183-1.249,2.361-1.855,3.44
				c-0.296,0.542-0.608,1.051-0.893,1.538c-0.283,0.493-0.584,0.933-0.848,1.353c-0.271,0.412-0.54,0.776-0.768,1.106
				c-0.226,0.333-0.456,0.605-0.63,0.841c-0.355,0.462-0.558,0.726-0.558,0.726l0.128,0.113c0,0,0.238-0.233,0.654-0.645
				c0.205-0.206,0.466-0.441,0.733-0.752c0.271-0.307,0.592-0.643,0.919-1.027c0.314-0.391,0.68-0.803,1.023-1.267
				c0.355-0.456,0.71-0.953,1.065-1.471c0.719-1.033,1.437-2.165,2.176-3.25c0.381-0.535,0.749-1.073,1.155-1.559
				c0.395-0.5,0.811-0.953,1.191-1.408c0.388-0.451,0.76-0.885,1.128-1.288c0.154-0.181,0.312-0.346,0.468-0.506
				c-0.591-0.162-1.199-0.318-1.828-0.471c-0.384,0.333-0.749,0.718-1.105,1.129C256.946,110.217,256.549,110.764,256.211,111.349z"
				/>
			<path fill="#6D892C" d="M266.72,128.373c-0.47-0.127-0.979-0.209-1.505-0.372c-0.525-0.143-1.073-0.308-1.643-0.479
				c-0.568-0.174-1.161-0.333-1.762-0.543c-0.606-0.19-1.207-0.444-1.815-0.689c-1.207-0.517-2.421-1.082-3.583-1.564
				c-0.577-0.248-1.146-0.472-1.689-0.667c-0.542-0.203-1.069-0.354-1.545-0.514c-0.483-0.148-0.934-0.261-1.328-0.37
				c-0.392-0.119-0.74-0.175-1.024-0.238c-0.568-0.12-0.896-0.188-0.896-0.188l-0.048,0.164c0,0,0.313,0.111,0.861,0.311
				c0.272,0.104,0.611,0.206,0.979,0.367c0.374,0.157,0.795,0.317,1.245,0.519c0.448,0.214,0.939,0.42,1.442,0.682
				c0.505,0.259,1.041,0.519,1.584,0.814c1.092,0.584,2.23,1.254,3.416,1.898c0.591,0.321,1.188,0.642,1.8,0.934
				c0.601,0.312,1.232,0.559,1.848,0.765c0.629,0.184,1.242,0.334,1.839,0.394c0.591,0.108,1.159,0.102,1.677,0.118
				c0.333,0.013,0.645-0.013,0.938-0.038c0.266-0.327,0.522-0.648,0.772-0.969c-0.086-0.016-0.175-0.035-0.264-0.057
				C267.63,128.557,267.19,128.49,266.72,128.373z"/>
			<path fill="#6D892C" d="M239.277,111.222c-0.695,1.873-1.39,3.747-2.041,5.502c-0.678,1.737-1.299,3.364-1.928,4.714
				c-0.302,0.683-0.596,1.295-0.885,1.826c-0.273,0.537-0.516,1.008-0.753,1.376c-0.448,0.751-0.705,1.18-0.705,1.18l0.14,0.092
				c0,0,0.292-0.406,0.803-1.115c0.268-0.346,0.55-0.799,0.874-1.323c0.339-0.513,0.692-1.109,1.051-1.772
				c0.381-0.654,0.749-1.379,1.144-2.149c0.397-0.768,0.762-1.6,1.161-2.453c0.759-1.711,1.572-3.537,2.385-5.364
				c0.426-0.896,0.822-1.808,1.276-2.666c0.438-0.873,0.875-1.716,1.308-2.527c0.023-0.037,0.038-0.072,0.059-0.11
				c-0.623-0.032-1.259-0.063-1.905-0.087c-0.315,0.67-0.629,1.359-0.898,2.072C239.983,109.34,239.636,110.282,239.277,111.222z"/>
			<path fill="#6D892C" d="M224.883,112.114c-1.529,4.06-2.802,8.186-3.672,11.299c-0.886,3.106-1.479,5.179-1.479,5.179
				l0.159,0.054c0,0,0.753-2.02,1.879-5.049c1.145-3.02,2.61-7.066,4.359-10.967c0.457-0.967,0.887-1.945,1.381-2.871
				c0.478-0.937,0.956-1.844,1.426-2.722c0.099-0.183,0.193-0.364,0.288-0.545c-0.669,0.04-1.349,0.083-2.034,0.132
				c-0.385,0.798-0.775,1.618-1.112,2.475C225.658,110.085,225.276,111.103,224.883,112.114z"/>
			<path fill="#6D892C" d="M211.645,118.701c-0.654,2.387-1.251,4.62-1.854,6.503c-0.281,0.953-0.594,1.801-0.854,2.56
				c-0.252,0.762-0.504,1.419-0.724,1.956c-0.426,1.079-0.669,1.695-0.669,1.695l0.154,0.063c0,0,0.283-0.597,0.774-1.644
				c0.253-0.524,0.547-1.159,0.852-1.912c0.31-0.75,0.679-1.587,1.021-2.521c0.729-1.855,1.481-4.057,2.239-6.424
				c0.754-2.367,1.536-4.895,2.404-7.376c0.46-1.23,0.892-2.47,1.416-3.644c0.029-0.069,0.061-0.137,0.09-0.206
				c-0.586,0.081-1.18,0.167-1.774,0.254c-0.361,1.047-0.685,2.114-1.017,3.179C212.948,113.74,212.288,116.307,211.645,118.701z"/>
			<path fill="#6D892C" d="M197.708,115.87c-0.175,1.501-0.348,2.983-0.514,4.413c-0.167,1.429-0.352,2.809-0.536,4.11
				c-0.158,1.309-0.384,2.531-0.568,3.668c-0.171,1.14-0.431,2.156-0.606,3.073c-0.174,0.917-0.391,1.706-0.559,2.36
				c-0.335,1.301-0.527,2.044-0.527,2.044l0.162,0.048c0,0,0.232-0.733,0.639-2.016c0.205-0.642,0.462-1.413,0.689-2.328
				c0.226-0.914,0.545-1.934,0.78-3.064c0.248-1.13,0.543-2.35,0.775-3.655c0.26-1.3,0.485-2.678,0.718-4.102
				c0.226-1.426,0.458-2.897,0.695-4.393c0.231-1.492,0.495-3,0.774-4.502c0.054-0.253,0.105-0.508,0.159-0.763
				c-0.483,0.108-0.968,0.216-1.453,0.326c-0.012,0.07-0.023,0.141-0.033,0.211C198.081,112.831,197.877,114.365,197.708,115.87z"/>
			<path fill="#6D892C" d="M185.92,137.622l0.168,0.003c-0.004,0,0.178-2.934,0.347-7.343c0.197-4.408,0.349-10.281,0.919-16.104
				c0.012-0.118,0.026-0.233,0.039-0.35c-0.464,0.125-0.93,0.251-1.388,0.379c-0.304,5.86-0.25,11.692-0.161,16.067
				C185.93,134.681,185.92,137.622,185.92,137.622z"/>
			<path fill="#6D892C" d="M174.943,123.876c0.077,0.723,0.156,1.433,0.233,2.134c0.162,1.403,0.28,2.76,0.465,4.042
				c0.211,1.276,0.407,2.483,0.592,3.601c0.182,1.115,0.34,2.137,0.56,3.022c0.195,0.893,0.371,1.67,0.514,2.312
				c0.284,1.279,0.444,2.013,0.444,2.013l0.165-0.031c0,0-0.121-0.743-0.332-2.035c-0.104-0.651-0.233-1.436-0.382-2.337
				c-0.169-0.901-0.27-1.925-0.387-3.042c-0.118-1.111-0.249-2.317-0.385-3.594c-0.089-1.28-0.185-2.632-0.283-4.029
				c-0.044-0.699-0.093-1.409-0.139-2.13c-0.047-0.719-0.045-1.449-0.071-2.185c-0.031-1.421-0.065-2.866-0.101-4.309
				c-0.443,0.145-0.878,0.293-1.314,0.441c0.085,1.318,0.175,2.632,0.26,3.931C174.837,122.417,174.869,123.154,174.943,123.876z"/>
			<path fill="#6D892C" d="M164.05,124.486c0.256,1.299,0.524,2.576,0.827,3.792c0.579,2.451,1.233,4.699,1.797,6.624
				c1.14,3.839,1.861,6.41,1.861,6.41l0.163-0.038c0,0-0.558-2.613-1.453-6.519c-0.214-0.978-0.449-2.038-0.696-3.156
				c-0.219-1.124-0.502-2.295-0.717-3.524c-0.243-1.223-0.449-2.492-0.64-3.783c-0.114-0.643-0.162-1.296-0.244-1.949
				c-0.042-0.343-0.083-0.683-0.118-1.024c-0.416,0.164-0.828,0.333-1.237,0.502c0.037,0.23,0.072,0.46,0.112,0.692
				C163.822,123.173,163.905,123.838,164.05,124.486z"/>
			<path fill="#6D892C" d="M156.709,135.888c0.25,1.149,0.478,2.232,0.715,3.229c0.45,1.997,0.866,3.658,1.151,4.813
				c0.296,1.156,0.463,1.819,0.463,1.819l0.167-0.034c0,0-0.128-0.67-0.351-1.846c-0.216-1.174-0.525-2.848-0.854-4.863
				c-0.34-2.017-0.679-4.372-1.031-6.896c-0.299-2.264-0.557-4.665-0.754-7.083c-0.42,0.196-0.834,0.39-1.245,0.584
				c0.302,2.279,0.651,4.527,1.033,6.648C156.243,133.519,156.46,134.739,156.709,135.888z"/>
			<path fill="#6D892C" d="M147.93,139.964c1.215,3.941,1.946,6.592,1.946,6.592l0.164-0.041c0,0-0.567-2.689-1.54-6.702
				c-0.645-2.753-1.501-6.112-2.305-9.688c-0.336,0.188-0.665,0.378-0.996,0.565c0.235,0.854,0.474,1.699,0.708,2.524
				C146.617,135.698,147.329,137.997,147.93,139.964z"/>
			<path fill="#6D892C" d="M142.526,147.975l0.16-0.047c-0.001,0-0.687-2.47-1.794-6.15c-0.607-2.08-1.36-4.54-2.132-7.176
				c-0.299,0.19-0.59,0.388-0.882,0.578c0.87,2.502,1.719,4.826,2.454,6.782C141.678,145.559,142.526,147.979,142.526,147.975z"/>
			<path fill="#6D892C" d="M138.113,149.379l0.14-0.092c0,0-1.231-2.039-3.087-5.097c-0.873-1.467-1.89-3.169-2.978-4.987
				c-0.259,0.196-0.516,0.39-0.769,0.587c1.163,1.743,2.273,3.35,3.253,4.725C136.739,147.432,138.113,149.379,138.113,149.379z"/>
			<path fill="#6D892C" d="M128.133,152.11l0.121-0.117c0,0-1.12-1.245-2.799-3.118c-0.596-0.67-1.266-1.42-1.977-2.22
				c-0.216,0.21-0.423,0.416-0.628,0.619c0.778,0.74,1.517,1.42,2.177,2.022C126.892,150.986,128.133,152.11,128.133,152.11z"/>
			<path fill="#6D892C" d="M129.271,156.846c-0.02-0.933-0.028-1.47-0.028-1.47h-0.167c0,0-0.034,0.533-0.092,1.464
				c-0.05,0.934-0.118,2.271-0.152,3.877c-0.03,1.193-0.04,2.533-0.006,3.969c0.306,0.128,0.616,0.251,0.925,0.374
				c-0.143-1.574-0.26-3.051-0.331-4.353C129.327,159.114,129.292,157.784,129.271,156.846z"/>
			<path fill="#6D892C" d="M139.288,161.765c-0.072-1.144-0.143-2.223-0.206-3.22c-0.016-1-0.032-1.914-0.045-2.728
				c-0.023-0.813,0.039-1.524,0.049-2.111c0.037-1.169,0.063-1.839,0.063-1.839l-0.169-0.009c0,0-0.065,0.664-0.182,1.832
				c-0.044,0.584-0.15,1.285-0.18,2.105c-0.036,0.818-0.08,1.746-0.128,2.756c0.004,1.01,0.006,2.102,0.006,3.261
				c0.052,1.152,0.121,2.375,0.224,3.632c0.098,0.807,0.174,1.633,0.275,2.471c0.381,0.085,0.766,0.171,1.152,0.254
				c-0.177-0.959-0.302-1.908-0.456-2.836C139.526,164.102,139.419,162.902,139.288,161.765z"/>
			<path fill="#6D892C" d="M150.442,162.921c-0.395-2.458-0.747-4.763-0.981-6.748c-0.249-1.984-0.426-3.642-0.543-4.8
				c-0.117-1.166-0.184-1.829-0.184-1.829l-0.17,0.013c0,0,0.025,0.667,0.072,1.832c0.04,1.168,0.113,2.838,0.236,4.839
				c0.058,1.003,0.134,2.086,0.233,3.231c0.076,1.146,0.237,2.354,0.367,3.604c0.172,1.244,0.319,2.537,0.554,3.839
				c0.142,0.92,0.319,1.841,0.507,2.769c0.451,0.038,0.905,0.072,1.359,0.104c-0.264-1.031-0.518-2.06-0.727-3.088
				C150.874,165.413,150.67,164.144,150.442,162.921z"/>
			<path fill="#6D892C" d="M161.255,165.861c-0.246-0.658-0.47-1.324-0.66-1.984c-0.196-0.664-0.416-1.312-0.583-1.959
				c-0.324-1.306-0.658-2.56-0.88-3.772c-0.27-1.206-0.445-2.362-0.596-3.429c-0.186-1.066-0.246-2.051-0.342-2.921
				c-0.101-0.873-0.143-1.642-0.164-2.273c-0.063-1.261-0.1-1.984-0.1-1.984l-0.169,0.007c0,0-0.007,0.72-0.02,1.983
				c-0.011,0.636-0.016,1.403,0.035,2.283c0.046,0.886,0.049,1.889,0.171,2.969c0.092,1.086,0.2,2.267,0.402,3.499
				c0.146,1.245,0.444,2.53,0.714,3.87c0.141,0.67,0.337,1.34,0.506,2.022c0.164,0.687,0.363,1.368,0.587,2.052
				c0.369,1.276,0.832,2.537,1.298,3.804c0.479-0.007,0.959-0.017,1.441-0.028c-0.028-0.058-0.052-0.111-0.078-0.169
				C162.268,168.512,161.71,167.195,161.255,165.861z"/>
			<path fill="#6D892C" d="M173.02,165.236c-0.375-1.563-0.683-3.119-1.007-4.614c-0.614-3-1.191-5.81-1.721-8.211
				c-0.527-2.399-0.984-4.403-1.345-5.788c-0.354-1.387-0.553-2.181-0.553-2.181l-0.165,0.038c0,0,0.159,0.803,0.442,2.206
				c0.29,1.407,0.639,3.414,1.042,5.837c0.391,2.422,0.848,5.251,1.339,8.28c0.267,1.514,0.516,3.083,0.832,4.671
				c0.234,1.302,0.512,2.616,0.802,3.934c0.438-0.041,0.878-0.086,1.322-0.131C173.658,167.928,173.315,166.579,173.02,165.236z"/>
			<path fill="#6D892C" d="M185.702,165.292c-0.366-0.688-0.695-1.391-1.007-2.096c-0.314-0.711-0.654-1.403-0.943-2.111
				c-0.558-1.423-1.146-2.813-1.581-4.207c-0.223-0.692-0.479-1.362-0.665-2.038c-0.189-0.677-0.373-1.34-0.554-1.984
				c-0.088-0.321-0.179-0.639-0.268-0.952c-0.069-0.318-0.14-0.63-0.206-0.938c-0.133-0.619-0.264-1.213-0.391-1.784
				c-0.259-1.141-0.361-2.207-0.523-3.144c-0.169-0.934-0.22-1.771-0.282-2.454c-0.122-1.365-0.187-2.146-0.187-2.146l-0.17,0.01
				c0,0,0.028,0.781,0.073,2.155c0.027,0.687,0.029,1.519,0.149,2.471c0.114,0.955,0.16,2.045,0.362,3.207
				c0.092,0.584,0.191,1.193,0.294,1.822c0.053,0.314,0.105,0.635,0.16,0.962c0.069,0.321,0.144,0.648,0.217,0.979
				c0.15,0.66,0.308,1.34,0.469,2.035c0.16,0.691,0.392,1.384,0.591,2.096c0.383,1.435,0.924,2.867,1.435,4.34
				c0.264,0.729,0.581,1.447,0.87,2.182c0.292,0.733,0.598,1.461,0.939,2.175c0.296,0.635,0.577,1.276,0.88,1.902
				c0.499-0.081,1.003-0.162,1.508-0.252c-0.033-0.054-0.066-0.11-0.097-0.164C186.402,166.677,186.06,165.982,185.702,165.292z"/>
			<path fill="#6D892C" d="M196.667,161.035c-0.476-1.409-0.95-2.816-1.419-4.2c-0.489-1.378-0.866-2.766-1.244-4.105
				c-0.389-1.334-0.845-2.604-1.183-3.836c-0.331-1.231-0.656-2.395-0.974-3.467c-0.162-0.537-0.313-1.051-0.46-1.54
				c-0.122-0.495-0.237-0.966-0.347-1.406c-0.221-0.883-0.425-1.654-0.603-2.29c-0.344-1.27-0.574-2-0.574-2l-0.171,0.022
				c0,0,0.03,0.749,0.141,2.067c0.047,0.66,0.12,1.463,0.214,2.381c0.052,0.46,0.104,0.949,0.161,1.467
				c0.093,0.508,0.188,1.045,0.289,1.604c0.206,1.121,0.445,2.33,0.713,3.61c0.252,1.286,0.69,2.594,1.084,3.959
				c0.433,1.355,0.849,2.769,1.445,4.134c0.549,1.381,1.109,2.788,1.668,4.191c0.607,1.308,1.214,2.616,1.812,3.908
				c0.397-0.086,0.794-0.171,1.191-0.258c-0.02-0.05-0.04-0.101-0.06-0.152C197.796,163.775,197.233,162.404,196.667,161.035z"/>
			<path fill="#6D892C" d="M208.517,158.091c-0.683-1.336-1.406-2.651-1.993-4.007c-0.632-1.33-1.187-2.67-1.74-3.96
				c-1.09-2.58-2.061-5.013-2.815-7.134c-0.195-0.53-0.379-1.038-0.558-1.518c-0.158-0.489-0.313-0.953-0.455-1.388
				c-0.295-0.866-0.563-1.625-0.754-2.261c-0.387-1.264-0.642-1.984-0.642-1.984l-0.165,0.031c0,0,0.063,0.76,0.229,2.083
				c0.06,0.67,0.202,1.464,0.377,2.379c0.162,0.917,0.378,1.946,0.68,3.051c0.146,0.556,0.276,1.141,0.458,1.73
				c0.188,0.591,0.38,1.2,0.577,1.826c0.184,0.635,0.432,1.264,0.683,1.904c0.254,0.642,0.493,1.309,0.771,1.966
				c0.606,1.305,1.199,2.661,1.94,3.979c0.686,1.34,1.477,2.648,2.235,3.972c0.807,1.264,1.574,2.55,2.435,3.746
				c0.394-0.104,0.783-0.216,1.171-0.323c-0.054-0.083-0.104-0.158-0.154-0.241C209.981,160.708,209.268,159.387,208.517,158.091z"
				/>
			<path fill="#6D892C" d="M221.97,150.281c-0.759-1.086-1.537-2.162-2.229-3.267c-0.354-0.55-0.702-1.09-1.049-1.626
				c-0.328-0.546-0.656-1.083-0.975-1.609c-0.676-1.039-1.237-2.086-1.844-3.046c-0.273-0.495-0.536-0.975-0.793-1.441
				c-0.272-0.457-0.518-0.908-0.726-1.353c-0.432-0.886-0.871-1.686-1.165-2.429c-0.313-0.739-0.642-1.372-0.822-1.921
				c-0.396-1.093-0.656-1.718-0.656-1.718l-0.166,0.032c0,0,0.068,0.669,0.251,1.845c0.058,0.597,0.265,1.286,0.467,2.089
				c0.186,0.813,0.507,1.689,0.859,2.647c0.326,0.976,0.836,1.95,1.313,3.017c0.542,1.032,1.101,2.134,1.787,3.2
				c0.349,0.527,0.701,1.067,1.06,1.613c0.385,0.527,0.77,1.061,1.162,1.601c0.78,1.069,1.617,2.124,2.451,3.182
				c1.677,2.102,3.423,4.137,5.083,6.02c0.03,0.038,0.061,0.069,0.092,0.104c0.321-0.12,0.639-0.244,0.953-0.365
				c-0.099-0.123-0.199-0.244-0.299-0.367C225.164,154.539,223.525,152.433,221.97,150.281z"/>
			<path fill="#6D892C" d="M234.871,147.56c-0.793-1.064-1.615-2.105-2.309-3.207c-0.739-1.073-1.374-2.188-2.03-3.236
				c-0.594-1.082-1.246-2.089-1.762-3.099c-0.272-0.498-0.536-0.987-0.79-1.457c-0.237-0.479-0.466-0.943-0.686-1.391
				c-0.459-0.883-0.832-1.718-1.164-2.461c-0.347-0.736-0.636-1.384-0.857-1.927c-0.452-1.083-0.741-1.702-0.741-1.699l-0.163,0.044
				c0.002,0,0.104,0.667,0.339,1.833c0.057,0.292,0.12,0.616,0.19,0.965c0.095,0.35,0.196,0.721,0.308,1.121
				c0.222,0.797,0.474,1.702,0.848,2.654c0.179,0.479,0.365,0.978,0.556,1.496c0.229,0.501,0.464,1.021,0.705,1.556
				c0.45,1.088,1.102,2.146,1.715,3.271c0.716,1.06,1.396,2.196,2.246,3.244c0.796,1.08,1.688,2.114,2.561,3.153
				c0.927,1,1.821,2.025,2.798,2.939c0.301,0.305,0.608,0.601,0.918,0.89c0.35-0.175,0.694-0.346,1.038-0.518
				c-0.38-0.381-0.76-0.771-1.127-1.182C236.553,149.614,235.725,148.573,234.871,147.56z"/>
			<path fill="#6D892C" d="M250.508,140.451c-0.615-0.597-1.252-1.22-1.898-1.848c-0.639-0.639-1.318-1.245-1.938-1.922
				c-1.215-1.374-2.385-2.787-3.544-4.048c-0.297-0.308-0.583-0.618-0.878-0.907c-0.278-0.308-0.548-0.61-0.813-0.902
				c-0.524-0.584-1.036-1.13-1.516-1.625c-1.911-1.994-3.376-3.191-3.376-3.191l-0.134,0.105c0,0,0.875,1.657,2.474,3.946
				c0.396,0.575,0.84,1.191,1.319,1.829c0.454,0.664,1.013,1.292,1.623,1.92c1.214,1.254,2.578,2.527,3.898,3.833
				c0.674,0.641,1.413,1.219,2.103,1.819c0.698,0.59,1.384,1.175,2.05,1.736c0.674,0.546,1.28,1.143,1.94,1.588
				c0.273,0.196,0.538,0.388,0.801,0.577c0.196-0.14,0.392-0.282,0.585-0.422c-0.286-0.251-0.585-0.508-0.893-0.777
				C251.698,141.654,251.136,141.042,250.508,140.451z"/>
		</g>
		<path fill="#658A2F" d="M144.51,150.831c5.145-1.369,10.3-2.692,15.477-3.985c10.355-2.581,20.711-5.21,31.017-8.252
			c2.572-0.766,5.09-1.572,7.667-2.368c2.538-0.781,5.065-1.601,7.623-2.321c5.099-1.505,10.251-2.842,15.411-4.16
			c10.327-2.619,20.751-4.928,31.146-7.387c5.193-1.24,10.373-2.55,15.537-3.917c2.274-0.604,4.542-1.24,6.807-1.894
			c0.063-0.205,0.092-0.313,0.092-0.313s-0.036-0.034-0.102-0.097c-2.314,0.568-4.633,1.121-6.955,1.652
			c-5.206,1.172-10.423,2.274-15.653,3.328c-10.451,2.156-20.938,4.164-31.381,6.491c-5.222,1.156-10.425,2.422-15.596,3.833
			c-2.592,0.679-5.16,1.457-7.736,2.2c-2.536,0.728-5.12,1.498-7.678,2.207c-5.114,1.394-10.269,2.717-15.448,3.956l-15.567,3.709
			c-5.194,1.237-10.39,2.517-15.575,3.841c-5.211,1.451-10.294,2.88-15.452,4.265c-3.854,1.035-7.717,2.038-11.586,3
			c-0.789,1.124-1.137,1.759-1.137,1.759c0.747,0.661,1.515,1.293,2.3,1.899c3.816-0.978,7.619-2.004,11.407-3.058
			C134.268,153.79,139.45,152.288,144.51,150.831z"/>
		<g>
			<g>
				<path fill="#809D2C" d="M168.794,144.057c0,0-0.516,0.093-1.411,0.273c-0.446,0.092-0.992,0.209-1.611,0.34
					c-0.623,0.13-1.322,0.292-2.087,0.467c-0.762,0.175-1.59,0.361-2.458,0.584c-0.872,0.21-1.783,0.474-2.73,0.724
					c-0.943,0.261-1.923,0.505-2.921,0.75c-1,0.237-2.019,0.467-3.04,0.683c-2.04,0.454-4.064,0.959-5.964,1.426
					c-0.95,0.231-1.864,0.479-2.734,0.701c-0.869,0.223-1.686,0.451-2.441,0.657c-1.513,0.409-2.768,0.775-3.645,1.032
					c-0.875,0.26-1.375,0.413-1.375,0.413l0.01,0.037c0,0,0.511-0.107,1.404-0.298c0.895-0.197,2.166-0.479,3.688-0.848
					c0.763-0.178,1.586-0.375,2.456-0.598c0.869-0.225,1.787-0.443,2.732-0.698c0.945-0.251,1.923-0.515,2.916-0.777
					c0.991-0.271,1.998-0.55,3.002-0.835c1.008-0.273,2.02-0.534,3.019-0.778c1-0.231,1.985-0.464,2.944-0.66
					c0.956-0.207,1.885-0.388,2.757-0.601c0.876-0.193,1.698-0.403,2.458-0.597c0.758-0.19,1.454-0.362,2.069-0.53
					c0.612-0.168,1.149-0.312,1.591-0.432c0.879-0.247,1.378-0.397,1.378-0.397L168.794,144.057z"/>
				<path fill="#809D2C" d="M220.041,128.766c0,0-0.354,0.007-0.874,0.061c-0.132,0.01-0.273,0.022-0.422,0.047
					c-0.148,0.013-0.306,0.051-0.465,0.083c-0.325,0.063-0.669,0.115-1.019,0.146c-0.346,0.051-0.691,0.105-1.016,0.159
					c-0.324,0.054-0.623,0.13-0.875,0.206c-0.508,0.134-0.84,0.248-0.84,0.248l0.004,0.009c0,0,0.349-0.05,0.86-0.159
					c0.127-0.025,0.266-0.054,0.412-0.088c0.146-0.042,0.302-0.057,0.464-0.095c0.32-0.061,0.66-0.137,0.999-0.216
					c0.688-0.146,1.389-0.166,1.906-0.245c0.52-0.07,0.864-0.143,0.864-0.143V128.766z"/>
				<path fill="#809D2C" d="M214.042,129.862c0,0-0.601,0.111-1.481,0.346c-0.441,0.108-0.949,0.267-1.493,0.428
					c-0.546,0.166-1.134,0.315-1.73,0.429c-0.597,0.121-1.188,0.264-1.742,0.394c-0.277,0.07-0.546,0.134-0.795,0.213
					c-0.252,0.073-0.485,0.153-0.701,0.226c-0.87,0.285-1.436,0.512-1.436,0.512l0.007,0.019c0-0.003,0.6-0.124,1.476-0.365
					c0.22-0.057,0.458-0.121,0.708-0.196c0.247-0.076,0.52-0.127,0.791-0.207c0.549-0.149,1.137-0.304,1.717-0.489
					c0.582-0.174,1.173-0.321,1.732-0.429c0.282-0.061,0.555-0.102,0.806-0.174c0.254-0.067,0.489-0.137,0.706-0.204
					c0.875-0.26,1.442-0.479,1.442-0.479L214.042,129.862z"/>
				<path fill="#809D2C" d="M200.401,133.751c0,0-0.859,0.137-1.717,0.292c-0.213,0.048-0.425,0.095-0.624,0.146
					c-0.196,0.058-0.379,0.121-0.532,0.176c-0.311,0.113-0.508,0.209-0.508,0.209l0.007,0.019c0,0,0.222-0.016,0.543-0.076
					c0.158-0.034,0.344-0.069,0.539-0.124c0.194-0.063,0.4-0.127,0.606-0.193c0.847-0.206,1.69-0.429,1.69-0.429L200.401,133.751z"
					/>
				<path fill="#809D2C" d="M196.503,134.691c0,0-0.242,0.073-0.66,0.203c-0.424,0.121-1.017,0.337-1.747,0.521
					c-0.726,0.197-1.572,0.423-2.49,0.639c-0.911,0.231-1.891,0.447-2.871,0.677c-0.979,0.222-1.962,0.432-2.878,0.66
					c-0.455,0.124-0.9,0.225-1.313,0.353c-0.413,0.127-0.807,0.247-1.166,0.355c-0.364,0.104-0.689,0.226-0.978,0.333
					c-0.289,0.103-0.541,0.193-0.746,0.276c-0.411,0.159-0.643,0.254-0.643,0.254l0.011,0.038c0,0,0.245-0.057,0.675-0.159
					c0.214-0.05,0.473-0.113,0.767-0.193c0.294-0.083,0.633-0.155,0.998-0.244c0.73-0.178,1.582-0.391,2.496-0.612
					c0.91-0.239,1.882-0.496,2.854-0.753c0.97-0.257,1.943-0.502,2.854-0.759c0.452-0.127,0.895-0.241,1.308-0.368
					c0.414-0.13,0.805-0.254,1.164-0.362c0.727-0.213,1.307-0.451,1.725-0.591c0.415-0.146,0.652-0.231,0.652-0.231L196.503,134.691
					z"/>
				<path fill="#809D2C" d="M226.726,126.931c0,0-1.521,0.479-3.043,0.959c-0.38,0.117-0.765,0.232-1.113,0.362
					c-0.177,0.061-0.349,0.118-0.512,0.171c-0.158,0.061-0.311,0.108-0.456,0.146c-0.143,0.038-0.273,0.076-0.391,0.107
					c-0.121,0.02-0.225,0.035-0.309,0.051c-0.172,0.032-0.27,0.05-0.27,0.05v0.013c0,0,0.1-0.007,0.274-0.022
					c0.088-0.007,0.194-0.017,0.314-0.029c0.122-0.026,0.256-0.057,0.402-0.089c0.594-0.121,1.332-0.422,2.09-0.673
					c1.507-0.518,3.019-1.038,3.019-1.038L226.726,126.931z"/>
			</g>
		</g>
	</g>
	<g>
		<path fill="#F7F8F8" d="M103.602,180.634c2.446-0.333,7.501,41.911,2.561,60.374c-4.939,18.46-18.405,34.765-29.733,34.412
			c-10.647-0.333-18.82-8.475-24.109-24.477C47.236,235.557,55.401,187.184,103.602,180.634z"/>
		<path fill-rule="evenodd" clip-rule="evenodd" fill="#EDF0EE" d="M96.52,261.952c6.101-5.506,11.034-10.607,11.925-16.264
			c0.273-1.738-0.299-4.353-0.568-6.11c-0.396-2.592,0.342-4.228,0.371-6.685c0.029-2.387-0.724-4.857-0.698-7.236
			c0.023-2.139,0.68-4.14,0.985-6.283c0.598-4.203,3.228-10.809-1.816-14.982c-5.707,5.432-7.38,7.105-7.942,11.75
			c-0.272,2.242-0.762,4.354-1.076,6.595c-0.628,4.455-0.82,8.363-2.812,12.866c-4.304,9.725-9.058,16.046-18.516,15.401
			c-2.068-0.139-5.957-0.406-6.986-1.267c-3.274-2.73-9.118-8.433-6.949-13.798c-6.772,6.447-4.438,12.458-2.063,18.83
			c1.445,3.881,6.676,9.364,10.676,9.566c-0.231,1.62-4.095,1.186-4.656,1.721C73.748,275.436,88.215,268.969,96.52,261.952z
			 M95.813,253.922c-0.495,2.337-2.459,3.79-4.679,4.216C92.234,257.027,95.849,253.928,95.813,253.922z"/>
		<path fill="#F7F8F8" d="M101.727,178.376c0,0-14.921-29.093-35.924-38.793c-21.002-9.7-52.031-1.66-64.544,26.351
			C-13.304,198.536,103.317,188.373,101.727,178.376"/>
		<path fill-rule="evenodd" clip-rule="evenodd" fill="#EDF0EE" d="M84.048,170.528c8.473-5.115-6.307-18.271-12.177-22.729
			c-1.833-1.395-3.594-2.864-5.533-4.103c-4.599-2.928-7.745-3.832-12.116-4.928c-8.769-2.194-17.413-0.838-25.666,2.771
			c-5.184,2.273-20.681,16.958-18.224,21.626c0.583,1.107,2.99-2.648,3.969-3.49c2.505-2.152,5.482-5.076,8.163-5.771
			c-2.947,3.546-9.795,12.738-10.43,20.263c7.22-8.681,6.143-11.688,13.404-15.438c4.485-2.317,9.192-5.924,14.052-5.169
			c-0.084,0.306,5.569,1.973,5.85,1.426c-0.944,0.42-4.719,1.816-5.38,2.563c-5.188,5.881-6.392,8.817-0.23,4.728
			c5.811-3.857,8.146-2.324,10.738-2.965c3.231-0.807,8.521,1.533,11.82,1.498C66.748,160.758,79.689,171.794,84.048,170.528z"/>
		<path fill="#F7F8F8" d="M102.782,179.082c0,0,24.174-18.85,29.946-39.917c8.108-29.581-3.772-52.718-19.085-66.952
			C96.192,55.99,79.835,69.771,75.95,95.262C72.247,119.543,76.779,154.91,102.782,179.082z"/>
		<path fill-rule="evenodd" clip-rule="evenodd" fill="#EDF0EE" d="M81.899,153.544c2.327-2.797,5.952-6.362,6.245-8.932
			c0.095-0.818-0.601-2.441-0.868-3.213c-0.746-2.159-1.851-4.093-2.435-6.296c-1.049-3.966-1.786-8.919-2.077-13.021
			c-0.57-8,11.423-31.263,6.924-35.005c-1.864,2.245-3.728,4.485-5.591,6.727c-0.031-2.215,1.144-4.786,2.115-7.067
			c1.765-4.144,2.261-6.581,4.947-13.132c-7.481,4.353-14.448,15.521-16.562,21.86c-1.383,4.145-1.572,8.939-1.979,13.138
			c-0.875,9.044,0.136,17.607,1.444,26.443C74.946,141.006,75.517,148.236,81.899,153.544z"/>
		<path fill="#F7F8F8" d="M105.782,177.304c0,0,17.669-41.464,59.956-51.576c42.285-10.115,35.485,16.707,34.17,24.378
			C198.595,157.774,170.112,226.248,105.782,177.304z"/>
		<path fill="#EDF0EE" d="M167.177,131.176c-1.292,1.556-2.584,3.108-3.877,4.664c7.569,0.692,13.32,3.483,20.613,3.061
			c2.814,6.998,0.257,8.604,9.515,6.331c-2.52,7.475-8.984,23.585-7.902,30.942c9.247-10.898,13.87-23.087,14.382-26.068
			c1.315-7.671,8.115-34.493-34.17-24.378c-10.368,2.479-19.252,6.845-26.765,12.021
			C148.866,138.022,157.236,131.357,167.177,131.176z"/>
		<path fill="#F7F8F8" d="M107.051,181.047c0,0,44.937-4.302,73.211,30.522c27.407,33.757,0.391,39.536-7.064,41.762
			C165.74,255.557,91.739,260.421,107.051,181.047z"/>
		<path fill-rule="evenodd" clip-rule="evenodd" fill="#EDF0EE" d="M181.921,245.534c5.667-4.646,13.699-18.149,6.391-22.811
			c-4.16,5.001-14.86,15.911-16.53,16.06c-4.073,0.365-15.26,4.824-19.374,3.819c-4.176-1.015-18.227-2.708-33.338-9.194
			c-9.631-4.134,21.958,15.717,28.473,16c-0.606,0.729,9.604,0.082,8.998,0.809C165.225,254.242,176.622,249.877,181.921,245.534z"
			/>
		<path fill="#FCF6B9" d="M132.193,147.436l11.081-9.379c0,0-6.545,8.884-5.895,9.991c0.651,1.112,19.231-8.341,19.231-8.341
			s-13.024,12.151-12.923,13.075c0.151,1.423,20.413-5.448,20.413-5.448s-16.622,10.357-15.997,12.119
			c0.623,1.759,20.897-2.563,20.897-2.563s-21.826,5.94-21.709,7.668c0.113,1.722,25.016,5.025,25.016,5.025
			s-25.772,0.601-25.283,2.648c0.488,2.051,11.771,7.243,11.771,7.243s-17.184-5.281-15.288-3.217
			c1.896,2.062,17.752,8.211,17.752,8.211s-18.481-0.127-17.833,3.08c0.648,3.199,22.869,14.912,22.869,14.912
			s-21.486-10.461-22.061-9.341c-0.575,1.122,16.331,15.896,16.331,15.896s-16.559-11.228-17.464-10.189
			c-0.904,1.032,12.166,19.962,12.166,19.962s-19.13-15.707-21.042-15.146c-1.911,0.563,5.754,11.519,5.754,11.519
			s-8.547-10.877-9.672-10.051c-1.124,0.821,5.795,13.561,5.795,13.561s-6.82-9.836-7.428-9.141
			c-0.607,0.694,5.628,17.236,5.628,17.236s-7.795-12.897-9.893-11.891c-1.27,0.61-1.78,12.71-1.78,12.71
			s-2.131-16.129-4.808-15.967c-1.334,0.079,0.311,16.704,0.311,16.704s-4.789-15.749-6.085-16.069
			c-1.294-0.321-7.348,19.137-7.892,20.688c-0.545,1.553,3.531-15.796,2.191-17.669c-1.34-1.874-6.333,12.427-7.896,14.913
			c-1.565,2.486,2.716-13.164,2.624-14.298c-0.091-1.134-9.341,13.396-10.348,15.711c-1.01,2.311,6.912-15.104,6.422-17.562
			c-0.491-2.454-13.93,13.383-14.906,14.965c-0.976,1.581,10.177-16.058,9.127-18.797c-1.051-2.743-15.365,14.563-16.243,16.027
			c-0.874,1.467,10.433-17.862,11.151-20.479c0.717-2.616-7.663,2.095-9.824,3.181c-2.164,1.083,7.005-5.695,7.215-8.258
			c0.211-2.563-11.24,2.301-13.704,2.686c-2.616,0.406,12.021-5.554,12.555-8.328c0.535-2.781-7.719,1.092-8.696,1.591
			c-0.978,0.502,6.761-7.426,7.927-9.068c1.165-1.644-24.596-1.876-26.671-1.358c-2.072,0.514,13.625-3.947,14.696-5.173
			c1.072-1.229-15.656-4.559-20.245-4.261c-4.589,0.299,14.185-0.603,14.642-2.362c0.459-1.766-4.609-4.305-6.869-5.601
			c-3.265-1.873,13.324,3.939,15.872,1.025c2.546-2.915-3.119-8.145-7.343-10.475c-4.196-2.314,10.781,4.375,14.005,4.712
			c3.22,0.337-9.919-13.023-10.816-14.164c-0.897-1.14,14.042,9.233,16.309,12.208c1.802,2.368-1.907-32.233-1.976-33.25
			c-0.079-1.187,9.083,17.301,10.98,17.61c1.898,0.304-0.285-9.888-1.242-13.663c-1.156-4.559,3.731,7.217,5.631,9.688
			c1.897,2.467,3.388-7.988,4.003-13.751c0.587-5.463,0.143,8.347,3.746,10.415c2.506,1.438,6.839-15.251,7.879-19.226
			c1.112-4.251-1.335,16.07-0.968,18.125c0.369,2.057,6.804-0.976,9.77-6.227c2.966-5.251-1.308,7.379-0.924,9.877
			c0.386,2.499,4.997-3.743,7.011-5.337c2.015-1.591-3.773,5.191-3.99,8.382c-0.219,3.188,6.836-4.575,8.452-6.271
			c1.619-1.695-4.313,5.557-4.563,8.316C128.892,149.557,127.555,151.024,132.193,147.436"/>
		<polygon fill="#FFF069" points="116.816,155.485 129.017,151.719 125.443,155.812 130.429,155.227 134.699,156.685 
			131.125,160.778 135.295,162.813 145.052,163.41 141.125,165.118 139.435,166.429 136.7,167.741 141.032,170.173 144.58,171.373 
			141.206,172.76 139.539,173.739 139.51,175.32 141.208,178.774 139.577,178.294 134.487,180.14 137.897,186.449 142.129,192.769 
			138.84,191.249 137.002,191.804 132.768,191.081 132.391,195.221 132.264,197.536 133.261,200.572 131.816,200.056 
			128.298,197.586 125.769,195.374 126.425,198.027 126.673,200.682 125.057,200.52 121.403,198.05 122.279,200.435 
			121.779,202.572 120.507,206.191 118.936,205.36 117.038,200.724 114.491,197.135 111.606,196.453 108.938,201.015 
			105.117,205.924 103.941,203.342 102.534,204.952 99.519,208.401 97.207,211.045 96.456,206.944 96.195,204.686 93.739,205.178 
			91.79,205.298 88.962,205.302 90.193,201.266 89.97,199.043 88.447,198.929 86.601,199.139 88.007,197.532 88.616,195.021 
			87.281,194.461 85.686,193.272 88.061,191.693 85.253,189.239 83.836,186.483 76.813,186.407 79.219,182.412 75.539,179.197 
			70.078,175.237 75.305,173.583 80.689,174.23 78.12,170.363 75.723,166.915 79.225,166.315 83.386,165.5 85.332,162.111 
			89.807,162.59 88.105,154.142 91.951,154.459 94.386,156.856 95.766,159.145 96.456,158.666 99.449,148.433 101.412,150.831 
			102.093,155.155 105.016,150.274 107.694,147.512 110.773,152.653 112.266,155.002 115.283,152.135 		"/>
		<path fill="#F7AA00" d="M107.458,169.5l3.618-4.137l-0.066,2.645l2.687-2.708l3.921-2.067l-2.047,3.705l-1.779,3.61l-0.531,1.076
			l5.163-2.193l5.096,0.044l-2.331,2.089l-2.124,3.01l2.425,0.969l-4.67,1.601l2.124,1.313l2.157,1.883l-2.701,0.569l-3.025-0.56
			l-2.02,0.76l0.298,0.701l3.42,1.235l-1.687,0.686l3.891,3.943l-1.514,0.146l-1.816-1.585l2.197,4.557l1.746,3.569l-2.452-2.144
			l-1.995-1.739l0.487,3.467l-2.608-2.28l0.572,2.169l-1.643-0.829l-2.976-3.21l-0.918,1.981l-2.284-2.34l-0.74,3.676l-3.195,3.922
			l1.414-4.715l-0.061-2.258l-0.036-1.343c0,0-0.115,0.445-1.187,1.67c-1.071,1.226-1.895,1.857-1.895,1.857l0.189-1.454
			l0.628-2.969l-0.84,0.89l-3.045,0.854l0.617-2.436l1.34-1.533l-3.125-0.028l-4.14,0.168l2.959-3.385l-2.336-1.546l-1.934-2.162
			l3.262,0.146l2.6-0.118l-3.338-2.918l-1.527-3.271l4.322,0.073l1.498,1.311l0.755-3.889l3.034,2.651l-0.531-3.575l1-2.689
			l1.956,3.798l0.872-2.159L107.458,169.5z"/>
		<path fill="#E9EAEA" d="M101.74,178.498c-0.003,0.004-0.012,0.01-0.017,0.013c0.43,8.307-79.86,16.584-98.068,0.251
			c-0.073-0.063-0.14-0.127-0.211-0.19c-0.197-0.185-0.386-0.368-0.566-0.556c-0.133-0.137-0.256-0.276-0.378-0.416
			c-0.129-0.148-0.263-0.295-0.383-0.447c-0.178-0.223-0.339-0.454-0.495-0.687c-0.051-0.075-0.114-0.148-0.164-0.226
			C18.39,209.385,107.323,195.139,101.74,178.498z"/>
		<path fill="#F7F8F8" d="M101.74,178.498c-0.003,0.004-0.012,0.01-0.017,0.013c0.237,4.554-23.302,10.751-48.045,11.236
			c-9.519,0.19-19.61-1.879-28.012-3.121c3.172,1.01,6.354,1.997,9.51,3.058c-8.972-0.21-17.3-4.121-20.44-5.391
			c-4.057-1.213-7.475-2.747-9.994-4.648c2.845,2.444,6.734,4.121,9.864,5.756c4.368,2.172,9.505,4.855,14.294,5.315
			c4.959,0.479,9.795,0.876,14.669,1.299c0.667,0.057,5.865,1.746,5.547,2.451c0.734-1.661,2.338-0.01,4.009-0.639
			c1.311-0.495,4.209-0.299,5.744-0.457c1.79-0.308,3.645,0.061,5.416-0.234c3.908-0.654,7.743-2.014,11.688-2.713
			c2.436-0.428,4.45-0.333,6.839-0.932c2.824-0.709,5.861-0.688,8.597-1.692c0.456-0.173,0.919-0.315,1.388-0.438
			c3.036-1.56,5.907-3.198,8.484-4.817C102.015,181.228,102.202,179.873,101.74,178.498z"/>
		<path fill="#E9EAEA" d="M75.95,95.262c2.247-14.744,8.67-25.557,17.062-28.925c-3.636,1.262-7.26,3.563-10.666,7.062
			c-15.076,15.478-22.618,43.559-10.011,72.643c6.466,14.917,27.376,36.879,30.43,33.024
			C76.776,154.894,72.248,119.539,75.95,95.262z"/>
		<path fill="#F7F8F8" d="M98.554,177.1c-0.142-0.148-0.88-1.104-0.018-0.901c-0.096-0.13-0.189-0.257-0.284-0.385
			c0.15-0.037,0.301-0.072,0.452-0.107c-0.304-0.457-0.639-1.082-1.006-1.79c-2.134-2.369-4.096-4.82-5.892-7.335
			c-0.103-0.006-0.208-0.003-0.313,0.01c-0.145-0.4-0.304-0.772-0.473-1.137c-0.938-1.359-1.827-2.737-2.673-4.131
			c-1.276-1.626-2.625-3.216-3.694-5.395c-2.877-5.854-4.769-11.862-6.24-18.031c-1.168-4.315-2.025-8.636-2.608-12.892
			c-1.943-10.884-2.886-21.055-0.205-31.979c1.24-5.052,3.142-9.833,5.362-14.524c0.232-0.403,0.493-0.797,0.771-1.191
			c0.889-1.592,1.853-3.049,2.889-4.356c0.12-0.274,0.226-0.554,0.309-0.839c-3.769,3.277-6.473,8.681-8.282,14.005
			c0.311-0.642,0.641-1.28,0.995-1.912c-1.172,2.923-2.34,6.133-2.985,9.219c0.472-2.259,1.13-4.773,1.991-7.307
			c-5.06,10.434-4.636,22.018-5.404,33.404c-0.325-8.391-0.016-16.938,1.91-25.147c-1.62,5.149-2.05,10.758-2.487,16.115
			c0.188-3.465,0.232-7.012,0.926-10.414c0.521-2.567,1.442-5.01,1.899-7.584c-1.863,2.737-2.437,6.709-3.174,9.865
			c-0.814,3.82-1.872,8.332-1.228,12.253c0.669,4.061,1.372,8.011,2.068,11.998c0.094,0.543-0.156,4.965-0.787,4.807
			c1.483,0.362,0.501,1.882,1.358,3.14c0.673,0.987,1.128,3.35,1.581,4.565c0.625,1.396,0.724,2.943,1.334,4.328
			c1.35,3.057,3.245,5.959,4.64,9.039c0.86,1.902,1.21,3.537,2.195,5.378c1.162,2.176,1.788,4.63,3.172,6.69
			c0.232,0.343,0.445,0.698,0.645,1.058c4.656,5.492,9.474,10.147,12.929,12.417c-0.217-0.292-0.399-0.555-0.46-0.745
			C97.994,177.108,98.256,177.046,98.554,177.1z"/>
		<path fill="#E9EAEA" d="M179.879,211.89c9.499,11.402,12.601,19.587,12.273,25.516l0,0c5.771-47.772-73.966-73.971-84.89-56.368
			C110.446,180.908,153.102,179.746,179.879,211.89z"/>
		<path fill="#F7F8F8" d="M107.162,180.791c0.197-0.01,1.347,0.037,0.669,0.543c0.152,0.01,0.304,0.02,0.454,0.031
			c-0.066,0.131-0.133,0.26-0.2,0.395c0.519,0.06,1.182,0.202,1.922,0.374c3.041-0.095,6.033-0.01,8.972,0.234
			c0.067-0.069,0.129-0.148,0.186-0.231c0.379,0.14,0.75,0.254,1.12,0.353c1.565,0.158,3.118,0.362,4.653,0.606
			c1.971,0.077,3.962,0.079,6.206,0.642c6.034,1.521,11.575,3.852,16.967,6.585c3.861,1.81,7.533,3.854,10.991,6.058
			c9.117,5.3,17.099,10.888,23.394,19.578c2.909,4.02,5.216,8.354,7.26,12.866c0.149,0.412,0.276,0.847,0.393,1.292
			c0.607,1.632,1.071,3.231,1.387,4.791c0.127,0.257,0.262,0.505,0.418,0.742c-0.057-4.766-2.32-10.065-5.08-14.669
			c0.276,0.626,0.536,1.258,0.778,1.905c-1.403-2.657-3.019-5.486-4.864-7.861c1.352,1.74,2.774,3.77,4.086,5.956
			c-4.471-10.116-13.158-16.954-20.968-24.54c6.304,4.944,12.331,10.44,17.116,16.903c-2.746-4.353-6.559-8.124-10.189-11.747
			c2.404,2.273,4.957,4.493,7.006,7.097c1.546,1.965,2.755,4.144,4.347,6.062c-0.843-3.045-3.379-5.912-5.221-8.396
			c-2.276-2.949-4.909-6.503-8.157-8.455c-3.366-2.02-6.674-3.943-10.005-5.896c-0.453-0.267-3.518-3.178-3.014-3.539
			c-1.179,0.854-1.678-0.797-3.123-0.95c-1.133-0.118-3.133-1.244-4.296-1.664c-1.403-0.406-2.588-1.292-3.974-1.702
			c-3.058-0.904-6.337-1.314-9.439-2.196c-1.913-0.549-3.32-1.306-5.268-1.728c-2.3-0.496-4.471-1.549-6.823-1.816
			c-0.396-0.044-0.782-0.104-1.168-0.188c-6.868,0.004-13.229,0.64-17.01,1.753c0.345,0.019,0.651,0.051,0.826,0.124
			C107.501,180.375,107.385,180.602,107.162,180.791z"/>
		<path fill="#E9EAEA" d="M116.102,226.546c0.774-12.768-3.128-46.039-12.5-45.912c2.446-0.333,7.501,41.911,2.561,60.374
			c-4.728,17.673-17.27,33.357-28.272,34.358c0.042,0,0.087,0.003,0.13,0.006C94.929,276.213,114.034,260.71,116.102,226.546z"/>
		<path fill="#C17116" d="M98.222,178.465c0,0-1.006-0.939-1.321-2.555c0,0,1.267-0.636,2.138,0.229
			c0.868,0.859,2.514,2.197,2.514,2.197s-0.37-1.692-0.058-2.382c0.311-0.689,0.514-2.404,1.315-2.512
			c0.802-0.104,0.663,1.842,1.084,2.213c1.26,1.099,1.972-0.956,2.763-1.279c0.792-0.32,3.107-2.255,2.785-0.911
			c-0.32,1.343-2.775,3.052-2.522,3.371c0.25,0.321,0.683,0.293,2.283-0.031c1.601-0.323,3.427-0.467,3.05,0.327
			c-0.377,0.794-0.751,1.073-1.511,1.728c-0.761,0.654-1.097,1.234-0.358,2.152c0.733,0.914,1.094,2.241,0.741,2.646
			c-0.351,0.402-0.615,0.219-1.352-0.426c-0.623-0.543-2.416-1.074-2.052-0.436c0.364,0.632-0.1,2.201,0.048,2.613
			c0.147,0.413,0.112,1.495-0.521,0.943c-0.632-0.553-1.523-0.925-1.61-1.406c-0.086-0.48-1.746-0.22-1.921-0.01
			c-0.176,0.206-0.254,0.746-0.983,1.123c-0.73,0.375-1.758-0.418-1.205-1.054c0.553-0.631,1.079-2.606,0.176-2.686
			c-0.905-0.08-1.502,0.178-2.073,0.489c-0.575,0.308-2.867-0.525-1.964-0.918c0.904-0.396,1.552-0.626,2.105-1.261
			C100.326,180,98.562,178.86,98.222,178.465z"/>
		<path fill="#E9EAEA" d="M176.278,119.226c-4.431-0.102-9.517,0.395-15.269,1.676c-1.458,0.325-2.957,0.697-4.502,1.126
			c-4.941,1.372-9.571,3.252-13.871,5.493c-4.964,2.588-9.489,5.655-13.55,8.979c-19.573,16.031-28.331,38.035-23.3,40.788
			c0.088-0.21,8.179-19.032,26.381-34.349c4.859-4.086,10.441-7.925,16.782-11.091c5.099-2.546,10.684-4.664,16.788-6.121
			c0.492-0.117,0.976-0.229,1.455-0.337c5.04-1.134,9.351-1.723,13.037-1.873c9.271-0.375,14.583,2.041,17.523,5.609
			C194.985,123.873,187.878,119.491,176.278,119.226z"/>
		<path fill="#F7F8F8" d="M172.983,123.956c3.271-0.059,6.532-0.864,9.812-0.978c-12.213-0.538-23.989,3.49-35.347,7.417
			c7.757-3.248,15.812-5.505,24.105-6.859c-3.048,0.506-6.059,0.948-9.056,1.623c-1.397,0.343-2.784,0.714-4.148,1.115
			c1.381-0.445,2.766-0.804,4.148-1.115c3.048-0.742,6.151-1.323,9.236-1.653c-0.061,0.01-0.121,0.021-0.181,0.03
			c0.686-0.113,1.375-0.231,2.063-0.355c-7.169-0.351-16.409,1.78-22.892,4.922c-1.861,0.902-4.43,1.699-6.067,2.912
			c-0.179,0.762-4.388,2.47-5.195,2.679c-0.886,0.235-1.819,0.216-2.724,0.337c-0.981,0.13-0.121,0.559-0.669,0.886
			c-1.311,0.781-2.735,1.479-4.099,2.251c-2.69,1.53-5.883,3.804-7.741,6.194c-1.922,2.471-4.295,6.808-7.344,7.872
			c-1.653,0.574-2.161,2.939-3.408,4.444c-1.521,1.842-2.59,3.474-3.664,5.585c-0.651,1.283-1.707,2.14-2.766,3.029
			c-3.002,6.678-3.513,11.764-1.262,12.996c0.088-0.21,8.179-19.032,26.381-34.349c1.046-0.88,2.132-1.746,3.245-2.597
			c2.814-2.479,6.072-4.362,9.298-6.269c7.551-4.429,15.514-7.436,24.057-9.024c3.545-0.738,6.709-1.195,9.537-1.415
			c0.189-0.02,0.375-0.038,0.561-0.055C176.958,123.741,175.009,123.919,172.983,123.956z M158.046,126.369
			c-0.719,0.226-1.448,0.451-2.207,0.661L158.046,126.369z"/>
		<path fill="#F7F8F8" d="M91.384,266.998c-2.224,1.98-3.999,4.47-6.199,6.489c8.759-6.864,14.509-16.629,20.028-26.07
			c-3.435,6.839-7.663,13.173-12.591,19.021c1.805-2.156,3.623-4.242,5.295-6.486c0.764-1.064,1.5-2.141,2.207-3.229
			c-0.694,1.126-1.435,2.193-2.207,3.229c-1.666,2.317-3.466,4.563-5.401,6.62c0.036-0.045,0.071-0.09,0.106-0.134
			c-0.409,0.488-0.813,0.978-1.215,1.474c5.161-4.01,10.284-10.958,12.9-16.972c0.751-1.727,2.054-3.8,2.467-5.606
			c-0.328-0.633,1.569-4.306,2.003-4.932c0.475-0.686,1.129-1.229,1.683-1.845c0.601-0.672-0.248-0.456-0.063-1.009
			c0.441-1.318,1.015-2.642,1.497-3.985c0.954-2.654,1.812-6.115,1.679-8.867c-0.135-2.849-1.065-7.252,0.411-9.793
			c0.8-1.378-0.25-3.312-0.283-5.092c-0.038-2.172,1.383-3.906,0.872-6.001c-0.308-1.274-1.079-3.585-0.872-4.826
			c-3.93-15.752-6.439-17.946-8.065-14.037c0.061,0.196,6.201,23.374,2.7,44.743c-0.2,1.229-0.438,2.47-0.702,3.718
			c-0.475,3.385-1.61,6.613-2.712,9.843c-2.591,7.534-6.313,14.333-11.274,20.492c-2.011,2.61-3.926,4.803-5.754,6.63
			c-0.116,0.123-0.233,0.247-0.353,0.371C88.767,269.499,90.008,268.226,91.384,266.998z M100.277,256.481
			c0.363-0.584,0.735-1.171,1.134-1.766L100.277,256.481z"/>
	</g>
</g>
</svg>
