<?xml version="1.0" encoding="utf-8"?>
<!-- Generator: Adobe Illustrator 16.0.0, SVG Export Plug-In . SVG Version: 6.00 Build 0)  -->
<!DOCTYPE svg PUBLIC "-//W3C//DTD SVG 1.1//EN" "http://www.w3.org/Graphics/SVG/1.1/DTD/svg11.dtd">
<svg version="1.1" id="Calque_1" xmlns="http://www.w3.org/2000/svg" xmlns:xlink="http://www.w3.org/1999/xlink" x="0px" y="0px"
	 width="277.02px" height="367.439px" viewBox="0 0 277.02 367.439" enable-background="new 0 0 277.02 367.439"
	 xml:space="preserve">
<g>
	<path fill="#435D28" d="M123.045,285.391c2.559-1.845,5.108-4.029,7.63-6.362c-12.828-11.255-34.153-29.784-30.711-31.015
		c3.73-1.332,18.387,14.998,28.118,18.541c4.113,1.494,8.227,2.506,11.685,3.183c5.854-6.525,11.258-13.462,15.693-19.351
		c-6.606-3.207-34.072-10.543-30.827-15.547c0.227-0.346,24.132,9.399,32.268,13.153c2.263-3.004,3.877-4.656,5.575-6.888
		c-0.135-1.572-41.25-17.559-38.194-19.414c9.548-5.808,31.282,12.098,43.929,11.017c0.342-0.025,0.715-0.161,1.099-0.347
		c3.197-6.04,13.8-26.068,18.607-34.979c-11.385,2.06-40.839-7.645-37.693-9.714c2.112-1.388,26.523,7.848,41.342-0.347
		c2.651-4.137,7.778-12.145,13.281-20.708c-15.151-3.51-41.008-6.848-41.85-11.099c-0.253-1.274,43.004,9.3,43.004,9.3
		c5.989-9.321,12.246-19.033,16.132-24.99c-0.126-0.041-0.241-0.095-0.428-0.062c-11.445,2.119-51.714-2.921-44.234-12.577
		c1.149-1.486,46.684,12.111,55.559,1.059c3.91-6.717,10.752-18.459,16.405-28.099c-7.855-0.294-35.474-1.554-36.713-4.818
		c-0.424-1.115,30.514,0.28,38.863,1.157c2.813-4.791,4.246-7.212,5.697-9.635c-5.506-6.161-45.997-6.995-40.714-11.405
		c1.922-1.604,36.134,4.543,41.921,1.899c5.787-2.642,2.631-56.284,17.236-65.614c12.586-8.041-70.604-18.138-81.971-6.351
		c-11.365,11.788-3.545,52.149-5.815,53.518c-8.789,5.284-0.796-28.669-6.5-45.325c-0.129-0.373-0.54-0.482-1.146-0.41
		c-1.966,1.505-4.632,3.546-7.737,5.918c0,0,1.192,50.371,0.663,49.561c-6.47-9.891-3.85-47.124-3.85-47.124
		c-11.556,8.833-27.686,21.144-40.045,30.517c-3.207,8.743,12.68,34.458,5.483,45.596c-2.985,4.622-12.715-36.876-13.349-36.776
		c-4.553,5.46-15.326,18.361-23.431,28.002l15.615,33.074c-0.302,4.145-9.811-14.621-17.379-30.975
		c-1.175,1.395-2.272,2.695-3.259,3.863c-2.032,21.405,23.586,48.246,23.586,48.246c-13.212,3.687-27.794-35.597-29.423-39.352
		c-0.151-0.352-0.469-0.469-0.861-0.481c-2.636,3.605-6.225,8.509-9.976,13.625c-5.409,7.382-11.162,15.212-14.929,20.288
		c-0.023,0.117-0.029,0.252-0.045,0.372c-2.099,13.16,24.495,53.51,22.744,53.806c-10.016,1.695-18.761-32.342-28.798-44.942
		c-0.135-0.17-0.291-0.281-0.462-0.356c-5.418,7.072-11.658,14.18-16.342,21.292c-0.418,0.636-0.764,1.245-1.16,1.876
		c0,0,20.199,43.758,18.871,43.895c-9.3,0.962-25.117-32.406-25.117-32.406c-0.747,1.646-1.417,3.208-1.938,4.591
		c-0.708,1.883-1.349,3.719-1.962,5.539c1.296,2.206,3.015,4.881,5.36,8.172c10.276,14.431,21.887,19.634,24.307,23.835
		c2.227,3.879-10.739-5.65-13.316-7.549c-4.551-3.347-12.191-11.501-18.276-18.316c-17.11,59.044,16.983,82.663,20.288,85.057
		C73.179,302.036,98.868,302.841,123.045,285.391z"/>
	<g>
		<path fill="#436C2B" d="M205.805,112.016c4.698-0.198-6.083-3.25-4.979-3.365c-9.674,1.206-0.355-0.142-1.541-1.397
			c-2.423-0.655-4.845-1.307-7.269-1.96c0.122-0.046,0.238-0.083,0.351-0.112c7.113-2.256,28.906,3.461,37.209,7.948
			C222.397,116.484,212.938,113.492,205.805,112.016z"/>
		<path fill="#436C2B" d="M201.944,119.286c2.703-0.091,0.934-2.511,0.934-2.495c-1-0.11-7.3-0.895-6.967-0.885
			c1.163,0.223,1.738-0.078,1.717-0.905c-1.13,0.032-1.936,0.082-2.488,0.141c-0.757-0.418-2.814-1.145-7.477-2.34
			c7.585-3.385,19.073,6.413,25,2.183c0.156,1.664,9.644,4.67,13.275,7.375C219.253,124.154,208.285,121.532,201.944,119.286z"/>
		<path fill="#436C2B" d="M195.14,115.142C196.828,116.079,191.994,115.476,195.14,115.142L195.14,115.142z"/>
		<path fill="#436C2B" d="M193.074,147.335c-0.15-0.059-0.301-0.118-0.45-0.178C192.759,147.014,193.008,147.217,193.074,147.335z"
			/>
		<path fill="#436C2B" d="M196.337,147.792C196.348,148.072,196.194,147.805,196.337,147.792L196.337,147.792z"/>
		<path fill="#436C2B" d="M206.461,153.285c-0.038,0.02-0.064,0.04-0.107,0.059c-1.714-2.818,0.232-4.027,0.282-7.001
			c-0.542,0.086-2.134-0.455-2.102-2.171c-0.909,2.609-13.265-1.086-16.053,0.155c0.04-1.346,0.741-1.935,2.1-1.764
			c-6.598-4.143-18.548-10.387-26.472-6.441c1.146-0.93,1.776-1.678-1.819,1.139c10.018,1.869,21.398,7.525,31.111,12.763
			c-0.821,0.822-1.807,1.331-2.954,1.534c1.005,0.127,2.466,0.719,3.387,1.015c-0.009-0.076-0.02-0.149-0.026-0.24
			c0.839,0.178,1.587,0.033,2.244-0.438c0.193,0.518,0.677,1.471,0.511,2.311c0.463-2.319,0.1-0.301,0.361-0.222
			c-0.594,0.908-0.602,1.774-0.006,2.598c0.757,0.783,3.735-3.336,2.948,0.695C200.907,154.843,205.329,155.776,206.461,153.285z
			 M193.445,150.354c0.317-0.138,0.558-0.342,1.063-0.155C194.157,150.277,193.805,150.287,193.445,150.354z M192.541,146.912
			C193.125,147.806,190.368,146.892,192.541,146.912L192.541,146.912z M195.768,148.399c-0.898-0.355-1.797-0.708-2.693-1.064
			c0.061,0.105-0.021,0.146-0.45-0.178C194.9,144.761,195.34,148.346,195.768,148.399z M196.337,147.792
			C196.395,149.177,195.416,147.868,196.337,147.792L196.337,147.792z M196.516,148.557
			C196.786,147.273,196.798,148.594,196.516,148.557L196.516,148.557z M203.681,149.656
			C202.883,149.931,203.36,149.611,203.681,149.656L203.681,149.656z M204.196,152.389c-0.332-0.106-1.367-0.379-1.89,0.046
			C201.128,148.027,205.232,152.328,204.196,152.389z"/>
		<path fill="#436C2B" d="M196.516,148.557C196.552,148.389,196.583,148.565,196.516,148.557L196.516,148.557z"/>
		<path fill="#436C2B" d="M203.681,149.656C203.555,149.701,203.594,149.644,203.681,149.656L203.681,149.656z"/>
		<path fill="#436C2B" d="M206.461,153.285c0.108-0.235,0.186-0.498,0.229-0.801C206.922,152.837,206.836,153.1,206.461,153.285z"/>
		<path fill="#436C2B" d="M206.636,146.342c0.002-0.116,0.006-0.229,0.001-0.35C206.902,146.183,206.847,146.309,206.636,146.342z"
			/>
		<path fill="#436C2B" d="M192.541,146.912C192.559,146.94,192.296,146.91,192.541,146.912L192.541,146.912z"/>
		<path fill="#436C2B" d="M194.448,152.727c0.048-0.084,0.098-0.183,0.151-0.295C194.786,152.689,194.7,152.76,194.448,152.727z"/>
		<path fill="#436C2B" d="M193.834,152.571c0.254,0.079,0.462,0.136,0.614,0.156C194.126,153.301,193.923,153.243,193.834,152.571z"
			/>
		<path fill="#436C2B" d="M178.032,170.052C178.008,170.083,178.032,169.95,178.032,170.052L178.032,170.052z"/>
		<path fill="#436C2B" d="M195.569,172.558c-0.043-0.07-0.058-0.134-0.021-0.167C195.727,172.569,195.642,172.597,195.569,172.558z"
			/>
		<path fill="#436C2B" d="M190.712,174.02c1.191-0.084,5.859,1.067,7.193,1.367c0.292-3.539-1.08-2.506,0.443-5.446
			c-3.455,1.068-8.855,2.603-8.956-0.484c3.01,0.279,5.469-0.739,7.378-3.052c-4.284-0.119-16.533-0.715-17.737-4.794
			c-1.559,3.195-12.74,2.003-11.512,0.365c-0.409,0.233-0.388,0.208-0.274,0.139c-6.11,3.112-12.825-5.087-19.535,0.14
			c5.925,1.284,16.424,4.166,21.693,7.59c-1.835-0.195-3.563,0.156-5.18,1.053c0.858,0.03,6.896,2.596,5.872,1.112
			c-0.923-1.346,2.661,2.021,3.375,1.581c-1.213,1.033-1.414,2.042-0.594,3.026c2.431,2.386,13.044-0.02,13.157-2.268
			C191.167,175.62,192.726,175.512,190.712,174.02z M174.142,167.832C174.879,167.811,173.569,168.336,174.142,167.832
			L174.142,167.832z M174.708,168.434c-0.017-0.005-0.061-0.027-0.164-0.079C173.84,167.572,175.664,168.88,174.708,168.434z
			 M175.62,168.603c0.098-0.203-0.224,0.007-0.092,0.012C174.392,168.79,176.705,166.365,175.62,168.603z M175.666,168.579
			c-0.025,0.011,0.834-1.746,0.035-0.072C175.744,168.414,175.66,168.582,175.666,168.579z M175.383,169.164
			c0.189-0.39,0.156-0.125,0.056-0.032C175.445,169.144,175.436,169.16,175.383,169.164z M177.011,169.568
			C177.862,169.372,174.984,171.125,177.011,169.568L177.011,169.568z M177.069,170.533c-0.086,0.107-0.21,0.144-0.392,0.087
			L177.069,170.533z M178.032,170.052C177.891,170.233,178.009,169.225,178.032,170.052L178.032,170.052z M177.421,170.68
			C177.977,170.751,177.729,170.938,177.421,170.68L177.421,170.68z M189.202,169.469
			C189.105,169.546,189.063,169.485,189.202,169.469L189.202,169.469z M185.86,174.516c0.042-0.049,0.092-0.107,0.092-0.107
			c-0.294,0.342-0.975,0.064,0,0C185.911,174.458,185.884,174.489,185.86,174.516z M185.85,174.529
			C185.742,174.654,185.786,174.6,185.85,174.529L185.85,174.529z M195.549,172.391c1.141,1.149,0.231,0.526,0.021,0.167
			C195.516,172.529,195.468,172.463,195.549,172.391z M190.179,173.795C190.357,173.668,191.314,174.322,190.179,173.795
			L190.179,173.795z"/>
		<path fill="#436C2B" d="M167.521,161.976c-0.091,0.051-0.184,0.092-0.274,0.139C167.357,162.046,167.55,161.938,167.521,161.976z"
			/>
		<path fill="#436C2B" d="M175.438,169.132c-0.016,0.016-0.034,0.028-0.056,0.032C175.404,169.119,175.434,169.12,175.438,169.132z"
			/>
		<path fill="#436C2B" d="M174.544,168.354c-0.033-0.036,0.206,0.096,0.164,0.079C174.658,168.411,174.608,168.388,174.544,168.354z
			"/>
		<path fill="#436C2B" d="M190.179,173.795C190.218,173.77,190.349,173.874,190.179,173.795L190.179,173.795z"/>
		<path fill="#436C2B" d="M174.142,167.832C174.203,167.83,174.082,167.885,174.142,167.832L174.142,167.832z"/>
		<path fill="#436C2B" d="M164.258,206.328C164.546,206.352,164.295,206.366,164.258,206.328L164.258,206.328z"/>
		<path fill="#436C2B" d="M162.714,211.063C162.751,211.049,162.725,211.137,162.714,211.063L162.714,211.063z"/>
		<path fill="#436C2B" d="M152.4,199.454c-9.196-3.779-17.221-1.701-26.869-2.921c4.121,2.202,32.985,9.346,32.596,12.428
			c0.348-2.933-0.074,1.162,0.72-0.783c0.128,0.119-0.034,1.849-0.119,2.693c-5.978-0.57-18.664-0.23-20.008,0.749
			c14.479,0.925,6.361-0.192,5.28,2.617c3.313,0.376,3.845-0.053,1.598-1.282c5.105-2.314,20.639,17.291,26.214,0.061
			c-1.42-0.387-2.835-0.35-4.239,0.11c0.123-0.997,0.669-1.366,1.345-1.62c-0.094,1.401,0.004,0.959,0.113-0.041
			c1.147-0.405,2.624-0.555,3.073-2.821c-0.222,0.233-2.018-1.057-2.558-2.212c3.467-0.405,9.79-4.282,10.749-6.451
			c-0.411,0.22-13.657-0.499-13.524-0.378c-7.125-6.48-5.08,5.569-10.561,2.293c0.438,0.258,4.915,2.74,4.768,3.058
			c-0.669,1.425-9.017-4.299-10.317-3.396C150.468,200.242,151.045,199.54,152.4,199.454z M158.765,203.078
			C160.741,201.635,160.087,202.759,158.765,203.078L158.765,203.078z M164.258,206.328
			C166.359,206.516,164.428,206.496,164.258,206.328L164.258,206.328z M161.036,210.188c-0.018-0.046-0.033-0.083-0.033-0.083
			C161.016,210.141,161.027,210.161,161.036,210.188z M166.089,211.978C166.06,212.036,166.067,211.918,166.089,211.978
			L166.089,211.978z M166.62,212.532C166.084,212.188,166.659,212.449,166.62,212.532L166.62,212.532z M167.555,213.119
			C167.461,213.08,167.237,211.999,167.555,213.119C167.466,213.083,167.555,213.119,167.555,213.119z M165.76,211.91
			c-0.084-0.23-0.082-0.336,0.258,0.374c-0.215,1.757-0.458,1.836-0.731,0.241C164.883,213.129,165.222,211.44,165.76,211.91z
			 M164.33,212.552C164.083,212.426,164.271,212.256,164.33,212.552L164.33,212.552z M168.17,206.35
			c0.325,0.108,0.729,0.135,1.188,0.102c-0.058,0.6-0.11,1.15-0.155,1.647c-0.022-0.348-0.07-0.573-0.164-0.581
			C169.202,207.008,168.919,206.619,168.17,206.35z M168.128,206.432C167.997,206.89,167.539,206.431,168.128,206.432
			L168.128,206.432z M164.385,211.495c-0.176-1.076-0.051,0.596,0.05,0.325C163.53,214.255,163.69,207.124,164.385,211.495z
			 M162.714,211.063C162.978,210.961,162.77,211.478,162.714,211.063L162.714,211.063z M160.566,210.021
			c0.355,0.373,0.656,0.973,0.946,1.364c-0.313-0.145-0.849-0.271-1.569-0.375C160.233,210.792,160.442,210.464,160.566,210.021z
			 M163.544,206.27C163.5,206.35,163.491,206.266,163.544,206.27L163.544,206.27z"/>
		<path fill="#436C2B" d="M165.76,211.91c0.083,0.07,0.172,0.188,0.258,0.374C166.012,212.486,165.845,212.137,165.76,211.91z"/>
		<path fill="#436C2B" d="M152.335,205.919C153.392,205.463,152.782,205.927,152.335,205.919L152.335,205.919z"/>
		<path fill="#436C2B" d="M125.532,196.533C125.993,196.781,125.352,196.51,125.532,196.533L125.532,196.533z"/>
		<path fill="#436C2B" d="M116.856,77.751c1.147,3.123,1.083,4.381,0.398,4.732c0.156,0.165,0.088,0.383-0.128,0.05
			c-1.228,0.4-4.004-1.45-5.83-1.502c2.246,1.427-2.698,4.594,1.14,6.002c-0.008-0.002,10.99,16.066-3.424,2.65
			c4.619,6.874,9.347,13.676,13.818,20.65c-5.997-4.33-4.939,2.839-7.188,4.348c3.021-0.958,3.442,0.39,2.223,3.209
			c3.976-0.386,10.726,11.875,18.477,8.596c-1.547-0.772-2.994-1.7-4.345-2.783c0.525-0.542,1.169-0.81,1.93-0.807
			c-1.985-1.377-2.577-1.196-1.783,0.541c-4.278,0.102-1.623-4.036-2.84-4.303c1.318-0.2,1.925-0.883,1.813-2.052
			c-0.711-1.13-1.587-1.324-2.63-0.578c0.721-0.885,1.553-1.63,2.482-2.257c-2.224,0.122-4.39-5.661-5.728-6.299
			c1.475,0.818,1.276,0.662,0.648,0.33c0.16,0.077,0.292,0.136,0.402,0.182c2.283,2.303,3.392,3.454,6.105,4.795
			c-0.068,0.099-0.14,0.186-0.208,0.268c0.044-0.023,0.086-0.051,0.132-0.074c-1.436,3.392,4.839,14,11.468,10.459
			c-1.38-0.652-2.685-1.426-3.92-2.319c0.494-0.54,1.11-0.833,1.844-0.877c-1.76-1.162-2.325-0.956-1.69,0.616
			c-4.166,0.332-0.894-3.67-2.169-3.933c1.143-0.201,1.751-0.828,1.822-1.89c-0.063-0.897-1.286-1.592-1.455-3.338
			c-5.557,0.275-16.178-28.239-17.848-31.461c0.349-0.062,0.577-0.109,0.703-0.148c0.977,0.086,1.798-0.197,2.463-0.86
			c0.211-0.285-3.873-1.735,0.055-1.858c-1.351-0.134-3.428-4.736-4.688-5.22c-0.177,1.087-0.945,1.52-2.308,1.297
			C120.966,76.532,116.084,75.654,116.856,77.751z M125.552,120.735C123.913,120.924,125.05,119.513,125.552,120.735
			L125.552,120.735z M119.053,110.868c-0.084-0.034-0.159-0.076-0.247-0.106C119.046,110.693,119.043,110.795,119.053,110.868z
			 M119.236,110.951C119.134,110.902,119.258,110.678,119.236,110.951L119.236,110.951z M129.743,110.891
			C129.697,110.818,129.742,110.857,129.743,110.891L129.743,110.891z M127.626,107.227c1.75,0.567,2.323,1.59,1.718,3.065
			c-0.768-0.588-1.32-1.371-1.654-2.348c0.329,0.318,0.597,0.577,0.814,0.789c-0.336-0.37-0.684-0.793-0.846-1.101
			C127.498,107.51,127.416,107.355,127.626,107.227z M123.197,119.41C123.333,119.403,122.695,119.958,123.197,119.41
			L123.197,119.41z M123.401,118.068c0.079,0.012,0.172-0.004,0.276-0.024C123.369,118.242,123.341,118.192,123.401,118.068z
			 M123.248,117.82C123.244,118.086,122.95,117.949,123.248,117.82L123.248,117.82z M123.078,117.695
			C122.972,117.938,122.476,118.048,123.078,117.695L123.078,117.695z M122.918,117.35
			C123.418,117.427,122.328,117.972,122.918,117.35L122.918,117.35z M124.671,111.752
			C123.928,111.719,123.277,110.39,124.671,111.752L124.671,111.752z M122.789,109.794
			C124.974,111.251,123.955,111.3,122.789,109.794L122.789,109.794z M125.457,106.733c0.135,0.13,0.272,0.268,0.407,0.406
			C125.675,107.032,125.533,106.901,125.457,106.733z M123.104,103.972c0.504,0.16,5.433,1.45,4.268,3.55
			c-2.041-2.853-1.376-1.116-1.686-0.983c0.456,0.408,1.026,1.101-0.363-0.191C124.792,105.317,124.051,104.524,123.104,103.972z
			 M122.431,102.651C122.417,102.642,122.389,102.601,122.431,102.651L122.431,102.651z M117.722,83.31
			C117.97,83.609,117.767,83.446,117.722,83.31L117.722,83.31z M117.662,83.176C117.33,83.63,117.475,82.314,117.662,83.176
			L117.662,83.176z"/>
		<path fill="#436C2B" d="M123.248,117.82C123.248,117.888,123.185,117.849,123.248,117.82L123.248,117.82z"/>
		<path fill="#436C2B" d="M123.078,117.695C123.054,117.749,122.98,117.751,123.078,117.695L123.078,117.695z"/>
		<path fill="#436C2B" d="M122.918,117.35C122.973,117.358,122.825,117.448,122.918,117.35L122.918,117.35z"/>
		<path fill="#436C2B" d="M125.552,120.735C125.205,120.773,125.471,120.536,125.552,120.735L125.552,120.735z"/>
		<path fill="#436C2B" d="M117.662,83.176C117.637,83.211,117.648,83.106,117.662,83.176L117.662,83.176z"/>
		<path fill="#436C2B" d="M127.626,107.227c1.225,0.791,0.405,0.685,0.032,0.405C127.557,107.436,127.529,107.286,127.626,107.227z"
			/>
		<path fill="#436C2B" d="M117.028,82.367c0.103,0.016,0.174,0.064,0.226,0.117c-0.04,0.021-0.084,0.036-0.128,0.05
			C117.096,82.487,117.064,82.438,117.028,82.367z"/>
		<path fill="#436C2B" d="M117.063,82.373C117.146,82.385,117.343,82.418,117.063,82.373L117.063,82.373z"/>
		<path fill="#436C2B" d="M124.671,111.752C124.445,111.741,124.425,111.51,124.671,111.752L124.671,111.752z"/>
		<path fill="#436C2B" d="M125.686,106.539c-0.066,0.026-0.175-0.015-0.363-0.191C125.311,106.234,125.487,106.36,125.686,106.539z"
			/>
		<path fill="#436C2B" d="M128.504,108.732C129.863,110.065,129.218,109.523,128.504,108.732L128.504,108.732z"/>
		<path fill="#436C2B" d="M130.969,114.248c0.389-0.261,0.794-0.507,1.22-0.724C131.783,114.008,131.375,114.228,130.969,114.248z"
			/>
		<path fill="#436C2B" d="M152.077,63.516C152.217,63.508,152.167,63.56,152.077,63.516L152.077,63.516z"/>
		<path fill="#436C2B" d="M156.036,55.406c-0.035,0.004-0.054,0.002-0.081,0.002c-0.011-0.045-0.025-0.089-0.036-0.135
			C155.983,55.259,156.051,55.282,156.036,55.406z"/>
		<path fill="#436C2B" d="M155.121,47.853c0.093-0.102,0.219-0.196,0.403-0.266C155.758,47.995,155.097,48.022,155.121,47.853z"/>
		<path fill="#436C2B" d="M158.085,40.645C158.292,40.701,158.036,40.689,158.085,40.645L158.085,40.645z"/>
		<path fill="#436C2B" d="M162.107,48.558c-0.166-0.028-0.367-0.048-0.626-0.055C161.82,48.14,161.999,48.223,162.107,48.558z"/>
		<path fill="#436C2B" d="M159.906,37.051c-0.046,0.125-0.093,0.249-0.137,0.374C159.655,37.255,159.581,36.909,159.906,37.051z"/>
		<path fill="#436C2B" d="M162.219,49.18c-0.028-0.253-0.063-0.466-0.111-0.622C162.649,48.649,162.694,48.855,162.219,49.18z"/>
		<path fill="#436C2B" d="M161.105,61.81c1.059-0.235,1.076-0.36,0.054-0.38c2.667-2.571,2.229-4.482-0.744-10.284
			c0.607,1.07,1.494,1.861,2.66,2.375c-0.757-1.083-0.73-3.146-0.856-4.341c-0.094,0.063-0.203,0.132-0.336,0.204
			c-3.429-2.115,1.511-3.282,0.707-4.17c1.015,0.449,1.857,0.288,2.527-0.502c0.304-0.475-1.024-10.14-4.675-11.644
			c0.711,0.841-2.806,3.06-2.583,3.593c-0.456-1.588-1.296-2.929-2.514-4.022c0.128,0.183-1.139,2.877-3.025,2.81
			c2.475,0.851-0.419,6.601,2.441,11.649c-4.485-1.748-11.021,4.543-11.202,7.169c-0.232,3.315,0.428,4.008,0.417,7.583
			c-0.021-3.004-0.982,2.362-0.002,0.391c-2.978,5.979,0.354,25.024,8.567,26.163c-1.753-2.104-3.108-4.442-4.061-7.011
			c0.031-0.13,0.075-0.231,0.123-0.31c-0.363-0.528-0.765-1.124-1.211-1.798c0.788-0.47,1.467-0.188,2.041,0.845
			c-0.06-0.083-2.555-7.772-1.89-7.396c0.089-0.409,7.775,8.327,8.595,8.775c-2.719-4.161-7.616-25.057-6.94-24.571
			c1.768,1.271,0.624,10.164,4.107,9.684c1.063-0.147,2.541-1.982,3.519-3.939c1.41,4.001,5.388,8.216,8.535,7.941
			C161.268,67.629,161.751,63.172,161.105,61.81z M153.429,47.745l-0.037-0.155C153.549,47.677,153.488,47.715,153.429,47.745z
			 M155.524,47.587c0.722,1.263,3.085,2.416,0.58,3.334c0.403-0.229-1.795-2.18-0.983-3.068
			C155.129,47.79,155.232,47.699,155.524,47.587z M159.77,37.425c-0.201,0.542-0.398,1.084-0.597,1.626
			c-1.016-0.938-2.18-3.252,0.733-2C159.99,37.593,159.865,37.574,159.77,37.425z M158.765,40.164
			c-0.394-0.443-0.302-0.695,0.277-0.753C158.948,39.661,158.857,39.912,158.765,40.164z M158.085,40.645
			C159.357,40.986,157.874,40.841,158.085,40.645L158.085,40.645z M158.898,42.466C158.601,41.901,158.891,42.246,158.898,42.466
			L158.898,42.466z M160.054,50.445c-1.472-1.206-2.719-2.605-3.742-4.204c0.071,0.198,0.284,1.873-0.014-0.019
			c1.137-1.165-2.269-2.982,1.116-3.27c-2.721,0.232,1-1.299,0.566-1.667c2.119,1.796,0.077,4.651-1.402,4.831
			C159.352,45.526,158.563,49.226,160.054,50.445z M157.05,53.087C156.603,52.875,156.99,52.354,157.05,53.087L157.05,53.087z
			 M156.166,57.197c0-0.614-0.073-1.207-0.211-1.789c-0.229,0.007-0.14-0.111-0.036-0.135c-0.108-0.427-0.246-0.849-0.434-1.261
			c0.67,0.063,1.063,0.083,1.278,0.081c0.147,0.077,0.455,0.203,1.052,0.402C157.968,54.647,157.204,56.645,156.166,57.197z
			 M156.206,58.022c0.103-0.324,0.283-0.599,0.513-0.835C157.135,57.473,156.485,57.721,156.206,58.022z M152.077,63.516
			C152.663,63.483,152.646,63.799,152.077,63.516L152.077,63.516z"/>
		<path fill="#436C2B" d="M148.604,81.083C149.72,79.278,154.678,89.898,148.604,81.083L148.604,81.083z"/>
		<path fill="#436C2B" d="M157.815,54.496C157.962,54.642,154.96,53.538,157.815,54.496L157.815,54.496z"/>
		<path fill="#436C2B" d="M89.389,140.006C89.325,139.963,89.399,139.923,89.389,140.006L89.389,140.006z"/>
		<path fill="#436C2B" d="M77.744,134.808C77.807,134.711,77.773,134.877,77.744,134.808L77.744,134.808z"/>
		<path fill="#436C2B" d="M81.063,156.188C81.396,156.209,81.123,156.416,81.063,156.188L81.063,156.188z"/>
		<path fill="#436C2B" d="M81.273,156.034C81.238,156.07,81.187,156.019,81.273,156.034L81.273,156.034z"/>
		<path fill="#436C2B" d="M82.65,145.591c-0.045,0.123-0.084,0.209-0.113,0.208C82.582,145.645,82.621,145.596,82.65,145.591z"/>
		<path fill="#436C2B" d="M89.381,139.581C89.252,139.519,89.375,139.476,89.381,139.581L89.381,139.581z"/>
		<path fill="#436C2B" d="M91.346,143.968C91.227,143.912,91.451,143.91,91.346,143.968L91.346,143.968z"/>
		<path fill="#436C2B" d="M76.874,141.259c0.017-0.008,0.036-0.011,0.054-0.009C76.917,141.259,76.89,141.275,76.874,141.259z"/>
		<path fill="#436C2B" d="M92.304,144.099C92.22,144.032,92.356,144.02,92.304,144.099L92.304,144.099z"/>
		<path fill="#436C2B" d="M81.049,153.601C81.259,153.519,81.291,153.763,81.049,153.601L81.049,153.601z"/>
		<path fill="#436C2B" d="M72.606,134.61c2.641,0.796,2.569,0.817,0.897,2.474c1.226-0.485,3.23-0.105,3.394-0.281
			c-0.04,0.33-0.547,1.659-0.972,2.063c2.206-2.173-0.921,0.908,0.968-0.269c-0.467,1.406-1.398,1.918-2.796,1.542
			c3.409,2.893,7.931,10.146,7.531,10.163c0.29,1.855-8.239-6.467-8.406-6.535c0.677,0.521,1.943,11.878,1.658,12.083
			c4.66,1.172,2.641,16.655,12.39,17.425c-1.496-1.654-2.789-3.451-3.884-5.391c0.739-0.294,1.471-0.265,2.197,0.087
			c-1.743-2.613-2.402-2.717-1.98-0.315c-4.547-2.061-0.294-6.26-2.496-6.606c0-5.924,6.845,7.149,6.178,6.178
			c0.374,0.946,1.766-3.754,1.765-4.336c5.553,2.949,5.398,12.194,13.196,12.702c-2.528-2.152-4.722-4.602-6.585-7.354
			c0.851-0.207,1.676-0.112,2.471,0.288c0.235,0.239-6.382-9.775-7.052-9.958c0.887-1.017,1.804-1.027,2.751-0.032
			c-1.042-1.873-2.048-3.763-3.015-5.673c2.014,2.166,4.41,3.758,7.191,4.775c-9.472-8.634-4.51-3.567-2.055-4.951
			c-2.071-2.205-2.728-2.195-1.971,0.026c-3.693-0.939-1.867-5.459-3.289-5.751c1.758,0.161,2.5-0.225,2.199-1.165
			c1.143,1.809,6.394,3.154,7.968,3c-0.953-0.225-5.253-9.222-4.844-9.706c-4.267,0.48-6.46-13.155-12.871-13.885
			c5.07,5.698,5.01,6.365,3.995,5.835c0.155,0.121,0.314,0.249,0.49,0.388c-0.479,0.511-1.041,0.462-1.684-0.149
			c-0.7-0.62,5.628,6.264,2.619,6.014c-3.515-0.292-4.873-5.035-7.543-6.203c-0.529,1.646-0.411,3.271,0.349,4.875
			C79.199,134.417,75.159,133.234,72.606,134.61z M83.108,158.167C83.933,158.61,83.426,158.503,83.108,158.167L83.108,158.167z
			 M82.548,157.869c0.449,0.47-0.229,0.28-0.044,0.053C82.497,157.916,82.502,157.902,82.548,157.869z M81.839,156.62
			c1.073,1.302-0.825,1.543-0.086,0.153C81.637,157.044,81.974,156.783,81.839,156.62z M92.304,144.099
			C91.765,143.664,92.486,143.828,92.304,144.099L92.304,144.099z M81.063,156.188C82.388,156.269,81.344,157.231,81.063,156.188
			L81.063,156.188z M81.273,156.034C81.031,156.291,80.924,155.974,81.273,156.034L81.273,156.034z M81.562,155.451
			C81.903,155.557,81.741,155.552,81.562,155.451L81.562,155.451z M81.907,154.606c0.111,0.053,0.294,0.05,0.339,0.174
			C82.12,154.734,81.997,154.687,81.907,154.606z M81.764,154.44C81.992,154.468,81.874,154.578,81.764,154.44L81.764,154.44z
			 M91.346,143.968C90.815,143.707,92.003,143.61,91.346,143.968L91.346,143.968z M81.049,153.601
			C81.828,153.296,82.295,154.441,81.049,153.601L81.049,153.601z M90.746,142.979C90.051,144.3,90.491,142.912,90.746,142.979
			L90.746,142.979z M90.17,142.643C89.882,142.646,90.01,142.514,90.17,142.643L90.17,142.643z M89.599,142.253
			c0.143,0.06,0.269,0.148,0.39,0.246C89.853,142.436,89.583,142.491,89.599,142.253z M89.914,140.455
			c0.114,0.007,0.201,0.043,0.213,0.163C90.054,140.567,89.981,140.517,89.914,140.455z M89.699,140.246
			C89.632,140.172,89.72,140.122,89.699,140.246L89.699,140.246z M89.389,140.006C89.055,139.786,89.43,139.641,89.389,140.006
			L89.389,140.006z M83.146,146.034C83.115,146.26,83.079,146.204,83.146,146.034L83.146,146.034z M89.381,139.581
			C88.901,139.352,89.344,138.789,89.381,139.581L89.381,139.581z M82.65,145.591c0.056-0.004,0.058,0.212-0.113,0.208
			C83.009,144.149,82.816,145.125,82.65,145.591z M82.392,144.584C82.43,144.704,82.14,144.666,82.392,144.584L82.392,144.584z
			 M82.723,137.165c-0.031-0.097,1.317,1.844,1.154,2.9C83.867,140.046,81.543,135.069,82.723,137.165z M76.874,141.259
			c0.058-0.031,0.064-0.019,0.054-0.009C77.034,141.261,77.092,141.445,76.874,141.259z M76.597,141.033
			c0.006-0.071-0.037-0.067-0.03-0.037C76.366,140.759,76.682,140.198,76.597,141.033z M77.744,134.808
			C78.325,133.928,78.368,136.208,77.744,134.808L77.744,134.808z"/>
		<path fill="#436C2B" d="M82.504,157.922c0.012-0.019,0.02-0.034,0.044-0.053C82.583,157.908,82.514,157.935,82.504,157.922z"/>
		<path fill="#436C2B" d="M87.14,131.044C85.853,130.371,83.029,127.775,87.14,131.044L87.14,131.044z"/>
		<path fill="#436C2B" d="M63.19,216.809c0.025,0.035,0.051,0.063,0.077,0.098C63.332,217.05,62.779,216.833,63.19,216.809z"/>
		<path fill="#436C2B" d="M49.517,165.228c1.357,1.374,0.451,10.531,1.16,12.454c2.596,7.023,5.547,14.499,10.12,20.51
			c1.783,2.348,4.788,9.364,1.675,9.513c1.475,0.134-1.072,9.2,0.72,9.105c0.046,0.044,0.068,0.073,0.077,0.098
			c1.922,2.48,4.431,3.997,7.531,4.541c-1.391-1.051-2.617-2.271-3.673-3.66c0.034-0.145,0.089-0.259,0.15-0.349
			c-0.248-0.155-0.515-0.323-0.815-0.519c0.421-0.443,0.935-0.486,1.542-0.127c-2.211-1.577-1.763-4.543-1.862-4.576
			c1.354,0.783,2.397,0.672,3.133-0.337c1.971-3.464-5.21-5.034,4.171-3.729c-2.821-2.001-5.058-4.522-6.708-7.561
			c0.587,0.475,1.261,0.72,2.024,0.736c-2.549-2.366-2.073-2.684-3.432-2.695c0.102-0.741-1.232-2.941-2.413-4.692
			c3.037,3.08,9.175,7.331,11.134,7.496c-2.454-2.129-4.6-4.536-6.435-7.218c0.834-0.244,1.644-0.164,2.433,0.233
			c0.422,0.443-6.769-9.498-7.205-9.6c0.852-1.03,1.768-1.071,2.743-0.127c-2.967-7.921-7.067-19.647-12.98-26.012
			C53.559,159.952,54.727,169.487,49.517,165.228z M67.937,205.362C68.032,204.098,68.787,206.842,67.937,205.362L67.937,205.362z
			 M52.01,167.663c1.346,1.954,0.837,0.615,0.255,0.144c0.922,0.613,3.747,3.236,3.288,7.112
			C54.738,172.323,53.556,169.904,52.01,167.663z"/>
		<path fill="#436C2B" d="M67.275,217.439C68.239,216.1,72.114,220.447,67.275,217.439L67.275,217.439z"/>
		<path fill="#436C2B" d="M67.937,205.362C67.941,205.296,67.944,205.376,67.937,205.362L67.937,205.362z"/>
		<path fill="#436C2B" d="M38.255,244.397c0.136,0.088,0.25,0.174,0.365,0.26C38.366,244.625,38.172,244.534,38.255,244.397z"/>
		<path fill="#436C2B" d="M38.555,243.321c0.062,0.03,0.131,0.058,0.188,0.088c-0.026,0.069-0.247,0.188-0.817,0.347
			c-0.031-0.006-0.062-0.013-0.093-0.018C37.735,243.448,38.254,243.314,38.555,243.321z"/>
		<path fill="#436C2B" d="M33.001,234.602c-0.049,0.098-0.096,0.18-0.146,0.253c0.046-0.087,0.095-0.169,0.141-0.252
			C32.996,234.603,32.997,234.604,33.001,234.602z"/>
		<path fill="#436C2B" d="M34.462,240.757C34.545,240.809,34.423,240.815,34.462,240.757L34.462,240.757z"/>
		<path fill="#436C2B" d="M38.834,244.068C38.973,244.131,38.548,244.171,38.834,244.068L38.834,244.068z"/>
		<path fill="#436C2B" d="M48.651,269.965c0.016,0.064,0.024,0.148,0.021,0.238c-0.013-0.026-0.023-0.053-0.034-0.082
			C48.642,270.072,48.646,270.024,48.651,269.965z"/>
		<path fill="#436C2B" d="M48.651,269.965C48.651,269.965,48.628,270.203,48.651,269.965L48.651,269.965z"/>
		<path fill="#436C2B" d="M25.716,225.596c-0.903,9.736,8.763,21.359,8.061,30.713c-7.995,5.558,12.611,14.624,15.837,15.605
			c-0.23-0.325-0.642-0.989-0.943-1.711c-0.003,0.368-0.108,0.775-0.034-0.082c-0.303-0.757-0.471-1.565-0.16-2.109
			c-0.84,1.009-1.924,1.234-3.25,0.67c0.229,0.175-1.739-5.533-3.862-8.381c3.69,2.057,7.596,5.359,11.686,2.827
			c-2.852-0.479-5.533-1.444-8.034-2.901c-0.171-0.349,7.782,1.472,8.513,1.117c-2.706,0.252,0.43-2.555-1.695-1.029
			c-1.42-5.225,0.037,2.167,4.014-3.738c-1.266-1.585-1.755-1.793-1.468-0.624c-1.245,0.544-2.849-1.794-2.39-2.946
			c-2.989,3.022-4.283-1.937-6.258-3.164c0.294-0.485,5.179-1.123-0.007-2.987c0.36-1.715,1.077-0.366-1.256-2.817
			c-2.146-2.254-3.158-6.745-0.467-4.538c-4.331-5.276-2.547-11.274-8.656-16.312c1.741,2.401-4.085,4.28-0.427,6.931
			c1.097,0.794,2.634,6.946,2.772,9.041c-1.736-1.04-1.988-1.631-0.757-1.766c-1.451-0.418-1.667-0.568-0.64-0.449
			c-1.419-0.538-2.084,0.048-1.996,1.758c-2.758,0.095-2.238-2.34-1.447-3.848c-0.296,0.448-0.629,0.517-1,0.196
			c0.318-0.164,0.52-0.282,0.626-0.361c0.185-0.018,0.354-0.045,0.515-0.087c0.015-0.023,0.029-0.052,0.044-0.076
			c-0.013,0.029-0.028,0.051-0.039,0.075c0.807-0.202,1.316-0.718,1.511-1.56c0.045-0.366-4.528-8.239-6.085-9.628
			C28.306,224.151,27.25,225.915,25.716,225.596z M45.577,249.027C44.642,249.658,45.393,248.876,45.577,249.027L45.577,249.027z
			 M46.061,249.38C45.116,250.135,45.363,248.883,46.061,249.38L46.061,249.38z M39.262,263.129c0.071-0.04,0.104-0.056,0.116-0.059
			C40.291,262.615,39.676,263.537,39.262,263.129z M39.149,262.502c1.123,0.49-0.734,0.751-0.079,0.079
			C39.07,262.576,39.087,262.556,39.149,262.502z M40.809,260.871C40.647,260.886,40.242,260.617,40.809,260.871L40.809,260.871z
			 M38.589,262.51C38.609,262.566,38.622,262.612,38.589,262.51L38.589,262.51z M38.56,262.419
			C39.87,262.204,38.607,262.565,38.56,262.419L38.56,262.419z M35.292,261.789C35.288,261.785,35.334,261.837,35.292,261.789
			L35.292,261.789z M39.628,253.085c0.263,0.338,6.58,5.421,5.443,6.82c-3.034-0.12-3.623-5.15-5.775-5.978
			C39.634,253.76,39.745,253.478,39.628,253.085z M38.896,253.244c-0.021-0.093-0.023-0.108-0.018-0.1
			C38.46,251.175,40.17,254.775,38.896,253.244z M34.854,241.009c1.371,0.898,1.986,0.921,2.895,1.62
			c-0.586-0.155-1.175-0.299-1.764-0.436c1.116,0.478,1.95,0.843,2.571,1.127c0.127,0.004,0.207,0.033,0.188,0.088
			c2.732,1.254,0.648,0.617-0.817,0.347c-0.029,0.008-0.049,0.013-0.08,0.022c-0.009-0.015-0.007-0.025-0.013-0.04
			c-0.002,0-0.006,0-0.009-0.001c-0.402-0.07-0.745-0.109-0.91-0.063c0.547,0.249,0.981,0.489,1.341,0.724
			c0.054-0.092,0.222-0.204,0.579-0.329c1.042,0.483,0.303,0.655-0.214,0.589c2.119,1.622,0.375,2.844,2.036,3.428
			C41.094,250.565,34.56,244.229,34.854,241.009z M34.462,240.757C35.001,241.091,34.258,241.059,34.462,240.757L34.462,240.757z
			 M34.609,238.404c1.032,0.146,1.589,0.792,1.673,1.936C36.402,240.312,34.002,239.087,34.609,238.404
			C34.603,238.414,34.002,239.087,34.609,238.404z"/>
		<path fill="#436C2B" d="M28.427,223.415c-0.125-0.111-0.233-0.188-0.316-0.207C28.383,222.992,28.475,223.127,28.427,223.415z"/>
		<path fill="#436C2B" d="M45.577,249.027C45.458,249.108,45.532,248.993,45.577,249.027L45.577,249.027z"/>
		<path fill="#436C2B" d="M39.262,263.129c0.042-0.025,0.078-0.042,0.116-0.059C39.412,263.057,39.276,263.142,39.262,263.129z"/>
		<path fill="#436C2B" d="M39.07,262.582c0.026-0.027,0.047-0.051,0.079-0.079C39.177,262.513,39.072,262.591,39.07,262.582z"/>
		<path fill="#436C2B" d="M46.061,249.38C45.913,249.499,45.945,249.298,46.061,249.38L46.061,249.38z"/>
		<path fill="#436C2B" d="M38.877,253.144c0.006,0.019,0.027,0.109,0.018,0.1C38.887,253.204,38.885,253.181,38.877,253.144z"/>
		<path fill="#436C2B" d="M96.299,284.46C96.355,284.519,96.241,284.53,96.299,284.46L96.299,284.46z"/>
		<path fill="#436C2B" d="M95.307,283.638c-0.158,0.132-0.318,0.246-0.479,0.357C94.644,284.108,94.806,283.929,95.307,283.638z"/>
		<path fill="#436C2B" d="M100.352,282.483C100.361,282.351,100.386,282.524,100.352,282.483L100.352,282.483z"/>
		<path fill="#436C2B" d="M69.693,281.023c-2.712-1.986-5.745-3.048-9.1-3.186c2.175,1.646,3.497,3.794,3.969,6.435
			c0.542,0.369,0.994,0.654,1.363,0.874c7.686,4.705,28.545,14.448,35.103,6.125c-2.891,0.593-5.804,0.763-8.745,0.514
			c0.31-0.784,0.848-1.358,1.623-1.729c-4.102-0.226-4.676,0.246-1.723,1.414c-3.044,1.246-6.26-1.508-7.979-2.339
			c3.016-0.097,10.893-2.925,12.09-4.012c-1.287,3.964,10.686,4.625,12.298,0.67c-0.08,0.087-0.18,0.165-0.319,0.227
			c0.113-0.11,0.233-0.215,0.359-0.318c0.056-0.16,0.103-0.324,0.126-0.499c0.03,0.169,0.009,0.315-0.057,0.444
			c3.471-2.806,10.702-3.375,10.399-9.393c-1.988,7.849-27.29-1.454-33.801,2.935c1.736,0.661,3.527,1.082,5.375,1.265
			c-1.202-0.047-2.369,0.14-3.501,0.562c1.539,0.282,3.042,0.692,4.506,1.232c-0.072-0.144-0.662,1.171-0.964,1.993
			c2.106-2.341,4.207-0.376,4.591-0.598c-0.239,0.197-0.393,0.308-0.479,0.357c-1.307,0.892-2.704,1.044-4.19,0.462
			c-0.068,0.198-0.111,0.349-0.101,0.396c-3.906,3.014-5.109-2.862-6.516-1.127c0.789-0.836,1.168-1.774,1.137-2.815
			c-6.036,1.413-11.626-4.126-17.316-4.948C67.863,277.841,68.48,279.528,69.693,281.023z M94.125,280.192
			c-0.338,0.373-1.266,0.279-1.521,0.151c-0.144,0.037-0.621,0.064-1.646,0.047c0.47,0.009,0.49-0.108,0.175-0.046
			c0.525-0.118,1.155-0.109,1.411-0.068C92.555,280.189,92.955,280.119,94.125,280.192z M95.185,280.298
			C94.993,280.705,93.162,280.066,95.185,280.298L95.185,280.298z M96.103,280.347C95.085,280.436,95.409,280.336,96.103,280.347
			L96.103,280.347z M97.225,280.315C96.637,280.743,96.976,280.232,97.225,280.315L97.225,280.315z M108.352,285.151
			c-0.039,0.07-0.073,0.111-0.109,0.107C108.267,285.204,108.317,285.192,108.352,285.151z M108.233,285.259
			C108.124,285.23,107.919,284.044,108.233,285.259C108.134,285.233,108.233,285.259,108.233,285.259z M107.648,285.026
			C108.382,284.818,107.936,285.977,107.648,285.026L107.648,285.026z M105.553,284.599
			C105.589,284.648,105.553,284.599,105.553,284.599C105.688,284.782,105.624,284.842,105.553,284.599z M105.496,284.538
			C105.496,284.538,105.439,284.467,105.496,284.538C104.994,284.765,105.374,284.384,105.496,284.538z M103.717,284.649
			C103.57,284.707,104.257,284.015,103.717,284.649L103.717,284.649z M98.334,281.627C98.184,281.516,98.335,281.056,98.334,281.627
			L98.334,281.627z M100.352,282.483C100.394,281.8,100.584,282.747,100.352,282.483L100.352,282.483z M100.393,282.213
			C99.915,282.419,100.181,281.79,100.393,282.213L100.393,282.213z M99.599,282.219C98.964,282.044,100.102,281.375,99.599,282.219
			L99.599,282.219z M99.144,281.935C99.822,282.474,98.266,281.707,99.144,281.935L99.144,281.935z M96.299,284.46
			C96.583,284.765,96.035,284.779,96.299,284.46L96.299,284.46z M95.688,284.516C96.148,283.674,96.131,284.641,95.688,284.516
			L95.688,284.516z M95.63,284.502C95.149,284.372,95.737,284.082,95.63,284.502L95.63,284.502z M95.208,284.417
			c-0.101-0.016-0.202-0.021-0.302-0.015C95.122,284.064,95.191,284.173,95.208,284.417z M98.148,281.482
			C97.021,280.679,98.661,280.903,98.148,281.482L98.148,281.482z M79.931,285.933C80.547,286.116,80.292,286.336,79.931,285.933
			L79.931,285.933z M74.324,282.5C74.364,282.612,74.333,282.776,74.324,282.5L74.324,282.5z M73.464,282.103
			c1.245,1.046-0.115,0.445-0.013,0.044C73.452,282.233,73.626,282.239,73.464,282.103z M72.311,281.547
			c0.489-0.241,0.778,0.228,1.124,0.532C72.955,281.95,72.597,281.775,72.311,281.547z M71.815,281.078
			C71.532,281.603,71.341,280.777,71.815,281.078L71.815,281.078z M69.92,281.174c0.109,0.034,0.191,0.085,0.238,0.159
			C70.083,281.273,69.996,281.231,69.92,281.174z"/>
		<path fill="#436C2B" d="M99.144,281.935C99.214,281.989,99.012,281.902,99.144,281.935L99.144,281.935z"/>
		<path fill="#436C2B" d="M95.63,284.502C95.555,284.482,95.655,284.417,95.63,284.502L95.63,284.502z"/>
		<path fill="#436C2B" d="M95.688,284.516C95.784,284.343,95.749,284.534,95.688,284.516L95.688,284.516z"/>
		<path fill="#436C2B" d="M98.148,281.482C97.985,281.366,98.239,281.379,98.148,281.482L98.148,281.482z"/>
		<path fill="#436C2B" d="M108.702,285.642c-0.027,0.054-0.064,0.102-0.109,0.146c0.013-0.028,0.027-0.06,0.04-0.092
			C108.654,285.68,108.68,285.66,108.702,285.642z"/>
		<path fill="#436C2B" d="M107.648,285.026C107.773,284.989,107.694,285.183,107.648,285.026L107.648,285.026z"/>
		<path fill="#436C2B" d="M90.544,284.425c0.056-0.071,0.114-0.127,0.172-0.189c-0.03,0.078-0.056,0.15-0.078,0.222
			C90.607,284.443,90.575,284.436,90.544,284.425z"/>
		<path fill="#436C2B" d="M99.599,282.219C99.512,282.195,99.672,282.095,99.599,282.219L99.599,282.219z"/>
		<path fill="#436C2B" d="M100.393,282.213C100.311,282.248,100.354,282.139,100.393,282.213L100.393,282.213z"/>
		<path fill="#436C2B" d="M95.185,280.298C95.137,280.399,94.889,280.264,95.185,280.298L95.185,280.298z"/>
		<path fill="#436C2B" d="M79.931,285.933C80.07,285.974,80.006,286.018,79.931,285.933L79.931,285.933z"/>
		<path fill="#436C2B" d="M92.604,280.343c-0.041-0.022-0.064-0.046-0.06-0.067C92.66,280.294,92.695,280.32,92.604,280.343z"/>
		<path fill="#436C2B" d="M94.125,280.192C94.004,280.325,93.654,280.162,94.125,280.192L94.125,280.192z"/>
		<path fill="#436C2B" d="M75.841,265.756c1.112-0.453,2.263-0.77,3.448-0.947c-0.01,0.452,0.01,1.694-0.371,2.331
			c1.167-2.041,0.184-0.271,0.339-0.08c-0.556,0.48-0.86,1.033-0.902,1.657c-2.463-0.493-4.955-0.486-7.288,0.604
			c4.137,1.461,7.87,3.097,6.131,3.051c0.662,0.018,6.32,0.526,5.885,1.03c0.564,0.404-1.08,3.409-0.561,3.101
			c0.161,0.121,0.279,0.199,0.373,0.246c4.301,2.575,15.327-0.352,17.823-4.104c1.217-0.948-9.601,0.406-8.925,0.404
			c-2.2-0.003-5.349-1.614-8.829-2.937c1.704,0.154,3.713,1.094,5.32-1.433c-0.408,0.178-2.013-2.313-1.693-3.53
			c-1.716,3.282-5.852-5.748-12.082-1.938C77.75,263.602,78.193,264.45,75.841,265.756z M80.099,269.143
			c0.635-0.184,1.203-0.231,1.191,0.372C80.896,269.383,80.497,269.257,80.099,269.143z"/>
		<path fill="#436C2B" d="M117.438,244.897C113.02,243.208,118.248,245.018,117.438,244.897L117.438,244.897z"/>
		<path fill="#436C2B" d="M117.438,244.897c1.704,0.256,18.73,0.385,17.319,9.229c5.924-2.689,8.993-0.346,14.136,2.749
			c-16.327-2.572-29.059-5.201-45.271-13.483C108.366,242.617,112.972,243.121,117.438,244.897z"/>
		<path fill="#436C2B" d="M101.97,238.552c-0.026,0.117-0.049,0.236-0.076,0.356C101.78,238.643,101.839,238.533,101.97,238.552z"/>
		<path fill="#436C2B" d="M106.056,235.06C107.406,233.325,106.216,235.056,106.056,235.06L106.056,235.06z"/>
		<path fill="#436C2B" d="M102.833,240.989c-0.051-0.432-0.056-0.794-0.017-1.087C102.873,240.214,102.888,240.576,102.833,240.989z
			"/>
		<path fill="#436C2B" d="M111.161,237.965c-0.755,1.991-1.066,2.229,1.459,1.793c-2.622,3.687-6.763,0.82-7.456,1.862
			c-0.906-0.292-1.159-1.107-0.755-2.453c-0.945-0.411-1.476-0.166-1.593,0.734c-0.155-0.844-0.614-1.31-0.847-1.35
			c0.417-1.861,1.138-3.42,4.086-3.492c-0.73,0.937,3.087,0.912,2.726,0.155c0.255,0.876,0.125,1.709-0.381,2.502
			c0.117,0.213-0.46,2.119,0.23-0.155c-0.197,0.583-0.137,1.992-0.023,2.296C108.303,239.52,110.058,239.235,111.161,237.965z"/>
		<path fill="#436C2B" d="M157.47,242.7c-1.306-0.51-2.613-1.012-3.927-1.503c0.367-0.866,1.213-0.244-2.488-1.256
			c-0.059,0.001-0.114,0.006-0.2,0.008c0,0,0.039-0.016,0.091-0.038c-0.06-0.016-0.111-0.03-0.176-0.049
			c0.052,0.015,0.132,0.024,0.215,0.035c0.152-0.064,0.404-0.171,0.615-0.262c0.871,0.121,1.396-0.189,1.57-0.938
			c-0.202-0.385-5.36-1.771-4.399-1.71c-2.722-0.976-5.943-2.237-8.902-1.909c0.393,0.072,2.221,1.604,1.017,2.129
			C144.483,236.556,151.447,242.457,157.47,242.7z M151.137,239.536c0.066,0.018,0.13,0.03,0.193,0.044
			C149.857,239.874,150.682,239.706,151.137,239.536z"/>
		<path fill="#436C2B" d="M148.771,236.987C151.748,237.167,149.035,237.082,148.771,236.987L148.771,236.987z"/>
		<path fill="#436C2B" d="M150.984,239.897c0.267,0.023,0.549,0.024,0.07,0.044c-0.036-0.01-0.07-0.02-0.109-0.03
			C150.957,239.907,150.972,239.899,150.984,239.897z"/>
		<path fill="#436C2B" d="M129.038,136.221c-0.142,0.009-0.396,0.117-0.76,0.325C128.352,136.098,128.674,136.052,129.038,136.221z"
			/>
		<path fill="#436C2B" d="M127.576,142.324c-0.086-0.145-0.162-0.266-0.23-0.355C127.813,141.743,127.896,141.855,127.576,142.324z"
			/>
		<path fill="#436C2B" d="M130.518,138.272c0.059,0.019-0.048,0.076-0.393,0.183c0.037-0.056,0.061-0.117,0.081-0.177
			c0.014-0.001,0.028-0.004,0.042-0.002C131.038,137.143,131.183,137.838,130.518,138.272z"/>
		<path fill="#436C2B" d="M129.158,136.279c-0.041-0.023-0.081-0.04-0.12-0.058C129.106,136.215,129.141,136.239,129.158,136.279z"
			/>
		<path fill="#436C2B" d="M127.492,134.389C128.064,133.471,128.041,134.427,127.492,134.389L127.492,134.389z"/>
		<path fill="#436C2B" d="M118.749,135.721c-0.192,0.112,3.776-4.38,4.091-4.62c-0.92-1.478-1.964-1.489-3.132-0.028
			c0.109-0.101,0.836-3.969,0.264-4.072c3.837-1.528,5.296,3.473,7.954,2.427c-3.419,2.266,1.574,1.478,1.519,2.459
			c-0.198,1.003-0.84,1.619-1.919,1.853c-0.108,0.087-0.286,0.213-0.554,0.387c0.21,0.185,0.379,0.251,0.52,0.262
			c-0.177,0.282-0.41,0.739-0.7,1.467c2.642-0.508-1.374,1.451,2.023,1.147c0.28-0.389,0.389-0.624,0.343-0.724
			c0.625,0.363,1.299,1.298,1.048,1.999c-1.093,0.113-4.538,0.817-4.569,1.189c2.043-0.663-1.47,1.64,1.057-0.001
			c-0.72,0.464-1.078,1.484-1.297,1.983c0.584,0.079,1.092,0.311,1.529,0.688c0.105-0.431,0.231-0.422,0.42-0.168
			c-0.105,0.051-0.229,0.117-0.375,0.206c0.141,0.127,0.276,0.268,0.402,0.428c0.081-0.104,0.146-0.195,0.203-0.278
			c0.432,0.713,1.118,1.954,2.328,2.573C120.663,148.396,122.844,134.679,118.749,135.721z"/>
		<path fill="#436C2B" d="M113.208,168.92c-6.944,2.319-7.788-10.398-11.029-9.855c0.189-0.095,1.706-3.726,1.298-3.928
			c2.539,1.003,4.915,2.293,7.128,3.871c-3.613,1.893,1.227,1.522,1.156,2.387c-0.245,0.95-0.883,1.533-1.902,1.759
			c0.232,0.203-1.545,1.429,0.427,0.085c-0.702,0.481-1.031,1.542-1.216,2.036c0.594,0.089,1.122,0.32,1.583,0.691
			c0.078-0.39,0.198-0.399,0.39-0.178c-0.1,0.054-0.213,0.121-0.348,0.211c0.155,0.126,0.3,0.27,0.44,0.429
			c0.069-0.104,0.129-0.196,0.18-0.279c0.489,0.698,1.28,1.932,2.576,2.504C113.462,168.845,113.269,168.915,113.208,168.92z"/>
		<path fill="#436C2B" d="M111.314,166.149c-0.103-0.149-0.196-0.273-0.272-0.361C111.531,165.519,111.627,165.635,111.314,166.149z
			"/>
		<path fill="#436C2B" d="M95.631,202.277C95.537,202.351,94.821,202.524,95.631,202.277L95.631,202.277z"/>
		<path fill="#436C2B" d="M88.463,202.512c-0.084,0.022-0.155,0.044-0.248,0.067C88.316,202.525,88.398,202.505,88.463,202.512z"/>
		<path fill="#436C2B" d="M92.796,203.268C92.76,203.292,92.628,203.302,92.796,203.268L92.796,203.268z"/>
		<path fill="#436C2B" d="M91.742,206.019C91.746,206.021,90.676,205.791,91.742,206.019L91.742,206.019z"/>
		<path fill="#436C2B" d="M92.022,203.721C92.06,203.717,91.991,203.76,92.022,203.721L92.022,203.721z"/>
		<path fill="#436C2B" d="M92.3,203.457C92.388,203.408,92.29,203.487,92.3,203.457L92.3,203.457z"/>
		<path fill="#436C2B" d="M92.706,203.287c-0.019,0.016-0.039,0.029-0.06,0.046c-0.078,0.025-0.161,0.047-0.224,0.055
			c0.046-0.025,0.084-0.044,0.119-0.063C92.583,203.315,92.646,203.302,92.706,203.287z"/>
		<path fill="#436C2B" d="M87.178,187.877c2.533-0.358,5.742,12.532,1.006,13.229c1.911-0.036,3.841,0.442,0.279,1.405
			c0.432,0.051-0.08,1.452-1.961,2.586c0.717-0.324,1.305-0.596,1.799-0.83c-0.088,0.144-0.002,0.246,0.381,0.266
			c-0.247,0.833-1.198,1.637-1.555,2.014c1.917-0.705,0.658,1.275,0.692,1.487c-0.149,0.056,4.279,0.01,4.482-1.204
			c0.107-0.653-1.168-1.552,1.517-2.259c-0.74,0.062-1.482,0.089-2.226,0.089c0.674-0.508,1.414-0.892,2.217-1.157
			c-0.462-0.269-0.972-0.351-1.531-0.249c1.229-0.637,2.461-0.639,3.735-1.105c-2.171,0.354,1.82-0.354-2.362,0.211
			c2.7-1.201,1.042-1.851-0.812-2.646c1.053,0.058,1.146-0.066,0.283-0.375c1.596,0.427,3.203,0.781,4.831,1.067
			c-0.888-0.99-1.795-1.957-2.724-2.906c0.637-0.201,1.29-0.338,1.955-0.405c-1.163-0.349-2.114-1.834-3.251-3.423
			c0.789-0.469,2.259-1.538,2.875-1.676c0.219-0.997-4.882-1.673-0.992-2.981c-2.831,0.275-3.458-5.347-7.388-5.268
			C88.91,184.01,87.469,187.74,87.178,187.877z M92.633,203.487C92.538,203.522,92.72,203.424,92.633,203.487L92.633,203.487z
			 M90.708,205.709C90.725,205.716,90.675,205.751,90.708,205.709L90.708,205.709z M91.948,204.893
			C91.931,204.875,91.98,204.803,91.948,204.893L91.948,204.893z M91.742,206.019c-0.549,0.116-1.098,0.247-1.643,0.385
			C90.343,205.493,90.676,205.791,91.742,206.019z M92.022,203.721C92.286,203.685,91.705,204.101,92.022,203.721L92.022,203.721z
			 M92.07,203.668C92.403,203.722,92.027,203.721,92.07,203.668L92.07,203.668z M92.541,203.325
			c0.249-0.131,0.251-0.104,0.165-0.038c0.033-0.004,0.052-0.01,0.09-0.019c-0.043,0.025-0.097,0.047-0.15,0.064
			c-0.147,0.102-0.383,0.229-0.346,0.124c0.046-0.028,0.083-0.047,0.122-0.069C92.288,203.41,92.247,203.393,92.541,203.325z
			 M88.667,204.749C88.975,204.559,88.739,204.705,88.667,204.749L88.667,204.749z M95.515,197.071
			c0.05-0.009,0.319,0.015,0.412,0.073c0,0-0.049-0.03,0,0c-0.201-0.021-0.31-0.042-0.371-0.052
			c0.023,0.029,0.016,0.086-0.083,0.147C95.433,197.114,95.475,197.069,95.515,197.071z M93.802,198.9
			C94.474,198.423,93.729,199.286,93.802,198.9L93.802,198.9z M93.587,198.815C94.46,198.548,93.718,198.991,93.587,198.815
			L93.587,198.815z M93.814,198.602C93.85,198.641,93.589,198.733,93.814,198.602L93.814,198.602z M90.171,200.172
			C90.19,200.174,89.735,200.429,90.171,200.172L90.171,200.172z"/>
		<path fill="#436C2B" d="M95.515,197.071c0.016,0,0.032,0.006,0.041,0.021C95.507,197.079,95.497,197.075,95.515,197.071z"/>
		<path fill="#436C2B" d="M93.802,198.9C93.854,198.864,93.792,198.949,93.802,198.9L93.802,198.9z"/>
		<path fill="#436C2B" d="M93.587,198.815C93.728,198.772,93.616,198.856,93.587,198.815L93.587,198.815z"/>
		<path fill="#436C2B" d="M199.22,23.5c-0.032,0.035-0.054,0.061-0.048,0.064C198.805,23.292,199.011,23.382,199.22,23.5z"/>
		<path fill="#436C2B" d="M201.813,44.52c-0.503-0.605-1.146-0.92-1.926-0.947c0.128,1.983,0.426,3.938,0.897,5.868
			c-9.522-6.063,2.815-22.602-1.613-25.876c0.513,0.233,0.279,0.066,0.048-0.064c0.372-0.396,2.94-2.702,2.636-3.524
			c5.075,6.963,3.063,15.136-1.123,17.192c2.031,1.209-3.798,2.707-0.552,6.308C200.861,41.374,201.406,41.721,201.813,44.52z"/>
		<path fill="#436C2B" d="M216.16,39.925C216.065,39.89,216.064,39.831,216.16,39.925L216.16,39.925z"/>
		<path fill="#436C2B" d="M212.553,40.609c0.064,0.066,0.128,0.139,0.187,0.229C212.654,40.842,212.594,40.751,212.553,40.609z"/>
		<path fill="#436C2B" d="M205.713,46.165c0.123,0.07,0.244,0.141,0.381,0.204C205.745,46.478,205.643,46.369,205.713,46.165z"/>
		<path fill="#436C2B" d="M222.897,36.846c-2.221-2.499,3.041-5.775-1.754-8.09c0.111,0.196-1.331,2.235-3.343,1.708
			c2.749,1.394-1.028,4.341-2.665,4.643c-0.514-2.053-0.122-3.94,1.18-5.663c0.502,0.676,0.692,1.438,0.573,2.285
			c2.346-3.258,2.259-3.991-0.258-2.197c0.639-3.87,4.869-4.54,6.101-5.87c-0.025-0.019,3.09-0.084,1.447,2.239
			c6.236-4.365,15.284-9.115,20.178-15.204c-2.545,0.127-16.755,0.993-16.685,5.011c-5.795,0.769-11.358,8.885-13.787,13.676
			c-0.682-0.316-1.143-0.836-1.384-1.556c-0.659,2.323-0.298,2.825,1.084,1.504c0.504,1.302-2.35,3.903-2.512,4.367
			c-0.915-0.586-1.02-0.507-0.312,0.244c-3.182-0.044-10.363,9.202-5.049,12.223c0.205-0.607,1.94-2.068,3.298-1.154
			c0.277-0.42-0.738-4.618-0.309-4.164c1.474,0.082,2.981-1.099,3.851-0.238c-0.159-0.543-0.025-1.882,0.136-1.824
			c1.908,1.407,0.024,0.76,1.165,3.603c1.261-2.645,0.964-3.045,2.808-1.104c-0.301-1.209-0.36-2.424-0.186-3.65
			c0.538,0.095,1.581,0.148,2.236,0.695c-1.824-1.5-0.257-0.254-0.03-0.387c0.524,0.919,1.279,1.332,2.27,1.222
			C222.045,38.843,219.595,34.445,222.897,36.846z M216.16,39.925C215.869,39.813,215.629,39.396,216.16,39.925L216.16,39.925z
			 M214.362,36.868C214.591,36.753,214.479,36.96,214.362,36.868L214.362,36.868z M214.826,36.577
			C214.695,36.531,214.79,36.516,214.826,36.577L214.826,36.577z M214.41,37.337"/>
		<path fill="#436C2B" d="M214.169,38.542c-0.019-0.042,0.023-0.109,0.027-0.093C214.186,38.48,214.184,38.507,214.169,38.542z"/>
		<path fill="#436C2B" d="M236.453,59.611c-0.023-0.071-0.043-0.134-0.057-0.188c0.021,0.015,0.042,0.03,0.064,0.045
			C236.474,59.536,236.473,59.59,236.453,59.611z"/>
		<path fill="#436C2B" d="M245.29,58.809c0.02-0.124,0.03-0.249,0.03-0.374C245.505,58.705,245.451,58.83,245.29,58.809z"/>
		<path fill="#436C2B" d="M236.087,59.22C236.159,59.317,235.999,59.203,236.087,59.22L236.087,59.22z"/>
		<path fill="#436C2B" d="M238.21,61.097c-0.119,0.041-0.25-0.245-0.283-0.388c0.096,0.11,0.184,0.231,0.268,0.356
			C238.2,61.077,238.205,61.084,238.21,61.097z"/>
		<path fill="#436C2B" d="M237.769,61.568c0,0.006-0.002,0.016-0.008,0.022C237.686,61.027,237.815,61.436,237.769,61.568z"/>
		<path fill="#436C2B" d="M237.715,61.642C237.249,60.806,237.755,61.507,237.715,61.642L237.715,61.642z"/>
		<path fill="#436C2B" d="M237.524,60.545C237.729,60.104,237.967,62.427,237.524,60.545L237.524,60.545z"/>
		<path fill="#436C2B" d="M237.88,60.695C237.896,60.866,237.813,60.575,237.88,60.695L237.88,60.695z"/>
		<path fill="#436C2B" d="M237.715,61.642C237.713,61.646,237.655,61.536,237.715,61.642L237.715,61.642z"/>
		<path fill="#436C2B" d="M228.463,63.378C228.368,63.294,228.539,63.238,228.463,63.378L228.463,63.378z"/>
		<path fill="#436C2B" d="M242.245,64.09c0.094-1.497,2.733-3.313,3.045-5.282c-0.342-0.044-1.178-0.753-1.331-2.19
			c-0.243,3.071-1.252,2.646-2.454,0.072c0.14,0.392,0.064,0.749-0.23,1.075c-0.488-2.341-1.36-0.138-2.204-2.086
			c0.488-1.11,0.221-1.899-0.822-2.35c0.018-0.025-6.797,5.131-7.276,5.6c-0.128-0.852,0.041-1.648,0.51-2.389
			c-0.495,0.686-1.179,1.067-2.051,1.144c2.687-6.06,12.938-8.402,17.223-15.032c-0.249,0.627-0.212,0.765,0.829-1.497
			c-8.838,3.136-34.324,17.504-33.529,24.252c-0.142,1.359-10.568,1.367-5.894,7.375c0.733-0.938,1.22-1.986,1.454-3.137
			c0.31,0.104,1.314,1.021,1.625,1.561c-1.663-2.734,0.675,1.245-0.182-0.913c1.614,0.743-0.316,3.306-0.757,3.604
			c3.909-1.708,14.184-8.657,13.895-7.51c-0.755,1.33-0.641,2.374,0.342,3.134c0.972,0.586,3.222-4.201,3.362-0.114
			c0.628-3.079,6.216-1.699,7.148-5.992c-0.344,0.388-3.356-1.535-3.746-2.041c1.745-1.628,3.983-3.332,4.014-3.319
			c0.055,0.475,0.439,0.825,0.934,1.189c-0.019-0.008-0.039-0.021-0.062-0.025c0.351,0.462,0.361,0.298,0.224,0.143
			c0.028,0.019,0.056,0.039,0.086,0.061c-0.19-0.644,0.021-0.209,0.064,0.045c0.487,0.343,1.027,0.723,1.466,1.24
			c-0.03-0.138,0.027-0.146,0.268,0.356c0.202,0.307,0.372,0.655,0.476,1.066c-0.258-1.814,1.244-1.489,1.267-1.498
			c0.011,0.302,0.021,0.515,0.036,0.657c-0.206,0.97-0.045,1.85,0.491,2.637C240.646,64.126,241.999,60.328,242.245,64.09z
			 M224.199,61.038c-1.821,0.592-3.552,1.377-5.195,2.357c1.597-1.127,2.973-2.48,4.123-4.058c1.609,2.317,0.469-1.89,3.942-0.405
			c-0.461,3.583,3.001-1.783,3.636-0.169C229.559,60.586,219.246,63.291,224.199,61.038z M228.463,63.378
			C227.835,62.808,228.732,62.879,228.463,63.378L228.463,63.378z M231.145,61.428c-0.438,4.731-0.101,0.15-1.945,2.685
			C228.939,63.691,229.91,62.583,231.145,61.428z M238.987,55.476c-0.083-0.224-0.169-0.48-0.255-0.807
			C238.878,54.955,238.957,55.222,238.987,55.476z M238.19,57.083c0.353-0.448,0.617-0.86,0.804-1.236
			C238.947,56.323,238.686,56.737,238.19,57.083z"/>
		<path fill="#436C2B" d="M227.069,58.932C226.984,59.603,225.897,58.433,227.069,58.932L227.069,58.932z"/>
		<path fill="#436C2B" d="M205.719,79.37c0.085,0.165,0.173,0.33,0.25,0.501C205.84,79.785,205.759,79.587,205.719,79.37z"/>
		<path fill="#436C2B" d="M192.99,91.1c-0.063,0.076-0.125,0.155-0.186,0.233c-0.036-0.029-0.068-0.053-0.106-0.083
			C192.793,91.207,192.894,91.156,192.99,91.1z"/>
		<path fill="#436C2B" d="M201.21,78.998c-0.392,4.655-16.041,2.241-10.838,15.475c0.758-1.02,1.539-2.025,2.335-3.016
			c-0.053-0.051-0.102-0.1-0.147-0.152c-0.786,0.282-1.369-0.124,0.16-2.78c-0.669,1.16,0.811,0.167,1.294-0.238
			c0.897,0.257,3.935,1.816,2.368-0.566c1.117,0.596,2.001,1.428,2.652,2.496c-1.981-4.771,5.98-4.084,5.857-11.765
			c-0.521,1.465-1.956-1.333-1.338,0.779c-0.357-1.063-0.596-2.122-0.714-2.449c0.292,0.554,0.469,0.616,0.53,0.171
			c0.22,0.242,0.899,0.897,1.096,1.193c-0.326-0.473-0.512-0.736-0.603-0.864c0.241,0.328,0.957,1.265,0.342-0.021
			c0.61,0.632,1.11,1.338,1.514,2.109c-0.134-0.735,0.246-1.709,1.175,0.477c-0.12-0.709,1.097-4.176,1.629-4.267
			c-0.574-0.939-1.506-1.679-1.685-3.119C206.646,74.732,197.415,72.416,201.21,78.998z M196.183,88.74
			c-0.063-0.048-0.093-0.077-0.108-0.094C195.647,88.255,195.724,87.947,196.183,88.74z M202.817,78.389
			C202.239,79.683,202.48,78.086,202.817,78.389L202.817,78.389z"/>
		<path fill="#436C2B" d="M192.781,90.957c0.003,0.025-0.012,0.103-0.087,0.292c0.002,0,0.002,0.001,0.004,0.001
			c-0.048,0.021-0.094,0.038-0.139,0.055c-0.512-0.568-0.698-1.229,0.778-1.347c0.989-0.081,0.381,0.702-0.348,1.142
			c0.004-0.005,0.007-0.008,0.009-0.013C192.813,91.07,192.785,90.987,192.781,90.957z"/>
		<path fill="#436C2B" d="M196.183,88.74c-0.041-0.032-0.074-0.063-0.108-0.094C196.036,88.598,196.128,88.645,196.183,88.74z"/>
		<path fill="#436C2B" d="M192.707,91.457c0.032-0.042,0.064-0.084,0.098-0.124C194.554,92.652,193.453,92.191,192.707,91.457z"/>
		<path fill="#436C2B" d="M177.435,21.763C177.433,21.762,178.153,21.843,177.435,21.763L177.435,21.763z"/>
		<path fill="#436C2B" d="M175.255,27.896c0.071,0.001,0.126,0.003,0.166,0.005c0.004,0.008,0.007,0.015,0.01,0.022
			C175.366,27.922,175.292,27.915,175.255,27.896z"/>
		<path fill="#436C2B" d="M176.979,23.628c0.01-0.011,0.022-0.021,0.036-0.033c0.052-0.022,0.104-0.041,0.143-0.053
			c-0.027,0.02-0.05,0.037-0.073,0.051C177.057,23.603,177.017,23.616,176.979,23.628z"/>
		<path fill="#436C2B" d="M175.113,24.489C175.17,24.433,175.632,24.271,175.113,24.489L175.113,24.489z"/>
		<path fill="#436C2B" d="M177.373,22.518C177.386,22.53,177.358,22.582,177.373,22.518L177.373,22.518z"/>
		<path fill="#436C2B" d="M176.92,23.646C176.941,23.63,177.028,23.613,176.92,23.646L176.92,23.646z"/>
		<path fill="#436C2B" d="M176.542,26.596C176.51,26.625,176.544,26.563,176.542,26.596L176.542,26.596z"/>
		<path fill="#436C2B" d="M177.235,23.49C177.183,23.53,177.241,23.469,177.235,23.49L177.235,23.49z"/>
		<path fill="#436C2B" d="M181.085,36.246c-0.746-0.313-3.676-10.796-0.979-11.476c-2.004,0.238-0.483-1.75,0.851-2.746
			c0.961-0.559-6.587-1.862-3.335,0.624c-0.403,0.349-2.419,1.437-0.359,0.974c-0.688,0.52-1.483,0.845-2.394,0.977
			c0.525-0.053,1.039-0.151,1.547-0.295c-1.699,0.97-0.576,1.288,0.71,1.69c-0.699,0.033-0.753,0.123-0.161,0.267
			c-1.082-0.176-2.169-0.305-3.262-0.388c1.364,0.847,1.427,1.282,1.719,2.027c0.043,0.003,0.074,0.004,0.094,0.007
			c-0.023-0.015-0.033-0.054,0.034-0.105c0.034,0.08,0.009,0.108-0.019,0.109c0.019,0.008-0.031,0.013-0.1,0.011
			c0.197,0.498,0.503,1.137,1.368,2.132C175.127,31.292,176.099,36.844,181.085,36.246z M177.435,21.763
			c0.354-0.12,0.707-0.242,1.06-0.362C178.394,22.018,178.153,21.843,177.435,21.763z M177.012,23.49
			C177.074,23.463,176.96,23.539,177.012,23.49L177.012,23.49z M177.402,23.297C177.23,23.338,177.587,23.026,177.402,23.297
			L177.402,23.297z M177.372,23.337C177.148,23.32,177.398,23.298,177.372,23.337L177.372,23.337z M177.084,23.593
			c-0.152,0.102-0.158,0.084-0.105,0.035c-0.021,0.007-0.033,0.011-0.059,0.018c0.026-0.018,0.061-0.035,0.095-0.051
			c0.092-0.079,0.239-0.178,0.221-0.105c-0.028,0.021-0.053,0.036-0.078,0.052C177.245,23.521,177.273,23.529,177.084,23.593z
			 M179.549,22.399C179.358,22.544,179.503,22.433,179.549,22.399L179.549,22.399z M176.542,26.596
			C176.129,26.955,176.565,26.338,176.542,26.596L176.542,26.596z M176.688,26.638C176.132,26.872,176.592,26.53,176.688,26.638
			L176.688,26.638z M176.555,26.793C176.526,26.77,176.694,26.693,176.555,26.793L176.555,26.793z M178.856,25.517
			C178.843,25.52,179.126,25.32,178.856,25.517L178.856,25.517z"/>
		<path fill="#436C2B" d="M176.688,26.638C176.603,26.677,176.668,26.614,176.688,26.638L176.688,26.638z"/>
	</g>
	<path fill="#658A2F" d="M273.601,8.451c0.033,0.893-15.1,9.535-16.377,10.409c-6.045,4.303-11.839,9.002-17.42,13.883
		c-13.596,12.013-26.006,24.817-37.909,38.494c-27.213,31.271-49.31,67.315-71.839,102.002
		c-23.808,36.65-46.636,73.852-69.607,111.025c-9.53,15.422-19.066,30.888-29.492,45.721c-5.149,7.327-10.221,14.714-15.639,21.848
		c-1.869,2.54-8.388,14.812-11.738,15.607c-10.571-4.315,5.252-17.036,9.152-22.321c12.588-17.06,24.54-34.68,35.546-52.8
		c23.213-38.111,47.19-75.759,72.113-112.776c24.201-35.947,47.627-74.265,76.801-106.458c13.249-14.622,26.805-28.444,41.87-41.221
		C248.916,23.587,261.585,12.109,273.601,8.451z"/>
	<path fill="#658A2F" d="M213.505,100.304c3.704-2.695,21.069,5.114,21.679,1.688c0.231,0.571-0.433-0.44-0.072,0.606
		c0.105-0.053,0.118,0.01,0.04,0.186c0.379-0.368,2.557-1.32,2.148-0.092c-0.831-0.583,1.362-0.08,0.553-0.128
		c0.335-0.089,0.052-0.631,0.422-0.55c0.201,0.533-0.19,0.235,0.478,0.186c-0.064,0.44-0.343,0.056-0.268,0.69
		c0.115,0.036,0.695-0.473,0.781-0.634c0.143,0.047,1.833,1.25,2.038,0.87C235.159,105.181,221.032,99.041,213.505,100.304
		C213.905,100.012,213.228,100.35,213.505,100.304z"/>
	<path fill="#658A2F" d="M209.226,106.869c3.386-2.289,20.574,5.336,20.978,1.933c0.267,0.581-0.473-0.47-0.04,0.609
		c0.104-0.059,0.118,0.002,0.046,0.182c0.354-0.398,2.387-1.573,2.076-0.32c-0.89-0.472,1.36-0.236,0.523-0.187
		c0.211-0.086,0.093-0.501,0.213-0.542c-0.037,0.133,0.01,0.116,0.144-0.05c0.278,0.49-0.195,0.264,0.476,0.134
		c-0.025,0.432-0.316,0.105-0.194,0.714c0.104,0.024,0.623-0.542,0.692-0.713c0.695,0.156,1.104,0.804,1.884,0.533
		c-0.16,0.257,0.253-0.109,0.173,0.113c-0.389,0.209-6.177,1.541-8.328,0.836C223.798,112.858,212.32,106.502,209.226,106.869
		C209.627,106.599,208.953,106.901,209.226,106.869z"/>
	<path fill="#658A2F" d="M228.638,86.375c1.126-1.545,10.851,0.282,10.773,0.275c0.051-0.255,6.641,1.592,6.839,0.895
		c0.127,0.664-0.325-0.654-0.139,0.593c0.103-0.044,0.104,0.02,0.009,0.188c0.426-0.391,2.222-1.145,1.752,0.035
		c-0.805-0.791,1.267,0.031,0.461-0.094c0.215-0.055,0.142-0.438,0.271-0.498c-0.055,0.12-0.012,0.113,0.127-0.023
		c0.136,0.541-0.217,0.225,0.366,0.211c-0.084,0.386-0.279,0.108-0.29,0.669c0.04,0.023,0.603-0.408,0.697-0.583
		c0.52,0.255,1.221,1.111,1.373,1.206C250.989,89.444,230.655,85.555,228.638,86.375C228.89,86.031,228.429,86.46,228.638,86.375z"
		/>
	<path fill="#658A2F" d="M220.95,64.215c2.85-1.756,14.568,1.822,15.785,1.894c0.026-0.161,9.936,1.422,10.091,0.445
		c0.288,0.48-0.482-0.277-0.055,0.606c0.112-0.057,0.131,0.004,0.057,0.184c0.347-0.309,2.944-1.53,2.559-0.257
		c-0.743-0.345,1.398-0.18,0.645-0.173c0.387-0.111,0.007-0.605,0.444-0.585c0.143,0.56-0.062,0.241,0.579,0.097
		c-0.027,0.467-0.401,0.085-0.241,0.733c0.175,0.019,0.776-0.617,0.848-0.772c0.16,0.019,2.332,0.932,2.521,0.484
		C246.035,70.646,230.664,63.069,220.95,64.215C221.401,63.936,220.623,64.254,220.95,64.215z"/>
	<path fill="#658A2F" d="M217.453,60.366c3.282-2.116,20.135,4.879,20.479,1.417c0.276,0.567-0.464-0.453-0.029,0.607
		c0.101-0.06,0.116,0.001,0.05,0.186c0.352-0.417,2.318-1.555,2.023-0.305c-0.896-0.518,1.345-0.211,0.512-0.182
		c0.213-0.086,0.093-0.5,0.213-0.54c-0.036,0.131,0.01,0.115,0.145-0.049c0.22,0.523-0.159,0.25,0.467,0.139
		c-0.033,0.423-0.308,0.117-0.204,0.711c0.096,0.026,0.623-0.526,0.692-0.707c0.669,0.158,1.058,0.829,1.824,0.55
		c-0.16,0.264,0.254-0.101,0.165,0.114c-0.512,0.184-5.835,1.41-8.109,0.84C231.757,66.057,220.327,60.054,217.453,60.366
		C217.861,60.104,217.184,60.396,217.453,60.366z"/>
	<path fill="#658A2F" d="M235.634,53.602c2.449-3.956,16.92,1.476,17.345-0.922c0.197,0.629-0.372-0.596-0.076,0.602
		c0.097-0.05,0.104,0.011,0.023,0.187c0.4-0.458,2.084-1.276,1.719-0.087c-0.859-0.729,1.275-0.074,0.446-0.125
		c0.212-0.069,0.115-0.446,0.239-0.516c-0.046,0.125-0.004,0.114,0.125-0.033c0.169,0.533-0.206,0.241,0.377,0.188
		c-0.071,0.386-0.271,0.133-0.251,0.686c0.051,0.024,0.571-0.455,0.66-0.627c0.52,0.217,1.26,1.03,1.399,1.107
		C257.682,54.126,237.645,52.549,235.634,53.602C235.862,53.234,235.436,53.705,235.634,53.602z"/>
	<path fill="#658A2F" d="M193.032,57.684c-3.693-5.177,2.105-16.431,1.073-19.346c0.108-0.032,3.09-13.422,2.904-13.517
		c0.454-0.164-0.165,0.431,0.566,0.235c-0.02-0.136,0.046-0.143,0.197-0.017c-0.133-0.444-0.142-4.034,0.799-3.176
		c-0.385,0.452,0.339-1.563,0.107-0.849c0.042-0.483-0.572-0.278-0.353-0.77c0.06,0.008,0.888-0.118,0.602-0.676
		c-0.841,0.248,0.418,0.622,0.338,0.611c0.107-0.183-0.158-1.217-0.226-1.323c0.159-0.274,2.124-2.176,1.811-2.684
		C200.487,25.535,190.105,45.529,193.032,57.684C192.676,57.186,193.128,58.081,193.032,57.684z"/>
	<path fill="#658A2F" d="M198.539,57.164c-1.545-1.38,1.245-11.122,1.234-11.079c-0.394-0.128,2.75-6.53,2.092-6.894
		c0.645,0.003-0.639,0.18,0.544,0.271c-0.014-0.112,0.048-0.1,0.186,0.034c-0.263-0.509-0.42-2.494,0.578-1.715
		c-0.989,0.528,0.398-1.248,0.054-0.485c0.015-0.223-0.374-0.276-0.39-0.42c0.098,0.091,0.104,0.046,0.019-0.136
		c0.556,0.015,0.15,0.294,0.32-0.307c0.344,0.216,0.001,0.313,0.543,0.499c0.059-0.065-0.202-0.733-0.328-0.883
		c0.428-0.478,1.148-0.383,1.245-1.161c0.111,0.27,0.034-0.232,0.167-0.068C204.646,38.191,196.741,51.443,198.539,57.164
		C198.215,56.875,198.605,57.383,198.539,57.164z"/>
	<path fill="#658A2F" d="M209.301,48.779c-0.644-7.076,11.26-13.958,12.288-16.886c2.563,0.904,8.591-10.25,11.826-9.001
		c0.074-0.122,0.132-0.088,0.17,0.104c0.188-0.421,2.628-3.405,2.812-2.157c0.122-0.028,0.149-1.037,0.426-1.077
		c-0.021,0.045,0.054,0.559,0.236,0.44c0.09-0.092,1.155-0.966,1.177-1.06c-0.875-0.284-0.095,0.751-0.134,0.715
		c0.216-0.089,0.682-1.15,0.694-1.249c0.309-0.135,3.199-0.58,3.27-1.211C235.312,25.41,213.327,34.804,209.301,48.779
		C209.244,48.142,209.181,49.201,209.301,48.779z"/>
	<path fill="#658A2F" d="M206.195,45.564c-1.997-3.461,8.595-10.27,7.675-11.547c0.581,0.349-0.667-0.251,0.374,0.478
		c0.029-0.098,0.077-0.057,0.144,0.123c-0.073-0.534-0.097-0.63-0.225-0.906c0.369,0.319,0.64-1.13,1.178-0.083
		c-0.422-0.046,0.039-0.711-0.099-0.745c-0.001-0.013,0.213,0.46,0.283,0.407c0.093-0.182-0.23-0.384-0.188-0.522
		c0.046,0.117,0.064,0.087,0.055-0.096c0.532,0.084-0.104,0.458,0.348-0.063c0.183,0.302-0.029,0.298,0.284,0.666
		c0.01,0,0.064-0.645,0-0.847c0.553-0.145,0.975,0.39,1.328-0.21c0.002-0.109,0.342,0.304,0.182,0.324
		C217.369,32.464,206.26,42.78,206.195,45.564C205.995,45.218,206.189,45.751,206.195,45.564z"/>
	<path fill="#658A2F" d="M181.104,124.715c6.817-2.828,16.902,4.045,21.191,2.256c0.312,0.675,14.936,0.672,15.043-0.009
		c0.306,0.336-0.456,0.072-0.036,0.613c0.128-0.068,0.157-0.009,0.09,0.179c0.375-0.267,4.012-1.654,3.562-0.457
		c0.117,0.034,0.637-0.816,0.893-0.716c-0.044,0.033-0.213,0.51,0.002,0.497c0.081-0.023,1.489-0.372,1.539-0.437
		c-0.656-0.624-0.424,0.638-0.438,0.596c0.243,0.007,1.122-0.759,1.178-0.849c0.325,0.01,3.193,0.811,3.513,0.266
		C216.057,132.193,194.508,124.169,181.104,124.715C181.719,124.46,180.652,124.733,181.104,124.715z"/>
	<path fill="#658A2F" d="M172.208,152.283c2.671-1.347,13.688,2.659,14.721,2.784c0.055-0.25,9.329,1.642,9.503,0.781
		c0.054,0.105-0.153,0.754-0.041,0.79c0.383-0.333,2.854-1.392,2.427-0.154c-0.745-0.398,1.396-0.11,0.62-0.146
		c0.369-0.097,0.055-0.631,0.464-0.562c0.189,0.543-0.159,0.234,0.542,0.171c-0.069,0.463-0.388,0.032-0.286,0.698
		c0.137,0.038,0.783-0.511,0.863-0.657c0.166,0.046,2.098,1.213,2.324,0.808c-0.72,0.206-7.178,1.056-9.696,0.173
		C188.306,159.629,176.267,152.146,172.208,152.283C172.674,152.047,171.896,152.293,172.208,152.283z"/>
	<path fill="#658A2F" d="M194.085,147.946c1.663-2.052,11.572,2.382,11.528-0.169c0.23,0.716-0.384-0.777,0.026,0.608
		c0.068-0.073,0.082-0.014,0.037,0.18c0.226-0.553,0.223-0.549,0.265-0.897c0.117,0.517,0.899-0.69,0.848,0.537
		c-0.382-0.339,0.363-0.527,0.225-0.689c0.01-0.025-0.029,0.505,0.045,0.495c0.152-0.121-0.04-0.446,0.065-0.545
		c-0.013,0.125,0.013,0.107,0.073-0.051c0.463,0.256-0.367,0.38,0.273,0.125c0.021,0.322-0.129,0.284-0.038,0.713
		c-0.033-0.013,0.281-0.498,0.309-0.723c0.494,0.171,0.589,0.861,1.086,0.495c0.044-0.103,0.119,0.422,0.044,0.367
		c-0.142-0.204-0.084-0.336-0.046-0.005C208.177,151.511,195.842,147.265,194.085,147.946
		C194.336,147.636,193.926,148.009,194.085,147.946z"/>
	<path fill="#658A2F" d="M156.145,163.643c3.91-1.792,16.384,2.58,18.376,2.741c0.038-0.194,11.629,1.54,11.792,0.332
		c0.309,0.412-0.495-0.121-0.038,0.611c0.119-0.066,0.143-0.006,0.074,0.182c0.348-0.293,3.356-1.675,2.977-0.405
		c-0.603-0.199,1.435-0.25,0.744-0.208c0.023-0.007,1.31-0.481,1.269-0.415c-0.511-0.578-0.315,0.686-0.345,0.598
		c0.216,0.001,0.885-0.716,0.948-0.854c0.856,0.021,1.78,0.523,2.701,0.166c-0.043,0.223,0.314-0.059,0.254,0.077
		C185.838,172.346,166.958,163.302,156.145,163.643C156.678,163.398,155.764,163.653,156.145,163.643z"/>
	<path fill="#658A2F" d="M139.29,179.417c6.943-2.396,16.741,5.361,21.054,4.092c0.252,0.766,14.878,2.127,15.043,1.414
		c0.279,0.361-0.465,0.029-0.085,0.607c0.135-0.062,0.16,0,0.079,0.187c0.398-0.246,4.129-1.4,3.603-0.233
		c0.123,0.044,0.687-0.773,0.934-0.655c-0.052,0.032-0.234,0.492-0.02,0.492c0.024-0.004,1.521-0.324,1.557-0.37
		c-0.625-0.641-0.453,0.624-0.466,0.585c0.247,0.018,1.159-0.736,1.212-0.818c0.303,0.011,3.201,0.887,3.521,0.352
		C173.681,190.544,152.797,179.75,139.29,179.417C139.918,179.2,138.835,179.406,139.29,179.417z"/>
	<path fill="#658A2F" d="M158.537,200.632c2.594-2.405,13.542,4.651,14.195,2.001c0.104,0.704-0.256-0.745-0.121,0.596
		c0.095-0.048,0.094,0.017,0.002,0.187c0.433-0.475,1.829-1.15,1.428,0.008c-0.252-0.287,0.528-0.481,0.467-0.588
		c0.006-0.005-0.178,0.475-0.089,0.489c0.198-0.068,0.105-0.437,0.238-0.503c-0.049,0.116-0.014,0.11,0.105-0.023
		c0.314,0.436-0.387,0.252,0.291,0.204c-0.076,0.353-0.237,0.172-0.259,0.674c0.013,0.009,0.497-0.403,0.592-0.592
		c0.514,0.313,0.469,0.979,1.145,0.819c0.075-0.071,0.067,0.457-0.071,0.363C177.022,205.565,159.643,200.368,158.537,200.632
		C158.844,200.349,158.343,200.68,158.537,200.632z"/>
	<path fill="#658A2F" d="M134.466,200.736c4.333-1.712,17.155,3.442,19.293,3.789c0.075-0.296,12.127,2.586,12.435,1.342
		c0.257,0.421-0.476-0.097-0.101,0.606c0.13-0.057,0.148,0.008,0.062,0.187c0.389-0.25,3.709-1.282,3.177-0.089
		c-0.536-0.239,1.491-0.096,0.808-0.127c0.021-0.004,1.423-0.312,1.392-0.273c-0.493-0.654-0.422,0.626-0.441,0.552
		c0.216,0.032,1.035-0.616,1.111-0.729c0.239,0.034,2.771,1.092,3.07,0.609C165.049,211.047,146.11,200.826,134.466,200.736
		C135.032,200.509,134.063,200.734,134.466,200.736z"/>
	<path fill="#658A2F" d="M155.728,96.319c1.481-2.263,0.286-16.726,0.957-16.962c1.401-2.189-0.476-7.634-0.018-8.922
		c-3.349-1.939,1.447-15.923-2.127-18.213c0.043-0.154-0.021-0.179-0.195-0.075c0.524-1.511,0.833-4.334,0.145-5.603
		c-0.016,0.044-0.446,0.408-0.485,0.121c0.04-1.131,0.287-0.268,0.174-1.852c-0.332,0.128,0.08,0.612-0.298,0.791
		c-0.041-0.272-0.694-0.276-0.063-0.339c-0.208-0.775,0.012-1.253,0.194-1.494c-0.131-0.489-1.773-3.449-1.298-4.064
		C150.47,53.356,160.114,80.229,155.728,96.319C156.146,95.681,155.586,96.842,155.728,96.319z"/>
	<path fill="#658A2F" d="M148.741,77.336c-2.365-1.918-1.479-13.858-1.5-14.54c-0.416-0.029,0.817-9.228-0.041-9.369
		c0.105-0.054,0.754,0.132,0.791,0.02c-0.321-0.366-1.392-2.791-0.147-2.364c-0.441,0.785-0.122-1.42-0.141-0.609
		c-0.103-0.362-0.631-0.051-0.56-0.456c0.547-0.187,0.228,0.162,0.176-0.53c0.454,0.07,0.038,0.377,0.694,0.288
		c0.037-0.135-0.498-0.769-0.653-0.855c0.045-0.162,1.222-2.019,0.816-2.253C150.092,52.573,145.423,69.737,148.741,77.336
		C148.356,77.024,148.86,77.611,148.741,77.336z"/>
	<path fill="#658A2F" d="M144.852,69.959c-2.954-1.063-0.117-12.284-2.356-12.215c0.686-0.257-0.721,0.416,0.607-0.04
		c-0.072-0.072-0.015-0.088,0.177-0.046c-0.537-0.225-0.558-0.231-0.894-0.273c0.49-0.132-0.669-0.993,0.535-0.921
		c-0.307,0.363-0.556-0.384-0.693-0.261c-0.019-0.008,0.506,0.047,0.497-0.031c-0.114-0.159-0.472,0.025-0.549-0.093
		c0.127,0.019,0.11-0.008-0.05-0.083c0.287-0.442,0.371,0.366,0.125-0.291c0.334-0.009,0.27,0.15,0.717,0.074
		c-0.011,0.023-0.51-0.333-0.727-0.373c0.18-0.506,0.853-0.589,0.494-1.132c-0.095-0.056,0.433-0.108,0.372-0.012
		C144.291,53.496,143.922,68.776,144.852,69.959C144.487,69.827,144.955,70.092,144.852,69.959z"/>
	<path fill="#658A2F" d="M136.699,125.084c-7.169-2.832-8.648-16.98-11.326-19.477c1.978-2.464-6.834-12.507-4.345-15.408
		c-0.09-0.118-0.038-0.162,0.159-0.128c-0.334-0.359-2.235-3.983-1.045-3.67c-0.028,0.326-0.514-1.552-0.371-0.92
		c-0.417-0.969-0.337-0.075-0.723-1.466c0.583,0,0.019,0.654,0.772,0.29c-0.056-0.166-0.154-0.175-0.296-0.029
		c-0.035-0.756-0.319-0.996-0.625-1.175c-0.014-0.402,0.631-3.39,0.042-3.746C124.012,89.656,125.304,115.007,136.699,125.084
		C136.07,124.836,137.054,125.399,136.699,125.084z"/>
	<path fill="#658A2F" d="M114.665,134.652c-2.29,0.038-7.551-9.217-7.604-9.298c-0.363,0.196-3.125-6.95-3.862-6.708
		c0.421-0.473-0.245,0.596,0.568-0.224c-0.096-0.064-0.043-0.104,0.147-0.115c-0.51-0.154-2.258-1.458-0.985-1.683
		c-0.182,1.058-0.691-1.147-0.348-0.389c-0.229-0.233-0.589,0.242-0.671-0.098c0.403-0.387,0.3,0.042-0.037-0.469
		c0.396-0.13,0.229,0.227,0.736-0.08c-0.012-0.093-0.713-0.36-0.902-0.363c-0.092-0.675,0.404-1.205-0.124-1.818
		c0.306,0.042-0.187-0.191,0.051-0.184C104.266,116.113,109.123,131.611,114.665,134.652
		C114.217,134.659,114.885,134.771,114.665,134.652z"/>
	<path fill="#658A2F" d="M111.424,165.591c-6.543-0.989-10.261-13.638-12.589-15.165c0.18-0.258-6.156-12.593-6.41-12.521
		c0.21-0.43,0.178,0.444,0.574-0.208c-0.111-0.086-0.068-0.137,0.129-0.151c-0.392-0.217-3.028-2.748-1.727-2.853
		c0.069,0.496-0.838-1.264-0.533-0.675c-0.017-0.024-0.951-1.14-0.944-1.139c-0.324,0.787,0.762,0.077,0.708,0.126
		c-0.081-0.213-1.092-0.633-1.214-0.645c-0.096-0.23-0.509-3.067-1.088-3.089C96.384,135.355,100.14,158.802,111.424,165.591
		C110.82,165.499,111.783,165.806,111.424,165.591z"/>
	<path fill="#658A2F" d="M135.419,140.525c-3.944-1.383-8.525-13.961-9.207-15.274c-0.577,0.234-3.628-10.666-4.64-10.466
		c0.31-0.417,0.028,0.489,0.586-0.166c-0.093-0.092-0.042-0.134,0.151-0.126c-0.391-0.241-2.504-2.643-1.196-2.625
		c-0.054,0.726-0.67-1.362-0.402-0.637c-0.03-0.042-0.768-1.146-0.666-1.111c-0.475,0.636,0.741,0.14,0.638,0.199
		c-0.027-0.181-0.85-0.697-0.99-0.731c-0.135-0.838,0.229-1.782-0.29-2.607c0.222,0-0.095-0.28,0.038-0.249
		C125.093,112.425,127.759,133.187,135.419,140.525C134.892,140.34,135.677,140.775,135.419,140.525z"/>
	<path fill="#658A2F" d="M75.869,285.317c2.827-0.895,10.586,1.727,13.049,1.692c2.405-0.193,4.711-0.429,6.732-0.693
		c-0.003-0.112,12.484-1.524,12.281-2.986c0.401,0.288-0.477,0.079,0.131,0.6c0.099-0.1,0.142-0.049,0.125,0.149
		c0.261-0.35,3.03-2.554,2.978-1.236c-0.701-0.041,1.456-0.822,0.698-0.462c0.105-0.081,1.176-0.805,1.181-0.818
		c-0.719-0.414-0.154,0.738-0.196,0.677c0.207-0.049,0.734-0.982,0.758-1.104c0.251-0.061,3.021-0.07,3.121-0.635
		c-0.988,0.976-8.243,4.987-11.828,5.192C97.771,291.456,81.622,285.645,75.869,285.317
		C76.47,285.127,75.457,285.292,75.869,285.317z"/>
	<path fill="#658A2F" d="M75.109,275.256c2.641-2.459,19.151,1.686,18.83-1.751c0.365,0.55-0.542-0.437,0.086,0.605
		c0.083-0.079,0.108-0.024,0.076,0.17c0.266-0.495,1.81-1.922,1.78-0.645c-1.008-0.363,1.243-0.459,0.431-0.265
		c0.18-0.126-0.022-0.499,0.09-0.57c-0.013,0.137,0.025,0.113,0.119-0.07c0.296,0.478-0.091,0.279,0.448,0.056
		c0.053,0.407-0.251,0.189-0.047,0.734c0.084,0.008,0.458-0.623,0.49-0.813c0.672,0.054,1.095,0.635,1.763,0.229
		c0.064-0.114,0.29,0.413,0.067,0.362C100.796,274.431,75.496,275.143,75.109,275.256C75.453,274.934,74.866,275.328,75.109,275.256
		z"/>
	<path fill="#658A2F" d="M69.623,280.479c2.688-1.523,14.993,6.338,15.492,3.147c0.177,0.674-0.36-0.676-0.075,0.604
		c0.094-0.056,0.102,0.007,0.022,0.187c0.402-0.519,1.867-1.369,1.583-0.177c-0.87-0.809,1.201-0.131,0.403-0.148
		c0.192-0.072,0.081-0.451,0.193-0.527c-0.036,0.125,0,0.112,0.112-0.038c0.367,0.397-0.347,0.292,0.348,0.166
		c-0.035,0.377-0.237,0.169-0.189,0.699c0.017,0.01,0.491-0.471,0.562-0.661c0.584,0.211,0.699,0.898,1.386,0.663
		c0.073-0.074,0.153,0.439-0.015,0.366C90.881,286.807,69.689,280.478,69.623,280.479C70.006,280.263,69.407,280.483,69.623,280.479
		z"/>
	<path fill="#658A2F" d="M35.226,257.208c3.125,0.973,8.279,15.598,11.008,13.413c-0.269,0.609,0.103-0.699-0.455,0.401
		c0.106,0.028,0.072,0.082-0.104,0.159c0.583-0.069,2.451,0.41,1.375,1.072c-0.199-1.095,1.019,0.791,0.428,0.2
		c0.207,0.084,0.378-0.262,0.519-0.229c-0.116,0.061-0.078,0.082,0.117,0.06c-0.218,0.514-0.317,0.043,0.163,0.396
		c-0.309,0.246-0.286-0.084-0.644,0.349c0.02,0.05,0.732,0.05,0.917-0.026c0.259,0.519,0.28,1.599,0.323,1.768
		c0.108-0.609-4.099-2.743-4.97-4.549C39.739,270.061,36.493,258.491,35.226,257.208C35.658,257.342,35.06,257.038,35.226,257.208z"
		/>
	<path fill="#658A2F" d="M141.712,235.704c2.92-1.905,12.084,6.324,13.171,4.152c-0.067,0.706-0.074-0.773-0.261,0.551
		c0.103-0.021,0.086,0.041-0.043,0.182c0.567-0.399,1.997-0.598,1.32,0.368c-0.165-0.366,0.642-0.312,0.61-0.441
		c0.014-0.009-0.306,0.404-0.225,0.444c0.193-0.01,0.243-0.419,0.372-0.416c-0.083,0.098-0.048,0.1,0.106,0.002
		c0.179,0.517-0.451,0.119,0.218,0.274c-0.181,0.304-0.281,0.111-0.446,0.567c0.006,0.01,0.591-0.248,0.736-0.405
		c0.388,0.408,0.124,1.054,0.818,1.064c0.092-0.051-0.1,0.444-0.193,0.316C157.954,243.333,143.342,235.58,141.712,235.704
		C142.063,235.477,141.521,235.721,141.712,235.704z"/>
	<path fill="#658A2F" d="M123.798,243.051c4.783-2.171,19.143,9.29,20.695,6.9c-0.003,0.61-0.235-0.562-0.301,0.527
		c0.117-0.001,0.104,0.061-0.037,0.19c0.485-0.173,2.905-0.147,2.012,0.78c-0.513-0.863,1.312,0.51,0.567,0.112
		c0.239,0.036,0.334-0.329,0.481-0.351c-0.107,0.091-0.056,0.106,0.158,0.041c-0.044,0.561-0.294,0.123,0.344,0.4
		c-0.268,0.357-0.321-0.123-0.564,0.478c0.078,0.079,0.849-0.082,1.002-0.176c0.119,0.124,0.981,1.956,1.365,1.728
		C144.644,252.568,130.875,243.422,123.798,243.051C124.243,242.851,123.519,243.038,123.798,243.051z"/>
	<path fill="#658A2F" d="M130.233,250.853c1.912-2.331,10.889,4.579,11.556,2.608c-0.021,0.748-0.118-0.853-0.181,0.584
		c0.09-0.048,0.084,0.015-0.021,0.183c0.396-0.443,0.394-0.446,0.551-0.762c-0.059,0.535,1.073-0.376,0.64,0.782
		c-0.245-0.47,0.521-0.373,0.435-0.579c0.014-0.014-0.19,0.463-0.116,0.483c0.185-0.076,0.102-0.436,0.236-0.498
		c-0.05,0.113-0.02,0.104,0.087-0.023c0.36,0.393-0.467,0.237,0.222,0.205c-0.078,0.315-0.207,0.23-0.259,0.667
		c-0.002-0.001,0.432-0.387,0.521-0.586c0.434,0.331,0.301,0.995,0.9,0.822c0.076-0.081-0.011,0.438-0.064,0.36
		c-0.082-0.23,0.021-0.35-0.045-0.016C143.383,257.448,132.438,250.108,130.233,250.853
		C130.475,250.557,130.075,250.905,130.233,250.853z"/>
	<path fill="#658A2F" d="M83.813,177.028c-4.411-1.669-9.359-14.943-10.099-16.559c-0.771,0.28-3.356-11.779-4.437-11.678
		c0.317-0.379,0.054,0.457,0.599-0.105c-0.083-0.105-0.028-0.146,0.163-0.118c-0.327-0.283-2.206-3.212-0.918-3.001
		c-0.099,0.613-0.505-1.463-0.337-0.747c-0.027-0.057-0.583-1.32-0.548-1.302c-0.565,0.623,0.701,0.282,0.615,0.319
		c-0.008-0.208-0.789-0.892-0.915-0.947c-0.012-0.284,0.587-2.852,0.053-3.093C72.978,147.384,74.826,168.407,83.813,177.028
		C83.263,176.82,84.096,177.3,83.813,177.028z"/>
	<path fill="#658A2F" d="M76.932,152.983c-4.023-1.491-3.037-16.19-5.481-15.855c0.552-0.376-0.47,0.541,0.6-0.105
		c-0.077-0.076-0.022-0.1,0.168-0.078c-0.593-0.247-1.827-1.553-0.611-1.553c-0.464,1.042-0.472-1.204-0.259-0.376
		c-0.13-0.177-0.459,0.023-0.568-0.078c0.134,0.01,0.111-0.026-0.071-0.106c0.267-0.463,0.388,0.293,0.065-0.398
		c0.377-0.043,0.229,0.205,0.735,0.043c0.006-0.049-0.608-0.407-0.808-0.438c0.064-0.605,0.682-0.912,0.261-1.535
		c-0.102-0.044,0.414-0.267,0.371-0.041C71.701,132.074,75.679,151.515,76.932,152.983
		C76.521,152.832,77.077,153.153,76.932,152.983z"/>
	<path fill="#658A2F" d="M76.476,138.484c-2.586-0.715-0.781-10.659-2.911-10.243c0.65-0.34-0.685,0.456,0.596-0.124
		c-0.082-0.056-0.022-0.081,0.172-0.067c-0.595-0.122-0.553-0.114-0.902-0.098c0.503-0.201-0.773-0.719,0.457-0.868
		c-0.372,0.462-0.511-0.296-0.698-0.105c-0.022-0.004,0.498-0.049,0.484-0.114c-0.121-0.112-0.478,0.109-0.543,0.019
		c0.121-0.005,0.102-0.025-0.057-0.062c0.252-0.464,0.409,0.282,0.1-0.269c0.309-0.066,0.307,0.07,0.706-0.066
		c-0.008,0.04-0.505-0.19-0.737-0.187c0.18-0.5,0.791-0.657,0.397-1.066c-0.093-0.043,0.387-0.137,0.359-0.084
		c-0.194,0.155-0.327,0.114-0.002,0.043C76.247,125.28,75.092,137.068,76.476,138.484C76.105,138.381,76.584,138.597,76.476,138.484
		z"/>
	<path fill="#658A2F" d="M65.897,214.598c-7.164-3.829-8.667-17.428-12.226-20.203c1.782-2.874-8.475-12.111-6.589-15.348
		c-0.11-0.106-0.065-0.158,0.137-0.155c-0.42-0.325-2.871-3.735-1.687-3.604c0.019,0.327-0.767-1.485-0.529-0.884
		c-0.559-0.893-0.348-0.063-1.001-1.375c0.584-0.103,0.144,0.663,0.822,0.16c-0.083-0.161-0.183-0.153-0.297,0.02
		c-0.187-0.744-0.541-0.963-0.861-1.083c-0.262-1.048-0.139-2.487-0.733-3.5c0.191,0.001-0.077-0.359-0.001-0.331
		C50.958,177.561,55.836,203.603,65.897,214.598C65.278,214.267,66.231,214.962,65.897,214.598z"/>
	<path fill="#658A2F" d="M52.529,179.997c-3.611-0.233-3.35-12.394-5.074-12.15c0.625-0.341-0.622,0.481,0.599-0.101
		c-0.078-0.069-0.02-0.092,0.174-0.068c-0.667-0.226-1.635-1.203-0.465-1.222c-0.256,0.375-0.6-0.343-0.709-0.216
		c-0.017-0.006,0.506,0.003,0.49-0.079c-0.121-0.15-0.475,0.062-0.549-0.047c0.122,0.009,0.103-0.021-0.062-0.08
		c0.238-0.474,0.395,0.329,0.097-0.321c0.345-0.041,0.261,0.148,0.72,0.012c-0.003,0.012-0.534-0.306-0.755-0.324
		c0.119-0.56,0.782-0.688,0.393-1.241c-0.095-0.056,0.412-0.153,0.368-0.043C48.213,163.748,50.719,178.703,52.529,179.997
		C52.135,179.972,52.675,180.1,52.529,179.997z"/>
	<path fill="#658A2F" d="M55.607,230.07c-3.8,1.334-13.204-7.567-14.022-8.202c-0.435,0.444-6.996-7.617-7.717-7.114
		c0.157-0.531,0.155,0.515,0.473-0.381c-0.117-0.045-0.086-0.103,0.094-0.172c-0.473-0.048-3.161-1.24-1.963-1.77
		c0.239,0.763-1.108-0.958-0.58-0.384c-0.354-0.206-0.497,0.396-0.758,0.033c0.334-0.466,0.232-0.109-0.297-0.543
		c0.402-0.282,0.302,0.295,0.724-0.262c-0.086-0.145-0.977-0.256-1.139-0.218c-0.106-0.172-0.697-2.463-1.194-2.358
		C34.731,212.002,46.225,228.954,55.607,230.07C55.111,230.245,55.936,230.109,55.607,230.07z"/>
</g>
</svg>
