<?xml version="1.0" encoding="utf-8"?>
<!-- Generator: Adobe Illustrator 16.0.0, SVG Export Plug-In . SVG Version: 6.00 Build 0)  -->
<!DOCTYPE svg PUBLIC "-//W3C//DTD SVG 1.1//EN" "http://www.w3.org/Graphics/SVG/1.1/DTD/svg11.dtd">
<svg version="1.1" id="Calque_1" xmlns="http://www.w3.org/2000/svg" xmlns:xlink="http://www.w3.org/1999/xlink" x="0px" y="0px"
	 width="262.354px" height="228.382px" viewBox="0 0 262.354 228.382" enable-background="new 0 0 262.354 228.382"
	 xml:space="preserve">
<g>
	<g>
		<path fill="#63862D" d="M161.784,95.801c-10.536,2.787-15.649,3.723-16.604,0.418c-1.205-4.17,15.859-11.588,30.201-13.049
			c14.349-1.467,41.491-8.462,41.491-8.462s-3.239-18.363-18.779-28.447c-6.544-4.245-34.305-7.379-48.861-4.717
			c-14.554,2.667-32.91,22.967-37.134,25.943c-4.225,2.974-11.065-0.752-6.843-6.958c14.899-21.894,60.867-31.625,60.867-31.625
			s4.23-8.221-7.765-14.447c-6.15-3.195-49.498-25.984-87.023-6.955C43.007,21.87,63.567,81.32,63.567,81.32
			c2.495,6.218,9.569,15.497-16.724,24.529c-26.291,9.035-44.125,29.176-46.637,47.326c-2.51,18.153,18.614,30.117,18.614,30.117
			c18.171-9.803,25.286-35.676,28.924-44.396c3.634-8.721,10.433,2.789,7.038,11.201c-3.397,8.416-31.388,31.041-28.258,41.474
			c3.133,10.434,47.819,29.063,50.37,19.771c2.915-10.603,7.792-28.717,6.924-41.32c-0.742-10.782,7.457-13.044,11.843-4.125
			c4.382,8.92-9.176,18.68-13.708,43.359c-4.529,24.678,81.264,20.877,76.31,13.835c-4.959-7.04-6.108-14.657-10.074-20.292
			c-3.971-5.631-20.126-52.956-7.083-45.58c9.809,5.539,12.069,20.896,16.698,45.177c3.519,18.449,19.055,21.303,25.252,19.915
			c7.855-1.76,34.937-8.628,33.426-9.881c-1.518-1.253-26.722-28.371-26.986-36.82c-0.262-8.456,14.837,8.837,15.93,12.486
			c1.101,3.652,13.537,14.136,21.26,15.229c7.721,1.091,36.585-11.205,35.645-14.333c-0.938-3.129-2.295-21.715-5.834-31.777
			c-1.738-4.939-9.884-19.634-20.408-21.048c-5.961-0.801-49.995,3.494-52.653-5.373c-2.664-8.868,55.943,0.469,56.725-2.609
			c0.784-3.079-3.771-33.942-13.339-42.268C216.889,77.267,167.671,94.244,161.784,95.801z M100.64,127.221
			c-0.052,4.065-0.935,13.316-3.999,16.926c-6.038,6.381-9.519-1.59-8.465-7.259c0.642-6.725,4.865-13.624,7.46-19.484l0.042-0.092
			C101.264,104.301,100.929,120.623,100.64,127.221z M133.822,125.139c0.672,2.118,1.454,5.191,1.496,7.676
			c0.683,3.717,2.231,14.5-1.206,16.916c-5.772,3.95-10.148-5.045-9.6-9.404c0.784-5.103,2.276-15.245,5.696-18.904l0.036-0.039
			C132.008,119.957,132.903,122.251,133.822,125.139z M146.458,76.773c9.15,5.926-8.614,11.306-12.485,11.483
			C126.531,87.693,140.66,72.92,146.458,76.773z M177.291,146.231c0.911,3.157-1.684,4.746-4.46,3.351
			c-4.065-2.043-5.756-12.842-0.148-9.625C173.634,140.666,176.803,144.956,177.291,146.231z M188.037,121.43
			c-1.523,0.756-9.421,2.292-11.363,2.088c-4.633-0.875-4.6-3.884-1.024-6.531C180.892,113.107,195.781,116.338,188.037,121.43z"/>
		<g>
			<g>
				<path fill="#688F2E" d="M146.458,76.773c0.883,0.572,1.447,1.137,1.867,1.693c0.685-1.155,1.414-2.277,2.068-3.302
					c-2.239-0.627-4.268-0.96-6.212-1.798c1.476-1.059,2.103-3.296,3.068-4.44c-2.662-1.217-5.738,0.101-8.523,1.205
					c1.642-2.072,3.662-4.862,3.862-7.694c-3.841-0.37-7.843,3.402-10.79,5.521c1.303-3.171,2.683-6.848,2.463-10.269
					c-2.666,0.855-12.179,12.092-12.179,12.092c-0.805,0.131-3.313-5.025-3.313-5.025c-2.526,2.252-8.247,8.098-8.247,8.098
					s-3.268-0.086-3.797-3.016c-2.271,1.188-3.346,3.087-4.533,2.55c0,0-4.552-8.205-3.313-17.892
					c-0.886,0.636-3.162,1.824-4.131,2.969c-0.976-1.984-1.151-4.095-0.603-5.825c-1.181,0.847-2.951,2.12-4.004,3.77
					c-1.777-1.856-2.459-4.413-3.481-7.339c-3.245,2.332-1.917,8.533-3.513,11.913c-2.671-4.341-3.528-8.641-3.709-13.875
					c-3.755,2.246-4.703,9.637-6.593,13.229c-0.846-1.177-3.084-1.807-3.721-2.691c-0.543,1.729-1.808,3.089-1.846,4.903
					c-5.679-3.289-7.552-9.312-10.693-14.674c0.745,10.77,3.143,21.113,4.923,27.607c1.061-1.582,2.186-3.06,3.557-4.19
					c1.696,2.359,2.425,5.861,4.331,8.515c2.692-3.721,3.946-8.2,6.636-11.923c0.518,3.206,1.834,6.285,3.744,8.939
					c1.93-2.284,3.442-5.16,4.873-7.53c0.47,1.904,0.35,4.222,1.03,6.419c1.053-1.651,1.972-4.103,3.741-5.374
					c2.463,4.047,2.689,10.591,3.758,15.188c1.596-3.383,2.686-6.849,2.758-10.478c3.132,3.116,0.488,8.145,1.932,12.026
					c2.231-2.5,4.039-5.586,6.695-7.492c-0.122,2.324-0.539,4.856-0.15,7.262c3.159-1.825,5.132-5.924,7.867-8.336
					c-0.117,2.321-1.123,5.28-0.441,7.473c3.328-2.841,6.017-6.563,9.769-8.81c-0.24,4.646-0.186,9.077,0.586,13.887
					c3.417-0.845,6.396-2.8,9.917-2.698C130.118,84.119,141.423,73.425,146.458,76.773z"/>
			</g>
			<g>
				<path fill="#688F2E" d="M185.318,97.02c-4.786-0.784-9.09-3.114-13.573-4.251c-4.944,1.495-8.604,2.673-9.961,3.032
					c-10.536,2.787-15.649,3.723-16.604,0.418c-0.657-2.286,4.184-5.555,11.059-8.279c-1.401-0.536-2.704-1.045-3.835-1.471
					c2.524-2.708,8.318-1.29,11.606-2.308c-4.017-2.479-8.902-1.501-13.76-2.035c1.395-0.549,4.198-1.938,3.78-3.761
					c-1.467,0.723-3.229,1.323-5.012,1.783c0.146,4.454-11.932,7.966-15.046,8.107c-0.387-0.028-0.689-0.119-0.968-0.224
					c-0.833,1.734-1.954,3.4-2.444,4.957c1.012,0.169,3.463,1.092,5.068,0.833c-0.461,1.225-0.287,3.336-0.748,4.563
					c4.9,1.84,10.597,0.433,15.543,3.583c-0.884,0.636-1.133,2.159-1.511,2.875c9.288,0.482,19.5-1.487,28.657-1.808
					c-3.842-0.369-7.649-2.553-11.243-4.442c5.779-1.917,12.033,1.189,17.686-1.529L185.318,97.02z"/>
			</g>
		</g>
		<g>
			<path fill="#688F2E" d="M98.208,183.371c0.456,4.368-0.292,8.928,0.605,12.982c3.79-4.066,7.383-9.333,11.682-11.75
				c-0.497,3.043-0.993,6.082-1.496,9.12c3.098-2.225,6.636-4.767,9.927-5.785c2.17,5.819,9.106,15.53,14.245,19.882
				c1.65-6.98-2.475-9.353-0.074-15.743c2.228-6.609,0.058-6.373,0.116-9.55c3.708-10.712-3.944-10.066-3.601-21.721
				c-1.255,2.917-3.274,5.71-5.929,7.617c0.25-1.521-0.581-3.608-0.773-4.812c-1.133,2.158-2.07,4.182-3.081,5.58
				c-0.065-1.963-2.934-4.611-2.238-6.45c-1.384,3.673-1.057,7.922-2.755,11.156c-2.362-7.019-2.387-15.511-3.545-22.727
				c-4.728,7.418-6.915,18.38-12.598,24.473c-0.773-4.808-0.345-9.81-1.435-15.064c-0.434,1.156-1.515,2.51-2.511,3.705
				c0.319,0.487,0.625,1.026,0.914,1.613c2.54,5.166-0.937,10.608-5.196,19.069c0.612,1.984,1.618,4.101,2.257,5.703
				C95.25,189.522,97.271,186.729,98.208,183.371z"/>
		</g>
		<g>
			<path fill="#688F2E" d="M92.759,161.944c0.03-2.252,0.276-4.615-0.071-6.796c-0.569,1.077-2.34,2.348-2.907,3.427
				c-1.143-2.527-1.724-6.136-1.987-9.304c-5.432,4.575-8.072,11.167-12.111,16.748c-2.737-4.739,2.689-14.141,2.36-19.27
				c-1.453,1.716-7.648,6.307-9.419,7.581c-0.136-3.927,1.812-8.681,1.231-12.29c-3.094,2.223-4.921,6.217-8.65,7.559
				c-0.068-1.963-1.535-4.936-1.48-7.657c-0.8,1.107-2.679,1.299-4.081,1.811c0.187,2.077-0.036,4.302-0.86,6.345
				c-1.127,2.791-4.958,7.142-9.461,12.094c3.824,0.146,7.612-0.271,10.618-1.67c0.423-0.322,0.834-0.555,1.24-0.656
				c-0.395,0.241-0.809,0.458-1.24,0.656c-2.527,1.973-5.174,7.528-6.254,10.033c5.89-1.551,9.027-5.751,13.202-7.41
				c-1.952,4.755-6.181,9.134-6.93,13.695c4.427-3.18,11.433-10.226,13.103-1.367c1.893-2.033,4.175-1.657,6.262-2.485
				c0.434,12.315,0.566,9.212,8.337,5.768c0.27-3.076,0.343-6.032,0.16-8.734C83.224,161.34,88.424,158.188,92.759,161.944z"/>
		</g>
		<g>
			<path fill="#688F2E" d="M53.053,136.937c-0.703-3.582-1.255-6.802-1.255-6.802s-7.129,2.736-9.344,9.02
				c-0.509,1.441-4.752,0.508-3.951-3.049l-2.6,2.612c-3.036-0.495-4.111-0.181-7.593-0.361c6.594,2.638,3.562,4.604,8.704,8.957
				c-1.914,1.458-3.654,5.366-3.654,5.366c2.923-1.502,4.494-0.043,4.494-0.043c2.557,3.864-2.188,5.096-3.786,7.738
				c1.318,0.369,2.776,0.713,4.308,1.007c4.721-9.02,7.503-18.006,9.37-22.483C49.283,135.202,51.397,135.144,53.053,136.937z"/>
		</g>
		<g>
			<g>
				<path fill="#8CAE3A" d="M65.961,92.646c9.466,11.308-37.646,27.045-28.484,39.796c5.675-7.284,11.747-9.787,18.77-12.147
					c14.924-5.356,7.741,5.171,1.105,9.939c4.875,1.19,10.752-3.702,15.811-5.998c3.704,10.756-13.548,23.15-8.702,36.436
					c4.68-6.488,6.981-25.093,21.22-29.843c0.361,2.229,1.347,5.965,2.364,9.377c-0.104-1.111-0.067-2.256,0.13-3.319
					c0.642-6.725,4.865-13.624,7.46-19.484l0.042-0.092c5.586-13.011,5.251,3.311,4.962,9.908c-0.002,0.082-0.009,0.202-0.013,0.291
					c2.215,7.617,3.953,15.956,4.777,23.866c2.39-5.073-0.05-18.74,5.451-21.351c6.702-2.805,12.271,21.598,17.531,21.602
					c-0.24-0.834-0.387-1.641-0.483-2.431c-2.339-2.206-3.713-6.323-3.39-8.872c0.784-5.103,2.276-15.245,5.696-18.904l0.036-0.039
					c1.763-1.426,2.658,0.868,3.577,3.756c0.672,2.118,1.454,5.191,1.496,7.676c0.133,0.741,0.307,1.771,0.465,2.949
					c3.347,4.273,2.987,13.607,7.737,16.395c0.307-4.242-0.908-8.736,1.549-11.842c6.854,5.805,6.115,26.917,12.435,31.306
					c-1.891-6.007-4.418-18.287,0.944-24.824c7.739,5.173,6.108,10.37,9.553,17.958c4.861-3.494-2.255-12.469,3.685-15.399
					c0.336,5.129,4.701,4.675,5.724,7.965c1.215,4.488,2.157,16.124,4.138,20.74c1.504-4.435,0.38-16.579,1.115-21.831
					c5.268,3.593,3.503,10.839,12.38,12.564c-0.51-1.644-2.8-6.024-3.31-7.667c14.307,4.699,21.566,15.34,26.336,21.976
					c0.939-3.356-0.152-8.61-1.494-12.343c5.778,5.239,8.959,9.662,16.941,13.313c3.855,1.509,11.188,0.226,12.035-0.019
					c0,0-2.738-1.929-9.189-5.473c-25.75-14.124-101.115-75.017-130.993-83.419C97.501,92.953,79.512,88.944,65.961,92.646z
					 M172.683,139.957c0.951,0.709,4.12,4.999,4.608,6.274c0.911,3.157-1.684,4.746-4.46,3.351
					C168.766,147.54,167.075,136.74,172.683,139.957z"/>
			</g>
		</g>
		<g>
			<g>
				<path fill="#688F2E" d="M190.049,117.955c0.116-0.304,0.238-0.606,0.325-0.937c-0.307,0.05-0.65,0.096-0.979,0.145
					C189.684,117.407,189.909,117.667,190.049,117.955z"/>
			</g>
			<g>
				<path fill="#688F2E" d="M183.436,130.797c-0.639-2.115,2.214-3.191,6.928-3.653c-0.828-2.5,1.12-2.646,2.811-4.981
					c-1.604,0.254-3.543,0.458-4.98-0.296c0.112-0.295,0.25-0.576,0.385-0.86c-0.182,0.143-0.323,0.278-0.541,0.423
					c-1.523,0.756-9.421,2.292-11.363,2.088c-4.633-0.875-4.6-3.884-1.024-6.531c1.792-1.329,4.708-1.807,7.467-1.682
					c1.509-3.816,3.586-9.508,4.067-10.924c-3.85,0.247-8.729,4.443-17.626,4.41c-3.095-0.011-12.901,0.972-16.546-0.312
					c4.539,2.997,12.496,7.327,17.539,9.365c-1.375,0.99,4.534,3.75-3.968,5.686c4.683,3.194,18.859,11.931,24.045,14.172
					c-0.394,0.284-2.442,2.201-2.976,2.288c4.512,4.211,19.889,14.362,26.46,14.169c-2.453-3.882-12.987-6.411-14.723-11.727
					c3.321-1.188,8.095,1.719,11.606,0.384c-5.569-3.042-12.771-3.919-18.545-7.464C187.594,134.506,184.12,133.096,183.436,130.797
					z"/>
			</g>
		</g>
		<g>
			<g>
				<path fill="#8CAE3A" d="M153.738,113.533c-3.805-2.186-17.777-8.566-3.741-12.368c-4.759-3.512-16.086,1.572-18.169-3.192
					c-1.87-4.468,5.428-6.136,7.95-8.847c-7.801,1.586-16.326,2.792-23.641-1.788c-9.262-5.422,0.688-3.403,4.306-15.17
					c-5.65,2.72-10.607,10.754-17.359,10.686c-9.16,0.319-6.579-12.264-8.494-18.041c-2.691,3.722-3.725,11.616-8.747,12.094
					c-0.518-3.206-1.242-6.709-2.432-8.984c-0.792,3.251-1.92,8.533-5.08,10.356c-1.952-3.965-6.02,0.748-14.905-17.015
					c-1.624,8.323,8.134,21.282,4.061,28.683l-1.527,2.698c10.089,0.353,24.803-1.909,34.185,1.185
					c11.027,4.15,22.43,7.509,33.208,13.18c4.523,2.562,10.089,6.614,14.906,10.307c4.794,3.672,9.597,6.33,14.184,9.781
					c8.606,6.486,15.636,10.976,22.615,16.021c1.68,1.216,13.835,9.572,16.016,11.296c4.927,3.902,23.888,11.009-7.721-9.189
					c-0.657-0.42,2.415-0.787,2.415-0.787s-3.592-2.976-9.221-5.744c-6.388-3.141-14.072-9.383-7.123-8.562
					c-1.669-2-4.901-2.856-8.644-4.705c-2.36-1.163-6.277-4.409-6.277-4.409s0.399-1.038,1.027-1.653
					c1.322-1.676,5.742-0.661,8.802-1.2c0.33-0.357,0.714-0.708,1.169-1.054C169.343,114.221,160.485,118.139,153.738,113.533z"/>
			</g>
		</g>
		<g>
			<path fill="#688F2E" d="M189.736,186.041c-1.699-2.362-2.804-5.142-3.909-7.925c-0.792,3.253-2.092,6.419-3.815,8.999
				c-0.977-1.978-1.868-4.469-2.257-6.871c-0.755,1.436-2.44,2.202-3.112,3.128c-1.483-2.063-1.576-4.681-2.553-6.66
				c-0.378,0.719-1.348,1.86-1.722,2.579c-0.813-2.997-2.426-5.861-3.53-8.644c-1.042,4.773-0.056,9.88-2.111,14.486
				c-1.872-4.471-4.082-10.037-7.932-13.531c0.264,4.729,1.462,10.128,1.939,15.15l0.505,0.083
				c5.373,3.742,8.266,11.504,11.279,16.938c-1.826-3.159-2.471-7.167-0.875-10.55c1.271,1.773,2.459,4.047,3.438,6.028
				c0.708-2.748,1.714-5.703,3.566-7.479c2.117,2.946,3.649,6.319,5.259,9.185c0.924-2.449,1.124-5.278,3.06-7.564
				c1.906,2.656,3.812,5.309,6.103,7.245c-0.009-3.125-0.444-6.836-0.45-9.962c2.4,0.585,5.153,3.351,7.888,3.535
				c-3.077-3.886-5.972-7.844-8.021-11.268C191.811,184.249,190.955,185.4,189.736,186.041z"/>
		</g>
		<path fill="#4F7B2E" d="M199.126,199.703c-0.55,5.762,4.236,14.665,4.236,14.665c-7.419-2.454-8.262-7.498-8.351-8.944
			c0.169,7.316,4.367,11.351,4.367,11.351c-3.171,1.914-23.983-16.355-23.983-16.355c0.915,4.762,12.091,19.056,12.091,19.056
			c-5.414,0.439-12.682-12.27-12.682-12.27c1.073,7.297,4.141,12.356,4.141,12.356c-7.369-0.266-18.097-24.871-18.097-24.871
			c-1.777,5.225-1.779,10.061-1.396,13.427c5.297,13.324,18.113,15.424,23.605,14.194c5.381-1.208,19.791-4.813,27.844-7.362
			C204.568,207.856,199.126,199.703,199.126,199.703z"/>
		<path fill="#4F7B2E" d="M262.331,188.995c-16.435-2.729-25.488,0.532-25.488,0.532c6.895,4.479,7.7,7.761,7.7,7.761l-3.728-0.626
			c-8.596-2.674-15.896-0.651-15.896-0.651c4.144,1.561,6.544,4.164,7.944,6.678C244.116,200.159,263.096,191.543,262.331,188.995z"
			/>
		<path fill="#3F5824" d="M174.16,49.729c0,0-13.043,8.8-18.118,7.516c-0.207-0.054-0.41-0.124-0.594-0.215
			c-4.552-2.245,5.871,7.52,23.168,2.124c0,0-6.183,11.38-23.475,13.875c0,0,16.185,4.036,36.215,2.183c0,0,6.048-2.026-7.968,4.686
			c0,0,3.795,0.399,8.579,0.539c12.48-2.527,24.904-5.728,24.904-5.728s-3.239-18.363-18.779-28.447
			c-6.544-4.245-34.305-7.379-48.861-4.717c-1.956,0.357-3.984,1.04-6.038,1.954C151.457,42.968,171.111,42.508,174.16,49.729z"/>
		<path fill="#3F5824" d="M244.923,140.508c-1.026,0.307-3.294,0.283-7.165-0.185l7.009,3.684c0,0,2.573,3.742-1.929,1.834
			l3.188,4.102c0,0-3.826,2.165-11.934-0.411l10.001,9.265c0,0-5.475,3.267-13.29,0.163l6.521,8.192c0,0-5.811,4.934-21.33-12.081
			c0,0-8.084,9.879,30.905,29.161c7.367,3.642,12.103,5.839,15.433,4.763c-0.938-3.129-2.295-21.715-5.834-31.777
			C255.287,153.781,250.975,145.63,244.923,140.508z"/>
		<path fill="#3F5824" d="M198.135,97.961c0,0,11.369-1.214,15.427-6.004c0,0-10.502,16.143-20.816,13.341
			c0,0,5.895,4.422,15.663-0.581c0,0,4.845,3.784-6.395,9.391c0,0,9.037,2.763,15.923-0.476c0,0-4.331,8.205-13.258,8.405
			c0,0,7.606,2.663,16.259,5.973c10.378,0.732,18.927,1.34,19.223,0.178c0.784-3.079-3.771-33.942-13.339-42.268
			c-3.144-2.743-10.23-2.91-18.631-1.812C206.054,89.225,202.612,95.666,198.135,97.961z"/>
		<path fill="#3F5824" d="M73.691,21.778c0,0-9.552,21.282-10.073,32.387c0,0,28.655-39.885,36.534-38.141
			c0,0-9.46,8.278-13.607,15.608c0,0,12.908-11.279,18.431-9.334c0,0-17.675,11.859-20.605,16.579c0,0,29.479-13.358,32.035-10.484
			c0,0-6.317,3.163-9.456,11.06c0,0,10.419-11.951,20.789-12.563c0,0-16.85,13.092-18.645,19.258c0,0,32.153-24.803,39.356-18.777
			c0,0-22.823,10.342-26.915,18.052c0,0,2.934-1.462,7.324-3.436c17.729-8.946,37.263-13.083,37.263-13.083s4.23-8.221-7.765-14.447
			c-6.15-3.195-49.498-25.984-87.023-6.955c-8.577,4.351-12.67,12.825-14.211,22.536C61.594,25.777,67.8,21.272,73.691,21.778z"/>
		<path fill="#BFD471" d="M80.313,91.898c0,0-0.083-0.134-0.239-0.387c-0.156-0.26-0.386-0.589-0.672-1.167
			c-0.309-0.549-0.595-1.21-0.894-1.978c-0.283-0.775-0.563-1.662-0.763-2.646c-0.05-0.246-0.098-0.496-0.15-0.751
			c-0.036-0.258-0.073-0.52-0.11-0.786c-0.09-0.532-0.114-1.082-0.167-1.647c-0.054-1.129-0.067-2.317,0.014-3.531
			c0.078-1.212,0.204-2.46,0.398-3.705c0.185-1.251,0.41-2.509,0.666-3.756c0.5-2.499,1.091-4.96,1.609-7.276
			c0.256-1.151,0.501-2.271,0.71-3.338c0.211-1.061,0.388-2.07,0.54-3.001c0.066-0.47,0.132-0.918,0.191-1.346
			c0.054-0.429,0.102-0.833,0.147-1.216c0.071-0.767,0.129-1.437,0.152-1.987c0.037-0.554,0.03-0.986,0.04-1.282
			c0.005-0.298,0.008-0.458,0.008-0.458s0.01,0.161,0.02,0.457c0.01,0.296,0.045,0.729,0.037,1.285c0.017,0.558,0,1.229-0.024,2.003
			c-0.02,0.385-0.041,0.8-0.068,1.23c-0.035,0.435-0.069,0.887-0.11,1.362c-0.09,0.947-0.204,1.974-0.352,3.056
			c-0.143,1.082-0.316,2.218-0.502,3.391c-0.369,2.348-0.806,4.838-1.146,7.333c-0.175,1.247-0.318,2.495-0.42,3.717
			c-0.113,1.222-0.153,2.426-0.159,3.585c-0.006,1.152,0.081,2.262,0.192,3.301c0.085,0.511,0.136,1.014,0.245,1.491
			c0.05,0.236,0.099,0.473,0.146,0.702c0.062,0.224,0.118,0.448,0.178,0.663c0.233,0.866,0.527,1.622,0.813,2.279
			c0.302,0.651,0.589,1.208,0.852,1.612c0.224,0.405,0.509,0.777,0.675,1.019c0.172,0.238,0.262,0.37,0.262,0.37L80.313,91.898z"/>
		<path fill="#BFD471" d="M87.765,93.183c0,0-0.229,0.15-0.664,0.431c-0.219,0.139-0.482,0.315-0.798,0.52
			c-0.281,0.207-0.611,0.45-0.971,0.718c-0.371,0.255-0.771,0.603-1.203,0.955c-0.446,0.349-0.9,0.762-1.396,1.196
			c-0.496,0.425-0.998,0.922-1.542,1.424c-0.533,0.523-1.094,1.065-1.676,1.648c-1.168,1.174-2.43,2.445-3.771,3.791
			c-1.353,1.343-2.834,2.734-4.464,4.067c-1.632,1.333-3.434,2.599-5.397,3.661c-1.916,1.025-3.884,2.038-5.84,3.048
			c-3.919,2.022-7.821,4.055-11.395,6.11c-3.573,2.055-6.813,4.138-9.411,6.166c-2.602,2.019-4.513,4.02-5.622,5.593
			c-0.271,0.397-0.512,0.754-0.698,1.079c-0.174,0.329-0.346,0.601-0.448,0.833c-0.213,0.474-0.323,0.725-0.323,0.725
			s0.102-0.256,0.296-0.735c0.094-0.237,0.258-0.517,0.42-0.854c0.177-0.332,0.404-0.7,0.664-1.112
			c1.058-1.618,2.909-3.708,5.461-5.839c2.545-2.136,5.731-4.354,9.248-6.549c3.515-2.193,7.361-4.372,11.207-6.533
			c1.921-1.083,3.839-2.159,5.71-3.251c1.821-1.071,3.485-2.332,5.004-3.668c1.523-1.332,2.907-2.734,4.194-4.108
			c1.284-1.39,2.5-2.702,3.623-3.913c0.565-0.61,1.121-1.189,1.647-1.742c0.545-0.537,1.041-1.064,1.548-1.531
			c0.497-0.469,0.954-0.922,1.414-1.308c0.457-0.397,0.85-0.765,1.264-1.08c0.399-0.314,0.757-0.601,1.072-0.844
			c0.304-0.214,0.565-0.398,0.774-0.55c0.421-0.297,0.647-0.454,0.647-0.454L87.765,93.183z"/>
		<path fill="#BFD471" d="M98.128,94.717c0,0-0.868,1.372-2.381,3.778c-0.757,1.204-1.721,2.651-2.804,4.319
			c-1.091,1.651-2.325,3.519-3.668,5.553c-1.329,2.037-2.808,4.224-4.296,6.578c-0.746,1.172-1.536,2.366-2.295,3.613
			c-0.762,1.247-1.538,2.518-2.328,3.812c-0.767,1.308-1.513,2.651-2.287,4.005c-0.193,0.339-0.384,0.68-0.578,1.02
			c-0.178,0.352-0.357,0.697-0.536,1.047c-0.357,0.7-0.716,1.406-1.08,2.111c-0.179,0.352-0.363,0.708-0.542,1.062
			c-0.087,0.175-0.19,0.359-0.265,0.528l-0.251,0.547c-0.334,0.735-0.667,1.468-1.003,2.206c-0.669,1.47-1.347,2.95-2.021,4.428
			c-0.673,1.475-1.347,2.954-2.016,4.424c-0.339,0.739-0.672,1.472-1.004,2.206c-0.322,0.735-0.643,1.471-0.963,2.203
			c-1.281,2.926-2.536,5.808-3.754,8.597c-0.305,0.693-0.605,1.388-0.906,2.071c-0.147,0.344-0.298,0.686-0.446,1.022l-0.219,0.507
			l-0.197,0.507c-0.264,0.685-0.535,1.357-0.731,2.032c-0.109,0.337-0.219,0.671-0.325,1.006c-0.094,0.339-0.188,0.675-0.279,1.006
			c-0.728,2.679-1.212,5.271-1.586,7.673c-0.371,2.402-0.612,4.62-0.785,6.591c-0.182,1.968-0.288,3.692-0.349,5.109
			c-0.069,1.422-0.08,2.537-0.09,3.298c0.005,0.759,0.009,1.165,0.009,1.165s-0.017-0.401-0.037-1.165
			c-0.011-0.764-0.026-1.879,0.009-3.298c0.025-1.424,0.088-3.15,0.221-5.127c0.131-1.98,0.317-4.209,0.628-6.628
			c0.316-2.422,0.741-5.038,1.411-7.766c0.084-0.34,0.171-0.68,0.256-1.028c0.101-0.344,0.201-0.689,0.306-1.035
			c0.192-0.707,0.442-1.386,0.691-2.077l0.189-0.526l0.207-0.513c0.142-0.346,0.283-0.692,0.425-1.038
			c0.282-0.691,0.566-1.39,0.854-2.096c1.152-2.825,2.341-5.742,3.549-8.703c0.302-0.744,0.607-1.485,0.915-2.231
			c0.313-0.742,0.629-1.485,0.949-2.229c0.635-1.488,1.275-2.981,1.909-4.476c0.638-1.495,1.275-2.989,1.911-4.477
			c0.316-0.744,0.632-1.487,0.949-2.228l0.238-0.552c0.087-0.203,0.175-0.371,0.261-0.558c0.172-0.363,0.351-0.727,0.523-1.092
			c0.35-0.725,0.696-1.447,1.046-2.166c0.173-0.362,0.344-0.721,0.518-1.078c0.184-0.351,0.371-0.701,0.557-1.048
			c0.749-1.384,1.472-2.765,2.212-4.104c0.765-1.325,1.518-2.624,2.254-3.9c0.734-1.276,1.503-2.491,2.221-3.692
			c1.44-2.405,2.865-4.626,4.149-6.702c1.289-2.064,2.472-3.955,3.519-5.632c1.035-1.68,1.951-3.124,2.677-4.344
			c1.458-2.444,2.287-3.842,2.287-3.842L98.128,94.717z"/>
		<path fill="#BFD471" d="M123.1,102.652c0,0-0.794,1.556-2.184,4.282c-1.373,2.727-3.331,6.623-5.387,11.413
			c-1.024,2.394-2.058,5.017-2.995,7.844c-0.938,2.82-1.773,5.846-2.393,9.03c-0.615,3.18-1.029,6.514-1.169,9.922
			c-0.077,1.704-0.083,3.425-0.031,5.153c0.013,0.864,0.071,1.726,0.108,2.596l0.191,2.611c0.286,3.472,0.676,6.946,1.119,10.357
			c0.472,3.405,0.965,6.757,1.537,9.986c0.265,1.617,0.586,3.198,0.861,4.75c0.314,1.546,0.623,3.06,0.918,4.532
			c0.632,2.94,1.269,5.712,1.911,8.257c0.639,2.544,1.286,4.862,1.88,6.909c0.309,1.016,0.604,1.976,0.868,2.856
			c0.281,0.879,0.559,1.684,0.797,2.409c0.471,1.46,0.914,2.578,1.191,3.349c0.285,0.771,0.438,1.183,0.438,1.183
			s-0.161-0.409-0.461-1.172c-0.296-0.765-0.768-1.876-1.269-3.322c-0.255-0.724-0.556-1.52-0.853-2.394
			c-0.289-0.876-0.604-1.825-0.938-2.838c-0.64-2.038-1.341-4.347-2.037-6.882c-0.7-2.534-1.404-5.294-2.103-8.226
			c-0.33-1.47-0.671-2.978-1.02-4.524c-0.316-1.547-0.673-3.124-0.973-4.744c-0.65-3.224-1.22-6.571-1.77-9.985
			c-0.525-3.415-0.997-6.896-1.361-10.396c-0.374-3.481-0.595-7.036-0.511-10.513c0.062-3.485,0.406-6.914,0.967-10.192
			c0.56-3.279,1.347-6.4,2.239-9.309c0.896-2.911,1.889-5.612,2.871-8.073c1.979-4.913,3.868-8.886,5.187-11.66
			c1.336-2.768,2.098-4.35,2.098-4.35L123.1,102.652z"/>
		<path fill="#BFD471" d="M159.91,125.102c0,0-0.129,0.333-0.359,0.957c-0.109,0.307-0.202,0.663-0.338,1.091
			c-0.105,0.448-0.247,0.966-0.356,1.555c-0.247,1.177-0.425,2.643-0.543,4.334c-0.112,1.695-0.145,3.626-0.068,5.731
			c0.14,4.213,0.683,9.134,1.562,14.368c0.438,2.611,0.957,5.304,1.547,8.029c0.598,2.725,1.253,5.481,1.982,8.218
			c0.356,1.369,0.743,2.732,1.134,4.089l0.296,1.017l0.02,0.061l0.013,0.031c-0.015-0.035,0,0.009,0,0.009l0.046,0.125l0.096,0.246
			l0.177,0.498c0.252,0.655,0.465,1.331,0.74,1.964c1.014,2.575,2.23,5.047,3.481,7.381c0.617,1.175,1.285,2.296,1.921,3.407
			c0.663,1.09,1.302,2.167,1.963,3.189c1.3,2.064,2.586,3.978,3.78,5.738c2.397,3.519,4.431,6.434,5.808,8.5
			c0.695,1.03,1.23,1.849,1.594,2.405c0.363,0.559,0.556,0.855,0.556,0.855s-0.196-0.294-0.577-0.843
			c-0.369-0.549-0.919-1.356-1.635-2.373c-1.42-2.04-3.508-4.91-5.976-8.382c-1.232-1.739-2.559-3.629-3.902-5.669
			c-0.681-1.017-1.349-2.083-2.035-3.167c-0.663-1.1-1.353-2.214-2.001-3.385c-1.306-2.331-2.577-4.782-3.661-7.391
			c-0.298-0.646-0.521-1.301-0.788-1.957l-0.188-0.49l-0.097-0.249l-0.047-0.121l-0.017-0.054l-0.016-0.033l-0.017-0.062
			l-0.319-1.014c-0.42-1.356-0.836-2.719-1.221-4.086c-0.792-2.737-1.505-5.493-2.155-8.22c-0.653-2.725-1.228-5.427-1.724-8.053
			c-0.989-5.252-1.643-10.22-1.872-14.519c-0.114-2.148-0.127-4.126-0.043-5.888c0.085-1.76,0.239-3.302,0.479-4.566
			c0.106-0.63,0.243-1.189,0.352-1.683c0.146-0.493,0.258-0.934,0.363-1.254c0.22-0.629,0.338-0.963,0.338-0.963L159.91,125.102z"/>
		<path fill="#BFD471" d="M206.869,157.981c0,0,0.032,0.169,0.087,0.48c0.063,0.312,0.131,0.787,0.267,1.347
			c0.129,0.562,0.272,1.247,0.503,2.033c0.102,0.393,0.222,0.809,0.363,1.244c0.138,0.438,0.274,0.897,0.45,1.367
			c0.331,0.951,0.723,1.969,1.181,3.029c0.23,0.529,0.467,1.072,0.733,1.62c0.133,0.274,0.262,0.549,0.397,0.831
			c0.137,0.274,0.283,0.553,0.429,0.834c0.568,1.125,1.219,2.261,1.897,3.403c0.695,1.133,1.418,2.272,2.188,3.379
			c0.763,1.118,1.576,2.197,2.39,3.255c0.82,1.049,1.714,1.975,2.656,2.82c0.94,0.849,1.91,1.61,2.823,2.333
			c0.914,0.725,1.785,1.405,2.563,2.073c0.782,0.657,1.456,1.314,2.024,1.917c0.56,0.617,1.008,1.188,1.335,1.686
			c0.161,0.252,0.3,0.479,0.423,0.673c0.112,0.204,0.19,0.382,0.267,0.522c0.141,0.289,0.215,0.438,0.215,0.438
			s-0.082-0.148-0.228-0.429c-0.081-0.138-0.167-0.313-0.286-0.512c-0.124-0.192-0.274-0.414-0.441-0.657
			c-0.347-0.484-0.805-1.038-1.382-1.628c-0.585-0.582-1.271-1.208-2.07-1.837c-0.792-0.636-1.687-1.285-2.626-1.976
			c-0.938-0.695-1.936-1.427-2.916-2.259c-0.979-0.819-1.955-1.756-2.816-2.793c-0.854-1.035-1.712-2.101-2.519-3.201
			c-0.818-1.095-1.587-2.223-2.331-3.347c-0.725-1.135-1.422-2.263-2.045-3.389c-0.154-0.281-0.311-0.559-0.465-0.835
			c-0.144-0.282-0.287-0.562-0.429-0.833c-0.292-0.549-0.552-1.095-0.806-1.63c-0.505-1.069-0.939-2.098-1.312-3.06
			c-0.196-0.479-0.355-0.951-0.512-1.392c-0.162-0.441-0.298-0.869-0.42-1.274c-0.261-0.796-0.442-1.519-0.594-2.111
			c-0.159-0.595-0.237-1.041-0.315-1.356c-0.067-0.311-0.104-0.475-0.104-0.475L206.869,157.981z"/>
		<path fill="#BFD471" d="M196.453,151.047c0,0,0.857-0.272,2.368-0.746c0.374-0.118,0.793-0.251,1.247-0.393
			c0.465-0.127,0.976-0.237,1.519-0.368c1.089-0.25,2.304-0.596,3.658-0.776c0.676-0.11,1.38-0.225,2.106-0.342
			c0.361-0.072,0.735-0.088,1.113-0.125c0.38-0.035,0.765-0.069,1.153-0.104c0.389-0.034,0.786-0.071,1.184-0.107
			c0.2-0.02,0.401-0.037,0.603-0.054c0.202-0.008,0.407-0.01,0.614-0.017c0.822-0.016,1.659-0.032,2.513-0.049
			c0.215-0.005,0.427-0.008,0.642-0.01c0.214,0.01,0.43,0.017,0.647,0.03c0.433,0.021,0.866,0.042,1.306,0.063
			c0.872,0.044,1.764,0.067,2.651,0.196c0.89,0.103,1.781,0.209,2.679,0.314c0.892,0.163,1.786,0.328,2.678,0.493l0.67,0.123
			c0.249,0.04,0.445,0.114,0.669,0.165c0.436,0.129,0.875,0.214,1.302,0.382c0.436,0.155,0.871,0.297,1.289,0.463
			c0.412,0.173,0.828,0.349,1.242,0.524c1.629,0.739,3.187,1.557,4.665,2.386c2.954,1.664,5.654,3.314,8.031,4.605
			c0.59,0.332,1.171,0.624,1.716,0.912c0.548,0.289,1.08,0.534,1.57,0.774c1.001,0.458,1.88,0.852,2.624,1.112
			c0.372,0.13,0.697,0.27,0.991,0.354c0.296,0.087,0.545,0.161,0.75,0.224c0.405,0.117,0.621,0.182,0.621,0.182
			s-0.218-0.057-0.626-0.172c-0.204-0.055-0.456-0.126-0.75-0.208c-0.302-0.078-0.625-0.211-1.003-0.338
			c-0.753-0.247-1.638-0.623-2.647-1.06c-0.499-0.233-1.038-0.472-1.589-0.747c-0.55-0.283-1.137-0.56-1.737-0.879
			c-2.406-1.252-5.137-2.853-8.12-4.456c-1.485-0.8-3.049-1.583-4.674-2.284c-0.407-0.162-0.819-0.329-1.231-0.494
			c-0.418-0.155-0.839-0.281-1.255-0.426c-0.41-0.152-0.866-0.233-1.298-0.35c-0.215-0.047-0.445-0.121-0.646-0.147l-0.665-0.109
			c-0.89-0.148-1.772-0.293-2.658-0.439c-0.89-0.088-1.772-0.177-2.656-0.262c-0.879-0.11-1.756-0.118-2.62-0.143
			c-0.435-0.015-0.863-0.025-1.293-0.041c-0.213-0.005-0.425-0.008-0.64-0.019c-0.209,0.008-0.421,0.015-0.63,0.025
			c-0.841,0.032-1.665,0.065-2.475,0.096c-0.2,0.009-0.401,0.017-0.604,0.026c-0.199,0.02-0.396,0.04-0.592,0.065
			c-0.394,0.044-0.784,0.083-1.162,0.125c-0.385,0.044-0.763,0.087-1.135,0.125c-0.372,0.043-0.739,0.07-1.095,0.148
			c-0.712,0.127-1.4,0.251-2.06,0.373c-1.334,0.204-2.506,0.561-3.561,0.821c-0.523,0.135-1.019,0.256-1.469,0.387
			c-0.452,0.152-0.868,0.29-1.242,0.417c-1.496,0.505-2.354,0.793-2.354,0.793L196.453,151.047z"/>
		<path fill="#BFD471" d="M147.916,116.604c0,0,0.278-0.118,0.803-0.34c0.264-0.116,0.585-0.251,0.965-0.414
			c0.381-0.164,0.813-0.351,1.327-0.539c0.503-0.192,1.063-0.407,1.672-0.635c0.61-0.228,1.273-0.44,1.983-0.682
			c0.704-0.251,1.471-0.472,2.271-0.712c0.403-0.117,0.81-0.25,1.234-0.366c0.427-0.114,0.857-0.23,1.304-0.347
			c1.772-0.479,3.714-0.915,5.768-1.344c2.063-0.401,4.241-0.803,6.502-1.142c2.254-0.354,4.595-0.676,6.964-1.006
			c1.186-0.168,2.377-0.341,3.57-0.527c0.594-0.099,1.194-0.198,1.788-0.296l1.776-0.365c1.194-0.237,2.377-0.514,3.573-0.721
			c1.2-0.199,2.396-0.391,3.581-0.587l0.886-0.146c0.296-0.038,0.594-0.075,0.892-0.108c0.587-0.072,1.175-0.144,1.762-0.216
			c1.167-0.139,2.314-0.307,3.455-0.375c1.141-0.093,2.259-0.182,3.355-0.271c0.547-0.055,1.09-0.066,1.625-0.085
			c0.54-0.02,1.07-0.042,1.593-0.061c0.521-0.02,1.035-0.04,1.547-0.059c0.505-0.021,1.006-0.047,1.5-0.036
			c0.984,0.004,1.936,0.008,2.846,0.015c1.83-0.027,3.499,0.099,4.982,0.162c0.739,0.037,1.431,0.073,2.073,0.104
			c0.638,0.057,1.225,0.116,1.755,0.162c2.12,0.2,3.33,0.316,3.33,0.316s-1.213-0.091-3.336-0.25
			c-0.53-0.041-1.12-0.086-1.758-0.134c-0.636-0.017-1.331-0.042-2.071-0.065c-1.48-0.036-3.152-0.126-4.971-0.067
			c-0.915,0.013-1.864,0.027-2.847,0.04c-0.488-0.004-0.988,0.033-1.496,0.059c-0.507,0.03-1.016,0.061-1.542,0.091
			c-0.518,0.028-1.046,0.058-1.583,0.089c-0.532,0.03-1.075,0.053-1.62,0.115c-1.091,0.112-2.202,0.223-3.334,0.334
			c-1.137,0.088-2.278,0.282-3.438,0.437c-0.579,0.083-1.162,0.163-1.75,0.248c-0.294,0.043-0.587,0.083-0.881,0.125l-0.881,0.162
			c-1.169,0.214-2.352,0.431-3.539,0.648c-1.186,0.229-2.369,0.528-3.557,0.785l-1.789,0.403c-0.597,0.112-1.198,0.223-1.796,0.333
			c-1.198,0.209-2.39,0.406-3.573,0.594c-2.369,0.373-4.69,0.742-6.933,1.132c-2.241,0.381-4.395,0.82-6.428,1.257
			c-2.026,0.463-3.938,0.928-5.677,1.434c-0.436,0.124-0.862,0.248-1.28,0.367c-0.414,0.122-0.815,0.26-1.207,0.38
			c-0.786,0.254-1.534,0.487-2.223,0.743c-0.687,0.252-1.342,0.472-1.929,0.705c-0.59,0.237-1.126,0.452-1.61,0.648
			c-0.49,0.186-0.919,0.38-1.3,0.554c-0.373,0.171-0.699,0.313-0.957,0.429c-0.518,0.235-0.794,0.359-0.794,0.359L147.916,116.604z"
			/>
		<path fill="#BFD471" d="M110.123,95.729c0,0,0.251-0.239,0.725-0.685c0.468-0.447,1.173-1.096,2.028-1.936
			c0.865-0.834,1.91-1.862,3.112-3.045c1.21-1.182,2.57-2.518,4.057-3.977c1.512-1.44,3.144-3.01,4.965-4.584
			c0.89-0.803,1.865-1.573,2.833-2.381c1.008-0.771,2.012-1.584,3.104-2.324c1.061-0.782,2.201-1.483,3.34-2.221
			c1.175-0.671,2.346-1.392,3.588-1.995c0.311-0.158,0.619-0.313,0.928-0.472l0.465-0.234l0.473-0.212
			c0.639-0.281,1.276-0.566,1.913-0.849c0.64-0.281,1.301-0.507,1.954-0.765c0.652-0.251,1.308-0.507,1.963-0.727
			c1.306-0.458,2.611-0.917,3.913-1.374c1.3-0.454,2.631-0.845,3.932-1.268c0.649-0.205,1.302-0.412,1.95-0.615
			c0.645-0.192,1.291-0.384,1.932-0.58c1.284-0.375,2.55-0.751,3.799-1.119c2.497-0.708,4.908-1.396,7.201-2.046
			c1.143-0.324,2.256-0.643,3.332-0.949c1.075-0.318,2.112-0.622,3.105-0.916c0.997-0.298,1.952-0.568,2.859-0.852
			c0.897-0.285,1.756-0.559,2.561-0.813c0.803-0.256,1.557-0.493,2.252-0.716c0.689-0.239,1.318-0.457,1.896-0.659
			c2.286-0.801,3.59-1.255,3.59-1.255s-1.298,0.491-3.556,1.363c-0.568,0.209-1.194,0.45-1.877,0.712
			c-0.688,0.241-1.438,0.5-2.233,0.775c-0.796,0.281-1.644,0.579-2.537,0.89c-0.898,0.312-1.849,0.608-2.831,0.938
			c-0.989,0.318-2.021,0.653-3.085,1.002c-1.065,0.337-2.17,0.685-3.307,1.043c-2.268,0.716-4.661,1.47-7.136,2.252
			c-1.238,0.404-2.488,0.813-3.759,1.228c-0.634,0.209-1.27,0.418-1.91,0.628c-0.638,0.222-1.273,0.446-1.916,0.669
			c-1.278,0.458-2.573,0.877-3.864,1.369c-1.289,0.496-2.58,0.991-3.875,1.483c-0.655,0.241-1.278,0.509-1.91,0.773
			c-0.628,0.266-1.271,0.509-1.883,0.8c-0.613,0.294-1.228,0.59-1.841,0.882l-0.454,0.218l-0.447,0.245
			c-0.294,0.161-0.592,0.323-0.888,0.484c-1.189,0.615-2.306,1.354-3.432,2.037c-1.082,0.749-2.17,1.456-3.18,2.25
			c-1.042,0.748-1.997,1.568-2.954,2.345c-0.925,0.821-1.851,1.591-2.704,2.407c-1.735,1.591-3.301,3.188-4.757,4.655
			c-1.438,1.492-2.756,2.862-3.926,4.075c-1.167,1.219-2.192,2.282-3.046,3.158c-0.851,0.881-1.525,1.54-1.986,2.003
			c-0.455,0.459-0.701,0.706-0.701,0.706L110.123,95.729z"/>
		<path fill="#BFD471" d="M88.385,91.761c0,0,0.008-0.302,0.025-0.872c0.018-0.565,0.035-1.391,0.119-2.486
			c0.06-1.095,0.191-2.394,0.36-3.884c0.108-0.743,0.194-1.538,0.33-2.365c0.143-0.826,0.26-1.704,0.447-2.606
			c0.182-0.9,0.352-1.847,0.586-2.807c0.109-0.484,0.225-0.974,0.339-1.476c0.126-0.495,0.257-1,0.386-1.506
			c0.25-1.023,0.581-2.055,0.878-3.117c0.169-0.526,0.339-1.057,0.51-1.598c0.167-0.534,0.346-1.077,0.543-1.616
			c0.729-2.173,1.627-4.368,2.576-6.577c0.973-2.2,2.055-4.393,3.215-6.54c1.192-2.134,2.439-4.232,3.794-6.214
			c1.358-1.98,2.753-3.892,4.245-5.629c0.18-0.22,0.36-0.435,0.544-0.656c0.188-0.211,0.376-0.42,0.562-0.628
			c0.377-0.417,0.75-0.831,1.116-1.239c0.385-0.396,0.762-0.783,1.139-1.167c0.189-0.19,0.374-0.382,0.557-0.57
			c0.195-0.184,0.391-0.361,0.579-0.543c0.382-0.359,0.758-0.71,1.128-1.061c0.385-0.33,0.76-0.658,1.137-0.979
			c0.731-0.658,1.497-1.22,2.214-1.784c0.356-0.29,0.726-0.539,1.085-0.791c0.354-0.251,0.701-0.498,1.041-0.737
			c0.693-0.458,1.37-0.864,1.991-1.265c1.282-0.738,2.414-1.362,3.377-1.8c0.947-0.485,1.73-0.772,2.25-0.996
			c0.526-0.22,0.808-0.332,0.808-0.332s-0.274,0.125-0.794,0.355c-0.514,0.241-1.287,0.56-2.215,1.069
			c-0.946,0.469-2.052,1.128-3.304,1.906c-0.606,0.417-1.263,0.841-1.935,1.322c-0.329,0.246-0.666,0.504-1.012,0.764
			c-0.346,0.262-0.707,0.518-1.048,0.818c-0.689,0.584-1.434,1.162-2.135,1.841c-0.361,0.329-0.727,0.666-1.098,1.005
			c-0.352,0.355-0.713,0.718-1.078,1.086c-0.183,0.184-0.367,0.369-0.551,0.55c-0.18,0.196-0.356,0.391-0.536,0.584
			c-0.359,0.393-0.72,0.789-1.086,1.191c-0.349,0.417-0.704,0.838-1.063,1.262c-0.176,0.211-0.354,0.427-0.536,0.637
			c-0.172,0.227-0.345,0.443-0.517,0.667c-1.408,1.762-2.725,3.694-4.002,5.686c-1.27,1.999-2.433,4.105-3.53,6.239
			c-1.08,2.153-2.066,4.342-2.954,6.535c-0.858,2.202-1.663,4.382-2.313,6.535c-0.178,0.536-0.333,1.071-0.479,1.602
			c-0.148,0.533-0.297,1.058-0.446,1.579c-0.259,1.049-0.546,2.066-0.759,3.076c-0.114,0.501-0.222,0.995-0.332,1.481
			c-0.096,0.488-0.191,0.972-0.285,1.452c-0.193,0.944-0.332,1.87-0.477,2.755c-0.154,0.881-0.24,1.738-0.355,2.545
			c-0.104,0.807-0.164,1.579-0.241,2.298c-0.119,1.45-0.204,2.717-0.228,3.742c-0.049,1.016-0.037,1.861-0.034,2.428
			c-0.004,0.569-0.002,0.868-0.002,0.868L88.385,91.761z"/>
		<path fill="#BFD471" d="M73.689,93.088c2.997-0.272,6.555-0.695,10.75-0.347c4.194,0.323,8.907,1.062,13.955,2.298
			c5.046,1.244,10.477,2.823,16.072,4.939c2.792,1.073,5.632,2.263,8.487,3.572c1.428,0.653,2.862,1.334,4.302,2.044
			c1.405,0.694,2.804,1.491,4.211,2.307c5.629,3.297,11.289,7.082,17.015,10.95c5.72,3.88,11.49,7.897,17.252,11.926
			c11.521,8.061,23.01,16.184,33.868,23.674c10.854,7.496,21.078,14.367,30.02,19.979c8.938,5.614,16.609,9.971,22.274,12.414
			c2.82,1.223,5.153,1.952,6.793,2.178c0.826,0.075,1.437,0.233,1.863,0.26c0.216,0.017,0.374,0.013,0.482-0.002
			c0.107-0.012,0.162-0.02,0.162-0.02s-0.053,0.003-0.162,0.016c-0.106,0.011-0.269,0.012-0.482-0.007
			c-0.423-0.028-1.037-0.203-1.854-0.291c-1.63-0.253-3.937-1.021-6.73-2.293c-5.605-2.537-13.18-7.021-22.008-12.784
			c-8.825-5.764-18.91-12.811-29.625-20.494c-10.71-7.684-22.046-16.002-33.428-24.277c-5.69-4.134-11.393-8.256-17.06-12.25
			c-2.836-2-5.658-3.967-8.479-5.872c-2.824-1.905-5.637-3.757-8.491-5.487c-1.424-0.857-2.871-1.686-4.363-2.439
			c-1.46-0.736-2.916-1.445-4.369-2.118c-2.903-1.351-5.793-2.569-8.638-3.679c-5.679-2.232-11.189-4.042-16.415-5.206
			c-5.217-1.181-10.103-1.864-14.461-2.124c-4.356-0.25-8.768-0.573-11.887-0.209c-3.086,0.365-4.603,0.35-6.415,0.63
			c-0.137,0.831-0.793,3.389-1.222,4.245c0.353-0.091,1.251-0.348,1.781-0.468C68.456,93.796,70.69,93.341,73.689,93.088z"/>
		<path fill="#4F7B2E" d="M149.264,210.459c0.906,4.063,0.645,7.585,0.645,7.585c-6.553-2.073-11.855-9.198-11.855-9.198
			c2.969,7.342-7.023,12.732-7.023,12.732c0.467-6.493-5.183-13.128-5.183-13.128c-1.051,10.68-6.131,7.741-6.131,7.741
			c1.022-9.318-5.007-12.947-5.007-12.947c6.137,7.672-4.571,20.575-4.571,20.575c2.846-4.597-0.074-14.206-0.074-14.206
			c-0.831,7.488-11.622,12.206-11.622,12.206c3.33-4.475-3.012-21.461-3.012-21.461c-0.726,9.102-4.269,10.333-6.413,10.22
			c0.177,1.605,0.257,3.228,0.221,4.819c-0.043,1.825-0.237,3.653-0.631,5.432c19.462,11.455,73.625,7.9,69.657,2.263
			c-0.721-1.023-1.358-2.064-1.938-3.104L149.264,210.459z"/>
		<path fill="#4F7B2E" d="M72.646,181.207c3.863,14.783-4.118,22.885-4.118,22.885c-1.278-15.566-13.666-21.455-10.057-18.34
			c0.143,0.126,0.276,0.264,0.403,0.423c2.933,3.802-0.329,16.809-0.329,16.809c-9.565-0.705-12.555-21.802-12.555-21.802
			c-1.746,4.831,3.26,20.672-5.234,17.022c-3.491-1.497-4.003-21.792-4.003-21.792c-4.319,4.293-6.34,9.071-6.987,10.855
			c0.1,1.573,0.084,3.152-0.133,4.74c-0.149,1.105-0.346,2.221-0.605,3.327c10.108,10.492,45.602,24.264,47.868,16.009
			c1.224-4.452,2.792-10.231,4.142-16.371C76.715,186.51,72.646,181.207,72.646,181.207z"/>
		<path fill="#4F7B2E" d="M18.821,183.293c2.89-1.563,5.501-3.525,7.862-5.769c0.611-11.107,5.737-26.703,5.737-26.703
			c-4.875,3.126-10.626,20.393-10.626,20.393c-3.107-8.631,3.892-20.349,3.892-20.349c-5.941,4.686-6.545,10.69-6.545,10.69
			c-3.464-1.313-1.925-28.961-1.925-28.961c-3.182,3.655-7.54,21.268-7.54,21.268c-3.685-3.989,1.835-17.552,1.835-17.552
			c-5.084,5.35-9.137,15.295-9.137,15.295c-1.068-1.467-0.468-4.91,1.047-9.262c-1.626,3.625-2.718,7.266-3.214,10.833
			C-2.303,171.329,18.821,183.293,18.821,183.293z"/>
	</g>
</g>
</svg>
