<?xml version="1.0" encoding="utf-8"?>
<!-- Generator: Adobe Illustrator 16.0.0, SVG Export Plug-In . SVG Version: 6.00 Build 0)  -->
<!DOCTYPE svg PUBLIC "-//W3C//DTD SVG 1.1//EN" "http://www.w3.org/Graphics/SVG/1.1/DTD/svg11.dtd">
<svg version="1.1" id="Calque_1" xmlns="http://www.w3.org/2000/svg" xmlns:xlink="http://www.w3.org/1999/xlink" x="0px" y="0px"
	 width="192.019px" height="165.044px" viewBox="0 0 192.019 165.044" enable-background="new 0 0 192.019 165.044"
	 xml:space="preserve">
<g>
	<path fill="#63862D" d="M50.659,114.618c0,0,0.053,0.147,0.155,0.427c0.089,0.259,0.292,0.793,0.301,0.979
		c0.086,0.24,0.149,0.723,0.146,1.242c-0.012,0.519-0.07,1.13-0.33,1.807c-0.226,0.676-0.614,1.429-1.155,2.199
		c-0.511,0.782-1.227,1.558-1.985,2.352c-1.575,1.556-3.514,3.09-5.574,4.504c-4.11,2.849-8.566,5.37-11.741,7.531
		c-1.594,1.076-2.861,2.06-3.687,2.825c-0.403,0.391-0.716,0.697-0.904,0.933c-0.194,0.226-0.299,0.346-0.299,0.346
		s0.123-0.105,0.346-0.302c0.215-0.203,0.565-0.463,1.01-0.792c0.907-0.63,2.272-1.423,3.973-2.25
		c3.404-1.688,8.112-3.555,12.735-5.886c2.313-1.165,4.591-2.486,6.641-4.012c1.01-0.798,1.984-1.597,2.819-2.533
		c0.849-0.91,1.583-1.911,2.125-2.972c0.57-1.041,0.9-2.158,1.073-3.167c0.164-1.019,0.192-1.896,0.084-2.751
		c-0.086-0.921-0.189-1.212-0.247-1.53c-0.06-0.29-0.091-0.446-0.091-0.446L50.659,114.618z"/>
	<path fill="#63862D" d="M53.582,116.82c0,0,0.199-0.341,0.543-0.94c0.173-0.296,0.382-0.657,0.626-1.074
		c0.248-0.529,0.528-1.125,0.836-1.779c0.322-0.632,0.479-1.404,0.723-2.164c0.122-0.375,0.142-0.834,0.21-1.261
		c0.052-0.435,0.134-0.864,0.087-1.337c-0.026-0.463-0.025-0.932-0.1-1.391c-0.105-0.455-0.216-0.912-0.323-1.373
		c-0.32-0.876-0.696-1.715-1.175-2.446c-0.464-0.741-0.98-1.422-1.505-2.028c-0.522-0.62-1.046-1.182-1.559-1.731
		c-1.004-1.083-1.96-2.065-2.685-2.971c-0.386-0.438-0.698-0.87-0.975-1.255c-0.293-0.379-0.525-0.723-0.688-1.019
		c-0.359-0.593-0.562-0.928-0.562-0.928s0.124,0.374,0.347,1.029c0.096,0.339,0.249,0.734,0.456,1.173
		c0.19,0.446,0.406,0.955,0.691,1.481c0.529,1.084,1.257,2.275,2.002,3.549c0.364,0.635,0.751,1.29,1.088,1.947
		c0.351,0.661,0.65,1.332,0.882,1.992c0.248,0.662,0.354,1.316,0.441,1.931c-0.002,0.297,0,0.599-0.002,0.892
		c-0.022,0.291-0.104,0.573-0.145,0.845c-0.023,0.268-0.158,0.537-0.253,0.793c-0.112,0.253-0.151,0.496-0.311,0.736
		c-0.305,0.469-0.486,0.948-0.801,1.305c-0.282,0.364-0.544,0.7-0.774,0.999c-0.324,0.354-0.609,0.658-0.85,0.912
		c-0.466,0.504-0.736,0.795-0.736,0.795L53.582,116.82z"/>
	<path fill="#63862D" d="M59.033,111.828c0,0-0.267,3.295-0.661,8.234c-0.1,1.236-0.205,2.575-0.323,3.991
		c-0.094,1.419-0.06,2.962-0.099,4.532c-0.036,3.138-0.08,6.482-0.122,9.832c0.157,3.315,0.31,6.633,0.455,9.743
		c0.09,1.553,0.106,3.052,0.243,4.47c0.15,1.42,0.289,2.759,0.419,3.992c0.524,4.935,0.869,8.221,0.869,8.221
		s0.004-3.304,0.01-8.257c0-1.235,0-2.572,0.004-3.987c0.01-1.412,0.149-2.911,0.224-4.446c0.185-3.078,0.383-6.359,0.575-9.641
		c0.386-3.243,0.77-6.48,1.128-9.518c0.196-1.516,0.312-2.967,0.558-4.36c0.259-1.397,0.507-2.715,0.735-3.932
		c0.918-4.87,1.528-8.117,1.528-8.117L59.033,111.828z"/>
	<path fill="#63862D" d="M60.856,113.054c0,0,0.045-0.601,0.126-1.657c0.034-0.541,0.11-1.14,0.124-1.948
		c0.02-0.786,0.078-1.684,0.069-2.63c-0.023-0.945,0.004-1.964-0.064-3.034c-0.045-1.077-0.117-2.199-0.228-3.349
		c-0.195-2.306-0.5-4.719-0.739-7.093c-0.104-1.187-0.212-2.371-0.252-3.535c-0.065-1.164-0.041-2.302,0.002-3.411
		c0.031-0.553,0.064-1.097,0.097-1.626c0.066-0.534,0.134-1.053,0.193-1.558c0.1-1.021,0.356-1.957,0.513-2.841
		c0.182-0.878,0.436-1.666,0.616-2.376c0.174-0.715,0.417-1.308,0.577-1.813c0.343-0.999,0.542-1.571,0.542-1.571
		s-0.276,0.537-0.764,1.482c-0.231,0.472-0.563,1.035-0.839,1.723c-0.284,0.684-0.657,1.442-0.975,2.303
		c-0.284,0.868-0.682,1.795-0.938,2.823c-0.144,0.511-0.288,1.036-0.435,1.575c-0.114,0.547-0.232,1.105-0.352,1.673
		c-0.211,1.136-0.404,2.335-0.517,3.545c-0.131,1.213-0.198,2.447-0.271,3.676c-0.107,2.451-0.149,4.861-0.284,7.085
		c-0.057,1.113-0.151,2.179-0.245,3.18c-0.08,1.003-0.246,1.935-0.346,2.804c-0.124,0.857-0.286,1.611-0.397,2.292
		c-0.104,0.653-0.278,1.317-0.386,1.825c-0.233,1.036-0.365,1.624-0.365,1.624L60.856,113.054z"/>
	<path fill="#63862D" d="M61.917,112.118c0,0,0.035,3.032,0.099,7.576c0.015,1.139,0.034,2.373,0.049,3.672
		c-0.01,1.301,0.14,2.69,0.209,4.112c0.176,2.853,0.366,5.892,0.556,8.935c0.291,3.022,0.574,6.046,0.847,8.874
		c0.248,2.836,0.555,5.468,0.805,7.732c0.509,4.515,0.841,7.532,0.841,7.532s-0.16-3.028-0.403-7.567
		c-0.12-2.271-0.274-4.922-0.362-7.755c-0.104-2.842-0.215-5.865-0.331-8.891c-0.012-3.015-0.026-6.03-0.036-8.862
		c0.015-1.411-0.057-2.768,0.026-4.075c0.056-1.3,0.112-2.529,0.159-3.667c0.205-4.54,0.339-7.569,0.339-7.569L61.917,112.118z"/>
	<path fill="#63862D" d="M62.393,113.481c0,0,0.027-0.034,0.077-0.098c0.037-0.049,0.087-0.115,0.143-0.192
		c0.146-0.205,0.303-0.476,0.417-0.792c0.024-0.083,0.049-0.161,0.079-0.247l0.022-0.128c0.014-0.077,0.027-0.159,0.039-0.248
		c0.026-0.168,0.053-0.368,0.05-0.503c0.014-0.331,0.004-0.656-0.02-0.987c-0.093-1.317-0.36-2.914-0.586-4.851
		c-0.228-1.933-0.411-4.173-0.4-6.582c0.019-2.407,0.214-4.982,0.696-7.525c0.467-2.541,1.182-5.048,2.057-7.331
		c0.441-1.142,0.902-2.234,1.399-3.246c0.467-1.028,0.997-1.951,1.46-2.825c0.517-0.844,0.948-1.64,1.4-2.304
		c0.448-0.669,0.813-1.271,1.164-1.735c0.676-0.936,1.064-1.475,1.064-1.475s-0.439,0.495-1.207,1.37
		c-0.396,0.423-0.822,0.987-1.332,1.615c-0.526,0.619-1.04,1.375-1.64,2.176c-0.559,0.832-1.189,1.719-1.768,2.715
		c-0.607,0.974-1.188,2.045-1.754,3.17c-1.136,2.255-2.137,4.777-2.894,7.387c-0.762,2.605-1.244,5.302-1.513,7.848
		c-0.265,2.541-0.303,4.941-0.268,6.97c0.035,2.024,0.141,3.72,0.102,4.714c-0.005,0.25-0.023,0.44-0.047,0.561
		c-0.003,0.092-0.021,0.094-0.026,0.109l-0.007,0.025c0.002-0.001-0.004,0.021,0.005-0.001c0.006-0.048,0.021-0.095,0.031-0.134
		c0.063-0.177,0.165-0.32,0.265-0.414c0.083-0.076,0.024-0.017,0.015-0.008l-0.044,0.05c-0.059,0.056-0.083,0.087-0.083,0.087
		L62.393,113.481z"/>
	<path fill="#63862D" d="M71.31,110.028c0,0,0.102,0.701,0.268,1.927c0.062,0.601,0.252,1.393,0.448,2.279
		c0.175,0.903,0.443,1.872,0.764,2.906c0.282,1.052,0.69,2.151,1.104,3.317c0.398,1.174,0.938,2.356,1.433,3.608
		c0.562,1.22,1.097,2.498,1.728,3.752c0.614,1.268,1.249,2.536,1.928,3.79c2.647,5.041,5.649,9.855,7.911,13.451
		c2.273,3.586,3.792,5.975,3.792,5.975s-1.368-2.479-3.414-6.197c-2.033-3.725-4.729-8.702-7.035-13.843
		c-0.59-1.28-1.142-2.575-1.662-3.852c-0.548-1.275-0.994-2.557-1.47-3.779c-0.403-1.25-0.86-2.434-1.171-3.582
		c-0.327-1.15-0.659-2.23-0.86-3.248c-0.248-1.011-0.441-1.931-0.546-2.735c-0.121-0.805-0.26-1.484-0.283-2.122
		c-0.093-1.236-0.147-1.94-0.147-1.94L71.31,110.028z"/>
	<path fill="#63862D" d="M90.468,107.399c0,0,0.063-0.666,0.174-1.833c0.125-1.168,0.295-2.733,0.632-4.665
		c0.151-0.966,0.402-1.983,0.63-3.074c0.305-1.068,0.558-2.225,0.968-3.365c0.354-1.163,0.829-2.328,1.313-3.514
		c0.512-1.196,1.079-2.303,1.673-3.568c0.591-1.17,1.133-2.548,1.587-3.784c0.445-1.27,0.842-2.531,1.177-3.751
		c0.687-2.441,1.209-4.722,1.774-6.637c0.284-0.957,0.561-1.829,0.868-2.578c0.287-0.755,0.597-1.396,0.88-1.902
		c0.272-0.514,0.527-0.895,0.717-1.147c0.181-0.258,0.275-0.396,0.275-0.396s-0.109,0.129-0.313,0.363
		c-0.214,0.231-0.513,0.587-0.841,1.082c-0.338,0.48-0.722,1.097-1.09,1.833c-0.389,0.727-0.763,1.578-1.15,2.517
		c-0.771,1.873-1.533,4.099-2.449,6.418c-0.457,1.161-0.965,2.334-1.518,3.506c-0.586,1.182-1.129,2.26-1.864,3.417
		c-0.664,1.097-1.426,2.322-2.064,3.5c-0.625,1.201-1.241,2.391-1.732,3.59c-0.554,1.183-0.936,2.377-1.361,3.494
		c-0.351,1.134-0.722,2.208-0.97,3.21c-0.546,1.987-0.9,3.729-1.129,4.877c-0.217,1.154-0.343,1.813-0.343,1.813L90.468,107.399z"/>
	<path fill="#63862D" d="M104.808,102.084c0,0,0.206,0.65,0.567,1.784c0.168,0.564,0.447,1.278,0.729,2.078
		c0.281,0.812,0.645,1.688,1.032,2.648c0.781,1.925,1.785,4.116,2.934,6.423c1.157,2.301,2.464,4.712,3.858,7.071
		c0.684,1.202,1.436,2.352,2.254,3.457c0.8,1.099,1.642,2.129,2.471,3.106c1.668,1.956,3.306,3.7,4.723,5.17
		c1.421,1.47,2.604,2.693,3.437,3.551c0.813,0.87,1.279,1.37,1.279,1.37s-0.436-0.529-1.198-1.443
		c-0.775-0.906-1.885-2.197-3.217-3.752c-1.325-1.552-2.853-3.379-4.381-5.405c-0.761-1.018-1.527-2.081-2.24-3.198
		c-0.716-1.092-1.396-2.263-1.98-3.479c-1.214-2.423-2.339-4.884-3.32-7.221c-0.971-2.338-1.804-4.546-2.434-6.458
		c-0.309-0.96-0.609-1.837-0.816-2.611c-0.217-0.785-0.427-1.432-0.558-2.027c-0.282-1.159-0.446-1.817-0.446-1.817L104.808,102.084
		z"/>
	<path fill="#63862D" d="M105.819,102.624c0,0,0.199-0.05,0.477-0.189c0.272-0.158,0.654-0.419,0.974-0.787
		c0.34-0.365,0.6-0.876,0.81-1.504c0.221-0.619,0.469-1.314,0.744-2.073c0.533-1.521,1.137-3.296,1.765-5.207
		c0.304-0.959,0.619-1.951,0.938-2.956c0.307-1.012,0.645-2.03,0.902-3.075c1.063-4.17,2.077-8.378,2.269-11.667
		c0.116-1.628,0.091-3.025-0.156-3.975c-0.115-0.473-0.29-0.825-0.431-1.035c-0.153-0.202-0.242-0.303-0.242-0.303
		s0.061,0.119,0.17,0.338c0.086,0.225,0.176,0.58,0.188,1.035c0.04,0.913-0.163,2.214-0.576,3.734
		c-0.819,3.037-2.378,6.955-4.098,10.794c-1.722,3.845-3.595,7.62-5.036,10.427c-0.736,1.387-1.347,2.547-1.778,3.356
		c-0.437,0.784-0.688,1.235-0.688,1.235L105.819,102.624z"/>
	<path fill="#63862D" d="M119.357,95.069c0,0,0.448,0.477,1.235,1.311c0.79,0.828,2.012,2.045,3.464,3.372
		c2.918,2.704,6.96,6.041,10.966,9.411c1.012,0.842,1.989,1.707,3.121,2.451c1.108,0.726,2.24,1.355,3.376,1.871
		c2.273,1.027,4.512,1.687,6.451,2.054c1.943,0.377,3.586,0.499,4.735,0.528c0.571,0.015,1.024,0.009,1.33-0.008
		c0.307-0.006,0.47-0.012,0.47-0.012s-0.165-0.006-0.469-0.017c-0.307-0.008-0.755-0.028-1.327-0.08
		c-1.137-0.102-2.756-0.328-4.645-0.825c-1.885-0.486-4.03-1.275-6.163-2.41c-1.063-0.565-2.109-1.248-3.109-1.999
		c-0.488-0.379-0.968-0.771-1.453-1.228c-0.454-0.408-0.936-0.894-1.405-1.338c-3.768-3.64-7.569-7.246-10.227-10.072
		c-0.664-0.708-1.281-1.35-1.781-1.936c-0.518-0.588-0.966-1.07-1.323-1.527c-0.729-0.888-1.145-1.393-1.145-1.393L119.357,95.069z"
		/>
	<path fill="#63862D" d="M164.742,47.542c0.003-0.003,0.384,0.057,0.994,0.172c0.297,0.066,0.659,0.14,1.073,0.231
		c0.437,0.1,0.93,0.219,1.469,0.341c1.087,0.257,2.354,0.582,3.785,0.841c0.366,0.059,0.738,0.115,1.115,0.174
		c0.442,0.043,0.746,0.038,1.13,0.057c0.83-0.003,1.647-0.04,2.442-0.211c1.61-0.299,3.025-1.055,4.237-1.753
		c1.215-0.712,2.314-1.381,3.298-1.903c0.979-0.52,1.82-0.917,2.417-1.176c0.598-0.254,0.941-0.399,0.941-0.399
		s-0.362,0.094-0.992,0.263c-0.632,0.169-1.523,0.446-2.583,0.826c-1.06,0.382-2.275,0.9-3.557,1.422
		c-1.281,0.515-2.634,0.99-3.989,1.036c-0.681,0.049-1.355-0.024-1.985-0.103c-0.75-0.137-1.337-0.26-1.999-0.425
		c-1.292-0.333-2.521-0.747-3.583-1.079c-0.537-0.167-1.028-0.326-1.467-0.461c-0.424-0.136-0.865-0.252-1.197-0.349
		c-0.661-0.174-1.008-0.248-1.008-0.248L164.742,47.542z"/>
	<path fill="#63862D" d="M152.437,69.509c0,0,0.544,0.187,1.501,0.518c0.963,0.316,2.301,0.817,3.977,1.338
		c1.671,0.518,3.6,1.184,5.715,1.726c1.052,0.287,2.139,0.586,3.241,0.886c1.118,0.252,2.25,0.51,3.381,0.766
		c2.267,0.522,4.522,1.059,6.729,1.267c2.192,0.227,4.298,0.13,6.002-0.35c1.708-0.444,3.005-1.132,3.891-1.616
		c0.886-0.489,1.372-0.807,1.372-0.807s-0.51,0.276-1.43,0.691c-0.917,0.402-2.255,0.974-3.938,1.267
		c-1.676,0.32-3.674,0.244-5.763-0.146c-2.084-0.379-4.285-1.085-6.481-1.745c-1.099-0.334-2.198-0.667-3.28-0.997
		c-1.063-0.371-2.11-0.739-3.126-1.097c-2.038-0.678-3.883-1.467-5.482-2.087c-1.593-0.622-2.92-1.226-3.853-1.608
		c-0.93-0.398-1.459-0.622-1.459-0.622L152.437,69.509z"/>
	<path fill="#63862D" d="M78.805,109.758c0,0,0.232,0.684,0.641,1.876c0.413,1.18,1.061,2.966,1.866,4.981
		c1.605,4.073,3.91,9.406,6.45,14.623c2.546,5.211,5.286,10.335,7.664,13.981c0.604,0.905,1.136,1.744,1.688,2.44
		c0.511,0.724,1.007,1.314,1.44,1.779c0.399,0.497,0.806,0.801,1.062,1.021c0.256,0.217,0.393,0.335,0.393,0.335
		s-0.129-0.133-0.362-0.372c-0.236-0.244-0.604-0.57-0.949-1.101c-0.39-0.498-0.825-1.119-1.264-1.879
		c-0.479-0.73-0.93-1.612-1.445-2.554c-2.015-3.813-4.26-9.115-6.3-14.481c-2.032-5.374-3.828-10.831-5.03-14.944
		c-0.613-2.067-1.045-3.721-1.352-4.959c-0.302-1.226-0.474-1.927-0.474-1.927L78.805,109.758z"/>
	<path fill="#63862D" d="M86.659,106.906c0,0-0.023-0.143-0.066-0.414c-0.021-0.127-0.046-0.286-0.074-0.469
		c-0.012-0.124-0.026-0.267-0.04-0.426c-0.023-0.357-0.046-0.913-0.006-1.536c0.023-0.63,0.095-1.366,0.207-2.178
		c0.43-3.26,1.582-7.733,3.03-12.116c1.436-4.394,3.151-8.721,4.603-11.889c0.725-1.584,1.39-2.877,1.918-3.743
		c0.263-0.433,0.494-0.759,0.678-0.957c0.175-0.208,0.316-0.266,0.31-0.275c0.007,0.01-0.142,0.046-0.354,0.23
		c-0.215,0.172-0.501,0.467-0.827,0.862c-0.662,0.791-1.527,1.986-2.49,3.458c-1.933,2.95-4.301,7.019-6.425,11.246
		c-2.134,4.22-4.016,8.597-5.056,12.182c-0.265,0.893-0.479,1.737-0.632,2.516c-0.163,0.787-0.254,1.466-0.313,2.125
		c-0.019,0.352-0.03,0.664-0.041,0.937c-0.003,0.21-0.001,0.388,0.001,0.536c0.004,0.271,0.005,0.419,0.005,0.419L86.659,106.906z"
		/>
	<path fill="#63862D" d="M54.157,113.237c0,0,0.01,0.609,0.021,1.679c0.008,0.533,0.017,1.182,0.022,1.926
		c0.002,0.736,0.035,1.599,0.014,2.489c-0.051,0.868-0.106,1.811-0.166,2.808c-0.051,1.001-0.108,2.064-0.262,3.184
		c-0.239,2.227-0.568,4.642-0.927,7.063c-0.154,1.222-0.309,2.449-0.46,3.655c-0.177,1.195-0.189,2.42-0.283,3.574
		c-0.04,0.58-0.077,1.146-0.113,1.702c0.008,0.558,0.016,1.104,0.024,1.638c0.021,1.062,0.04,2.062,0.058,2.986
		c0.026,0.923,0.174,1.764,0.24,2.51c0.083,0.738,0.158,1.385,0.219,1.92c0.121,1.06,0.186,1.665,0.186,1.665
		s0.022-0.61,0.055-1.682c0.014-0.532,0.033-1.182,0.06-1.923c0.038-0.737,0.01-1.574,0.115-2.479
		c0.114-0.897,0.232-1.874,0.362-2.909c0.065-0.511,0.136-1.037,0.204-1.575c0.113-0.532,0.226-1.075,0.347-1.633
		c0.255-1.101,0.427-2.239,0.769-3.388c0.313-1.152,0.637-2.315,0.958-3.479c0.695-2.341,1.371-4.694,1.953-6.966
		c0.316-1.116,0.55-2.242,0.76-3.325c0.217-1.077,0.424-2.097,0.613-3.039c0.161-0.927,0.242-1.748,0.35-2.492
		c0.098-0.736,0.179-1.379,0.252-1.91c0.142-1.061,0.22-1.664,0.22-1.664L54.157,113.237z"/>
	<path fill="#3F5824" d="M55.025,130.142c-0.446-3.009,0.229-6.353-0.864-9.21c-4.818,1.641-7.708,6.457-12.501,8.455
		c3.419-2.772,14.547-8.984,11.366-14.605c1.845-0.388,3.975-0.896,5.931-0.91c-1.576,1.013-1.871,4.054-3.287,6.024
		C55.67,119.895,55.497,127.471,55.025,130.142z"/>
	<path fill="#63862D" d="M58.374,113.694c0,0-0.01-0.458-0.031-1.258c-0.011-0.399-0.021-0.887-0.038-1.441
		c-0.037-0.591-0.078-1.259-0.123-1.987c-0.031-0.731-0.134-1.491-0.216-2.302c-0.071-0.812-0.21-1.655-0.335-2.528
		c-0.264-1.746-0.629-3.584-1.048-5.391c-0.827-3.619-1.898-7.095-2.285-9.756c-0.117-0.667-0.155-1.28-0.192-1.823
		c-0.032-0.552,0.013-1.027,0.017-1.428c0.105-0.784,0.166-1.235,0.166-1.235s-0.149,0.436-0.406,1.198
		c-0.074,0.393-0.215,0.873-0.291,1.433c-0.071,0.561-0.155,1.201-0.166,1.897c-0.13,2.802,0.271,6.485,0.384,10.084
		c0.065,1.8,0.072,3.589,0,5.251c-0.038,0.83-0.061,1.628-0.141,2.385c-0.067,0.751-0.109,1.475-0.207,2.106
		c-0.084,0.64-0.158,1.222-0.225,1.74c-0.091,0.546-0.173,1.027-0.236,1.419c-0.134,0.793-0.209,1.242-0.209,1.242L58.374,113.694z"
		/>
	<path fill="#3F5824" d="M55.188,112.212c-1.481-0.172-0.333-0.126-1.756-0.114c0.333-1.892,0.666-3.787,0.009-5.593
		c0.281,0.405,0.651,0.827,0.921,1.317c-0.104-1.438,0.131-3.261,0.718-4.58c0.449,0.967,0.412,2.205,1.02,3.288
		c2.526-1.242,3.528-5.418,4.416-7.925c-0.428,2.413-1.094,4.693-1.935,6.942c-0.454,1.074-2.397,2.088-2.509,3.225
		c-0.056,1.32-1.049,2.05,0.502,3.835L55.188,112.212z"/>
	<path fill="#63862D" d="M73.697,111.269c0,0,0.261,0.786,0.719,2.161c0.229,0.687,0.506,1.521,0.826,2.479
		c0.283,0.95,0.733,2.049,1.231,3.245c0.493,1.19,1.021,2.479,1.58,3.841c0.593,1.339,1.28,2.689,1.955,4.115
		c0.671,1.422,1.384,2.884,2.188,4.317c0.79,1.449,1.583,2.912,2.378,4.384c0.847,1.432,1.691,2.867,2.527,4.281
		c0.813,1.421,1.688,2.772,2.519,4.096c1.64,2.648,3.254,5.062,4.642,7.123c1.358,2.08,2.58,3.754,3.401,4.946
		c0.828,1.191,1.3,1.869,1.3,1.869s-0.397-0.725-1.098-1.993c-0.684-1.273-1.722-3.064-2.856-5.272
		c-1.156-2.191-2.5-4.75-3.839-7.536c-0.683-1.389-1.405-2.813-2.058-4.297c-0.674-1.477-1.354-2.974-2.033-4.47
		c-0.626-1.517-1.251-3.035-1.867-4.528c-0.639-1.482-1.176-2.969-1.682-4.415c-0.502-1.442-1.037-2.829-1.459-4.146
		c-0.385-1.316-0.75-2.561-1.084-3.707c-0.347-1.136-0.655-2.177-0.846-3.188c-0.215-0.988-0.403-1.847-0.557-2.552
		c-0.309-1.416-0.484-2.224-0.484-2.224L73.697,111.269z"/>
	<path fill="#63862D" d="M149.239,74.361c0,0-0.012-0.365-0.039-0.998c-0.015-0.629-0.095-1.567-0.042-2.588
		c0.011-0.527,0.022-1.094,0.035-1.693c0.045-0.615,0.092-1.261,0.14-1.929c0.07-1.34,0.277-2.768,0.441-4.203
		c0.207-1.429,0.398-2.863,0.646-4.196c0.217-1.339,0.464-2.587,0.673-3.654c0.438-2.134,0.731-3.557,0.731-3.557
		s-0.463,1.378-1.156,3.445c-0.335,1.041-0.732,2.252-1.112,3.565c-0.402,1.306-0.772,2.717-1.156,4.129
		c-0.337,1.428-0.719,2.842-0.964,4.204c-0.135,0.679-0.259,1.338-0.38,1.959c-0.091,0.644-0.178,1.249-0.259,1.808
		c-0.185,1.143-0.214,2.023-0.275,2.663c-0.05,0.633-0.078,0.997-0.078,0.997L149.239,74.361z"/>
	<path fill="#63862D" d="M66.838,112.355c0,0,0.841,3.579,2.089,8.944c0.314,1.349,0.72,2.822,1.122,4.365
		c0.454,1.547,0.906,3.178,1.49,4.843c0.269,0.841,0.566,1.684,0.909,2.53c0.342,0.841,0.628,1.711,1.033,2.553
		c0.386,0.846,0.774,1.692,1.163,2.549l1.322,2.49c0.96,1.619,1.896,3.249,3.008,4.723c1.031,1.527,2.207,2.907,3.313,4.247
		c1.148,1.314,2.319,2.521,3.426,3.656c1.173,1.078,2.237,2.134,3.282,3.04c1.063,0.881,2.03,1.69,2.893,2.41
		c0.869,0.705,1.673,1.264,2.311,1.753c1.284,0.961,2.014,1.509,2.014,1.509s-0.676-0.62-1.863-1.695
		c-0.586-0.543-1.324-1.175-2.12-1.958c-0.781-0.789-1.665-1.682-2.625-2.652c-0.945-0.987-1.896-2.126-2.937-3.284
		c-0.977-1.212-1.999-2.498-2.984-3.872c-0.948-1.4-1.946-2.826-2.793-4.381c-0.926-1.503-1.664-3.139-2.423-4.747l-1.019-2.465
		c-0.288-0.84-0.577-1.674-0.862-2.5c-0.307-0.816-0.497-1.675-0.742-2.494c-0.249-0.821-0.451-1.646-0.628-2.468
		c-0.401-1.62-0.684-3.227-0.973-4.737c-0.246-1.529-0.5-2.963-0.68-4.313c-0.733-5.431-1.218-9.051-1.218-9.051L66.838,112.355z"/>
	<path fill="#63862D" d="M74.679,110.99c0,0,0.051-0.777,0.142-2.141c0.056-0.653,0.083-1.478,0.191-2.343
		c0.075-0.867,0.255-1.864,0.452-2.954c0.224-1.161,0.469-2.42,0.725-3.75c0.24-1.327,0.491-2.727,0.75-4.174
		c0.254-1.435,0.516-2.907,0.822-4.389c0.302-1.482,0.629-2.979,1.025-4.46c0.375-1.483,0.818-2.948,1.305-4.373
		c0.473-1.437,1.03-2.817,1.569-4.149c0.587-1.319,1.144-2.603,1.763-3.776c0.577-1.201,1.214-2.283,1.78-3.306
		c0.551-1.024,1.154-1.908,1.638-2.719c0.488-0.817,0.963-1.494,1.341-2.059c0.765-1.134,1.201-1.78,1.201-1.78
		s-0.506,0.596-1.389,1.637c-0.439,0.523-0.99,1.151-1.564,1.911c-0.573,0.759-1.276,1.581-1.943,2.55
		c-0.682,0.957-1.445,1.983-2.159,3.132c-0.759,1.126-1.47,2.362-2.22,3.646c-0.704,1.303-1.431,2.66-2.08,4.082
		c-0.666,1.412-1.286,2.884-1.843,4.371c-0.578,1.482-1.087,2.992-1.561,4.474c-0.479,1.482-0.909,2.949-1.323,4.357
		c-0.411,1.395-0.81,2.745-1.188,4.026c-0.394,1.265-0.766,2.459-1.109,3.565c-0.372,1.177-0.709,2.263-0.938,3.274
		c-0.245,0.999-0.377,1.824-0.527,2.52c-0.258,1.34-0.407,2.104-0.407,2.104L74.679,110.99z"/>
	<path fill="#63862D" d="M71.424,110.43c0,0-0.019-0.178-0.053-0.506c-0.022-0.309-0.085-0.84-0.175-1.526
		c-0.078-0.596-0.178-1.313-0.285-2.142c-0.094-0.793-0.156-1.673-0.186-2.64c-0.008-0.943,0.047-2.065,0.144-3.101
		c0.085-0.595,0.176-1.205,0.266-1.832c0.114-0.578,0.228-1.169,0.344-1.773c0.544-2.47,1.365-5.1,2.332-7.701
		c1.93-5.208,4.375-10.297,6.181-14.112c1.824-3.814,3.042-6.357,3.042-6.357s-1.515,2.377-3.785,5.946
		c-2.253,3.579-5.3,8.333-7.924,13.425c-1.306,2.546-2.503,5.178-3.415,7.783c-0.228,0.652-0.429,1.332-0.638,1.982
		c-0.163,0.618-0.333,1.224-0.488,1.811c-0.321,1.346-0.528,2.501-0.681,3.661c-0.126,1.143-0.194,2.195-0.216,3.113
		c-0.006,0.884-0.008,1.656-0.014,2.292c-0.004,0.542-0.007,0.978-0.026,1.327c-0.012,0.329-0.019,0.506-0.019,0.506L71.424,110.43z
		"/>
	<path fill="#63862D" d="M61.662,112.814c0,0,0.176,0.75,0.479,2.059c0.318,1.325,0.705,3.138,1.174,5.372
		c0.938,4.477,1.971,10.535,3.347,16.595c0.335,1.513,0.725,3.024,1.113,4.5c0.43,1.474,0.815,2.927,1.319,4.305
		c0.447,1.391,0.988,2.699,1.495,3.938c0.547,1.219,1.072,2.37,1.64,3.387c0.583,1.012,1.071,1.959,1.634,2.722
		c0.539,0.775,0.962,1.479,1.413,1.984c0.85,1.047,1.334,1.642,1.334,1.642s-0.414-0.646-1.137-1.78
		c-0.386-0.545-0.725-1.291-1.162-2.104c-0.465-0.809-0.836-1.795-1.291-2.833c-0.438-1.052-0.817-2.23-1.215-3.465
		c-0.351-1.255-0.726-2.572-1.005-3.966c-0.333-1.376-0.546-2.838-0.799-4.303c-0.214-1.48-0.424-2.981-0.582-4.494
		c-0.659-6.042-1-12.18-1.434-16.809c-0.213-2.314-0.404-4.294-0.563-5.608c-0.156-1.333-0.242-2.099-0.242-2.099L61.662,112.814z"
		/>
	<path fill="#63862D" d="M67.35,111.929c0,0-0.223-2.395-0.558-5.984c-0.036-0.438-0.101-0.917-0.115-1.377
		c-0.011-0.452-0.02-0.919-0.024-1.4c-0.011-0.48-0.02-0.977-0.032-1.487c0.054-0.504,0.111-1.024,0.168-1.544
		c0.058-0.531,0.114-1.07,0.175-1.611l0.047-0.414c-0.009-0.043,0.047-0.26,0.07-0.383l0.184-0.868
		c0.217-1.196,0.522-2.291,0.813-3.42c0.292-1.127,0.677-2.264,1.012-3.386c0.396-1.097,0.759-2.197,1.161-3.24
		c0.423-1.034,0.808-2.052,1.225-2.991c0.431-0.938,0.837-1.821,1.21-2.639c0.418-0.802,0.797-1.534,1.134-2.183
		c0.326-0.663,0.688-1.188,0.944-1.648c0.542-0.909,0.85-1.429,0.85-1.429s-0.38,0.47-1.048,1.29
		c-0.32,0.421-0.767,0.895-1.181,1.504c-0.433,0.603-0.919,1.282-1.451,2.023c-0.501,0.769-1.037,1.598-1.605,2.476
		c-0.562,0.882-1.094,1.856-1.68,2.842c-0.559,0.998-1.098,2.058-1.668,3.125c-0.503,1.099-1.063,2.184-1.546,3.336
		c-0.486,1.153-0.994,2.33-1.37,3.436l-0.301,0.834c-0.058,0.163-0.09,0.228-0.162,0.468l-0.117,0.445
		c-0.157,0.599-0.312,1.191-0.461,1.772c-0.15,0.584-0.299,1.161-0.443,1.726c-0.071,0.579-0.147,1.143-0.218,1.692
		c-0.068,0.556-0.139,1.092-0.202,1.611c-0.056,0.52-0.062,0.982-0.091,1.446c-0.188,3.643-0.314,6.068-0.314,6.068L67.35,111.929z"
		/>
	<path fill="#63862D" d="M99.43,103.352c0,0,1.312,2.824,3.276,7.066c0.493,1.059,1.022,2.21,1.59,3.428
		c0.542,1.214,1.201,2.501,1.863,3.827c0.675,1.327,1.313,2.707,2.15,4.052c0.835,1.342,1.534,2.77,2.491,4.058
		c0.94,1.288,1.88,2.576,2.808,3.842c1.052,1.155,2.09,2.292,3.09,3.389c0.949,1.143,2.104,2.011,3.086,2.932
		c1.008,0.895,1.961,1.741,2.838,2.522c3.744,2.809,6.24,4.679,6.24,4.679s-2.261-2.13-5.652-5.325
		c-0.774-0.861-1.613-1.798-2.499-2.788c-0.857-1.005-1.882-1.97-2.673-3.176c-0.84-1.161-1.707-2.355-2.59-3.573
		c-0.74-1.299-1.492-2.617-2.245-3.934c-0.762-1.307-1.279-2.764-1.92-4.104c-0.641-1.337-1.115-2.759-1.614-4.102
		c-0.496-1.347-0.982-2.634-1.39-3.917c-0.424-1.266-0.821-2.459-1.188-3.567c-1.477-4.43-2.463-7.383-2.463-7.383L99.43,103.352z"
		/>
	<path fill="#63862D" d="M103.145,102.524c0,0-0.065-0.518-0.182-1.427c0.001-0.368,0.053-0.71,0.047-1.182
		c0.066-0.521,0.188-1.185,0.314-1.882c0.206-0.709,0.354-1.483,0.643-2.313c0.266-0.823,0.552-1.695,0.897-2.597
		c0.657-1.808,1.46-3.736,2.243-5.678c0.784-1.946,1.584-3.889,2.229-5.765c0.673-1.861,1.175-3.656,1.496-5.211
		c0.106-0.796,0.278-1.5,0.286-2.152c0.004-0.65,0.072-1.208,0.014-1.665c-0.127-0.91-0.206-1.428-0.206-1.428
		s0.012,0.518,0.025,1.428c0.001,0.452-0.135,0.997-0.215,1.618c-0.087,0.614-0.348,1.293-0.539,2.034
		c-0.503,1.464-1.2,3.127-2.083,4.859c-0.854,1.738-1.884,3.548-2.897,5.373c-1.021,1.826-2.062,3.645-2.975,5.423
		c-0.471,0.879-0.891,1.758-1.283,2.604c-0.412,0.83-0.705,1.696-1.025,2.459c-0.269,0.816-0.499,1.549-0.682,2.272
		c-0.135,0.795-0.255,1.551-0.297,2.091c0.002,0.916,0.002,1.438,0.002,1.438L103.145,102.524z"/>
	<path fill="#63862D" d="M82.833,108.426c0,0,0.116,0.75,0.317,2.063c0.05,0.328,0.105,0.692,0.161,1.09
		c0.109,0.435,0.226,0.91,0.345,1.417c0.24,1.014,0.515,2.151,0.956,3.277c0.208,0.572,0.409,1.174,0.647,1.786
		c0.272,0.592,0.552,1.208,0.841,1.836c0.274,0.635,0.596,1.269,0.967,1.887c0.357,0.628,0.705,1.277,1.092,1.914
		c0.828,1.239,1.644,2.534,2.612,3.736c0.911,1.253,1.964,2.402,2.969,3.583c1.067,1.125,2.106,2.269,3.205,3.309
		c1.065,1.072,2.177,2.063,3.222,3.035c2.139,1.912,4.161,3.638,5.91,5.102c3.478,2.941,5.791,4.901,5.791,4.901
		s-2.075-2.213-5.194-5.535c-1.563-1.653-3.367-3.596-5.245-5.709c-0.917-1.08-1.887-2.168-2.802-3.328
		c-0.947-1.13-1.813-2.344-2.71-3.531c-0.824-1.232-1.691-2.434-2.398-3.691c-0.777-1.22-1.375-2.501-2.004-3.705
		c-0.279-0.621-0.523-1.235-0.777-1.832c-0.268-0.592-0.487-1.182-0.66-1.771c-0.191-0.582-0.375-1.144-0.552-1.692
		c-0.131-0.555-0.255-1.092-0.376-1.607c-0.276-1.039-0.376-1.954-0.472-2.756c-0.058-0.398-0.107-0.774-0.154-1.122
		c-0.015-0.399-0.031-0.765-0.041-1.097c-0.048-1.329-0.075-2.085-0.075-2.085L82.833,108.426z"/>
	<path fill="#63862D" d="M79.224,109.9c0,0,0.003-0.164,0.017-0.47c0.005-0.147,0.01-0.333,0.016-0.548
		c0.014-0.182,0.025-0.395,0.044-0.631c0.035-0.47,0.105-1.149,0.207-1.894c0.098-0.755,0.234-1.612,0.392-2.553
		c0.65-3.75,1.729-8.841,3.171-13.743c0.751-2.396,1.687-4.906,2.487-7.179c0.822-2.298,1.613-4.429,2.327-6.243
		c0.712-1.813,1.353-3.305,1.857-4.32c0.256-0.504,0.475-0.893,0.653-1.136c0.178-0.249,0.317-0.34,0.317-0.34
		s-0.149,0.074-0.363,0.299c-0.213,0.225-0.487,0.583-0.807,1.06c-0.641,0.954-1.47,2.364-2.416,4.079
		C86.179,78,85.114,80.025,84,82.205c-1.119,2.205-2.287,4.455-3.447,6.893c-2.196,4.849-3.981,9.772-5.21,13.591
		c-0.301,0.957-0.569,1.839-0.791,2.637c-0.228,0.812-0.4,1.487-0.542,2.141c-0.145,0.67-0.238,1.165-0.28,1.441
		c-0.048,0.3-0.075,0.458-0.075,0.458L79.224,109.9z"/>
	<path fill="#63862D" d="M90.259,106.318c0,0,0.334,0.646,0.919,1.776c0.593,1.147,1.349,2.669,2.294,4.65
		c0.937,1.975,2.035,4.273,3.209,6.736c1.202,2.474,2.549,5.101,4.006,7.674c0.771,1.27,1.499,2.55,2.332,3.754
		c0.779,1.23,1.664,2.37,2.495,3.48c0.896,1.064,1.717,2.129,2.626,3.019c0.443,0.453,0.879,0.892,1.298,1.316
		c0.426,0.419,0.883,0.772,1.295,1.142c0.423,0.356,0.812,0.713,1.208,1.02c0.41,0.291,0.798,0.566,1.163,0.828
		c0.715,0.535,1.359,0.961,1.928,1.261c1.104,0.639,1.736,1,1.736,1s-0.582-0.438-1.6-1.198c-0.521-0.359-1.104-0.859-1.743-1.466
		c-0.323-0.295-0.667-0.611-1.03-0.943c-0.35-0.345-0.688-0.738-1.054-1.131c-0.358-0.403-0.754-0.796-1.118-1.248
		c-0.353-0.459-0.718-0.934-1.095-1.42c-0.764-0.954-1.431-2.078-2.164-3.192c-0.664-1.162-1.373-2.341-1.978-3.609
		c-0.657-1.239-1.209-2.568-1.796-3.862c-1.102-2.64-2.097-5.331-2.974-7.887c-0.869-2.579-1.677-4.983-2.373-7.052
		c-0.685-2.055-1.336-3.875-1.772-5.053c-0.447-1.187-0.7-1.871-0.7-1.871L90.259,106.318z"/>
	<path fill="#63862D" d="M96.026,106.197c0,0,0.051-0.566,0.141-1.559c0.099-0.953,0.249-2.298,0.476-3.965
		c0.466-3.319,1.246-7.745,2.301-12.114c0.284-1.084,0.535-2.187,0.854-3.239c0.291-1.067,0.609-2.112,0.938-3.108
		c0.642-2.008,1.365-3.84,2.053-5.377c0.378-0.751,0.679-1.475,1.038-2.059c0.348-0.584,0.625-1.124,0.915-1.526
		c0.576-0.805,0.911-1.264,0.911-1.264s-0.403,0.406-1.103,1.116c-0.354,0.359-0.707,0.855-1.157,1.389
		c-0.454,0.541-0.864,1.214-1.369,1.918c-0.938,1.449-1.959,3.192-2.925,5.125c-0.492,0.96-0.978,1.969-1.44,3.001
		c-0.488,1.024-0.911,2.097-1.375,3.152c-1.756,4.263-3.247,8.635-4.251,11.965c-0.494,1.657-0.887,3.097-1.144,4.096
		c-0.245,0.966-0.379,1.517-0.379,1.517L96.026,106.197z"/>
	<path fill="#63862D" d="M87.333,107.389c0,0,0.148,0.562,0.594,1.448c0.229,0.444,0.546,0.963,0.828,1.544
		c0.296,0.592,0.66,1.235,1.001,2c0.721,1.498,1.465,3.303,2.247,5.272c0.779,1.97,1.6,4.109,2.564,6.209
		c0.476,1.051,1.023,2.075,1.574,3.073c0.6,0.973,1.169,1.941,1.838,2.798c0.614,0.894,1.321,1.67,1.968,2.417
		c0.663,0.731,1.361,1.357,1.966,1.965c0.654,0.552,1.251,1.063,1.784,1.51c0.524,0.454,1.039,0.779,1.432,1.08
		c0.806,0.589,1.261,0.921,1.261,0.921s-0.419-0.379-1.157-1.043c-0.358-0.342-0.838-0.712-1.308-1.213
		c-0.478-0.497-1.015-1.054-1.602-1.663c-0.533-0.658-1.144-1.331-1.717-2.106c-0.552-0.786-1.174-1.585-1.687-2.496
		c-0.571-0.87-1.036-1.848-1.527-2.82c-0.446-1-0.882-2.019-1.252-3.07c-0.76-2.098-1.381-4.259-1.988-6.301
		c-0.618-2.047-1.222-3.972-1.842-5.604c-0.28-0.819-0.624-1.575-0.89-2.238c-0.273-0.684-0.523-1.231-0.759-1.663
		c-0.478-0.869-0.854-1.314-0.854-1.314L87.333,107.389z"/>
	<path fill="#63862D" d="M107.042,101.307c0,0,0.335,0.623,0.913,1.715c0.3,0.55,0.646,1.209,0.983,1.937
		c0.354,0.737,0.768,1.546,1.182,2.51c0.859,1.887,1.796,4.158,2.83,6.609c0.534,1.229,1.051,2.505,1.663,3.794
		c0.574,1.291,1.249,2.587,1.917,3.874c0.741,1.266,1.459,2.534,2.328,3.693c0.401,0.598,0.835,1.165,1.31,1.697
		c0.479,0.527,0.882,1.094,1.396,1.557c0.5,0.47,0.985,0.936,1.465,1.389c0.486,0.44,1.032,0.795,1.521,1.18
		c0.96,0.795,2.033,1.308,2.95,1.866c0.923,0.554,1.868,0.868,2.649,1.242c0.777,0.38,1.521,0.562,2.106,0.762
		c1.18,0.374,1.852,0.588,1.852,0.588s-0.64-0.294-1.759-0.811c-0.555-0.271-1.258-0.534-1.976-1.003
		c-0.716-0.465-1.591-0.872-2.415-1.521c-0.814-0.647-1.768-1.254-2.577-2.122c-0.416-0.418-0.881-0.808-1.28-1.279
		c-0.394-0.473-0.796-0.959-1.197-1.453c-0.423-0.479-0.732-1.066-1.107-1.598c-0.377-0.532-0.71-1.108-1.008-1.707
		c-0.666-1.157-1.186-2.43-1.726-3.68c-0.479-1.288-0.959-2.566-1.352-3.876c-0.428-1.287-0.777-2.606-1.15-3.86
		c-0.715-2.54-1.372-4.937-2.019-7.005c-0.299-1.023-0.649-2.002-0.935-2.856c-0.286-0.878-0.556-1.588-0.776-2.152
		c-0.447-1.155-0.698-1.816-0.698-1.816L107.042,101.307z"/>
	<path fill="#63862D" d="M125.43,93.684c0,0,0.067-0.411,0.188-1.133c0.052-0.365,0.135-0.794,0.192-1.309
		c0.044-0.528,0.094-1.128,0.146-1.782c0.065-0.664,0.058-1.324,0.092-2.05c0.026-0.711,0.053-1.462,0.082-2.24
		c0.036-1.546,0.222-3.165,0.451-4.803c0.475-3.26,1.223-6.5,2.042-8.851c0.387-1.187,0.8-2.147,1.087-2.816
		c0.316-0.66,0.498-1.038,0.498-1.038s-0.236,0.35-0.646,0.953c-0.387,0.631-0.942,1.527-1.507,2.665
		c-1.136,2.266-2.352,5.451-3.164,8.751c-0.421,1.642-0.759,3.332-1.005,4.904c-0.219,1.554-0.42,3.002-0.596,4.241
		c-0.078,0.596-0.152,1.14-0.218,1.622c-0.085,0.5-0.162,0.937-0.22,1.294c-0.118,0.725-0.183,1.138-0.183,1.138L125.43,93.684z"/>
	<path fill="#63862D" d="M144.681,78.834c0,0,0.009-0.315,0.023-0.87c0.018-0.551,0.021-1.354,0.092-2.264
		c0.093-1.823,0.35-4.372,0.563-6.893c0.203-2.53,0.416-5.066,0.396-6.982c-0.006-0.477,0.023-0.908-0.006-1.3
		c-0.028-0.386-0.051-0.725-0.072-1.003c-0.036-0.553-0.063-0.864-0.063-0.864s-0.021,0.313-0.059,0.865
		c-0.019,0.278-0.041,0.611-0.066,0.993c-0.019,0.381-0.11,0.813-0.174,1.277c-0.239,1.872-0.792,4.337-1.336,6.8
		c-0.565,2.473-1.155,4.908-1.528,6.844c-0.215,0.967-0.322,1.734-0.418,2.286c-0.09,0.545-0.138,0.858-0.138,0.858L144.681,78.834z
		"/>
	<path fill="#63862D" d="M114.888,97.302c0,0,0.336,0.609,0.926,1.677c0.598,1.071,1.457,2.599,2.539,4.406
		c2.163,3.612,5.214,8.366,8.863,12.681c1.821,2.158,3.809,4.193,5.852,5.89c2.057,1.684,4.182,3.029,6.167,3.799
		c0.981,0.41,1.928,0.664,2.771,0.82c0.844,0.155,1.586,0.232,2.199,0.215c0.606,0.021,1.084-0.038,1.405-0.079
		c0.321-0.034,0.495-0.053,0.495-0.053s-0.174-0.004-0.497-0.008s-0.798-0.003-1.388-0.099c-0.594-0.06-1.304-0.227-2.087-0.475
		c-0.784-0.255-1.647-0.608-2.523-1.112c-1.773-0.961-3.601-2.48-5.331-4.304c-1.724-1.842-3.354-3.999-4.818-6.268
		c-2.941-4.532-5.277-9.449-6.911-13.174c-0.815-1.867-1.455-3.445-1.896-4.545c-0.445-1.118-0.696-1.751-0.696-1.751
		L114.888,97.302z"/>
	<path fill="#63862D" d="M113.611,98.833c0,0,0.328-0.361,0.741-1.068c0.178-0.405,0.411-0.896,0.619-1.48
		c0.187-0.557,0.398-1.188,0.625-1.877c0.881-2.735,1.868-6.379,2.828-10.019c0.956-3.639,1.913-7.276,2.629-10.006
		c0.372-1.356,0.694-2.487,0.975-3.256c0.138-0.387,0.244-0.693,0.358-0.876c0.105-0.198,0.161-0.302,0.161-0.302
		s-0.067,0.1-0.195,0.28c-0.137,0.177-0.276,0.47-0.46,0.836c-0.366,0.745-0.813,1.836-1.342,3.142
		c-1.037,2.631-2.331,6.17-3.646,9.69s-2.657,7.025-3.763,9.579c-0.562,1.295-1.044,2.284-1.385,2.958
		c-0.406,0.717-0.632,1.124-0.632,1.124L113.611,98.833z"/>
	<path fill="#63862D" d="M111.563,99.104c0,0,0.371,0.644,1.019,1.784c0.311,0.564,0.757,1.265,1.235,2.059
		c0.462,0.779,0.99,1.66,1.564,2.62c0.584,0.943,1.125,1.985,1.714,3.087c0.603,1.082,1.182,2.354,1.848,3.596
		c1.331,2.543,2.868,5.158,4.638,7.647c1.784,2.477,3.801,4.805,6.009,6.641c2.191,1.862,4.546,3.172,6.604,4.08
		c2.066,0.913,3.797,1.577,4.911,2.25c0.561,0.327,0.975,0.628,1.252,0.844c0.269,0.223,0.412,0.342,0.412,0.342
		s-0.135-0.131-0.384-0.377c-0.255-0.239-0.647-0.579-1.186-0.954c-1.068-0.777-2.767-1.607-4.72-2.672
		c-1.95-1.07-4.093-2.519-6.02-4.463c-1.947-1.925-3.674-4.3-5.171-6.808c-1.483-2.518-2.761-5.183-3.815-7.699
		c-0.528-1.293-1.038-2.547-1.522-3.731c-0.505-1.222-0.977-2.384-1.479-3.395c-0.482-1.015-0.923-1.946-1.315-2.772
		c-0.387-0.807-0.733-1.48-0.997-2.087c-0.536-1.195-0.841-1.874-0.841-1.874L111.563,99.104z"/>
	<path fill="#63862D" d="M112.52,99.247c0,0-0.009-0.09-0.033-0.264c-0.007,0.069-0.021-0.268,0.008-0.616
		c0.047-0.739,0.199-1.902,0.473-3.275c0.137-0.686,0.301-1.428,0.505-2.2c0.103-0.384,0.214-0.773,0.336-1.164
		c0.138-0.412,0.277-0.829,0.42-1.254c0.299-0.855,0.592-1.782,0.877-2.742c0.274-0.949,0.545-1.901,0.779-2.864
		c0.985-3.846,1.543-7.716,2.511-10.426c0.236-0.687,0.501-1.286,0.771-1.807c0.265-0.522,0.546-0.952,0.791-1.299
		c0.229-0.358,0.479-0.586,0.617-0.769c0.149-0.175,0.227-0.271,0.227-0.271s-0.09,0.081-0.259,0.237
		c-0.162,0.163-0.447,0.36-0.723,0.688c-0.302,0.311-0.646,0.709-0.993,1.208c-0.345,0.492-0.712,1.08-1.048,1.744
		c-1.385,2.666-2.478,6.469-3.942,10.035c-0.353,0.894-0.743,1.781-1.125,2.633c-0.382,0.844-0.778,1.68-1.201,2.506
		c-0.206,0.42-0.41,0.834-0.607,1.239c-0.195,0.43-0.373,0.85-0.54,1.261c-0.335,0.819-0.612,1.598-0.856,2.325
		c-0.484,1.455-0.813,2.692-1.003,3.643c-0.092,0.494-0.153,0.83-0.168,1.354c0.004,0.286,0.005,0.438,0.005,0.438L112.52,99.247z"
		/>
	<path fill="#63862D" d="M135.601,85.087c0,0,0.352,0.313,0.97,0.858c0.31,0.274,0.686,0.606,1.119,0.987
		c0.408,0.388,0.975,0.793,1.547,1.246c0.589,0.437,1.192,0.97,1.891,1.419c0.689,0.459,1.417,0.949,2.169,1.447
		c0.783,0.452,1.588,0.92,2.409,1.398c0.854,0.413,1.7,0.877,2.578,1.262c0.888,0.369,1.754,0.783,2.65,1.078
		c0.884,0.336,1.764,0.628,2.623,0.864c0.854,0.275,1.708,0.437,2.498,0.644c0.805,0.149,1.56,0.321,2.268,0.409
		c1.405,0.222,2.591,0.297,3.416,0.347c0.413,0.018,0.738,0.033,0.957,0.043c0.219,0.018,0.338,0.037,0.338,0.037
		s-0.113-0.029-0.332-0.07c-0.218-0.029-0.543-0.073-0.954-0.13c-0.813-0.126-1.977-0.311-3.34-0.659
		c-0.688-0.149-1.414-0.391-2.187-0.605c-0.756-0.273-1.571-0.507-2.377-0.856c-0.816-0.31-1.644-0.669-2.466-1.073
		c-0.845-0.367-1.644-0.85-2.463-1.278c-0.811-0.45-1.58-0.972-2.357-1.443c-0.742-0.526-1.472-1.044-2.18-1.546
		c-0.668-0.547-1.319-1.072-1.936-1.572c-0.628-0.486-1.13-1.027-1.64-1.482c-0.497-0.472-0.958-0.863-1.347-1.306
		c-0.395-0.417-0.739-0.785-1.021-1.086c-0.567-0.601-0.892-0.946-0.892-0.946L135.601,85.087z"/>
	<path fill="#63862D" d="M131.426,89.067c0,0-0.004-0.097-0.019-0.281c-0.01-0.173-0.04-0.473-0.043-0.775
		c-0.025-0.579-0.022-1.511,0.059-2.615c0.124-2.224,0.639-5.245,1.343-8.262c0.715-3.011,1.578-6.026,2.146-8.33
		c0.291-1.143,0.489-2.123,0.577-2.82c0.034-0.348,0.058-0.624,0.029-0.813c-0.013-0.189-0.072-0.279-0.064-0.279
		c-0.007,0.002,0.026,0.098-0.001,0.278c-0.017,0.178-0.101,0.434-0.213,0.755c-0.242,0.639-0.662,1.52-1.151,2.587
		c-1.01,2.128-2.345,4.988-3.453,7.975c-0.554,1.491-1.08,3.008-1.484,4.466c-0.405,1.455-0.718,2.852-0.915,4.076
		c-0.185,1.228-0.269,2.257-0.289,3.045c-0.008,0.354-0.012,0.632-0.015,0.821c0,0.182,0,0.281,0,0.281L131.426,89.067z"/>
	<path fill="#63862D" d="M127.841,91.114c0,0,0.018-0.362,0.048-0.99c0.006-0.326,0.029-0.698,0.1-1.047
		c0.068-0.387,0.103-0.762,0.206-1.299c0.102-0.539,0.21-1.12,0.323-1.735c0.097-0.622,0.196-1.273,0.304-1.95
		c0.198-1.337,0.414-2.76,0.633-4.187c0.102-0.712,0.206-1.426,0.381-2.095c0.157-0.681,0.311-1.35,0.461-1.998
		c0.285-1.299,0.576-2.52,0.902-3.544c0.577-2.081,1.051-3.445,1.051-3.445s-0.673,1.276-1.562,3.249
		c-0.484,0.977-0.96,2.151-1.455,3.43c-0.253,0.636-0.512,1.296-0.776,1.967c-0.288,0.669-0.497,1.362-0.707,2.044
		c-0.43,1.379-0.858,2.754-1.258,4.043c-0.201,0.639-0.397,1.252-0.581,1.839c-0.202,0.574-0.392,1.119-0.568,1.625
		c-0.179,0.503-0.345,1.096-0.486,1.554c-0.162,0.503-0.243,0.882-0.298,1.184c-0.123,0.622-0.194,0.972-0.194,0.972L127.841,91.114
		z"/>
	<path fill="#63862D" d="M121.77,93.302c0,0,0.078,0.194,0.218,0.555c0.092,0.208,0.11,0.341,0.306,0.727
		c0.184,0.373,0.406,0.796,0.672,1.257c0.511,0.784,1.114,1.593,1.882,2.432c0.762,0.839,1.657,1.686,2.653,2.548
		c1.007,0.856,2.115,1.721,3.313,2.577c1.2,0.854,2.48,1.709,3.833,2.542c1.353,0.834,2.76,1.663,4.229,2.447
		c0.734,0.394,1.479,0.776,2.248,1.151l0.071,0.037l0.175,0.08l0.016,0.009l0.036,0.011l0.148,0.052l0.29,0.102l0.585,0.201
		l1.174,0.402l1.173,0.4l1.287,0.288c0.854,0.182,1.704,0.361,2.543,0.542c0.839,0.085,1.666,0.171,2.481,0.252
		c0.408,0.04,0.813,0.079,1.214,0.122c0.405-0.002,0.806-0.002,1.205-0.005c0.789,0.003,1.564,0.001,2.327,0.002
		c0.756-0.036,1.5-0.132,2.218-0.191c1.44-0.088,2.774-0.358,4.009-0.59c1.236-0.188,2.332-0.542,3.309-0.805
		c0.487-0.137,0.94-0.263,1.362-0.38c0.412-0.15,0.79-0.296,1.128-0.42c1.354-0.507,2.132-0.8,2.132-0.8s-0.801,0.209-2.2,0.571
		c-0.347,0.09-0.733,0.187-1.152,0.294c-0.43,0.07-0.891,0.149-1.386,0.23c-0.988,0.158-2.091,0.39-3.318,0.441
		c-1.225,0.101-2.545,0.227-3.944,0.161c-0.699-0.014-1.415,0.002-2.145-0.043c-0.725-0.074-1.463-0.155-2.219-0.233
		c-0.378-0.04-0.754-0.08-1.136-0.123c-0.372-0.075-0.755-0.154-1.13-0.235c-0.757-0.157-1.521-0.316-2.291-0.476
		c-0.73-0.238-1.461-0.476-2.197-0.718l-1.094-0.356l-1.126-0.521l-1.123-0.522l-0.559-0.263l-0.279-0.133l-0.141-0.064
		l-0.034-0.019l-0.02-0.004c0.31,0.14,0.078,0.031,0.14,0.062l-0.059-0.039c-0.676-0.425-1.341-0.862-1.999-1.306
		c-1.317-0.892-2.573-1.83-3.768-2.749c-1.196-0.928-2.314-1.858-3.337-2.765c-1.023-0.906-1.945-1.8-2.74-2.641
		c-0.791-0.847-1.467-1.642-1.982-2.353c-0.526-0.706-0.894-1.365-1.129-1.813c-0.062-0.184-0.131-0.332-0.2-0.462
		c-0.07-0.107-0.136-0.454-0.185-0.607c-0.1-0.374-0.155-0.572-0.155-0.572L121.77,93.302z"/>
	<path fill="#63862D" d="M125.948,90.75c0,0,0.091,0.171,0.267,0.49c0.092,0.16,0.199,0.361,0.333,0.594
		c0.17,0.271,0.373,0.583,0.596,0.93c0.465,0.67,1.019,1.378,1.74,2.147c0.705,0.77,1.563,1.554,2.532,2.346
		c1.957,1.554,4.393,3.071,7.127,4.356c1.36,0.65,2.79,1.253,4.267,1.79c0.753,0.289,1.439,0.509,2.285,0.787
		c0.766,0.195,1.453,0.437,2.318,0.578c1.659,0.361,3.262,0.429,4.859,0.423c1.59-0.019,3.127-0.223,4.593-0.438
		c2.929-0.493,5.569-1.161,7.855-1.651c2.277-0.501,4.193-0.828,5.541-1.012c1.354-0.166,2.131-0.237,2.131-0.237
		s-0.776,0-2.146,0.052c-1.363,0.067-3.315,0.229-5.642,0.536c-2.325,0.289-5.024,0.728-7.899,0.958
		c-1.436,0.089-2.914,0.151-4.393,0.039c-1.467-0.116-2.986-0.323-4.346-0.75c-0.672-0.15-1.437-0.487-2.155-0.74
		c-0.61-0.263-1.373-0.574-2.028-0.894c-1.363-0.624-2.67-1.308-3.892-2.018c-2.454-1.409-4.555-2.982-6.143-4.471
		c-0.782-0.753-1.451-1.476-1.977-2.152c-0.53-0.662-0.944-1.303-1.213-1.779c-0.133-0.236-0.25-0.439-0.348-0.625
		c-0.108-0.238-0.199-0.444-0.275-0.607c-0.147-0.336-0.227-0.515-0.227-0.515L125.948,90.75z"/>
	<path fill="#63862D" d="M119.143,95.642c0,0,0.103,0.154,0.292,0.441c0.209,0.29,0.452,0.699,0.866,1.252
		c0.788,1.119,1.957,2.593,3.474,4.271c1.515,1.668,3.376,3.493,5.286,5.451c0.95,0.985,1.926,2.01,2.833,3.1
		c0.918,1.066,1.759,2.267,2.667,3.445c0.949,1.184,1.975,2.326,3.096,3.297c1.1,1.002,2.313,1.845,3.535,2.553
		c1.224,0.71,2.502,1.221,3.736,1.605c1.247,0.346,2.45,0.564,3.575,0.615c1.119,0.069,2.148,0.005,3.044-0.121
		c0.901-0.11,1.662-0.301,2.289-0.469c0.631-0.149,1.096-0.366,1.424-0.467c0.326-0.117,0.5-0.176,0.5-0.176
		s-0.177,0.052-0.508,0.148c-0.335,0.078-0.813,0.266-1.446,0.374c-0.628,0.13-1.395,0.275-2.287,0.331
		c-0.888,0.067-1.897,0.064-2.976-0.069c-1.083-0.114-2.236-0.396-3.407-0.801c-1.156-0.441-2.346-0.998-3.471-1.746
		c-1.123-0.75-2.221-1.611-3.203-2.633c-1.021-0.99-1.902-2.109-2.729-3.275c-0.822-1.214-1.604-2.476-2.51-3.664
		c-0.881-1.192-1.818-2.3-2.729-3.356c-1.833-2.107-3.551-4.001-4.917-5.691c-1.354-1.683-2.399-3.166-3.036-4.193
		c-0.329-0.497-0.588-0.974-0.762-1.258c-0.177-0.3-0.271-0.457-0.271-0.457L119.143,95.642z"/>
	<path fill="#63862D" d="M117.365,97.375c0,0,0.045-0.093,0.13-0.262c0.085-0.185,0.213-0.391,0.367-0.769
		c0.148-0.382,0.353-0.879,0.514-1.391c0.141-0.494,0.323-1.053,0.47-1.661c0.632-2.413,1.249-5.61,1.851-8.799
		c0.599-3.192,1.194-6.371,1.785-8.721c0.286-1.18,0.59-2.143,0.863-2.792c0.112-0.339,0.275-0.562,0.372-0.725
		c0.101-0.162,0.152-0.251,0.152-0.251s-0.063,0.082-0.177,0.235c-0.112,0.147-0.308,0.361-0.456,0.689
		c-0.351,0.624-0.758,1.562-1.173,2.712c-0.851,2.291-1.786,5.412-2.725,8.517c-0.942,3.102-1.896,6.2-2.742,8.42
		c-0.201,0.556-0.424,1.036-0.597,1.482c-0.182,0.37-0.339,0.696-0.469,0.965c-0.14,0.27-0.328,0.525-0.418,0.677
		c-0.105,0.16-0.16,0.244-0.16,0.244L117.365,97.375z"/>
	<path fill="#63862D" d="M130.033,89.245c0,0,0.386,0.473,1.063,1.295c0.084,0.102,0.175,0.21,0.267,0.323
		c0.131,0.133,0.266,0.264,0.407,0.407c0.29,0.279,0.606,0.579,0.941,0.9c0.678,0.695,1.439,1.148,2.269,1.763
		c0.83,0.598,1.797,1.065,2.783,1.63c1.031,0.441,2.077,1.008,3.225,1.373c0.566,0.2,1.139,0.401,1.72,0.608
		c0.591,0.167,1.189,0.334,1.787,0.505c1.199,0.348,2.442,0.562,3.666,0.823c1.244,0.181,2.465,0.406,3.694,0.496
		c1.216,0.145,2.419,0.192,3.578,0.236c1.159,0.048,2.282,0,3.34-0.011c1.06-0.093,2.06-0.11,2.974-0.248
		c0.919-0.128,1.754-0.206,2.486-0.382c0.731-0.166,1.374-0.249,1.884-0.421c1.026-0.303,1.608-0.471,1.608-0.471
		s-0.599,0.08-1.652,0.233c-0.518,0.096-1.172,0.088-1.9,0.145c-0.729,0.07-1.565,0.026-2.464,0.025
		c-0.897,0.003-1.876-0.123-2.897-0.179c-1.026-0.139-2.101-0.247-3.203-0.451c-1.102-0.203-2.235-0.415-3.365-0.72
		c-1.145-0.249-2.271-0.636-3.397-0.972c-1.109-0.405-2.228-0.765-3.272-1.249c-0.522-0.23-1.045-0.46-1.555-0.69
		c-0.491-0.26-0.98-0.511-1.456-0.767c-0.975-0.47-1.791-1.097-2.623-1.591c-0.745-0.595-1.506-1.098-2.08-1.667
		c-0.556-0.563-1.174-1.067-1.454-1.508c-0.175-0.214-0.337-0.416-0.49-0.601c-0.076-0.09-0.147-0.181-0.218-0.265
		c-0.076-0.122-0.15-0.243-0.218-0.355c-0.552-0.915-0.863-1.435-0.863-1.435L130.033,89.245z"/>
	<path fill="#63862D" d="M133.593,86.513c0,0-0.042-0.068-0.118-0.196c0.001,0.053-0.092-0.167-0.136-0.407
		c-0.051-0.262-0.083-0.647-0.085-1.133c-0.008-0.49,0.021-1.07-0.004-1.793c-0.003-0.59-0.013-1.319,0.021-2
		c0.015-0.691,0.077-1.458,0.127-2.239c0.129-1.562,0.324-3.233,0.551-4.903c0.462-3.339,1.085-6.668,1.65-9.138
		c0.293-1.232,0.549-2.262,0.772-2.965c0.214-0.71,0.373-1.104,0.373-1.104s-0.194,0.378-0.475,1.065
		c-0.291,0.686-0.646,1.688-1.052,2.895c-0.801,2.423-1.737,5.695-2.521,9.014c-0.385,1.66-0.74,3.333-1.02,4.919
		c-0.129,0.799-0.265,1.559-0.354,2.314c-0.105,0.772-0.154,1.416-0.218,2.094c-0.145,1.114-0.413,2.258-0.372,3.203
		c0.019,0.498,0.062,0.85,0.216,1.271c0.092,0.231,0.14,0.354,0.14,0.354L133.593,86.513z"/>
	<path fill="#63862D" d="M121.574,95.679c0,0,0.043-0.107,0.128-0.311c0.082-0.23,0.204-0.455,0.359-0.941
		c0.138-0.47,0.375-1.143,0.481-1.718c0.127-0.602,0.273-1.281,0.379-1.994c0.478-2.892,0.814-6.623,1.332-10.326
		c0.262-1.846,0.563-3.688,0.935-5.391c0.369-1.701,0.787-3.281,1.266-4.59c0.205-0.673,0.465-1.257,0.691-1.78
		c0.217-0.528,0.423-0.982,0.631-1.333c0.393-0.726,0.619-1.138,0.619-1.138s-0.28,0.381-0.773,1.044
		c-0.26,0.326-0.529,0.748-0.819,1.249c-0.305,0.494-0.646,1.051-0.954,1.696c-0.67,1.266-1.317,2.805-1.935,4.483
		c-0.623,1.676-1.188,3.496-1.71,5.324c-1.045,3.651-1.911,7.346-2.73,9.949c-0.189,0.661-0.403,1.227-0.589,1.724
		c-0.176,0.537-0.347,0.78-0.459,1.093c-0.123,0.287-0.346,0.616-0.439,0.792c-0.109,0.19-0.168,0.29-0.168,0.29L121.574,95.679z"/>
	<path fill="#63862D" d="M139.044,82.708c0,0,0.407,0.447,1.116,1.225c0.362,0.391,0.888,0.874,1.448,1.418
		c0.592,0.495,1.231,1.083,1.993,1.629c1.495,1.142,3.328,2.26,5.213,3.459l0.711,0.453l0.762,0.466
		c0.497,0.298,1.003,0.601,1.511,0.905c1.096,0.57,2.187,1.175,3.335,1.634c0.557,0.261,1.15,0.458,1.737,0.655
		c0.579,0.216,1.178,0.368,1.776,0.505c1.185,0.302,2.396,0.428,3.559,0.465c0.582,0.018,1.151-0.039,1.71-0.066
		c0.548-0.083,1.094-0.129,1.609-0.244c1.032-0.21,1.987-0.478,2.848-0.767c1.725-0.579,3.116-1.14,4.112-1.485
		c0.997-0.334,1.567-0.525,1.567-0.525s-0.585,0.145-1.607,0.401c-1.019,0.267-2.462,0.716-4.202,1.149
		c-0.872,0.225-1.819,0.41-2.827,0.531c-0.501,0.075-1.022,0.074-1.552,0.117c-0.528-0.022-1.066-0.008-1.61-0.068
		c-1.085-0.119-2.195-0.32-3.278-0.693c-0.551-0.171-1.092-0.356-1.623-0.604c-0.538-0.228-1.069-0.453-1.581-0.744
		c-1.054-0.518-2.021-1.159-2.987-1.764c-0.958-0.686-1.899-1.361-2.81-2.016c-1.848-1.334-3.545-2.525-4.85-3.662
		c-0.677-0.547-1.222-1.116-1.727-1.594c-0.461-0.512-0.86-0.913-1.192-1.313c-0.659-0.821-1.04-1.29-1.04-1.29L139.044,82.708z"/>
	<path fill="#63862D" d="M136.64,85.12c0,0-0.024-0.094-0.065-0.269c-0.042-0.164-0.126-0.445-0.169-0.703
		c-0.122-0.522-0.245-1.455-0.313-2.541c-0.073-1.1-0.094-2.401-0.061-3.815c0.021-0.709,0.043-1.446,0.064-2.19
		c0.027-0.734,0.066-1.542,0.037-2.319c-0.022-1.458,0.112-2.977,0.31-4.362c0.203-1.395,0.488-2.686,0.819-3.771
		c0.329-1.083,0.685-1.96,0.985-2.552c0.303-0.592,0.502-0.919,0.502-0.919s-0.238,0.301-0.605,0.858
		c-0.374,0.559-0.837,1.401-1.297,2.463c-0.463,1.06-0.907,2.339-1.282,3.739c-0.369,1.407-0.688,2.912-0.849,4.5
		c-0.055,0.741-0.174,1.455-0.288,2.212c-0.106,0.743-0.212,1.48-0.316,2.191c-0.194,1.433-0.329,2.792-0.391,3.979
		c-0.053,1.198-0.044,2.172,0.04,2.963c0.03,0.405,0.075,0.633,0.098,0.818c0.024,0.179,0.04,0.272,0.04,0.272L136.64,85.12z"/>
	<path fill="#63862D" d="M139.188,82.42c0,0-0.034-0.084-0.098-0.237c-0.066-0.153-0.184-0.409-0.215-0.603
		c-0.059-0.223-0.148-0.471-0.224-0.904c-0.088-0.397-0.173-0.854-0.235-1.37c-0.156-1.019-0.245-2.24-0.277-3.545
		c-0.022-0.652,0.022-1.322,0.028-2.01c0.075-0.677,0.112-1.375,0.217-2.066c0.858-5.688,1.72-11.384,1.72-11.384
		s-1.543,5.547-3.089,11.09c-0.201,0.711-0.332,1.444-0.497,2.161c-0.097,0.722-0.23,1.434-0.29,2.125
		c-0.136,1.388-0.198,2.685-0.166,3.812c0.003,0.559,0.034,1.084,0.077,1.549c0.018,0.438,0.1,0.937,0.176,1.33
		c0.066,0.424,0.141,0.632,0.185,0.797c0.048,0.159,0.073,0.25,0.073,0.25L139.188,82.42z"/>
	<path fill="#63862D" d="M141.136,80.841c0,0,0.471,0.411,1.293,1.121c0.362,0.344,1.056,0.822,1.714,1.33
		c0.691,0.546,1.458,0.992,2.298,1.532c0.821,0.553,1.778,1.009,2.75,1.568c1.004,0.494,2.055,1.018,3.167,1.493
		c2.22,0.961,4.646,1.817,7.113,2.482c1.241,0.311,2.48,0.619,3.72,0.831c1.24,0.212,2.459,0.4,3.657,0.476
		c1.185,0.146,2.35,0.086,3.438,0.108c1.093-0.073,2.127-0.131,3.062-0.295c0.933-0.218,1.799-0.297,2.519-0.605
		c0.718-0.279,1.377-0.411,1.848-0.711c0.959-0.519,1.51-0.814,1.51-0.814s-0.579,0.214-1.599,0.59
		c-0.487,0.227-1.162,0.265-1.881,0.433c-0.718,0.198-1.58,0.155-2.479,0.236c-0.908,0.03-1.899-0.057-2.933-0.132
		c-1.033-0.17-2.121-0.263-3.224-0.561c-1.106-0.231-2.231-0.568-3.363-0.933c-1.133-0.364-2.26-0.815-3.371-1.266
		c-2.216-0.954-4.352-2.068-6.265-3.237c-0.954-0.582-1.845-1.197-2.683-1.768c-0.803-0.625-1.604-1.157-2.252-1.742
		c-0.654-0.571-1.303-1.084-1.733-1.551c-0.474-0.495-0.851-0.791-1.225-1.249c-0.713-0.821-1.121-1.289-1.121-1.289L141.136,80.841
		z"/>
	<path fill="#63862D" d="M149.173,72.99c0,0,0.472,0.351,1.299,0.961c0.209,0.156,0.443,0.328,0.696,0.514
		c0.296,0.184,0.616,0.391,0.963,0.611c0.683,0.432,1.458,0.931,2.291,1.337c0.83,0.442,1.737,0.904,2.727,1.309
		c0.965,0.445,2.019,0.825,3.106,1.205c1.077,0.411,2.237,0.685,3.38,1.035c1.179,0.247,2.347,0.586,3.556,0.754l1.788,0.292
		c0.604,0.062,1.197,0.126,1.791,0.185c1.182,0.132,2.361,0.137,3.489,0.166c1.134-0.04,2.223-0.042,3.252-0.198
		c1.032-0.079,1.995-0.303,2.873-0.492c0.878-0.2,1.655-0.514,2.341-0.739c0.657-0.332,1.232-0.592,1.682-0.848
		c0.836-0.614,1.314-0.959,1.314-0.959s-0.518,0.27-1.427,0.742c-0.472,0.187-1.071,0.355-1.73,0.574
		c-0.699,0.113-1.468,0.305-2.327,0.368c-0.861,0.052-1.786,0.13-2.778,0.055c-0.98,0.003-2.018-0.152-3.079-0.273
		c-1.059-0.185-2.155-0.352-3.24-0.643c-0.545-0.138-1.096-0.28-1.644-0.421L167.868,78c-1.087-0.318-2.128-0.802-3.173-1.188
		c-1.004-0.483-2.023-0.881-2.939-1.404c-0.932-0.492-1.826-0.976-2.622-1.5c-0.829-0.488-1.551-1.014-2.213-1.5
		c-0.695-0.475-1.211-0.946-1.684-1.35c-0.235-0.202-0.455-0.389-0.662-0.563c-0.217-0.215-0.416-0.412-0.597-0.59
		c-0.726-0.731-1.143-1.147-1.143-1.147L149.173,72.99z"/>
	<path fill="#63862D" d="M156.396,63.432c0,0,0.433,0.247,1.187,0.672c0.189,0.105,0.396,0.225,0.624,0.353
		c0.269,0.125,0.558,0.262,0.866,0.406c0.618,0.289,1.313,0.626,2.064,0.861c0.377,0.133,0.771,0.27,1.171,0.411
		c0.414,0.113,0.839,0.225,1.278,0.341c0.868,0.259,1.809,0.385,2.764,0.572c0.965,0.111,1.957,0.273,2.963,0.308
		c1.004,0.078,2.022,0.089,3.032,0.096c4.047-0.033,7.986-0.505,10.939-0.783c2.951-0.297,4.931-0.392,4.931-0.392
		s-1.975-0.166-4.949-0.262c-2.971-0.114-6.944-0.174-10.795-0.66c-0.96-0.136-1.916-0.267-2.836-0.467
		c-0.934-0.159-1.815-0.426-2.674-0.64c-0.836-0.286-1.657-0.506-2.385-0.837c-0.368-0.153-0.725-0.299-1.069-0.443
		c-0.333-0.169-0.652-0.334-0.958-0.491c-0.637-0.294-1.121-0.633-1.566-0.908c-0.223-0.14-0.433-0.272-0.624-0.389
		c-0.209-0.159-0.4-0.301-0.571-0.436c-0.692-0.521-1.09-0.817-1.09-0.817L156.396,63.432z"/>
	<path fill="#63862D" d="M159.978,62.707c0,0-0.116-0.481-0.322-1.326c-0.051-0.206-0.106-0.441-0.169-0.694
		c-0.034-0.22-0.068-0.467-0.105-0.725c-0.078-0.518-0.194-1.101-0.213-1.796c-0.024-0.349-0.047-0.705-0.069-1.075
		c0.007-0.377,0.012-0.764,0.02-1.159c-0.018-0.8,0.108-1.645,0.18-2.523c0.145-0.875,0.249-1.79,0.475-2.709
		c0.186-0.922,0.443-1.851,0.697-2.786c1.089-3.728,2.615-7.394,3.694-10.166c1.093-2.767,1.725-4.646,1.725-4.646
		s-0.874,1.776-2.32,4.368c-1.429,2.6-3.429,6.028-5.068,9.726c-0.395,0.934-0.794,1.865-1.121,2.824
		c-0.366,0.933-0.616,1.907-0.896,2.837c-0.207,0.948-0.468,1.865-0.576,2.761c-0.067,0.448-0.129,0.885-0.193,1.308
		c-0.029,0.429-0.06,0.839-0.089,1.238c-0.082,0.786-0.049,1.561-0.03,2.241c0.01,0.338,0.02,0.66,0.028,0.953
		c0.027,0.262,0.054,0.497,0.074,0.714c0.093,0.861,0.144,1.354,0.144,1.354L159.978,62.707z"/>
	<path fill="#63862D" d="M144.912,77.346c0,0,0.399,0.331,1.099,0.907c0.725,0.583,1.793,1.415,3.074,2.329
		c0.641,0.465,1.359,0.938,2.105,1.45c0.775,0.475,1.559,1.018,2.43,1.502c0.854,0.511,1.762,0.996,2.706,1.455
		c0.454,0.251,0.971,0.428,1.459,0.645l0.769,0.317l0.744,0.232c0.994,0.299,1.959,0.65,3.011,0.848
		c1.017,0.248,2.024,0.448,3.001,0.569c0.972,0.167,1.918,0.24,2.811,0.313c0.896,0.097,1.745,0.092,2.521,0.137
		c1.557,0.038,2.855,0.068,3.764,0.092c0.905,0.06,1.421,0.098,1.421,0.098s-0.511-0.078-1.408-0.216
		c-0.905-0.1-2.194-0.242-3.742-0.407c-0.767-0.111-1.608-0.177-2.477-0.347c-0.873-0.15-1.796-0.296-2.725-0.54
		c-0.947-0.195-1.892-0.476-2.834-0.787c-0.947-0.258-1.907-0.695-2.868-1.083l-0.722-0.292l-0.639-0.33
		c-0.438-0.241-0.889-0.436-1.307-0.714c-0.853-0.509-1.673-1.039-2.453-1.598c-0.787-0.527-1.503-1.122-2.209-1.64
		c-0.681-0.556-1.329-1.069-1.908-1.566c-1.171-1.001-2.083-1.842-2.729-2.452c-0.649-0.639-1.019-1-1.019-1L144.912,77.346z"/>
	<path fill="#63862D" d="M159.838,58.049c0,0,0.473,0.079,1.296,0.208c0.829,0.123,2.079,0.3,3.514,0.429
		c0.723,0.085,1.513,0.129,2.344,0.188c0.828,0.071,1.714,0.068,2.621,0.113c0.915-0.007,1.854,0.011,2.815-0.047
		c0.963-0.04,1.939-0.122,2.922-0.28c1.031-0.139,1.889-0.404,2.826-0.596c0.918-0.215,1.831-0.541,2.701-0.792
		c0.851-0.33,1.681-0.615,2.431-0.969c0.754-0.352,1.461-0.687,2.087-1.046c1.264-0.688,2.278-1.308,3.007-1.711
		c0.747-0.373,1.17-0.589,1.17-0.589s-0.446,0.171-1.226,0.472c-0.768,0.331-1.85,0.849-3.159,1.4
		c-0.648,0.293-1.371,0.551-2.136,0.814c-0.762,0.276-1.597,0.468-2.438,0.708c-0.869,0.157-1.725,0.372-2.654,0.494
		c-0.912,0.098-1.916,0.28-2.783,0.314c-0.916,0.068-1.84,0.066-2.755,0.031c-0.914-0.022-1.82-0.12-2.69-0.187
		c-0.874-0.116-1.717-0.182-2.515-0.321c-0.792-0.121-1.55-0.227-2.239-0.366c-1.396-0.248-2.492-0.502-3.299-0.692
		c-0.813-0.2-1.273-0.312-1.273-0.312L159.838,58.049z"/>
	<path fill="#63862D" d="M146.755,74.753c0,0,0.095,0.124,0.271,0.355c0.116,0.178,0.609,0.733,1.045,1.118
		c0.918,0.83,2.293,1.754,3.987,2.67c1.697,0.912,3.711,1.832,5.901,2.705c1.11,0.438,2.203,0.871,3.428,1.283
		c1.125,0.387,2.474,0.715,3.7,0.905c2.503,0.422,5.017,0.554,7.359,0.59c2.345,0.035,4.527-0.032,6.392-0.098
		c1.869-0.065,3.422-0.124,4.51-0.131c1.087-0.005,1.706,0.071,1.706,0.071s-0.612-0.113-1.702-0.175
		c-1.09-0.062-2.648-0.095-4.515-0.143c-1.862-0.051-4.04-0.117-6.355-0.292c-2.314-0.179-4.776-0.46-7.156-1.013
		c-1.214-0.275-2.283-0.595-3.451-1.073c-1.069-0.439-2.176-1.003-3.202-1.506c-2.063-1.036-3.938-2.092-5.453-3.08
		c-1.515-0.988-2.659-1.927-3.296-2.618c-0.331-0.376-0.429-0.459-0.62-0.776c-0.156-0.245-0.239-0.376-0.239-0.376L146.755,74.753z
		"/>
	<path fill="#63862D" d="M141.809,80.651c0,0-0.037-0.077-0.102-0.229c-0.113-0.267-0.035-0.068-0.104-0.204
		c-0.1-0.329-0.145-1.054-0.071-2.008c0.068-0.947,0.255-2.119,0.479-3.397c0.111-0.654,0.229-1.329,0.349-2.013
		c0.102-0.695,0.203-1.396,0.308-2.102c0.368-2.809,0.53-5.62,0.467-7.732c-0.031-1.059-0.125-1.933-0.242-2.541
		c-0.124-0.605-0.265-0.926-0.265-0.926s0.081,0.341,0.101,0.946c0.013,0.604-0.046,1.463-0.19,2.489
		c-0.294,2.043-0.929,4.74-1.749,7.354c-0.2,0.624-0.416,1.333-0.652,1.923c-0.249,0.632-0.5,1.251-0.74,1.853
		c-0.493,1.224-0.948,2.397-1.266,3.493c-0.323,1.088-0.52,2.106-0.511,2.99c-0.002,0.462,0.141,1.141,0.151,1.174
		c0.033,0.162,0.054,0.249,0.054,0.249L141.809,80.651z"/>
	<path fill="#63862D" d="M95.513,103.528c0,0,0.096,0.638,0.271,1.751c0.055,0.524,0.302,1.346,0.499,2.182
		c0.191,0.886,0.563,1.706,0.885,2.691c0.365,0.943,0.808,1.947,1.3,2.98c0.518,1.021,1.048,2.101,1.682,3.16
		c1.214,2.151,2.655,4.325,4.148,6.446c2.987,4.241,6.192,8.257,8.528,11.321c2.348,3.055,3.835,5.153,3.835,5.153
		s-1.221-2.27-3.18-5.603c-1.92-3.356-4.711-7.689-7.156-12.148c-1.23-2.226-2.383-4.482-3.305-6.63
		c-0.489-1.065-0.865-2.121-1.24-3.108c-0.338-0.992-0.632-1.936-0.866-2.804c-0.175-0.86-0.441-1.699-0.487-2.334
		c-0.077-0.691-0.202-1.153-0.219-1.753c-0.029-0.562-0.192-0.99-0.287-1.285c-0.131-0.289-0.235-0.44-0.235-0.44L95.513,103.528z"
		/>
	<path fill="#63862D" d="M99.013,104.321c0,0-0.023-0.152-0.07-0.434c0.006-0.045-0.012-0.038-0.011-0.157
		c0.002-0.137-0.003-0.291,0.028-0.509c0.08-0.829,0.512-2.286,1.063-4.083c0.275-0.901,0.569-1.896,0.853-2.959
		c0.289-1.054,0.523-2.237,0.799-3.331c0.557-2.232,1.254-4.611,1.99-6.978c1.489-4.738,3.157-9.429,4.482-12.917
		c0.668-1.744,1.251-3.189,1.683-4.183c0.223-0.498,0.404-0.888,0.541-1.142c0.072-0.126,0.133-0.218,0.187-0.272
		c0.073-0.058,0.061,0.06,0.065,0.039c-0.005,0.024,0.016-0.096-0.072-0.044c-0.063,0.045-0.129,0.136-0.211,0.257
		c-0.162,0.243-0.381,0.618-0.646,1.095c-0.526,0.957-1.238,2.346-2.057,4.028c-1.644,3.366-3.732,7.902-5.654,12.53
		c-0.958,2.313-1.878,4.645-2.652,6.888c-0.377,1.149-0.779,2.13-1.183,3.103c-0.41,0.961-0.821,1.86-1.217,2.705
		c-0.783,1.69-1.488,3.14-1.839,4.453c-0.091,0.316-0.153,0.643-0.201,0.924c-0.049,0.301-0.062,0.672-0.065,0.921
		c0.004,0.295,0.008,0.455,0.008,0.455L99.013,104.321z"/>
	<path fill="#63862D" d="M81.125,109.789c0,0,0.238-0.678,0.656-1.86c0.21-0.578,0.441-1.351,0.718-2.202
		c0.285-0.859,0.565-1.812,0.874-2.852c1.235-4.162,2.707-9.715,4.197-15.248c1.504-5.527,3.027-11.048,4.47-15.081
		c0.373-1.002,0.694-1.934,1.055-2.723c0.32-0.811,0.658-1.484,0.964-2.03c0.262-0.575,0.58-0.944,0.778-1.218
		c0.201-0.265,0.309-0.412,0.309-0.412s-0.119,0.132-0.344,0.385c-0.223,0.25-0.582,0.604-0.898,1.151
		c-0.358,0.522-0.76,1.172-1.157,1.957c-0.435,0.77-0.846,1.667-1.312,2.645c-1.824,3.921-3.853,9.307-5.861,14.686
		c-1.996,5.386-3.962,10.771-5.55,14.728c-0.393,0.987-0.755,1.902-1.091,2.673c-0.34,0.785-0.602,1.451-0.875,2.029
		c-0.526,1.14-0.82,1.792-0.82,1.792L81.125,109.789z"/>
	<path fill="#63862D" d="M161.056,55.513c0,0,0.366,0.125,1.007,0.339c0.276,0.107,0.808,0.251,1.38,0.4
		c0.59,0.174,1.195,0.274,1.842,0.364c1.301,0.203,2.802,0.25,4.361,0.169c0.78-0.046,1.577-0.115,2.371-0.233
		c0.797-0.092,1.588-0.268,2.377-0.416c3.145-0.681,6.104-1.726,8.266-2.608c2.168-0.875,3.563-1.541,3.563-1.541
		s-1.515,0.335-3.797,0.699c-2.273,0.37-5.33,0.709-8.312,0.662c-0.745-0.028-1.485-0.035-2.201-0.117
		c-0.72-0.056-1.415-0.156-2.075-0.271c-1.318-0.232-2.498-0.551-3.427-0.932c-0.479-0.182-0.891-0.356-1.177-0.533
		c-0.309-0.165-0.555-0.274-0.877-0.486c-0.575-0.353-0.902-0.56-0.902-0.56L161.056,55.513z"/>
	<path fill="#63862D" d="M165.401,45.055c0,0,0.302,0.103,0.827,0.284c0.229,0.083,0.646,0.213,1.136,0.35
		c0.238,0.062,0.49,0.134,0.759,0.208c0.248,0.042,0.507,0.087,0.78,0.137c1.081,0.203,2.333,0.275,3.631,0.271
		c1.299-0.02,2.646-0.165,3.954-0.361c2.618-0.43,5.098-1.112,6.94-1.641c1.838-0.531,3.063-0.885,3.063-0.885
		s-1.277,0.005-3.187,0.02c-1.908,0.012-4.446-0.014-6.888-0.292c-2.44-0.288-4.721-0.901-6.169-1.641
		c-0.181-0.088-0.355-0.173-0.521-0.253c-0.136-0.085-0.264-0.167-0.386-0.243c-0.227-0.142-0.432-0.259-0.689-0.447
		c-0.458-0.319-0.722-0.5-0.722-0.5L165.401,45.055z"/>
	<path fill="#63862D" d="M169.505,34.939c0,0,0.36,0.047,0.979,0.123c0.34,0.039,0.746,0.08,1.215,0.136
		c0.482,0.054,0.996,0.08,1.565,0.116c2.263,0.142,5.265,0.094,8.215-0.293c0.737-0.116,1.471-0.211,2.189-0.37
		c0.718-0.142,1.417-0.307,2.086-0.501c1.342-0.368,2.555-0.832,3.546-1.327c0.488-0.262,0.939-0.471,1.307-0.734
		c0.373-0.252,0.707-0.436,0.942-0.657c0.485-0.4,0.763-0.628,0.763-0.628s-0.321,0.157-0.887,0.425
		c-0.268,0.149-0.64,0.247-1.04,0.395c-0.396,0.158-0.876,0.251-1.378,0.377c-1.02,0.225-2.229,0.375-3.527,0.4
		c-0.647,0.024-1.315,0.018-1.996-0.017c-0.677-0.019-1.367-0.102-2.051-0.162c-2.741-0.316-5.423-0.942-7.36-1.558
		c-0.48-0.158-0.93-0.292-1.29-0.431c-0.379-0.14-0.71-0.262-0.978-0.362c-0.587-0.228-0.92-0.354-0.92-0.354L169.505,34.939z"/>
	<path fill="#63862D" d="M170.461,31.466c0,0,0.078,0.014,0.219,0.032c0.146,0.02,0.332,0.057,0.727,0.074
		c0.74,0.052,1.521-0.021,2.432-0.093c0.444-0.037,0.918-0.066,1.381-0.055c0.433,0.004,1.053,0.064,1.615,0.097
		c1.153,0.08,2.403,0.175,3.663,0.214c1.263,0.041,2.54,0.023,3.729-0.14c1.19-0.152,2.279-0.467,3.144-0.852
		c0.877-0.375,1.529-0.818,1.969-1.134c0.428-0.337,0.671-0.529,0.671-0.529s-0.267,0.155-0.734,0.425
		c-0.481,0.242-1.173,0.581-2.058,0.809c-0.877,0.241-1.924,0.38-3.048,0.361c-1.126-0.015-2.322-0.173-3.521-0.395
		c-1.196-0.214-2.395-0.482-3.532-0.735c-0.587-0.118-1.07-0.26-1.694-0.341c-0.597-0.091-1.132-0.115-1.612-0.141
		c-0.941-0.04-1.707-0.082-2.043-0.161c-0.146-0.014-0.376-0.076-0.517-0.114c-0.141-0.04-0.213-0.06-0.213-0.06L170.461,31.466z"/>
	<path fill="#63862D" d="M157.827,61.661c0,0,0.417,0.099,1.148,0.282c0.374,0.091,0.903,0.185,1.469,0.292
		c0.579,0.117,1.162,0.172,1.837,0.273c2.655,0.337,6.144,0.502,9.629,0.437c3.479-0.05,6.949-0.372,9.503-0.932
		c0.639-0.12,1.216-0.301,1.722-0.45c0.514-0.126,0.929-0.364,1.28-0.491c0.353-0.146,0.582-0.354,0.76-0.447
		c0.166-0.108,0.259-0.17,0.259-0.17s-0.099,0.045-0.285,0.129c-0.191,0.067-0.436,0.232-0.802,0.317
		c-0.363,0.072-0.782,0.236-1.302,0.283c-0.514,0.075-1.085,0.161-1.724,0.179c-2.537,0.161-5.938-0.051-9.295-0.516
		c-3.352-0.452-6.673-1.127-9.053-1.814c-0.58-0.181-1.159-0.329-1.584-0.491c-0.442-0.159-0.8-0.271-1.137-0.407
		c-0.693-0.291-1.09-0.458-1.09-0.458L157.827,61.661z"/>
	<path fill="#63862D" d="M171.878,25.958c0,0,0.236,0.052,0.656,0.141c0.207,0.049,0.555,0.052,0.899,0.072
		c0.355,0.019,0.689-0.039,1.086-0.061c0.756-0.098,1.615-0.269,2.501-0.44c0.444-0.08,0.9-0.161,1.36-0.205
		c0.456-0.054,0.918-0.069,1.423-0.06c0.965,0,1.923,0.068,2.848,0.125c0.918,0.052,1.781,0.082,2.521,0.034
		c0.369-0.006,0.704-0.064,1.003-0.108c0.299-0.029,0.552-0.085,0.757-0.152c0.416-0.111,0.652-0.174,0.652-0.174
		s-0.24,0.042-0.662,0.117c-0.209,0.042-0.464,0.08-0.761,0.082c-0.297,0.014-0.628,0.044-0.992,0.015
		c-0.727-0.013-1.569-0.123-2.474-0.253c-0.896-0.134-1.882-0.296-2.866-0.383c-0.473-0.052-0.987-0.082-1.493-0.071
		c-0.501,0.005-0.984,0.047-1.447,0.087c-0.928,0.095-1.758,0.178-2.462,0.209c-0.335-0.014-0.674,0.012-0.911-0.029
		c-0.246-0.046-0.425-0.031-0.631-0.097c-0.407-0.127-0.642-0.199-0.642-0.199L171.878,25.958z"/>
	<path fill="#63862D" d="M173.67,22.421c0,0-0.113-0.126-0.311-0.348c-0.134-0.127-0.118-0.205-0.208-0.327
		c-0.082-0.094-0.136-0.329-0.217-0.522c-0.133-0.441-0.23-1-0.354-1.649c-0.066-0.318-0.136-0.665-0.25-1.006
		c-0.109-0.355-0.261-0.696-0.408-0.982c-0.309-0.625-0.681-1.227-0.998-1.766c-0.318-0.548-0.614-1.06-0.786-1.528
		c-0.187-0.462-0.298-0.877-0.306-1.171c-0.023-0.295-0.036-0.464-0.036-0.464s-0.007,0.17-0.026,0.468
		c-0.028,0.297,0.03,0.734,0.158,1.235c0.118,0.508,0.354,1.068,0.602,1.662c0.255,0.594,0.527,1.193,0.74,1.824
		c0.122,0.339,0.209,0.63,0.258,0.927c0.061,0.305,0.081,0.614,0.103,0.929c0.039,0.613,0.063,1.238,0.156,1.792
		c0.076,0.289,0.086,0.522,0.218,0.794c0.105,0.243,0.22,0.524,0.304,0.613c0.166,0.244,0.263,0.384,0.263,0.384L173.67,22.421z"/>
	<path fill="#63862D" d="M171.505,29.929c0,0,0.248,0.021,0.68,0.061c0.218,0.021,0.479,0.042,0.782,0.071
		c0.278,0.039,0.686,0.042,1.119,0.041c0.429-0.001,0.89-0.005,1.38-0.007c0.468-0.033,0.938-0.095,1.431-0.144
		c0.492-0.046,0.995-0.113,1.494-0.224c0.503-0.099,1.014-0.186,1.515-0.304c0.993-0.273,1.981-0.51,2.876-0.847
		c0.905-0.291,1.72-0.639,2.411-0.934c0.699-0.27,1.245-0.595,1.64-0.776c0.387-0.195,0.608-0.306,0.608-0.306
		s-0.241,0.049-0.67,0.134c-0.429,0.076-1.02,0.24-1.759,0.318c-0.731,0.103-1.576,0.223-2.492,0.262
		c-0.906,0.09-1.881,0.057-2.839,0.063c-0.474-0.035-0.95-0.066-1.418-0.098c-0.467-0.02-0.918-0.081-1.35-0.16
		c-0.431-0.073-0.852-0.126-1.229-0.201c-0.354-0.096-0.689-0.184-0.995-0.266c-0.302-0.079-0.569-0.141-0.87-0.266
		c-0.282-0.103-0.532-0.198-0.734-0.271c-0.407-0.151-0.642-0.239-0.642-0.239L171.505,29.929z"/>
	<path fill="#63862D" d="M168.257,37.696c0,0,0.258,0.117,0.707,0.318c0.413,0.185,1.197,0.53,2.076,0.779
		c0.442,0.147,0.948,0.24,1.468,0.333c0.527,0.078,1.069,0.13,1.611,0.156c0.533,0.02,1.082,0.038,1.641,0.061
		c0.559,0.009,1.126,0.023,1.698,0.038c2.348-0.014,4.582-0.353,6.248-0.743c0.83-0.183,1.509-0.394,1.976-0.554
		c0.464-0.167,0.729-0.26,0.729-0.26s-0.274,0.054-0.759,0.149c-0.479,0.088-1.175,0.196-2.009,0.25
		c-1.659,0.139-3.924,0.127-6.061-0.183c-0.544-0.1-1.13-0.178-1.634-0.292c-0.54-0.108-1.068-0.214-1.585-0.318
		c-1.011-0.203-1.823-0.491-2.507-0.829c-0.695-0.338-1.164-0.642-1.607-0.933c-0.41-0.272-0.646-0.427-0.646-0.427L168.257,37.696z
		"/>
	<path fill="#63862D" d="M164.889,48.462c0,0-0.099-0.263-0.266-0.722c-0.182-0.479-0.381-1.079-0.546-1.864
		c-0.177-0.784-0.262-1.706-0.224-2.746c0.031-1.045,0.07-2.16,0.149-3.279c0.189-2.195,0.701-4.395,1.213-5.984
		c0.247-0.805,0.509-1.456,0.707-1.903c0.197-0.448,0.315-0.704,0.315-0.704s-0.135,0.248-0.368,0.677
		c-0.231,0.435-0.543,1.071-0.853,1.854c-0.636,1.572-1.312,3.728-1.686,5.993c-0.162,1.115-0.293,2.238-0.412,3.291
		c-0.127,1.058-0.12,2.113,0.001,2.99c0.107,0.87,0.301,1.626,0.428,2.08c0.131,0.474,0.207,0.743,0.207,0.743L164.889,48.462z"/>
	<path fill="#63862D" d="M171.206,34.361c0,0-0.17-0.224-0.471-0.614c-0.326-0.422-0.659-0.865-1.045-1.539
		c-0.385-0.657-0.727-1.446-1.001-2.438c-0.14-0.506-0.284-1.03-0.433-1.561c-0.147-0.494-0.267-1.072-0.405-1.61
		c-0.459-2.107-0.63-4.368-0.611-6.031c-0.001-0.835,0.055-1.537,0.11-2.024c0.06-0.486,0.094-0.766,0.094-0.766
		s-0.077,0.269-0.208,0.748c-0.125,0.478-0.288,1.167-0.414,2.007c-0.27,1.687-0.448,3.943-0.298,6.287
		c0.055,0.566,0.108,1.132,0.158,1.691c0.063,0.556,0.121,1.1,0.177,1.628c0.065,0.544,0.154,1.079,0.266,1.599
		c0.136,0.511,0.261,1.009,0.435,1.438c0.317,0.863,0.715,1.617,0.93,2.019c0.23,0.432,0.362,0.681,0.362,0.681L171.206,34.361z"/>
	<path fill="#63862D" d="M172.673,24.846c0,0,0.268,0.042,0.738,0.111c0.209,0.042,0.581,0.066,0.969,0.089
		c0.404,0.041,0.816,0.024,1.26,0.003c0.894-0.038,1.906-0.2,2.951-0.455c1.046-0.261,2.115-0.649,3.145-1.096
		c1.019-0.479,2.008-0.998,2.873-1.581c0.871-0.571,1.635-1.171,2.243-1.732c0.609-0.556,1.066-1.067,1.366-1.438
		c0.292-0.377,0.459-0.593,0.459-0.593s-0.2,0.187-0.547,0.509c-0.352,0.314-0.874,0.74-1.55,1.181
		c-0.669,0.44-1.489,0.894-2.396,1.301c-0.902,0.417-1.912,0.749-2.92,1.037c-1.017,0.256-2.04,0.449-3,0.526
		c-0.956,0.076-1.839,0.074-2.569-0.021c-0.369-0.039-0.701-0.084-0.95-0.156c-0.268-0.062-0.47-0.089-0.718-0.181
		c-0.451-0.143-0.713-0.228-0.713-0.228L172.673,24.846z"/>
	<path fill="#63862D" d="M172.646,22.093c0,0,0.303,0.022,0.831,0.06c0.243,0.024,0.691,0.031,1.118,0.042
		c0.445,0.006,0.9-0.03,1.416-0.07c1.02-0.1,2.189-0.346,3.363-0.772c1.174-0.431,2.34-1.042,3.378-1.79
		c1.039-0.752,1.958-1.622,2.706-2.51c0.762-0.82,1.499-1.542,2.192-2.097c0.688-0.555,1.331-0.93,1.827-1.076
		c0.245-0.083,0.45-0.105,0.588-0.106c0.14,0,0.215,0.001,0.215,0.001s-0.073-0.008-0.215-0.032
		c-0.138-0.016-0.354-0.018-0.612,0.032c-0.532,0.081-1.247,0.384-2.029,0.857c-0.785,0.468-1.635,1.122-2.514,1.826
		c-0.905,0.634-1.929,1.188-2.985,1.595c-1.058,0.406-2.152,0.648-3.16,0.74c-1.012,0.09-1.939,0.039-2.717-0.093
		c-0.379-0.071-0.748-0.142-1.027-0.22c-0.295-0.095-0.482-0.135-0.747-0.228c-0.499-0.172-0.786-0.268-0.786-0.268L172.646,22.093z
		"/>
	<path fill="#63862D" d="M173.568,18.714c0,0,0.269,0.003,0.729,0.018c0.236,0.001,0.496,0.023,0.883-0.014
		c0.366-0.043,0.796-0.029,1.221-0.135c0.868-0.141,1.847-0.476,2.793-0.964c0.934-0.518,1.823-1.17,2.648-1.86
		c0.4-0.36,0.797-0.724,1.191-1.075c0.383-0.361,0.775-0.679,1.117-1.056c0.69-0.74,1.376-1.375,1.876-2.004
		c0.512-0.615,0.966-1.099,1.208-1.509c0.261-0.381,0.408-0.599,0.408-0.599s-0.175,0.199-0.481,0.547
		c-0.279,0.364-0.796,0.79-1.367,1.332c-0.565,0.554-1.318,1.094-2.066,1.722c-0.364,0.316-0.81,0.595-1.229,0.901
		c-0.422,0.297-0.848,0.595-1.275,0.896c-0.881,0.563-1.776,1.059-2.632,1.404c-0.866,0.316-1.687,0.482-2.399,0.508
		c-0.357,0.047-0.664-0.018-0.943-0.011c-0.256,0.004-0.558-0.055-0.781-0.086c-0.459-0.069-0.722-0.107-0.722-0.107L173.568,18.714
		z"/>
	<path fill="#63862D" d="M174.379,19.175c0,0-0.104-0.11-0.287-0.308c-0.207-0.205-0.414-0.475-0.637-0.796
		c-0.463-0.685-0.938-1.769-1.111-2.948c-0.186-1.17-0.15-2.398-0.019-3.303c0.115-0.907,0.314-1.496,0.314-1.496
		s-0.28,0.553-0.528,1.45c-0.262,0.895-0.48,2.133-0.464,3.412c0.004,1.278,0.34,2.563,0.788,3.475
		c0.236,0.481,0.457,0.842,0.61,1.042c0.151,0.222,0.241,0.348,0.241,0.348L174.379,19.175z"/>
	<path fill="#63862D" d="M169.297,37.581c0,0-0.169-0.204-0.463-0.563c-0.143-0.177-0.349-0.402-0.479-0.626
		c-0.139-0.241-0.351-0.471-0.493-0.799c-0.349-0.623-0.633-1.412-0.809-2.317c-0.148-0.91-0.184-1.934-0.158-2.978
		c0.037-0.522,0.074-1.044,0.107-1.558c0.049-0.517,0.055-1.039,0.14-1.517c0.149-0.964,0.222-1.889,0.405-2.658
		c0.164-0.775,0.265-1.43,0.433-1.859c0.138-0.445,0.221-0.698,0.221-0.698s-0.11,0.244-0.305,0.664
		c-0.223,0.419-0.402,1.054-0.665,1.81c-0.281,0.754-0.472,1.669-0.748,2.643c-0.146,0.491-0.213,0.99-0.323,1.505
		c-0.103,0.519-0.207,1.043-0.309,1.574c-0.159,1.062-0.263,2.162-0.224,3.228c0.068,1.067,0.293,2.079,0.62,2.891
		c0.128,0.418,0.362,0.78,0.514,1.111c0.168,0.356,0.325,0.562,0.444,0.761c0.25,0.393,0.395,0.617,0.395,0.617L169.297,37.581z"/>
	<path fill="#63862D" d="M167.143,43.958c0,0-0.144-0.226-0.39-0.618c-0.12-0.194-0.295-0.443-0.394-0.684
		c-0.106-0.253-0.292-0.506-0.392-0.852c-0.266-0.667-0.448-1.481-0.507-2.401c-0.03-0.924,0.059-1.943,0.217-2.976
		c0.102-0.512,0.204-1.026,0.307-1.529c0.112-0.505,0.187-1.024,0.328-1.489c0.273-0.935,0.462-1.843,0.739-2.583
		c0.263-0.745,0.444-1.389,0.665-1.789c0.193-0.423,0.305-0.665,0.305-0.665s-0.14,0.222-0.385,0.617
		c-0.276,0.385-0.533,0.996-0.89,1.714c-0.373,0.708-0.675,1.596-1.075,2.525c-0.206,0.468-0.339,0.958-0.515,1.452
		c-0.165,0.5-0.335,1.01-0.503,1.523c-0.293,1.035-0.533,2.114-0.63,3.174c-0.063,1.064,0.028,2.098,0.25,2.944
		c0.075,0.432,0.262,0.82,0.371,1.169c0.121,0.369,0.247,0.597,0.346,0.813c0.196,0.419,0.312,0.66,0.312,0.66L167.143,43.958z"/>
	<path fill="#63862D" d="M174.442,14.549c0,0,0.199-0.081,0.556-0.222c0.183-0.083,0.376-0.133,0.65-0.281
		c0.272-0.145,0.577-0.313,0.911-0.495c0.61-0.395,1.257-0.907,1.873-1.529c0.283-0.33,0.6-0.648,0.859-1.017
		c0.269-0.367,0.538-0.728,0.761-1.124c0.949-1.542,1.518-3.23,1.842-4.503c0.32-1.275,0.371-2.146,0.371-2.146
		s-0.18,0.853-0.683,2.042c-0.502,1.188-1.303,2.724-2.387,4.001c-0.257,0.331-0.553,0.622-0.838,0.909
		c-0.277,0.292-0.605,0.523-0.886,0.773c-0.611,0.45-1.218,0.794-1.743,1.033c-0.256,0.093-0.49,0.178-0.697,0.255
		c-0.202,0.079-0.467,0.121-0.64,0.167c-0.368,0.087-0.579,0.137-0.579,0.137L174.442,14.549z"/>
	<path fill="#63862D" d="M171.456,30.29c0,0-0.138-0.169-0.377-0.463c-0.111-0.143-0.292-0.328-0.408-0.527
		c-0.125-0.198-0.265-0.425-0.417-0.67c-0.28-0.532-0.558-1.193-0.771-1.94c-0.069-0.38-0.188-0.771-0.231-1.18
		c-0.051-0.407-0.107-0.823-0.108-1.248c-0.077-1.694,0.228-3.405,0.557-4.651c0.327-1.254,0.708-2.04,0.708-2.04
		s-0.46,0.746-0.917,1.975c-0.458,1.224-0.947,2.924-1.048,4.706c-0.042,0.446-0.027,0.894-0.017,1.335
		c0.003,0.444,0.081,0.876,0.12,1.299c0.148,0.841,0.379,1.61,0.646,2.259c0.16,0.324,0.303,0.624,0.436,0.882
		c0.135,0.268,0.271,0.426,0.369,0.596c0.21,0.317,0.33,0.496,0.33,0.496L171.456,30.29z"/>
	<path fill="#63862D" d="M174.152,16.77c0,0,0.221-0.006,0.605-0.019c0.193-0.011,0.426-0.019,0.695-0.029
		c0.286-0.029,0.643-0.09,1.01-0.145c0.378-0.043,0.757-0.154,1.151-0.277c0.4-0.099,0.804-0.273,1.208-0.47
		c0.824-0.366,1.609-0.932,2.286-1.577c1.361-1.307,2.174-2.959,2.651-4.196c0.24-0.625,0.41-1.15,0.533-1.515
		c0.127-0.364,0.198-0.571,0.198-0.571s-0.102,0.193-0.283,0.534c-0.174,0.347-0.423,0.839-0.742,1.41
		c-0.644,1.136-1.668,2.576-3.033,3.534c-0.678,0.473-1.408,0.848-2.136,1.046c-0.359,0.111-0.707,0.207-1.055,0.236
		c-0.34,0.051-0.66,0.1-0.944,0.081c-0.291-0.001-0.536,0.02-0.783,0.004c-0.266-0.031-0.499-0.059-0.693-0.075
		c-0.384-0.042-0.603-0.066-0.603-0.066L174.152,16.77z"/>
	<path fill="#63862D" d="M174.891,12.385c0,0,0.607-0.618,1.515-1.541c0.436-0.505,0.976-1.079,1.481-1.721
		c0.509-0.615,1.037-1.337,1.523-2.057c0.474-0.738,0.915-1.509,1.193-2.292c0.286-0.781,0.376-1.583,0.276-2.234
		c-0.093-0.657-0.284-1.168-0.421-1.518c-0.145-0.352-0.225-0.549-0.225-0.549s0.063,0.203,0.175,0.568
		c0.105,0.358,0.244,0.881,0.275,1.515c0.038,0.631-0.11,1.363-0.446,2.071c-0.328,0.714-0.81,1.411-1.33,2.076
		c-0.542,0.661-1.091,1.283-1.661,1.867c-0.549,0.58-1.133,1.02-1.592,1.445c-1.018,0.795-1.699,1.324-1.699,1.324L174.891,12.385z"
		/>
	<path fill="#63862D" d="M168.168,41.289c0,0-0.287-0.813-0.719-2.029c-0.157-0.606-0.414-1.292-0.561-2.075
		c-0.166-0.799-0.295-1.618-0.396-2.47c-0.083-0.84-0.112-1.688-0.006-2.463c0.102-0.779,0.366-1.475,0.74-1.99
		c0.366-0.515,0.768-0.881,1.052-1.128c0.286-0.243,0.45-0.382,0.45-0.382s-0.179,0.125-0.488,0.339
		c-0.303,0.224-0.739,0.553-1.168,1.053c-0.436,0.5-0.793,1.222-0.972,2.035c-0.185,0.813-0.233,1.697-0.228,2.574
		c0.02,0.869,0.081,1.761,0.177,2.56c0.079,0.809,0.228,1.583,0.322,2.245c0.27,1.266,0.452,2.111,0.452,2.111L168.168,41.289z"/>
	<path fill="#63862D" d="M174.194,0.953c0.195,0.128,0.423,0.372,0.612,0.705c0.403,0.669,0.631,1.708,0.608,2.754
		c-0.016,0.521-0.072,1.043-0.161,1.525c-0.09,0.481-0.199,0.929-0.321,1.314c-0.104,0.394-0.224,0.677-0.264,0.907
		c-0.053,0.219-0.056,0.354-0.056,0.354l-0.686-1.241c0.05-0.1,0.102-0.197,0.145-0.309c0.159-0.333,0.319-0.73,0.47-1.171
		c0.146-0.445,0.271-0.923,0.355-1.412c0.066-0.484,0.117-0.978,0.07-1.438c-0.026-0.462-0.127-0.885-0.283-1.222
		c-0.151-0.343-0.338-0.598-0.513-0.735c-0.175-0.145-0.313-0.158-0.313-0.158S173.998,0.827,174.194,0.953z"/>
	<path fill="#63862D" d="M154.138,67.121c0,0,0.556,0.119,1.529,0.325c0.991,0.193,2.313,0.516,3.943,0.937
		c1.629,0.431,3.522,0.988,5.565,1.608c2.046,0.608,4.247,1.267,6.509,1.756l1.699,0.331c0.571,0.077,1.144,0.158,1.707,0.231
		c1.136,0.101,2.253,0.214,3.333,0.182c1.086,0.022,2.125-0.075,3.109-0.154c0.982-0.083,1.896-0.267,2.749-0.379
		c0.833-0.181,1.603-0.343,2.283-0.491c0.681-0.138,1.256-0.336,1.737-0.461c0.957-0.272,1.507-0.423,1.507-0.423
		s-0.561,0.108-1.534,0.305c-0.491,0.084-1.071,0.243-1.761,0.327c-0.681,0.092-1.455,0.194-2.296,0.308
		c-0.847,0.051-1.76,0.156-2.726,0.169c-0.969,0-1.984,0.022-3.031-0.085c-1.049-0.051-2.118-0.24-3.199-0.422
		c-0.538-0.117-1.08-0.233-1.621-0.349l-1.614-0.446c-2.143-0.64-4.245-1.45-6.231-2.214c-1.985-0.77-3.863-1.484-5.489-2.052
		c-1.636-0.557-3.046-1.019-3.987-1.279c-0.956-0.279-1.504-0.438-1.504-0.438L154.138,67.121z"/>
	<path fill="#63862D" d="M152.434,71.137c0,0,0.03-0.473,0.097-1.3c0.028-0.412,0.068-0.912,0.11-1.49
		c0.036-0.582,0.112-1.216,0.127-1.941c0.027-1.449,0.095-3.167,0.097-4.924c0.017-0.88-0.003-1.812,0.044-2.721
		c0.045-0.916,0.07-1.853,0.137-2.784c0.125-0.917,0.249-1.837,0.371-2.737c0.155-0.899,0.456-1.747,0.666-2.598
		c0.133-0.408,0.2-0.847,0.374-1.228c0.171-0.384,0.339-0.765,0.503-1.127c0.325-0.738,0.63-1.439,0.917-2.083
		c0.707-1.213,1.345-2.21,1.772-2.92c0.435-0.708,0.686-1.111,0.686-1.111s-0.285,0.379-0.784,1.042
		c-0.488,0.668-1.224,1.604-2.051,2.773c-0.351,0.624-0.728,1.302-1.127,2.02c-0.2,0.361-0.409,0.732-0.621,1.111
		c-0.217,0.378-0.326,0.814-0.502,1.226c-0.299,0.852-0.692,1.715-0.941,2.631c-0.215,0.926-0.433,1.873-0.651,2.817
		c-0.156,0.95-0.271,1.9-0.402,2.842c-0.142,0.942-0.202,1.846-0.302,2.74c-0.165,1.788-0.379,3.369-0.529,4.757
		c-0.077,0.686-0.216,1.338-0.303,1.906c-0.097,0.57-0.18,1.066-0.248,1.473c-0.14,0.818-0.219,1.285-0.219,1.285L152.434,71.137z"
		/>
	<path fill="#63862D" d="M163.614,50.699c0,0,1.452,0.11,3.626,0.265c0.551,0.022,1.099,0.122,1.704,0.191
		c0.603,0.085,1.233,0.148,1.9,0.253c0.671,0.11,1.365,0.226,2.073,0.341c0.739,0.079,1.459,0.247,2.229,0.245
		c0.767-0.006,1.532,0.075,2.261-0.073c0.727-0.116,1.459-0.154,2.124-0.33c1.335-0.345,2.594-0.587,3.631-0.941
		c2.088-0.628,3.479-1.05,3.479-1.05s-1.431,0.249-3.572,0.629c-1.068,0.222-2.331,0.306-3.662,0.483
		c-0.671,0.094-1.355,0.042-2.047,0.071c-0.694,0.059-1.377-0.111-2.059-0.18c-0.678-0.079-1.361-0.326-2.028-0.477
		c-0.688-0.199-1.367-0.396-2.02-0.587c-0.658-0.185-1.327-0.339-1.947-0.502c-0.617-0.149-1.222-0.328-1.751-0.417
		c-2.14-0.416-3.563-0.694-3.563-0.694L163.614,50.699z"/>
	<path fill="#63862D" d="M162.843,54.681c0,0,0.014-1.45,0.034-3.63c0.021-0.533-0.033-1.151-0.056-1.788
		c-0.033-0.635-0.051-1.311-0.102-1.993c-0.055-0.679-0.112-1.381-0.171-2.095c-0.012-0.688-0.118-1.411-0.057-2.1
		c0.069-0.693,0.044-1.401,0.241-2.076c0.17-0.678,0.261-1.365,0.485-2.002c0.443-1.269,0.783-2.49,1.213-3.493
		c0.799-2.023,1.333-3.37,1.333-3.37s-0.652,1.295-1.635,3.241c-0.519,0.961-0.976,2.156-1.539,3.408
		c-0.285,0.625-0.45,1.333-0.688,2.022c-0.267,0.685-0.318,1.444-0.459,2.187c-0.129,0.747-0.088,1.485-0.138,2.22
		c-0.009,0.717-0.016,1.416-0.02,2.098c-0.012,0.679-0.058,1.313-0.074,1.923c-0.038,0.615-0.033,1.177-0.102,1.724
		c-0.218,2.166-0.364,3.615-0.364,3.615L162.843,54.681z"/>
	<path fill="#63862D" d="M172.979,28.67c0,0-0.209-0.82-0.521-2.049c-0.194-0.622-0.412-1.377-0.673-2.125
		c-0.129-0.372-0.26-0.755-0.394-1.149c-0.111-0.383-0.272-0.774-0.352-1.166c-0.076-0.392-0.208-0.786-0.242-1.183
		c-0.042-0.402-0.083-0.798-0.118-1.178c0.014-0.773-0.014-1.507,0.035-2.135c0.107-1.26,0.183-2.097,0.183-2.097
		s-0.202,0.82-0.508,2.051c-0.145,0.621-0.238,1.363-0.373,2.159c-0.025,0.406-0.047,0.829-0.072,1.252
		c-0.024,0.434,0.042,0.87,0.062,1.313c0.022,0.443,0.121,0.856,0.176,1.284c0.073,0.41,0.146,0.815,0.214,1.204
		c0.142,0.781,0.225,1.47,0.317,2.075c0.119,1.262,0.196,2.101,0.196,2.101L172.979,28.67z"/>
	<path fill="#63862D" d="M167.761,40.09c0,0,0.346,0.145,0.954,0.398c0.614,0.255,1.501,0.637,2.644,1.034
		c0.588,0.181,1.226,0.367,1.927,0.483c0.69,0.113,1.433,0.204,2.174,0.2c1.491,0.027,3.006-0.092,4.539-0.25
		c3.05-0.336,6.008-1.08,8.198-1.632c1.096-0.27,2.013-0.481,2.663-0.525c0.66-0.062,1.007,0.133,1.007,0.133
		s-0.328-0.236-1.007-0.238c-0.67-0.025-1.617,0.086-2.738,0.243c-2.243,0.324-5.228,0.749-8.201,0.764
		c-1.475,0.015-2.983-0.062-4.308-0.276c-0.673-0.086-1.282-0.249-1.852-0.42c-0.562-0.167-1.076-0.401-1.548-0.614
		c-0.941-0.48-1.739-0.949-2.312-1.285c-0.569-0.331-0.896-0.521-0.896-0.521L167.761,40.09z"/>
	<path fill="#63862D" d="M169.106,35.361c0,0,0.3,0.134,0.825,0.375c0.548,0.232,1.323,0.582,2.321,0.875
		c0.502,0.131,1.062,0.277,1.671,0.326c0.608,0.052,1.246,0.021,1.869-0.033c1.247-0.124,2.504-0.214,3.83-0.192
		c2.64,0.017,5.309-0.165,7.26-0.532c0.976-0.191,1.775-0.41,2.32-0.598c0.537-0.208,0.848-0.327,0.848-0.327
		s-0.315,0.097-0.864,0.269c-0.557,0.147-1.361,0.312-2.34,0.435c-1.958,0.235-4.576,0.234-7.203,0.04
		c-1.307-0.111-2.683-0.103-3.903-0.061c-1.224,0.054-2.238-0.122-3.124-0.455c-0.883-0.321-1.594-0.698-2.092-0.949
		c-0.51-0.271-0.799-0.425-0.799-0.425L169.106,35.361z"/>
	<path fill="#63862D" d="M154.571,66.584c0,0-0.049-0.332-0.14-0.911c-0.044-0.293-0.102-0.642-0.162-1.045
		c-0.035-0.39-0.065-0.833-0.104-1.316c-0.069-0.958-0.051-2.112,0.062-3.335c0.121-1.222,0.35-2.515,0.649-3.82
		c0.268-1.334,0.511-2.61,0.987-3.755c0.462-1.14,1.058-2.141,1.646-2.949c0.584-0.81,1.131-1.444,1.503-1.901
		c0.367-0.455,0.576-0.717,0.576-0.717s-0.229,0.247-0.627,0.673c-0.405,0.425-0.999,1.018-1.65,1.792
		c-0.655,0.769-1.343,1.748-1.912,2.899c-0.577,1.149-0.965,2.488-1.288,3.767c-0.368,1.288-0.692,2.618-0.889,3.887
		c-0.189,1.27-0.274,2.467-0.264,3.508c0.014,0.525,0.024,1.002,0.033,1.427c0.041,0.408,0.074,0.761,0.104,1.051
		c0.055,0.585,0.088,0.92,0.088,0.92L154.571,66.584z"/>
	<path fill="#63862D" d="M175.101,12.037c-0.006-0.033,0.05-0.111,0.072-0.636c-0.005-0.178-0.004-0.391-0.007-0.635
		c-0.006-0.225,0.014-0.461,0.044-0.731c0.039-0.262,0.091-0.549,0.189-0.85c0.07-0.308,0.227-0.614,0.347-0.946
		c0.324-0.657,0.706-1.313,1.121-1.984c0.828-1.323,1.691-2.67,2.143-3.772c0.239-0.548,0.366-1.026,0.454-1.359
		c0.069-0.338,0.107-0.531,0.107-0.531s-0.054,0.189-0.154,0.514c-0.117,0.323-0.282,0.784-0.563,1.298
		c-0.543,1.043-1.496,2.278-2.449,3.534c-0.933,1.26-1.879,2.593-2.259,3.864c-0.086,0.309-0.158,0.604-0.189,0.86
		c-0.037,0.232-0.065,0.433-0.092,0.601c-0.019,0.092-0.03,0.184-0.072,0.289c-0.028,0.088-0.045,0.134-0.045,0.134L175.101,12.037z
		"/>
	<path fill="#63862D" d="M174.709,15.93c-0.021-0.027-0.019-0.122-0.28-0.579c-0.095-0.149-0.21-0.33-0.341-0.535
		c-0.126-0.188-0.238-0.402-0.357-0.641c-0.104-0.244-0.218-0.514-0.295-0.821c-0.104-0.296-0.135-0.64-0.21-0.984
		c-0.073-0.727-0.102-1.486-0.108-2.274c-0.005-1.565,0.004-3.16-0.203-4.337c-0.089-0.59-0.238-1.064-0.34-1.393
		c-0.122-0.323-0.194-0.508-0.194-0.508s0.056,0.189,0.149,0.521c0.068,0.335,0.175,0.813,0.21,1.399
		c0.1,1.171-0.051,2.721-0.185,4.297c-0.113,1.562-0.204,3.194,0.154,4.473c0.091,0.309,0.194,0.595,0.299,0.829
		c0.094,0.213,0.175,0.402,0.242,0.555c0.036,0.088,0.071,0.171,0.091,0.283c0.021,0.092,0.034,0.138,0.034,0.138L174.709,15.93z"/>
	<path fill="#3F5824" d="M65.731,112.269c0.218,4.303,1.758,8.661,1.636,12.896c-1.969-1.942-2.525-11.897-4.767-11.76
		c0.949-0.365,1.963-1.075,2.719-1.832c0.4,0.25,0.342,0.593,0.452,0.97L65.731,112.269z"/>
	<path fill="#3F5824" d="M77.09,138.21c-2.751-4.628-5.324-8.569-6.446-13.85c-0.555-2.681-1.17-5.108-1.855-7.642
		c-0.417-1.835-2.202-5.657,0.656-5.527c1.116,4.642,1.854,9.36,2.521,13.977c0.6,3.868,2.531,10.535,5.33,13.274L77.09,138.21z"/>
	<path fill="#3F5824" d="M73.713,117.183c0.605,1.615,1.498,3.104,2.185,4.739c-1.619-3.396-2.975-7.278-5.82-9.82
		c0.61-0.426,1.578-0.878,2.387-0.914c1.067,2.5,0.998,5.415,2.067,7.916L73.713,117.183z"/>
	<path fill="#3F5824" d="M108.99,119.887c-0.505-1.51-1.955-3.367-2.688-4.915c-0.909-1.879-1.836-3.699-2.68-5.623
		c-0.459-1.089-2.855-4.294-2.551-5.363c0.172-0.625,3.931-2.803,4.727-2.958c0.993,3.43,1.355,7.105,2.971,10.351
		c-0.419-1.97-2.217-5.897-3.981-6.974c-1.569,2.859,2.121,8.126,2.864,10.983c0.439,1.852,0.952,3.659,1.829,5.41
		c0.534,0.984,1.307,1.65,1.797,2.566c0.492,0.918,0.355,2.017,0.844,2.932c0.404,0.72,0.681,1.184,1.383,1.249L108.99,119.887z"/>
	<path fill="#3F5824" d="M119.767,110.862c-1.644-4.286-4.225-8.29-7.256-11.757c0.766-0.31,1.645-0.775,2.369-1.358
		c0.633,2.953,1.492,6.658,3.163,9.262L119.767,110.862z"/>
	<path fill="#3F5824" d="M122.27,106.464c-2.821-2.627-3.063-7.822-6.45-9.754c2.567-0.965,7.115-3.094,9.101-4.788
		c3.188,6.6,10.619,11.818,16.856,15.224c-2.563,0.441-6.315-2.975-8.489-4.247c-2.801-1.737-5.179-4.377-8.024-5.854
		c1.69,1.986,2.895,4.241,4.584,6.223c-1.964-1.945-2.792-4.309-5.627-5.34c1.382,2.729,2.987,6.212,5.387,8.229
		c-3.539-3.108-5.473-8.244-10.511-9.4c-0.248,3.421,1.229,7.144,3.229,9.895L122.27,106.464z"/>
	<path fill="#3F5824" d="M128.881,89.378c-1.17,1.591,3.202,5.577,5.577,7.617c-2.375-0.956-6.406-4.31-8.061-6.343
		C127.333,90.523,128.328,90.127,128.881,89.378z"/>
	<path fill="#3F5824" d="M133.745,86.506c-3.68,2.849,6.143,7.473,9.586,8.615c-2.838,0.475-5.807-1.823-8.023-3.37
		c-0.471-0.345-3.587-2.314-3.699-2.691C131.218,87.75,132.719,87.301,133.745,86.506z"/>
	<path fill="#3F5824" d="M136.425,84.567c-0.585,0.611,1.954,1.555,2.544,2.205c0.781,0.882,1.491,1.28,2.482,1.883
		c1.443,0.881,3.141,1.451,4.551,2.326c-1.574-0.156-2.909-2.115-4.286-2.945c-1.808-1.059-2.671-3.243-4.493-4.229
		C137.005,84.161,136.714,84.265,136.425,84.567z"/>
	<path fill="#3F5824" d="M139.629,82.12c0,0,0.214,0.161,0.589,0.441c0.205,0.136,0.404,0.319,0.599,0.553
		c0.213,0.233,0.454,0.494,0.718,0.779c0.271,0.304,0.549,0.644,0.933,0.951c0.354,0.34,0.763,0.633,1.183,0.894
		c0.419,0.278,0.856,0.564,1.294,0.856c0.469,0.262,0.939,0.525,1.414,0.789c0.466,0.267,0.936,0.523,1.391,0.784
		c0.415,0.307,0.814,0.616,1.208,0.941c0.373,0.333,0.822,0.574,1.191,0.838c0.378,0.261,0.736,0.508,1.07,0.737
		c0.656,0.463,1.234,0.816,1.668,1c0.435,0.195,0.72,0.156,0.715,0.178c0.005-0.022-0.28,0.006-0.701-0.205
		c-0.423-0.202-0.979-0.573-1.62-1.061c-0.321-0.242-0.671-0.505-1.04-0.782c-0.371-0.288-0.78-0.525-1.146-0.875
		c-0.365-0.332-0.776-0.68-1.199-1.019c-0.452-0.279-0.91-0.56-1.365-0.842c-0.456-0.278-0.907-0.554-1.351-0.828
		c-0.431-0.311-0.854-0.611-1.259-0.907c-0.201-0.146-0.402-0.293-0.599-0.435c-0.169-0.146-0.33-0.315-0.491-0.46
		c-0.331-0.285-0.595-0.634-0.849-0.94c-0.271-0.312-0.518-0.606-0.735-0.865c-0.224-0.275-0.435-0.48-0.624-0.616
		c-0.364-0.295-0.572-0.461-0.572-0.461L139.629,82.12z"/>
	<path fill="#3F5824" d="M154.777,86.773c-2.703-0.476-5.496-2.091-7.849-3.511c-1.754-1.141-3.911-1.991-5.393-3.317
		c1.664-0.715,4.197-2.344,4.431-4.314c2.183,2.043,3.524,4.175,6.271,5.722c-1.396-0.481-6.565-5.061-7.563-3.103
		C143.933,79.772,153.283,86.511,154.777,86.773z"/>
	<path fill="#3F5824" d="M155.203,79.253c-2.491-1.33-5.684-3.029-7.774-4.936c0.107-0.276,0.477-0.687,0.734-0.82
		c1.328,0.886,2.241,2.48,3.546,3.409C152.532,77.491,155.203,79.253,155.203,79.253z"/>
	<path fill="#3F5824" d="M166.752,78.631c-3.275-1.067-7.096-1.771-10.346-3.229c-1.316-0.591-2.404-1.282-3.595-1.846
		c-1.1-0.55-2.121-0.551-3.079-1.162c0.29-0.399,1.044-1.639,1.438-1.881c0.978-0.492,1.001,0.129,1.703,0.924
		c1.104,1.302,2.923,2.066,4.35,3.028c2.251,1.594,5.615,3.168,8.239,3.892c0.469,0.128,0.984,0.219,1.457,0.301L166.752,78.631z"/>
	<path fill="#3F5824" d="M165.031,72.413c-1.83-0.948-4.09-1.477-6.002-2.213c-1.828-0.722-4.157-1.619-6.081-1.776
		c0.29-1.641,1.748-0.098,2.513,0.35c1.13,0.643,2.438,0.784,3.568,1.426L165.031,72.413z"/>
	<path fill="#3F5824" d="M165.011,69.102c-2.177-0.25-4.322-1.368-6.451-1.878c-1.405-0.336-2.937-0.473-4.269-0.972
		c0.472-0.406,0.959-1.164,1.5-1.206c0.761-0.039,1.649,0.958,2.214,1.28c1.209,0.706,2.585,1.21,3.878,1.704
		c2.496,0.93,5.243,1.723,7.73,2.473L165.011,69.102z"/>
	<path fill="#3F5824" d="M166.502,65.12c-1.918,0.061-9.856-1.062-9.624-2.886c0.063-0.609,2.15-3.128,2.567-3.234
		c1.066-0.255,3.975,0.878,5.079,1.165c2.719,0.7,5.302,0.396,7.974,0.867c-4.784,0.792-8.761,0.055-12.892-0.181
		c-0.669,1.522,1.326,2.051,2.521,2.838c1.541,1.071,5.53,1.563,7.345,2.108L166.502,65.12z"/>
	<path fill="#3F5824" d="M173.038,58.039c-2.502-0.037-6.067-0.581-8.528-1.236c-0.759-0.223-1.571-0.899-2.447-0.962
		c-1.008-0.088-1.373,0.466-2.254,0.934c1.991,0.794,4.259,1.284,6.4,1.482C168.039,58.446,171.58,58.016,173.038,58.039z"/>
	<path fill="#3F5824" d="M174.899,54.414c-2.918,0.419-6.262,0.765-9.148,0.251c-0.731-0.126-2.499-0.17-3.143-0.552
		c-0.959-0.612-0.261-0.801-0.028-1.872c2.604,1.616,6.421,2.88,9.594,2.507L174.899,54.414z"/>
	<path fill="#3F5824" d="M172.895,50.742c-1.317,0.167-3.066-0.495-4.422-0.603c-1.489-0.127-3.215,0.101-4.586-0.184
		c0.296-1.68,1.435-1.078,2.644-0.645c1.092,0.371,2.345,0.545,3.379,0.994L172.895,50.742z"/>
	<path fill="#3F5824" d="M177.701,47.876c-2.293,0.928-4.452,0.827-6.935,0.3c-1.931-0.386-3.931-0.869-5.896-1.304
		c0.249-0.665,0.674-1.301,0.879-1.975c0.693,1.098,2.89,1.752,4.122,2.324c1.281,0.537,2.409,1.144,3.84,1.082L177.701,47.876z"/>
	<path fill="#3F5824" d="M177.649,44.132c-2.079,0.477-4.281,0.354-6.401,0.56c-1.807,0.169-3.112,0.518-4.793-0.269
		c0.092-0.782,0.36-1.533,0.186-2.319c1.149,0.022,2.892,1.487,4.313,1.735c1.162,0.207,3.013,0.652,4.095,0.576L177.649,44.132z"/>
	<path fill="#3F5824" d="M179.089,41.278c-1.908-0.249-3.831-0.189-5.724-0.521c-2.025-0.36-3.158-1.49-4.964-2.075
		c-1.198,1.45,5.095,2.029,6.429,2.264L179.089,41.278z"/>
	<path fill="#3F5824" d="M178.337,38.721c-1.291,0.388-3.768-0.501-4.924-0.646c-1.474-0.202-3.222-0.035-4.6-0.456
		c0.594-1.346,1.034-0.824,2.229-0.375c0.92,0.308,1.936,0.931,2.915,0.925L178.337,38.721z"/>
	<path fill="#3F5824" d="M169.882,35.358c0,0,0.506-0.068,1.165,0.137c0.656,0.212,1.513,0.543,2.413,0.757
		c0.911,0.193,1.836,0.198,2.522,0.17c0.688-0.025,1.147-0.041,1.147-0.041s-0.462,0-1.146,0.006s-1.611-0.038-2.498-0.241
		c-0.879-0.237-1.74-0.562-2.378-0.817c-0.634-0.273-0.996-0.636-0.996-0.636L169.882,35.358z"/>
	<path fill="#3F5824" d="M186.079,32.896c-2.571,1.056-12.683,1.699-15.587,0.713c0.322-0.83,0.24-0.729,0.612-1.495
		c2.98,1.237,5.67,2.189,8.831,1.738L186.079,32.896z"/>
	<path fill="#3F5824" d="M173.911,30.405c-2.117-0.373-1.223-0.163-2.824-0.151c-0.42-1.967,3.98,0.034,5.213,0.429L173.911,30.405z
		"/>
	<path fill="#3F5824" d="M179.779,28.118c-1.408,0.599-3.017,0.282-4.547,0.291c-1.051,0.039-3.781,0.954-3.336-0.859
		c2.475,0.284,5.016,0.958,7.611,0.667L179.779,28.118z"/>
	<path fill="#3F5824" d="M178.64,25.008c-1.304,0.007-4.656,0.279-5.903,0.652c-0.334-1.479,2.563-0.707,3.595-0.524L178.64,25.008z
		"/>
	<path fill="#3F5824" d="M180.58,23.132c-2.135,0.691-4.157,0.747-6.396,1.005c1.606-0.368,3.857-0.367,5.459-0.737L180.58,23.132z"
		/>
	<path fill="#3F5824" d="M182.308,18.509c-1.635,0.542-4.499,1.836-6.174,1.598c0.333,0.802-2.18,0.982-2.31,1.372
		c1.527,0.089,4.802-1.424,6.17-2.131"/>
	<path fill="#3F5824" d="M173.941,18.192c0.731-0.767,3.426-0.555,4.634-1.083c-1.108,0.471-2.594,0.537-3.664,0.231
		C174.776,17.435,174.086,18.04,173.941,18.192z"/>
	<path fill="#3F5824" d="M174.47,15.996c0.4,1.345,5.173-1.082,6.237-2.08c-1.867,1.44-3.564,1.785-5.178,1.855
		C175.56,15.956,174.396,15.748,174.47,15.996z"/>
	<path fill="#3F5824" d="M174.669,13.642c0.695-0.191,4.065-2.785,4.57-3.533C178.004,11.964,176.229,13.209,174.669,13.642z"/>
	<path fill="#3F5824" d="M174.895,11.241c1.29-0.565,2.196-1.968,3.138-2.926c-0.331,0.531-1.146,1.25-1.62,1.76
		C175.942,10.552,175.472,10.988,174.895,11.241z"/>
	<path fill="#3F5824" d="M175.145,9.122c-0.028-0.789,0.619-1.845,1.108-2.438C175.924,7.541,175.109,8.139,175.145,9.122z"/>
	<path fill="#3F5824" d="M174.556,7.043c0.177-0.325,0.592-1.26,0.533-1.679c-0.097,0.619-0.302,1.043-0.509,1.538L174.556,7.043z"
		/>
	<path fill="#3F5824" d="M173.446,14.306c-0.047,0.015,0.064,0.145-0.058,0.08c-0.331-0.524-0.55-1.995-0.598-2.525
		c-0.062,0.333,0.094,0.835,0.199,1.256c0.097,0.458,0.413,0.803,0.464,1.258L173.446,14.306z"/>
	<path fill="#3F5824" d="M173.153,18.221c0.367,0.694-0.369-0.266-0.414-0.495c-0.078-0.458-0.251-1.265-0.415-1.717
		C172.342,16.901,172.757,17.461,173.153,18.221z"/>
	<path fill="#3F5824" d="M172.612,22.117c-0.509-1.302-0.602-3.186-1.043-4.455c0.129,0.781,0.418,1.567,0.572,2.302
		C172.285,20.621,172.382,21.529,172.612,22.117z"/>
	<path fill="#3F5824" d="M171.837,26.521c-0.058,0.213-0.247,0.644-0.4,0.885c-0.111-0.376,0.224-0.936,0.16-1.35
		c-0.075-0.436-0.264-0.736-0.396-1.135c-0.281-0.781-0.471-1.726-0.526-2.535c-0.108,0.611,0.557,1.656,0.675,2.23
		c0.122,0.576,0.909,1.649,0.405,2.114L171.837,26.521z"/>
	<path fill="#3F5824" d="M170.394,30.442c-0.252-0.595-0.131-0.954-0.447-1.3c-0.351-0.394-1.094-2.191-1.003-2.753
		C168.998,27.221,170.079,29.698,170.394,30.442z"/>
	<path fill="#3F5824" d="M169.622,34.96c-0.14-0.344,0.151-1.389,0.084-1.777c-0.068-0.369-0.709-0.893-0.921-1.223
		c-0.415-0.646-0.546-1.658-0.945-2.417c-0.004,0.398,0.306,0.789,0.412,1.184c0.132,0.401,0.121,0.821,0.208,1.235
		C168.601,32.786,169.299,34.169,169.622,34.96z"/>
	<path fill="#3F5824" d="M168.469,37.379c-0.171,0.347-0.246,0.43-0.534,1.061c-0.565-1.7-1.294-4.195-1.49-5.986
		c0.049,0.401,0.575,2.345,0.801,2.941c0.24,0.663,0.711,1.628,1.278,2.06L168.469,37.379z"/>
	<path fill="#3F5824" d="M167.354,41.179c-0.204-0.233,0.121-0.483,0.121-0.483c-0.571-0.043-0.892-2.53-0.975-3.08
		C166.544,38.792,166.542,40.247,167.354,41.179z"/>
	<path fill="#3F5824" d="M165.87,44.193c-0.189-0.279,0.099-0.528,0.092-0.822c-0.775-0.502-1.163-2.723-1.393-3.521
		C164.664,41.013,165.201,43.221,165.87,44.193z"/>
	<path fill="#3F5824" d="M163.859,47.482c-0.214-1.171-0.593-2.357-0.563-3.535C163.644,45.107,163.658,46.383,163.859,47.482z"/>
	<path fill="#3F5824" d="M161.936,52.932c0.572-2.323-0.749-5.219-0.028-7.288C162.463,47.521,162.369,51.181,161.936,52.932z"/>
	<path fill="#3F5824" d="M156.613,61.734c0.41,0.433,1.281-3.433,1.162-5.13c-0.166-2.46,1.289-6.682,1.769-8.729
		c-2.758,2.674-1.806,11.634-2.866,13.781L156.613,61.734z"/>
	<path fill="#3F5824" d="M153.593,65.594c-0.014-0.807,0.141-3.823,0.088-4.693C153.378,62.449,153.569,64.051,153.593,65.594z"/>
	<path fill="#3F5824" d="M151.175,69.229c0.253-0.428,0.663-0.742,0.993-1.098c-0.29-0.703,0.155-1.897,0.172-2.663
		c0.013-0.918-0.029-1.842-0.075-2.77c-0.11-1.558-0.318-3.076,0.015-4.612c-0.384,1.678-0.561,3.514-0.748,5.256
		c-0.11,1.134-0.284,2.289-0.341,3.432c-0.004,0.708,0.338,1.955-0.06,2.535L151.175,69.229z"/>
	<path fill="#3F5824" d="M147.168,73.752c1.853-1.939,0.769-4.617,1.381-7.084c0.016-0.087,0.016-0.087,0,0
		c-0.822,2.164-1.567,4.874-1.481,7.155L147.168,73.752z"/>
	<path fill="#3F5824" d="M143.927,77.103c-1.369-1.17-0.219-4.015,0.296-5.696c0.189,1.956-0.583,3.812-0.209,5.712L143.927,77.103z
		"/>
	<path fill="#3F5824" d="M140.579,80.584c0.305-0.971-0.102-4.302,1.181-10.72c-0.756,2.139-0.991,4.362-1.749,6.503
		c-0.592,1.669-0.001,3.374-0.72,4.905L140.579,80.584z"/>
	<path fill="#3F5824" d="M138.448,82.21c-0.693-1.597-1.004-5.684-1.063-7.573c-0.928,2.503-0.082,5.532,0.614,7.842L138.448,82.21z
		"/>
	<path fill="#3F5824" d="M135.905,84.001c-0.224,0.27-0.709,0.496-0.963,0.672c0.066-1.63-0.108-3.392,0.006-5.062
		c0.142-1.571,0.624-3.042,0.332-4.648c0.79,1.294-0.046,3.012,0.006,4.487c0.018,1.425,0.063,3.43,0.769,4.709L135.905,84.001z"/>
	<path fill="#3F5824" d="M132.374,87.169c0.337,0.739-1.604,0.52-2.35,0.742c0.422-0.902,1.194-1.741,1.532-2.658
		c0.354-1.007,0.076-1.94,0.123-2.955c0.148-2.105,0.802-4.075,1.032-6.124c0.184,1.72-0.221,3.779-0.396,5.525
		C132.179,83.232,131.732,85.771,132.374,87.169z"/>
	<path fill="#3F5824" d="M129.822,89.054c-0.724-0.656-2.064,0.616-2.96,1.17c0.298-2.701,1.317-6.964,2.544-9.412
		C128.034,87.097,127.525,86.965,129.822,89.054z"/>
	<path fill="#3F5824" d="M125.79,90.644c0.17,0.402-1.061-0.231-1.334,1.011c-0.357-1.483,0.425-6.565,0.782-8.102
		C125.371,88.045,125.1,89.012,125.79,90.644z"/>
	<path fill="#3F5824" d="M122.191,93.396c-1.248-1.391-3.222,1.651-4.865,2.427c1.356-2.158,1.31-4.919,2.166-7.255
		c0.286,1.384-0.633,3.088-0.087,4.513c2.826-0.922,2.891-9.347,4.393-11.833C123.355,84.275,119.816,90.759,122.191,93.396z"/>
	<path fill="#3F5824" d="M112.053,98.946c2.485,0.438,2.455-4.363,3.296-6.609c-1.079,1.581-2.238,3.598-3.981,4.446
		c-0.446-1.497,1.031-4.345,1.749-5.908c-0.846,1.274-2.776,4.923-4.15,5.659c-0.315-3.254,2.451-8.624,2.771-11.942
		c-1.893,5.708-4.024,12.915-7.513,16.438C107.405,100.615,108.692,98.356,112.053,98.946z"/>
	<path fill="#3F5824" d="M98.527,103.108c0.866-0.277,2.295-1.473,2.295-1.473s2.338-5.636,3.484-7.632
		c-0.906,1.616-1.991,3.734-3.453,4.986c-0.909-1.404-0.083-3.566-0.067-5.163c-0.891,1.53-2.061,6.653-4.092,7.094
		c-2.033,0.444-1.473-4.255-1.098-5.875c-1.121,3.355-1.952,6.049-2.646,9.48C94.781,104.227,96.74,103.682,98.527,103.108z"/>
	<path fill="#3F5824" d="M89.932,105.431c0.109,0.61-1.255,0.576-1.784,0.572c0.138-2.815,1.476-7.375,2.847-9.622
		C90.203,99.599,89.4,102.407,89.932,105.431z"/>
	<path fill="#3F5824" d="M76.898,108.7c0.007,0.865-1.31,0.393-2.191,0.324c1.181-4.676,4.083-9.05,5.535-13.768
		C79.854,99.987,76.854,103.895,76.898,108.7z"/>
	<path fill="#3F5824" d="M72.299,109.739c-1.027,0.263-1.698,0.058-2.764,0.048c0.387-1.709,2.35-3.762,3.114-5.579
		c0.78-1.906,1.112-3.801,1.636-5.75c0.852-3.316,1.244-7.066,2.666-10.101C76.724,95.688,73.454,102.662,72.299,109.739z"/>
	<path fill="#3F5824" d="M67.545,111.124c-0.906,0.106-1.84-0.146-2.731-0.127c0.243-2.89,2.447-6.317,3.377-9.086
		c0.946-2.851,1.664-5.92,3.01-8.527C70.178,98.178,65.225,106.628,67.545,111.124z"/>
	<path fill="#3F5824" d="M59.309,131.736c-0.522-5.814,0.805-12.645-0.017-18.563c1.183-0.147,2.304-0.484,3.414-0.732
		c0.385,1.845,0.408,4.246,0.244,6.172c-0.114-1.352-0.521-2.579-1.418-3.537C61.384,115.408,59.845,126.68,59.309,131.736z"/>
	<path fill="#3F5824" d="M60.386,111.238c-0.372-3.487,3.03-6.126,4.014-9.684c-0.104,1.582-0.765,3.33-0.969,4.982
		c-0.204,1.648,0.459,3.454,0.012,4.975C63.442,111.512,61.429,111.334,60.386,111.238z"/>
	<path fill="#3F5824" d="M83.959,131.228c-0.562-2.852-3.675-4.894-4.345-7.602c-0.882-3.579-1.832-5.773-2.808-8.786
		c-0.224-0.75-2.465-2.622-2.143-3.454c0.465-1.604,1.855-1.446,2.6-0.609c1.193,1.278,2.189,7.223,2.588,8.982
		c0.513,2.132,0.612,4.104,1.412,6.112c0.831,1.833,2.67,3.486,2.837,5.562L83.959,131.228z"/>
	<path fill="#3F5824" d="M83.273,116.423c0.035-2.213,0.282-5.633-1.486-7.186c1.637-1.225,3.187-2.459,5.202-2.814
		c-1.439,4.63,0.289,13.991,3.736,17.619c-1.052-1.608-6.223-13.419-7.381-7.515L83.273,116.423z"/>
	<path fill="#3F5824" d="M88.011,129.534c-0.281-2.338-3.088-11.015-4.207-12.925c-0.038,2.172,3.104,11.266,4.224,13.171
		L88.011,129.534z"/>
	<path fill="#3F5824" d="M89.927,107.237c1.34,1.123,0.998,3.075,1.502,4.583c0.627,1.828,1.134,2.982,1.393,4.863
		c-1.716-3.023-1.891-6.728-4.679-9.053C88.813,107.51,89.293,107.478,89.927,107.237z"/>
	<path fill="#3F5824" d="M97.334,103.414c-2.674,0.613-0.407,4.015,1.141,6.301c1.371,1.958,1.118,4.399,2.711,6.456
		c-1.37-0.953-1.026-2.903-1.927-4.188c-0.749-1.133-2.664-2.363-3.915-2.641c0.423,2.974,1.604,5.016,2.465,7.83
		c0.747,2.503,1.138,4.997,2.729,7.056c-1.326-0.885-1.494-2.631-1.891-4.061c-0.443-1.856-1.085-3.273-2.171-4.824
		c-1.08-1.611-1.484-2.985-2.181-4.765c-0.749-1.792-2.084-2.618-3.258-4.01c1.154-0.507,2.237-0.611,3.354-1.242
		C95.445,104.741,96.163,103.68,97.334,103.414z"/>
	<path fill="#3F5824" d="M116.78,117.899c-1.094-3.924-3.101-6.941-4.965-10.467c-0.83-1.685-1.538-3.349-2.45-4.926
		c-1.273-2.18-0.517-2.11,1.479-3C111.916,103.842,115.583,113.604,116.78,117.899z"/>
	<path fill="#3F5824" d="M84.789,107.174c-0.558,1.633-3.009,0.42-4.626,1.017c0.979-2.918,2.788-5.168,3.696-8.351
		c0.581-2.241,0.288-5.855,1.548-7.701c0.18,1.241,0.011,2.541-0.068,3.766c0.758-2.232,2.026-4.251,2.786-6.482
		c-0.805,2.929-2.5,6.147-2.875,9.19C84.909,101.223,85.543,104.944,84.789,107.174z"/>
	<path fill="#3F5824" d="M-0.152,109.365c3.688,0.742,7.658,1.499,11.907,2.152c5.908,0.911,12.349,1.632,19.168,1.623l21.574-1.056
		c14.923-1.466,30.769-4.398,45.954-9.458c15.159-5.029,29.675-12.359,41.159-22.013c5.743-4.798,10.713-10.133,14.729-15.699
		c2.013-2.781,3.793-5.617,5.352-8.444c0.759-1.43,1.497-2.826,2.16-4.257c0.692-1.41,1.346-2.803,1.955-4.173
		c2.477-5.479,4.485-10.629,5.949-15.285c1.468-4.656,2.434-8.803,3.016-12.245c0.62-3.438,0.83-6.175,0.93-8.034
		c0.002-0.051,0.003-0.094,0.009-0.137c0.018-0.53,0.037-1.087,0.052-1.667c0-0.114,0.001-0.231,0.001-0.327
		c0.003-0.092,0.003-0.17,0.003-0.244c-0.013-1.113-0.138-2.289-0.178-2.771c-0.194-1.853-0.632-3.722-1.492-4.849
		c-0.416-0.567-0.864-0.968-1.229-1.157c-0.373-0.192-0.625-0.17-0.625-0.17s0.25-0.047,0.653,0.107
		c0.397,0.157,0.896,0.522,1.388,1.066c0.499,0.538,0.967,1.274,1.338,2.112c0.399,0.833,0.658,1.784,0.879,2.743
		c0.191,0.963,0.305,1.94,0.349,2.861c0.034,0.859,0.029,1.664-0.018,2.374c0.003,0.033,0,0.063,0,0.098
		c-0.033,1.91-0.245,4.701-0.835,8.208c-0.617,3.495-1.635,7.69-3.156,12.381c-1.535,4.682-3.537,9.869-6.043,15.39
		c-1.241,2.77-2.611,5.58-4.11,8.509c-1.544,2.893-3.309,5.791-5.316,8.643c-4.002,5.707-8.98,11.201-14.75,16.157
		c-5.766,4.974-12.316,9.391-19.327,13.204c-7.009,3.825-14.481,7.033-22.132,9.703c-15.311,5.333-31.289,8.514-46.366,10.206
		c-7.545,0.831-14.886,1.317-21.859,1.364c-7.022,0.09-13.64-0.505-19.675-1.331c-3.177-0.429-6.184-0.915-9.033-1.412
		L-0.152,109.365z"/>
</g>
</svg>
