<?xml version="1.0" encoding="utf-8"?>
<!-- Generator: Adobe Illustrator 16.0.0, SVG Export Plug-In . SVG Version: 6.00 Build 0)  -->
<!DOCTYPE svg PUBLIC "-//W3C//DTD SVG 1.1//EN" "http://www.w3.org/Graphics/SVG/1.1/DTD/svg11.dtd">
<svg version="1.1" id="Calque_1" xmlns="http://www.w3.org/2000/svg" xmlns:xlink="http://www.w3.org/1999/xlink" x="0px" y="0px"
	 width="169.42px" height="276.763px" viewBox="0 0 169.42 276.763" enable-background="new 0 0 169.42 276.763"
	 xml:space="preserve">
<g>
	<path fill="#8AAD39" d="M24.198,142.122c-2.612-3.707-4.635-7.449-5.19-10.664c-1.09-6.284-1.598-10.008-3.506-13.821
		c-0.108-0.156-0.21-0.309-0.311-0.461c-0.204-0.283-0.395-0.559-0.569-0.826c-0.204-0.283-0.396-0.557-0.57-0.826
		c-0.204-0.283-0.396-0.559-0.571-0.826c-0.203-0.283-0.395-0.557-0.57-0.826c-0.203-0.281-0.394-0.557-0.569-0.824
		c-0.203-0.283-0.395-0.559-0.57-0.828c-0.204-0.281-0.395-0.557-0.57-0.824c-0.204-0.283-0.394-0.559-0.57-0.826
		c-4.027-5.578-2.225-8.072-6.443-17.383C-0.36,83.15-0.66,81.103,0.737,72.165c1.395-8.939,1.663-12.322,0.554-19.74
		c-0.995-6.664-1.511-16.27,1.183-21.549c2.694-5.278,1.899-4.558,2.597-11.549c0.697-6.99,1.445-10.129,4.04-15.922
		s13.881-2.648,18.325-1.701s14.131-0.104,20.821,3.591c3.063,1.69,9.585,2.651,15.076,4.504c6.502,2.196,11.984,5.213,14.636,6.025
		c4.895,1.496,14.932,7.037,21.424,12.727c2.152,1.888,3.631,3.815,4.926,5.747c0.195,0.275,0.385,0.55,0.57,0.826
		c0.195,0.275,0.385,0.549,0.57,0.826c0.193,0.274,0.387,0.551,0.57,0.824c0.193,0.275,0.385,0.551,0.57,0.826
		c0.193,0.275,0.385,0.552,0.57,0.826c0.193,0.275,0.385,0.55,0.57,0.826c0.193,0.275,0.385,0.551,0.568,0.826
		c0.195,0.275,0.387,0.551,0.572,0.826c0.154,0.221,0.311,0.44,0.461,0.661c1.191,1.39,2.619,2.749,4.486,4.06
		c6.609,4.637,11.148,6.745,16.203,14.388c0.189,0.274,0.379,0.538,0.57,0.827c0.189,0.273,0.379,0.537,0.57,0.826
		c0.189,0.273,0.379,0.537,0.57,0.824c0.189,0.275,0.379,0.539,0.57,0.827c0.189,0.273,0.377,0.537,0.568,0.825
		c0.191,0.273,0.381,0.538,0.572,0.827c0.189,0.274,0.379,0.536,0.568,0.825c0.191,0.273,0.379,0.537,0.57,0.825
		c0.898,1.294,1.809,2.735,2.746,4.409c0.143,0.256,0.305,0.498,0.455,0.75c2.199,2.874,4.477,5.713,6.514,8.738
		c0.189,0.274,0.381,0.549,0.568,0.825c0.191,0.275,0.385,0.548,0.57,0.825c0.191,0.275,0.383,0.549,0.57,0.827
		c0.191,0.274,0.383,0.548,0.57,0.826c0.191,0.274,0.385,0.549,0.57,0.826c0.191,0.274,0.383,0.548,0.57,0.825
		c0.191,0.274,0.383,0.548,0.57,0.825c0.191,0.275,0.383,0.549,0.57,0.827c0.701,1.008,1.385,2.03,2.023,3.086
		c2.34,3.873,2.85,8.746,5.559,12.871c7.441,11.332,5.652,16.479,7.193,23.914c1.613,7.774,2.074,11.237,4.424,18.028
		c2.348,6.789,1.928,19.422-3.516,23.418c-5.441,3.996-6.605,9.177-10.881,13.033c-3.334,3.006-14.77,6.553-18.225,5.746
		c-11.336-2.643-12.768-11.767-16.764-12.166c0,0,1.766-0.898,3.025,9.695c1.061,8.914-6.188,20.232-16.172,19.195
		c-9.982-1.035-18.068,1.484-27.432-5.924c-3.399-2.691-17.571-10.889-23.246-16.92c-1.454-1.545-2.67-3.115-3.719-4.636
		c-0.127-0.184-0.247-0.363-0.371-0.547c-0.195-0.277-0.384-0.553-0.57-0.826c-0.194-0.275-0.384-0.551-0.57-0.826
		c-0.194-0.275-0.384-0.551-0.57-0.826c-0.193-0.275-0.384-0.551-0.569-0.824c-0.194-0.277-0.385-0.551-0.571-0.826
		c-0.194-0.277-0.384-0.553-0.57-0.826c-0.193-0.277-0.384-0.553-0.569-0.826c-1.05-1.488-1.967-2.961-2.789-4.34
		c-3.64-3.309-10.56-10.199-15.228-17.068c-0.195-0.275-0.385-0.553-0.569-0.828c-0.195-0.273-0.385-0.549-0.57-0.824
		c-0.195-0.277-0.384-0.551-0.571-0.828c-0.195-0.273-0.383-0.549-0.57-0.824c-0.194-0.275-0.384-0.551-0.569-0.826
		c-0.194-0.275-0.385-0.549-0.569-0.826c-0.195-0.275-0.385-0.549-0.571-0.826C24.573,142.671,24.384,142.396,24.198,142.122z"/>
	<path fill="#7F9F2F" d="M34.681,136.538c-9.358-10.854-2.349-15.358-1.71-15.979c0.639-0.623,1.793-4.49-0.675-7.715
		c-2.843-3.717,0.867-6.854,0.229-9.205c-1.508-5.559-13.496-2.092-13.523-7.854c-0.026-5.499,1.997-9.51,0.301-10.981
		c-1.607-1.393,0.569-6.64-2.151-8.227C12.94,74.116,6.738,65.701,5.005,61.308c-1.414-3.586,7.212-13.627,7.212-13.627
		s2.668-2.246,2.131-5.674c-0.528-3.365-0.799-5.254-3.189-7.681c-2.275-2.311-4.311-10.251-2.271-12.773
		c2.057-2.545,3.542-3.661,5.555-6.24c2.224-2.851,1.458-7.349,1.458-7.349c0.282,0.052,0.614,0.203,0.989,0.451
		c6.355,2.184,18.973,5.473,23.854,10.498c4.304,4.432,11.284-7.17,17.757,3.885c4.748,8.109,3.9,11.689,6.02,12.632
		c2.361,1.052,5.688,1.26,9.049,0.91c2.895-0.302,4.905,3.913,10.683,6.104c7.566,2.868,11.188,3.408,13.256,8.431
		c1.344,3.262,2.801,6.838,6.025,10.547c8.195,9.419,6.516,3.522,12.045,9.648s5.676,3.138,10.146,3.579
		c2.75,0.271,2.041,6.652,5.209,11.875c1.986,3.275,7.611,4.651,9.982,8.266c6.154,9.379-15.654,5.199-7.824,16.215
		c7.83,11.018,12.154,4.088,16.184,10.994c4.031,6.906,7.129,15.668,3.281,22.176c-3.848,6.506-0.957,8.838,0.504,15.367
		c1.381,6.168-6.164,9.068-9.703,15.68c-3.539,6.613-21.906,3.734-21.906,3.734c-0.455-0.072-2.873,8.615-6.428,9.502
		c-6.439,1.605-9.674,5.506-19.18,5.83c-9.508,0.324-14.986-1.869-22.442-10.209c-3.291-3.68-7.547-1.926-4.391-6.668
		c2.965-4.458-5.527-2.808-5.543-8.027c-0.014-5.219,3.551-4.201-1.996-8.936c-5.548-4.734,0.621-4.949-9.109-9.012
		C42.633,147.374,44.038,147.396,34.681,136.538z"/>
	<g>
		<path fill="#91AD43" d="M50.408,120.713c0.32-0.07,0.641-0.143,0.959-0.217c-0.349,0.896-11.052,3.566-11.039,3.674
			c-4.12,1.762-8.82,0.82-13.178,1.758c0.43-0.01,0.859-0.004,1.289,0.023c-0.516,0.016-1.127,0.299-1.655,0.127
			c1.101-0.307-0.926-0.26-0.921-0.104c1.281,0.094,0.183,0.068-0.198,0.127c0.583-0.303-1.311-0.123,0.391-0.395
			c-0.191-0.004-0.384-0.008-0.575-0.012c0.29-0.184,0.614-0.268,0.973-0.25c-0.111-0.139-0.256-0.223-0.438-0.252
			c4.897-2.018,11.009-0.154,16.171-2.455c-0.252,0.387,0.512-0.389-0.349,0.256c2.076-0.533,8.925-1.295,10.049-3.023
			C51.428,120.288,50.935,120.534,50.408,120.713C50.599,120.774,51.069,120.508,50.408,120.713z"/>
		<path fill="#91AD43" d="M52.195,133.825c-0.373,0.072-0.747,0.129-1.123,0.17c0.096-0.154,1.023-0.457,1.149-0.438
			c-0.398-0.063,1.425-0.637,2.253-0.643c-0.446-1.234,10.799-2.525,11.381-4.172c3.943-1.332,8.355-2.311,12.103-4.492
			c-0.456,0.172-0.919,0.328-1.388,0.469c0.545-0.227,1.105-0.711,1.728-0.748c-1.065,0.703,1.092-0.107,1.025-0.258
			c-1.434,0.41-0.197,0.01,0.162-0.193c-0.492,0.512,1.518-0.471-0.271,0.518c0.207-0.07,0.412-0.148,0.615-0.232
			c-0.238,0.311-0.555,0.52-0.949,0.631c-0.088,0.055,0.65,0.041,0.564,0.064c-4.706,3.859-12.435,3.902-17.716,6.827
			c0.223-0.102,0.205-0.119-0.061-0.055c0.146-0.088,0.295-0.174,0.441-0.262c-2.787,1.047-8.881,4.02-11.71,3.492
			C50.663,134.552,51.876,133.919,52.195,133.825C51.991,133.774,51.43,134.052,52.195,133.825z"/>
		<path fill="#91AD43" d="M30.337,138.653c-0.838-0.451-0.283-0.016,0.149-0.318c2.107-0.561,4.349-1.504,6.835-1.922
			c1.312,0.537,8.099-0.934,9.063-1.25c-0.296,0.014-0.593,0.01-0.89-0.012c0.022-0.002,1.777-0.012,1.777-0.031
			c-0.773-0.105-0.229-0.053,0.133-0.121c-0.437,0.324,0.082,0.313,0.14,0.408c-0.136-0.063-1.109,0.381-0.351,0.49
			c-3.232,1.711-7.755-0.188-11.146,1.783c0.246,0.176-0.422-0.537,0.236-0.23c-1.457,0.389-6.289,0.537-7.01,1.645
			C29.611,138.907,29.965,138.761,30.337,138.653C30.206,138.581,29.887,138.8,30.337,138.653z"/>
		<path fill="#91AD43" d="M123.39,129.274c-0.416,0.23-0.836,0.447-1.266,0.65c0.09-0.23,1.051-0.887,1.234-0.928
			c-1.086,0.247,2.385-1.281,2.371-1.658c-0.033-0.934,10.43-6.814,9.914-7.461c4.002-4.816,9.311-8.373,11.434-15.01
			c-0.262,0.553-0.561,1.084-0.895,1.596c0.244-0.645,0.525-1.6,0.998-2.125c-0.445,1.547,0.854-1.055,0.637-1.137
			c-0.879,1.748-0.125,0.092-0.004-0.309c-0.049,0.824,0.932-1.893,0.137,0.674c0.113-0.252,0.225-0.502,0.338-0.754
			c-0.064,0.086-0.34,1.307-0.367,1.537c0.004-0.025,0.5-0.58,0.518-0.615c-1.035,7.604-9.797,13.922-14.555,18.873
			c0.232-0.211,0.203-0.219-0.084-0.023c0.145-0.16,0.291-0.318,0.436-0.477c-3.092,2.563-8.83,7.803-12.768,8.608
			C121.919,130.622,122.962,129.558,123.39,129.274C123.142,129.312,122.554,129.827,123.39,129.274z"/>
		<path fill="#91AD43" d="M97.95,130.28c-0.826-0.359,3.383-2.426,4.836-3.491c1.693-1.221,4.381-2.902,5.441-4.838
			c-0.992,0.473,0.32-0.451,0.438-0.674c0.01,0.449,0.338,0.174,0.379,0.188c-0.104,0.033-0.227,0.85,0.174,0.539
			c-0.357,2.568-5.531,4.498-6.859,6.291c0.07-0.018-0.199-0.336,0.094-0.275c-0.945,0.727-5.055,2.038-5.283,2.79
			C97.403,130.597,97.663,130.419,97.95,130.28C97.823,130.226,97.608,130.466,97.95,130.28z"/>
		<path fill="#91AD43" d="M69.916,85.714c-0.238,0.184-0.488,0.35-0.75,0.496c-0.031-0.818,7.451-7.445,7.197-7.715
			c2.181-3.42,5.792-5.136,7.642-9.088c-0.229,0.311-0.471,0.609-0.727,0.896c0-0.001,1.424-1.814,1.396-1.835
			c-0.75,0.819-0.17,0.129,0.006-0.214c0.281,0.043,0.316,0.212,0.104,0.508c0.109-0.135,0.217-0.27,0.324-0.404
			c-0.006,0.313-0.115,0.594-0.332,0.842c0.166,0.006,0.314-0.049,0.445-0.162c-1.109,4.73-7.152,7.564-9.505,11.536
			c-0.189-0.107,0.27,0.012,0.127-0.387c-1.563,1.756-6.455,4.698-6.953,6.638C69.201,86.428,69.545,86.057,69.916,85.714
			C69.75,85.746,69.473,86.154,69.916,85.714z"/>
		<path fill="#91AD43" d="M114.515,83.91c-0.018,0.002,0.803-0.729,0.58-0.255c-2.906,3.973-9.047,8.646-12.762,13.134
			c0.262-0.186,0.531-0.359,0.813-0.516c0.002,0-1.605,1.053-1.582,1.086c0.766-0.41,0.209-0.086-0.047,0.184
			c0.201-0.549-0.225-0.201-0.352-0.248c0.164-0.033,0.75-1.012,0.031-0.631c1.709-3.406,6.73-4.84,8.652-8.496
			c-0.133-0.06,0.381,0.205-0.076,0.34c1.094-1.292,5.404-4.152,5.477-5.589C115.046,83.278,114.8,83.608,114.515,83.91
			C114.671,83.896,114.854,83.528,114.515,83.91z"/>
		<path fill="#91AD43" d="M93.466,85.231c-0.398,0.294-0.809,0.574-1.229,0.841c0.07-0.253,0.982-1.046,1.17-1.117
			c-1.084,0.412,2.305-1.626,2.248-2.026c-0.107-0.742,9.693-8.689,9.225-9.133c4.025-5.388,7.957-10.04,9.947-17.066
			c-0.242,0.597-0.5,1.184-0.773,1.766c0.207-0.76,0.414-1.654,0.83-2.338c-0.305,1.674,0.746-1.194,0.582-1.25
			c-0.834,1.912-0.119,0.092-0.012-0.324c-0.023,0.855,0.873-2.061,0.158,0.695c0.105-0.27,0.209-0.539,0.314-0.809
			c-0.078,0.122-0.291,1.364-0.309,1.625c0.002-0.047,0.469-0.625,0.492-0.678c-0.826,8.307-7.895,15.254-12.705,21.427
			c0.213-0.247,0.184-0.25-0.09-0.013c0.131-0.181,0.262-0.362,0.395-0.545c-2.955,3.121-7.994,9.254-12.066,10.679
			C92.122,86.796,93.046,85.592,93.466,85.231C93.218,85.309,92.671,85.917,93.466,85.231z"/>
		<g>
			<path fill="#91AD43" d="M78.847,38.382c-0.213,0.77-0.068,0.236,0.434-1.6c-0.15,1.771-0.908,2.934-1.377,4.521
				c-0.071,0.245-1.19,2.288-0.394,0.865c-1.553,2.771-3.037,9.664-3.275,10.883c-1.92,4.941-6.018,10.923-9.725,16.466
				c2.559-4.616,5.479-9.954,7.246-14.788c2.039-4.398,4.365-8.995,5.092-13.801c0.014-0.465,1.759-8.832,2.235-8.798
				c0.314-0.823,1.039-2.606,0.754-1.028c0.584-1.081,0.629-1.766,0.748-1.943c0.004-0.037,0.25-0.504,0.266-0.55
				c-0.1,0.216-0.248,0.403-0.352,0.613c0.129-0.21,0.252-0.423,0.365-0.643c-0.088,0.212-0.201,0.399-0.303,0.608
				c-0.117,0.074,0.248-0.422,0.301-0.584c0.006-0.014-0.033,0.219-0.006,0.146c-0.174,0.461-0.246,1.49-0.457,1.812
				c0.047-0.178-0.104-0.246,0.123-0.43c-0.068,0.397-0.096,0.516-0.088,0.355c-0.172,0.526-0.191,1.246-0.564,1.916
				c0.107-0.322,0.225-0.643,0.35-0.961c0.018,0.258-0.572,2.234-0.787,2.588c0.18-0.077,0.25-0.178,0.205-0.301
				C79.62,33.753,78.903,38.38,78.847,38.382z"/>
		</g>
		<g opacity="0.8">
			<path fill="#91AD43" d="M27.71,49.671c-0.639-0.068-0.196-0.026,1.329,0.126c-1.105,0.183-4.962-0.798-4.538-0.649
				c-2.306-0.814-8.609-0.814-9.325-0.884c-3.84-1.288-9.21-5.556-14.115-6.893c4.494,0.9,8.469,3.679,12.674,4.683
				c3.688,1.402,7.709,2.512,11.664,2.181c0.422-0.075,7.509,0.19,7.466,0.826c0.61,0.218,2.222,0.976,0.848,0.672
				c0.972,0.663,1.332,0.604,1.783,0.877c-0.054,0.069,0.013,0.114,0.199,0.13c-0.17-0.1-0.306-0.242-0.469-0.346
				c0.158,0.127,0.321,0.246,0.491,0.359c-0.117-0.062-0.212-0.104-0.325-0.186c-0.058-0.063-0.123-0.107-0.199-0.137
				c0.122,0.088,0.349,0.258,0.505,0.32c-0.366-0.188-1.333-0.254-1.579-0.459c0.141,0.045,0.212-0.108,0.342,0.121
				c-0.434-0.022-1.343-0.262-1.842-0.555c0.265,0.081,0.526,0.171,0.786,0.27c-0.166,0.029-1.854-0.426-2.125-0.567
				c0.07,0.169,0.153,0.226,0.253,0.171C31.521,49.722,27.69,49.539,27.71,49.671z"/>
		</g>
		<path fill="#91AD43" d="M17.98,65.693c-0.327-0.027-0.65-0.071-0.974-0.129c0.502-0.556,11.565-0.187,11.581-0.388
			c4.327-0.915,8.682,0.773,13.161,0.061c-0.423-0.014-0.845-0.045-1.267-0.094c0.506,0.012,1.122-0.234,1.631-0.035
			c-1.094,0.248,0.907,0.313,0.903,0.154c-1.224-0.162-0.213-0.047,0.195-0.123c-0.576,0.303,1.29,0.146-0.389,0.38
			c0.188,0.021,0.379,0.025,0.567,0.021c-0.286,0.189-0.607,0.263-0.968,0.221c0.107,0.143,0.25,0.234,0.431,0.274
			c-4.925,1.739-11.214-0.915-16.396,0.139c0.384-0.331-0.658,0.299,0.4-0.175c-2.417,0.082-8.63-1.365-10.523-0.148
			C16.877,65.749,17.425,65.696,17.98,65.693C17.821,65.591,17.292,65.712,17.98,65.693z"/>
		<path fill="#91AD43" d="M18.609,87.98c0.032,0.03-1.13-0.247-0.598-0.298c5.386,0.181,13.021,2.452,19.634,0.619
			c-0.351,0.026-0.699,0.04-1.051,0.042c-0.014,0,2.106-0.107,2.108-0.074c-1.066-0.091-0.139-0.061,0.162-0.094
			c-0.57,0.284,0.158,0.383,0.152,0.319c0.007,0.004-0.78,0.196-0.862,0.239c0.145,0.057,0.29,0.113,0.436,0.17
			c-3.805,1.792-9.339,0.244-13.288,0.613c0.046,0.155-0.097-0.421,0.348-0.123c-2.192-0.159-6.519-2.206-8.357-1.543
			C17.735,87.87,18.173,87.913,18.609,87.98C18.496,87.872,18.059,87.922,18.609,87.98z"/>
		<path fill="#91AD43" d="M55.697,44.534c-0.154,0.293-0.321,0.58-0.502,0.859c-0.292-0.666,4.258-10.973,4.239-10.982
			c1.131-4.358,4.105-7.719,5.166-12.285c-0.174,0.396-0.365,0.785-0.57,1.166c0.203-0.477,0.209-1.156,0.592-1.563
			c-0.193,1.134,0.631-0.735,0.486-0.796c-0.66,1.129-0.154,0.113-0.021-0.23c0.008,0.65,0.707-1.131,0.182,0.52
			c0.088-0.172,0.18-0.344,0.268-0.516c0.035,0.344-0.031,0.674-0.201,0.99c0.172-0.042,0.311-0.138,0.416-0.291
			c-0.271,5.307-5.082,10.273-6.342,15.382c-0.156-0.417-0.008,0.614,0.012-0.435c-1.008,2.322-4.502,7.438-4.273,9.777
			C55.304,45.591,55.489,45.058,55.697,44.534C55.54,44.64,55.484,45.197,55.697,44.534z"/>
		<path fill="#91AD43" d="M50.19,47.745c-0.847,0.117,3.385-8.438,3.213-10.812c-0.569,0.724,0.072-0.447,0.074-0.688
			c1.336,2.168-1.374,4.178-1.184,7.979c0.176-0.18-0.445,0.252-0.098-0.248c-0.402,1.447-1.308,2.957-1.979,4.289
			C49.8,48.528,49.792,48.354,50.19,47.745C50.063,47.763,50.058,48.045,50.19,47.745z"/>
		<path fill="#91AD43" d="M37.75,111.188c-0.603-0.139,4.422-0.053,5.26-0.074c1.993-0.072,4.642,0.111,6.544-0.514
			c-1.037-0.281,0.583-0.092,0.726-0.133c-0.246,0.229-0.103,0.258,0.102,0.355c-0.07-0.045-0.698,0.34-0.251,0.426
			c-1.376,0.902-7.726,0.244-7.956,0.209C41.177,111.424,35.958,111.143,37.75,111.188C37.671,111.17,37.406,111.18,37.75,111.188z"
			/>
		<path fill="#91AD43" d="M29.078,34.317c0.174,0.838-8.647-2.805-11.006-2.472c0.763,0.519-0.449-0.042-0.69-0.026
			c2.199-0.528,10.838,1.857,12.212,2.436C29.886,34.653,29.713,34.673,29.078,34.317C29.104,34.443,29.385,34.431,29.078,34.317z"
			/>
		<path fill="#91AD43" d="M78.599,176.278c0.043,0.01-1.157,0.387-0.695,0.023c4.24-2.215,12.287-7.424,16.266-12.031
			c-0.287,0.209-0.58,0.408-0.881,0.592c0,0,1.744-1.205,1.723-1.232c-0.861,0.488-0.205,0.08,0.061-0.195
			c-0.209,0.512,0.023,0.262,0.361,0.236c-0.078,0.281-0.248,0.5-0.508,0.662c0.146,0.059,0.293,0.059,0.445,0
			c-1.982,3.65-7.67,5.637-10.367,8.793c0.066,0.039-0.045-0.492,0.168-0.342c-1.838,1.471-6.756,2.578-7.815,4.127
			C77.758,176.677,78.173,176.466,78.599,176.278C78.437,176.233,78.093,176.548,78.599,176.278z"/>
		<path fill="#91AD43" d="M126.767,160.913c-0.475-0.008-0.947-0.029-1.42-0.068c0.193-0.154,1.352-0.244,1.533-0.189
			c-1.066-0.328,2.705,0.08,2.881-0.254c0.438-0.828,12.439-0.709,12.313-1.529c5.871-2.18,12.246-2.617,17.395-7.313
			c-0.504,0.348-1.027,0.658-1.57,0.936c0.533-0.436,1.252-1.125,1.924-1.344c-1.156,1.121,1.264-0.49,1.117-0.67
			c-1.633,1.08-0.154,0.02,0.152-0.268c-0.453,0.689,1.748-1.178-0.217,0.65c0.223-0.16,0.445-0.322,0.668-0.484
			c-0.1,0.045-0.947,0.965-1.084,1.15c0.014-0.02,0.723-0.254,0.754-0.275c-4.686,6.076-15.432,7.188-22.023,9.107
			c0.305-0.066,0.285-0.088-0.063-0.063c0.205-0.066,0.41-0.129,0.617-0.193c-3.959,0.678-11.545,2.361-15.361,1.096
			C124.821,161.349,126.257,160.944,126.767,160.913C126.532,160.819,125.767,160.976,126.767,160.913z"/>
	</g>
	<path fill="#6C8B2C" d="M13.752,4.593c3.387,5.389,6.679,10.824,9.869,16.32c3.173,5.508,6.271,11.057,9.319,16.635
		C39.087,48.676,45.079,59.9,51.422,70.956c3.159,5.536,6.441,11.008,9.876,16.392c1.688,2.71,3.48,5.356,5.234,8.026
		c1.727,2.629,3.518,5.295,5.227,7.955c3.393,5.328,6.724,10.725,9.968,16.182l9.721,16.401c3.246,5.473,6.539,10.93,9.881,16.363
		c3.49,5.418,6.914,10.693,10.313,16.074c6.775,10.726,13.322,21.576,19.363,32.679c6.018,11.107,11.471,22.52,15.742,34.332
		c2.143,5.898,4.004,11.895,5.365,17.988c1.352,6.09,2.541,13.473,2.488,18.021c-0.014,1.318-0.26,2.291-0.238,3.146
		c0.014,0.484,0.613,1.232,1.498,1.734c0.342,0.193,1.082,0.527,1.479,0.512c0.332-0.012,0.924-0.453,1.125-0.717
		c0.656-0.869,0.375-3.248,0.416-4.336c0.25-6.525-1.014-13-2.369-19.33c-1.365-6.334-3.238-12.525-5.393-18.594
		c-4.371-12.125-9.939-23.719-16.033-34.969c-6.088-11.262-12.787-22.148-19.695-32.861c-3.441-5.344-6.984-10.707-10.432-15.953
		c-3.375-5.367-6.707-10.766-10.004-16.199C88.353,122.932,81.7,112.081,74.6,101.428c-1.783-2.656-3.588-5.234-5.406-7.889
		c-1.789-2.609-3.613-5.194-5.34-7.85C60.338,80.421,57,75.03,53.672,69.624c-6.632-10.823-12.944-21.869-19.417-32.826
		c-3.247-5.473-6.57-10.904-9.95-16.297C20.917,15.11,17.394,9.806,13.752,4.593z"/>
	<g>
		<path fill="#6C8B2C" d="M35.191,40.343c0,0-0.351-0.188-0.962-0.518c-0.309-0.16-0.668-0.375-1.117-0.569
			c-0.443-0.201-0.941-0.444-1.494-0.681c-0.557-0.221-1.154-0.49-1.803-0.719c-0.645-0.242-1.334-0.471-2.05-0.69
			c-1.429-0.453-2.972-0.868-4.467-1.325c-0.741-0.245-1.486-0.474-2.183-0.766c-0.708-0.271-1.372-0.583-2.024-0.857
			c-0.648-0.281-1.273-0.552-1.861-0.828c-0.603-0.253-1.132-0.57-1.658-0.813c-0.517-0.256-0.97-0.534-1.397-0.751
			c-0.433-0.209-0.782-0.438-1.091-0.603c-0.609-0.34-0.99-0.512-0.99-0.512l-0.137,0.148c0,0,0.222,0.344,0.66,0.911
			c0.221,0.28,0.481,0.635,0.838,0.983c0.356,0.346,0.736,0.773,1.222,1.154c0.484,0.383,0.999,0.824,1.617,1.18
			c0.591,0.406,1.268,0.738,1.979,1.054c0.722,0.284,1.484,0.544,2.27,0.722c0.781,0.203,1.571,0.37,2.359,0.531
			c1.574,0.322,3.126,0.586,4.568,0.896c0.724,0.144,1.409,0.319,2.067,0.472c0.66,0.146,1.267,0.336,1.839,0.484
			c0.566,0.164,1.073,0.34,1.53,0.484c0.458,0.138,0.851,0.306,1.177,0.418c0.653,0.24,1.025,0.377,1.025,0.377L35.191,40.343z"/>
		<path fill="#6C8B2C" d="M45.281,58.007c0,0-0.563-0.189-1.552-0.521c-0.488-0.18-1.103-0.34-1.813-0.525
			c-0.705-0.202-1.509-0.395-2.389-0.568c-0.877-0.203-1.836-0.363-2.852-0.539c-1.014-0.182-2.09-0.301-3.2-0.455
			c-2.217-0.262-4.581-0.539-6.945-0.816c-1.172-0.168-2.351-0.298-3.487-0.512c-1.146-0.19-2.261-0.389-3.336-0.596
			c-1.071-0.201-2.106-0.395-3.089-0.579c-0.967-0.229-1.902-0.394-2.732-0.646c-0.421-0.11-0.827-0.217-1.212-0.318
			c-0.377-0.126-0.735-0.245-1.07-0.358c-0.677-0.219-1.281-0.399-1.752-0.607c-0.954-0.392-1.532-0.592-1.531-0.594l-0.11,0.17
			c0,0,0.451,0.394,1.302,1.043c0.41,0.355,0.962,0.686,1.607,1.059c0.322,0.191,0.669,0.389,1.039,0.585
			c0.378,0.175,0.777,0.358,1.2,0.537c0.835,0.401,1.782,0.689,2.784,1.013c1.002,0.309,2.082,0.551,3.2,0.756
			c1.125,0.164,2.285,0.333,3.468,0.404c1.184,0.105,2.379,0.165,3.573,0.244c2.378,0.127,4.754,0.255,6.982,0.375
			c2.216,0.156,4.287,0.29,6.045,0.527c0.884,0.1,1.686,0.221,2.391,0.359c0.708,0.124,1.329,0.23,1.832,0.369
			c1.012,0.248,1.591,0.388,1.591,0.388L45.281,58.007z"/>
		<path fill="#6C8B2C" d="M53.063,72.073c0,0-2.563-0.139-6.408-0.352c-3.841-0.232-8.961-0.471-14.021-1.08
			c-1.261-0.18-2.524-0.322-3.753-0.56c-1.233-0.21-2.437-0.435-3.602-0.659c-2.327-0.434-4.5-0.82-6.348-1.252
			c-0.464-0.103-0.909-0.199-1.333-0.292c-0.42-0.108-0.817-0.212-1.191-0.31c-0.753-0.186-1.417-0.339-1.952-0.498
			c-1.076-0.311-1.714-0.457-1.714-0.457l-0.085,0.182c0,0,0.54,0.357,1.529,0.928c0.484,0.311,1.104,0.613,1.826,0.951
			c0.715,0.352,1.539,0.706,2.461,1.035c0.911,0.368,1.926,0.665,3.005,0.979c1.075,0.317,2.232,0.562,3.431,0.791
			c1.207,0.178,2.451,0.374,3.727,0.466c1.271,0.129,2.563,0.203,3.854,0.295c5.162,0.303,10.305,0.293,14.156,0.184
			c3.849-0.09,6.415-0.148,6.415-0.148L53.063,72.073z"/>
		<path fill="#6C8B2C" d="M60.6,84.948c0,0-0.781-0.109-2.146-0.3c-0.684-0.104-1.513-0.213-2.477-0.292
			c-0.96-0.088-2.047-0.216-3.23-0.272c-2.369-0.172-5.139-0.251-8.1-0.272c-2.961-0.025-6.112-0.022-9.243-0.13
			c-1.562-0.089-3.126-0.142-4.646-0.326c-1.527-0.135-3.009-0.368-4.445-0.562c-1.421-0.263-2.812-0.433-4.102-0.739
			c-0.648-0.141-1.285-0.251-1.889-0.409c-0.604-0.161-1.188-0.317-1.747-0.468c-1.136-0.267-2.13-0.65-3.038-0.936
			c-0.916-0.269-1.689-0.572-2.329-0.822c-1.28-0.5-2.039-0.757-2.039-0.757l-0.098,0.175c0,0,0.645,0.46,1.822,1.214
			c0.294,0.19,0.62,0.402,0.975,0.632c0.363,0.216,0.776,0.409,1.207,0.638c0.876,0.428,1.845,0.98,2.984,1.376
			c0.565,0.217,1.15,0.443,1.76,0.677c0.616,0.209,1.269,0.371,1.935,0.568c1.323,0.429,2.769,0.645,4.254,0.922
			c1.499,0.146,3.045,0.354,4.619,0.367c1.575,0.075,3.166,0.058,4.756,0.057c3.177-0.042,6.329-0.198,9.281-0.313
			c2.949-0.102,5.7-0.209,8.058-0.189c1.183-0.018,2.257,0.039,3.213,0.064c0.958,0.018,1.794,0.074,2.482,0.135
			c1.377,0.103,2.164,0.161,2.164,0.161L60.6,84.948z"/>
		<path fill="#6C8B2C" d="M69.918,98.446c0,0-0.916-0.006-2.52-0.014c-0.801-0.006-1.773-0.027-2.893,0.039
			c-1.117,0.064-2.391,0.063-3.762,0.197c-1.373,0.115-2.865,0.211-4.432,0.408c-1.573,0.162-3.221,0.393-4.925,0.635
			c-1.699,0.246-3.456,0.502-5.24,0.76c-1.782,0.266-3.591,0.498-5.397,0.711c-1.809,0.166-3.615,0.377-5.39,0.396
			c-1.777,0.092-3.516,0.027-5.194,0c-1.674-0.104-3.296-0.168-4.815-0.4c-1.537-0.141-2.959-0.443-4.284-0.703
			c-1.341-0.205-2.51-0.629-3.588-0.881c-1.08-0.248-1.986-0.58-2.744-0.826c-1.514-0.508-2.404-0.771-2.404-0.771l-0.088,0.182
			c0,0,0.789,0.471,2.217,1.24c0.356,0.193,0.751,0.41,1.181,0.645c0.429,0.238,0.931,0.406,1.449,0.639
			c0.524,0.211,1.083,0.439,1.674,0.68c0.296,0.115,0.597,0.25,0.912,0.359c0.321,0.094,0.651,0.189,0.986,0.289
			c0.674,0.195,1.376,0.398,2.102,0.607c0.729,0.211,1.509,0.299,2.298,0.461c1.578,0.359,3.28,0.408,5.029,0.568
			c1.752-0.02,3.568,0.006,5.388-0.213c1.829-0.135,3.656-0.418,5.484-0.68c1.822-0.291,3.636-0.6,5.409-0.939
			c1.771-0.332,3.517-0.658,5.204-0.975c1.686-0.316,3.317-0.596,4.865-0.848c1.546-0.281,3.017-0.455,4.375-0.646
			c1.357-0.207,2.605-0.273,3.711-0.396c1.105-0.127,2.08-0.16,2.883-0.201c1.6-0.076,2.514-0.121,2.514-0.121L69.918,98.446z"/>
		<path fill="#6C8B2C" d="M75.234,107.364c0,0.002-3.402,0.834-8.479,2.201c-5.084,1.334-11.824,3.238-18.65,4.646
			c-1.71,0.332-3.416,0.678-5.109,0.924c-1.688,0.285-3.353,0.484-4.961,0.719c-1.607,0.207-3.162,0.426-4.638,0.574
			c-1.479,0.148-2.876,0.309-4.17,0.369c-0.649,0.045-1.271,0.09-1.862,0.133c-0.591,0.012-1.151,0.023-1.68,0.033
			c-1.059,0.031-1.985,0.072-2.746,0.037c-1.523-0.039-2.41-0.025-2.41-0.025l-0.032,0.197c0.001-0.002,0.852,0.215,2.372,0.531
			c0.756,0.193,1.688,0.311,2.762,0.432c0.538,0.061,1.111,0.125,1.717,0.189c0.604,0.025,1.241,0.051,1.906,0.076
			c0.664,0.012,1.36,0.068,2.077,0.043c0.718-0.025,1.459-0.053,2.219-0.08c0.768-0.01,1.544-0.09,2.339-0.178
			c0.795-0.086,1.606-0.174,2.433-0.262c1.634-0.291,3.332-0.531,5.021-0.941c1.701-0.361,3.413-0.781,5.122-1.205
			c6.826-1.734,13.505-3.879,18.49-5.539c4.984-1.654,8.334-2.68,8.334-2.68L75.234,107.364z"/>
		<path fill="#6C8B2C" d="M81.925,115.479c0,0-0.799,0.398-2.199,1.098c-0.699,0.35-1.549,0.775-2.522,1.262
			c-0.963,0.512-2.094,0.988-3.322,1.516c-1.225,0.529-2.551,1.104-3.953,1.711c-1.428,0.553-2.93,1.139-4.488,1.742
			c-0.777,0.303-1.568,0.605-2.369,0.916c-0.805,0.305-1.635,0.561-2.465,0.848c-1.658,0.561-3.344,1.129-5.031,1.697
			c-1.709,0.492-3.418,0.984-5.102,1.467c-1.678,0.496-3.346,0.922-4.962,1.324c-1.602,0.452-3.15,0.889-4.619,1.303
			c-1.479,0.369-2.875,0.734-4.161,1.09c-1.288,0.354-2.464,0.705-3.524,0.926c-1.054,0.252-1.975,0.482-2.729,0.688
			c-1.518,0.389-2.384,0.65-2.384,0.65l0.025,0.197c0,0,0.897-0.029,2.467-0.15c0.785-0.049,1.738-0.127,2.832-0.23
			c1.097-0.08,2.316-0.271,3.645-0.508c1.33-0.223,2.77-0.484,4.287-0.775c1.517-0.303,3.078-0.771,4.714-1.174
			c1.623-0.457,3.302-0.922,4.961-1.543c1.671-0.575,3.368-1.159,5.065-1.743c1.674-0.645,3.35-1.289,4.999-1.924
			c0.82-0.324,1.646-0.617,2.439-0.959c0.795-0.346,1.578-0.686,2.35-1.02c1.537-0.682,3.041-1.297,4.432-1.959
			c1.381-0.689,2.686-1.344,3.889-1.945c1.205-0.602,2.309-1.143,3.24-1.707c0.946-0.541,1.771-1.012,2.45-1.402
			c1.355-0.775,2.131-1.219,2.131-1.219L81.925,115.479z"/>
		<path fill="#6C8B2C" d="M85.53,125.86c0,0-2.775,1.559-6.902,3.959c-1.036,0.59-2.157,1.229-3.345,1.906
			c-1.199,0.646-2.436,1.385-3.756,2.064c-1.305,0.707-2.676,1.391-4.076,2.064c-0.691,0.355-1.42,0.641-2.133,0.967
			c-0.717,0.324-1.438,0.641-2.174,0.912c-0.734,0.275-1.461,0.574-2.199,0.832c-0.742,0.236-1.482,0.475-2.215,0.709
			c-0.729,0.254-1.482,0.385-2.204,0.6c-0.726,0.193-1.439,0.4-2.159,0.521c-0.712,0.156-1.413,0.303-2.095,0.469
			c-0.688,0.139-1.367,0.227-2.023,0.354c-1.314,0.27-2.576,0.35-3.74,0.498c-1.164,0.176-2.24,0.135-3.198,0.215
			c-0.96,0.086-1.797,0.061-2.491,0.063c-1.386-0.012-2.193,0.02-2.193,0.02l-0.029,0.199c0-0.002,0.772,0.199,2.155,0.484
			c0.347,0.072,0.729,0.154,1.147,0.242c0.419,0.086,0.877,0.104,1.366,0.166c0.49,0.045,1.014,0.094,1.566,0.146
			c0.276,0.023,0.56,0.049,0.851,0.074c0.291-0.002,0.588-0.004,0.892-0.006c1.216-0.012,2.544,0.02,3.931-0.178
			c0.693-0.074,1.413-0.137,2.137-0.256c0.721-0.133,1.452-0.299,2.199-0.455c0.749-0.152,1.485-0.393,2.233-0.623
			c0.746-0.236,1.514-0.441,2.25-0.75c0.742-0.289,1.488-0.58,2.24-0.871c0.744-0.305,1.473-0.652,2.209-0.977
			c0.742-0.313,1.463-0.672,2.178-1.035c0.711-0.365,1.438-0.695,2.123-1.088c1.389-0.752,2.744-1.508,4.023-2.285
			c2.582-1.523,4.908-3.064,6.899-4.385c3.967-2.655,6.639-4.385,6.639-4.385L85.53,125.86z"/>
		<path fill="#6C8B2C" d="M93.942,135.095c0,0-0.717,0.381-1.975,1.047c-1.26,0.662-3.055,1.607-5.232,2.691
			c-2.174,1.098-4.736,2.32-7.484,3.613c-2.757,1.273-5.729,2.555-8.733,3.744c-1.518,0.557-3.016,1.156-4.529,1.639
			c-1.502,0.512-2.986,0.99-4.424,1.443c-2.867,0.92-5.545,1.781-7.875,2.414c-0.581,0.164-1.139,0.322-1.669,0.473
			c-0.534,0.133-1.041,0.26-1.518,0.379c-0.955,0.244-1.786,0.473-2.479,0.619c-1.386,0.309-2.182,0.523-2.182,0.521l0.02,0.201
			c0.001,0,0.817,0.016,2.254-0.02c0.724,0.008,1.59-0.07,2.586-0.166c1.001-0.08,2.122-0.225,3.335-0.439
			c1.225-0.174,2.524-0.477,3.902-0.791c1.377-0.316,2.805-0.738,4.271-1.203c1.451-0.514,2.953-1.033,4.436-1.67
			c1.5-0.596,2.992-1.271,4.492-1.92c2.979-1.344,5.912-2.771,8.624-4.18c1.352-0.717,2.662-1.396,3.881-2.086
			c1.219-0.688,2.373-1.334,3.424-1.953c2.113-1.221,3.854-2.277,5.068-3.016c1.213-0.742,1.906-1.168,1.906-1.168L93.942,135.095z"
			/>
		<path fill="#6C8B2C" d="M98.095,145.237c0,0-2.861,1.598-7.082,4.121c-4.24,2.492-9.803,5.953-15.554,9.023
			c-1.441,0.754-2.889,1.502-4.334,2.18c-1.455,0.668-2.865,1.354-4.266,1.932c-1.369,0.66-2.732,1.166-3.998,1.74
			c-0.639,0.27-1.273,0.482-1.881,0.717c-0.609,0.229-1.189,0.492-1.768,0.65c-1.152,0.336-2.191,0.77-3.151,0.959
			c-0.478,0.121-0.924,0.234-1.337,0.34c-0.412,0.123-0.795,0.215-1.145,0.26c-1.396,0.229-2.214,0.396-2.214,0.396l0.002,0.201
			c0,0,0.817,0.064,2.28,0.105c0.737,0.068,1.607-0.08,2.628-0.148c1.026-0.055,2.135-0.336,3.372-0.566
			c1.227-0.262,2.52-0.668,3.889-1.092c1.342-0.488,2.775-0.984,4.176-1.652c1.418-0.646,2.846-1.379,4.268-2.168
			c1.422-0.791,2.854-1.611,4.268-2.455c2.833-1.68,5.597-3.457,8.173-5.139c2.574-1.684,4.938-3.307,6.967-4.689
			c4.053-2.773,6.811-4.543,6.811-4.545L98.095,145.237z"/>
		<path fill="#6C8B2C" d="M102.3,153.106c0,0-2.566,1.654-6.363,4.215c-3.816,2.531-8.832,6.004-13.998,9.213
			c-1.299,0.785-2.586,1.592-3.891,2.32c-1.296,0.738-2.569,1.461-3.806,2.164c-1.227,0.705-2.412,1.389-3.539,2.035
			c-0.566,0.314-1.117,0.621-1.65,0.916c-0.525,0.313-1.045,0.594-1.547,0.848c-1.006,0.521-1.91,1.041-2.746,1.424
			c-0.83,0.395-1.539,0.799-2.15,1.053c-1.215,0.535-1.91,0.878-1.91,0.878l0.055,0.193c-0.002,0,0.756-0.121,2.084-0.404
			c0.676-0.107,1.449-0.369,2.357-0.63c0.912-0.256,1.902-0.635,2.982-1.057c1.098-0.395,2.217-0.951,3.428-1.5
			c1.193-0.574,2.432-1.229,3.682-1.945c1.23-0.752,2.51-1.516,3.753-2.377c1.262-0.834,2.52-1.707,3.781-2.576
			c5.029-3.5,9.91-7.176,13.523-9.984c3.621-2.801,6.07-4.621,6.07-4.621L102.3,153.106z"/>
		<path fill="#6C8B2C" d="M105.415,157.667c0,0-1.883,2.127-4.705,5.314c-1.422,1.584-3.078,3.432-4.854,5.408
			c-1.777,1.975-3.732,4.02-5.721,6.021c-1.014,0.984-2.014,1.979-3.049,2.898c-1.018,0.939-2.045,1.832-3.023,2.712
			c-0.98,0.873-1.928,1.717-2.826,2.518c-0.912,0.785-1.762,1.549-2.58,2.205c-0.402,0.34-0.789,0.664-1.157,0.975
			c-0.379,0.293-0.738,0.574-1.076,0.836c-0.674,0.535-1.254,1.014-1.756,1.373c-1,0.73-1.563,1.186-1.563,1.186l0.096,0.178
			c0,0,0.668-0.25,1.824-0.754c0.594-0.229,1.268-0.582,2.041-1c0.782-0.404,1.64-0.898,2.538-1.496
			c0.928-0.564,1.869-1.256,2.859-1.998c1.006-0.725,1.979-1.588,3-2.469c0.965-0.939,1.992-1.879,2.939-2.922
			c0.975-1.021,1.939-2.076,2.896-3.136c3.814-4.252,7.375-8.693,9.949-12.086c2.594-3.383,4.322-5.635,4.322-5.635L105.415,157.667
			z"/>
		<path fill="#6C8B2C" d="M110.048,159.956c0,0-0.447,0.475-1.23,1.309c-0.408,0.4-0.824,0.967-1.346,1.576
			c-0.533,0.609-1.047,1.348-1.645,2.133c-1.162,1.596-2.445,3.506-3.705,5.617c-1.281,2.102-2.582,4.373-3.896,6.629
			c-1.303,2.261-2.693,4.464-3.943,6.546c-1.242,2.084-2.338,4.064-3.352,5.717c-0.488,0.84-0.959,1.594-1.379,2.264
			c-0.408,0.68-0.77,1.27-1.082,1.746c-0.625,0.957-0.959,1.533-0.959,1.533l0.15,0.135c0,0,0.506-0.424,1.352-1.217
			c0.213-0.199,0.447-0.42,0.705-0.658c0.236-0.256,0.494-0.533,0.768-0.828c0.547-0.596,1.164-1.271,1.764-2.059
			c0.307-0.391,0.627-0.799,0.959-1.219c0.305-0.438,0.623-0.891,0.949-1.354c0.672-0.92,1.285-1.945,1.926-3
			c0.598-1.078,1.221-2.191,1.795-3.35c0.58-1.152,1.168-2.322,1.76-3.492c1.186-2.33,2.346-4.666,3.496-6.818
			c0.559-1.086,1.152-2.102,1.682-3.088c0.557-0.967,1.074-1.889,1.594-2.713c0.527-0.816,0.984-1.592,1.455-2.221
			c0.465-0.637,0.83-1.225,1.207-1.658c0.719-0.891,1.127-1.398,1.127-1.398L110.048,159.956z"/>
		<path fill="#6C8B2C" d="M112.208,165.813c0,0-0.459,1.945-1.146,4.857c-0.348,1.455-0.752,3.148-1.188,4.967
			c-0.416,1.818-0.973,3.722-1.494,5.632c-0.309,0.938-0.615,1.879-0.916,2.803c-0.289,0.928-0.664,1.805-0.955,2.678
			c-0.309,0.865-0.52,1.738-0.811,2.525c-0.281,0.791-0.533,1.549-0.75,2.258c-0.109,0.355-0.215,0.693-0.314,1.018
			c-0.117,0.314-0.238,0.609-0.336,0.895c-0.205,0.566-0.379,1.068-0.512,1.488c-0.273,0.834-0.4,1.336-0.4,1.336l0.176,0.102
			c0,0,0.33-0.385,0.857-1.1c0.268-0.355,0.58-0.797,0.932-1.309c0.361-0.51,0.74-1.102,1.066-1.787
			c0.355-0.674,0.723-1.414,1.094-2.205c0.404-0.781,0.658-1.662,0.979-2.557c0.287-0.906,0.592-1.84,0.779-2.816
			c0.221-0.969,0.443-1.951,0.666-2.934c0.383-1.975,0.799-3.939,1.078-5.794c0.322-1.85,0.555-3.582,0.752-5.066
			c0.383-2.973,0.641-4.953,0.641-4.953L112.208,165.813z"/>
		<path fill="#6C8B2C" d="M114.063,164.091c0,0,0.613,0.172,1.686,0.471c1.074,0.291,2.617,0.705,4.48,1.143
			c1.861,0.447,4.051,0.916,6.416,1.313c1.184,0.191,2.408,0.395,3.66,0.547c1.248,0.184,2.529,0.293,3.807,0.428
			c1.281,0.092,2.563,0.219,3.834,0.256c1.27,0.084,2.521,0.059,3.736,0.027c1.213-0.057,2.385-0.197,3.486-0.367
			c1.1-0.215,2.141-0.369,3.08-0.662c0.943-0.252,1.799-0.508,2.533-0.816c0.738-0.293,1.383-0.527,1.879-0.82
			c1.012-0.521,1.563-0.85,1.563-0.85l-0.078-0.184c0,0-0.641,0.113-1.717,0.365c-0.533,0.139-1.205,0.219-1.957,0.357
			c-0.746,0.16-1.605,0.246-2.533,0.371c-0.92,0.15-1.941,0.186-3.002,0.311c-1.07,0.055-2.195,0.156-3.363,0.207
			c-1.17,0.082-2.379,0.141-3.615,0.18c-1.234,0.076-2.492,0.02-3.754,0.021c-1.258-0.059-2.521-0.09-3.76-0.197
			c-1.24-0.078-2.459-0.209-3.639-0.326c-2.357-0.271-4.561-0.553-6.441-0.85c-1.883-0.289-3.441-0.576-4.537-0.783
			c-1.094-0.213-1.719-0.334-1.719-0.334L114.063,164.091z"/>
		<path fill="#6C8B2C" d="M109.595,159.284c0,0,0.795,0.074,2.184,0.205c0.693,0.09,1.553,0.051,2.533,0.084
			c0.986,0.049,2.08-0.057,3.287-0.094c1.203-0.059,2.498-0.223,3.873-0.354c1.363-0.207,2.813-0.375,4.287-0.678
			c0.74-0.143,1.49-0.283,2.252-0.43c0.756-0.168,1.52-0.34,2.291-0.514c1.547-0.33,3.092-0.768,4.65-1.16
			c1.541-0.438,3.096-0.854,4.604-1.322c1.523-0.436,2.992-0.951,4.414-1.447c1.416-0.514,2.756-1.084,4.023-1.633
			c1.254-0.578,2.447-1.109,3.518-1.668c1.072-0.551,2.053-1.055,2.9-1.551c0.848-0.494,1.592-0.91,2.176-1.309
			c1.189-0.756,1.846-1.219,1.846-1.219l-0.094-0.178c0,0-0.766,0.26-2.066,0.766c-1.305,0.488-3.168,1.184-5.406,2.02
			c-2.232,0.822-4.836,1.783-7.623,2.813c-1.387,0.537-2.822,1.078-4.285,1.623c-1.455,0.568-2.965,1.047-4.465,1.566
			c-1.516,0.459-3.023,0.965-4.531,1.361c-0.754,0.207-1.502,0.412-2.238,0.615c-0.744,0.178-1.479,0.354-2.201,0.525
			c-1.443,0.375-2.861,0.586-4.195,0.887c-1.342,0.211-2.611,0.455-3.793,0.584c-1.182,0.113-2.27,0.287-3.23,0.299
			c-0.963,0.027-1.803,0.119-2.502,0.074c-1.396-0.043-2.193-0.068-2.193-0.068L109.595,159.284z"/>
		<path fill="#6C8B2C" d="M104.646,151.257c0,0,0.797-0.018,2.193-0.051c0.699-0.031,1.545-0.008,2.518-0.09
			c0.975-0.074,2.074-0.156,3.275-0.246c1.193-0.148,2.488-0.309,3.855-0.477c1.359-0.23,2.795-0.486,4.268-0.791
			c1.465-0.359,2.998-0.658,4.512-1.123c0.762-0.221,1.535-0.424,2.299-0.666c0.764-0.254,1.527-0.508,2.291-0.764
			c1.527-0.52,3.031-1.104,4.506-1.701c0.73-0.313,1.457-0.623,2.174-0.93c0.699-0.342,1.393-0.684,2.072-1.016
			c0.68-0.342,1.328-0.707,1.953-1.086c0.625-0.377,1.252-0.719,1.822-1.121c0.576-0.387,1.139-0.762,1.682-1.127
			c0.533-0.375,1.031-0.77,1.516-1.131c0.982-0.711,1.805-1.465,2.559-2.096c0.73-0.656,1.344-1.258,1.844-1.756
			c0.979-1.02,1.504-1.629,1.504-1.629l-0.135-0.148c0,0-0.68,0.438-1.818,1.234c-0.596,0.367-1.295,0.84-2.105,1.365
			c-0.826,0.504-1.727,1.109-2.752,1.705c-1.008,0.621-2.121,1.252-3.297,1.92c-1.191,0.643-2.43,1.348-3.742,2.018
			c-0.65,0.348-1.313,0.699-1.98,1.057c-0.682,0.338-1.369,0.682-2.063,1.025c-0.688,0.363-1.41,0.662-2.127,0.984
			c-0.719,0.314-1.434,0.654-2.174,0.928c-0.736,0.285-1.473,0.57-2.205,0.854c-0.738,0.271-1.488,0.506-2.225,0.758
			c-1.465,0.527-2.955,0.893-4.379,1.313c-1.436,0.375-2.842,0.674-4.166,0.992c-1.34,0.252-2.609,0.492-3.779,0.711
			c-1.178,0.164-2.26,0.314-3.217,0.447c-0.959,0.143-1.811,0.174-2.504,0.248c-1.391,0.119-2.186,0.189-2.186,0.189
			L104.646,151.257z"/>
		<path fill="#6C8B2C" d="M98.882,142.907c0,0,0.781-0.154,2.145-0.424s3.316-0.666,5.648-1.186c1.168-0.256,2.43-0.547,3.76-0.877
			c1.338-0.307,2.725-0.717,4.172-1.107c1.432-0.436,2.926-0.85,4.414-1.371c1.504-0.479,3.002-1.051,4.504-1.613
			c1.486-0.605,2.984-1.195,4.418-1.873c1.463-0.619,2.826-1.391,4.168-2.09c1.283-0.803,2.557-1.531,3.652-2.385
			c0.561-0.412,1.105-0.811,1.631-1.198c0.5-0.42,0.982-0.826,1.445-1.215c0.941-0.76,1.725-1.547,2.426-2.232
			c0.346-0.346,0.672-0.668,0.971-0.967c0.279-0.32,0.535-0.615,0.768-0.881c0.93-1.055,1.43-1.682,1.43-1.682l-0.141-0.143
			c0,0.002-0.664,0.461-1.766,1.305c-0.551,0.424-1.229,0.924-2.023,1.473c-0.777,0.564-1.65,1.207-2.639,1.852
			c-0.488,0.328-0.996,0.674-1.52,1.029c-0.537,0.336-1.092,0.686-1.662,1.045c-1.125,0.738-2.375,1.415-3.619,2.188
			c-1.277,0.723-2.58,1.502-3.953,2.215c-1.348,0.758-2.785,1.398-4.205,2.078c-1.447,0.621-2.893,1.252-4.35,1.795
			c-1.443,0.582-2.898,1.061-4.297,1.559c-2.82,0.924-5.465,1.766-7.758,2.414c-2.289,0.664-4.205,1.182-5.551,1.537
			s-2.115,0.559-2.115,0.559L98.882,142.907z"/>
		<path fill="#6C8B2C" d="M93.433,133.995c0,0,0.85-0.141,2.336-0.385c0.746-0.115,1.646-0.268,2.676-0.508
			c1.025-0.232,2.205-0.443,3.449-0.809c1.256-0.33,2.615-0.699,4.023-1.188c1.432-0.428,2.879-1.041,4.396-1.633
			c0.756-0.303,1.5-0.668,2.266-1.008c0.773-0.332,1.535-0.705,2.291-1.107c1.539-0.754,3.039-1.635,4.549-2.506
			c1.475-0.922,2.959-1.834,4.361-2.818c1.441-0.938,2.752-1.996,4.057-2.979c1.238-1.057,2.457-2.059,3.52-3.107
			c0.539-0.512,1.066-1.014,1.572-1.498c0.49-0.502,0.961-0.988,1.414-1.455c0.912-0.926,1.699-1.818,2.402-2.605
			s1.297-1.488,1.766-2.084c0.967-1.168,1.488-1.861,1.488-1.861l-0.143-0.141c0,0-0.689,0.531-1.846,1.504
			c-1.17,0.955-2.803,2.359-4.77,4.018c-0.982,0.828-2.045,1.723-3.17,2.67c-1.131,0.936-2.322,1.92-3.555,2.939
			c-1.244,1-2.508,2.066-3.842,3.078c-1.307,1.055-2.721,2.004-4.115,2.982c-1.438,0.916-2.869,1.842-4.34,2.646
			c-0.725,0.426-1.455,0.822-2.195,1.184c-0.738,0.365-1.453,0.756-2.18,1.086c-1.463,0.648-2.871,1.297-4.248,1.805
			c-1.359,0.564-2.68,1.004-3.9,1.402c-1.215,0.436-2.357,0.709-3.361,1c-1,0.297-1.895,0.5-2.633,0.658
			c-1.467,0.332-2.309,0.521-2.309,0.521L93.433,133.995z"/>
		<path fill="#6C8B2C" d="M89.345,125.258c0,0,0.859-0.467,2.357-1.281c1.496-0.828,3.658-1.936,6.271-3.25
			c2.619-1.303,5.674-2.822,8.949-4.451c1.627-0.84,3.324-1.676,5.018-2.598c1.711-0.889,3.414-1.855,5.121-2.828
			c1.684-1.01,3.389-1.992,4.996-3.084c1.65-1.025,3.164-2.205,4.646-3.322c0.717-0.588,1.385-1.215,2.061-1.801
			c0.334-0.299,0.664-0.592,0.99-0.881c0.314-0.305,0.605-0.627,0.902-0.934c0.586-0.617,1.158-1.217,1.711-1.795
			c0.525-0.609,0.996-1.227,1.465-1.803c0.963-1.131,1.709-2.277,2.361-3.289c0.328-0.502,0.633-0.975,0.914-1.412
			c0.242-0.463,0.463-0.886,0.666-1.269c0.801-1.527,1.221-2.41,1.221-2.41l-0.174-0.101c0,0.001-0.621,0.767-1.641,2.126
			c-0.256,0.336-0.541,0.71-0.85,1.117c-0.334,0.387-0.693,0.805-1.08,1.252c-0.379,0.447-0.783,0.924-1.207,1.428
			c-0.422,0.504-0.938,0.975-1.422,1.508c-0.502,0.516-1.006,1.07-1.559,1.613c-0.566,0.529-1.154,1.078-1.758,1.641
			c-0.592,0.57-1.227,1.131-1.893,1.684c-0.664,0.555-1.318,1.148-2.025,1.705c-1.41,1.119-2.854,2.293-4.4,3.398
			c-1.506,1.158-3.15,2.184-4.76,3.258c-1.646,1.021-3.293,2.045-4.957,2.994c-1.645,0.977-3.305,1.875-4.893,2.773
			c-3.201,1.762-6.191,3.408-8.736,4.861c-2.545,1.449-4.662,2.676-6.109,3.576c-1.455,0.893-2.285,1.402-2.285,1.402
			L89.345,125.258z"/>
		<path fill="#6C8B2C" d="M82.114,114.159c0,0,0.883-0.305,2.428-0.842c0.771-0.273,1.717-0.57,2.76-1.045
			c1.043-0.465,2.27-0.904,3.523-1.543c0.631-0.314,1.285-0.643,1.965-0.982c0.342-0.17,0.688-0.344,1.037-0.518
			c0.344-0.195,0.688-0.395,1.037-0.596c0.697-0.406,1.416-0.824,2.15-1.252c0.732-0.43,1.438-0.936,2.178-1.416
			c1.496-0.943,2.934-2.063,4.428-3.166c0.74-0.559,1.445-1.172,2.178-1.762c0.732-0.588,1.451-1.195,2.143-1.838
			c0.697-0.631,1.414-1.248,2.096-1.893c0.676-0.65,1.35-1.301,2.018-1.947c1.318-1.305,2.576-2.633,3.74-3.96
			c1.139-1.352,2.234-2.662,3.188-3.971c0.986-1.282,1.84-2.553,2.641-3.712c0.771-1.178,1.479-2.26,2.068-3.24
			c0.59-0.981,1.102-1.836,1.494-2.559c0.803-1.433,1.232-2.271,1.232-2.271l-0.168-0.11c0,0-0.619,0.708-1.646,1.981
			c-0.523,0.632-1.16,1.394-1.871,2.282c-0.713,0.881-1.521,1.876-2.4,2.961c-0.902,1.063-1.834,2.249-2.871,3.461
			c-0.521,0.603-1.043,1.233-1.57,1.881c-0.549,0.631-1.105,1.273-1.676,1.928c-0.545,0.677-1.131,1.335-1.725,2
			c-0.604,0.658-1.16,1.373-1.793,2.027c-0.621,0.666-1.248,1.336-1.877,2.012c-0.641,0.662-1.313,1.297-1.969,1.949
			c-0.654,0.658-1.336,1.283-2.031,1.889c-0.693,0.607-1.363,1.238-2.066,1.816c-1.42,1.139-2.793,2.301-4.225,3.287
			c-0.709,0.498-1.385,1.029-2.088,1.479c-0.703,0.455-1.391,0.898-2.061,1.33c-0.336,0.217-0.664,0.434-0.99,0.643
			c-0.336,0.191-0.668,0.381-0.994,0.564c-0.652,0.373-1.283,0.732-1.891,1.074c-1.207,0.699-2.381,1.193-3.391,1.711
			c-1.006,0.523-1.938,0.875-2.691,1.186c-1.516,0.621-2.379,0.973-2.379,0.973L82.114,114.159z"/>
		<path fill="#6C8B2C" d="M110.536,71.688c0,0-0.447,0.61-1.227,1.677c-0.391,0.533-0.865,1.182-1.408,1.925
			c-0.271,0.372-0.563,0.767-0.867,1.184c-0.334,0.39-0.688,0.8-1.055,1.228c-0.736,0.851-1.533,1.772-2.375,2.747
			c-0.822,0.985-1.842,1.903-2.811,2.918c-0.996,0.993-1.98,2.062-3.123,2.999c-1.111,0.972-2.236,1.957-3.363,2.942
			c-1.197,0.9-2.393,1.798-3.568,2.684c-1.164,0.904-2.377,1.691-3.543,2.467c-1.158,0.781-2.225,1.623-3.299,2.322
			c-1.08,0.693-2.092,1.363-3.021,2c-0.463,0.318-0.908,0.625-1.332,0.918c-0.438,0.266-0.854,0.518-1.244,0.756
			c-0.778,0.479-1.456,0.91-2.009,1.277c-1.111,0.717-1.736,1.164-1.736,1.164l0.084,0.182c0-0.002,0.723-0.236,1.965-0.711
			c0.629-0.229,1.382-0.523,2.245-0.875c0.43-0.18,0.887-0.371,1.371-0.57c0.461-0.238,0.949-0.488,1.457-0.75
			c1.016-0.525,2.111-1.113,3.26-1.75c1.158-0.621,2.27-1.453,3.459-2.25c1.162-0.838,2.383-1.674,3.494-2.693
			c1.143-0.973,2.303-1.962,3.463-2.952c1.096-1.06,2.193-2.118,3.271-3.161c1.107-1.007,2.057-2.144,3.016-3.199
			c0.475-0.531,0.941-1.054,1.398-1.563c0.463-0.506,0.91-1.007,1.289-1.545c0.787-1.045,1.533-2.032,2.221-2.943
			c0.342-0.455,0.668-0.892,0.979-1.307c0.277-0.436,0.539-0.849,0.787-1.238c0.492-0.778,0.922-1.454,1.275-2.013
			c0.709-1.118,1.111-1.754,1.111-1.754L110.536,71.688z"/>
		<path fill="#6C8B2C" d="M103.511,49.853c0,0-0.311,0.846-0.857,2.326c-0.254,0.75-0.637,1.625-1.076,2.626
			c-0.217,0.501-0.449,1.034-0.693,1.595c-0.273,0.551-0.561,1.127-0.861,1.73c-0.572,1.217-1.305,2.48-2.059,3.82
			c-0.764,1.336-1.631,2.711-2.535,4.123c-0.947,1.387-1.908,2.828-2.992,4.217c-1.029,1.429-2.205,2.779-3.33,4.164
			c-1.203,1.322-2.363,2.682-3.625,3.906c-1.219,1.265-2.48,2.446-3.682,3.605c-2.418,2.303-4.722,4.41-6.769,6.143
			c-0.508,0.439-0.994,0.861-1.459,1.261c-0.475,0.384-0.928,0.749-1.352,1.092c-0.844,0.696-1.578,1.312-2.203,1.792
			c-1.246,0.963-1.941,1.551-1.943,1.551l0.105,0.172c0,0,0.818-0.391,2.227-1.133c0.719-0.35,1.547-0.844,2.492-1.422
			c0.955-0.567,2.01-1.242,3.117-2.041c0.553-0.399,1.154-0.787,1.732-1.242c0.579-0.456,1.177-0.928,1.792-1.412
			c0.629-0.472,1.225-1.011,1.836-1.563c0.609-0.553,1.25-1.097,1.869-1.687c1.195-1.225,2.461-2.459,3.613-3.834
			c1.207-1.329,2.334-2.762,3.488-4.167c1.09-1.459,2.225-2.88,3.211-4.376c1.039-1.457,1.957-2.961,2.855-4.406
			c0.453-0.721,0.838-1.467,1.248-2.176c0.398-0.715,0.805-1.404,1.133-2.114c0.689-1.399,1.355-2.714,1.865-3.978
			c0.27-0.623,0.525-1.221,0.771-1.789c0.215-0.582,0.418-1.135,0.609-1.652c0.389-1.035,0.723-1.936,0.936-2.696
			c0.461-1.509,0.725-2.371,0.725-2.371L103.511,49.853z"/>
		<path fill="#6C8B2C" d="M86.899,38.138c0,0-1.479,2.82-3.699,7.052c-1.113,2.108-2.412,4.569-3.807,7.208
			c-1.412,2.62-2.958,5.393-4.597,8.099c-0.842,1.339-1.662,2.692-2.551,3.966c-0.438,0.641-0.871,1.276-1.301,1.903
			c-0.441,0.616-0.879,1.223-1.313,1.819c-0.822,1.223-1.711,2.327-2.48,3.436c-0.416,0.529-0.82,1.043-1.213,1.539
			c-0.377,0.513-0.76,0.991-1.152,1.426c-0.77,0.886-1.441,1.739-2.123,2.408c-0.664,0.687-1.207,1.34-1.725,1.794
			c-1.01,0.941-1.578,1.52-1.578,1.52l0.115,0.164c0,0,0.697-0.386,1.904-1.131c0.629-0.34,1.287-0.889,2.076-1.482
			c0.805-0.583,1.615-1.342,2.502-2.175c0.918-0.809,1.754-1.822,2.705-2.842c0.879-1.072,1.828-2.197,2.678-3.447
			c0.42-0.627,0.848-1.268,1.279-1.912c0.4-0.666,0.807-1.338,1.215-2.016c0.811-1.358,1.58-2.768,2.352-4.17
			c1.529-2.813,2.95-5.677,4.245-8.373c1.291-2.699,2.43-5.244,3.398-7.429c1.949-4.36,3.25-7.268,3.25-7.268L86.899,38.138z"/>
		<path fill="#6C8B2C" d="M72.311,23.243c0,0-0.055,0.799-0.152,2.196c-0.035,0.7-0.123,1.546-0.242,2.509
			c-0.102,0.965-0.232,2.051-0.441,3.229c-0.168,1.182-0.424,2.45-0.715,3.785c-0.262,1.341-0.652,2.729-1.016,4.17
			c-0.436,1.422-0.848,2.901-1.404,4.359c-0.492,1.479-1.141,2.925-1.744,4.383c-0.689,1.423-1.34,2.861-2.127,4.2
			c-0.727,1.371-1.559,2.651-2.307,3.92c-0.822,1.224-1.529,2.464-2.314,3.565c-0.381,0.561-0.752,1.105-1.109,1.633
			c-0.377,0.514-0.742,1.011-1.092,1.487c-0.686,0.97-1.364,1.821-1.968,2.579c-0.587,0.773-1.116,1.436-1.569,1.966
			c-0.898,1.07-1.392,1.715-1.392,1.715l0.136,0.147c0,0,0.65-0.473,1.755-1.362c0.277-0.221,0.584-0.466,0.918-0.731
			c0.313-0.29,0.652-0.604,1.015-0.938c0.723-0.674,1.542-1.435,2.342-2.354c0.41-0.451,0.836-0.922,1.279-1.408
			c0.406-0.516,0.826-1.05,1.26-1.599c0.902-1.073,1.666-2.339,2.52-3.604c0.73-1.341,1.559-2.687,2.199-4.157
			c0.711-1.435,1.314-2.943,1.936-4.439c0.551-1.525,1.141-3.033,1.574-4.569c0.498-1.513,0.848-3.042,1.223-4.507
			c0.168-0.738,0.301-1.471,0.449-2.184c0.15-0.712,0.283-1.41,0.367-2.1c0.211-1.371,0.389-2.666,0.482-3.869
			c0.135-1.199,0.199-2.305,0.24-3.285c0.059-0.979,0.094-1.829,0.086-2.53c0.008-1.399,0.014-2.201,0.014-2.201L72.311,23.243z"/>
		<path fill="#6C8B2C" d="M53.309,19.44c0,0-0.487,2.146-1.22,5.365c-0.182,0.805-0.381,1.677-0.59,2.6
			c-0.188,0.93-0.513,1.867-0.779,2.857c-0.282,0.984-0.572,2.002-0.867,3.035c-0.31,1.029-0.564,2.088-0.924,3.119
			c-0.759,2.053-1.58,4.077-2.25,6.004c-0.157,0.487-0.321,0.962-0.457,1.436c-0.166,0.463-0.329,0.917-0.486,1.357
			c-0.319,0.884-0.605,1.725-0.854,2.51c-1.012,3.128-1.442,5.342-1.442,5.34l0.184,0.084c0,0,1.246-1.852,2.747-4.822
			c0.382-0.741,0.776-1.553,1.178-2.416c0.437-0.85,0.783-1.793,1.1-2.785c0.628-1.984,1.195-4.134,1.822-6.256
			c0.291-1.068,0.48-2.169,0.722-3.232c0.227-1.066,0.451-2.115,0.668-3.133c0.192-1.018,0.475-1.986,0.569-2.929
			c0.124-0.938,0.242-1.823,0.352-2.642c0.436-3.274,0.727-5.456,0.727-5.456L53.309,19.44z"/>
		<path fill="#6C8B2C" d="M33.357,11.161c0,0,0.125,0.344,0.347,0.945c0.107,0.301,0.259,0.664,0.345,1.091
			c0.09,0.429,0.259,0.881,0.316,1.419c0.06,0.536,0.191,1.1,0.188,1.717c0.015,0.305,0.029,0.617,0.046,0.937
			c0.006,0.319-0.016,0.649-0.021,0.981c0.003,0.664-0.102,1.352-0.165,2.045c-0.114,0.693-0.203,1.396-0.368,2.094
			c-0.15,0.696-0.32,1.391-0.525,2.066c-0.195,0.678-0.408,1.344-0.576,1.998c-0.328,1.31-0.571,2.568-0.72,3.672
			c-0.151,1.102-0.199,2.051-0.175,2.715c0.039,0.672,0.101,1.046,0.101,1.046l0.2,0.022c0,0,0.172-0.348,0.407-0.939
			c0.266-0.589,0.613-1.424,1.021-2.439c0.405-1.016,0.847-2.221,1.193-3.564c0.156-0.677,0.293-1.384,0.387-2.113
			c0.102-0.729,0.207-1.469,0.273-2.217c0.095-0.741,0.115-1.498,0.157-2.232c-0.006-0.742,0.026-1.467-0.049-2.173
			c-0.033-0.704-0.121-1.381-0.247-2.017c-0.084-0.639-0.299-1.221-0.434-1.763c-0.133-0.543-0.378-1.019-0.529-1.444
			c-0.151-0.436-0.35-0.767-0.505-1.047c-0.31-0.563-0.486-0.883-0.486-0.883L33.357,11.161z"/>
	</g>
	<g>
		<path fill="#7F9F2F" d="M143.198,217.079c0,0,0.857,2.24,2.225,5.572c0.684,1.666,1.482,3.607,2.338,5.689
			c0.854,2.08,1.74,4.309,2.586,6.553c0.404,1.129,0.824,2.25,1.191,3.369c0.389,1.115,0.73,2.223,1.07,3.291
			c0.326,1.074,0.643,2.111,0.914,3.104c0.273,0.99,0.531,1.928,0.723,2.805c0.105,0.436,0.205,0.855,0.301,1.252
			c0.08,0.402,0.156,0.783,0.229,1.139c0.146,0.715,0.275,1.342,0.354,1.857c0.174,1.037,0.273,1.627,0.273,1.627l0.047-0.006
			c0,0-0.057-0.596-0.158-1.643c-0.029-0.262-0.047-0.553-0.092-0.867c-0.049-0.314-0.102-0.652-0.156-1.014
			c-0.057-0.363-0.115-0.75-0.18-1.156c-0.078-0.402-0.164-0.828-0.252-1.27c-0.168-0.889-0.402-1.838-0.648-2.842
			c-0.115-0.506-0.264-1.016-0.416-1.537c-0.154-0.52-0.299-1.057-0.467-1.594c-0.354-1.072-0.705-2.184-1.119-3.293
			c-0.391-1.117-0.834-2.234-1.262-3.357c-0.881-2.236-1.801-4.455-2.684-6.525c-0.893-2.066-1.725-3.992-2.439-5.646
			c-1.432-3.301-2.334-5.527-2.334-5.527L143.198,217.079z"/>
		<path fill="#7F9F2F" d="M152.142,243.084c0,0,0.039,0.121,0.113,0.35c0.061,0.236,0.137,0.549,0.211,0.99
			c0.16,0.863,0.35,2.109,0.594,3.605c0.133,0.746,0.26,1.557,0.434,2.41c0.174,0.852,0.414,1.74,0.639,2.666
			c0.24,0.924,0.455,1.881,0.645,2.863c0.191,0.982,0.387,1.98,0.58,2.979c0.146,0.984,0.24,1.988,0.35,2.973
			s0.193,1.957,0.266,2.898c0.037,0.473,0.074,0.936,0.109,1.389c0.035,0.451,0.07,0.896,0.115,1.328
			c0.076,0.863,0.146,1.68,0.215,2.434c0.07,0.754,0.133,1.445,0.189,2.059c0.063,0.613,0.088,1.148,0.127,1.59
			c0.014,0.219,0.027,0.418,0.039,0.588c0.002,0.17,0.004,0.313,0.008,0.432c0.008,0.123-0.014,0.193-0.016,0.256
			c-0.006,0.061-0.01,0.09-0.01,0.09l0.086,0.043c0,0,0.012-0.031,0.033-0.092c0.016-0.059,0.066-0.158,0.084-0.275
			c0.051-0.238,0.104-0.59,0.154-1.035c0.047-0.445,0.076-0.986,0.105-1.609c0.039-0.621,0.041-1.32,0.043-2.084
			c-0.01-0.764-0.027-1.592-0.076-2.465c-0.039-0.875-0.123-1.793-0.234-2.74c-0.115-0.949-0.244-1.928-0.41-2.92
			c-0.156-0.992-0.395-1.988-0.676-2.984c-0.15-0.484-0.301-0.967-0.451-1.449c-0.135-0.482-0.25-0.971-0.348-1.459
			c-0.199-0.977-0.332-1.947-0.426-2.895c-0.111-0.945-0.188-1.863-0.324-2.725c-0.133-0.863-0.303-1.67-0.461-2.416
			c-0.168-0.744-0.33-1.426-0.502-2.023c-0.166-0.6-0.332-1.117-0.494-1.539c-0.148-0.418-0.316-0.762-0.428-0.965
			c-0.129-0.201-0.199-0.307-0.199-0.307L152.142,243.084z"/>
		<path fill="#7F9F2F" d="M88.667,124.768c0,0,0.287,0.553,0.811,1.508c0.264,0.477,0.588,1.053,0.957,1.713
			c0.365,0.664,0.799,1.401,1.268,2.208c0.469,0.809,0.975,1.684,1.535,2.592c0.549,0.92,1.166,1.863,1.787,2.852
			c0.629,0.98,1.256,2.01,1.887,3.061c0.623,1.053,1.244,2.131,1.852,3.217c1.234,2.16,2.527,4.283,3.73,6.281
			c0.602,1,1.205,1.951,1.766,2.861c0.561,0.912,1.105,1.762,1.611,2.547c1,1.576,1.857,2.873,2.459,3.781
			c0.609,0.904,0.957,1.42,0.957,1.42l0.041-0.025c0,0-0.305-0.543-0.836-1.492c-0.543-0.943-1.313-2.295-2.27-3.896
			c-0.473-0.803-0.986-1.672-1.549-2.582c-0.561-0.91-1.137-1.879-1.76-2.863c-0.621-0.988-1.264-2.008-1.916-3.043
			c-0.656-1.033-1.332-2.078-2.012-3.121c-0.666-1.049-1.318-2.109-1.949-3.158c-0.623-1.055-1.23-2.094-1.793-3.117
			c-0.574-1.016-1.109-2.008-1.656-2.926c-0.533-0.926-1.063-1.789-1.549-2.584c-0.486-0.795-0.928-1.528-1.338-2.167
			c-0.406-0.641-0.76-1.197-1.053-1.658c-0.592-0.914-0.939-1.43-0.939-1.43L88.667,124.768z"/>
		<path fill="#7F9F2F" d="M123.097,184.553c0,0,0.043,0.162,0.111,0.406c0.059,0.244,0.18,0.561,0.287,0.885
			c0.063,0.156,0.113,0.322,0.182,0.467c0.07,0.143,0.172,0.26,0.27,0.35c0.188,0.188,0.363,0.27,0.363,0.27l0.037-0.027
			c0,0,0-0.201-0.078-0.439c-0.039-0.119-0.094-0.25-0.16-0.389c-0.076-0.131-0.184-0.26-0.273-0.398
			c-0.348-0.57-0.695-1.143-0.695-1.143L123.097,184.553z"/>
		<path fill="#7F9F2F" d="M125.507,188.667c0,0,0.09,0.195,0.26,0.525c0.084,0.166,0.189,0.363,0.318,0.586
			c0.127,0.225,0.283,0.471,0.41,0.756c0.143,0.277,0.291,0.58,0.471,0.889c0.188,0.303,0.369,0.641,0.564,0.984
			c0.197,0.342,0.396,0.699,0.553,1.084c0.168,0.381,0.305,0.781,0.445,1.18c0.137,0.398,0.283,0.797,0.436,1.186
			c0.146,0.391,0.326,0.762,0.492,1.125c0.08,0.182,0.17,0.357,0.254,0.529c0.082,0.174,0.168,0.34,0.271,0.494
			c0.193,0.313,0.389,0.602,0.566,0.867c0.092,0.131,0.174,0.262,0.262,0.377c0.092,0.113,0.189,0.215,0.275,0.313
			c0.176,0.191,0.324,0.365,0.455,0.498c0.258,0.27,0.408,0.416,0.408,0.416l0.037-0.031c0,0-0.105-0.188-0.297-0.502
			c-0.096-0.16-0.219-0.346-0.355-0.561c-0.068-0.105-0.139-0.223-0.221-0.338c-0.074-0.121-0.141-0.258-0.215-0.395
			c-0.146-0.277-0.305-0.576-0.484-0.885s-0.33-0.66-0.518-1.002c-0.186-0.346-0.377-0.701-0.553-1.078
			c-0.182-0.371-0.375-0.746-0.576-1.117c-0.193-0.377-0.389-0.752-0.551-1.135c-0.162-0.381-0.324-0.758-0.453-1.135
			c-0.145-0.369-0.252-0.742-0.43-1.068c-0.166-0.328-0.34-0.629-0.498-0.908c-0.154-0.283-0.328-0.514-0.488-0.717
			c-0.154-0.203-0.297-0.381-0.416-0.521c-0.238-0.285-0.383-0.441-0.383-0.441L125.507,188.667z"/>
		<path fill="#7F9F2F" d="M138.161,206.069c0,0,0.951,2.123,1.9,4.246c0.217,0.539,0.426,1.082,0.641,1.58
			c0.236,0.49,0.426,0.959,0.613,1.352c0.189,0.393,0.344,0.723,0.471,0.945c0.121,0.227,0.199,0.354,0.199,0.354l0.043-0.016
			c0,0-0.025-0.145-0.086-0.393c-0.055-0.252-0.156-0.604-0.277-1.027c-0.063-0.211-0.133-0.438-0.215-0.676
			c-0.072-0.244-0.193-0.479-0.297-0.734c-0.229-0.496-0.492-1.02-0.748-1.543c-0.543-1.033-1.07-2.072-1.5-2.834
			c-0.42-0.766-0.701-1.277-0.701-1.277L138.161,206.069z"/>
		<path fill="#7F9F2F" d="M53.15,71.864c0,0,0.131,0.398,0.375,0.973c0.06,0.145,0.125,0.302,0.202,0.463
			c0.07,0.164,0.17,0.328,0.26,0.501c0.188,0.344,0.366,0.72,0.528,1.105c0.179,0.376,0.361,0.751,0.541,1.1
			c0.175,0.35,0.369,0.661,0.54,0.922c0.334,0.531,0.579,0.869,0.579,0.869l0.013-0.008c0,0-0.182-0.379-0.486-0.923
			c-0.075-0.136-0.156-0.284-0.249-0.437c-0.095-0.152-0.17-0.325-0.269-0.494c-0.184-0.343-0.39-0.704-0.601-1.063
			c-0.409-0.729-0.68-1.52-0.951-2.082c-0.262-0.567-0.469-0.932-0.469-0.932L53.15,71.864z"/>
		<path fill="#7F9F2F" d="M56.517,78.3c0,0,0.336,0.646,0.917,1.565c0.279,0.465,0.641,0.983,1.016,1.548
			c0.381,0.561,0.758,1.181,1.102,1.816c0.346,0.639,0.717,1.26,1.064,1.845c0.176,0.291,0.344,0.573,0.52,0.829
			c0.174,0.26,0.348,0.498,0.506,0.719c0.633,0.888,1.09,1.45,1.09,1.45l0.02-0.014c-0.002,0-0.355-0.637-0.936-1.552
			c-0.145-0.229-0.301-0.477-0.475-0.733c-0.178-0.255-0.332-0.545-0.518-0.829c-0.365-0.57-0.748-1.184-1.162-1.78
			c-0.406-0.6-0.781-1.22-1.104-1.819c-0.166-0.296-0.309-0.595-0.48-0.854c-0.164-0.267-0.328-0.509-0.48-0.734
			c-0.605-0.9-1.058-1.47-1.058-1.47L56.517,78.3z"/>
		<path fill="#7F9F2F" d="M65.766,92.448c0,0,0.461,0.93,0.939,1.85c0.129,0.227,0.26,0.451,0.387,0.658
			c0.133,0.205,0.27,0.389,0.387,0.545c0.238,0.313,0.418,0.502,0.418,0.502l0.02-0.014c0,0-0.098-0.246-0.279-0.59
			c-0.096-0.168-0.203-0.367-0.334-0.57c-0.137-0.199-0.285-0.412-0.432-0.625c-0.533-0.889-1.086-1.768-1.086-1.768L65.766,92.448z
			"/>
		<path fill="#7F9F2F" d="M68.211,96.551c0,0,0.17,0.246,0.467,0.68c0.287,0.438,0.742,1.033,1.207,1.801
			c0.482,0.758,1.039,1.641,1.611,2.607c0.584,0.955,1.178,1.996,1.783,3.029c0.6,1.035,1.184,2.08,1.77,3.041
			c0.301,0.475,0.572,0.945,0.865,1.369c0.291,0.428,0.564,0.83,0.818,1.203c0.248,0.375,0.496,0.705,0.721,0.994
			c0.221,0.293,0.415,0.547,0.581,0.75c0.324,0.414,0.516,0.643,0.516,0.643l0.039-0.025c0,0-0.152-0.26-0.42-0.713
			c-0.133-0.227-0.297-0.496-0.491-0.805c-0.199-0.305-0.402-0.664-0.631-1.049c-0.463-0.768-1.002-1.664-1.58-2.623
			c-0.594-0.951-1.229-1.967-1.863-2.98c-0.637-1.016-1.26-2.037-1.875-2.98c-0.307-0.471-0.592-0.932-0.883-1.357
			c-0.293-0.426-0.57-0.826-0.824-1.197c-0.498-0.752-0.973-1.328-1.279-1.754c-0.313-0.42-0.492-0.66-0.492-0.66L68.211,96.551z"/>
		<path fill="#7F9F2F" d="M48.699,64.903c0,0,1.081,1.563,2.164,3.125c0.269,0.391,0.537,0.786,0.807,1.141
			c0.131,0.179,0.256,0.354,0.374,0.518c0.126,0.161,0.235,0.318,0.328,0.469c0.096,0.15,0.184,0.286,0.262,0.408
			c0.063,0.129,0.119,0.24,0.169,0.332c0.097,0.183,0.152,0.289,0.152,0.289l0.014-0.005c0,0-0.045-0.11-0.121-0.305
			c-0.038-0.097-0.087-0.215-0.146-0.348c-0.072-0.128-0.154-0.271-0.242-0.426c-0.349-0.632-0.954-1.366-1.506-2.14
			c-1.122-1.533-2.244-3.068-2.244-3.068L48.699,64.903z"/>
	</g>
</g>
</svg>
