<?xml version="1.0" encoding="utf-8"?>
<!-- Generator: Adobe Illustrator 16.0.0, SVG Export Plug-In . SVG Version: 6.00 Build 0)  -->
<!DOCTYPE svg PUBLIC "-//W3C//DTD SVG 1.1//EN" "http://www.w3.org/Graphics/SVG/1.1/DTD/svg11.dtd">
<svg version="1.1" id="Calque_1" xmlns="http://www.w3.org/2000/svg" xmlns:xlink="http://www.w3.org/1999/xlink" x="0px" y="0px"
	 width="192.019px" height="165.044px" viewBox="0 0 192.019 165.044" enable-background="new 0 0 192.019 165.044"
	 xml:space="preserve">
<g>
	<path fill="#63862D" d="M141.179,50.171c0,0-0.054-0.146-0.157-0.426c-0.091-0.259-0.297-0.791-0.307-0.978
		c-0.087-0.24-0.153-0.722-0.152-1.241c0.009-0.519,0.063-1.13,0.319-1.809c0.223-0.677,0.606-1.432,1.143-2.206
		c0.507-0.784,1.218-1.565,1.972-2.363c1.566-1.564,3.496-3.11,5.549-4.535c4.094-2.872,8.535-5.419,11.698-7.598
		c1.588-1.084,2.85-2.075,3.671-2.846c0.4-0.393,0.712-0.702,0.898-0.938c0.192-0.226,0.297-0.347,0.297-0.347
		s-0.122,0.105-0.344,0.303c-0.214,0.205-0.563,0.466-1.006,0.797c-0.903,0.635-2.265,1.436-3.96,2.272
		c-3.395,1.707-8.092,3.601-12.702,5.958c-2.307,1.178-4.577,2.512-6.618,4.049c-1.005,0.803-1.975,1.607-2.805,2.549
		c-0.844,0.915-1.572,1.92-2.108,2.983c-0.564,1.044-0.889,2.164-1.056,3.173c-0.158,1.019-0.182,1.896-0.068,2.751
		c0.091,0.92,0.196,1.21,0.255,1.528c0.062,0.289,0.094,0.445,0.094,0.445L141.179,50.171z"/>
	<path fill="#63862D" d="M138.243,47.986c0,0-0.196,0.342-0.538,0.943c-0.171,0.297-0.378,0.659-0.62,1.078
		c-0.245,0.53-0.521,1.128-0.825,1.784c-0.319,0.634-0.471,1.407-0.711,2.167c-0.12,0.376-0.137,0.835-0.203,1.262
		c-0.049,0.435-0.129,0.865-0.079,1.338c0.029,0.463,0.03,0.931,0.107,1.391c0.108,0.454,0.221,0.91,0.331,1.371
		c0.325,0.875,0.706,1.711,1.188,2.439c0.468,0.739,0.988,1.417,1.517,2.02c0.525,0.617,1.053,1.176,1.568,1.723
		c1.011,1.077,1.972,2.054,2.701,2.956c0.389,0.436,0.703,0.866,0.982,1.249c0.295,0.377,0.529,0.72,0.694,1.015
		c0.362,0.591,0.566,0.925,0.566,0.925s-0.126-0.374-0.353-1.027c-0.098-0.338-0.253-0.733-0.462-1.17
		c-0.192-0.445-0.411-0.953-0.699-1.477c-0.535-1.081-1.27-2.268-2.022-3.538c-0.367-0.632-0.759-1.286-1.099-1.941
		c-0.354-0.659-0.658-1.328-0.894-1.987c-0.252-0.66-0.361-1.314-0.452-1.929c0-0.297-0.003-0.599-0.003-0.892
		c0.021-0.291,0.102-0.573,0.14-0.845c0.021-0.268,0.155-0.538,0.249-0.795c0.11-0.253,0.148-0.497,0.307-0.738
		c0.302-0.471,0.48-0.95,0.794-1.31c0.28-0.365,0.54-0.703,0.769-1.003c0.322-0.356,0.605-0.662,0.845-0.917
		c0.463-0.507,0.731-0.8,0.731-0.8L138.243,47.986z"/>
	<path fill="#63862D" d="M132.82,53.009c0,0,0.248-3.296,0.614-8.238c0.093-1.237,0.19-2.576,0.301-3.992
		c0.086-1.42,0.043-2.963,0.073-4.533c0.019-3.138,0.044-6.482,0.066-9.832c-0.176-3.315-0.347-6.631-0.51-9.741
		c-0.099-1.552-0.123-3.051-0.269-4.468c-0.158-1.418-0.305-2.757-0.441-3.99C132.104,3.284,131.74,0,131.74,0
		s0.015,3.304,0.037,8.256c0.007,1.236,0.014,2.572,0.019,3.987c-0.002,1.413-0.134,2.912-0.199,4.448
		c-0.167,3.079-0.347,6.361-0.521,9.644c-0.368,3.245-0.733,6.484-1.074,9.523c-0.188,1.517-0.295,2.969-0.533,4.364
		c-0.251,1.398-0.492,2.718-0.714,3.936c-0.89,4.875-1.482,8.126-1.482,8.126L132.82,53.009z"/>
	<path fill="#63862D" d="M130.99,51.793c0,0-0.042,0.601-0.117,1.657c-0.031,0.542-0.104,1.141-0.113,1.949
		c-0.015,0.786-0.068,1.684-0.055,2.63c0.029,0.945,0.008,1.964,0.082,3.034c0.051,1.077,0.13,2.198,0.246,3.348
		c0.209,2.304,0.526,4.716,0.779,7.088c0.111,1.187,0.226,2.37,0.271,3.533c0.072,1.163,0.055,2.302,0.018,3.411
		c-0.028,0.553-0.059,1.098-0.088,1.627c-0.063,0.534-0.127,1.054-0.185,1.559c-0.094,1.021-0.345,1.959-0.496,2.844
		c-0.177,0.879-0.427,1.668-0.603,2.38c-0.17,0.716-0.41,1.311-0.567,1.816c-0.337,1.001-0.533,1.574-0.533,1.574
		s0.273-0.538,0.756-1.486c0.229-0.474,0.558-1.038,0.829-1.728c0.28-0.686,0.648-1.445,0.961-2.309
		c0.279-0.869,0.672-1.799,0.922-2.828c0.141-0.512,0.282-1.038,0.426-1.577c0.111-0.548,0.227-1.106,0.342-1.675
		c0.205-1.138,0.392-2.338,0.497-3.548c0.124-1.214,0.185-2.448,0.25-3.677c0.094-2.452,0.122-4.862,0.244-7.086
		c0.05-1.114,0.139-2.18,0.228-3.182c0.074-1.004,0.234-1.936,0.329-2.806c0.119-0.857,0.277-1.613,0.385-2.294
		c0.101-0.654,0.271-1.319,0.376-1.828c0.228-1.037,0.355-1.625,0.355-1.625L130.99,51.793z"/>
	<path fill="#63862D" d="M129.935,52.735c0,0-0.053-3.031-0.142-7.576c-0.021-1.139-0.047-2.372-0.069-3.671
		c0.003-1.301-0.154-2.689-0.232-4.111c-0.191-2.852-0.399-5.889-0.605-8.931c-0.308-3.021-0.608-6.042-0.896-8.869
		c-0.265-2.834-0.586-5.465-0.849-7.729c-0.534-4.512-0.883-7.527-0.883-7.527s0.177,3.027,0.445,7.565
		c0.134,2.271,0.303,4.92,0.406,7.752c0.121,2.841,0.248,5.864,0.381,8.889c0.029,3.015,0.061,6.029,0.086,8.861
		c-0.006,1.412,0.072,2.768-0.003,4.075c-0.049,1.301-0.098,2.529-0.139,3.667c-0.18,4.541-0.296,7.57-0.296,7.57L129.935,52.735z"
		/>
	<path fill="#63862D" d="M129.451,51.375c0,0-0.027,0.034-0.076,0.098c-0.037,0.05-0.087,0.115-0.142,0.193
		c-0.146,0.206-0.301,0.478-0.413,0.794c-0.023,0.083-0.048,0.161-0.077,0.247l-0.022,0.128c-0.013,0.077-0.026,0.159-0.037,0.248
		c-0.025,0.168-0.051,0.368-0.047,0.503c-0.012,0.331,0,0.656,0.024,0.987c0.101,1.317,0.377,2.912,0.613,4.847
		c0.239,1.931,0.435,4.17,0.438,6.579c-0.005,2.407-0.186,4.983-0.653,7.529c-0.453,2.543-1.153,5.055-2.016,7.342
		c-0.435,1.145-0.89,2.239-1.381,3.254c-0.461,1.031-0.986,1.957-1.444,2.833c-0.512,0.847-0.938,1.646-1.388,2.312
		c-0.444,0.672-0.806,1.275-1.154,1.742c-0.67,0.939-1.056,1.48-1.056,1.48s0.437-0.497,1.199-1.377
		c0.394-0.426,0.816-0.992,1.323-1.622c0.522-0.622,1.032-1.381,1.627-2.186c0.554-0.835,1.18-1.726,1.752-2.726
		c0.603-0.978,1.177-2.052,1.736-3.18c1.123-2.262,2.109-4.789,2.852-7.403c0.747-2.609,1.215-5.309,1.469-7.856
		c0.251-2.542,0.275-4.942,0.229-6.971c-0.047-2.024-0.161-3.719-0.128-4.714c0.003-0.25,0.021-0.44,0.044-0.561
		c0.002-0.092,0.02-0.094,0.025-0.109l0.007-0.025c-0.002,0.001,0.004-0.021-0.005,0.001c-0.006,0.048-0.021,0.095-0.03,0.134
		c-0.062,0.177-0.164,0.321-0.263,0.415c-0.083,0.076-0.024,0.017-0.015,0.008l0.044-0.05c0.058-0.056,0.082-0.087,0.082-0.087
		L129.451,51.375z"/>
	<path fill="#63862D" d="M120.554,54.877c0,0-0.105-0.701-0.278-1.925c-0.064-0.601-0.26-1.392-0.461-2.276
		c-0.18-0.902-0.454-1.87-0.78-2.901c-0.288-1.051-0.702-2.147-1.122-3.312c-0.405-1.172-0.951-2.351-1.453-3.6
		c-0.568-1.216-1.11-2.492-1.748-3.743c-0.622-1.263-1.264-2.528-1.949-3.779c-2.676-5.025-5.705-9.824-7.986-13.407
		c-2.294-3.573-3.826-5.953-3.826-5.953s1.382,2.472,3.449,6.179c2.054,3.713,4.777,8.675,7.112,13.803
		c0.598,1.277,1.156,2.568,1.685,3.842c0.555,1.272,1.008,2.551,1.49,3.77c0.411,1.248,0.874,2.429,1.191,3.576
		c0.334,1.148,0.672,2.227,0.879,3.243c0.254,1.009,0.452,1.929,0.561,2.732c0.126,0.805,0.269,1.483,0.296,2.121
		c0.1,1.236,0.158,1.939,0.158,1.939L120.554,54.877z"/>
	<path fill="#63862D" d="M101.411,57.614c0,0-0.061,0.666-0.164,1.833c-0.118,1.169-0.279,2.735-0.605,4.668
		c-0.146,0.967-0.392,1.985-0.612,3.077c-0.299,1.07-0.545,2.228-0.949,3.371c-0.347,1.165-0.815,2.333-1.294,3.521
		c-0.505,1.199-1.065,2.309-1.652,3.578c-0.584,1.174-1.118,2.555-1.565,3.793c-0.438,1.272-0.828,2.535-1.156,3.758
		c-0.672,2.445-1.182,4.729-1.736,6.646c-0.279,0.959-0.551,1.832-0.854,2.583c-0.283,0.757-0.589,1.399-0.869,1.907
		c-0.27,0.516-0.522,0.897-0.711,1.151c-0.179,0.259-0.273,0.397-0.273,0.397s0.109-0.13,0.312-0.365
		c0.213-0.232,0.51-0.59,0.835-1.087c0.335-0.481,0.716-1.101,1.08-1.839c0.384-0.729,0.753-1.582,1.136-2.523
		c0.761-1.877,1.51-4.107,2.413-6.432c0.45-1.164,0.952-2.34,1.498-3.515c0.579-1.185,1.116-2.267,1.845-3.427
		c0.658-1.101,1.413-2.33,2.045-3.512c0.618-1.205,1.228-2.398,1.712-3.6c0.547-1.186,0.922-2.382,1.342-3.501
		c0.344-1.136,0.709-2.212,0.952-3.215c0.534-1.99,0.879-3.734,1.101-4.884c0.211-1.155,0.333-1.815,0.333-1.815L101.411,57.614z"/>
	<path fill="#63862D" d="M87.101,63.01c0,0-0.209-0.649-0.577-1.78c-0.171-0.563-0.454-1.276-0.741-2.074
		c-0.285-0.811-0.654-1.684-1.047-2.642c-0.792-1.92-1.809-4.105-2.97-6.406c-1.17-2.294-2.49-4.698-3.898-7.049
		c-0.69-1.198-1.448-2.344-2.273-3.445c-0.806-1.094-1.653-2.12-2.487-3.092c-1.68-1.946-3.327-3.681-4.752-5.143
		c-1.43-1.462-2.62-2.678-3.457-3.531c-0.818-0.866-1.286-1.363-1.286-1.363s0.438,0.526,1.206,1.437
		c0.78,0.902,1.896,2.187,3.237,3.733c1.334,1.544,2.872,3.363,4.411,5.38c0.767,1.014,1.539,2.073,2.259,3.186
		c0.722,1.088,1.408,2.255,2,3.468c1.228,2.417,2.366,4.871,3.36,7.203c0.984,2.333,1.83,4.536,2.471,6.443
		c0.313,0.959,0.619,1.834,0.831,2.606c0.221,0.784,0.435,1.43,0.568,2.023c0.289,1.157,0.457,1.815,0.457,1.815L87.101,63.01z"/>
	<path fill="#63862D" d="M86.086,62.476c0,0-0.198,0.051-0.476,0.191c-0.271,0.159-0.651,0.423-0.969,0.792
		c-0.338,0.367-0.595,0.879-0.801,1.509c-0.218,0.62-0.462,1.316-0.732,2.077c-0.525,1.524-1.118,3.302-1.735,5.216
		c-0.299,0.961-0.608,1.954-0.922,2.961c-0.301,1.014-0.634,2.033-0.886,3.08c-1.038,4.176-2.029,8.39-2.202,11.68
		c-0.107,1.629-0.074,3.025,0.179,3.974c0.117,0.473,0.294,0.823,0.437,1.032c0.154,0.201,0.243,0.302,0.243,0.302
		s-0.061-0.118-0.172-0.337c-0.087-0.225-0.179-0.579-0.193-1.033c-0.045-0.913,0.151-2.215,0.556-3.737
		c0.802-3.041,2.339-6.968,4.037-10.817c1.699-3.854,3.552-7.64,4.977-10.455c0.729-1.392,1.333-2.555,1.76-3.366
		c0.433-0.787,0.681-1.239,0.681-1.239L86.086,62.476z"/>
	<path fill="#63862D" d="M72.591,70.107c0,0-0.451-0.474-1.242-1.304c-0.795-0.824-2.023-2.034-3.483-3.353
		c-2.933-2.688-6.994-6.001-11.019-9.349c-1.017-0.836-1.999-1.696-3.135-2.433c-1.112-0.72-2.248-1.343-3.387-1.852
		c-2.279-1.015-4.521-1.662-6.462-2.018c-1.946-0.366-3.589-0.479-4.738-0.501c-0.571-0.012-1.024-0.004-1.33,0.015
		c-0.307,0.007-0.47,0.015-0.47,0.015s0.165,0.005,0.469,0.015c0.307,0.006,0.755,0.023,1.327,0.073
		c1.138,0.095,2.758,0.313,4.649,0.799c1.888,0.476,4.037,1.253,6.177,2.375c1.066,0.56,2.116,1.236,3.12,1.981
		c0.49,0.376,0.973,0.766,1.46,1.22c0.457,0.406,0.94,0.889,1.413,1.33c3.788,3.619,7.61,7.204,10.283,10.015
		c0.668,0.704,1.289,1.342,1.792,1.925c0.521,0.585,0.972,1.064,1.332,1.52c0.734,0.883,1.152,1.386,1.152,1.386L72.591,70.107z"/>
	<path fill="#63862D" d="M27.475,117.889c-0.003,0.003-0.385-0.055-0.995-0.166c-0.298-0.064-0.66-0.137-1.075-0.226
		c-0.437-0.098-0.931-0.214-1.471-0.333c-1.088-0.251-2.357-0.568-3.789-0.82c-0.367-0.057-0.739-0.11-1.116-0.168
		c-0.443-0.041-0.747-0.033-1.131-0.051c-0.83,0.008-1.646,0.049-2.44,0.225c-1.609,0.309-3.02,1.072-4.228,1.777
		c-1.211,0.719-2.307,1.395-3.287,1.922c-0.977,0.525-1.815,0.928-2.41,1.189c-0.597,0.258-0.939,0.404-0.939,0.404
		s0.361-0.096,0.99-0.269c0.631-0.173,1.521-0.454,2.579-0.84c1.057-0.389,2.27-0.913,3.548-1.442
		c1.278-0.522,2.629-1.005,3.983-1.059c0.681-0.053,1.355,0.017,1.986,0.092c0.751,0.133,1.338,0.253,2.001,0.414
		c1.294,0.326,2.526,0.732,3.589,1.059c0.538,0.164,1.03,0.32,1.47,0.453c0.425,0.134,0.867,0.247,1.199,0.342
		c0.662,0.17,1.01,0.242,1.01,0.242L27.475,117.889z"/>
	<path fill="#63862D" d="M39.656,95.853c0,0-0.545-0.184-1.504-0.51c-0.965-0.311-2.306-0.804-3.984-1.315
		c-1.674-0.509-3.605-1.163-5.725-1.693c-1.053-0.281-2.142-0.574-3.246-0.868c-1.119-0.246-2.252-0.497-3.385-0.747
		c-2.27-0.509-4.528-1.033-6.736-1.229c-2.193-0.215-4.299-0.105-6,0.384c-1.705,0.454-2.998,1.149-3.882,1.638
		c-0.883,0.494-1.367,0.814-1.367,0.814s0.508-0.279,1.426-0.699c0.915-0.407,2.249-0.986,3.931-1.289
		c1.674-0.329,3.672-0.265,5.763,0.113c2.087,0.367,4.292,1.061,6.491,1.708c1.101,0.328,2.202,0.654,3.286,0.979
		c1.064,0.365,2.114,0.728,3.132,1.079c2.042,0.666,3.892,1.445,5.494,2.057c1.597,0.612,2.927,1.209,3.861,1.586
		c0.933,0.393,1.463,0.613,1.463,0.613L39.656,95.853z"/>
	<path fill="#63862D" d="M113.061,55.19c0,0-0.236-0.683-0.651-1.873c-0.42-1.177-1.077-2.96-1.895-4.97
		c-1.628-4.064-3.963-9.383-6.532-14.586c-2.575-5.196-5.344-10.305-7.742-13.938c-0.609-0.901-1.146-1.738-1.702-2.431
		c-0.515-0.72-1.015-1.309-1.451-1.771c-0.401-0.495-0.81-0.796-1.066-1.016c-0.258-0.215-0.395-0.333-0.395-0.333
		s0.129,0.132,0.364,0.37c0.237,0.243,0.606,0.567,0.955,1.095c0.393,0.496,0.832,1.114,1.274,1.872
		c0.483,0.728,0.938,1.607,1.46,2.546c2.036,3.801,4.311,9.091,6.381,14.446c2.063,5.362,3.889,10.809,5.114,14.915
		c0.625,2.063,1.065,3.715,1.38,4.952c0.309,1.224,0.484,1.924,0.484,1.924L113.061,55.19z"/>
	<path fill="#63862D" d="M105.222,58.086c0,0,0.024,0.143,0.069,0.413c0.021,0.127,0.047,0.286,0.076,0.468
		c0.013,0.124,0.028,0.267,0.043,0.426c0.025,0.357,0.051,0.913,0.015,1.536c-0.021,0.63-0.087,1.366-0.195,2.179
		c-0.411,3.262-1.538,7.742-2.962,12.133c-1.41,4.401-3.103,8.738-4.535,11.914c-0.716,1.589-1.374,2.885-1.897,3.754
		c-0.26,0.435-0.489,0.762-0.672,0.961c-0.174,0.209-0.315,0.268-0.309,0.277c-0.007-0.01,0.142-0.047,0.353-0.232
		c0.214-0.174,0.498-0.47,0.822-0.867c0.658-0.795,1.517-1.994,2.471-3.473c1.916-2.961,4.262-7.043,6.361-11.281
		c2.11-4.232,3.968-8.62,4.987-12.21c0.26-0.894,0.469-1.74,0.617-2.519c0.159-0.788,0.246-1.468,0.302-2.127
		c0.017-0.352,0.026-0.664,0.036-0.937c0.002-0.21-0.001-0.388-0.004-0.536c-0.006-0.271-0.008-0.419-0.008-0.419L105.222,58.086z"
		/>
	<path fill="#63862D" d="M137.688,51.573c0,0-0.013-0.609-0.029-1.679c-0.011-0.533-0.023-1.182-0.033-1.926
		c-0.007-0.736-0.045-1.599-0.028-2.489c0.046-0.869,0.097-1.812,0.15-2.809c0.045-1.001,0.097-2.064,0.244-3.185
		c0.227-2.228,0.542-4.645,0.887-7.068c0.147-1.223,0.295-2.451,0.439-3.658c0.17-1.196,0.176-2.421,0.263-3.576
		c0.036-0.58,0.07-1.146,0.104-1.703c-0.011-0.557-0.022-1.104-0.033-1.637c-0.026-1.061-0.052-2.062-0.074-2.986
		c-0.031-0.922-0.185-1.762-0.254-2.508c-0.088-0.738-0.166-1.384-0.229-1.919c-0.127-1.059-0.195-1.664-0.195-1.664
		s-0.02,0.61-0.046,1.682c-0.011,0.533-0.026,1.182-0.049,1.923c-0.033,0.738-0.001,1.575-0.101,2.479
		c-0.109,0.899-0.222,1.876-0.346,2.912c-0.063,0.511-0.13,1.038-0.195,1.577c-0.11,0.532-0.22,1.076-0.338,1.634
		c-0.249,1.103-0.414,2.242-0.749,3.392c-0.307,1.154-0.624,2.319-0.938,3.484c-0.683,2.345-1.345,4.702-1.914,6.977
		c-0.311,1.118-0.537,2.245-0.741,3.329c-0.211,1.078-0.412,2.1-0.596,3.042c-0.156,0.928-0.232,1.749-0.336,2.494
		c-0.094,0.737-0.171,1.38-0.241,1.912c-0.136,1.061-0.211,1.665-0.211,1.665L137.688,51.573z"/>
	<path fill="#3F5824" d="M136.725,34.672c0.463,3.006-0.193,6.354,0.916,9.206c4.809-1.668,7.672-6.5,12.453-8.525
		c-3.403,2.792-14.496,9.066-11.283,14.669c-1.843,0.398-3.97,0.918-5.926,0.943c1.57-1.021,1.848-4.064,3.253-6.042
		C136.138,44.923,136.268,37.346,136.725,34.672z"/>
	<path fill="#63862D" d="M133.469,51.139c0,0,0.012,0.458,0.038,1.258c0.013,0.399,0.026,0.887,0.046,1.441
		c0.041,0.591,0.086,1.259,0.135,1.987c0.035,0.731,0.142,1.49,0.229,2.301c0.076,0.812,0.22,1.654,0.35,2.526
		c0.273,1.744,0.648,3.581,1.078,5.385c0.847,3.614,1.938,7.084,2.34,9.743c0.121,0.666,0.162,1.279,0.202,1.822
		c0.035,0.552-0.007,1.027-0.008,1.428c-0.102,0.785-0.159,1.236-0.159,1.236s0.146-0.437,0.399-1.2
		c0.072-0.394,0.21-0.874,0.282-1.435c0.068-0.561,0.148-1.201,0.155-1.898c0.114-2.802-0.308-6.483-0.441-10.082
		c-0.075-1.799-0.092-3.588-0.029-5.251c0.033-0.83,0.052-1.628,0.128-2.386c0.063-0.751,0.101-1.475,0.195-2.108
		c0.08-0.64,0.15-1.223,0.215-1.741c0.088-0.547,0.167-1.028,0.228-1.421c0.13-0.794,0.202-1.243,0.202-1.243L133.469,51.139z"/>
	<path fill="#3F5824" d="M136.662,52.604c1.482,0.164,0.334,0.125,1.757,0.104c-0.322,1.894-0.645,3.791,0.022,5.593
		c-0.283-0.404-0.656-0.823-0.928-1.312c0.112,1.437-0.113,3.261-0.692,4.584c-0.455-0.964-0.425-2.203-1.038-3.282
		c-2.52,1.256-3.498,5.438-4.371,7.949c0.414-2.415,1.067-4.699,1.896-6.953c0.448-1.077,2.386-2.101,2.49-3.239
		c0.048-1.321,1.037-2.056-0.523-3.832L136.662,52.604z"/>
	<path fill="#63862D" d="M118.159,53.651c0,0-0.266-0.784-0.73-2.157c-0.233-0.685-0.515-1.518-0.841-2.474
		c-0.288-0.948-0.744-2.045-1.249-3.238c-0.5-1.188-1.035-2.473-1.603-3.833c-0.6-1.336-1.295-2.682-1.978-4.104
		c-0.679-1.419-1.4-2.876-2.212-4.306c-0.798-1.444-1.6-2.903-2.402-4.37c-0.854-1.427-1.708-2.858-2.552-4.267
		c-0.82-1.417-1.704-2.764-2.541-4.082c-1.655-2.639-3.283-5.042-4.682-7.096c-1.37-2.073-2.602-3.74-3.43-4.928
		c-0.835-1.186-1.311-1.861-1.311-1.861s0.402,0.722,1.109,1.986c0.69,1.27,1.738,3.055,2.886,5.257
		c1.169,2.185,2.527,4.736,3.882,7.514c0.69,1.385,1.421,2.806,2.081,4.286c0.683,1.472,1.371,2.965,2.059,4.458
		c0.635,1.513,1.268,3.028,1.893,4.518c0.647,1.479,1.192,2.962,1.706,4.405c0.511,1.44,1.054,2.823,1.482,4.139
		c0.393,1.314,0.765,2.556,1.105,3.701c0.353,1.134,0.667,2.173,0.863,3.184c0.221,0.987,0.414,1.844,0.571,2.549
		c0.316,1.414,0.497,2.221,0.497,2.221L118.159,53.651z"/>
	<path fill="#63862D" d="M42.826,90.983c0,0,0.014,0.365,0.045,0.998c0.018,0.629,0.104,1.566,0.057,2.588
		c-0.008,0.527-0.017,1.094-0.026,1.693c-0.041,0.615-0.084,1.262-0.129,1.93c-0.063,1.341-0.262,2.77-0.417,4.205
		c-0.199,1.43-0.383,2.865-0.622,4.199c-0.209,1.341-0.449,2.59-0.652,3.658c-0.426,2.137-0.712,3.561-0.712,3.561
		s0.455-1.381,1.138-3.451c0.329-1.043,0.72-2.256,1.092-3.571c0.396-1.308,0.757-2.721,1.133-4.136
		c0.329-1.43,0.703-2.846,0.94-4.209c0.131-0.68,0.251-1.34,0.369-1.961c0.087-0.645,0.17-1.25,0.248-1.81
		c0.179-1.144,0.203-2.024,0.261-2.664c0.046-0.634,0.072-0.997,0.072-0.997L42.826,90.983z"/>
	<path fill="#63862D" d="M125.013,52.526c0,0-0.861-3.574-2.14-8.933c-0.322-1.347-0.735-2.817-1.146-4.358
		c-0.463-1.545-0.924-3.173-1.518-4.834c-0.273-0.839-0.576-1.681-0.923-2.525c-0.347-0.839-0.638-1.708-1.048-2.547
		c-0.391-0.844-0.784-1.688-1.178-2.542l-1.336-2.483c-0.969-1.614-1.914-3.238-3.034-4.705c-1.04-1.522-2.224-2.895-3.338-4.228
		c-1.155-1.308-2.333-2.509-3.446-3.638c-1.179-1.071-2.249-2.121-3.299-3.021c-1.068-0.875-2.04-1.679-2.906-2.394
		c-0.873-0.7-1.68-1.254-2.32-1.741c-1.29-0.953-2.022-1.497-2.022-1.497s0.68,0.617,1.873,1.685
		c0.589,0.54,1.331,1.168,2.131,1.946c0.786,0.785,1.675,1.672,2.64,2.638c0.951,0.982,1.909,2.115,2.955,3.268
		c0.983,1.207,2.014,2.487,3.007,3.855c0.956,1.395,1.962,2.815,2.817,4.365c0.934,1.498,1.682,3.129,2.449,4.733l1.032,2.458
		c0.293,0.838,0.587,1.671,0.877,2.496c0.311,0.814,0.506,1.672,0.756,2.49c0.254,0.819,0.46,1.643,0.642,2.464
		c0.411,1.618,0.702,3.222,1,4.731c0.254,1.528,0.517,2.96,0.703,4.309c0.765,5.426,1.27,9.044,1.27,9.044L125.013,52.526z"/>
	<path fill="#63862D" d="M117.18,53.935c0,0-0.047,0.778-0.13,2.142c-0.052,0.653-0.075,1.479-0.179,2.344
		c-0.07,0.868-0.244,1.865-0.436,2.957c-0.217,1.162-0.455,2.423-0.703,3.754c-0.232,1.329-0.476,2.729-0.727,4.179
		c-0.246,1.436-0.499,2.91-0.797,4.394c-0.294,1.483-0.612,2.982-1.001,4.466c-0.366,1.485-0.802,2.952-1.28,4.38
		c-0.464,1.439-1.014,2.822-1.546,4.158c-0.579,1.322-1.129,2.609-1.741,3.786c-0.57,1.204-1.201,2.29-1.762,3.315
		c-0.545,1.027-1.144,1.914-1.622,2.729c-0.483,0.819-0.954,1.499-1.329,2.066c-0.759,1.139-1.191,1.787-1.191,1.787
		s0.503-0.599,1.38-1.645c0.437-0.525,0.983-1.156,1.554-1.92c0.568-0.762,1.267-1.588,1.929-2.561
		c0.676-0.961,1.434-1.991,2.142-3.145c0.752-1.131,1.456-2.37,2.199-3.658c0.696-1.307,1.415-2.668,2.057-4.094
		c0.658-1.416,1.271-2.892,1.818-4.381c0.569-1.485,1.07-2.998,1.535-4.483c0.472-1.485,0.893-2.955,1.299-4.364
		c0.403-1.397,0.794-2.75,1.166-4.033c0.387-1.267,0.752-2.464,1.089-3.571c0.365-1.179,0.696-2.267,0.919-3.279
		c0.24-1,0.367-1.826,0.514-2.523c0.25-1.342,0.396-2.106,0.396-2.106L117.18,53.935z"/>
	<path fill="#63862D" d="M120.438,54.477c0,0,0.02,0.178,0.056,0.506c0.024,0.309,0.09,0.839,0.184,1.525
		c0.081,0.596,0.185,1.313,0.297,2.14c0.098,0.792,0.165,1.672,0.2,2.639c0.013,0.943-0.035,2.066-0.126,3.102
		c-0.082,0.595-0.169,1.206-0.256,1.833c-0.11,0.579-0.221,1.17-0.333,1.775c-0.53,2.473-1.337,5.107-2.289,7.714
		c-1.9,5.219-4.316,10.321-6.101,14.146c-1.803,3.824-3.007,6.374-3.007,6.374s1.501-2.386,3.752-5.967
		c2.232-3.592,5.253-8.362,7.848-13.47c1.292-2.553,2.474-5.192,3.371-7.802c0.225-0.654,0.422-1.334,0.627-1.986
		c0.16-0.619,0.326-1.226,0.479-1.813c0.313-1.348,0.514-2.504,0.66-3.665c0.119-1.143,0.182-2.196,0.198-3.114
		c0-0.884-0.002-1.656,0-2.292c0.001-0.542,0.002-0.978,0.02-1.327c0.01-0.329,0.016-0.506,0.016-0.506L120.438,54.477z"/>
	<path fill="#63862D" d="M130.186,52.038c0,0-0.18-0.749-0.491-2.056c-0.326-1.324-0.723-3.134-1.204-5.365
		c-0.963-4.472-2.03-10.523-3.439-16.576c-0.344-1.51-0.742-3.02-1.139-4.494c-0.438-1.471-0.832-2.922-1.344-4.297
		c-0.455-1.387-1.004-2.693-1.518-3.93c-0.554-1.215-1.085-2.364-1.658-3.377c-0.589-1.009-1.083-1.953-1.649-2.712
		c-0.543-0.772-0.97-1.473-1.424-1.977c-0.855-1.042-1.344-1.634-1.344-1.634s0.418,0.645,1.146,1.774
		c0.39,0.543,0.732,1.287,1.175,2.098c0.469,0.806,0.846,1.79,1.307,2.826c0.443,1.049,0.83,2.225,1.234,3.458
		c0.357,1.252,0.74,2.567,1.027,3.96c0.341,1.374,0.562,2.834,0.822,4.298c0.223,1.479,0.441,2.979,0.607,4.491
		c0.693,6.039,1.068,12.174,1.528,16.8c0.226,2.313,0.429,4.292,0.595,5.605c0.164,1.332,0.254,2.098,0.254,2.098L130.186,52.038z"
		/>
	<path fill="#63862D" d="M124.503,52.955c0,0,0.236,2.393,0.592,5.98c0.038,0.438,0.105,0.916,0.123,1.376
		c0.013,0.452,0.024,0.918,0.032,1.4c0.013,0.48,0.024,0.977,0.04,1.487c-0.051,0.505-0.105,1.025-0.159,1.545
		c-0.055,0.531-0.108,1.07-0.166,1.612l-0.044,0.414c0.009,0.043-0.046,0.26-0.068,0.383l-0.179,0.869
		c-0.21,1.198-0.51,2.293-0.793,3.424c-0.286,1.129-0.664,2.268-0.993,3.392c-0.389,1.1-0.746,2.201-1.143,3.246
		c-0.417,1.036-0.796,2.057-1.208,2.998c-0.425,0.94-0.826,1.826-1.195,2.646c-0.413,0.805-0.788,1.538-1.121,2.189
		c-0.322,0.665-0.681,1.191-0.936,1.653c-0.536,0.912-0.841,1.434-0.841,1.434s0.377-0.473,1.04-1.296
		c0.318-0.423,0.762-0.899,1.173-1.511c0.429-0.605,0.911-1.287,1.439-2.031c0.496-0.771,1.028-1.604,1.592-2.484
		c0.556-0.885,1.083-1.862,1.663-2.852c0.553-1.001,1.086-2.064,1.65-3.135c0.497-1.102,1.052-2.19,1.527-3.345
		c0.479-1.156,0.98-2.335,1.351-3.443l0.296-0.836c0.057-0.163,0.089-0.228,0.16-0.469l0.114-0.446
		c0.154-0.6,0.305-1.193,0.451-1.775c0.146-0.585,0.292-1.162,0.434-1.729c0.067-0.579,0.141-1.143,0.208-1.693
		c0.065-0.557,0.133-1.093,0.193-1.612c0.053-0.52,0.056-0.982,0.082-1.447c0.168-3.644,0.28-6.07,0.28-6.07L124.503,52.955z"/>
	<path fill="#63862D" d="M92.472,61.712c0,0-1.327-2.817-3.316-7.047c-0.499-1.056-1.034-2.204-1.608-3.419
		c-0.549-1.211-1.216-2.495-1.885-3.817c-0.683-1.323-1.329-2.7-2.174-4.04c-0.842-1.337-1.55-2.761-2.514-4.043
		c-0.947-1.283-1.895-2.566-2.829-3.826c-1.059-1.15-2.103-2.281-3.109-3.372c-0.955-1.137-2.114-1.999-3.102-2.915
		c-1.014-0.888-1.971-1.729-2.853-2.506c-3.76-2.788-6.267-4.644-6.267-4.644s2.272,2.118,5.683,5.294
		c0.779,0.857,1.623,1.789,2.515,2.773c0.863,1,1.893,1.959,2.69,3.161c0.847,1.156,1.721,2.346,2.61,3.558
		c0.747,1.295,1.507,2.609,2.267,3.922c0.77,1.303,1.295,2.756,1.943,4.092c0.648,1.334,1.131,2.753,1.638,4.093
		c0.503,1.344,0.997,2.628,1.411,3.908c0.431,1.264,0.835,2.455,1.209,3.561c1.501,4.421,2.504,7.369,2.504,7.369L92.472,61.712z"/>
	<path fill="#63862D" d="M88.762,62.561c0,0,0.068,0.517,0.189,1.426c0.001,0.368-0.049,0.71-0.04,1.182
		c-0.063,0.521-0.181,1.186-0.304,1.884c-0.202,0.71-0.347,1.485-0.63,2.316c-0.261,0.824-0.542,1.698-0.883,2.602
		c-0.647,1.812-1.438,3.744-2.211,5.69c-0.773,1.95-1.563,3.897-2.196,5.777c-0.662,1.864-1.154,3.662-1.467,5.22
		c-0.102,0.797-0.27,1.502-0.273,2.153c-0.001,0.65-0.066,1.208-0.005,1.665c0.132,0.909,0.214,1.427,0.214,1.427
		s-0.015-0.518-0.033-1.428c-0.004-0.452,0.129-0.998,0.206-1.619c0.083-0.614,0.34-1.295,0.527-2.037
		c0.495-1.467,1.183-3.134,2.056-4.871c0.844-1.742,1.864-3.559,2.867-5.389c1.011-1.831,2.041-3.656,2.944-5.44
		c0.466-0.881,0.881-1.763,1.269-2.611c0.407-0.832,0.695-1.7,1.012-2.465c0.264-0.818,0.49-1.552,0.668-2.276
		c0.131-0.796,0.246-1.552,0.285-2.092c-0.007-0.916-0.01-1.438-0.01-1.438L88.762,62.561z"/>
	<path fill="#63862D" d="M109.04,56.545c0,0-0.121-0.75-0.329-2.061c-0.052-0.328-0.109-0.692-0.168-1.089
		c-0.111-0.434-0.23-0.909-0.353-1.415c-0.246-1.013-0.526-2.148-0.975-3.271c-0.211-0.571-0.415-1.172-0.657-1.782
		c-0.275-0.59-0.559-1.205-0.852-1.832c-0.277-0.634-0.603-1.266-0.977-1.882c-0.361-0.626-0.713-1.273-1.103-1.908
		c-0.836-1.235-1.658-2.525-2.634-3.721c-0.918-1.248-1.978-2.392-2.988-3.567c-1.074-1.119-2.12-2.257-3.224-3.29
		c-1.072-1.066-2.188-2.051-3.239-3.017c-2.149-1.9-4.182-3.615-5.938-5.068c-3.494-2.922-5.818-4.869-5.818-4.869
		s2.087,2.201,5.225,5.506c1.573,1.645,3.388,3.576,5.277,5.68c0.923,1.075,1.899,2.157,2.82,3.312
		c0.954,1.125,1.827,2.334,2.73,3.516c0.831,1.228,1.705,2.424,2.419,3.678c0.784,1.216,1.389,2.494,2.024,3.693
		c0.283,0.619,0.53,1.232,0.788,1.828c0.271,0.59,0.494,1.18,0.67,1.767c0.194,0.581,0.382,1.141,0.562,1.689
		c0.134,0.555,0.261,1.091,0.385,1.605c0.282,1.037,0.387,1.952,0.487,2.753c0.06,0.398,0.111,0.773,0.16,1.121
		c0.018,0.399,0.036,0.764,0.048,1.096c0.055,1.329,0.087,2.084,0.087,2.084L109.04,56.545z"/>
	<path fill="#63862D" d="M112.641,55.05c0,0-0.002,0.164-0.014,0.47c-0.004,0.147-0.008,0.333-0.013,0.548
		c-0.013,0.182-0.023,0.395-0.041,0.631c-0.032,0.471-0.099,1.149-0.196,1.896c-0.093,0.755-0.225,1.613-0.377,2.555
		c-0.629,3.753-1.679,8.851-3.094,13.761c-0.737,2.4-1.658,4.915-2.446,7.193c-0.81,2.303-1.589,4.438-2.292,6.256
		c-0.702,1.816-1.334,3.313-1.833,4.33c-0.253,0.506-0.47,0.896-0.647,1.14c-0.176,0.25-0.315,0.342-0.315,0.342
		s0.149-0.075,0.362-0.302c0.211-0.226,0.483-0.586,0.8-1.064c0.636-0.957,1.457-2.372,2.394-4.093
		c0.938-1.724,1.99-3.755,3.093-5.94c1.106-2.211,2.262-4.468,3.408-6.912c2.169-4.861,3.926-9.794,5.133-13.62
		c0.296-0.959,0.56-1.843,0.776-2.642c0.224-0.813,0.393-1.489,0.53-2.144c0.141-0.67,0.231-1.166,0.272-1.443
		c0.046-0.3,0.072-0.459,0.072-0.459L112.641,55.05z"/>
	<path fill="#63862D" d="M101.626,58.694c0,0-0.338-0.644-0.929-1.771c-0.6-1.144-1.364-2.662-2.32-4.637
		c-0.948-1.969-2.06-4.262-3.247-6.718c-1.216-2.467-2.577-5.086-4.049-7.651c-0.778-1.265-1.514-2.542-2.354-3.741
		c-0.786-1.226-1.677-2.36-2.515-3.466c-0.901-1.06-1.729-2.12-2.643-3.004c-0.446-0.45-0.884-0.886-1.306-1.309
		c-0.428-0.417-0.887-0.768-1.301-1.134c-0.425-0.354-0.815-0.708-1.214-1.012c-0.412-0.289-0.801-0.563-1.168-0.822
		c-0.718-0.531-1.364-0.953-1.935-1.25c-1.107-0.632-1.742-0.99-1.742-0.99s0.585,0.434,1.606,1.189
		c0.523,0.356,1.108,0.854,1.752,1.456c0.324,0.293,0.67,0.607,1.035,0.937c0.352,0.343,0.691,0.734,1.06,1.125
		c0.361,0.401,0.759,0.792,1.126,1.242c0.354,0.457,0.723,0.93,1.103,1.414c0.769,0.951,1.442,2.07,2.182,3.18
		c0.671,1.159,1.387,2.333,1.998,3.599c0.664,1.235,1.224,2.561,1.817,3.852c1.116,2.633,2.127,5.319,3.019,7.87
		c0.883,2.574,1.704,4.974,2.412,7.038c0.696,2.051,1.357,3.868,1.801,5.042C96.27,60.316,96.526,61,96.526,61L101.626,58.694z"/>
	<path fill="#63862D" d="M95.859,58.848c0,0-0.048,0.567-0.132,1.56c-0.094,0.953-0.236,2.299-0.454,3.968
		c-0.446,3.321-1.202,7.752-2.232,12.127c-0.277,1.086-0.522,2.189-0.835,3.244c-0.285,1.068-0.598,2.115-0.921,3.113
		c-0.631,2.012-1.344,3.848-2.022,5.389c-0.374,0.753-0.671,1.479-1.026,2.064c-0.345,0.586-0.619,1.127-0.906,1.531
		c-0.572,0.809-0.904,1.27-0.904,1.27s0.401-0.408,1.096-1.122c0.352-0.361,0.703-0.859,1.149-1.396
		c0.451-0.543,0.857-1.219,1.358-1.926c0.93-1.454,1.941-3.203,2.896-5.141c0.486-0.963,0.966-1.975,1.423-3.01
		c0.483-1.027,0.899-2.102,1.357-3.16c1.732-4.273,3.198-8.653,4.184-11.989c0.485-1.66,0.869-3.102,1.121-4.103
		c0.239-0.968,0.37-1.52,0.37-1.52L95.859,58.848z"/>
	<path fill="#63862D" d="M104.546,57.607c0,0-0.152-0.561-0.603-1.444c-0.23-0.443-0.551-0.96-0.837-1.54
		c-0.299-0.59-0.667-1.231-1.012-1.994c-0.729-1.494-1.483-3.294-2.276-5.259c-0.791-1.965-1.623-4.1-2.6-6.194
		c-0.481-1.048-1.035-2.069-1.592-3.064c-0.605-0.97-1.18-1.935-1.854-2.788c-0.619-0.89-1.331-1.663-1.981-2.405
		c-0.667-0.729-1.369-1.351-1.977-1.955c-0.657-0.547-1.257-1.055-1.793-1.5c-0.526-0.451-1.043-0.773-1.438-1.072
		c-0.809-0.583-1.266-0.913-1.266-0.913s0.421,0.376,1.163,1.036c0.36,0.339,0.842,0.708,1.314,1.205
		c0.479,0.495,1.021,1.049,1.61,1.655c0.537,0.655,1.151,1.325,1.729,2.097c0.557,0.783,1.183,1.579,1.701,2.486
		c0.576,0.867,1.046,1.842,1.543,2.812c0.452,0.997,0.893,2.014,1.27,3.063c0.771,2.093,1.404,4.251,2.023,6.29
		c0.63,2.043,1.244,3.965,1.873,5.593c0.285,0.818,0.633,1.571,0.902,2.233c0.277,0.683,0.53,1.229,0.769,1.659
		c0.482,0.867,0.86,1.31,0.86,1.31L104.546,57.607z"/>
	<path fill="#63862D" d="M84.871,63.8c0,0-0.339-0.621-0.923-1.71c-0.303-0.548-0.653-1.206-0.994-1.931
		c-0.357-0.735-0.776-1.542-1.195-2.504c-0.87-1.882-1.819-4.147-2.868-6.593c-0.541-1.226-1.064-2.499-1.684-3.784
		c-0.582-1.288-1.264-2.581-1.939-3.863c-0.748-1.262-1.473-2.525-2.349-3.68c-0.404-0.595-0.842-1.16-1.319-1.69
		c-0.482-0.524-0.888-1.088-1.404-1.548c-0.502-0.468-0.99-0.931-1.473-1.381c-0.488-0.438-1.036-0.789-1.527-1.171
		c-0.965-0.79-2.041-1.296-2.961-1.85c-0.926-0.548-1.873-0.857-2.656-1.227c-0.779-0.375-1.524-0.553-2.111-0.75
		c-1.182-0.367-1.854-0.578-1.854-0.578s0.642,0.291,1.764,0.801c0.556,0.268,1.261,0.527,1.98,0.991
		c0.719,0.461,1.596,0.864,2.424,1.507c0.818,0.644,1.774,1.245,2.589,2.108c0.419,0.416,0.886,0.802,1.288,1.271
		c0.396,0.471,0.801,0.955,1.205,1.446c0.426,0.478,0.738,1.062,1.116,1.591c0.38,0.531,0.717,1.104,1.018,1.701
		c0.673,1.153,1.199,2.423,1.746,3.67c0.486,1.285,0.974,2.561,1.374,3.868c0.435,1.285,0.792,2.602,1.172,3.854
		c0.729,2.536,1.399,4.929,2.058,6.994c0.305,1.022,0.661,1.999,0.951,2.852c0.291,0.876,0.564,1.585,0.788,2.148
		c0.454,1.152,0.708,1.812,0.708,1.812L84.871,63.8z"/>
	<path fill="#63862D" d="M66.526,71.526c0,0-0.064,0.411-0.181,1.134c-0.05,0.365-0.131,0.794-0.186,1.31
		c-0.041,0.528-0.087,1.129-0.136,1.782c-0.063,0.664-0.051,1.324-0.081,2.051c-0.022,0.712-0.044,1.463-0.069,2.24
		c-0.027,1.547-0.204,3.166-0.424,4.806c-0.456,3.263-1.187,6.507-1.992,8.862c-0.38,1.188-0.788,2.151-1.071,2.822
		c-0.313,0.662-0.492,1.041-0.492,1.041s0.234-0.352,0.641-0.957c0.383-0.633,0.934-1.532,1.491-2.673
		c1.123-2.272,2.321-5.464,3.115-8.769c0.411-1.645,0.74-3.336,0.978-4.91c0.21-1.555,0.402-3.004,0.571-4.244
		c0.075-0.597,0.146-1.141,0.209-1.624c0.082-0.5,0.156-0.938,0.212-1.295c0.114-0.726,0.177-1.139,0.177-1.139L66.526,71.526z"/>
	<path fill="#63862D" d="M47.359,86.484c0,0-0.007,0.315-0.019,0.87c-0.015,0.551-0.013,1.354-0.079,2.265
		c-0.082,1.823-0.325,4.374-0.524,6.896c-0.189,2.531-0.388,5.068-0.357,6.984c0.009,0.477-0.019,0.908,0.014,1.3
		c0.03,0.386,0.055,0.725,0.077,1.003c0.04,0.553,0.067,0.863,0.067,0.863s0.02-0.313,0.054-0.865
		c0.018-0.278,0.038-0.611,0.062-0.993c0.016-0.382,0.105-0.813,0.166-1.278c0.229-1.873,0.768-4.342,1.298-6.808
		c0.552-2.476,1.128-4.914,1.49-6.853c0.209-0.968,0.313-1.736,0.404-2.288c0.087-0.546,0.133-0.858,0.133-0.858L47.359,86.484z"/>
	<path fill="#63862D" d="M77.048,67.849c0,0-0.339-0.607-0.935-1.671c-0.604-1.068-1.472-2.59-2.564-4.392
		c-2.184-3.6-5.261-8.336-8.935-12.63c-1.833-2.148-3.832-4.171-5.885-5.857c-2.065-1.672-4.198-3.005-6.188-3.765
		c-0.984-0.405-1.932-0.653-2.775-0.804c-0.845-0.151-1.587-0.224-2.2-0.203c-0.606-0.017-1.084,0.044-1.405,0.087
		c-0.321,0.035-0.495,0.055-0.495,0.055s0.174,0.003,0.498,0.005c0.323,0.002,0.798-0.001,1.388,0.091
		c0.594,0.057,1.305,0.22,2.09,0.463c0.785,0.25,1.65,0.599,2.529,1.098c1.779,0.951,3.614,2.459,5.355,4.273
		c1.733,1.833,3.376,3.98,4.854,6.241c2.967,4.516,5.33,9.418,6.985,13.135c0.825,1.862,1.475,3.437,1.922,4.534
		c0.451,1.115,0.706,1.747,0.706,1.747L77.048,67.849z"/>
	<path fill="#63862D" d="M78.315,66.311c0,0-0.326,0.363-0.735,1.072c-0.175,0.406-0.405,0.898-0.61,1.484
		c-0.184,0.558-0.392,1.19-0.614,1.88c-0.865,2.74-1.832,6.39-2.771,10.034c-0.936,3.645-1.872,7.287-2.573,10.021
		c-0.364,1.358-0.68,2.491-0.956,3.262c-0.136,0.388-0.24,0.694-0.354,0.878c-0.104,0.198-0.159,0.303-0.159,0.303
		s0.066-0.1,0.193-0.281c0.136-0.178,0.274-0.472,0.455-0.839c0.362-0.747,0.804-1.841,1.324-3.149
		c1.022-2.637,2.297-6.184,3.592-9.711c1.296-3.527,2.618-7.041,3.709-9.6c0.555-1.299,1.031-2.29,1.368-2.966
		c0.402-0.719,0.626-1.127,0.626-1.127L78.315,66.311z"/>
	<path fill="#63862D" d="M80.363,66.029c0,0-0.375-0.642-1.029-1.778c-0.313-0.563-0.764-1.261-1.246-2.052
		c-0.467-0.777-1-1.655-1.579-2.611c-0.59-0.94-1.137-1.979-1.731-3.077c-0.608-1.079-1.195-2.347-1.868-3.586
		c-1.346-2.535-2.897-5.142-4.681-7.621c-1.798-2.467-3.828-4.783-6.046-6.606c-2.202-1.851-4.563-3.146-6.627-4.043
		c-2.071-0.901-3.805-1.556-4.923-2.223c-0.563-0.324-0.979-0.622-1.257-0.837c-0.27-0.221-0.414-0.339-0.414-0.339
		s0.136,0.13,0.386,0.375c0.256,0.237,0.65,0.575,1.19,0.947c1.073,0.771,2.776,1.591,4.735,2.645
		c1.956,1.06,4.106,2.495,6.044,4.429c1.958,1.914,3.698,4.279,5.21,6.779c1.497,2.509,2.789,5.167,3.858,7.677
		c0.535,1.291,1.052,2.542,1.543,3.723c0.512,1.219,0.99,2.378,1.499,3.386c0.488,1.012,0.934,1.941,1.331,2.764
		c0.391,0.805,0.741,1.476,1.009,2.082c0.543,1.192,0.852,1.869,0.852,1.869L80.363,66.029z"/>
	<path fill="#63862D" d="M79.405,65.891c0,0,0.009,0.09,0.034,0.264c0.007-0.069,0.023,0.268-0.004,0.616
		c-0.043,0.739-0.188,1.903-0.454,3.277c-0.133,0.687-0.293,1.43-0.492,2.203c-0.101,0.384-0.21,0.774-0.33,1.165
		c-0.135,0.413-0.272,0.831-0.413,1.256c-0.294,0.857-0.581,1.785-0.861,2.747c-0.269,0.95-0.534,1.904-0.763,2.868
		c-0.964,3.852-1.5,7.725-2.452,10.44c-0.232,0.688-0.494,1.288-0.762,1.812c-0.262,0.523-0.54,0.955-0.783,1.304
		c-0.228,0.359-0.476,0.589-0.613,0.772c-0.148,0.176-0.225,0.272-0.225,0.272s0.089-0.081,0.258-0.238
		c0.161-0.163,0.444-0.362,0.718-0.692c0.301-0.313,0.642-0.713,0.987-1.213c0.342-0.494,0.705-1.084,1.038-1.75
		c1.369-2.674,2.44-6.483,3.886-10.057c0.347-0.896,0.732-1.785,1.109-2.64c0.378-0.847,0.77-1.685,1.188-2.513
		c0.203-0.421,0.405-0.837,0.601-1.242c0.192-0.431,0.368-0.852,0.533-1.264c0.33-0.821,0.603-1.601,0.843-2.33
		c0.477-1.458,0.798-2.697,0.982-3.648c0.089-0.495,0.148-0.831,0.16-1.355c-0.005-0.286-0.007-0.438-0.007-0.438L79.405,65.891z"/>
	<path fill="#63862D" d="M56.404,80.18c0,0-0.354-0.311-0.975-0.853c-0.312-0.272-0.689-0.603-1.125-0.98
		c-0.41-0.386-0.979-0.788-1.554-1.237c-0.591-0.434-1.197-0.963-1.898-1.408c-0.692-0.455-1.422-0.94-2.177-1.435
		c-0.786-0.448-1.594-0.911-2.417-1.385c-0.857-0.408-1.705-0.868-2.586-1.248c-0.89-0.364-1.758-0.773-2.656-1.063
		c-0.886-0.331-1.767-0.618-2.628-0.849c-0.855-0.271-1.71-0.428-2.501-0.63c-0.806-0.144-1.562-0.312-2.271-0.396
		c-1.406-0.214-2.592-0.283-3.418-0.328c-0.413-0.015-0.738-0.029-0.957-0.038c-0.219-0.016-0.338-0.035-0.338-0.035
		s0.113,0.029,0.332,0.068c0.219,0.028,0.544,0.07,0.955,0.125c0.813,0.122,1.979,0.299,3.344,0.64
		c0.689,0.146,1.416,0.383,2.189,0.592c0.758,0.269,1.574,0.498,2.382,0.843c0.818,0.306,1.647,0.66,2.472,1.06
		c0.847,0.362,1.648,0.84,2.471,1.264c0.813,0.445,1.585,0.963,2.365,1.43c0.745,0.522,1.478,1.036,2.188,1.534
		c0.671,0.543,1.325,1.064,1.944,1.561c0.631,0.482,1.136,1.021,1.647,1.473c0.5,0.47,0.963,0.857,1.354,1.299
		c0.396,0.414,0.743,0.78,1.026,1.08c0.57,0.598,0.896,0.941,0.896,0.941L56.404,80.18z"/>
	<path fill="#63862D" d="M60.557,76.176c0,0,0.004,0.097,0.021,0.281c0.01,0.173,0.042,0.473,0.047,0.775
		c0.028,0.578,0.031,1.511-0.044,2.615c-0.111,2.225-0.609,5.248-1.296,8.27c-0.698,3.016-1.545,6.035-2.099,8.342
		c-0.285,1.145-0.478,2.125-0.562,2.823c-0.032,0.349-0.054,0.624-0.024,0.813c0.014,0.189,0.073,0.278,0.065,0.278
		c0.007-0.002-0.026-0.098,0-0.278c0.016-0.178,0.098-0.435,0.208-0.756c0.239-0.641,0.654-1.523,1.137-2.594
		c0.998-2.134,2.317-5.001,3.408-7.994c0.546-1.494,1.063-3.014,1.46-4.475c0.396-1.457,0.701-2.855,0.892-4.081
		c0.178-1.229,0.256-2.258,0.272-3.047c0.006-0.354,0.008-0.632,0.01-0.821c-0.001-0.182-0.002-0.281-0.002-0.281L60.557,76.176z"/>
	<path fill="#63862D" d="M64.13,74.109c0,0-0.016,0.362-0.042,0.991c-0.004,0.326-0.025,0.698-0.094,1.048
		c-0.066,0.388-0.099,0.763-0.199,1.3c-0.099,0.539-0.203,1.121-0.313,1.737c-0.093,0.622-0.188,1.274-0.292,1.951
		c-0.191,1.339-0.399,2.763-0.609,4.19c-0.098,0.713-0.198,1.428-0.369,2.098c-0.153,0.682-0.303,1.352-0.45,2
		c-0.277,1.301-0.562,2.523-0.882,3.549c-0.565,2.084-1.031,3.451-1.031,3.451s0.665-1.279,1.543-3.258
		c0.479-0.979,0.947-2.156,1.436-3.438c0.249-0.638,0.505-1.299,0.766-1.972c0.284-0.671,0.489-1.365,0.695-2.048
		c0.422-1.382,0.843-2.759,1.235-4.051c0.197-0.64,0.39-1.254,0.57-1.842c0.199-0.575,0.385-1.121,0.56-1.629
		c0.176-0.504,0.338-1.098,0.478-1.557c0.159-0.504,0.237-0.884,0.291-1.186c0.119-0.622,0.188-0.973,0.188-0.973L64.13,74.109z"/>
	<path fill="#63862D" d="M70.188,71.888c0,0-0.079-0.193-0.221-0.554c-0.093-0.208-0.112-0.341-0.31-0.725
		c-0.186-0.372-0.411-0.794-0.679-1.253c-0.516-0.781-1.123-1.586-1.896-2.421c-0.767-0.834-1.667-1.677-2.668-2.533
		c-1.012-0.851-2.125-1.709-3.328-2.559c-1.205-0.848-2.49-1.696-3.847-2.52c-1.357-0.826-2.77-1.647-4.242-2.423
		c-0.737-0.39-1.484-0.768-2.255-1.138l-0.071-0.036l-0.176-0.079l-0.016-0.009l-0.036-0.011l-0.148-0.051l-0.291-0.101
		l-0.586-0.197l-1.176-0.395l-1.175-0.394l-1.289-0.28c-0.854-0.177-1.706-0.352-2.546-0.527c-0.84-0.081-1.667-0.161-2.482-0.238
		c-0.409-0.037-0.813-0.075-1.215-0.115c-0.405,0.004-0.806,0.007-1.205,0.012c-0.789,0.001-1.564,0.007-2.327,0.011
		c-0.756,0.04-1.499,0.14-2.217,0.204c-1.439,0.097-2.772,0.374-4.005,0.612c-1.235,0.195-2.329,0.555-3.305,0.824
		c-0.486,0.14-0.938,0.269-1.36,0.388c-0.411,0.153-0.788,0.3-1.125,0.426c-1.351,0.515-2.127,0.812-2.127,0.812
		s0.799-0.214,2.196-0.584c0.347-0.092,0.732-0.191,1.15-0.301c0.43-0.073,0.891-0.154,1.385-0.238
		c0.987-0.163,2.089-0.402,3.316-0.459c1.224-0.107,2.543-0.241,3.943-0.184c0.699,0.01,1.415-0.01,2.145,0.031
		c0.725,0.07,1.464,0.147,2.22,0.221c0.378,0.038,0.754,0.075,1.137,0.116c0.372,0.073,0.756,0.149,1.131,0.229
		c0.758,0.152,1.522,0.307,2.294,0.463c0.731,0.233,1.464,0.468,2.201,0.705l1.096,0.351l1.129,0.515L48.335,58l0.56,0.259
		l0.28,0.131l0.142,0.063l0.034,0.019l0.02,0.004c-0.311-0.139-0.078-0.031-0.141-0.062l0.06,0.039
		c0.678,0.421,1.346,0.854,2.006,1.295c1.322,0.884,2.584,1.815,3.783,2.728c1.201,0.921,2.324,1.845,3.353,2.746
		c1.028,0.9,1.955,1.789,2.755,2.625c0.796,0.843,1.476,1.634,1.995,2.342c0.53,0.703,0.901,1.36,1.14,1.807
		c0.063,0.183,0.133,0.331,0.203,0.461c0.07,0.107,0.138,0.453,0.188,0.605c0.102,0.374,0.158,0.572,0.158,0.572L70.188,71.888z"/>
	<path fill="#63862D" d="M66.024,74.463c0,0-0.092-0.171-0.27-0.489c-0.093-0.159-0.201-0.36-0.336-0.592
		c-0.172-0.27-0.376-0.58-0.602-0.927c-0.468-0.667-1.025-1.373-1.752-2.138c-0.709-0.766-1.571-1.545-2.545-2.331
		c-1.966-1.543-4.41-3.046-7.151-4.316c-1.364-0.642-2.797-1.238-4.277-1.766c-0.754-0.285-1.442-0.501-2.289-0.774
		c-0.767-0.191-1.456-0.428-2.321-0.564c-1.661-0.352-3.265-0.411-4.862-0.396c-1.59,0.028-3.125,0.24-4.59,0.463
		c-2.926,0.509-5.563,1.192-7.846,1.695c-2.275,0.514-4.189,0.851-5.536,1.043c-1.354,0.174-2.129,0.249-2.129,0.249
		s0.776-0.005,2.146-0.064c1.362-0.074,3.313-0.248,5.638-0.568c2.324-0.302,5.021-0.756,7.895-1.002
		c1.435-0.097,2.913-0.167,4.392-0.063c1.468,0.108,2.988,0.306,4.351,0.726c0.673,0.146,1.438,0.479,2.159,0.729
		c0.611,0.259,1.376,0.566,2.033,0.882c1.367,0.617,2.677,1.293,3.903,1.996c2.462,1.395,4.571,2.957,6.167,4.437
		c0.787,0.749,1.46,1.468,1.989,2.142c0.533,0.659,0.951,1.297,1.223,1.772c0.134,0.235,0.252,0.438,0.351,0.623
		c0.11,0.237,0.202,0.443,0.279,0.605c0.149,0.336,0.229,0.514,0.229,0.514L66.024,74.463z"/>
	<path fill="#63862D" d="M72.803,69.533c0,0-0.104-0.153-0.295-0.44c-0.21-0.289-0.456-0.696-0.873-1.247
		c-0.794-1.114-1.972-2.582-3.498-4.251c-1.523-1.66-3.396-3.474-5.316-5.421c-0.956-0.98-1.937-1.999-2.851-3.084
		c-0.924-1.061-1.771-2.257-2.686-3.43c-0.956-1.179-1.988-2.314-3.114-3.28c-1.105-0.996-2.323-1.832-3.55-2.533
		c-1.228-0.704-2.509-1.207-3.745-1.584c-1.249-0.339-2.453-0.551-3.579-0.595c-1.119-0.063-2.148,0.007-3.043,0.138
		c-0.9,0.115-1.66,0.311-2.286,0.482c-0.63,0.152-1.094,0.372-1.422,0.475c-0.325,0.119-0.499,0.179-0.499,0.179
		s0.177-0.053,0.508-0.151c0.334-0.08,0.811-0.27,1.443-0.382c0.628-0.133,1.394-0.283,2.286-0.344
		c0.887-0.072,1.896-0.075,2.976,0.052c1.084,0.108,2.238,0.384,3.411,0.782c1.159,0.435,2.352,0.985,3.48,1.726
		c1.128,0.744,2.23,1.599,3.218,2.615c1.026,0.985,1.915,2.098,2.747,3.26c0.829,1.209,1.619,2.467,2.53,3.65
		c0.888,1.188,1.832,2.29,2.749,3.341c1.845,2.097,3.573,3.981,4.948,5.663c1.364,1.675,2.418,3.152,3.061,4.176
		c0.331,0.495,0.593,0.97,0.769,1.253c0.179,0.299,0.273,0.456,0.273,0.456L72.803,69.533z"/>
	<path fill="#63862D" d="M74.57,67.79c0,0-0.045,0.093-0.129,0.262c-0.084,0.186-0.21,0.393-0.362,0.771
		c-0.146,0.383-0.348,0.881-0.506,1.394c-0.138,0.495-0.317,1.055-0.461,1.664c-0.618,2.417-1.217,5.617-1.801,8.81
		c-0.581,3.195-1.158,6.377-1.736,8.73c-0.279,1.182-0.577,2.146-0.848,2.797c-0.11,0.34-0.271,0.563-0.367,0.727
		c-0.1,0.162-0.151,0.252-0.151,0.252s0.063-0.082,0.176-0.236c0.111-0.148,0.306-0.363,0.452-0.692
		c0.347-0.626,0.749-1.565,1.157-2.719c0.838-2.296,1.756-5.422,2.677-8.532c0.925-3.107,1.86-6.211,2.694-8.436
		c0.198-0.558,0.418-1.039,0.589-1.485c0.18-0.371,0.335-0.698,0.463-0.968c0.139-0.27,0.325-0.527,0.414-0.679
		c0.104-0.161,0.159-0.245,0.159-0.245L74.57,67.79z"/>
	<path fill="#63862D" d="M61.948,75.991c0,0-0.389-0.471-1.07-1.289c-0.084-0.102-0.176-0.209-0.268-0.322
		c-0.132-0.132-0.268-0.263-0.41-0.405c-0.291-0.277-0.609-0.576-0.946-0.895c-0.682-0.691-1.446-1.14-2.278-1.75
		c-0.834-0.593-1.803-1.056-2.792-1.614c-1.034-0.435-2.083-0.996-3.232-1.355c-0.567-0.197-1.142-0.395-1.724-0.598
		c-0.592-0.164-1.191-0.328-1.79-0.495c-1.201-0.341-2.445-0.548-3.67-0.802c-1.245-0.174-2.468-0.392-3.697-0.476
		c-1.217-0.138-2.42-0.178-3.579-0.216c-1.16-0.042-2.282,0.013-3.34,0.03c-1.06,0.099-2.06,0.122-2.973,0.264
		c-0.918,0.134-1.753,0.215-2.484,0.396c-0.73,0.169-1.372,0.256-1.881,0.432c-1.024,0.308-1.605,0.479-1.605,0.479
		s0.598-0.083,1.65-0.243c0.518-0.099,1.172-0.094,1.899-0.155c0.729-0.074,1.565-0.035,2.464-0.039
		c0.897-0.008,1.877,0.112,2.898,0.163c1.027,0.133,2.103,0.235,3.206,0.433c1.103,0.197,2.237,0.402,3.369,0.702
		c1.146,0.242,2.273,0.623,3.402,0.952c1.112,0.399,2.232,0.752,3.279,1.23c0.524,0.227,1.048,0.455,1.559,0.682
		c0.493,0.257,0.983,0.505,1.461,0.758c0.978,0.464,1.797,1.086,2.632,1.576c0.748,0.591,1.512,1.089,2.09,1.655
		c0.559,0.56,1.18,1.061,1.462,1.5c0.176,0.213,0.34,0.414,0.494,0.598c0.076,0.09,0.148,0.18,0.219,0.264
		c0.077,0.121,0.152,0.242,0.22,0.354c0.557,0.912,0.871,1.43,0.871,1.43L61.948,75.991z"/>
	<path fill="#63862D" d="M58.404,78.743c0,0,0.042,0.068,0.119,0.195c-0.002-0.053,0.093,0.166,0.138,0.406
		c0.053,0.262,0.087,0.646,0.092,1.133c0.01,0.49-0.016,1.07,0.014,1.793c0.006,0.59,0.021,1.319-0.01,2
		c-0.011,0.691-0.068,1.459-0.114,2.24c-0.12,1.563-0.306,3.234-0.522,4.906c-0.443,3.342-1.048,6.674-1.6,9.147
		c-0.286,1.233-0.536,2.265-0.756,2.97c-0.209,0.711-0.366,1.105-0.366,1.105s0.192-0.379,0.469-1.068
		c0.287-0.688,0.636-1.691,1.035-2.9c0.787-2.428,1.705-5.705,2.471-9.027c0.375-1.662,0.722-3.338,0.992-4.925
		c0.124-0.8,0.256-1.561,0.341-2.316c0.102-0.772,0.146-1.417,0.206-2.095c0.139-1.115,0.4-2.261,0.354-3.205
		c-0.021-0.497-0.066-0.85-0.224-1.27c-0.093-0.23-0.142-0.354-0.142-0.354L58.404,78.743z"/>
	<path fill="#63862D" d="M70.371,69.509c0,0-0.043,0.108-0.127,0.312c-0.08,0.23-0.201,0.456-0.354,0.943
		c-0.135,0.47-0.369,1.145-0.472,1.721c-0.124,0.603-0.267,1.282-0.368,1.996c-0.461,2.895-0.777,6.628-1.273,10.333
		c-0.252,1.848-0.543,3.691-0.904,5.396c-0.359,1.703-0.769,3.285-1.24,4.598c-0.201,0.674-0.457,1.26-0.681,1.783
		c-0.214,0.529-0.418,0.984-0.624,1.337c-0.389,0.728-0.612,1.142-0.612,1.142s0.278-0.383,0.768-1.049
		c0.258-0.327,0.525-0.751,0.813-1.254c0.302-0.495,0.64-1.055,0.944-1.701c0.662-1.27,1.302-2.813,1.909-4.494
		c0.613-1.68,1.169-3.502,1.68-5.333c1.024-3.657,1.87-7.356,2.675-9.964c0.186-0.662,0.396-1.229,0.579-1.728
		c0.173-0.538,0.342-0.782,0.453-1.095c0.121-0.288,0.342-0.618,0.435-0.795c0.108-0.191,0.166-0.291,0.166-0.291L70.371,69.509z"/>
	<path fill="#63862D" d="M52.975,82.579c0,0-0.41-0.444-1.123-1.219c-0.365-0.389-0.893-0.869-1.457-1.41
		c-0.594-0.491-1.237-1.076-2.002-1.618c-1.501-1.134-3.341-2.241-5.232-3.43l-0.713-0.449l-0.765-0.462
		c-0.499-0.295-1.006-0.596-1.516-0.896c-1.099-0.564-2.193-1.162-3.345-1.615c-0.558-0.258-1.152-0.452-1.74-0.646
		c-0.581-0.213-1.18-0.362-1.779-0.495c-1.187-0.295-2.399-0.415-3.562-0.445c-0.582-0.014-1.151,0.046-1.709,0.076
		c-0.548,0.086-1.094,0.135-1.608,0.253c-1.031,0.215-1.984,0.489-2.844,0.783c-1.721,0.589-3.109,1.157-4.104,1.508
		c-0.995,0.339-1.564,0.534-1.564,0.534s0.584-0.148,1.605-0.411c1.017-0.272,2.458-0.729,4.195-1.172
		c0.871-0.23,1.817-0.42,2.824-0.547c0.501-0.077,1.022-0.08,1.551-0.125c0.528,0.019,1.066,0.002,1.611,0.06
		c1.085,0.113,2.197,0.308,3.282,0.674c0.552,0.168,1.094,0.35,1.626,0.595c0.539,0.225,1.072,0.447,1.585,0.735
		c1.057,0.512,2.028,1.148,2.997,1.748c0.962,0.681,1.907,1.351,2.821,2c1.855,1.324,3.559,2.505,4.87,3.635
		c0.68,0.543,1.228,1.109,1.735,1.584c0.464,0.51,0.865,0.908,1.2,1.306c0.663,0.817,1.047,1.284,1.047,1.284L52.975,82.579z"/>
	<path fill="#63862D" d="M55.365,80.153c0,0,0.024,0.094,0.066,0.269c0.043,0.163,0.129,0.444,0.173,0.702
		c0.125,0.521,0.254,1.453,0.328,2.539c0.079,1.1,0.107,2.4,0.082,3.814c-0.017,0.709-0.035,1.446-0.052,2.19
		c-0.023,0.734-0.059,1.542-0.024,2.319c0.03,1.458-0.096,2.978-0.285,4.364c-0.195,1.396-0.473,2.688-0.798,3.775
		c-0.323,1.085-0.674,1.964-0.972,2.558c-0.299,0.594-0.496,0.922-0.496,0.922s0.236-0.303,0.601-0.861
		c0.371-0.561,0.829-1.406,1.283-2.471c0.457-1.063,0.894-2.344,1.261-3.746c0.361-1.409,0.672-2.915,0.823-4.505
		c0.051-0.741,0.166-1.456,0.275-2.214c0.103-0.744,0.204-1.481,0.305-2.193c0.187-1.434,0.313-2.794,0.368-3.98
		c0.046-1.198,0.031-2.173-0.057-2.963c-0.033-0.404-0.079-0.633-0.103-0.817c-0.025-0.179-0.042-0.271-0.042-0.271L55.365,80.153z"
		/>
	<path fill="#63862D" d="M52.832,82.868c0,0,0.035,0.084,0.1,0.236c0.067,0.152,0.186,0.407,0.218,0.602
		c0.06,0.223,0.151,0.47,0.229,0.902c0.091,0.396,0.178,0.854,0.243,1.369c0.162,1.018,0.258,2.238,0.298,3.543
		c0.025,0.652-0.016,1.322-0.018,2.011c-0.071,0.677-0.104,1.376-0.205,2.067c-0.826,5.693-1.655,11.394-1.655,11.394
		s1.512-5.556,3.026-11.107c0.197-0.712,0.324-1.446,0.484-2.163c0.093-0.723,0.223-1.436,0.278-2.127
		c0.128-1.389,0.184-2.686,0.145-3.813c-0.006-0.559-0.04-1.084-0.086-1.549c-0.02-0.438-0.104-0.936-0.183-1.328
		c-0.069-0.424-0.145-0.632-0.189-0.796c-0.049-0.159-0.074-0.25-0.074-0.25L52.832,82.868z"/>
	<path fill="#63862D" d="M50.893,84.458c0,0-0.473-0.408-1.299-1.113c-0.364-0.342-1.061-0.816-1.722-1.32
		c-0.694-0.542-1.463-0.983-2.306-1.52c-0.825-0.548-1.784-0.999-2.759-1.553c-1.007-0.488-2.061-1.006-3.176-1.475
		c-2.225-0.949-4.656-1.791-7.127-2.442c-1.243-0.304-2.484-0.605-3.725-0.81c-1.241-0.206-2.461-0.386-3.66-0.456
		c-1.185-0.139-2.35-0.073-3.438-0.089c-1.093,0.08-2.126,0.143-3.06,0.313c-0.932,0.223-1.798,0.307-2.516,0.619
		c-0.716,0.283-1.374,0.419-1.844,0.722c-0.956,0.524-1.505,0.822-1.505,0.822s0.578-0.217,1.596-0.599
		c0.485-0.229,1.16-0.271,1.878-0.443c0.717-0.202,1.579-0.164,2.479-0.25c0.907-0.035,1.899,0.046,2.933,0.115
		c1.034,0.164,2.123,0.251,3.227,0.543c1.108,0.225,2.235,0.556,3.369,0.914c1.135,0.357,2.264,0.803,3.378,1.247
		c2.222,0.941,4.363,2.044,6.283,3.202c0.957,0.576,1.852,1.187,2.692,1.753c0.806,0.62,1.61,1.147,2.262,1.729
		c0.657,0.567,1.309,1.077,1.742,1.541c0.477,0.492,0.854,0.786,1.231,1.242c0.718,0.816,1.128,1.282,1.128,1.282L50.893,84.458z"/>
	<path fill="#63862D" d="M42.9,92.353c0,0-0.474-0.348-1.305-0.954c-0.21-0.154-0.445-0.325-0.699-0.51
		c-0.297-0.182-0.618-0.387-0.966-0.605c-0.686-0.429-1.464-0.923-2.299-1.324c-0.832-0.438-1.742-0.895-2.733-1.293
		c-0.968-0.439-2.023-0.813-3.113-1.188c-1.08-0.404-2.241-0.672-3.386-1.016c-1.181-0.24-2.35-0.573-3.56-0.734l-1.79-0.281
		c-0.604-0.059-1.198-0.119-1.792-0.175c-1.183-0.126-2.362-0.124-3.49-0.146c-1.134,0.046-2.223,0.055-3.251,0.216
		c-1.031,0.085-1.993,0.314-2.87,0.508c-0.877,0.205-1.652,0.523-2.337,0.752c-0.655,0.336-1.229,0.6-1.677,0.857
		c-0.832,0.618-1.309,0.967-1.309,0.967s0.516-0.272,1.422-0.75c0.471-0.189,1.069-0.361,1.728-0.584
		c0.699-0.117,1.466-0.313,2.325-0.381c0.861-0.057,1.785-0.141,2.778-0.07c0.98-0.009,2.018,0.141,3.08,0.256
		c1.06,0.179,2.157,0.34,3.244,0.625c0.546,0.135,1.097,0.273,1.646,0.412l1.63,0.515c1.089,0.312,2.133,0.79,3.18,1.17
		c1.007,0.478,2.028,0.87,2.947,1.388c0.935,0.486,1.832,0.965,2.631,1.485c0.831,0.483,1.557,1.005,2.221,1.487
		c0.698,0.471,1.217,0.939,1.691,1.34c0.236,0.201,0.457,0.387,0.665,0.56c0.219,0.214,0.419,0.409,0.601,0.587
		c0.729,0.727,1.148,1.141,1.148,1.141L42.9,92.353z"/>
	<path fill="#63862D" d="M35.731,101.952c0,0-0.434-0.244-1.19-0.665c-0.189-0.104-0.397-0.223-0.626-0.35
		c-0.27-0.124-0.559-0.259-0.868-0.401c-0.62-0.285-1.317-0.619-2.069-0.85c-0.378-0.131-0.772-0.266-1.174-0.404
		c-0.414-0.111-0.84-0.221-1.279-0.334c-0.87-0.254-1.812-0.375-2.768-0.557c-0.965-0.105-1.958-0.262-2.964-0.291
		c-1.005-0.072-2.023-0.077-3.033-0.079c-4.047,0.056-7.983,0.55-10.935,0.845c-2.949,0.313-4.929,0.42-4.929,0.42
		s1.976,0.154,4.951,0.234c2.971,0.098,6.944,0.135,10.798,0.6c0.961,0.131,1.918,0.256,2.839,0.451
		c0.935,0.153,1.817,0.416,2.677,0.625c0.838,0.281,1.66,0.497,2.39,0.824c0.369,0.15,0.727,0.295,1.072,0.437
		c0.334,0.167,0.654,0.331,0.961,0.485c0.638,0.291,1.124,0.627,1.571,0.899c0.224,0.139,0.434,0.27,0.626,0.386
		c0.21,0.158,0.402,0.299,0.574,0.433c0.695,0.518,1.094,0.812,1.094,0.812L35.731,101.952z"/>
	<path fill="#63862D" d="M32.153,102.698c0,0,0.119,0.48,0.33,1.324c0.052,0.205,0.108,0.44,0.173,0.693
		c0.035,0.22,0.071,0.467,0.109,0.725c0.081,0.518,0.2,1.1,0.223,1.795c0.026,0.349,0.051,0.705,0.076,1.074
		c-0.005,0.377-0.008,0.764-0.014,1.159c0.022,0.8-0.099,1.646-0.165,2.523c-0.14,0.876-0.239,1.791-0.46,2.712
		c-0.18,0.923-0.433,1.854-0.681,2.79c-1.068,3.733-2.574,7.408-3.638,10.187c-1.077,2.773-1.698,4.656-1.698,4.656
		s0.864-1.781,2.296-4.381c1.414-2.607,3.395-6.047,5.014-9.754c0.389-0.936,0.783-1.869,1.104-2.83
		c0.361-0.935,0.605-1.91,0.88-2.842c0.201-0.949,0.457-1.867,0.561-2.765c0.064-0.448,0.124-0.886,0.187-1.309
		c0.026-0.429,0.055-0.839,0.081-1.238c0.078-0.786,0.04-1.561,0.018-2.241c-0.012-0.338-0.022-0.66-0.033-0.953
		c-0.029-0.262-0.057-0.496-0.078-0.714c-0.098-0.86-0.151-1.353-0.151-1.353L32.153,102.698z"/>
	<path fill="#63862D" d="M47.137,87.973c0,0-0.401-0.328-1.104-0.9c-0.728-0.578-1.801-1.404-3.087-2.312
		c-0.644-0.462-1.364-0.931-2.113-1.438c-0.778-0.471-1.564-1.009-2.438-1.488c-0.856-0.506-1.768-0.986-2.714-1.439
		c-0.456-0.248-0.974-0.423-1.463-0.637l-0.771-0.313l-0.745-0.228c-0.996-0.294-1.963-0.64-3.016-0.831
		c-1.018-0.242-2.026-0.437-3.004-0.552c-0.973-0.161-1.919-0.229-2.813-0.298c-0.896-0.092-1.745-0.082-2.522-0.123
		c-1.557-0.029-2.855-0.052-3.764-0.07c-0.905-0.055-1.422-0.09-1.422-0.09s0.512,0.075,1.41,0.208
		c0.905,0.095,2.195,0.229,3.744,0.386c0.767,0.106,1.609,0.168,2.479,0.333c0.874,0.146,1.797,0.286,2.728,0.524
		c0.948,0.189,1.895,0.465,2.838,0.771c0.949,0.253,1.911,0.685,2.875,1.066l0.723,0.288l0.641,0.326
		c0.44,0.238,0.892,0.431,1.311,0.707c0.855,0.504,1.679,1.029,2.462,1.584c0.79,0.522,1.51,1.113,2.219,1.627
		c0.684,0.553,1.335,1.062,1.917,1.556c1.177,0.995,2.093,1.83,2.743,2.437c0.653,0.635,1.024,0.994,1.024,0.994L47.137,87.973z"/>
	<path fill="#63862D" d="M32.319,107.354c0,0-0.473-0.076-1.297-0.201c-0.83-0.118-2.081-0.288-3.517-0.409
		c-0.723-0.081-1.513-0.12-2.345-0.175c-0.828-0.066-1.714-0.059-2.621-0.098c-0.915,0.012-1.854-0.001-2.815,0.063
		c-0.963,0.045-1.938,0.133-2.92,0.297c-1.03,0.145-1.887,0.414-2.823,0.611c-0.916,0.221-1.828,0.551-2.696,0.808
		c-0.849,0.335-1.678,0.625-2.425,0.982c-0.752,0.356-1.458,0.695-2.081,1.058c-1.26,0.695-2.271,1.321-2.997,1.729
		c-0.745,0.377-1.167,0.596-1.167,0.596s0.445-0.174,1.223-0.479c0.766-0.335,1.845-0.859,3.151-1.418
		c0.646-0.297,1.368-0.559,2.131-0.826c0.761-0.28,1.595-0.477,2.435-0.722c0.868-0.162,1.723-0.382,2.651-0.509
		c0.912-0.104,1.915-0.291,2.781-0.33c0.916-0.073,1.84-0.077,2.755-0.047c0.914,0.017,1.821,0.109,2.691,0.172
		c0.875,0.111,1.718,0.172,2.517,0.307c0.793,0.116,1.551,0.218,2.241,0.354c1.398,0.24,2.495,0.488,3.303,0.674
		c0.813,0.195,1.275,0.305,1.275,0.305L32.319,107.354z"/>
	<path fill="#63862D" d="M45.309,90.577c0,0-0.096-0.123-0.272-0.354c-0.117-0.178-0.614-0.729-1.052-1.112
		c-0.923-0.825-2.303-1.741-4.002-2.647c-1.702-0.902-3.722-1.811-5.917-2.672c-1.112-0.432-2.208-0.858-3.435-1.264
		c-1.127-0.381-2.478-0.701-3.705-0.885c-2.506-0.408-5.02-0.525-7.362-0.549c-2.346-0.021-4.527,0.058-6.392,0.134
		c-1.868,0.075-3.421,0.143-4.509,0.156c-1.087,0.011-1.706-0.062-1.706-0.062s0.612,0.109,1.703,0.166
		c1.09,0.056,2.648,0.08,4.515,0.117c1.863,0.04,4.041,0.094,6.357,0.256c2.315,0.166,4.779,0.434,7.162,0.973
		c1.215,0.269,2.286,0.582,3.457,1.054c1.071,0.434,2.182,0.991,3.21,1.488c2.069,1.024,3.949,2.07,5.471,3.049
		c1.521,0.979,2.67,1.912,3.311,2.6c0.333,0.374,0.432,0.457,0.625,0.772c0.157,0.244,0.241,0.375,0.241,0.375L45.309,90.577z"/>
	<path fill="#63862D" d="M50.222,84.651c0,0,0.037,0.076,0.103,0.229c0.114,0.266,0.035,0.067,0.105,0.203
		c0.102,0.328,0.15,1.054,0.083,2.008c-0.063,0.947-0.243,2.12-0.46,3.399c-0.107,0.654-0.221,1.33-0.337,2.015
		c-0.098,0.695-0.195,1.396-0.296,2.104c-0.353,2.811-0.499,5.623-0.424,7.734c0.038,1.059,0.137,1.933,0.257,2.54
		c0.128,0.604,0.27,0.925,0.27,0.925s-0.083-0.341-0.105-0.945c-0.017-0.604,0.038-1.464,0.177-2.49
		c0.282-2.045,0.901-4.745,1.707-7.363c0.197-0.625,0.409-1.336,0.642-1.927c0.246-0.634,0.493-1.254,0.729-1.856
		c0.486-1.227,0.936-2.402,1.246-3.5c0.317-1.09,0.508-2.109,0.494-2.993c-0.001-0.462-0.146-1.14-0.158-1.173
		c-0.034-0.161-0.055-0.248-0.055-0.248L50.222,84.651z"/>
	<path fill="#63862D" d="M96.388,61.514c0,0-0.1-0.638-0.281-1.75c-0.058-0.523-0.31-1.344-0.512-2.179
		c-0.196-0.885-0.572-1.702-0.899-2.686c-0.371-0.941-0.818-1.942-1.316-2.973c-0.523-1.019-1.06-2.095-1.7-3.15
		c-1.226-2.144-2.679-4.31-4.185-6.423c-3.011-4.224-6.238-8.222-8.592-11.272c-2.364-3.042-3.863-5.132-3.863-5.132
		s1.233,2.263,3.211,5.585c1.938,3.346,4.754,7.663,7.225,12.108c1.243,2.219,2.408,4.469,3.342,6.612
		c0.495,1.063,0.877,2.116,1.258,3.101c0.344,0.99,0.643,1.932,0.882,2.798c0.18,0.859,0.451,1.696,0.5,2.332
		c0.081,0.691,0.209,1.152,0.229,1.751c0.032,0.562,0.197,0.989,0.294,1.283c0.133,0.288,0.237,0.438,0.237,0.438L96.388,61.514z"/>
	<path fill="#63862D" d="M92.883,60.74c0,0,0.024,0.152,0.073,0.434c-0.006,0.045,0.012,0.037,0.012,0.157
		c-0.001,0.137,0.005,0.291-0.025,0.51c-0.075,0.829-0.499,2.289-1.04,4.088c-0.27,0.903-0.559,1.899-0.836,2.964
		c-0.283,1.055-0.511,2.24-0.779,3.335c-0.545,2.235-1.229,4.618-1.951,6.989c-1.463,4.746-3.104,9.446-4.41,12.942
		c-0.658,1.747-1.232,3.196-1.659,4.192c-0.22,0.499-0.398,0.89-0.534,1.145c-0.071,0.127-0.132,0.219-0.185,0.273
		c-0.073,0.059-0.062-0.06-0.066-0.038c0.005-0.024-0.015,0.096,0.073,0.044c0.062-0.046,0.128-0.137,0.209-0.258
		c0.161-0.244,0.378-0.62,0.64-1.099c0.521-0.96,1.225-2.353,2.034-4.039c1.624-3.375,3.688-7.923,5.583-12.562
		c0.945-2.318,1.853-4.655,2.614-6.903c0.37-1.152,0.767-2.134,1.165-3.11c0.404-0.963,0.811-1.865,1.201-2.711
		c0.773-1.695,1.471-3.148,1.813-4.463c0.09-0.316,0.15-0.644,0.196-0.925c0.047-0.301,0.058-0.673,0.061-0.922
		c-0.006-0.295-0.011-0.455-0.011-0.455L92.883,60.74z"/>
	<path fill="#63862D" d="M110.74,55.172c0,0-0.234,0.679-0.646,1.864c-0.206,0.579-0.434,1.353-0.705,2.206
		c-0.28,0.861-0.555,1.815-0.857,2.856c-1.212,4.169-2.652,9.73-4.112,15.271c-1.473,5.535-2.965,11.064-4.385,15.105
		c-0.367,1.004-0.683,1.938-1.039,2.729c-0.315,0.813-0.649,1.488-0.952,2.035c-0.259,0.576-0.575,0.947-0.771,1.223
		c-0.2,0.266-0.307,0.414-0.307,0.414s0.119-0.133,0.342-0.387c0.222-0.251,0.579-0.607,0.892-1.156
		c0.355-0.524,0.754-1.176,1.146-1.963c0.431-0.772,0.836-1.672,1.297-2.652c1.802-3.932,3.8-9.328,5.778-14.719
		c1.966-5.397,3.901-10.792,5.467-14.759c0.387-0.989,0.744-1.906,1.076-2.679c0.335-0.787,0.593-1.454,0.863-2.034
		c0.52-1.143,0.811-1.796,0.811-1.796L110.74,55.172z"/>
	<path fill="#63862D" d="M31.116,109.897c0,0-0.367-0.123-1.009-0.334c-0.277-0.105-0.81-0.246-1.382-0.393
		c-0.591-0.171-1.197-0.268-1.845-0.354c-1.302-0.195-2.803-0.234-4.361-0.145c-0.78,0.051-1.577,0.124-2.37,0.246
		c-0.797,0.097-1.587,0.276-2.375,0.43c-3.141,0.698-6.094,1.76-8.251,2.654c-2.162,0.887-3.554,1.561-3.554,1.561
		s1.513-0.344,3.793-0.721c2.271-0.383,5.326-0.739,8.308-0.709c0.746,0.024,1.486,0.026,2.202,0.104
		c0.72,0.052,1.416,0.148,2.077,0.259c1.319,0.225,2.501,0.537,3.432,0.912c0.479,0.18,0.893,0.352,1.18,0.526
		c0.31,0.163,0.556,0.271,0.88,0.481c0.577,0.35,0.905,0.555,0.905,0.555L31.116,109.897z"/>
	<path fill="#63862D" d="M26.829,120.379c0,0-0.303-0.102-0.829-0.279c-0.229-0.082-0.647-0.209-1.138-0.344
		c-0.238-0.061-0.49-0.131-0.76-0.203c-0.248-0.041-0.507-0.084-0.781-0.133c-1.082-0.197-2.334-0.262-3.632-0.25
		c-1.299,0.027-2.645,0.18-3.952,0.383c-2.615,0.445-5.091,1.141-6.931,1.68c-1.835,0.541-3.059,0.902-3.059,0.902
		s1.277-0.013,3.187-0.038c1.908-0.022,4.446-0.011,6.889,0.253c2.442,0.274,4.726,0.875,6.179,1.606
		c0.181,0.087,0.356,0.171,0.521,0.25c0.136,0.085,0.265,0.165,0.387,0.241c0.228,0.141,0.434,0.257,0.692,0.443
		c0.46,0.316,0.725,0.496,0.725,0.496L26.829,120.379z"/>
	<path fill="#63862D" d="M22.782,130.518c0,0-0.36-0.045-0.979-0.117c-0.34-0.037-0.747-0.076-1.216-0.129
		c-0.482-0.052-0.997-0.074-1.566-0.107c-2.264-0.129-5.265-0.064-8.213,0.34c-0.736,0.12-1.47,0.219-2.188,0.382
		c-0.717,0.146-1.415,0.314-2.083,0.513c-1.34,0.375-2.55,0.846-3.538,1.347c-0.487,0.265-0.937,0.476-1.303,0.741
		c-0.371,0.254-0.704,0.439-0.938,0.662C0.275,134.552,0,134.782,0,134.782s0.32-0.158,0.884-0.43c0.267-0.15,0.639-0.25,1.038-0.4
		c0.395-0.16,0.874-0.256,1.376-0.385c1.018-0.23,2.227-0.387,3.524-0.42c0.647-0.028,1.315-0.025,1.996,0.006
		c0.677,0.015,1.368,0.094,2.052,0.15c2.743,0.301,5.429,0.911,7.369,1.517c0.481,0.155,0.932,0.286,1.293,0.424
		c0.379,0.138,0.711,0.258,0.979,0.356c0.588,0.225,0.922,0.349,0.922,0.349L22.782,130.518z"/>
	<path fill="#63862D" d="M21.846,133.997c0,0-0.078-0.014-0.219-0.03c-0.146-0.019-0.332-0.055-0.727-0.07
		c-0.74-0.048-1.521,0.03-2.432,0.106c-0.443,0.039-0.917,0.071-1.38,0.063c-0.433-0.002-1.054-0.059-1.616-0.088
		c-1.153-0.073-2.404-0.161-3.664-0.193c-1.263-0.033-2.54-0.009-3.728,0.161c-1.189,0.159-2.276,0.479-3.139,0.869
		c-0.875,0.38-1.524,0.827-1.963,1.146c-0.426,0.34-0.668,0.533-0.668,0.533s0.267-0.156,0.732-0.43
		c0.48-0.244,1.17-0.587,2.053-0.82c0.876-0.246,1.922-0.392,3.046-0.379c1.126,0.009,2.323,0.16,3.522,0.375
		c1.198,0.207,2.397,0.469,3.537,0.715c0.587,0.114,1.071,0.254,1.696,0.332c0.597,0.088,1.132,0.108,1.612,0.132
		c0.942,0.034,1.708,0.072,2.044,0.149c0.146,0.014,0.377,0.074,0.518,0.111c0.141,0.039,0.213,0.059,0.213,0.059L21.846,133.997z"
		/>
	<path fill="#63862D" d="M34.31,103.731c0,0-0.417-0.097-1.149-0.275c-0.375-0.089-0.904-0.18-1.471-0.283
		c-0.58-0.113-1.163-0.166-1.839-0.263c-2.657-0.322-6.146-0.468-9.631-0.383c-3.479,0.069-6.947,0.411-9.497,0.985
		c-0.639,0.123-1.215,0.308-1.72,0.459c-0.513,0.129-0.927,0.369-1.277,0.498c-0.352,0.148-0.58,0.357-0.757,0.451
		c-0.166,0.109-0.258,0.172-0.258,0.172s0.098-0.046,0.284-0.131c0.19-0.068,0.435-0.234,0.8-0.322c0.363-0.074,0.781-0.24,1.3-0.29
		c0.514-0.077,1.084-0.167,1.723-0.188c2.536-0.176,5.938,0.018,9.298,0.463c3.354,0.434,6.68,1.09,9.063,1.764
		c0.582,0.178,1.161,0.322,1.587,0.482c0.443,0.156,0.802,0.267,1.14,0.4c0.694,0.287,1.092,0.451,1.092,0.451L34.31,103.731z"/>
	<path fill="#63862D" d="M20.46,139.512c0,0-0.236-0.051-0.657-0.138c-0.207-0.048-0.555-0.049-0.899-0.066
		c-0.355-0.017-0.689,0.042-1.086,0.066c-0.755,0.103-1.613,0.278-2.498,0.454c-0.444,0.082-0.899,0.166-1.359,0.213
		c-0.456,0.057-0.917,0.074-1.422,0.067c-0.966,0.005-1.924-0.058-2.849-0.108c-0.918-0.047-1.782-0.072-2.521-0.02
		c-0.369,0.008-0.704,0.068-1.003,0.113c-0.299,0.031-0.551,0.089-0.756,0.156c-0.415,0.113-0.651,0.178-0.651,0.178
		s0.24-0.044,0.662-0.121c0.208-0.043,0.463-0.082,0.76-0.086c0.297-0.016,0.628-0.048,0.992-0.021
		c0.727,0.009,1.57,0.114,2.475,0.239c0.897,0.129,1.884,0.285,2.869,0.367c0.473,0.05,0.987,0.076,1.493,0.063
		c0.501-0.008,0.984-0.053,1.446-0.096c0.928-0.1,1.757-0.188,2.461-0.223c0.335,0.012,0.674-0.016,0.911,0.023
		c0.247,0.045,0.425,0.029,0.632,0.094c0.408,0.125,0.643,0.195,0.643,0.195L20.46,139.512z"/>
	<path fill="#63862D" d="M18.688,143.059c0,0,0.113,0.126,0.313,0.347c0.134,0.126,0.119,0.204,0.21,0.325
		c0.082,0.094,0.137,0.328,0.219,0.521c0.136,0.44,0.236,0.998,0.364,1.646c0.068,0.318,0.14,0.664,0.256,1.005
		c0.111,0.354,0.265,0.694,0.413,0.979c0.313,0.623,0.688,1.223,1.009,1.76c0.321,0.547,0.62,1.057,0.794,1.523
		c0.189,0.461,0.303,0.876,0.313,1.17c0.025,0.295,0.039,0.464,0.039,0.464s0.006-0.17,0.023-0.468
		c0.026-0.297-0.034-0.734-0.165-1.234c-0.121-0.508-0.359-1.066-0.611-1.658c-0.258-0.593-0.533-1.19-0.75-1.82
		c-0.124-0.338-0.213-0.629-0.263-0.926c-0.063-0.305-0.085-0.613-0.108-0.928c-0.042-0.613-0.07-1.238-0.166-1.791
		c-0.078-0.288-0.089-0.521-0.223-0.793c-0.106-0.242-0.223-0.523-0.307-0.611c-0.168-0.243-0.265-0.383-0.265-0.383L18.688,143.059
		z"/>
	<path fill="#63862D" d="M20.811,135.54c0,0-0.248-0.02-0.68-0.057c-0.218-0.02-0.479-0.039-0.782-0.066
		c-0.279-0.037-0.687-0.038-1.12-0.034c-0.429,0.004-0.89,0.01-1.38,0.015c-0.467,0.035-0.938,0.101-1.43,0.152
		c-0.491,0.049-0.994,0.118-1.492,0.232c-0.503,0.102-1.013,0.191-1.514,0.313c-0.991,0.279-1.979,0.521-2.871,0.863
		c-0.903,0.296-1.716,0.648-2.405,0.947c-0.698,0.273-1.242,0.602-1.636,0.785C5.115,138.887,4.895,139,4.895,139
		s0.241-0.051,0.669-0.138c0.429-0.078,1.019-0.245,1.757-0.328c0.731-0.106,1.575-0.231,2.491-0.276
		c0.905-0.095,1.88-0.067,2.838-0.079c0.475,0.032,0.951,0.061,1.419,0.09c0.467,0.018,0.918,0.076,1.351,0.152
		c0.431,0.07,0.853,0.121,1.229,0.193c0.354,0.094,0.69,0.181,0.996,0.261c0.303,0.077,0.57,0.138,0.872,0.261
		c0.283,0.102,0.533,0.195,0.736,0.268c0.407,0.148,0.643,0.235,0.643,0.235L20.811,135.54z"/>
	<path fill="#63862D" d="M24.015,127.754c0,0-0.258-0.115-0.708-0.314c-0.414-0.183-1.2-0.523-2.081-0.768
		c-0.443-0.145-0.949-0.234-1.47-0.325c-0.527-0.075-1.069-0.124-1.612-0.146c-0.533-0.017-1.082-0.032-1.641-0.052
		c-0.559-0.006-1.126-0.017-1.698-0.028c-2.348,0.027-4.58,0.379-6.244,0.778c-0.829,0.188-1.506,0.402-1.972,0.565
		c-0.463,0.169-0.728,0.264-0.728,0.264s0.274-0.056,0.758-0.153c0.479-0.091,1.174-0.203,2.008-0.262
		c1.658-0.148,3.923-0.149,6.062,0.148c0.544,0.097,1.131,0.172,1.635,0.282c0.541,0.105,1.07,0.208,1.587,0.31
		c1.012,0.197,1.826,0.48,2.512,0.814c0.697,0.334,1.167,0.635,1.612,0.924c0.412,0.27,0.649,0.424,0.649,0.424L24.015,127.754z"/>
	<path fill="#63862D" d="M27.322,116.969c0,0,0.101,0.263,0.271,0.721c0.184,0.478,0.387,1.076,0.556,1.86
		c0.182,0.783,0.271,1.704,0.239,2.745c-0.025,1.045-0.058,2.16-0.131,3.279c-0.177,2.196-0.677,4.398-1.18,5.991
		c-0.242,0.807-0.5,1.459-0.695,1.907c-0.195,0.449-0.312,0.706-0.312,0.706s0.133-0.249,0.364-0.679
		c0.229-0.437,0.536-1.074,0.842-1.859c0.627-1.576,1.29-3.735,1.651-6.002c0.156-1.116,0.28-2.24,0.394-3.293
		c0.121-1.059,0.108-2.113-0.018-2.99c-0.112-0.869-0.31-1.625-0.439-2.077c-0.133-0.473-0.211-0.742-0.211-0.742L27.322,116.969z"
		/>
	<path fill="#63862D" d="M21.085,131.106c0,0,0.171,0.223,0.474,0.611c0.329,0.42,0.664,0.861,1.054,1.533
		c0.389,0.654,0.734,1.441,1.015,2.433c0.143,0.505,0.29,1.028,0.441,1.559c0.15,0.493,0.272,1.07,0.414,1.607
		c0.472,2.104,0.655,4.364,0.646,6.027c0.006,0.835-0.046,1.537-0.099,2.024c-0.057,0.486-0.09,0.767-0.09,0.767
		s0.076-0.27,0.204-0.749c0.122-0.479,0.281-1.169,0.402-2.01c0.261-1.688,0.427-3.945,0.263-6.288
		c-0.058-0.565-0.114-1.132-0.168-1.69c-0.065-0.556-0.127-1.1-0.186-1.627c-0.068-0.544-0.16-1.078-0.274-1.598
		c-0.139-0.51-0.267-1.008-0.442-1.436c-0.322-0.861-0.725-1.613-0.941-2.014c-0.233-0.431-0.366-0.679-0.366-0.679L21.085,131.106z
		"/>
	<path fill="#63862D" d="M19.672,140.629c0,0-0.269-0.04-0.739-0.107c-0.209-0.041-0.581-0.063-0.97-0.084
		c-0.404-0.038-0.816-0.02-1.259,0.004c-0.894,0.043-1.905,0.211-2.949,0.472c-1.044,0.267-2.111,0.661-3.139,1.113
		c-1.016,0.484-2.002,1.009-2.863,1.597c-0.868,0.576-1.629,1.181-2.233,1.745c-0.606,0.56-1.061,1.073-1.358,1.446
		c-0.29,0.379-0.456,0.596-0.456,0.596s0.199-0.188,0.544-0.512c0.351-0.316,0.87-0.745,1.544-1.189
		c0.666-0.444,1.483-0.902,2.389-1.314c0.9-0.422,1.908-0.76,2.914-1.053c1.016-0.262,2.038-0.461,2.997-0.543
		c0.956-0.081,1.839-0.084,2.569,0.006c0.369,0.037,0.702,0.08,0.951,0.15c0.268,0.061,0.47,0.087,0.719,0.177
		c0.452,0.141,0.714,0.224,0.714,0.224L19.672,140.629z"/>
	<path fill="#63862D" d="M19.714,143.381c0,0-0.303-0.021-0.831-0.055c-0.243-0.022-0.691-0.027-1.118-0.035
		c-0.445-0.004-0.9,0.035-1.416,0.078c-1.019,0.105-2.188,0.358-3.358,0.791c-1.172,0.438-2.334,1.055-3.368,1.809
		c-1.034,0.758-1.948,1.633-2.691,2.525c-0.758,0.824-1.49,1.551-2.181,2.109c-0.685,0.559-1.326,0.938-1.821,1.086
		c-0.244,0.084-0.449,0.107-0.587,0.109c-0.14,0-0.215,0-0.215,0s0.073,0.008,0.215,0.031c0.138,0.015,0.354,0.016,0.612-0.035
		c0.531-0.084,1.244-0.392,2.024-0.869c0.782-0.473,1.628-1.131,2.503-1.84c0.901-0.639,1.922-1.199,2.977-1.611
		c1.056-0.412,2.148-0.66,3.156-0.758c1.011-0.096,1.938-0.05,2.717,0.077c0.379,0.069,0.749,0.138,1.028,0.215
		c0.296,0.093,0.483,0.132,0.749,0.224c0.5,0.169,0.787,0.264,0.787,0.264L19.714,143.381z"/>
	<path fill="#63862D" d="M18.811,146.766c0,0-0.269-0.002-0.729-0.014c-0.236,0-0.496-0.021-0.883,0.019
		c-0.366,0.046-0.796,0.034-1.22,0.142c-0.867,0.146-1.844,0.486-2.788,0.98c-0.931,0.522-1.816,1.181-2.638,1.875
		c-0.398,0.362-0.793,0.729-1.186,1.082c-0.381,0.363-0.771,0.684-1.111,1.063c-0.686,0.744-1.368,1.383-1.864,2.015
		c-0.508,0.618-0.96,1.104-1.199,1.516c-0.259,0.383-0.405,0.602-0.405,0.602s0.174-0.2,0.479-0.55
		c0.277-0.365,0.791-0.794,1.359-1.339c0.563-0.558,1.313-1.102,2.057-1.733c0.363-0.318,0.807-0.6,1.225-0.908
		c0.42-0.3,0.845-0.6,1.271-0.903c0.878-0.567,1.771-1.069,2.624-1.419c0.864-0.321,1.684-0.492,2.396-0.521
		c0.357-0.049,0.664,0.014,0.943,0.006c0.256-0.006,0.558,0.052,0.781,0.082c0.46,0.066,0.723,0.104,0.723,0.104L18.811,146.766z"/>
	<path fill="#63862D" d="M17.997,146.309c0,0,0.105,0.109,0.289,0.307c0.208,0.203,0.417,0.473,0.642,0.793
		c0.467,0.682,0.948,1.764,1.128,2.941c0.191,1.169,0.163,2.397,0.037,3.303c-0.11,0.908-0.307,1.498-0.307,1.498
		s0.277-0.555,0.521-1.453c0.257-0.896,0.469-2.136,0.444-3.414c-0.011-1.278-0.354-2.561-0.808-3.471
		c-0.239-0.48-0.462-0.84-0.616-1.038c-0.152-0.221-0.243-0.347-0.243-0.347L17.997,146.309z"/>
	<path fill="#63862D" d="M22.976,127.875c0,0,0.17,0.203,0.466,0.561c0.144,0.176,0.352,0.4,0.482,0.623
		c0.14,0.24,0.354,0.469,0.498,0.797c0.352,0.621,0.641,1.408,0.821,2.313c0.153,0.909,0.194,1.933,0.175,2.977
		c-0.034,0.522-0.068,1.045-0.099,1.559c-0.046,0.518-0.049,1.039-0.131,1.518c-0.145,0.965-0.211,1.891-0.391,2.66
		c-0.159,0.775-0.257,1.432-0.422,1.861c-0.136,0.445-0.217,0.699-0.217,0.699s0.108-0.244,0.301-0.665
		c0.221-0.421,0.396-1.057,0.655-1.813c0.276-0.756,0.462-1.672,0.732-2.647c0.144-0.491,0.208-0.991,0.315-1.507
		c0.1-0.52,0.201-1.045,0.3-1.576c0.153-1.063,0.25-2.163,0.205-3.229c-0.074-1.066-0.305-2.077-0.637-2.888
		c-0.13-0.417-0.366-0.778-0.52-1.108c-0.17-0.355-0.328-0.56-0.448-0.759c-0.253-0.392-0.398-0.614-0.398-0.614L22.976,127.875z"/>
	<path fill="#63862D" d="M25.094,121.487c0,0,0.146,0.225,0.394,0.615c0.121,0.193,0.297,0.441,0.397,0.682
		c0.107,0.252,0.295,0.504,0.396,0.85c0.27,0.666,0.456,1.479,0.521,2.398c0.035,0.924-0.048,1.943-0.2,2.977
		c-0.099,0.513-0.198,1.027-0.298,1.531c-0.109,0.506-0.181,1.025-0.32,1.491c-0.268,0.937-0.451,1.846-0.725,2.587
		c-0.259,0.746-0.437,1.392-0.655,1.793c-0.19,0.424-0.301,0.666-0.301,0.666s0.139-0.223,0.382-0.619
		c0.273-0.387,0.527-0.999,0.88-1.719c0.369-0.711,0.666-1.6,1.061-2.531c0.203-0.469,0.334-0.96,0.507-1.455
		c0.162-0.501,0.329-1.012,0.494-1.525c0.287-1.037,0.521-2.117,0.612-3.178c0.058-1.064-0.04-2.098-0.267-2.943
		c-0.078-0.432-0.267-0.818-0.378-1.167c-0.123-0.368-0.25-0.596-0.351-0.812c-0.198-0.418-0.314-0.658-0.314-0.658L25.094,121.487z
		"/>
	<path fill="#63862D" d="M17.96,150.936c0,0-0.199,0.082-0.555,0.225c-0.182,0.084-0.375,0.135-0.648,0.285
		c-0.271,0.146-0.575,0.316-0.908,0.5c-0.608,0.398-1.252,0.914-1.864,1.54c-0.281,0.331-0.597,0.651-0.854,1.021
		c-0.267,0.368-0.534,0.73-0.755,1.128c-0.94,1.547-1.499,3.239-1.816,4.514c-0.313,1.277-0.359,2.148-0.359,2.148
		s0.175-0.854,0.672-2.046c0.495-1.19,1.287-2.731,2.363-4.015c0.256-0.332,0.55-0.625,0.833-0.913
		c0.276-0.294,0.603-0.526,0.882-0.778c0.608-0.453,1.213-0.801,1.737-1.043c0.255-0.095,0.489-0.181,0.695-0.26
		c0.202-0.08,0.467-0.123,0.639-0.17c0.368-0.089,0.579-0.141,0.579-0.141L17.96,150.936z"/>
	<path fill="#63862D" d="M20.857,135.178c0,0,0.139,0.168,0.38,0.461c0.112,0.143,0.294,0.326,0.411,0.525
		c0.126,0.197,0.267,0.424,0.421,0.668c0.283,0.53,0.564,1.189,0.782,1.936c0.071,0.38,0.191,0.77,0.238,1.179
		c0.053,0.407,0.111,0.822,0.115,1.247c0.087,1.693-0.208,3.406-0.53,4.654c-0.32,1.256-0.696,2.044-0.696,2.044
		s0.455-0.748,0.905-1.979c0.451-1.227,0.931-2.93,1.021-4.712c0.039-0.446,0.022-0.894,0.009-1.335
		c-0.005-0.444-0.086-0.876-0.127-1.299c-0.153-0.84-0.389-1.607-0.659-2.255c-0.162-0.323-0.307-0.622-0.44-0.88
		c-0.137-0.268-0.273-0.425-0.373-0.594c-0.212-0.316-0.333-0.494-0.333-0.494L20.857,135.178z"/>
	<path fill="#63862D" d="M18.237,148.713c0,0-0.221,0.007-0.605,0.021c-0.193,0.013-0.426,0.021-0.695,0.033
		c-0.285,0.031-0.642,0.094-1.009,0.15c-0.377,0.045-0.756,0.158-1.149,0.283c-0.4,0.102-0.802,0.278-1.205,0.477
		c-0.822,0.371-1.604,0.941-2.277,1.59c-1.354,1.314-2.157,2.972-2.628,4.211c-0.236,0.627-0.403,1.152-0.524,1.518
		c-0.125,0.365-0.195,0.572-0.195,0.572s0.101-0.193,0.28-0.535c0.172-0.348,0.418-0.842,0.734-1.414
		c0.637-1.14,1.653-2.586,3.013-3.551c0.676-0.477,1.404-0.855,2.13-1.059c0.359-0.113,0.706-0.211,1.054-0.242
		c0.34-0.053,0.659-0.104,0.944-0.086c0.29,0,0.535-0.022,0.782-0.009c0.267,0.029,0.5,0.056,0.694,0.071
		c0.384,0.04,0.603,0.063,0.603,0.063L18.237,148.713z"/>
	<path fill="#63862D" d="M17.523,153.102c0,0-0.604,0.621-1.506,1.549c-0.433,0.508-0.969,1.084-1.472,1.729
		c-0.505,0.618-1.029,1.343-1.512,2.065c-0.47,0.74-0.906,1.514-1.181,2.299c-0.281,0.783-0.366,1.586-0.264,2.236
		c0.097,0.656,0.291,1.166,0.43,1.516c0.146,0.351,0.228,0.548,0.228,0.548s-0.063-0.202-0.178-0.567
		c-0.107-0.357-0.249-0.88-0.284-1.514c-0.041-0.631,0.103-1.363,0.435-2.073c0.324-0.716,0.802-1.415,1.318-2.083
		c0.538-0.664,1.084-1.289,1.651-1.876c0.545-0.583,1.127-1.026,1.583-1.454c1.014-0.801,1.691-1.334,1.691-1.334L17.523,153.102z"
		/>
	<path fill="#63862D" d="M24.084,124.161c0,0,0.291,0.812,0.729,2.025c0.161,0.605,0.422,1.289,0.572,2.071
		c0.171,0.798,0.305,1.616,0.411,2.468c0.088,0.84,0.121,1.687,0.02,2.463c-0.098,0.779-0.358,1.477-0.729,1.994
		c-0.363,0.517-0.763,0.886-1.045,1.134c-0.285,0.245-0.448,0.385-0.448,0.385s0.178-0.126,0.486-0.342
		c0.302-0.226,0.736-0.558,1.162-1.06c0.433-0.502,0.786-1.227,0.96-2.04c0.181-0.814,0.224-1.698,0.213-2.575
		c-0.024-0.869-0.091-1.761-0.19-2.559c-0.084-0.809-0.236-1.582-0.335-2.243c-0.277-1.265-0.464-2.108-0.464-2.108L24.084,124.161z
		"/>
	<path fill="#63862D" d="M18.284,164.53c-0.195-0.127-0.425-0.369-0.616-0.701c-0.407-0.667-0.641-1.705-0.624-2.751
		c0.013-0.521,0.066-1.044,0.153-1.526c0.087-0.481,0.193-0.93,0.313-1.316c0.102-0.395,0.22-0.678,0.259-0.908
		c0.052-0.219,0.054-0.354,0.054-0.354l0.692,1.237c-0.05,0.1-0.101,0.197-0.143,0.31c-0.157,0.334-0.315,0.732-0.464,1.174
		c-0.143,0.445-0.266,0.925-0.347,1.414c-0.064,0.484-0.112,0.979-0.063,1.438c0.029,0.462,0.132,0.885,0.29,1.221
		c0.153,0.342,0.341,0.596,0.517,0.732c0.176,0.144,0.313,0.156,0.313,0.156S18.481,164.655,18.284,164.53z"/>
	<path fill="#63862D" d="M37.969,98.25c0,0-0.557-0.115-1.531-0.316c-0.992-0.188-2.316-0.503-3.948-0.914
		c-1.632-0.422-3.528-0.969-5.575-1.577c-2.049-0.597-4.254-1.243-6.519-1.72l-1.701-0.321c-0.571-0.073-1.144-0.151-1.708-0.222
		c-1.136-0.095-2.254-0.201-3.334-0.163c-1.086-0.017-2.124,0.087-3.108,0.171c-0.981,0.089-1.895,0.277-2.747,0.395
		c-0.832,0.186-1.601,0.352-2.28,0.504c-0.68,0.142-1.254,0.344-1.734,0.471c-0.956,0.277-1.505,0.432-1.505,0.432
		s0.561-0.111,1.533-0.313c0.49-0.087,1.069-0.249,1.759-0.337c0.68-0.096,1.454-0.202,2.294-0.321
		c0.846-0.056,1.759-0.166,2.725-0.185c0.969-0.005,1.984-0.033,3.031,0.068c1.05,0.045,2.12,0.229,3.202,0.404
		c0.538,0.114,1.081,0.228,1.623,0.34l1.616,0.438c2.146,0.628,4.253,1.426,6.244,2.179c1.989,0.759,3.871,1.462,5.501,2.021
		c1.639,0.548,3.051,1.001,3.994,1.257c0.957,0.273,1.506,0.429,1.506,0.429L37.969,98.25z"/>
	<path fill="#63862D" d="M39.65,94.225c0,0-0.028,0.473-0.09,1.301c-0.026,0.412-0.063,0.912-0.102,1.49
		c-0.033,0.582-0.105,1.217-0.116,1.942c-0.02,1.449-0.077,3.168-0.069,4.925c-0.012,0.88,0.014,1.812-0.028,2.721
		c-0.04,0.916-0.06,1.854-0.121,2.785c-0.12,0.918-0.238,1.838-0.355,2.739c-0.15,0.899-0.446,1.749-0.651,2.602
		c-0.131,0.409-0.195,0.849-0.367,1.23c-0.169,0.385-0.335,0.767-0.497,1.13c-0.321,0.74-0.621,1.442-0.905,2.088
		c-0.7,1.217-1.332,2.218-1.756,2.93c-0.431,0.71-0.679,1.115-0.679,1.115s0.282-0.381,0.777-1.047
		c0.485-0.671,1.215-1.611,2.036-2.785c0.347-0.626,0.72-1.306,1.115-2.025c0.198-0.362,0.405-0.734,0.614-1.115
		c0.215-0.379,0.322-0.815,0.495-1.229c0.294-0.854,0.683-1.719,0.927-2.637c0.21-0.928,0.422-1.875,0.636-2.82
		c0.15-0.951,0.261-1.902,0.387-2.845c0.136-0.943,0.191-1.847,0.286-2.741c0.154-1.789,0.359-3.371,0.502-4.76
		c0.073-0.687,0.209-1.34,0.292-1.908c0.094-0.57,0.174-1.067,0.24-1.475c0.135-0.818,0.211-1.286,0.211-1.286L39.65,94.225z"/>
	<path fill="#63862D" d="M28.584,114.725c0,0-1.452-0.102-3.627-0.244c-0.551-0.02-1.1-0.115-1.705-0.182
		c-0.604-0.082-1.234-0.142-1.901-0.243c-0.672-0.106-1.367-0.218-2.075-0.329c-0.74-0.074-1.461-0.238-2.231-0.232
		c-0.767,0.011-1.532-0.066-2.26,0.086c-0.727,0.12-1.458,0.162-2.122,0.342c-1.333,0.353-2.591,0.602-3.626,0.961
		c-2.084,0.64-3.473,1.069-3.473,1.069s1.43-0.257,3.569-0.649c1.066-0.228,2.329-0.319,3.659-0.504
		c0.67-0.098,1.354-0.049,2.046-0.082c0.694-0.063,1.378,0.104,2.06,0.168c0.679,0.075,1.363,0.318,2.031,0.465
		c0.689,0.195,1.369,0.389,2.022,0.576c0.659,0.182,1.329,0.332,1.95,0.491c0.618,0.146,1.224,0.321,1.754,0.407
		c2.142,0.404,3.566,0.674,3.566,0.674L28.584,114.725z"/>
	<path fill="#63862D" d="M29.334,110.739c0,0-0.006,1.45-0.015,3.631c-0.018,0.533,0.04,1.15,0.066,1.787
		c0.036,0.635,0.058,1.311,0.112,1.992c0.059,0.679,0.12,1.38,0.183,2.094c0.016,0.688,0.126,1.41,0.068,2.1
		c-0.065,0.693-0.036,1.401-0.229,2.077c-0.166,0.679-0.253,1.366-0.474,2.005c-0.437,1.271-0.77,2.494-1.193,3.5
		c-0.787,2.027-1.313,3.377-1.313,3.377s0.645-1.299,1.616-3.25c0.513-0.964,0.963-2.162,1.52-3.417
		c0.282-0.627,0.442-1.335,0.677-2.026c0.264-0.687,0.311-1.446,0.447-2.189c0.125-0.748,0.079-1.485,0.125-2.221
		c0.005-0.717,0.008-1.416,0.008-2.098c0.008-0.679,0.05-1.313,0.063-1.924c0.034-0.615,0.026-1.177,0.092-1.725
		c0.205-2.167,0.344-3.617,0.344-3.617L29.334,110.739z"/>
	<path fill="#63862D" d="M19.345,136.806c0,0,0.213,0.819,0.531,2.046c0.198,0.621,0.42,1.375,0.686,2.121
		c0.131,0.371,0.264,0.754,0.399,1.147c0.113,0.383,0.277,0.772,0.358,1.164c0.078,0.392,0.212,0.784,0.249,1.182
		c0.044,0.401,0.087,0.798,0.125,1.178c-0.01,0.773,0.021,1.507-0.023,2.135c-0.101,1.261-0.171,2.098-0.171,2.098
		s0.197-0.821,0.496-2.054c0.142-0.622,0.23-1.364,0.361-2.161c0.022-0.406,0.042-0.829,0.064-1.253
		c0.022-0.434-0.047-0.869-0.068-1.313c-0.025-0.443-0.126-0.855-0.184-1.283c-0.075-0.409-0.149-0.814-0.22-1.203
		c-0.146-0.78-0.233-1.469-0.329-2.073c-0.127-1.261-0.208-2.1-0.208-2.1L19.345,136.806z"/>
	<path fill="#63862D" d="M24.498,125.358c0,0-0.347-0.143-0.957-0.393c-0.615-0.252-1.504-0.629-2.648-1.02
		c-0.59-0.178-1.229-0.36-1.93-0.473c-0.691-0.109-1.434-0.195-2.175-0.188c-1.491-0.019-3.006,0.109-4.538,0.275
		c-3.048,0.354-6.002,1.113-8.188,1.678c-1.095,0.276-2.011,0.492-2.66,0.54c-0.66,0.065-1.008-0.128-1.008-0.128
		s0.329,0.234,1.008,0.232c0.67,0.021,1.617-0.096,2.737-0.259c2.241-0.337,5.223-0.778,8.196-0.81
		c1.475-0.023,2.984,0.045,4.31,0.252c0.673,0.082,1.283,0.241,1.854,0.41c0.563,0.164,1.079,0.395,1.552,0.605
		c0.944,0.475,1.744,0.939,2.318,1.271c0.571,0.328,0.899,0.516,0.899,0.516L24.498,125.358z"/>
	<path fill="#63862D" d="M23.179,130.094c0,0-0.301-0.133-0.827-0.371c-0.549-0.229-1.326-0.574-2.326-0.861
		c-0.503-0.128-1.063-0.271-1.673-0.316c-0.608-0.049-1.246-0.014-1.869,0.043c-1.246,0.131-2.503,0.229-3.829,0.214
		c-2.64-0.002-5.308,0.194-7.256,0.573c-0.975,0.196-1.773,0.42-2.317,0.611c-0.536,0.211-0.846,0.331-0.846,0.331
		s0.314-0.099,0.862-0.273c0.557-0.15,1.36-0.319,2.338-0.448c1.956-0.246,4.574-0.26,7.202-0.08
		c1.308,0.104,2.684,0.088,3.904,0.039c1.223-0.061,2.238,0.109,3.126,0.438c0.885,0.316,1.598,0.689,2.098,0.938
		c0.511,0.268,0.801,0.421,0.801,0.421L23.179,130.094z"/>
	<path fill="#63862D" d="M37.538,98.79c0,0,0.051,0.332,0.145,0.91c0.046,0.293,0.105,0.642,0.168,1.044
		c0.037,0.39,0.07,0.832,0.111,1.315c0.074,0.957,0.063,2.111-0.043,3.335c-0.114,1.223-0.336,2.517-0.628,3.824
		c-0.26,1.336-0.496,2.612-0.966,3.761c-0.456,1.143-1.046,2.146-1.629,2.958c-0.58,0.813-1.123,1.45-1.492,1.909
		c-0.365,0.457-0.572,0.721-0.572,0.721s0.227-0.248,0.623-0.677c0.402-0.427,0.993-1.023,1.64-1.801
		c0.651-0.772,1.333-1.755,1.896-2.909c0.57-1.152,0.95-2.494,1.267-3.774c0.361-1.29,0.678-2.622,0.867-3.892
		c0.182-1.271,0.26-2.469,0.243-3.51c-0.017-0.525-0.029-1.002-0.041-1.427c-0.043-0.407-0.078-0.761-0.11-1.051
		c-0.058-0.585-0.093-0.92-0.093-0.92L37.538,98.79z"/>
	<path fill="#63862D" d="M17.315,153.452c0.007,0.033-0.049,0.111-0.068,0.637c0.006,0.178,0.006,0.391,0.011,0.635
		c0.007,0.225-0.012,0.461-0.04,0.731c-0.037,0.263-0.088,0.55-0.185,0.852c-0.068,0.308-0.224,0.615-0.342,0.948
		c-0.32,0.658-0.698,1.316-1.109,1.99c-0.821,1.328-1.677,2.68-2.121,3.784c-0.236,0.55-0.36,1.028-0.447,1.361
		c-0.067,0.339-0.104,0.531-0.104,0.531s0.053-0.189,0.152-0.515c0.115-0.324,0.277-0.786,0.556-1.302
		c0.537-1.046,1.483-2.286,2.43-3.548c0.925-1.266,1.864-2.604,2.236-3.877c0.085-0.31,0.155-0.605,0.185-0.861
		c0.036-0.232,0.063-0.434,0.089-0.602c0.018-0.092,0.029-0.184,0.07-0.289c0.028-0.088,0.044-0.134,0.044-0.134L17.315,153.452z"/>
	<path fill="#63862D" d="M17.686,149.556c0.021,0.027,0.02,0.122,0.283,0.577c0.096,0.148,0.212,0.328,0.344,0.533
		c0.128,0.188,0.241,0.4,0.361,0.639c0.106,0.243,0.221,0.513,0.3,0.819c0.105,0.296,0.139,0.64,0.216,0.983
		c0.077,0.727,0.109,1.485,0.121,2.273c0.014,1.565,0.014,3.16,0.228,4.336c0.092,0.59,0.244,1.063,0.348,1.391
		c0.123,0.322,0.197,0.507,0.197,0.507s-0.058-0.189-0.152-0.521c-0.07-0.335-0.18-0.813-0.218-1.397
		c-0.106-1.171,0.035-2.722,0.16-4.298c0.104-1.563,0.186-3.195-0.18-4.472c-0.093-0.309-0.197-0.594-0.304-0.827
		c-0.095-0.213-0.177-0.401-0.245-0.554c-0.037-0.088-0.072-0.171-0.093-0.282c-0.021-0.092-0.034-0.138-0.034-0.138L17.686,149.556
		z"/>
	<path fill="#3F5824" d="M126.119,52.606c-0.242-4.301-1.807-8.65-1.708-12.886c1.979,1.931,2.592,11.882,4.833,11.733
		c-0.947,0.371-1.957,1.086-2.709,1.847c-0.401-0.248-0.345-0.591-0.457-0.967L126.119,52.606z"/>
	<path fill="#3F5824" d="M114.615,26.729c2.776,4.612,5.372,8.539,6.524,13.813c0.569,2.678,1.198,5.101,1.898,7.631
		c0.427,1.833,2.233,5.645-0.626,5.531c-1.142-4.635-1.907-9.35-2.6-13.962c-0.621-3.865-2.591-10.521-5.405-13.244L114.615,26.729z
		"/>
	<path fill="#3F5824" d="M118.11,47.737c-0.614-1.611-1.516-3.095-2.211-4.726c1.638,3.386,3.016,7.261,5.875,9.787
		c-0.607,0.429-1.573,0.887-2.382,0.927c-1.081-2.494-1.028-5.41-2.111-7.904L118.11,47.737z"/>
	<path fill="#3F5824" d="M82.818,45.231c0.514,1.507,1.974,3.355,2.716,4.9c0.92,1.874,1.856,3.688,2.712,5.607
		c0.465,1.086,2.879,4.278,2.58,5.349c-0.168,0.626-3.914,2.825-4.709,2.984c-1.013-3.424-1.396-7.098-3.029-10.334
		c0.43,1.967,2.25,5.884,4.021,6.952c1.554-2.868-2.167-8.114-2.926-10.967c-0.45-1.849-0.973-3.653-1.859-5.4
		c-0.54-0.981-1.316-1.642-1.812-2.556c-0.497-0.916-0.367-2.015-0.86-2.927c-0.408-0.718-0.688-1.18-1.39-1.241L82.818,45.231z"/>
	<path fill="#3F5824" d="M72.093,54.316c1.668,4.276,4.271,8.266,7.322,11.716c-0.764,0.314-1.641,0.785-2.361,1.372
		c-0.649-2.95-1.53-6.649-3.216-9.244L72.093,54.316z"/>
	<path fill="#3F5824" d="M69.614,58.729c2.837,2.612,3.107,7.805,6.506,9.718c-2.563,0.979-7.099,3.134-9.074,4.839
		C63.82,66.704,56.36,61.527,50.104,58.157c2.56-0.455,6.332,2.939,8.513,4.199c2.811,1.721,5.203,4.348,8.058,5.81
		c-1.702-1.977-2.919-4.225-4.619-6.197c1.975,1.934,2.816,4.292,5.657,5.308c-1.397-2.721-3.022-6.195-5.434-8.199
		c3.557,3.088,5.52,8.213,10.563,9.341c0.229-3.423-1.269-7.137-3.285-9.877L69.614,58.729z"/>
	<path fill="#3F5824" d="M63.1,75.851c1.161-1.597-3.233-5.559-5.62-7.585c2.381,0.942,6.431,4.274,8.097,6.297
		C64.641,74.698,63.648,75.099,63.1,75.851z"/>
	<path fill="#3F5824" d="M58.252,78.75c3.663-2.869-6.185-7.438-9.635-8.561c2.835-0.491,5.817,1.79,8.042,3.324
		c0.473,0.342,3.601,2.294,3.715,2.67C60.771,77.493,59.273,77.95,58.252,78.75z"/>
	<path fill="#3F5824" d="M55.583,80.705c0.581-0.614-1.963-1.544-2.557-2.19c-0.786-0.878-1.498-1.271-2.493-1.869
		c-1.448-0.873-3.148-1.434-4.563-2.3c1.575,0.147,2.921,2.099,4.303,2.921c1.813,1.049,2.689,3.228,4.517,4.203
		C55.005,81.115,55.296,81.008,55.583,80.705z"/>
	<path fill="#3F5824" d="M52.393,83.17c0,0-0.215-0.16-0.592-0.438c-0.205-0.135-0.405-0.317-0.602-0.55
		c-0.214-0.231-0.456-0.491-0.722-0.774c-0.272-0.303-0.553-0.641-0.938-0.945c-0.355-0.338-0.766-0.629-1.188-0.888
		c-0.42-0.275-0.859-0.56-1.299-0.849c-0.47-0.259-0.942-0.52-1.418-0.781c-0.468-0.264-0.938-0.518-1.396-0.775
		c-0.416-0.305-0.817-0.611-1.213-0.935c-0.375-0.331-0.825-0.569-1.196-0.831c-0.379-0.259-0.739-0.504-1.074-0.73
		c-0.659-0.459-1.239-0.81-1.674-0.99c-0.436-0.193-0.721-0.152-0.716-0.174c-0.005,0.022,0.28-0.007,0.702,0.201
		c0.424,0.2,0.982,0.568,1.626,1.051c0.323,0.24,0.674,0.502,1.045,0.776c0.373,0.286,0.783,0.521,1.151,0.868
		c0.367,0.33,0.78,0.676,1.205,1.012c0.453,0.276,0.913,0.555,1.37,0.834c0.457,0.275,0.91,0.549,1.354,0.82
		c0.433,0.309,0.857,0.606,1.265,0.899c0.201,0.146,0.403,0.291,0.601,0.432c0.17,0.146,0.332,0.313,0.494,0.458
		c0.332,0.283,0.598,0.631,0.854,0.936c0.272,0.311,0.521,0.604,0.74,0.86c0.226,0.274,0.438,0.478,0.628,0.612
		c0.365,0.293,0.574,0.458,0.574,0.458L52.393,83.17z"/>
	<path fill="#3F5824" d="M37.218,78.602c2.706,0.461,5.508,2.061,7.869,3.467c1.76,1.131,3.922,1.969,5.411,3.287
		c-1.66,0.725-4.185,2.367-4.406,4.339c-2.194-2.031-3.548-4.155-6.304-5.687c1.397,0.474,6.594,5.023,7.579,3.061
		C48.103,85.542,38.714,78.856,37.218,78.602z"/>
	<path fill="#3F5824" d="M36.835,86.125c2.498,1.315,5.7,2.997,7.802,4.892c-0.105,0.277-0.473,0.689-0.729,0.824
		c-1.333-0.879-2.255-2.468-3.565-3.389C39.516,87.872,36.835,86.125,36.835,86.125z"/>
	<path fill="#3F5824" d="M25.29,86.811c3.281,1.049,7.105,1.73,10.363,3.171c1.319,0.584,2.411,1.269,3.605,1.825
		c1.103,0.544,2.124,0.539,3.085,1.145c-0.287,0.4-1.034,1.645-1.428,1.889c-0.975,0.498-1.002-0.123-1.708-0.914
		c-1.111-1.296-2.935-2.05-4.367-3.004c-2.26-1.581-5.633-3.137-8.261-3.846c-0.47-0.125-0.985-0.213-1.459-0.293L25.29,86.811z"/>
	<path fill="#3F5824" d="M27.045,93.02c1.836,0.938,4.099,1.454,6.015,2.18c1.832,0.712,4.166,1.596,6.091,1.742
		c-0.28,1.643-1.747,0.107-2.515-0.336c-1.134-0.637-2.442-0.771-3.576-1.406L27.045,93.02z"/>
	<path fill="#3F5824" d="M27.084,96.331c2.179,0.237,4.33,1.344,6.462,1.842c1.407,0.328,2.939,0.457,4.274,0.948
		c-0.47,0.409-0.953,1.169-1.493,1.214c-0.761,0.043-1.655-0.949-2.222-1.268c-1.213-0.699-2.592-1.195-3.887-1.682
		c-2.502-0.916-5.253-1.693-7.745-2.43L27.084,96.331z"/>
	<path fill="#3F5824" d="M25.615,100.321c1.918-0.071,9.862,1.006,9.641,2.832c-0.061,0.609-2.133,3.141-2.549,3.248
		c-1.065,0.262-3.979-0.855-5.086-1.136c-2.723-0.685-5.304-0.366-7.979-0.822c4.779-0.818,8.761-0.104,12.893,0.108
		c0.66-1.525-1.338-2.043-2.536-2.824c-1.548-1.063-5.539-1.531-7.356-2.066L25.615,100.321z"/>
	<path fill="#3F5824" d="M19.119,107.439c2.503,0.022,6.071,0.547,8.535,1.188c0.761,0.219,1.577,0.891,2.453,0.948
		c1.008,0.083,1.37-0.474,2.248-0.946c-1.995-0.783-4.266-1.26-6.408-1.446C24.116,107.003,20.577,107.454,19.119,107.439z"/>
	<path fill="#3F5824" d="M17.278,111.074c2.916-0.436,6.258-0.8,9.147-0.303c0.731,0.122,2.5,0.156,3.146,0.534
		c0.962,0.606,0.265,0.8,0.039,1.871c-2.613-1.602-6.438-2.844-9.608-2.453L17.278,111.074z"/>
	<path fill="#3F5824" d="M19.304,114.735c1.316-0.175,3.069,0.478,4.426,0.578c1.489,0.119,3.214-0.119,4.587,0.158
		c-0.287,1.682-1.429,1.086-2.64,0.66c-1.095-0.365-2.349-0.532-3.385-0.975L19.304,114.735z"/>
	<path fill="#3F5824" d="M14.514,117.627c2.288-0.94,4.447-0.852,6.933-0.339c1.933,0.375,3.936,0.847,5.904,1.271
		c-0.246,0.666-0.667,1.305-0.868,1.98c-0.699-1.094-2.899-1.736-4.135-2.301c-1.284-0.529-2.416-1.13-3.847-1.061L14.514,117.627z"
		/>
	<path fill="#3F5824" d="M14.587,121.372c2.076-0.488,4.278-0.379,6.397-0.596c1.806-0.18,3.109-0.535,4.795,0.242
		c-0.088,0.782-0.352,1.535-0.173,2.32c-1.149-0.016-2.899-1.471-4.323-1.711c-1.163-0.2-3.017-0.636-4.098-0.553L14.587,121.372z"
		/>
	<path fill="#3F5824" d="M13.163,124.233c1.909,0.238,3.832,0.168,5.727,0.488c2.027,0.349,3.166,1.473,4.976,2.047
		c1.189-1.457-5.106-2-6.441-2.228L13.163,124.233z"/>
	<path fill="#3F5824" d="M13.93,126.786c1.289-0.395,3.771,0.48,4.927,0.619c1.476,0.193,3.223,0.017,4.603,0.43
		c-0.586,1.349-1.029,0.83-2.227,0.387c-0.922-0.303-1.94-0.92-2.92-0.908L13.93,126.786z"/>
	<path fill="#3F5824" d="M22.403,130.101c0,0-0.506,0.071-1.166-0.131c-0.657-0.208-1.516-0.534-2.417-0.743
		c-0.912-0.188-1.837-0.188-2.523-0.156c-0.688,0.029-1.147,0.047-1.147,0.047s0.462-0.002,1.146-0.013s1.611,0.029,2.499,0.227
		c0.881,0.232,1.744,0.552,2.383,0.804c0.636,0.27,1,0.631,1,0.631L22.403,130.101z"/>
	<path fill="#3F5824" d="M6.22,132.655c2.565-1.07,12.673-1.771,15.583-0.801c-0.317,0.832-0.236,0.73-0.604,1.498
		c-2.987-1.221-5.683-2.157-8.841-1.688L6.22,132.655z"/>
	<path fill="#3F5824" d="M18.402,135.077c2.119,0.361,1.223,0.156,2.824,0.136c0.432,1.965-3.98-0.012-5.215-0.399L18.402,135.077z"
		/>
	<path fill="#3F5824" d="M12.547,137.397c1.404-0.607,3.015-0.299,4.545-0.316c1.051-0.045,3.776-0.975,3.341,0.841
		c-2.477-0.271-5.021-0.93-7.615-0.624L12.547,137.397z"/>
	<path fill="#3F5824" d="M13.704,140.5c1.304-0.015,4.654-0.305,5.899-0.686c0.342,1.478-2.559,0.722-3.592,0.545L13.704,140.5z"/>
	<path fill="#3F5824" d="M11.774,142.387c2.131-0.703,4.152-0.771,6.39-1.041c-1.604,0.377-3.855,0.389-5.455,0.768L11.774,142.387z
		"/>
	<path fill="#3F5824" d="M10.072,147.02c1.632-0.551,4.489-1.861,6.165-1.633c-0.338-0.8,2.174-0.994,2.302-1.385
		c-1.527-0.081-4.794,1.451-6.158,2.166"/>
	<path fill="#3F5824" d="M18.44,147.29c-0.728,0.771-3.423,0.574-4.628,1.109c1.106-0.477,2.591-0.551,3.663-0.252
		C17.609,148.052,18.297,147.443,18.44,147.29z"/>
	<path fill="#3F5824" d="M17.925,149.489c-0.408-1.343-5.167,1.111-6.226,2.115c1.858-1.451,3.554-1.805,5.167-1.885
		C16.835,149.536,18,149.737,17.925,149.489z"/>
	<path fill="#3F5824" d="M17.738,151.844c-0.694,0.195-4.05,2.808-4.55,3.559C14.413,153.541,16.182,152.286,17.738,151.844z"/>
	<path fill="#3F5824" d="M17.526,154.247c-1.287,0.572-2.186,1.98-3.121,2.943c0.328-0.533,1.14-1.257,1.61-1.77
		C16.482,154.941,16.95,154.502,17.526,154.247z"/>
	<path fill="#3F5824" d="M17.288,156.367c0.033,0.788-0.608,1.849-1.095,2.444C16.518,157.953,17.329,157.349,17.288,156.367z"/>
	<path fill="#3F5824" d="M17.889,158.442c-0.175,0.326-0.584,1.264-0.523,1.682c0.093-0.619,0.296-1.045,0.5-1.541L17.889,158.442z"
		/>
	<path fill="#3F5824" d="M18.957,151.173c0.047-0.015-0.064-0.145,0.058-0.08c0.334,0.522,0.561,1.991,0.611,2.521
		c0.06-0.333-0.098-0.835-0.206-1.255c-0.099-0.458-0.417-0.801-0.471-1.256L18.957,151.173z"/>
	<path fill="#3F5824" d="M19.229,147.256c-0.371-0.692,0.37,0.264,0.417,0.492c0.08,0.458,0.258,1.264,0.425,1.715
		C20.047,148.572,19.629,148.014,19.229,147.256z"/>
	<path fill="#3F5824" d="M19.747,143.358c0.517,1.299,0.62,3.183,1.068,4.449c-0.133-0.78-0.427-1.564-0.585-2.299
		C20.083,144.852,19.981,143.944,19.747,143.358z"/>
	<path fill="#3F5824" d="M20.498,138.949c0.057-0.214,0.243-0.646,0.396-0.887c0.113,0.375-0.219,0.937-0.152,1.351
		c0.077,0.436,0.268,0.734,0.401,1.133c0.286,0.779,0.48,1.723,0.541,2.532c0.104-0.612-0.566-1.653-0.688-2.227
		c-0.125-0.575-0.919-1.644-0.417-2.111L20.498,138.949z"/>
	<path fill="#3F5824" d="M21.919,135.02c0.256,0.594,0.137,0.953,0.455,1.297c0.353,0.392,1.105,2.186,1.019,2.748
		C23.333,138.233,22.238,135.762,21.919,135.02z"/>
	<path fill="#3F5824" d="M22.665,130.498c0.142,0.343-0.144,1.39-0.074,1.777c0.071,0.368,0.715,0.889,0.929,1.218
		c0.418,0.644,0.555,1.655,0.958,2.412c0.002-0.398-0.31-0.787-0.418-1.182c-0.135-0.4-0.126-0.82-0.215-1.234
		C23.699,132.667,22.993,131.287,22.665,130.498z"/>
	<path fill="#3F5824" d="M23.805,128.073c0.169-0.348,0.244-0.432,0.528-1.063c0.575,1.696,1.317,4.188,1.524,5.978
		c-0.052-0.4-0.589-2.342-0.817-2.937c-0.244-0.661-0.721-1.624-1.29-2.053L23.805,128.073z"/>
	<path fill="#3F5824" d="M24.898,124.266c0.206,0.232-0.118,0.483-0.118,0.483c0.571,0.04,0.906,2.525,0.992,3.074
		C25.722,126.649,25.716,125.194,24.898,124.266z"/>
	<path fill="#3F5824" d="M26.365,121.244c0.191,0.278-0.096,0.528-0.087,0.822c0.778,0.498,1.178,2.716,1.412,3.513
		C27.589,124.417,27.04,122.212,26.365,121.244z"/>
	<path fill="#3F5824" d="M28.357,117.944c0.221,1.17,0.606,2.354,0.583,3.531C28.587,120.317,28.564,119.042,28.357,117.944z"/>
	<path fill="#3F5824" d="M30.251,112.483c-0.56,2.326,0.778,5.215,0.069,7.287C29.754,117.897,29.827,114.237,30.251,112.483z"/>
	<path fill="#3F5824" d="M35.523,103.651c-0.413-0.431-1.262,3.439-1.134,5.137c0.181,2.459-1.251,6.689-1.719,8.738
		c2.742-2.689,1.74-11.644,2.788-13.797L35.523,103.651z"/>
	<path fill="#3F5824" d="M38.521,99.774c0.019,0.807-0.118,3.824-0.061,4.693C38.755,102.918,38.554,101.317,38.521,99.774z"/>
	<path fill="#3F5824" d="M40.919,96.125c-0.25,0.43-0.658,0.746-0.986,1.104c0.294,0.701-0.145,1.898-0.157,2.664
		c-0.008,0.918,0.04,1.842,0.091,2.77c0.119,1.557,0.336,3.074,0.012,4.612c0.374-1.681,0.54-3.518,0.718-5.261
		c0.104-1.135,0.271-2.29,0.322-3.434c0-0.708-0.35-1.953,0.045-2.535L40.919,96.125z"/>
	<path fill="#3F5824" d="M44.9,91.58c-1.841,1.95-0.742,4.621-1.341,7.092c-0.015,0.087-0.015,0.087,0,0
		c0.811-2.168,1.54-4.883,1.441-7.163L44.9,91.58z"/>
	<path fill="#3F5824" d="M48.123,88.211c1.376,1.162,0.241,4.014-0.264,5.697c-0.2-1.954,0.562-3.814,0.177-5.713L48.123,88.211z"/>
	<path fill="#3F5824" d="M51.451,84.711c-0.299,0.973,0.126,4.301-1.12,10.727c0.743-2.144,0.967-4.367,1.712-6.513
		c0.583-1.673-0.018-3.374,0.692-4.909L51.451,84.711z"/>
	<path fill="#3F5824" d="M53.573,83.073c0.702,1.593,1.035,5.678,1.104,7.567c0.914-2.509,0.051-5.532-0.658-7.839L53.573,83.073z"
		/>
	<path fill="#3F5824" d="M56.105,81.268c0.223-0.271,0.706-0.5,0.959-0.678c-0.057,1.631,0.128,3.391,0.022,5.062
		c-0.133,1.571-0.606,3.046-0.306,4.649c-0.797-1.289,0.029-3.012-0.031-4.486c-0.025-1.425-0.081-3.43-0.795-4.705L56.105,81.268z"
		/>
	<path fill="#3F5824" d="M59.619,78.08c-0.341-0.737,1.601-0.528,2.346-0.755c-0.417,0.904-1.185,1.748-1.518,2.667
		c-0.349,1.009-0.065,1.94-0.106,2.955c-0.137,2.106-0.779,4.079-0.998,6.13c-0.193-1.719,0.199-3.78,0.365-5.527
		C59.836,82.016,60.269,79.475,59.619,78.08z"/>
	<path fill="#3F5824" d="M62.16,76.181c0.728,0.652,2.061-0.628,2.953-1.187c-0.282,2.702-1.278,6.972-2.491,9.426
		C63.959,78.127,64.469,78.256,62.16,76.181z"/>
	<path fill="#3F5824" d="M66.184,74.569c-0.173-0.401,1.062,0.225,1.328-1.019c0.365,1.481-0.388,6.567-0.736,8.106
		C66.617,77.165,66.883,76.196,66.184,74.569z"/>
	<path fill="#3F5824" d="M69.767,71.795c1.256,1.384,3.212-1.669,4.852-2.455c-1.345,2.166-1.282,4.926-2.125,7.267
		c-0.294-1.383,0.615-3.091,0.062-4.514c-2.821,0.938-2.839,9.363-4.326,11.857C68.653,80.923,72.156,74.419,69.767,71.795z"/>
	<path fill="#3F5824" d="M79.874,66.188c-2.488-0.424-2.431,4.377-3.259,6.627c1.07-1.587,2.218-3.61,3.956-4.468
		c0.455,1.494-1.007,4.351-1.716,5.918c0.839-1.278,2.749-4.938,4.118-5.682c0.334,3.252-2.402,8.638-2.704,11.957
		c1.86-5.718,3.952-12.938,7.42-16.48C84.512,64.494,83.237,66.76,79.874,66.188z"/>
	<path fill="#3F5824" d="M93.375,61.951c-0.864,0.282-2.286,1.485-2.286,1.485s-2.307,5.649-3.441,7.652
		c0.897-1.621,1.97-3.745,3.425-5.006c0.917,1.399,0.104,3.565,0.097,5.162c0.882-1.535,2.023-6.665,4.052-7.116
		c2.03-0.456,1.496,4.247,1.131,5.869c1.102-3.362,1.918-6.06,2.592-9.495C97.115,60.812,95.159,61.367,93.375,61.951z"/>
	<path fill="#3F5824" d="M101.958,59.58c-0.113-0.61,1.252-0.583,1.781-0.582c-0.122,2.816-1.435,7.383-2.793,9.638
		C101.72,65.413,102.506,62.601,101.958,59.58z"/>
	<path fill="#3F5824" d="M114.973,56.238c-0.012-0.865,1.308-0.4,2.189-0.337c-1.154,4.683-4.032,9.073-5.458,13.799
		C112.066,64.967,115.044,61.042,114.973,56.238z"/>
	<path fill="#3F5824" d="M119.566,55.172c1.025-0.269,1.697-0.067,2.763-0.064c-0.377,1.711-2.328,3.775-3.082,5.596
		c-0.77,1.911-1.091,3.807-1.604,5.76c-0.833,3.321-1.204,7.073-2.609,10.116C115.221,69.248,118.451,62.256,119.566,55.172z"/>
	<path fill="#3F5824" d="M124.313,53.761c0.905-0.111,1.841,0.136,2.731,0.112c-0.227,2.891-2.411,6.331-3.325,9.105
		c-0.931,2.856-1.631,5.93-2.962,8.544C121.752,66.722,126.658,58.244,124.313,53.761z"/>
	<path fill="#3F5824" d="M132.433,33.103c0.555,5.812-0.733,12.648,0.121,18.563c-1.182,0.153-2.301,0.497-3.41,0.751
		c-0.396-1.843-0.432-4.244-0.279-6.17c0.122,1.352,0.536,2.576,1.438,3.529C130.449,49.442,131.925,38.161,132.433,33.103z"/>
	<path fill="#3F5824" d="M131.471,53.606c0.392,3.485-2.996,6.143-3.959,9.706c0.095-1.582,0.746-3.333,0.94-4.988
		c0.195-1.649-0.479-3.451-0.04-4.975C128.412,53.35,130.427,53.516,131.471,53.606z"/>
	<path fill="#3F5824" d="M107.785,33.75c0.578,2.848,3.702,4.873,4.388,7.577c0.901,3.574,1.864,5.763,2.856,8.77
		c0.229,0.749,2.48,2.608,2.162,3.442c-0.455,1.607-1.847,1.457-2.596,0.624c-1.2-1.271-2.23-7.21-2.639-8.967
		c-0.524-2.129-0.635-4.101-1.446-6.104c-0.842-1.828-2.689-3.472-2.868-5.546L107.785,33.75z"/>
	<path fill="#3F5824" d="M108.554,48.55c-0.022,2.213-0.25,5.634,1.527,7.178c-1.63,1.234-3.173,2.478-5.187,2.844
		c1.413-4.639-0.367-13.989-3.835-17.598c1.061,1.602,6.298,13.384,7.423,7.474L108.554,48.55z"/>
	<path fill="#3F5824" d="M103.743,35.467c0.294,2.336,3.149,10.997,4.279,12.901c0.026-2.172-3.167-11.248-4.297-13.147
		L103.743,35.467z"/>
	<path fill="#3F5824" d="M101.952,57.774c-1.346-1.115-1.015-3.07-1.527-4.574c-0.637-1.825-1.15-2.976-1.42-4.855
		c1.733,3.014,1.929,6.717,4.729,9.027C103.064,57.495,102.585,57.529,101.952,57.774z"/>
	<path fill="#3F5824" d="M94.567,61.638c2.67-0.628,0.385-4.017-1.177-6.294c-1.382-1.95-1.143-4.393-2.747-6.44
		c1.376,0.945,1.043,2.897,1.95,4.177c0.756,1.129,2.678,2.349,3.93,2.619c-0.439-2.972-1.632-5.007-2.509-7.815
		c-0.761-2.499-1.165-4.991-2.769-7.04c1.331,0.877,1.509,2.623,1.913,4.05c0.454,1.853,1.104,3.267,2.198,4.812
		c1.089,1.604,1.501,2.976,2.207,4.752c0.76,1.788,2.099,2.606,3.28,3.992c-1.151,0.513-2.233,0.623-3.346,1.26
		C96.448,60.301,95.736,61.365,94.567,61.638z"/>
	<path fill="#3F5824" d="M75.039,47.263c1.116,3.917,3.14,6.923,5.024,10.438c0.839,1.68,1.557,3.34,2.478,4.913
		c1.286,2.173,0.528,2.107-1.462,3.009C79.982,61.292,76.261,51.552,75.039,47.263z"/>
	<path fill="#3F5824" d="M107.091,57.807c0.548-1.636,3.006-0.437,4.62-1.042c-0.962,2.923-2.759,5.184-3.649,8.372
		c-0.568,2.244-0.255,5.856-1.505,7.709c-0.187-1.24-0.024-2.541,0.048-3.766c-0.745,2.236-2.003,4.263-2.75,6.498
		c0.788-2.933,2.466-6.161,2.823-9.206C107.004,63.759,106.35,60.042,107.091,57.807z"/>
	<path fill="#3F5824" d="M192.019,55.139c-3.692-0.722-7.667-1.456-11.919-2.085c-5.913-0.877-12.357-1.563-19.177-1.515
		l-21.567,1.177c-14.914,1.55-30.743,4.572-45.9,9.716c-15.131,5.114-29.604,12.526-41.034,22.244
		c-5.717,4.831-10.656,10.193-14.642,15.782c-1.997,2.792-3.761,5.638-5.304,8.474c-0.751,1.435-1.481,2.834-2.136,4.27
		c-0.685,1.414-1.33,2.811-1.932,4.184c-2.446,5.493-4.426,10.654-5.863,15.318c-1.441,4.664-2.384,8.816-2.946,12.262
		c-0.602,3.441-0.796,6.18-0.885,8.039c-0.002,0.051-0.003,0.094-0.008,0.137c-0.015,0.53-0.031,1.088-0.043,1.667
		c0.001,0.114,0.001,0.231,0.001,0.327c-0.002,0.092-0.002,0.17-0.001,0.244c0.019,1.113,0.15,2.288,0.193,2.771
		c0.204,1.852,0.652,3.718,1.519,4.84c0.42,0.564,0.87,0.963,1.236,1.15c0.374,0.19,0.626,0.167,0.626,0.167
		s-0.25,0.049-0.653-0.104c-0.398-0.154-0.9-0.517-1.395-1.059c-0.502-0.535-0.974-1.269-1.35-2.104
		c-0.404-0.831-0.668-1.78-0.895-2.738c-0.196-0.962-0.315-1.938-0.364-2.859c-0.039-0.858-0.039-1.663,0.004-2.374
		c-0.003-0.033,0-0.063,0-0.098c0.022-1.91,0.219-4.702,0.788-8.213c0.598-3.498,1.592-7.699,3.087-12.398
		c1.509-4.69,3.481-9.889,5.956-15.424c1.226-2.777,2.58-5.595,4.063-8.532c1.527-2.901,3.276-5.81,5.268-8.673
		c3.97-5.729,8.917-11.252,14.659-16.24c5.737-5.006,12.264-9.46,19.252-13.313c6.987-3.865,14.442-7.115,22.077-9.828
		c15.28-5.418,31.241-8.689,46.308-10.466c7.541-0.873,14.879-1.401,21.852-1.487c7.021-0.129,13.643,0.428,19.683,1.22
		c3.179,0.412,6.188,0.88,9.041,1.361L192.019,55.139z"/>
</g>
</svg>
