<?xml version="1.0" encoding="utf-8"?>
<!-- Generator: Adobe Illustrator 16.0.0, SVG Export Plug-In . SVG Version: 6.00 Build 0)  -->
<!DOCTYPE svg PUBLIC "-//W3C//DTD SVG 1.1//EN" "http://www.w3.org/Graphics/SVG/1.1/DTD/svg11.dtd">
<svg version="1.1" id="Calque_1" xmlns="http://www.w3.org/2000/svg" xmlns:xlink="http://www.w3.org/1999/xlink" x="0px" y="0px"
	 width="400px" height="400px" viewBox="0 0 400 400" enable-background="new 0 0 400 400" xml:space="preserve">
<pattern  width="213.813" height="213.812" patternUnits="userSpaceOnUse" id="Nueva_muestra_de_motivo_5" viewBox="0 -213.812 213.813 213.812" overflow="visible">
	<g>
		<polygon fill="none" points="0,0 213.813,0 213.813,-213.812 0,-213.812 		"/>
		<path fill="#F6F4F2" d="M96.259-99.379l-35.26,35.298l-7.546-7.546l-7.573,7.573l-35.297-35.26l7.591-7.592l-7.576-7.576
			l35.261-35.298l7.595,7.595l7.587-7.587l35.298,35.261l-7.605,7.605L96.259-99.379z M62.026-106.906l-8.573-8.572l-8.573,8.572
			l8.573,8.573L62.026-106.906z"/>
		<polygon fill="#F6F4F2" points="42.835,-45.897 35.279,-53.453 42.856,-61.03 7.559,-96.291 0,-88.732 0,-62.026 8.573,-53.453 
			0,-44.88 0,-18.174 7.575,-10.6 		"/>
		<polygon fill="#F6F4F2" points="61.04,-42.866 53.453,-35.279 45.858,-42.874 10.598,-7.576 18.174,0 44.88,0 53.453,-8.573 
			62.026,0 88.732,0 96.338,-7.605 		"/>
		<polygon fill="#54BFCE" points="44.88,0 62.026,0 53.453,-8.573 		"/>
		<polygon fill="#54BFCE" points="98.333,-53.453 106.906,-44.88 115.479,-53.453 106.906,-62.026 		"/>
		<polygon fill="#54BFCE" points="0,-62.026 0,-44.88 8.573,-53.453 		"/>
		<polygon fill="#F6F4F2" points="170.929,-61.058 178.534,-53.453 170.97,-45.889 206.267,-10.629 213.813,-18.174 213.813,-44.88 
			205.24,-53.453 213.813,-62.026 213.813,-88.732 206.189,-96.355 		"/>
		<path fill="#F6F4F2" d="M149.763-61.03l-7.577,7.577l7.556,7.556L114.481-10.6l-7.575-7.574l-7.545,7.545l-35.297-35.26
			l7.563-7.564l-7.604-7.604l35.26-35.298l7.624,7.623l7.559-7.559L149.763-61.03z M115.479-53.453l-8.573-8.573l-8.573,8.573
			l8.573,8.573L115.479-53.453z"/>
		<polygon fill="#F6F4F2" points="167.946,-42.866 160.359,-35.279 152.765,-42.874 117.504,-7.576 125.08,0 151.787,0 
			160.359,-8.573 168.933,0 195.639,0 203.244,-7.605 		"/>
		<polygon fill="#54BFCE" points="151.787,0 168.933,0 160.359,-8.573 		"/>
		<polygon fill="#54BFCE" points="213.813,-44.88 213.813,-62.026 205.24,-53.453 		"/>
		<polygon fill="#F6F4F2" points="45.88,-170.96 53.453,-178.533 60.999,-170.987 96.259,-206.285 88.732,-213.812 62.026,-213.812 
			53.453,-205.24 44.88,-213.812 18.174,-213.812 10.583,-206.22 		"/>
		<path fill="#F6F4F2" d="M71.627-160.359l-7.604-7.605l35.26-35.298l7.624,7.624l7.559-7.559l35.297,35.26l-7.577,7.578
			l7.556,7.555l-35.26,35.298l-7.575-7.575l-7.545,7.545l-35.297-35.261L71.627-160.359z M98.333-160.359l8.573,8.572l8.573-8.572
			l-8.573-8.573L98.333-160.359z"/>
		<polygon fill="#F6F4F2" points="42.835,-152.804 35.279,-160.359 42.856,-167.937 7.559,-203.197 0,-195.638 0,-168.932 
			8.573,-160.359 0,-151.787 0,-125.08 7.575,-117.505 		"/>
		<polygon fill="#54BFCE" points="62.026,-213.812 44.88,-213.812 53.453,-205.24 		"/>
		<polygon fill="#54BFCE" points="44.88,-106.906 53.453,-98.333 62.026,-106.906 53.453,-115.479 		"/>
		<polygon fill="#54BFCE" points="0,-168.932 0,-151.787 8.573,-160.359 		"/>
		<polygon fill="#F6F4F2" points="152.786,-170.96 160.359,-178.533 167.905,-170.987 203.166,-206.285 195.639,-213.812 
			168.933,-213.812 160.359,-205.24 151.787,-213.812 125.08,-213.812 117.489,-206.22 		"/>
		<polygon fill="#F6F4F2" points="170.929,-167.964 178.534,-160.359 170.97,-152.795 206.267,-117.535 213.813,-125.08 
			213.813,-151.787 205.24,-160.359 213.813,-168.932 213.813,-195.638 206.189,-203.262 		"/>
		<path fill="#F6F4F2" d="M167.946-149.772l35.298,35.261l-7.605,7.605l7.527,7.527l-35.26,35.298l-7.546-7.546l-7.573,7.573
			l-35.297-35.26l7.591-7.592l-7.576-7.576l35.26-35.298l7.595,7.595L167.946-149.772z M168.933-106.906l-8.573-8.572l-8.573,8.572
			l8.573,8.573L168.933-106.906z"/>
		<polygon fill="#54BFCE" points="168.933,-213.812 151.787,-213.812 160.359,-205.24 		"/>
		<path fill="#54BFCE" d="M213.813-213.812v1.435v1.484v15.255l-7.624-7.624l-35.26,35.298l7.604,7.605l-7.563,7.563l35.297,35.261
			l7.545-7.545v15.083v1.596v1.496v1.435v1.484v15.255l-7.624-7.623l-35.26,35.298l7.604,7.604l-7.563,7.564l35.297,35.26
			l7.545-7.545v15.083v1.595V0h-1.496h-1.459h-15.219l7.605-7.605l-35.298-35.261l-7.587,7.587l-7.595-7.595l-35.26,35.298L125.08,0
			h-15.144h-1.566h-1.464h-1.496h-1.459H88.732l7.605-7.605L61.04-42.866l-7.587,7.587l-7.595-7.595L10.598-7.576L18.174,0H3.03
			H1.464H0v-1.464v-1.553v-15.157L7.575-10.6l35.26-35.298l-7.556-7.556l7.577-7.577L7.559-96.291L0-88.732v-15.109v-1.664v-1.4
			v-1.463v-1.553v-15.157l7.575,7.575l35.26-35.298l-7.556-7.555l7.577-7.578l-35.297-35.26L0-195.638v-15.109v-1.665v-1.4h1.4
			h1.582h15.191l-7.591,7.592l35.297,35.26l7.573-7.573l7.546,7.546l35.26-35.298l-7.527-7.527h15.046h1.693h1.435h1.4h1.582h15.191
			l-7.591,7.592l35.297,35.26l7.573-7.573l7.546,7.546l35.26-35.298l-7.527-7.527h15.046h1.693H213.813z M64.023-167.964
			l7.604,7.605l-7.563,7.563l35.297,35.261l7.545-7.545l7.575,7.575l35.26-35.298l-7.556-7.555l7.577-7.578l-35.297-35.26
			l-7.559,7.559l-7.624-7.624L64.023-167.964z M96.259-99.379l-7.527-7.527l7.605-7.605L61.04-149.772l-7.587,7.587l-7.595-7.595
			l-35.261,35.298l7.576,7.576l-7.591,7.592l35.297,35.26l7.573-7.573l7.546,7.546L96.259-99.379z M142.186-53.453l7.577-7.577
			l-35.297-35.261l-7.559,7.559l-7.624-7.623l-35.26,35.298l7.604,7.604l-7.563,7.564l35.297,35.26l7.545-7.545l7.575,7.574
			l35.26-35.298L142.186-53.453z M167.946-149.772l-7.587,7.587l-7.595-7.595l-35.26,35.298l7.576,7.576l-7.591,7.592l35.297,35.26
			l7.573-7.573l7.546,7.546l35.26-35.298l-7.527-7.527l7.605-7.605L167.946-149.772z"/>
		<polygon fill="#54BFCE" points="151.787,-106.906 160.359,-98.333 168.933,-106.906 160.359,-115.479 		"/>
		<polygon fill="#54BFCE" points="213.813,-151.787 213.813,-168.932 205.24,-160.359 		"/>
		<polygon fill="#54BFCE" points="115.479,-160.359 106.906,-168.932 98.333,-160.359 106.906,-151.787 		"/>
	</g>
</pattern>
<g>
	<g>
		<linearGradient id="SVGID_1_" gradientUnits="userSpaceOnUse" x1="296.3262" y1="366.8408" x2="103.6758" y2="33.1606">
			<stop  offset="0.1029" style="stop-color:#262626"/>
			<stop  offset="0.2247" style="stop-color:#353535"/>
			<stop  offset="0.4007" style="stop-color:#494949"/>
			<stop  offset="0.4963" style="stop-color:#515050"/>
			<stop  offset="0.5859" style="stop-color:#454444"/>
			<stop  offset="0.7699" style="stop-color:#272426"/>
			<stop  offset="0.7868" style="stop-color:#242123"/>
			<stop  offset="1" style="stop-color:#010202"/>
		</linearGradient>
		<path fill="url(#SVGID_1_)" d="M392.619,199.999c0,106.381-86.24,192.62-192.618,192.62c-106.381,0-192.619-86.239-192.619-192.62
			C7.382,93.62,93.62,7.382,200.001,7.382C306.379,7.382,392.619,93.62,392.619,199.999z"/>
		<path fill="#231F20" d="M200.001,395.034c-107.542,0-195.036-87.493-195.036-195.035c0-107.54,87.494-195.033,195.036-195.033
			c107.54,0,195.032,87.493,195.032,195.033C395.033,307.541,307.541,395.034,200.001,395.034z M200.001,9.797
			C95.122,9.797,9.799,95.122,9.799,199.999c0,104.879,85.323,190.202,190.203,190.202s190.202-85.323,190.202-190.202
			C390.203,95.122,304.881,9.797,200.001,9.797z"/>
	</g>
	<circle opacity="0.5" fill="#010202" cx="200.001" cy="199.999" r="86.483"/>
	
		<pattern  id="SVGID_2_" xlink:href="#Nueva_muestra_de_motivo_5" patternTransform="matrix(0.2246 0 0 0.2246 -1652.1621 -1556.6118)">
	</pattern>
	<circle fill="url(#SVGID_2_)" cx="200.002" cy="199.999" r="70.043"/>
	<path opacity="0.6" fill="#231F20" d="M200.001,339.7c-77.032,0-139.702-62.67-139.702-139.701S122.97,60.297,200.001,60.297
		s139.702,62.67,139.702,139.702S277.033,339.7,200.001,339.7z M200.001,62.345c-75.902,0-137.656,61.75-137.656,137.654
		c0,75.902,61.754,137.656,137.656,137.656c75.903,0,137.651-61.754,137.651-137.656C337.652,124.095,275.904,62.345,200.001,62.345
		z"/>
	<path opacity="0.6" fill="#231F20" d="M200.001,309.655c-60.464,0-109.654-49.192-109.654-109.656
		c0-60.46,49.189-109.651,109.654-109.651c60.459,0,109.651,49.191,109.651,109.651
		C309.652,260.463,260.461,309.655,200.001,309.655z M200.001,92.345c-59.362,0-107.654,48.293-107.654,107.654
		c0,59.362,48.292,107.658,107.654,107.658c59.36,0,107.651-48.296,107.651-107.658C307.652,140.638,259.361,92.345,200.001,92.345z
		"/>
	<circle fill="#D9DADC" cx="200.001" cy="199.999" r="27.723"/>
	<path opacity="0.6" fill="#231F20" d="M200.001,368.391c-92.851,0-168.392-75.541-168.392-168.392
		c0-92.851,75.541-168.391,168.392-168.391c92.85,0,168.389,75.54,168.389,168.391C368.391,292.85,292.852,368.391,200.001,368.391z
		 M200.001,34.075c-91.492,0-165.926,74.433-165.926,165.924c0,91.492,74.434,165.927,165.926,165.927
		c91.493,0,165.924-74.435,165.924-165.927C365.926,108.508,291.494,34.075,200.001,34.075z"/>
</g>
</svg>
